<?xml version="1.0" encoding="UTF-8"?>
<!DOCTYPE svg PUBLIC "-//W3C//DTD SVG 1.1//EN" "http://www.w3.org/Graphics/SVG/1.1/DTD/svg11.dtd">
<svg xmlns="http://www.w3.org/2000/svg" version="1.1" width="100px" height="100px" style="shape-rendering:geometricPrecision; text-rendering:geometricPrecision; image-rendering:optimizeQuality; fill-rule:evenodd; clip-rule:evenodd" xmlns:xlink="http://www.w3.org/1999/xlink">
<g><path style="opacity:0.089" fill="#040302" d="M 12.5,11.5 C 16.8461,11.3343 21.1794,11.501 25.5,12C 30.4924,14.1609 35.1591,16.8276 39.5,20C 54.614,32.6111 69.2807,45.7777 83.5,59.5C 90.5515,68.5024 89.8848,77.0024 81.5,85C 76.1934,88.5672 70.5267,89.2339 64.5,87C 56.697,80.1981 49.197,73.0314 42,65.5C 32.6243,55.1265 23.6243,44.4598 15,33.5C 10.1963,26.4833 9.36299,19.15 12.5,11.5 Z"/></g>
<g><path style="opacity:0.733" fill="#7a604f" d="M 24.5,20.5 C 26.0269,20.427 27.0269,21.0937 27.5,22.5C 25.9731,22.573 24.9731,21.9063 24.5,20.5 Z"/></g>
<g><path style="opacity:1" fill="#ddb483" d="M 24.5,20.5 C 24.9731,21.9063 25.9731,22.573 27.5,22.5C 29.1423,23.803 30.8089,25.1363 32.5,26.5C 32.6495,27.552 32.4828,28.552 32,29.5C 27.9776,25.9767 23.811,22.6434 19.5,19.5C 19.1667,19.6667 18.8333,19.8333 18.5,20C 21.0386,22.3697 23.3719,24.8697 25.5,27.5C 24.5,27.5 23.5,27.5 22.5,27.5C 20.1712,25.1587 18.1712,22.4921 16.5,19.5C 16.8333,18.5 17.5,17.8333 18.5,17.5C 20.5266,18.5133 22.5266,19.5133 24.5,20.5 Z"/></g>
<g><path style="opacity:1" fill="#b06840" d="M 32.5,26.5 C 32.8333,26.5 33.1667,26.5 33.5,26.5C 35.5,28.8333 37.5,31.1667 39.5,33.5C 37.0908,35.9024 35.0908,38.5691 33.5,41.5C 32.1667,40.5 30.8333,39.5 29.5,38.5C 28.9202,36.2512 27.5869,34.5846 25.5,33.5C 25.5,33.1667 25.5,32.8333 25.5,32.5C 28.6433,33.1335 31.1433,34.8002 33,37.5C 33.5,37 34,36.5 34.5,36C 31.6306,32.9621 28.6306,30.1288 25.5,27.5C 23.3719,24.8697 21.0386,22.3697 18.5,20C 18.8333,19.8333 19.1667,19.6667 19.5,19.5C 23.811,22.6434 27.9776,25.9767 32,29.5C 32.4828,28.552 32.6495,27.552 32.5,26.5 Z"/></g>
<g><path style="opacity:0.89" fill="#4a3527" d="M 33.5,26.5 C 36.9378,28.7589 40.2711,31.2589 43.5,34C 44.2524,34.6708 44.5858,35.5041 44.5,36.5C 42.5887,35.925 40.922,34.925 39.5,33.5C 37.5,31.1667 35.5,28.8333 33.5,26.5 Z"/></g>
<g><path style="opacity:1" fill="#c5854f" d="M 25.5,27.5 C 28.6306,30.1288 31.6306,32.9621 34.5,36C 34,36.5 33.5,37 33,37.5C 31.1433,34.8002 28.6433,33.1335 25.5,32.5C 24.075,31.078 23.075,29.4113 22.5,27.5C 23.5,27.5 24.5,27.5 25.5,27.5 Z"/></g>
<g><path style="opacity:0.533" fill="#41241b" d="M 25.5,33.5 C 27.5869,34.5846 28.9202,36.2512 29.5,38.5C 27.4131,37.4154 26.0798,35.7488 25.5,33.5 Z"/></g>
<g><path style="opacity:1" fill="#95754d" d="M 39.5,33.5 C 40.922,34.925 42.5887,35.925 44.5,36.5C 45.9133,37.9348 47.58,38.9348 49.5,39.5C 49.1667,39.5 48.8333,39.5 48.5,39.5C 46.5168,39.1568 45.1834,39.8235 44.5,41.5C 43.5987,42.2905 42.9321,43.2905 42.5,44.5C 40.0882,44.6941 39.0882,46.0274 39.5,48.5C 39.1667,48.5 38.8333,48.5 38.5,48.5C 37.2213,45.8883 35.5547,43.5549 33.5,41.5C 35.0908,38.5691 37.0908,35.9024 39.5,33.5 Z"/></g>
<g><path style="opacity:0.514" fill="#37291b" d="M 49.5,40.5 C 49.5,40.1667 49.5,39.8333 49.5,39.5C 54.4397,42.7703 58.7731,46.7703 62.5,51.5C 57.8927,48.2317 53.5594,44.5651 49.5,40.5 Z"/></g>
<g><path style="opacity:1" fill="#c49f5b" d="M 48.5,39.5 C 48.7725,41.9582 47.7725,43.6249 45.5,44.5C 44.6143,43.675 44.281,42.675 44.5,41.5C 45.1834,39.8235 46.5168,39.1568 48.5,39.5 Z"/></g>
<g><path style="opacity:1" fill="#dab261" d="M 42.5,44.5 C 44.6204,45.4033 44.9538,46.7367 43.5,48.5C 42.609,49.1098 41.609,49.4431 40.5,49.5C 39.8333,49.5 39.5,49.1667 39.5,48.5C 39.0882,46.0274 40.0882,44.6941 42.5,44.5 Z"/></g>
<g><path style="opacity:1" fill="#966728" d="M 43.5,48.5 C 46.3709,50.544 49.0375,52.8773 51.5,55.5C 52.3065,56.7281 53.3065,57.7281 54.5,58.5C 55.8333,60.1667 55.8333,61.8333 54.5,63.5C 49.5,59.1667 44.8333,54.5 40.5,49.5C 41.609,49.4431 42.609,49.1098 43.5,48.5 Z"/></g>
<g><path style="opacity:1" fill="#845323" d="M 49.5,40.5 C 53.5594,44.5651 57.8927,48.2317 62.5,51.5C 62.8333,52.1667 63.1667,52.8333 63.5,53.5C 56.5333,52.2211 51.8666,47.8877 49.5,40.5 Z"/></g>
<g><path style="opacity:0.475" fill="#3e301f" d="M 64.5,53.5 C 70.4345,57.9303 75.9345,62.9303 81,68.5C 81.8769,70.6742 81.3769,72.3409 79.5,73.5C 80.1157,72.2022 80.1157,71.2022 79.5,70.5C 74.9083,64.5686 69.9083,58.902 64.5,53.5 Z"/></g>
<g><path style="opacity:1" fill="#987235" d="M 48.5,39.5 C 48.8333,39.5 49.1667,39.5 49.5,39.5C 49.5,39.8333 49.5,40.1667 49.5,40.5C 51.8666,47.8877 56.5333,52.2211 63.5,53.5C 63.8333,53.5 64.1667,53.5 64.5,53.5C 69.9083,58.902 74.9083,64.5686 79.5,70.5C 77.9826,70.5106 76.8159,71.1772 76,72.5C 67.9273,63.7568 59.2606,55.7568 50,48.5C 49.5,49 49,49.5 48.5,50C 49.7577,51.7409 50.7577,53.5742 51.5,55.5C 49.0375,52.8773 46.3709,50.544 43.5,48.5C 44.9538,46.7367 44.6204,45.4033 42.5,44.5C 42.9321,43.2905 43.5987,42.2905 44.5,41.5C 44.281,42.675 44.6143,43.675 45.5,44.5C 47.7725,43.6249 48.7725,41.9582 48.5,39.5 Z"/></g>
<g><path style="opacity:0.702" fill="#4d3821" d="M 38.5,48.5 C 38.8333,48.5 39.1667,48.5 39.5,48.5C 39.5,49.1667 39.8333,49.5 40.5,49.5C 44.8333,54.5 49.5,59.1667 54.5,63.5C 59.204,69.2051 64.5374,74.2051 70.5,78.5C 70.8212,80.0481 71.8212,80.7148 73.5,80.5C 72.0813,81.4511 70.4147,81.7845 68.5,81.5C 68.5,80.5 68.5,79.5 68.5,78.5C 67.325,78.719 66.325,78.3857 65.5,77.5C 56.0893,68.0938 47.0893,58.4272 38.5,48.5 Z"/></g>
<g><path style="opacity:1" fill="#a2772c" d="M 54.5,58.5 C 60.2557,63.4818 65.7557,68.8151 71,74.5C 71.5791,75.9285 71.4124,77.2618 70.5,78.5C 64.5374,74.2051 59.204,69.2051 54.5,63.5C 55.8333,61.8333 55.8333,60.1667 54.5,58.5 Z"/></g>
<g><path style="opacity:1" fill="#ba9c4b" d="M 79.5,70.5 C 80.1157,71.2022 80.1157,72.2022 79.5,73.5C 78.5,76.5 76.5,78.5 73.5,79.5C 72.391,79.4431 71.391,79.1098 70.5,78.5C 71.4124,77.2618 71.5791,75.9285 71,74.5C 65.7557,68.8151 60.2557,63.4818 54.5,58.5C 53.3065,57.7281 52.3065,56.7281 51.5,55.5C 50.7577,53.5742 49.7577,51.7409 48.5,50C 49,49.5 49.5,49 50,48.5C 59.2606,55.7568 67.9273,63.7568 76,72.5C 76.8159,71.1772 77.9826,70.5106 79.5,70.5 Z"/></g>
<g><path style="opacity:1" fill="#8d7035" d="M 70.5,78.5 C 71.391,79.1098 72.391,79.4431 73.5,79.5C 73.5,79.8333 73.5,80.1667 73.5,80.5C 71.8212,80.7148 70.8212,80.0481 70.5,78.5 Z"/></g>
</svg>
