<?xml version="1.0" encoding="UTF-8"?>
<!DOCTYPE svg PUBLIC "-//W3C//DTD SVG 1.1//EN" "http://www.w3.org/Graphics/SVG/1.1/DTD/svg11.dtd">
<svg xmlns="http://www.w3.org/2000/svg" version="1.1" width="100px" height="100px" style="shape-rendering:geometricPrecision; text-rendering:geometricPrecision; image-rendering:optimizeQuality; fill-rule:evenodd; clip-rule:evenodd" xmlns:xlink="http://www.w3.org/1999/xlink">
<g><path style="opacity:0.088" fill="#020101" d="M 31.5,25.5 C 37.7316,24.9386 43.7316,25.772 49.5,28C 58.3333,35.5 66.5,43.6667 74,52.5C 76.7892,69.3792 69.6226,76.8792 52.5,75C 41.9007,66.735 33.0673,56.9017 26,45.5C 25.3333,40.8333 25.3333,36.1667 26,31.5C 27.3597,28.9774 29.193,26.9774 31.5,25.5 Z"/></g>
<g><path style="opacity:1" fill="#a14e1e" d="M 40.5,33.5 C 40.8333,33.5 41.1667,33.5 41.5,33.5C 43.0269,33.427 44.0269,34.0937 44.5,35.5C 44.5,35.8333 44.5,36.1667 44.5,36.5C 42.5447,36.2014 41.2114,35.2014 40.5,33.5 Z"/></g>
<g><path style="opacity:1" fill="#e0b569" d="M 40.5,33.5 C 41.2114,35.2014 42.5447,36.2014 44.5,36.5C 44.5,36.8333 44.5,37.1667 44.5,37.5C 44.719,38.675 44.3857,39.675 43.5,40.5C 41.1667,39.1667 38.8333,37.8333 36.5,36.5C 35.9214,37.3874 35.9214,38.5541 36.5,40C 36.1667,40.8333 35.8333,41.6667 35.5,42.5C 31.7655,36.7278 33.4322,33.7278 40.5,33.5 Z"/></g>
<g><path style="opacity:1" fill="#834e29" d="M 41.5,33.5 C 41.1667,33.5 40.8333,33.5 40.5,33.5C 33.4322,33.7278 31.7655,36.7278 35.5,42.5C 35.8333,41.6667 36.1667,40.8333 36.5,40C 35.9214,38.5541 35.9214,37.3874 36.5,36.5C 38.8333,37.8333 41.1667,39.1667 43.5,40.5C 44.3857,39.675 44.719,38.675 44.5,37.5C 46.2303,38.0256 47.5637,39.0256 48.5,40.5C 47.8333,40.5 47.5,40.8333 47.5,41.5C 45.8333,42.5 44.5,43.8333 43.5,45.5C 42.1283,46.5116 40.795,47.5116 39.5,48.5C 38.3951,47.3995 37.0618,46.7329 35.5,46.5C 34.1565,44.1604 32.8232,41.8271 31.5,39.5C 32.2415,32.8558 35.5748,30.8558 41.5,33.5 Z"/></g>
<g><path style="opacity:0.882" fill="#422f16" d="M 44.5,35.5 C 45.552,35.3505 46.552,35.5172 47.5,36C 53.3472,41.5468 58.8472,47.3802 64,53.5C 64.4935,55.1341 64.6602,56.8008 64.5,58.5C 59.1667,52.5 53.8333,46.5 48.5,40.5C 47.5637,39.0256 46.2303,38.0256 44.5,37.5C 44.5,37.1667 44.5,36.8333 44.5,36.5C 44.5,36.1667 44.5,35.8333 44.5,35.5 Z"/></g>
<g><path style="opacity:0.992" fill="#322510" d="M 35.5,46.5 C 37.0618,46.7329 38.3951,47.3995 39.5,48.5C 45.2992,55.6413 51.9658,61.6413 59.5,66.5C 59.5,67.1667 59.8333,67.5 60.5,67.5C 59.4324,68.4345 58.099,68.7678 56.5,68.5C 56.5,67.5 56.5,66.5 56.5,65.5C 55.448,65.6495 54.448,65.4828 53.5,65C 47.2972,58.9648 41.2972,52.7981 35.5,46.5 Z"/></g>
<g><path style="opacity:1" fill="#896c32" d="M 48.5,40.5 C 53.8333,46.5 59.1667,52.5 64.5,58.5C 67.0514,58.6682 67.7181,59.6682 66.5,61.5C 59.101,55.7696 52.7676,49.1029 47.5,41.5C 47.5,40.8333 47.8333,40.5 48.5,40.5 Z"/></g>
<g><path style="opacity:1" fill="#7e632f" d="M 43.5,45.5 C 46.242,49.2801 49.242,52.9468 52.5,56.5C 53.4564,58.5158 54.7898,60.3492 56.5,62C 57.448,62.4828 58.448,62.6495 59.5,62.5C 59.5,63.8333 59.5,65.1667 59.5,66.5C 51.9658,61.6413 45.2992,55.6413 39.5,48.5C 40.795,47.5116 42.1283,46.5116 43.5,45.5 Z"/></g>
<g><path style="opacity:1" fill="#beaf65" d="M 47.5,41.5 C 52.7676,49.1029 59.101,55.7696 66.5,61.5C 66.2624,63.4044 65.2624,64.7377 63.5,65.5C 60.5349,61.8231 56.8683,58.8231 52.5,56.5C 49.242,52.9468 46.242,49.2801 43.5,45.5C 44.5,43.8333 45.8333,42.5 47.5,41.5 Z"/></g>
<g><path style="opacity:1" fill="#9f8540" d="M 52.5,56.5 C 56.8683,58.8231 60.5349,61.8231 63.5,65.5C 63.0269,66.9063 62.0269,67.573 60.5,67.5C 59.8333,67.5 59.5,67.1667 59.5,66.5C 59.5,65.1667 59.5,63.8333 59.5,62.5C 58.448,62.6495 57.448,62.4828 56.5,62C 54.7898,60.3492 53.4564,58.5158 52.5,56.5 Z"/></g>
</svg>
