<?xml version="1.0" encoding="UTF-8"?>
<!DOCTYPE svg PUBLIC "-//W3C//DTD SVG 1.1//EN" "http://www.w3.org/Graphics/SVG/1.1/DTD/svg11.dtd">
<svg xmlns="http://www.w3.org/2000/svg" version="1.1" width="100px" height="100px" style="shape-rendering:geometricPrecision; text-rendering:geometricPrecision; image-rendering:optimizeQuality; fill-rule:evenodd; clip-rule:evenodd" xmlns:xlink="http://www.w3.org/1999/xlink">
<g><path style="opacity:1" fill="#bba16e" d="M 64.5,26.5 C 58.8623,27.2197 53.1956,27.553 47.5,27.5C 40.6038,25.1142 40.9371,24.1142 48.5,24.5C 51.5318,24.495 54.5318,24.1616 57.5,23.5C 60.0706,24.1022 62.4039,25.1022 64.5,26.5 Z"/></g>
<g><path style="opacity:1" fill="#8f7d5d" d="M 96.5,29.5 C 95.5489,28.0813 95.2155,26.4147 95.5,24.5C 85.1584,25.0462 74.825,25.7129 64.5,26.5C 62.4039,25.1022 60.0706,24.1022 57.5,23.5C 54.5318,24.1616 51.5318,24.495 48.5,24.5C 48.5,24.1667 48.5,23.8333 48.5,23.5C 64.5376,21.2296 80.5376,21.2296 96.5,23.5C 96.5,25.5 96.5,27.5 96.5,29.5 Z"/></g>
<g><path style="opacity:0.981" fill="#090806" d="M 96.5,29.5 C 95.899,39.823 95.399,50.1564 95,60.5C 94.7811,61.938 94.2811,63.2713 93.5,64.5C 66.9625,69.6074 40.2958,73.9407 13.5,77.5C 12.8969,72.3814 13.5636,67.7147 15.5,63.5C 16.0488,65.9013 16.8822,68.2346 18,70.5C 18.6708,71.2524 19.5041,71.5858 20.5,71.5C 27.986,74.1158 33.986,72.1158 38.5,65.5C 39.4013,64.7095 40.0679,63.7095 40.5,62.5C 43.949,57.0116 44.2824,51.3449 41.5,45.5C 33.2117,42.0835 25.2117,37.9168 17.5,33C 15.5643,32.187 13.5643,31.687 11.5,31.5C 10.8333,31.1667 10.1667,30.8333 9.5,30.5C 8.83333,30.1667 8.16667,29.8333 7.5,29.5C 7.5,29.1667 7.5,28.8333 7.5,28.5C 9.73448,29.4469 12.0678,30.1136 14.5,30.5C 25.6265,29.2148 36.6265,28.2148 47.5,27.5C 53.1956,27.553 58.8623,27.2197 64.5,26.5C 74.825,25.7129 85.1584,25.0462 95.5,24.5C 95.2155,26.4147 95.5489,28.0813 96.5,29.5 Z"/></g>
<g><path style="opacity:1" fill="#0f0f0f" d="M 3.5,27.5 C 5.09903,27.2322 6.43236,27.5655 7.5,28.5C 6.06888,28.8807 5.23555,29.8807 5,31.5C 4.61742,30.944 4.11742,30.6107 3.5,30.5C 3.5,29.5 3.5,28.5 3.5,27.5 Z"/></g>
<g><path style="opacity:1" fill="#565656" d="M 48.5,23.5 C 48.5,23.8333 48.5,24.1667 48.5,24.5C 40.9371,24.1142 40.6038,25.1142 47.5,27.5C 36.6265,28.2148 25.6265,29.2148 14.5,30.5C 12.0678,30.1136 9.73448,29.4469 7.5,28.5C 6.43236,27.5655 5.09903,27.2322 3.5,27.5C 18.2996,25.5594 33.2996,24.2261 48.5,23.5 Z"/></g>
<g><path style="opacity:1" fill="#cfb179" d="M 7.5,29.5 C 8.16667,29.8333 8.83333,30.1667 9.5,30.5C 9.28904,32.9561 9.28904,35.2894 9.5,37.5C 8.40191,38.397 8.40191,39.2303 9.5,40C 8.92206,41.417 7.92206,42.2504 6.5,42.5C 6.18178,37.9677 6.51511,33.6344 7.5,29.5 Z"/></g>
<g><path style="opacity:1" fill="#75654f" d="M 11.5,31.5 C 13.5643,31.687 15.5643,32.187 17.5,33C 25.2117,37.9168 33.2117,42.0835 41.5,45.5C 40.8333,45.5 40.5,45.8333 40.5,46.5C 38.7028,45.2702 36.7028,44.6036 34.5,44.5C 25.6221,42.5546 17.9554,38.2213 11.5,31.5 Z"/></g>
<g><path style="opacity:1" fill="#b39352" d="M 84.5,40.5 C 82.8333,40.5 81.1667,40.5 79.5,40.5C 79.5,39.5 79.5,38.5 79.5,37.5C 79.5106,35.3141 80.5106,34.4808 82.5,35C 84.1554,36.4443 84.822,38.2776 84.5,40.5 Z"/></g>
<g><path style="opacity:1" fill="#b29352" d="M 64.5,42.5 C 62.5,42.5 60.5,42.5 58.5,42.5C 58.5,41.5 58.5,40.5 58.5,39.5C 59.6432,34.8361 61.4765,34.5028 64,38.5C 64.49,39.7932 64.6567,41.1266 64.5,42.5 Z"/></g>
<g><path style="opacity:1" fill="#b99b71" d="M 9.5,30.5 C 10.1667,30.8333 10.8333,31.1667 11.5,31.5C 17.9554,38.2213 25.6221,42.5546 34.5,44.5C 32.1667,44.5 29.8333,44.5 27.5,44.5C 23.1624,42.7554 18.6624,41.4221 14,40.5C 12.5657,40.8618 11.3991,41.5285 10.5,42.5C 10.8514,39.9588 10.5181,38.2921 9.5,37.5C 9.28904,35.2894 9.28904,32.9561 9.5,30.5 Z"/></g>
<g><path style="opacity:1" fill="#b69554" d="M 74.5,39.5 C 73.0821,41.3079 71.0821,41.9746 68.5,41.5C 68.0217,38.7224 69.0217,36.7224 71.5,35.5C 73.2882,36.2826 74.2882,37.6159 74.5,39.5 Z"/></g>
<g><path style="opacity:1" fill="#67552f" d="M 79.5,37.5 C 79.5,38.5 79.5,39.5 79.5,40.5C 81.1667,40.5 82.8333,40.5 84.5,40.5C 85.1667,40.5 85.5,40.8333 85.5,41.5C 83.1667,41.5 80.8333,41.5 78.5,41.5C 78.2322,39.901 78.5655,38.5676 79.5,37.5 Z"/></g>
<g><path style="opacity:1" fill="#544426" d="M 74.5,39.5 C 75.404,40.209 75.7373,41.209 75.5,42.5C 73.1667,42.5 70.8333,42.5 68.5,42.5C 68.5,42.1667 68.5,41.8333 68.5,41.5C 71.0821,41.9746 73.0821,41.3079 74.5,39.5 Z"/></g>
<g><path style="opacity:1" fill="#b89755" d="M 78.5,41.5 C 80.8333,41.5 83.1667,41.5 85.5,41.5C 85.5,45.5 85.5,49.5 85.5,53.5C 83.5,53.8333 81.5,54.1667 79.5,54.5C 78.5151,50.3656 78.1818,46.0323 78.5,41.5 Z"/></g>
<g><path style="opacity:1" fill="#d8b079" d="M 27.5,44.5 C 27.1583,45.3382 26.4916,45.6716 25.5,45.5C 24.2618,44.5876 22.9285,44.4209 21.5,45C 20,46.5 18.5,48 17,49.5C 17.0772,50.8304 17.5772,52.1637 18.5,53.5C 18.3318,55.1705 17.6651,56.5039 16.5,57.5C 16.5,56.1667 15.8333,55.5 14.5,55.5C 14.6716,54.5084 14.3382,53.8417 13.5,53.5C 11.9579,50.3539 9.95791,47.5206 7.5,45C 8.83333,45.3333 10.1667,45.6667 11.5,46C 10.6634,44.9887 10.33,43.8221 10.5,42.5C 11.3991,41.5285 12.5657,40.8618 14,40.5C 18.6624,41.4221 23.1624,42.7554 27.5,44.5 Z"/></g>
<g><path style="opacity:1" fill="#4b3d22" d="M 58.5,39.5 C 58.5,40.5 58.5,41.5 58.5,42.5C 60.5,42.5 62.5,42.5 64.5,42.5C 65.1667,42.5 65.5,42.8333 65.5,43.5C 62.8333,43.5 60.1667,43.5 57.5,43.5C 57.2322,41.901 57.5655,40.5676 58.5,39.5 Z"/></g>
<g><path style="opacity:1" fill="#af9050" d="M 68.5,42.5 C 70.8333,42.5 73.1667,42.5 75.5,42.5C 76.8333,46.8333 76.8333,51.1667 75.5,55.5C 73.1667,55.5 70.8333,55.5 68.5,55.5C 68.5,51.1667 68.5,46.8333 68.5,42.5 Z"/></g>
<g><path style="opacity:1" fill="#ae8f50" d="M 57.5,43.5 C 60.1667,43.5 62.8333,43.5 65.5,43.5C 66.3753,48.6278 66.7087,53.7945 66.5,59C 63.9699,60.4217 61.3033,60.755 58.5,60C 58.9574,59.586 59.2907,59.086 59.5,58.5C 57.9584,53.6274 57.2917,48.6274 57.5,43.5 Z"/></g>
<g><path style="opacity:0.067" fill="#9a9a9b" d="M 3.5,42.5 C 4.26739,43.172 4.93406,44.0053 5.5,45C 4.565,47.3806 4.23166,49.8806 4.5,52.5C 3.52056,49.3752 3.18723,46.0419 3.5,42.5 Z"/></g>
<g><path style="opacity:1" fill="#e4e1dc" d="M 27.5,44.5 C 29.8333,44.5 32.1667,44.5 34.5,44.5C 30.9036,45.9689 27.5703,47.9689 24.5,50.5C 23.448,50.6495 22.448,50.4828 21.5,50C 23.1918,48.6927 24.5251,47.1927 25.5,45.5C 26.4916,45.6716 27.1583,45.3382 27.5,44.5 Z"/></g>
<g><path style="opacity:1" fill="#b4924f" d="M 34.5,44.5 C 36.7028,44.6036 38.7028,45.2702 40.5,46.5C 40.6107,47.1174 40.944,47.6174 41.5,48C 39.6969,48.6368 38.3636,49.8035 37.5,51.5C 37.0028,49.784 36.6694,48.1173 36.5,46.5C 35.6461,47.9479 34.6461,49.2813 33.5,50.5C 33.9767,51.4776 34.6433,52.3109 35.5,53C 30.1667,53.6667 30.1667,54.3333 35.5,55C 37.6038,58.4478 38.9371,58.1145 39.5,54C 40.5,53.3333 41.5,53.3333 42.5,54C 41.1667,56 39.8333,58 38.5,60C 39.756,60.4169 40.4226,61.2502 40.5,62.5C 40.0679,63.7095 39.4013,64.7095 38.5,65.5C 35.345,65.9769 32.345,66.9769 29.5,68.5C 29.8333,67.8333 30.1667,67.1667 30.5,66.5C 32.0269,66.573 33.0269,65.9063 33.5,64.5C 34.9293,63.7658 35.9293,62.5991 36.5,61C 35.8524,59.5603 35.5191,58.0603 35.5,56.5C 32.1625,56.0653 29.1625,56.7319 26.5,58.5C 26.6716,57.5084 26.3382,56.8417 25.5,56.5C 27.8589,53.6055 26.8589,52.7721 22.5,54C 21.5399,55.4194 20.7065,56.9194 20,58.5C 19.3457,59.6956 18.8457,59.6956 18.5,58.5C 19.5608,55.0087 21.5608,52.342 24.5,50.5C 27.5703,47.9689 30.9036,45.9689 34.5,44.5 Z"/></g>
<g><path style="opacity:1" fill="#95733e" d="M 41.5,45.5 C 44.2824,51.3449 43.949,57.0116 40.5,62.5C 40.4226,61.2502 39.756,60.4169 38.5,60C 39.8333,58 41.1667,56 42.5,54C 41.5,53.3333 40.5,53.3333 39.5,54C 38.9371,58.1145 37.6038,58.4478 35.5,55C 30.1667,54.3333 30.1667,53.6667 35.5,53C 34.6433,52.3109 33.9767,51.4776 33.5,50.5C 34.6461,49.2813 35.6461,47.9479 36.5,46.5C 36.6694,48.1173 37.0028,49.784 37.5,51.5C 38.3636,49.8035 39.6969,48.6368 41.5,48C 40.944,47.6174 40.6107,47.1174 40.5,46.5C 40.5,45.8333 40.8333,45.5 41.5,45.5 Z"/></g>
<g><path style="opacity:1" fill="#6e5a32" d="M 85.5,53.5 C 85.5,54.1667 85.5,54.8333 85.5,55.5C 83.3792,55.3253 81.3792,55.6586 79.5,56.5C 79.5,55.8333 79.5,55.1667 79.5,54.5C 81.5,54.1667 83.5,53.8333 85.5,53.5 Z"/></g>
<g><path style="opacity:1" fill="#594928" d="M 68.5,55.5 C 70.8333,55.5 73.1667,55.5 75.5,55.5C 75.5,55.8333 75.5,56.1667 75.5,56.5C 73.2188,56.0773 71.5521,56.744 70.5,58.5C 69.9232,59.7733 69.2565,59.7733 68.5,58.5C 69.7914,57.4728 69.7914,56.4728 68.5,55.5 Z"/></g>
<g><path style="opacity:1" fill="#c09e58" d="M 85.5,55.5 C 83.5979,57.1511 81.5979,57.4845 79.5,56.5C 81.3792,55.6586 83.3792,55.3253 85.5,55.5 Z"/></g>
<g><path style="opacity:1" fill="#dfc274" d="M 25.5,45.5 C 24.5251,47.1927 23.1918,48.6927 21.5,50C 22.448,50.4828 23.448,50.6495 24.5,50.5C 21.5608,52.342 19.5608,55.0087 18.5,58.5C 18.8457,59.6956 19.3457,59.6956 20,58.5C 20.7065,56.9194 21.5399,55.4194 22.5,54C 26.8589,52.7721 27.8589,53.6055 25.5,56.5C 24.5317,59.1054 23.1984,61.4387 21.5,63.5C 20.5041,63.4142 19.6708,63.7476 19,64.5C 17.8822,62.2346 17.0488,59.9013 16.5,57.5C 17.6651,56.5039 18.3318,55.1705 18.5,53.5C 17.5772,52.1637 17.0772,50.8304 17,49.5C 18.5,48 20,46.5 21.5,45C 22.9285,44.4209 24.2618,44.5876 25.5,45.5 Z"/></g>
<g><path style="opacity:1" fill="#9b855b" d="M 10.5,42.5 C 10.33,43.8221 10.6634,44.9887 11.5,46C 10.1667,45.6667 8.83333,45.3333 7.5,45C 9.95791,47.5206 11.9579,50.3539 13.5,53.5C 12.5076,61.3159 12.1743,69.3159 12.5,77.5C 10.1667,75.8333 8.16667,73.8333 6.5,71.5C 7.16667,71.5 7.5,71.1667 7.5,70.5C 8.31491,71.4293 9.14825,72.4293 10,73.5C 10.7356,68.1338 10.5689,62.8004 9.5,57.5C 9.91862,56.3279 10.5853,55.3279 11.5,54.5C 10.2485,52.9991 9.24848,51.3325 8.5,49.5C 7.54811,51.0453 7.21478,52.712 7.5,54.5C 6.50278,54.5299 5.83611,54.0299 5.5,53C 6.3822,49.5592 6.71554,46.0592 6.5,42.5C 7.92206,42.2504 8.92206,41.417 9.5,40C 8.40191,39.2303 8.40191,38.397 9.5,37.5C 10.5181,38.2921 10.8514,39.9588 10.5,42.5 Z"/></g>
<g><path style="opacity:1" fill="#a98b4d" d="M 75.5,56.5 C 76.0431,56.56 76.3764,56.8933 76.5,57.5C 74.604,58.4656 72.604,58.7989 70.5,58.5C 71.5521,56.744 73.2188,56.0773 75.5,56.5 Z"/></g>
<g><path style="opacity:1" fill="#4d473b" d="M 7.5,28.5 C 7.5,28.8333 7.5,29.1667 7.5,29.5C 6.51511,33.6344 6.18178,37.9677 6.5,42.5C 6.71554,46.0592 6.3822,49.5592 5.5,53C 5.83611,54.0299 6.50278,54.5299 7.5,54.5C 7.5,59.8333 7.5,65.1667 7.5,70.5C 7.5,71.1667 7.16667,71.5 6.5,71.5C 5.77842,71.0825 5.27842,70.4158 5,69.5C 4.50058,63.8431 4.33391,58.1764 4.5,52.5C 4.23166,49.8806 4.565,47.3806 5.5,45C 4.93406,44.0053 4.26739,43.172 3.5,42.5C 3.5,38.5 3.5,34.5 3.5,30.5C 4.11742,30.6107 4.61742,30.944 5,31.5C 5.23555,29.8807 6.06888,28.8807 7.5,28.5 Z"/></g>
<g><path style="opacity:1" fill="#c9ac72" d="M 7.5,70.5 C 7.5,65.1667 7.5,59.8333 7.5,54.5C 7.21478,52.712 7.54811,51.0453 8.5,49.5C 9.24848,51.3325 10.2485,52.9991 11.5,54.5C 10.5853,55.3279 9.91862,56.3279 9.5,57.5C 10.5689,62.8004 10.7356,68.1338 10,73.5C 9.14825,72.4293 8.31491,71.4293 7.5,70.5 Z"/></g>
<g><path style="opacity:1" fill="#2a2318" d="M 13.5,53.5 C 14.3382,53.8417 14.6716,54.5084 14.5,55.5C 15.388,58.0545 15.7214,60.7212 15.5,63.5C 13.5636,67.7147 12.8969,72.3814 13.5,77.5C 13.1667,77.5 12.8333,77.5 12.5,77.5C 12.1743,69.3159 12.5076,61.3159 13.5,53.5 Z"/></g>
<g><path style="opacity:1" fill="#ddce87" d="M 33.5,64.5 C 32.8333,64.5 32.1667,64.5 31.5,64.5C 29.5,64.5 27.5,64.5 25.5,64.5C 25.3253,62.3792 25.6586,60.3792 26.5,58.5C 29.1625,56.7319 32.1625,56.0653 35.5,56.5C 35.5191,58.0603 35.8524,59.5603 36.5,61C 35.9293,62.5991 34.9293,63.7658 33.5,64.5 Z"/></g>
<g><path style="opacity:1" fill="#85612c" d="M 25.5,56.5 C 26.3382,56.8417 26.6716,57.5084 26.5,58.5C 25.6586,60.3792 25.3253,62.3792 25.5,64.5C 27.5,64.5 29.5,64.5 31.5,64.5C 30.0484,65.3019 28.3817,65.8019 26.5,66C 27.7932,66.49 29.1266,66.6567 30.5,66.5C 30.1667,67.1667 29.8333,67.8333 29.5,68.5C 27.0194,68.3234 25.1861,69.3234 24,71.5C 23.2888,69.6332 23.7888,68.1332 25.5,67C 24.1807,66.805 22.8474,66.9717 21.5,67.5C 19.1638,66.4061 19.1638,65.0728 21.5,63.5C 23.1984,61.4387 24.5317,59.1054 25.5,56.5 Z"/></g>
<g><path style="opacity:1" fill="#403116" d="M 31.5,64.5 C 32.1667,64.5 32.8333,64.5 33.5,64.5C 33.0269,65.9063 32.0269,66.573 30.5,66.5C 29.1266,66.6567 27.7932,66.49 26.5,66C 28.3817,65.8019 30.0484,65.3019 31.5,64.5 Z"/></g>
<g><path style="opacity:1" fill="#5e421a" d="M 14.5,55.5 C 15.8333,55.5 16.5,56.1667 16.5,57.5C 17.0488,59.9013 17.8822,62.2346 19,64.5C 19.6708,63.7476 20.5041,63.4142 21.5,63.5C 19.1638,65.0728 19.1638,66.4061 21.5,67.5C 21.0825,68.2216 20.4158,68.7216 19.5,69C 20.4706,70.2036 21.4706,70.7036 22.5,70.5C 22.0431,71.2975 21.3764,71.6309 20.5,71.5C 19.5041,71.5858 18.6708,71.2524 18,70.5C 16.8822,68.2346 16.0488,65.9013 15.5,63.5C 15.7214,60.7212 15.388,58.0545 14.5,55.5 Z"/></g>
<g><path style="opacity:1" fill="#3e2f16" d="M 38.5,65.5 C 33.986,72.1158 27.986,74.1158 20.5,71.5C 21.3764,71.6309 22.0431,71.2975 22.5,70.5C 21.4706,70.7036 20.4706,70.2036 19.5,69C 20.4158,68.7216 21.0825,68.2216 21.5,67.5C 22.8474,66.9717 24.1807,66.805 25.5,67C 23.7888,68.1332 23.2888,69.6332 24,71.5C 25.1861,69.3234 27.0194,68.3234 29.5,68.5C 32.345,66.9769 35.345,65.9769 38.5,65.5 Z"/></g>
</svg>
