<?xml version="1.0" encoding="UTF-8"?>
<!DOCTYPE svg PUBLIC "-//W3C//DTD SVG 1.1//EN" "http://www.w3.org/Graphics/SVG/1.1/DTD/svg11.dtd">
<svg xmlns="http://www.w3.org/2000/svg" version="1.1" width="100px" height="100px" style="shape-rendering:geometricPrecision; text-rendering:geometricPrecision; image-rendering:optimizeQuality; fill-rule:evenodd; clip-rule:evenodd" xmlns:xlink="http://www.w3.org/1999/xlink">
<g><path style="opacity:0.089" fill="#040302" d="M 14.5,9.5 C 17.8499,9.33499 21.1832,9.50166 24.5,10C 48.3948,25.5497 69.5615,44.383 88,66.5C 90.8242,79.1712 85.8242,86.8379 73,89.5C 70.8154,89.0788 68.6487,88.5788 66.5,88C 52.9706,74.8045 39.8039,61.3045 27,47.5C 21.3066,40.1304 15.9733,32.4637 11,24.5C 10.3333,20.5 10.3333,16.5 11,12.5C 11.985,11.1859 13.1516,10.1859 14.5,9.5 Z"/></g>
<g><path style="opacity:1" fill="#d7bb9d" d="M 29.5,23.5 C 29.6309,24.3764 29.2975,25.0431 28.5,25.5C 25.4798,22.6454 22.3132,19.9787 19,17.5C 18.8333,17.8333 18.6667,18.1667 18.5,18.5C 21.5222,21.8533 24.5222,25.1866 27.5,28.5C 26.7978,29.1157 25.7978,29.1157 24.5,28.5C 20.8276,25.1508 18.1609,21.1508 16.5,16.5C 18.6547,16.372 20.6547,16.872 22.5,18C 24.8636,19.8419 27.1969,21.6753 29.5,23.5 Z"/></g>
<g><path style="opacity:1" fill="#715843" d="M 29.5,23.5 C 32.7279,26.3063 35.7279,29.3063 38.5,32.5C 37.5084,32.3284 36.8417,32.6618 36.5,33.5C 34.5372,32.0401 32.7038,30.3734 31,28.5C 30.5357,29.0944 30.369,29.7611 30.5,30.5C 29.5,29.8333 28.5,29.1667 27.5,28.5C 24.5222,25.1866 21.5222,21.8533 18.5,18.5C 18.6667,18.1667 18.8333,17.8333 19,17.5C 22.3132,19.9787 25.4798,22.6454 28.5,25.5C 29.2975,25.0431 29.6309,24.3764 29.5,23.5 Z"/></g>
<g><path style="opacity:1" fill="#977c4e" d="M 24.5,28.5 C 25.7978,29.1157 26.7978,29.1157 27.5,28.5C 28.5,29.1667 29.5,29.8333 30.5,30.5C 31.8333,32.1667 33.1667,33.8333 34.5,35.5C 34.1348,37.588 34.1348,39.9213 34.5,42.5C 31.6829,37.5589 28.3495,32.8923 24.5,28.5 Z"/></g>
<g><path style="opacity:1" fill="#4c3f29" d="M 36.5,33.5 C 38.4365,34.9541 40.1032,36.6207 41.5,38.5C 41.631,39.2389 41.4643,39.9056 41,40.5C 40.3292,39.7476 39.4959,39.4142 38.5,39.5C 37.5,37.8333 36.1667,36.5 34.5,35.5C 33.1667,33.8333 31.8333,32.1667 30.5,30.5C 30.369,29.7611 30.5357,29.0944 31,28.5C 32.7038,30.3734 34.5372,32.0401 36.5,33.5 Z"/></g>
<g><path style="opacity:1" fill="#bfa363" d="M 34.5,35.5 C 36.1667,36.5 37.5,37.8333 38.5,39.5C 40.1827,40.8534 41.5161,42.5201 42.5,44.5C 39.9956,44.1717 38.1622,42.8384 37,40.5C 36.2828,41.0442 35.7828,41.7109 35.5,42.5C 35.1667,42.5 34.8333,42.5 34.5,42.5C 34.1348,39.9213 34.1348,37.588 34.5,35.5 Z"/></g>
<g><path style="opacity:1" fill="#6e5d36" d="M 41.5,38.5 C 46.479,42.8123 51.1456,47.479 55.5,52.5C 50.5599,52.4721 46.8932,49.9721 44.5,45C 43.9056,44.5357 43.2389,44.369 42.5,44.5C 41.5161,42.5201 40.1827,40.8534 38.5,39.5C 39.4959,39.4142 40.3292,39.7476 41,40.5C 41.4643,39.9056 41.631,39.2389 41.5,38.5 Z"/></g>
<g><path style="opacity:1" fill="#8d713c" d="M 38.5,32.5 C 45.9791,36.2992 52.3125,41.6325 57.5,48.5C 58.5,49.8333 59.5,51.1667 60.5,52.5C 60.3505,53.552 60.5172,54.552 61,55.5C 63.6897,57.1935 65.6897,59.5268 67,62.5C 71.7263,66.4016 76.2263,70.4016 80.5,74.5C 79.2128,77.4532 77.2128,79.7865 74.5,81.5C 72.0547,75.3108 67.7214,69.9775 61.5,65.5C 55.643,60.4768 50.3096,54.9768 45.5,49C 42.7568,46.9617 39.7568,45.4617 36.5,44.5C 36.6716,43.5084 36.3382,42.8417 35.5,42.5C 35.7828,41.7109 36.2828,41.0442 37,40.5C 38.1622,42.8384 39.9956,44.1717 42.5,44.5C 43.2389,44.369 43.9056,44.5357 44.5,45C 46.8932,49.9721 50.5599,52.4721 55.5,52.5C 51.1456,47.479 46.479,42.8123 41.5,38.5C 40.1032,36.6207 38.4365,34.9541 36.5,33.5C 36.8417,32.6618 37.5084,32.3284 38.5,32.5 Z"/></g>
<g><path style="opacity:1" fill="#735027" d="M 36.5,44.5 C 39.7568,45.4617 42.7568,46.9617 45.5,49C 50.3096,54.9768 55.643,60.4768 61.5,65.5C 60.7784,65.9175 60.2784,66.5842 60,67.5C 59.1841,66.1772 58.0174,65.5106 56.5,65.5C 49.7897,58.4918 43.1231,51.4918 36.5,44.5 Z"/></g>
<g><path style="opacity:0.984" fill="#322b1c" d="M 57.5,48.5 C 65.0775,54.5722 72.2442,61.2389 79,68.5C 79.4828,69.448 79.6495,70.448 79.5,71.5C 80.675,71.281 81.675,71.6143 82.5,72.5C 82.3764,73.1067 82.0431,73.44 81.5,73.5C 80.791,72.596 79.791,72.2627 78.5,72.5C 78.6495,71.448 78.4828,70.448 78,69.5C 72.3514,63.6853 66.5181,58.0187 60.5,52.5C 59.5,51.1667 58.5,49.8333 57.5,48.5 Z"/></g>
<g><path style="opacity:1" fill="#624221" d="M 60.5,52.5 C 66.5181,58.0187 72.3514,63.6853 78,69.5C 78.4828,70.448 78.6495,71.448 78.5,72.5C 79.791,72.2627 80.791,72.596 81.5,73.5C 81.5,74.1667 81.1667,74.5 80.5,74.5C 76.2263,70.4016 71.7263,66.4016 67,62.5C 65.6897,59.5268 63.6897,57.1935 61,55.5C 60.5172,54.552 60.3505,53.552 60.5,52.5 Z"/></g>
<g><path style="opacity:1" fill="#5f3e21" d="M 56.5,65.5 C 58.0174,65.5106 59.1841,66.1772 60,67.5C 60.2784,66.5842 60.7784,65.9175 61.5,65.5C 67.7214,69.9775 72.0547,75.3108 74.5,81.5C 73.6136,82.7759 72.6136,82.7759 71.5,81.5C 66.5063,76.1725 61.5063,70.8392 56.5,65.5 Z"/></g>
</svg>
