<?xml version="1.0" encoding="UTF-8"?>
<!DOCTYPE svg PUBLIC "-//W3C//DTD SVG 1.1//EN" "http://www.w3.org/Graphics/SVG/1.1/DTD/svg11.dtd">
<svg xmlns="http://www.w3.org/2000/svg" version="1.1" width="100px" height="100px" style="shape-rendering:geometricPrecision; text-rendering:geometricPrecision; image-rendering:optimizeQuality; fill-rule:evenodd; clip-rule:evenodd" xmlns:xlink="http://www.w3.org/1999/xlink">
<g><path style="opacity:0.092" fill="#020000" d="M 25.5,14.5 C 30.2973,14.1211 34.964,14.6211 39.5,16C 53.7274,30.8962 68.5607,45.0629 84,58.5C 84.8098,63.2574 84.4764,67.9241 83,72.5C 78.6783,77.8327 73.5117,81.9993 67.5,85C 63.5,85.6667 59.5,85.6667 55.5,85C 42.73,70.2277 29.23,56.0611 15,42.5C 13.0513,36.8597 13.0513,31.1931 15,25.5C 18.0298,21.3053 21.5298,17.6387 25.5,14.5 Z"/></g>
<g><path style="opacity:1" fill="#d25d59" d="M 27.5,23.5 C 26.6337,26.9543 24.6337,29.2876 21.5,30.5C 22.7997,27.5677 24.7997,25.2344 27.5,23.5 Z"/></g>
<g><path style="opacity:1" fill="#d3312a" d="M 29.5,22.5 C 30.3019,23.9516 30.8019,25.6183 31,27.5C 42.6102,38.2879 53.9436,49.2879 65,60.5C 65.7914,61.745 66.2914,63.0783 66.5,64.5C 66.5,64.8333 66.5,65.1667 66.5,65.5C 65.5,66.1667 64.5,66.8333 63.5,67.5C 61.1717,65.6996 58.505,64.533 55.5,64C 53.1667,61 50.8333,58 48.5,55C 40.9882,49.1489 33.8215,42.9823 27,36.5C 26.5172,35.552 26.3505,34.552 26.5,33.5C 25.0695,33.5792 23.7362,33.2458 22.5,32.5C 21.8182,33.2427 21.1515,33.9094 20.5,34.5C 20.5,34.1667 20.5,33.8333 20.5,33.5C 20.5569,32.391 20.8902,31.391 21.5,30.5C 24.6337,29.2876 26.6337,26.9543 27.5,23.5C 28.1667,23.1667 28.8333,22.8333 29.5,22.5 Z"/></g>
<g><path style="opacity:1" fill="#9c1917" d="M 33.5,22.5 C 32.5876,23.7382 32.4209,25.0715 33,26.5C 42.7184,37.1197 53.2184,46.953 64.5,56C 65.448,56.4828 66.448,56.6495 67.5,56.5C 67.5,58.8333 67.5,61.1667 67.5,63.5C 67.5,64.1667 67.1667,64.5 66.5,64.5C 66.2914,63.0783 65.7914,61.745 65,60.5C 53.9436,49.2879 42.6102,38.2879 31,27.5C 30.8019,25.6183 30.3019,23.9516 29.5,22.5C 30.8333,19.8333 32.1667,19.8333 33.5,22.5 Z"/></g>
<g><path style="opacity:1" fill="#7f1614" d="M 33.5,22.5 C 46.4687,33.8014 58.802,45.8014 70.5,58.5C 69.8333,60.1667 69.1667,61.8333 68.5,63.5C 68.1667,63.5 67.8333,63.5 67.5,63.5C 67.5,61.1667 67.5,58.8333 67.5,56.5C 66.448,56.6495 65.448,56.4828 64.5,56C 53.2184,46.953 42.7184,37.1197 33,26.5C 32.4209,25.0715 32.5876,23.7382 33.5,22.5 Z"/></g>
<g><path style="opacity:1" fill="#b21d18" d="M 63.5,67.5 C 63.5,67.8333 63.5,68.1667 63.5,68.5C 63.1667,68.5 62.8333,68.5 62.5,68.5C 58.0982,67.7565 54.0982,66.0899 50.5,63.5C 47.7499,61.4093 45.4166,58.9093 43.5,56C 42.552,55.5172 41.552,55.3505 40.5,55.5C 40.628,53.3453 40.128,51.3453 39,49.5C 33.8015,43.1176 27.6348,38.1176 20.5,34.5C 21.1515,33.9094 21.8182,33.2427 22.5,32.5C 23.7362,33.2458 25.0695,33.5792 26.5,33.5C 26.3505,34.552 26.5172,35.552 27,36.5C 33.8215,42.9823 40.9882,49.1489 48.5,55C 50.8333,58 53.1667,61 55.5,64C 58.505,64.533 61.1717,65.6996 63.5,67.5 Z"/></g>
<g><path style="opacity:1" fill="#422d1b" d="M 70.5,58.5 C 73.1376,60.1223 75.8043,61.7889 78.5,63.5C 78.0676,66.1812 76.7343,68.1812 74.5,69.5C 72.8818,67.215 70.8818,65.215 68.5,63.5C 69.1667,61.8333 69.8333,60.1667 70.5,58.5 Z"/></g>
<g><path style="opacity:1" fill="#951311" d="M 20.5,33.5 C 20.5,33.8333 20.5,34.1667 20.5,34.5C 27.6348,38.1176 33.8015,43.1176 39,49.5C 40.128,51.3453 40.628,53.3453 40.5,55.5C 41.552,55.3505 42.552,55.5172 43.5,56C 45.4166,58.9093 47.7499,61.4093 50.5,63.5C 54.0982,66.0899 58.0982,67.7565 62.5,68.5C 62.1667,69.5 61.5,70.1667 60.5,70.5C 59.5837,70.9817 58.5837,71.315 57.5,71.5C 55.7112,70.0366 53.7112,69.0366 51.5,68.5C 41.2021,57.7016 30.7021,47.0349 20,36.5C 19.2599,35.2506 19.4265,34.2506 20.5,33.5 Z"/></g>
<g><path style="opacity:1" fill="#786032" d="M 67.5,63.5 C 67.8333,63.5 68.1667,63.5 68.5,63.5C 70.8818,65.215 72.8818,67.215 74.5,69.5C 74.5,70.1667 74.1667,70.5 73.5,70.5C 71.4984,68.5182 69.1651,66.8516 66.5,65.5C 66.5,65.1667 66.5,64.8333 66.5,64.5C 67.1667,64.5 67.5,64.1667 67.5,63.5 Z"/></g>
<g><path style="opacity:1" fill="#866a3b" d="M 66.5,65.5 C 66.7496,66.9221 67.583,67.9221 69,68.5C 69.7805,69.9437 69.6139,71.277 68.5,72.5C 66.8152,71.0473 65.1486,69.714 63.5,68.5C 63.5,68.1667 63.5,67.8333 63.5,67.5C 64.5,66.8333 65.5,66.1667 66.5,65.5 Z"/></g>
<g><path style="opacity:1" fill="#b09245" d="M 66.5,65.5 C 69.1651,66.8516 71.4984,68.5182 73.5,70.5C 71.7807,73.2195 69.4474,75.2195 66.5,76.5C 65.2617,76.19 65.2617,75.69 66.5,75C 65.2068,74.51 63.8734,74.3433 62.5,74.5C 62.4729,72.8007 61.8062,71.4674 60.5,70.5C 61.5,70.1667 62.1667,69.5 62.5,68.5C 62.8333,68.5 63.1667,68.5 63.5,68.5C 65.1486,69.714 66.8152,71.0473 68.5,72.5C 69.6139,71.277 69.7805,69.9437 69,68.5C 67.583,67.9221 66.7496,66.9221 66.5,65.5 Z"/></g>
<g><path style="opacity:0.996" fill="#4e2d1d" d="M 55.5,72.5 C 57.5,72.5 59.5,72.5 61.5,72.5C 61.2267,74.451 61.8934,75.951 63.5,77C 62.944,77.3826 62.6107,77.8826 62.5,78.5C 61.791,79.404 60.791,79.7373 59.5,79.5C 59.0387,76.6967 57.7053,74.3634 55.5,72.5 Z"/></g>
<g><path style="opacity:1" fill="#6e3617" d="M 51.5,68.5 C 53.7112,69.0366 55.7112,70.0366 57.5,71.5C 58.5837,71.315 59.5837,70.9817 60.5,70.5C 61.8062,71.4674 62.4729,72.8007 62.5,74.5C 63.8734,74.3433 65.2068,74.51 66.5,75C 65.2617,75.69 65.2617,76.19 66.5,76.5C 65.4863,77.6737 64.153,78.3404 62.5,78.5C 62.6107,77.8826 62.944,77.3826 63.5,77C 61.8934,75.951 61.2267,74.451 61.5,72.5C 59.5,72.5 57.5,72.5 55.5,72.5C 53.8333,71.5 52.5,70.1667 51.5,68.5 Z"/></g>
</svg>
