<?xml version="1.0" encoding="UTF-8"?>
<!DOCTYPE svg PUBLIC "-//W3C//DTD SVG 1.1//EN" "http://www.w3.org/Graphics/SVG/1.1/DTD/svg11.dtd">
<svg xmlns="http://www.w3.org/2000/svg" version="1.1" width="100px" height="100px" style="shape-rendering:geometricPrecision; text-rendering:geometricPrecision; image-rendering:optimizeQuality; fill-rule:evenodd; clip-rule:evenodd" xmlns:xlink="http://www.w3.org/1999/xlink">
<g><path style="opacity:0.086" fill="#040303" d="M 28.5,24.5 C 35.5823,23.6428 42.249,24.8095 48.5,28C 58.6306,35.7966 67.7973,44.63 76,54.5C 77.8333,71.3333 70.3333,78.8333 53.5,77C 46,69.5 38.5,62 31,54.5C 23.8224,46.6374 21.8224,37.6374 25,27.5C 26.1451,26.3636 27.3117,25.3636 28.5,24.5 Z"/></g>
<g><path style="opacity:1" fill="#eed8c4" d="M 37.5,31.5 C 39.6968,32.8446 42.0302,34.0112 44.5,35C 45.7101,36.0391 46.7101,37.2058 47.5,38.5C 45.8333,38.5 44.1667,38.5 42.5,38.5C 40.6354,35.9772 38.1354,34.3106 35,33.5C 34.8119,31.9387 35.6453,31.272 37.5,31.5 Z"/></g>
<g><path style="opacity:1" fill="#8f533f" d="M 37.5,31.5 C 35.6453,31.272 34.8119,31.9387 35,33.5C 38.1354,34.3106 40.6354,35.9772 42.5,38.5C 43.287,40.1042 44.6203,40.7709 46.5,40.5C 46.7373,41.791 46.404,42.791 45.5,43.5C 42.03,41.3838 38.3633,39.7171 34.5,38.5C 33.0886,34.7035 32.0886,34.7035 31.5,38.5C 29.5697,34.3592 30.903,31.6925 35.5,30.5C 36.4164,30.5427 37.0831,30.8761 37.5,31.5 Z"/></g>
<g><path style="opacity:1" fill="#f2dacc" d="M 34.5,38.5 C 35.6218,40.0518 36.1218,41.7184 36,43.5C 34.6288,41.9586 33.1288,40.6253 31.5,39.5C 31.5,39.1667 31.5,38.8333 31.5,38.5C 32.0886,34.7035 33.0886,34.7035 34.5,38.5 Z"/></g>
<g><path style="opacity:1" fill="#c38165" d="M 34.5,38.5 C 38.3633,39.7171 42.03,41.3838 45.5,43.5C 45.5,43.8333 45.5,44.1667 45.5,44.5C 45.1667,45.5 44.5,46.1667 43.5,46.5C 41.4131,47.5846 40.0798,49.2512 39.5,51.5C 36.6537,47.6454 33.987,43.6454 31.5,39.5C 33.1288,40.6253 34.6288,41.9586 36,43.5C 36.1218,41.7184 35.6218,40.0518 34.5,38.5 Z"/></g>
<g><path style="opacity:1" fill="#ddc985" d="M 49.5,39.5 C 55.1314,44.6303 60.6314,49.9637 66,55.5C 66.4828,56.448 66.6495,57.448 66.5,58.5C 67.8333,58.5 69.1667,58.5 70.5,58.5C 70.6085,60.5138 69.9418,62.1805 68.5,63.5C 62.474,56.8873 55.974,50.554 49,44.5C 46.9193,42.4434 47.086,40.7767 49.5,39.5 Z"/></g>
<g><path style="opacity:1" fill="#c8b172" d="M 43.5,46.5 C 48.8396,52.1725 54.1729,57.8392 59.5,63.5C 60.4168,62.8728 61.4168,62.5394 62.5,62.5C 60.3135,63.7586 58.8135,65.092 58,66.5C 56.022,65.0944 53.8553,64.0944 51.5,63.5C 47.1667,59.8333 43.1667,55.8333 39.5,51.5C 40.0798,49.2512 41.4131,47.5846 43.5,46.5 Z"/></g>
<g><path style="opacity:1" fill="#9e7d47" d="M 42.5,38.5 C 44.1667,38.5 45.8333,38.5 47.5,38.5C 48.4916,38.3284 49.1583,38.6618 49.5,39.5C 47.086,40.7767 46.9193,42.4434 49,44.5C 55.974,50.554 62.474,56.8873 68.5,63.5C 66.1405,66.858 63.1405,69.5246 59.5,71.5C 56.5061,69.1727 53.8394,66.5061 51.5,63.5C 53.8553,64.0944 56.022,65.0944 58,66.5C 58.8135,65.092 60.3135,63.7586 62.5,62.5C 63.525,62.1034 63.6917,61.4368 63,60.5C 56.9967,55.3291 51.1634,49.9957 45.5,44.5C 45.5,44.1667 45.5,43.8333 45.5,43.5C 46.404,42.791 46.7373,41.791 46.5,40.5C 44.6203,40.7709 43.287,40.1042 42.5,38.5 Z"/></g>
<g><path style="opacity:1" fill="#d7bc5e" d="M 45.5,44.5 C 51.1634,49.9957 56.9967,55.3291 63,60.5C 63.6917,61.4368 63.525,62.1034 62.5,62.5C 61.4168,62.5394 60.4168,62.8728 59.5,63.5C 54.1729,57.8392 48.8396,52.1725 43.5,46.5C 44.5,46.1667 45.1667,45.5 45.5,44.5 Z"/></g>
</svg>
