<?xml version="1.0" encoding="UTF-8"?>
<!DOCTYPE svg PUBLIC "-//W3C//DTD SVG 1.1//EN" "http://www.w3.org/Graphics/SVG/1.1/DTD/svg11.dtd">
<svg xmlns="http://www.w3.org/2000/svg" version="1.1" width="100px" height="100px" style="shape-rendering:geometricPrecision; text-rendering:geometricPrecision; image-rendering:optimizeQuality; fill-rule:evenodd; clip-rule:evenodd" xmlns:xlink="http://www.w3.org/1999/xlink">
<g><path style="opacity:0.761" fill="#844210" d="M 52.5,14.5 C 51.5,14.5 50.5,14.5 49.5,14.5C 49.8016,11.9407 49.4682,9.60737 48.5,7.5C 49.4551,5.29008 50.9551,4.95675 53,6.5C 53.4298,9.19224 53.2631,11.8589 52.5,14.5 Z"/></g>
<g><path style="opacity:1" fill="#550e00" d="M 50.5,7.5 C 52.4646,7.94835 52.7979,8.94835 51.5,10.5C 50.6143,9.67504 50.281,8.67504 50.5,7.5 Z"/></g>
<g><path style="opacity:0.255" fill="#c77a0c" d="M 48.5,7.5 C 49.4682,9.60737 49.8016,11.9407 49.5,14.5C 49.5,16.5 49.5,18.5 49.5,20.5C 48.8333,20.8333 48.1667,21.1667 47.5,21.5C 48.2295,16.8696 48.5628,12.2029 48.5,7.5 Z"/></g>
<g><path style="opacity:1" fill="#9d6808" d="M 49.5,14.5 C 50.5,14.5 51.5,14.5 52.5,14.5C 51.7814,16.7638 51.448,19.0971 51.5,21.5C 50.6618,21.8417 50.3284,22.5084 50.5,23.5C 50.1667,25.5 49.8333,27.5 49.5,29.5C 48.7611,29.631 48.0944,29.4643 47.5,29C 48.3253,26.2219 48.992,23.3886 49.5,20.5C 49.5,18.5 49.5,16.5 49.5,14.5 Z"/></g>
<g><path style="opacity:0.961" fill="#fbcd94" d="M 47.5,21.5 C 47.5,22.1667 47.5,22.8333 47.5,23.5C 46.2921,22.7659 44.9587,22.4326 43.5,22.5C 40.7938,22.5751 38.1272,22.9084 35.5,23.5C 35.5,23.1667 35.5,22.8333 35.5,22.5C 39.3998,21.5701 43.3998,21.2367 47.5,21.5 Z"/></g>
<g><path style="opacity:1" fill="#fcc873" d="M 43.5,22.5 C 41.891,23.3262 40.2243,24.3262 38.5,25.5C 36.3023,25.4088 35.9689,26.0755 37.5,27.5C 36.0413,27.5674 34.7079,27.2341 33.5,26.5C 33.7822,25.2223 34.4489,24.2223 35.5,23.5C 38.1272,22.9084 40.7938,22.5751 43.5,22.5 Z"/></g>
<g><path style="opacity:1" fill="#ff9a78" d="M 35.5,22.5 C 35.5,22.8333 35.5,23.1667 35.5,23.5C 32.1014,24.7588 29.4347,26.0922 27.5,27.5C 28.1098,26.609 28.4431,25.609 28.5,24.5C 30.5145,23.0762 32.8478,22.4095 35.5,22.5 Z"/></g>
<g><path style="opacity:1" fill="#f9da69" d="M 50.5,23.5 C 51.8333,23.5 53.1667,23.5 54.5,23.5C 54.3284,24.4916 54.6618,25.1583 55.5,25.5C 53.8525,27.3264 51.8525,28.6597 49.5,29.5C 49.8333,27.5 50.1667,25.5 50.5,23.5 Z"/></g>
<g><path style="opacity:1" fill="#f59b60" d="M 54.5,23.5 C 56.7354,23.2053 58.7354,23.5386 60.5,24.5C 58.8828,25.038 57.2161,25.3713 55.5,25.5C 54.6618,25.1583 54.3284,24.4916 54.5,23.5 Z"/></g>
<g><path style="opacity:1" fill="#f1cb61" d="M 43.5,22.5 C 44.9587,22.4326 46.2921,22.7659 47.5,23.5C 47.0046,25.4817 46.5046,27.4817 46,29.5C 44.2663,28.7511 42.433,28.2511 40.5,28C 39.6195,27.2917 38.9528,26.4584 38.5,25.5C 40.2243,24.3262 41.891,23.3262 43.5,22.5 Z"/></g>
<g><path style="opacity:1" fill="#ebcc8d" d="M 60.5,24.5 C 62.4832,24.1568 63.8166,24.8235 64.5,26.5C 60.1945,27.2351 56.1945,28.5684 52.5,30.5C 51.5,30.5 50.5,30.5 49.5,30.5C 49.5,30.1667 49.5,29.8333 49.5,29.5C 51.8525,28.6597 53.8525,27.3264 55.5,25.5C 57.2161,25.3713 58.8828,25.038 60.5,24.5 Z"/></g>
<g><path style="opacity:1" fill="#f89f76" d="M 64.5,26.5 C 66.099,26.2322 67.4324,26.5655 68.5,27.5C 64.7512,27.7506 61.0845,28.4172 57.5,29.5C 55.8828,30.038 54.2161,30.3713 52.5,30.5C 56.1945,28.5684 60.1945,27.2351 64.5,26.5 Z"/></g>
<g><path style="opacity:1" fill="#f3d195" d="M 33.5,26.5 C 34.7079,27.2341 36.0413,27.5674 37.5,27.5C 37.5,28.1667 37.5,28.8333 37.5,29.5C 36.391,29.5569 35.391,29.8902 34.5,30.5C 30.7104,30.9923 30.0437,30.159 32.5,28C 31.2881,26.8932 31.6214,26.3932 33.5,26.5 Z"/></g>
<g><path style="opacity:1" fill="#cc9e1d" d="M 49.5,20.5 C 48.992,23.3886 48.3253,26.2219 47.5,29C 48.0944,29.4643 48.7611,29.631 49.5,29.5C 49.5,29.8333 49.5,30.1667 49.5,30.5C 49.1667,30.5 48.8333,30.5 48.5,30.5C 48.1667,30.5 47.8333,30.5 47.5,30.5C 44.0977,30.6576 40.7644,30.3242 37.5,29.5C 37.5,28.8333 37.5,28.1667 37.5,27.5C 35.9689,26.0755 36.3023,25.4088 38.5,25.5C 38.9528,26.4584 39.6195,27.2917 40.5,28C 42.433,28.2511 44.2663,28.7511 46,29.5C 46.5046,27.4817 47.0046,25.4817 47.5,23.5C 47.5,22.8333 47.5,22.1667 47.5,21.5C 48.1667,21.1667 48.8333,20.8333 49.5,20.5 Z"/></g>
<g><path style="opacity:0.902" fill="#e8af94" d="M 51.5,21.5 C 59.156,21.6621 66.156,23.8288 72.5,28C 74.1412,29.129 75.1412,30.629 75.5,32.5C 75.1667,32.5 74.8333,32.5 74.5,32.5C 74.1667,31.5 73.5,30.8333 72.5,30.5C 71.5637,29.0256 70.2303,28.0256 68.5,27.5C 67.4324,26.5655 66.099,26.2322 64.5,26.5C 63.8166,24.8235 62.4832,24.1568 60.5,24.5C 58.7354,23.5386 56.7354,23.2053 54.5,23.5C 53.1667,23.5 51.8333,23.5 50.5,23.5C 50.3284,22.5084 50.6618,21.8417 51.5,21.5 Z"/></g>
<g><path style="opacity:1" fill="#ffcc87" d="M 35.5,23.5 C 34.4489,24.2223 33.7822,25.2223 33.5,26.5C 31.6214,26.3932 31.2881,26.8932 32.5,28C 30.0437,30.159 30.7104,30.9923 34.5,30.5C 34.5,30.8333 34.5,31.1667 34.5,31.5C 33.8333,31.5 33.5,31.8333 33.5,32.5C 32.5,33.1667 31.5,33.8333 30.5,34.5C 28.9142,33.8519 27.2475,33.3519 25.5,33C 24.7476,32.3292 24.4142,31.4959 24.5,30.5C 25.7281,29.6935 26.7281,28.6935 27.5,27.5C 29.4347,26.0922 32.1014,24.7588 35.5,23.5 Z"/></g>
<g><path style="opacity:1" fill="#f96d30" d="M 66.5,28.5 C 66.5106,30.0174 67.1772,31.1841 68.5,32C 67.1667,32 65.8333,32 64.5,32C 65.6364,33.1451 66.6364,34.3117 67.5,35.5C 67.8333,36.1667 68.1667,36.8333 68.5,37.5C 67.7784,37.9175 67.2784,38.5842 67,39.5C 66.4842,36.4531 64.9842,34.1198 62.5,32.5C 61.1054,33.8146 60.1054,33.4812 59.5,31.5C 61.5707,30.0549 63.904,29.0549 66.5,28.5 Z"/></g>
<g><path style="opacity:1" fill="#f18155" d="M 68.5,27.5 C 70.2303,28.0256 71.5637,29.0256 72.5,30.5C 71.8333,30.5 71.1667,30.5 70.5,30.5C 68.9382,30.2671 67.6049,29.6005 66.5,28.5C 63.904,29.0549 61.5707,30.0549 59.5,31.5C 59.1667,31.5 58.8333,31.5 58.5,31.5C 58.1667,30.8333 57.8333,30.1667 57.5,29.5C 61.0845,28.4172 64.7512,27.7506 68.5,27.5 Z"/></g>
<g><path style="opacity:1" fill="#fcab76" d="M 37.5,29.5 C 40.7644,30.3242 44.0977,30.6576 47.5,30.5C 47.1583,31.3382 46.4916,31.6716 45.5,31.5C 45.1667,31.5 44.8333,31.5 44.5,31.5C 42.302,31.1201 40.6354,31.7868 39.5,33.5C 38.8333,32.8333 38.1667,32.1667 37.5,31.5C 36.5416,31.9528 35.7083,32.6195 35,33.5C 34.5357,32.9056 34.369,32.2389 34.5,31.5C 34.5,31.1667 34.5,30.8333 34.5,30.5C 35.391,29.8902 36.391,29.5569 37.5,29.5 Z"/></g>
<g><path style="opacity:1" fill="#fc7076" d="M 28.5,24.5 C 28.4431,25.609 28.1098,26.609 27.5,27.5C 26.7281,28.6935 25.7281,29.6935 24.5,30.5C 23.8333,31.1667 23.1667,31.8333 22.5,32.5C 21.5987,33.2905 20.9321,34.2905 20.5,35.5C 20.1667,36.1667 19.8333,36.8333 19.5,37.5C 17.1257,40.6859 16.1257,44.3526 16.5,48.5C 16.1667,48.5 15.8333,48.5 15.5,48.5C 15.5,48.1667 15.5,47.8333 15.5,47.5C 15.423,43.7852 15.7564,40.1185 16.5,36.5C 18.8333,30.8333 22.8333,26.8333 28.5,24.5 Z"/></g>
<g><path style="opacity:1" fill="#ff7331" d="M 47.5,30.5 C 47.8333,30.5 48.1667,30.5 48.5,30.5C 47.5868,32.0861 47.5868,33.5861 48.5,35C 47.552,35.4828 46.552,35.6495 45.5,35.5C 45.5,34.1667 45.5,32.8333 45.5,31.5C 46.4916,31.6716 47.1583,31.3382 47.5,30.5 Z"/></g>
<g><path style="opacity:1" fill="#fe200b" d="M 48.5,30.5 C 48.8333,30.5 49.1667,30.5 49.5,30.5C 51.7071,31.1303 53.3738,32.4637 54.5,34.5C 54.5,35.5 54.5,36.5 54.5,37.5C 54.1583,38.3382 53.4916,38.6716 52.5,38.5C 52.189,37.5222 51.5223,36.8555 50.5,36.5C 47.9047,37.2203 45.5714,37.2203 43.5,36.5C 42.8333,36.5 42.5,36.1667 42.5,35.5C 43.3446,34.3285 44.0113,32.9952 44.5,31.5C 44.8333,31.5 45.1667,31.5 45.5,31.5C 45.5,32.8333 45.5,34.1667 45.5,35.5C 46.552,35.6495 47.552,35.4828 48.5,35C 47.5868,33.5861 47.5868,32.0861 48.5,30.5 Z"/></g>
<g><path style="opacity:1" fill="#eb3c0f" d="M 66.5,28.5 C 67.6049,29.6005 68.9382,30.2671 70.5,30.5C 70.5,31.1667 70.8333,31.5 71.5,31.5C 68.894,32.8499 68.894,34.3499 71.5,36C 71.2716,36.3988 70.9382,36.5654 70.5,36.5C 69.5416,36.0472 68.7083,35.3805 68,34.5C 67.6012,34.7284 67.4346,35.0618 67.5,35.5C 66.6364,34.3117 65.6364,33.1451 64.5,32C 65.8333,32 67.1667,32 68.5,32C 67.1772,31.1841 66.5106,30.0174 66.5,28.5 Z"/></g>
<g><path style="opacity:1" fill="#fe6f39" d="M 57.5,29.5 C 57.8333,30.1667 58.1667,30.8333 58.5,31.5C 58.0742,32.5279 58.0742,33.8612 58.5,35.5C 57.2876,34.7701 56.2876,33.7701 55.5,32.5C 54.7025,32.9569 54.3691,33.6236 54.5,34.5C 53.3738,32.4637 51.7071,31.1303 49.5,30.5C 50.5,30.5 51.5,30.5 52.5,30.5C 54.2161,30.3713 55.8828,30.038 57.5,29.5 Z"/></g>
<g><path style="opacity:1" fill="#fa3718" d="M 58.5,35.5 C 58.366,37.2915 58.6993,38.9582 59.5,40.5C 58.448,40.6495 57.448,40.4828 56.5,40C 57.9964,37.5528 57.6631,36.7194 55.5,37.5C 55.1667,37.5 54.8333,37.5 54.5,37.5C 54.5,36.5 54.5,35.5 54.5,34.5C 54.3691,33.6236 54.7025,32.9569 55.5,32.5C 56.2876,33.7701 57.2876,34.7701 58.5,35.5 Z"/></g>
<g><path style="opacity:1" fill="#e82604" d="M 62.5,32.5 C 64.9842,34.1198 66.4842,36.4531 67,39.5C 67.2784,38.5842 67.7784,37.9175 68.5,37.5C 68.7214,38.7348 69.3881,39.7348 70.5,40.5C 68.7118,41.2826 67.7118,42.6159 67.5,44.5C 66.609,43.8902 65.609,43.5569 64.5,43.5C 64.9817,42.5837 65.315,41.5837 65.5,40.5C 63.9462,38.0559 62.9462,35.3892 62.5,32.5 Z"/></g>
<g><path style="opacity:1" fill="#e4531f" d="M 71.5,31.5 C 73.047,32.7682 74.047,34.4348 74.5,36.5C 72.8549,40.2108 71.5215,40.2108 70.5,36.5C 70.9382,36.5654 71.2716,36.3988 71.5,36C 68.894,34.3499 68.894,32.8499 71.5,31.5 Z"/></g>
<g><path style="opacity:1" fill="#ff9156" d="M 24.5,30.5 C 24.4142,31.4959 24.7476,32.3292 25.5,33C 27.2475,33.3519 28.9142,33.8519 30.5,34.5C 29.8902,35.391 29.5569,36.391 29.5,37.5C 28.5,37.5 27.5,37.5 26.5,37.5C 27.0906,36.8485 27.7573,36.1818 28.5,35.5C 27.0095,34.7564 25.5095,34.0897 24,33.5C 22.8932,34.7119 22.3932,34.3786 22.5,32.5C 23.1667,31.8333 23.8333,31.1667 24.5,30.5 Z"/></g>
<g><path style="opacity:1" fill="#ff6a55" d="M 22.5,32.5 C 22.3932,34.3786 22.8932,34.7119 24,33.5C 25.5095,34.0897 27.0095,34.7564 28.5,35.5C 27.7573,36.1818 27.0906,36.8485 26.5,37.5C 24.9689,38.9245 25.3023,39.5912 27.5,39.5C 27.5,39.8333 27.5,40.1667 27.5,40.5C 26.391,40.5569 25.391,40.8902 24.5,41.5C 23.7326,40.828 23.0659,39.9947 22.5,39C 23.3366,37.9887 23.67,36.8221 23.5,35.5C 22.5,35.5 21.5,35.5 20.5,35.5C 20.9321,34.2905 21.5987,33.2905 22.5,32.5 Z"/></g>
<g><path style="opacity:1" fill="#ff5a32" d="M 34.5,31.5 C 34.369,32.2389 34.5357,32.9056 35,33.5C 35.7083,32.6195 36.5416,31.9528 37.5,31.5C 35.8586,37.8806 36.5253,38.5473 39.5,33.5C 40.6354,31.7868 42.302,31.1201 44.5,31.5C 44.0113,32.9952 43.3446,34.3285 42.5,35.5C 41.8826,35.3893 41.3826,35.056 41,34.5C 40.5065,36.1341 40.3398,37.8008 40.5,39.5C 40.1667,39.5 39.8333,39.5 39.5,39.5C 37.1296,39.264 35.1296,38.264 33.5,36.5C 32.914,36.7093 32.414,37.0426 32,37.5C 32.1343,35.8107 32.6343,34.144 33.5,32.5C 33.5,31.8333 33.8333,31.5 34.5,31.5 Z"/></g>
<g><path style="opacity:1" fill="#ff8b44" d="M 37.5,31.5 C 38.1667,32.1667 38.8333,32.8333 39.5,33.5C 36.5253,38.5473 35.8586,37.8806 37.5,31.5 Z"/></g>
<g><path style="opacity:0.507" fill="#d99a79" d="M 74.5,32.5 C 74.8333,32.5 75.1667,32.5 75.5,32.5C 78.4053,34.756 80.072,37.756 80.5,41.5C 80.1667,41.5 79.8333,41.5 79.5,41.5C 77.545,38.6789 75.8784,35.6789 74.5,32.5 Z"/></g>
<g><path style="opacity:1" fill="#ff4246" d="M 20.5,35.5 C 21.5,35.5 22.5,35.5 23.5,35.5C 23.67,36.8221 23.3366,37.9887 22.5,39C 23.0659,39.9947 23.7326,40.828 24.5,41.5C 24.5,41.8333 24.5,42.1667 24.5,42.5C 23.6618,42.8417 23.3284,43.5084 23.5,44.5C 22.0592,42.2758 20.7259,39.9424 19.5,37.5C 19.8333,36.8333 20.1667,36.1667 20.5,35.5 Z"/></g>
<g><path style="opacity:1" fill="#fc0205" d="M 42.5,35.5 C 42.5,36.1667 42.8333,36.5 43.5,36.5C 43.3505,37.552 43.5172,38.552 44,39.5C 46.0639,38.4086 48.2305,38.2419 50.5,39C 49.5,39.3333 48.5,39.6667 47.5,40C 49.1193,40.2355 50.1193,41.0689 50.5,42.5C 49.1667,42.5 47.8333,42.5 46.5,42.5C 46.33,43.8221 46.6634,44.9887 47.5,46C 46.552,46.4828 45.552,46.6495 44.5,46.5C 44.6621,44.4727 44.4955,42.4727 44,40.5C 43.6667,40.8333 43.3333,41.1667 43,41.5C 42.1932,37.551 41.6932,37.551 41.5,41.5C 40.6618,41.1583 40.3284,40.4916 40.5,39.5C 40.3398,37.8008 40.5065,36.1341 41,34.5C 41.3826,35.056 41.8826,35.3893 42.5,35.5 Z"/></g>
<g><path style="opacity:1" fill="#fc0300" d="M 54.5,37.5 C 54.8333,37.5 55.1667,37.5 55.5,37.5C 55.1778,39.4752 55.1778,41.1418 55.5,42.5C 55.6567,43.8734 55.49,45.2068 55,46.5C 54.2588,47.6405 53.4255,47.6405 52.5,46.5C 51.7025,46.9569 51.3691,47.6236 51.5,48.5C 51.1667,48.5 50.8333,48.5 50.5,48.5C 47.8675,46.5446 47.8675,44.5446 50.5,42.5C 51.1667,41.1667 51.8333,39.8333 52.5,38.5C 53.4916,38.6716 54.1583,38.3382 54.5,37.5 Z"/></g>
<g><path style="opacity:1" fill="#fa654f" d="M 58.5,35.5 C 61.231,36.9528 62.231,38.9528 61.5,41.5C 60.8333,41.1667 60.1667,40.8333 59.5,40.5C 58.6993,38.9582 58.366,37.2915 58.5,35.5 Z"/></g>
<g><path style="opacity:1" fill="#f03122" d="M 58.5,31.5 C 58.8333,31.5 59.1667,31.5 59.5,31.5C 60.1054,33.4812 61.1054,33.8146 62.5,32.5C 62.9462,35.3892 63.9462,38.0559 65.5,40.5C 65.315,41.5837 64.9817,42.5837 64.5,43.5C 64.1667,43.5 63.8333,43.5 63.5,43.5C 62.8333,42.8333 62.1667,42.1667 61.5,41.5C 62.231,38.9528 61.231,36.9528 58.5,35.5C 58.0742,33.8612 58.0742,32.5279 58.5,31.5 Z"/></g>
<g><path style="opacity:1" fill="#dd1800" d="M 70.5,36.5 C 71.5215,40.2108 72.8549,40.2108 74.5,36.5C 74.8333,37.1667 75.1667,37.8333 75.5,38.5C 73.5901,39.684 73.2568,41.184 74.5,43C 73.2559,43.4561 72.4226,42.9561 72,41.5C 71.5065,43.1341 71.3398,44.8008 71.5,46.5C 70.7321,47.2625 70.2321,48.2625 70,49.5C 69.296,47.273 68.1294,46.9397 66.5,48.5C 66.8333,47.1667 67.1667,45.8333 67.5,44.5C 67.7118,42.6159 68.7118,41.2826 70.5,40.5C 69.3881,39.7348 68.7214,38.7348 68.5,37.5C 68.1667,36.8333 67.8333,36.1667 67.5,35.5C 67.4346,35.0618 67.6012,34.7284 68,34.5C 68.7083,35.3805 69.5416,36.0472 70.5,36.5 Z"/></g>
<g><path style="opacity:1" fill="#dc713c" d="M 70.5,30.5 C 71.1667,30.5 71.8333,30.5 72.5,30.5C 73.5,30.8333 74.1667,31.5 74.5,32.5C 75.8784,35.6789 77.545,38.6789 79.5,41.5C 79.5,42.8333 79.5,44.1667 79.5,45.5C 78.8333,45.5 78.1667,45.5 77.5,45.5C 77.4142,44.5041 77.7476,43.6708 78.5,43C 77.1031,41.6897 76.1031,40.1897 75.5,38.5C 75.1667,37.8333 74.8333,37.1667 74.5,36.5C 74.047,34.4348 73.047,32.7682 71.5,31.5C 70.8333,31.5 70.5,31.1667 70.5,30.5 Z"/></g>
<g><path style="opacity:1" fill="#ff5757" d="M 33.5,32.5 C 32.6343,34.144 32.1343,35.8107 32,37.5C 32.414,37.0426 32.914,36.7093 33.5,36.5C 35.1296,38.264 37.1296,39.264 39.5,39.5C 39.6716,40.4916 39.3382,41.1583 38.5,41.5C 37.5041,41.4142 36.6708,41.7476 36,42.5C 35.7508,41.376 35.2508,40.376 34.5,39.5C 32.6639,38.9724 30.9972,38.3058 29.5,37.5C 29.5569,36.391 29.8902,35.391 30.5,34.5C 31.5,33.8333 32.5,33.1667 33.5,32.5 Z"/></g>
<g><path style="opacity:1" fill="#ff3e26" d="M 43.5,36.5 C 45.5714,37.2203 47.9047,37.2203 50.5,36.5C 51.5223,36.8555 52.189,37.5222 52.5,38.5C 51.8333,39.8333 51.1667,41.1667 50.5,42.5C 50.1193,41.0689 49.1193,40.2355 47.5,40C 48.5,39.6667 49.5,39.3333 50.5,39C 48.2305,38.2419 46.0639,38.4086 44,39.5C 43.5172,38.552 43.3505,37.552 43.5,36.5 Z"/></g>
<g><path style="opacity:1" fill="#ff9593" d="M 35.5,46.5 C 34.8333,47.8333 34.1667,47.8333 33.5,46.5C 32.3669,43.5121 30.3669,41.5121 27.5,40.5C 27.5,40.1667 27.5,39.8333 27.5,39.5C 27.4346,39.0618 27.6012,38.7284 28,38.5C 29.897,40.0163 32.0637,40.683 34.5,40.5C 34.5172,42.5648 34.8505,44.5648 35.5,46.5 Z"/></g>
<g><path style="opacity:1" fill="#f00804" d="M 59.5,40.5 C 60.1667,40.8333 60.8333,41.1667 61.5,41.5C 62.1667,42.1667 62.8333,42.8333 63.5,43.5C 62.1667,43.5 60.8333,43.5 59.5,43.5C 58.8333,44.5 58.1667,45.5 57.5,46.5C 57.6453,45.1591 56.9786,43.8258 55.5,42.5C 55.1778,41.1418 55.1778,39.4752 55.5,37.5C 57.6631,36.7194 57.9964,37.5528 56.5,40C 57.448,40.4828 58.448,40.6495 59.5,40.5 Z"/></g>
<g><path style="opacity:1" fill="#ff7175" d="M 27.5,40.5 C 30.3669,41.5121 32.3669,43.5121 33.5,46.5C 32.5,46.5 31.5,46.5 30.5,46.5C 30.6198,43.7952 29.6198,43.1285 27.5,44.5C 26.7348,43.3881 25.7348,42.7214 24.5,42.5C 24.5,42.1667 24.5,41.8333 24.5,41.5C 25.391,40.8902 26.391,40.5569 27.5,40.5 Z"/></g>
<g><path style="opacity:1" fill="#ef000f" d="M 19.5,37.5 C 20.7259,39.9424 22.0592,42.2758 23.5,44.5C 24.1174,44.3893 24.6174,44.056 25,43.5C 25.5494,45.7596 26.716,47.4262 28.5,48.5C 28.1667,49.8333 27.8333,51.1667 27.5,52.5C 26.8333,52.1667 26.1667,51.8333 25.5,51.5C 24.8892,45.2067 24.0559,45.5401 23,52.5C 22.3292,51.7476 21.4959,51.4142 20.5,51.5C 20.2792,48.9028 19.7792,48.9028 19,51.5C 18.7679,50.2625 18.2679,49.2625 17.5,48.5C 18.4633,44.8993 19.13,41.2326 19.5,37.5 Z"/></g>
<g><path style="opacity:0.696" fill="#db9972" d="M 79.5,41.5 C 79.8333,41.5 80.1667,41.5 80.5,41.5C 81.2679,42.2625 81.7679,43.2625 82,44.5C 82.4986,48.1516 82.6653,51.8183 82.5,55.5C 82.1667,55.5 81.8333,55.5 81.5,55.5C 81.6646,52.4816 81.498,49.4816 81,46.5C 80.6174,45.944 80.1174,45.6107 79.5,45.5C 79.5,44.1667 79.5,42.8333 79.5,41.5 Z"/></g>
<g><path style="opacity:1" fill="#f60000" d="M 55.5,42.5 C 56.9786,43.8258 57.6453,45.1591 57.5,46.5C 57.5,47.5 57.5,48.5 57.5,49.5C 55.4352,49.4828 53.4352,49.1495 51.5,48.5C 51.3691,47.6236 51.7025,46.9569 52.5,46.5C 53.4255,47.6405 54.2588,47.6405 55,46.5C 55.49,45.2068 55.6567,43.8734 55.5,42.5 Z"/></g>
<g><path style="opacity:1" fill="#e891a0" d="M 16.5,36.5 C 15.7564,40.1185 15.423,43.7852 15.5,47.5C 14.5233,50.2869 14.19,53.2869 14.5,56.5C 13.3516,52.0189 13.1849,47.3522 14,42.5C 14.2401,40.1484 15.0735,38.1484 16.5,36.5 Z"/></g>
<g><path style="opacity:1" fill="#ff7076" d="M 26.5,37.5 C 27.5,37.5 28.5,37.5 29.5,37.5C 30.9972,38.3058 32.6639,38.9724 34.5,39.5C 35.2508,40.376 35.7508,41.376 36,42.5C 36.6708,41.7476 37.5041,41.4142 38.5,41.5C 38.5,43.1667 38.5,44.8333 38.5,46.5C 37.5,46.5 36.5,46.5 35.5,46.5C 34.8505,44.5648 34.5172,42.5648 34.5,40.5C 32.0637,40.683 29.897,40.0163 28,38.5C 27.6012,38.7284 27.4346,39.0618 27.5,39.5C 25.3023,39.5912 24.9689,38.9245 26.5,37.5 Z"/></g>
<g><path style="opacity:1" fill="#eb0707" d="M 50.5,42.5 C 47.8675,44.5446 47.8675,46.5446 50.5,48.5C 50.1583,49.3382 49.4916,49.6716 48.5,49.5C 47.7455,47.5337 46.5788,47.2004 45,48.5C 44.1667,47.5 43.3333,46.5 42.5,45.5C 41.7348,46.6119 40.7348,47.2786 39.5,47.5C 40.1667,45.5 40.8333,43.5 41.5,41.5C 41.6932,37.551 42.1932,37.551 43,41.5C 43.3333,41.1667 43.6667,40.8333 44,40.5C 44.4955,42.4727 44.6621,44.4727 44.5,46.5C 45.552,46.6495 46.552,46.4828 47.5,46C 46.6634,44.9887 46.33,43.8221 46.5,42.5C 47.8333,42.5 49.1667,42.5 50.5,42.5 Z"/></g>
<g><path style="opacity:1" fill="#cd0000" d="M 59.5,43.5 C 60.8333,43.5 62.1667,43.5 63.5,43.5C 63.8333,43.5 64.1667,43.5 64.5,43.5C 65.609,43.5569 66.609,43.8902 67.5,44.5C 67.1667,45.8333 66.8333,47.1667 66.5,48.5C 66.5654,48.9382 66.3988,49.2716 66,49.5C 65.7216,48.5842 65.2216,47.9175 64.5,47.5C 63.1429,48.5903 62.1429,49.9236 61.5,51.5C 60.6295,48.8877 59.9628,46.221 59.5,43.5 Z"/></g>
<g><path style="opacity:1" fill="#dc4806" d="M 75.5,38.5 C 76.1031,40.1897 77.1031,41.6897 78.5,43C 77.7476,43.6708 77.4142,44.5041 77.5,45.5C 77.5,46.1667 77.5,46.8333 77.5,47.5C 76.0413,47.4326 74.7079,47.7659 73.5,48.5C 72.8333,47.8333 72.1667,47.1667 71.5,46.5C 71.3398,44.8008 71.5065,43.1341 72,41.5C 72.4226,42.9561 73.2559,43.4561 74.5,43C 73.2568,41.184 73.5901,39.684 75.5,38.5 Z"/></g>
<g><path style="opacity:1" fill="#f5204a" d="M 19.5,37.5 C 19.13,41.2326 18.4633,44.8993 17.5,48.5C 17.1667,48.5 16.8333,48.5 16.5,48.5C 16.1257,44.3526 17.1257,40.6859 19.5,37.5 Z"/></g>
<g><path style="opacity:1" fill="#fd3450" d="M 24.5,42.5 C 25.7348,42.7214 26.7348,43.3881 27.5,44.5C 29.6198,43.1285 30.6198,43.7952 30.5,46.5C 29.1667,46.5 28.5,47.1667 28.5,48.5C 26.716,47.4262 25.5494,45.7596 25,43.5C 24.6174,44.056 24.1174,44.3893 23.5,44.5C 23.3284,43.5084 23.6618,42.8417 24.5,42.5 Z"/></g>
<g><path style="opacity:1" fill="#f62647" d="M 39.5,39.5 C 39.8333,39.5 40.1667,39.5 40.5,39.5C 40.3284,40.4916 40.6618,41.1583 41.5,41.5C 40.8333,43.5 40.1667,45.5 39.5,47.5C 38.8333,47.5 38.5,47.8333 38.5,48.5C 37.8333,48.5 37.1667,48.5 36.5,48.5C 35.5084,48.3284 34.8417,48.6618 34.5,49.5C 33.1667,49.5 31.8333,49.5 30.5,49.5C 30.5,48.5 30.5,47.5 30.5,46.5C 31.5,46.5 32.5,46.5 33.5,46.5C 34.1667,47.8333 34.8333,47.8333 35.5,46.5C 36.5,46.5 37.5,46.5 38.5,46.5C 38.5,44.8333 38.5,43.1667 38.5,41.5C 39.3382,41.1583 39.6716,40.4916 39.5,39.5 Z"/></g>
<g><path style="opacity:1" fill="#dc0000" d="M 48.5,49.5 C 47.0689,49.8807 46.2355,50.8807 46,52.5C 44.1936,50.0481 42.6936,50.3814 41.5,53.5C 40.3554,52.2243 40.3554,50.891 41.5,49.5C 40.5754,48.4376 39.5754,48.4376 38.5,49.5C 38.5,49.1667 38.5,48.8333 38.5,48.5C 38.5,47.8333 38.8333,47.5 39.5,47.5C 40.7348,47.2786 41.7348,46.6119 42.5,45.5C 43.3333,46.5 44.1667,47.5 45,48.5C 46.5788,47.2004 47.7455,47.5337 48.5,49.5 Z"/></g>
<g><path style="opacity:1" fill="#d60000" d="M 61.5,51.5 C 62.1429,49.9236 63.1429,48.5903 64.5,47.5C 64.5,49.8333 64.5,52.1667 64.5,54.5C 63.603,53.4019 62.7697,53.4019 62,54.5C 61.296,52.273 60.1294,51.9397 58.5,53.5C 58.3379,51.4727 58.5045,49.4727 59,47.5C 59.2004,49.3197 60.0337,50.653 61.5,51.5 Z"/></g>
<g><path style="opacity:1" fill="#d10100" d="M 71.5,46.5 C 72.1667,47.1667 72.8333,47.8333 73.5,48.5C 73.8039,49.1499 74.1373,49.8165 74.5,50.5C 73.0202,51.1131 71.6869,51.4464 70.5,51.5C 73.028,52.8159 73.028,53.9826 70.5,55C 71.056,55.3826 71.3893,55.8826 71.5,56.5C 70.7611,56.631 70.0944,56.4643 69.5,56C 68.624,54.414 67.624,52.914 66.5,51.5C 66.1667,51.8333 65.8333,52.1667 65.5,52.5C 68.1765,55.8761 67.1765,57.5427 62.5,57.5C 62.5,57.1667 62.5,56.8333 62.5,56.5C 63.4734,56.0133 64.4734,55.5133 65.5,55C 65.2716,54.6012 64.9382,54.4346 64.5,54.5C 64.5,52.1667 64.5,49.8333 64.5,47.5C 65.2216,47.9175 65.7216,48.5842 66,49.5C 66.3988,49.2716 66.5654,48.9382 66.5,48.5C 68.1294,46.9397 69.296,47.273 70,49.5C 70.2321,48.2625 70.7321,47.2625 71.5,46.5 Z"/></g>
<g><path style="opacity:1" fill="#d9560e" d="M 77.5,45.5 C 78.1667,45.5 78.8333,45.5 79.5,45.5C 80.439,50.0813 80.439,54.748 79.5,59.5C 79.6309,58.6236 79.2975,57.9569 78.5,57.5C 77.8182,58.2427 77.1515,58.9094 76.5,59.5C 76.5789,57.3337 77.2455,55.3337 78.5,53.5C 77.8444,51.5466 77.5111,49.5466 77.5,47.5C 77.5,46.8333 77.5,46.1667 77.5,45.5 Z"/></g>
<g><path style="opacity:1" fill="#c90002" d="M 30.5,46.5 C 30.5,47.5 30.5,48.5 30.5,49.5C 29.1997,52.0241 29.1997,54.6908 30.5,57.5C 31.4656,55.604 31.7989,53.604 31.5,51.5C 32.7479,52.3339 33.4146,53.6672 33.5,55.5C 33.3333,56.8333 33.1667,58.1667 33,59.5C 31.3745,58.5881 30.5412,59.2547 30.5,61.5C 29.6043,60.4937 28.9377,60.4937 28.5,61.5C 28.1667,61.5 27.8333,61.5 27.5,61.5C 26.1667,58.5 26.1667,55.5 27.5,52.5C 27.8333,51.1667 28.1667,49.8333 28.5,48.5C 28.5,47.1667 29.1667,46.5 30.5,46.5 Z"/></g>
<g><path style="opacity:1" fill="#e20000" d="M 59.5,43.5 C 59.9628,46.221 60.6295,48.8877 61.5,51.5C 60.0337,50.653 59.2004,49.3197 59,47.5C 58.5045,49.4727 58.3379,51.4727 58.5,53.5C 57.609,52.8902 56.609,52.5569 55.5,52.5C 55.6309,51.6236 55.2975,50.9569 54.5,50.5C 53.5481,52.0453 53.2148,53.712 53.5,55.5C 52.9513,52.7502 51.2846,51.0835 48.5,50.5C 48.5,50.1667 48.5,49.8333 48.5,49.5C 49.4916,49.6716 50.1583,49.3382 50.5,48.5C 50.8333,48.5 51.1667,48.5 51.5,48.5C 53.4352,49.1495 55.4352,49.4828 57.5,49.5C 57.5,48.5 57.5,47.5 57.5,46.5C 58.1667,45.5 58.8333,44.5 59.5,43.5 Z"/></g>
<g><path style="opacity:1" fill="#bb0000" d="M 48.5,49.5 C 48.5,49.8333 48.5,50.1667 48.5,50.5C 48.7852,52.288 48.4519,53.9547 47.5,55.5C 46.2638,54.7542 44.9305,54.4208 43.5,54.5C 42.5084,54.3284 41.8417,54.6618 41.5,55.5C 40.2223,55.2178 39.2223,54.5511 38.5,53.5C 38.5,52.1667 38.5,50.8333 38.5,49.5C 39.5754,48.4376 40.5754,48.4376 41.5,49.5C 40.3554,50.891 40.3554,52.2243 41.5,53.5C 42.6936,50.3814 44.1936,50.0481 46,52.5C 46.2355,50.8807 47.0689,49.8807 48.5,49.5 Z"/></g>
<g><path style="opacity:1" fill="#ce000e" d="M 16.5,48.5 C 16.8333,48.5 17.1667,48.5 17.5,48.5C 18.2679,49.2625 18.7679,50.2625 19,51.5C 19.7792,48.9028 20.2792,48.9028 20.5,51.5C 21.6005,52.6049 22.2671,53.9382 22.5,55.5C 21.209,55.2627 20.209,55.596 19.5,56.5C 17.7329,54.2084 16.7329,51.5418 16.5,48.5 Z"/></g>
<g><path style="opacity:1" fill="#d00000" d="M 25.5,51.5 C 25.7989,53.604 25.4656,55.604 24.5,57.5C 23.8182,56.7573 23.1515,56.0906 22.5,55.5C 22.2671,53.9382 21.6005,52.6049 20.5,51.5C 21.4959,51.4142 22.3292,51.7476 23,52.5C 24.0559,45.5401 24.8892,45.2067 25.5,51.5 Z"/></g>
<g><path style="opacity:1" fill="#d32300" d="M 77.5,47.5 C 77.5111,49.5466 77.8444,51.5466 78.5,53.5C 77.2455,55.3337 76.5789,57.3337 76.5,59.5C 76.1667,59.5 75.8333,59.5 75.5,59.5C 75.6495,58.448 75.4828,57.448 75,56.5C 74.5899,57.9007 74.0899,59.234 73.5,60.5C 72.8333,59.1667 72.1667,57.8333 71.5,56.5C 71.3893,55.8826 71.056,55.3826 70.5,55C 73.028,53.9826 73.028,52.8159 70.5,51.5C 71.6869,51.4464 73.0202,51.1131 74.5,50.5C 74.1373,49.8165 73.8039,49.1499 73.5,48.5C 74.7079,47.7659 76.0413,47.4326 77.5,47.5 Z"/></g>
<g><path style="opacity:1" fill="#ee0001" d="M 30.5,49.5 C 31.8333,49.5 33.1667,49.5 34.5,49.5C 33.5,50.1667 32.5,50.8333 31.5,51.5C 31.7989,53.604 31.4656,55.604 30.5,57.5C 29.1997,54.6908 29.1997,52.0241 30.5,49.5 Z"/></g>
<g><path style="opacity:1" fill="#f30000" d="M 36.5,48.5 C 37.1667,48.5 37.8333,48.5 38.5,48.5C 38.5,48.8333 38.5,49.1667 38.5,49.5C 38.5,50.8333 38.5,52.1667 38.5,53.5C 38.702,55.9496 38.3686,58.283 37.5,60.5C 35.5613,59.9862 34.5613,58.6528 34.5,56.5C 35.762,53.978 36.4287,51.3113 36.5,48.5 Z"/></g>
<g><path style="opacity:1" fill="#b70000" d="M 55.5,52.5 C 55.8333,55.1667 56.1667,57.8333 56.5,60.5C 55.8333,60.5 55.1667,60.5 54.5,60.5C 54.5,59.8333 54.5,59.1667 54.5,58.5C 53.8902,57.609 53.5569,56.609 53.5,55.5C 53.2148,53.712 53.5481,52.0453 54.5,50.5C 55.2975,50.9569 55.6309,51.6236 55.5,52.5 Z"/></g>
<g><path style="opacity:1" fill="#d81744" d="M 15.5,48.5 C 15.8333,48.5 16.1667,48.5 16.5,48.5C 16.7329,51.5418 17.7329,54.2084 19.5,56.5C 19.5,57.1667 19.5,57.8333 19.5,58.5C 19.1667,58.5 18.8333,58.5 18.5,58.5C 17.609,57.8902 16.609,57.5569 15.5,57.5C 15.5,54.5 15.5,51.5 15.5,48.5 Z"/></g>
<g><path style="opacity:1" fill="#ce0000" d="M 48.5,50.5 C 51.2846,51.0835 52.9513,52.7502 53.5,55.5C 53.5569,56.609 53.8902,57.609 54.5,58.5C 51.9228,58.4551 49.9228,59.4551 48.5,61.5C 47.1667,62.8333 45.8333,62.8333 44.5,61.5C 44.702,59.0504 44.3686,56.717 43.5,54.5C 44.9305,54.4208 46.2638,54.7542 47.5,55.5C 48.4519,53.9547 48.7852,52.288 48.5,50.5 Z"/></g>
<g><path style="opacity:1" fill="#c90000" d="M 64.5,54.5 C 64.9382,54.4346 65.2716,54.6012 65.5,55C 64.4734,55.5133 63.4734,56.0133 62.5,56.5C 61.7029,55.5218 61.0362,55.8551 60.5,57.5C 61.6446,58.891 61.6446,60.2243 60.5,61.5C 59.8182,60.7573 59.1515,60.0906 58.5,59.5C 59.8333,57.5 59.8333,55.5 58.5,53.5C 60.1294,51.9397 61.296,52.273 62,54.5C 62.7697,53.4019 63.603,53.4019 64.5,54.5 Z"/></g>
<g><path style="opacity:1" fill="#c50000" d="M 71.5,56.5 C 70.962,58.1172 70.6287,59.7839 70.5,61.5C 69.0695,61.5792 67.7362,61.2458 66.5,60.5C 65.7025,60.9569 65.3691,61.6236 65.5,62.5C 64.5266,62.0133 63.5266,61.5133 62.5,61C 63.6843,59.8545 63.6843,58.6879 62.5,57.5C 67.1765,57.5427 68.1765,55.8761 65.5,52.5C 65.8333,52.1667 66.1667,51.8333 66.5,51.5C 67.624,52.914 68.624,54.414 69.5,56C 70.0944,56.4643 70.7611,56.631 71.5,56.5 Z"/></g>
<g><path style="opacity:1" fill="#da7640" d="M 79.5,45.5 C 80.1174,45.6107 80.6174,45.944 81,46.5C 81.498,49.4816 81.6646,52.4816 81.5,55.5C 81.6653,59.1817 81.4986,62.8484 81,66.5C 80.7679,67.7375 80.2679,68.7375 79.5,69.5C 79.5,69.1667 79.5,68.8333 79.5,68.5C 80.4237,65.4467 80.4237,62.4467 79.5,59.5C 80.439,54.748 80.439,50.0813 79.5,45.5 Z"/></g>
<g><path style="opacity:1" fill="#d20000" d="M 55.5,52.5 C 56.609,52.5569 57.609,52.8902 58.5,53.5C 59.8333,55.5 59.8333,57.5 58.5,59.5C 58.1583,60.3382 57.4916,60.6716 56.5,60.5C 56.1667,57.8333 55.8333,55.1667 55.5,52.5 Z"/></g>
<g><path style="opacity:0.461" fill="#dc7a8e" d="M 15.5,47.5 C 15.5,47.8333 15.5,48.1667 15.5,48.5C 15.5,51.5 15.5,54.5 15.5,57.5C 16.0916,60.1272 16.4249,62.7938 16.5,65.5C 15.087,62.7814 14.4203,59.7814 14.5,56.5C 14.19,53.2869 14.5233,50.2869 15.5,47.5 Z"/></g>
<g><path style="opacity:1" fill="#b00000" d="M 43.5,54.5 C 44.3686,56.717 44.702,59.0504 44.5,61.5C 43.6618,61.8417 43.3284,62.5084 43.5,63.5C 43.1667,63.5 42.8333,63.5 42.5,63.5C 42.1667,60.8333 41.8333,58.1667 41.5,55.5C 41.8417,54.6618 42.5084,54.3284 43.5,54.5 Z"/></g>
<g><path style="opacity:1" fill="#cb0000" d="M 71.5,56.5 C 72.1667,57.8333 72.8333,59.1667 73.5,60.5C 71.8839,61.9892 69.8839,62.9892 67.5,63.5C 68.0253,64.1924 68.6919,64.6924 69.5,65C 68.8742,65.7504 68.3742,66.5838 68,67.5C 67.6232,66.0577 66.7899,65.0577 65.5,64.5C 65.5,63.8333 65.5,63.1667 65.5,62.5C 65.3691,61.6236 65.7025,60.9569 66.5,60.5C 67.7362,61.2458 69.0695,61.5792 70.5,61.5C 70.6287,59.7839 70.962,58.1172 71.5,56.5 Z"/></g>
<g><path style="opacity:1" fill="#e20000" d="M 25.5,51.5 C 26.1667,51.8333 26.8333,52.1667 27.5,52.5C 26.1667,55.5 26.1667,58.5 27.5,61.5C 27.0623,62.5063 26.3957,62.5063 25.5,61.5C 23.4508,61.2942 23.1175,60.4609 24.5,59C 23.5509,58.3828 22.7175,58.5494 22,59.5C 21.1482,58.4293 20.3149,57.4293 19.5,56.5C 20.209,55.596 21.209,55.2627 22.5,55.5C 23.1515,56.0906 23.8182,56.7573 24.5,57.5C 25.4656,55.604 25.7989,53.604 25.5,51.5 Z"/></g>
<g><path style="opacity:1" fill="#d80000" d="M 38.5,53.5 C 39.2223,54.5511 40.2223,55.2178 41.5,55.5C 41.8333,58.1667 42.1667,60.8333 42.5,63.5C 42.2962,66.5176 41.9629,69.5176 41.5,72.5C 41.5654,72.9382 41.3988,73.2716 41,73.5C 40.2917,72.6195 39.4584,71.9528 38.5,71.5C 38.7822,70.2223 39.4489,69.2223 40.5,68.5C 40.7022,66.0108 40.2022,63.6775 39,61.5C 38.5172,62.448 38.3505,63.448 38.5,64.5C 37.5,63.1667 36.5,63.1667 35.5,64.5C 35.3893,63.8826 35.056,63.3826 34.5,63C 36.1193,62.7645 37.1193,61.9311 37.5,60.5C 38.3686,58.283 38.702,55.9496 38.5,53.5 Z"/></g>
<g><path style="opacity:1" fill="#db0000" d="M 36.5,48.5 C 36.4287,51.3113 35.762,53.978 34.5,56.5C 34.5613,58.6528 35.5613,59.9862 37.5,60.5C 37.1193,61.9311 36.1193,62.7645 34.5,63C 35.056,63.3826 35.3893,63.8826 35.5,64.5C 35.5,66.1667 35.5,67.8333 35.5,69.5C 34.4908,70.9391 34.8241,72.2724 36.5,73.5C 35.675,74.3857 34.675,74.719 33.5,74.5C 33.5,73.1667 33.5,71.8333 33.5,70.5C 33.5,69.1667 33.5,67.8333 33.5,66.5C 32.5,66.5 31.5,66.5 30.5,66.5C 30.5,64.8333 30.5,63.1667 30.5,61.5C 30.5412,59.2547 31.3745,58.5881 33,59.5C 33.1667,58.1667 33.3333,56.8333 33.5,55.5C 33.4146,53.6672 32.7479,52.3339 31.5,51.5C 32.5,50.8333 33.5,50.1667 34.5,49.5C 34.8417,48.6618 35.5084,48.3284 36.5,48.5 Z"/></g>
<g><path style="opacity:1" fill="#ce0001" d="M 19.5,56.5 C 20.3149,57.4293 21.1482,58.4293 22,59.5C 22.7175,58.5494 23.5509,58.3828 24.5,59C 23.1175,60.4609 23.4508,61.2942 25.5,61.5C 25.7845,63.4147 25.4511,65.0813 24.5,66.5C 22.6553,63.9754 20.9886,61.3088 19.5,58.5C 19.5,57.8333 19.5,57.1667 19.5,56.5 Z"/></g>
<g><path style="opacity:1" fill="#c40000" d="M 54.5,58.5 C 54.5,59.1667 54.5,59.8333 54.5,60.5C 54.5,60.8333 54.5,61.1667 54.5,61.5C 53.9779,63.2191 52.9779,64.5525 51.5,65.5C 49.3523,65.3894 49.019,66.056 50.5,67.5C 50.0431,68.2975 49.3764,68.6309 48.5,68.5C 47.9182,66.3313 47.9182,63.998 48.5,61.5C 49.9228,59.4551 51.9228,58.4551 54.5,58.5 Z"/></g>
<g><path style="opacity:1" fill="#b00000" d="M 62.5,56.5 C 62.5,56.8333 62.5,57.1667 62.5,57.5C 63.6843,58.6879 63.6843,59.8545 62.5,61C 63.5266,61.5133 64.5266,62.0133 65.5,62.5C 65.5,63.1667 65.5,63.8333 65.5,64.5C 65.0954,65.5498 64.4288,65.5498 63.5,64.5C 62.7025,64.9569 62.3691,65.6236 62.5,66.5C 60.8235,67.1834 60.1568,68.5168 60.5,70.5C 59.2438,70.5386 58.2438,70.0386 57.5,69C 59.1066,67.951 59.7733,66.451 59.5,64.5C 58.5,64.5 57.5,64.5 56.5,64.5C 56.5,63.1667 56.5,61.8333 56.5,60.5C 57.4916,60.6716 58.1583,60.3382 58.5,59.5C 59.1515,60.0906 59.8182,60.7573 60.5,61.5C 61.6446,60.2243 61.6446,58.891 60.5,57.5C 61.0362,55.8551 61.7029,55.5218 62.5,56.5 Z"/></g>
<g><path style="opacity:1" fill="#b40000" d="M 30.5,61.5 C 30.5,63.1667 30.5,64.8333 30.5,66.5C 31.5,66.5 32.5,66.5 33.5,66.5C 33.5,67.8333 33.5,69.1667 33.5,70.5C 32.7784,70.0825 32.2784,69.4158 32,68.5C 31.51,69.7932 31.3433,71.1266 31.5,72.5C 30.5,72.5 29.5,72.5 28.5,72.5C 28.086,68.9489 28.086,65.2822 28.5,61.5C 28.9377,60.4937 29.6043,60.4937 30.5,61.5 Z"/></g>
<g><path style="opacity:1" fill="#ae0000" d="M 44.5,61.5 C 45.8333,62.8333 47.1667,62.8333 48.5,61.5C 47.9182,63.998 47.9182,66.3313 48.5,68.5C 48.1667,69.1667 47.8333,69.8333 47.5,70.5C 44.5201,69.1707 43.1868,66.8374 43.5,63.5C 43.3284,62.5084 43.6618,61.8417 44.5,61.5 Z"/></g>
<g><path style="opacity:1" fill="#c40600" d="M 75.5,59.5 C 74.6321,61.4021 73.6321,63.2355 72.5,65C 72.7432,65.9021 73.0766,66.7354 73.5,67.5C 72.7777,68.5511 71.7777,69.2178 70.5,69.5C 70.631,68.7611 70.4643,68.0944 70,67.5C 69.3109,68.3567 68.4776,69.0233 67.5,69.5C 66.3049,67.703 64.6382,66.703 62.5,66.5C 62.3691,65.6236 62.7025,64.9569 63.5,64.5C 64.4288,65.5498 65.0954,65.5498 65.5,64.5C 66.7899,65.0577 67.6232,66.0577 68,67.5C 68.3742,66.5838 68.8742,65.7504 69.5,65C 68.6919,64.6924 68.0253,64.1924 67.5,63.5C 69.8839,62.9892 71.8839,61.9892 73.5,60.5C 74.0899,59.234 74.5899,57.9007 75,56.5C 75.4828,57.448 75.6495,58.448 75.5,59.5 Z"/></g>
<g><path style="opacity:1" fill="#cb2a4e" d="M 15.5,57.5 C 16.609,57.5569 17.609,57.8902 18.5,58.5C 18.5,59.1667 18.5,59.8333 18.5,60.5C 19.0736,65.2815 20.0736,69.9481 21.5,74.5C 20.1667,72.5 18.8333,70.5 17.5,68.5C 16.596,67.791 16.2627,66.791 16.5,65.5C 16.4249,62.7938 16.0916,60.1272 15.5,57.5 Z"/></g>
<g><path style="opacity:1" fill="#cf3104" d="M 79.5,59.5 C 80.4237,62.4467 80.4237,65.4467 79.5,68.5C 78.2719,69.3065 77.2719,70.3065 76.5,71.5C 75.8333,70.1667 75.1667,68.8333 74.5,67.5C 75.6499,68.8502 76.3166,68.6836 76.5,67C 76.3399,64.5066 76.3399,62.0066 76.5,59.5C 77.1515,58.9094 77.8182,58.2427 78.5,57.5C 79.2975,57.9569 79.6309,58.6236 79.5,59.5 Z"/></g>
<g><path style="opacity:0.522" fill="#d57958" d="M 81.5,55.5 C 81.8333,55.5 82.1667,55.5 82.5,55.5C 82.6655,59.5138 82.4988,63.5138 82,67.5C 81.3299,70.1739 80.1632,72.5073 78.5,74.5C 78.6287,72.7839 78.962,71.1172 79.5,69.5C 80.2679,68.7375 80.7679,67.7375 81,66.5C 81.4986,62.8484 81.6653,59.1817 81.5,55.5 Z"/></g>
<g><path style="opacity:1" fill="#a00000" d="M 40.5,68.5 C 38.8235,67.8166 38.1568,66.4832 38.5,64.5C 38.3505,63.448 38.5172,62.448 39,61.5C 40.2022,63.6775 40.7022,66.0108 40.5,68.5 Z"/></g>
<g><path style="opacity:1" fill="#ba0000" d="M 42.5,63.5 C 42.8333,63.5 43.1667,63.5 43.5,63.5C 43.1868,66.8374 44.5201,69.1707 47.5,70.5C 48.4959,70.5858 49.3292,70.2524 50,69.5C 50.7385,71.8805 50.2385,73.8805 48.5,75.5C 46.8414,73.5309 45.1747,71.5309 43.5,69.5C 42.6143,70.325 42.281,71.325 42.5,72.5C 42.1667,72.5 41.8333,72.5 41.5,72.5C 41.9629,69.5176 42.2962,66.5176 42.5,63.5 Z"/></g>
<g><path style="opacity:1" fill="#a20000" d="M 54.5,60.5 C 55.1667,60.5 55.8333,60.5 56.5,60.5C 56.5,61.8333 56.5,63.1667 56.5,64.5C 56.1875,67.5716 56.8542,70.405 58.5,73C 58.3613,74.301 57.6946,75.1344 56.5,75.5C 56.1583,74.6618 55.4916,74.3284 54.5,74.5C 54.9555,70.0114 54.9555,65.6781 54.5,61.5C 54.5,61.1667 54.5,60.8333 54.5,60.5 Z"/></g>
<g><path style="opacity:1" fill="#d34601" d="M 75.5,59.5 C 75.8333,59.5 76.1667,59.5 76.5,59.5C 76.3399,62.0066 76.3399,64.5066 76.5,67C 76.3166,68.6836 75.6499,68.8502 74.5,67.5C 74.1667,67.5 73.8333,67.5 73.5,67.5C 73.0766,66.7354 72.7432,65.9021 72.5,65C 73.6321,63.2355 74.6321,61.4021 75.5,59.5 Z"/></g>
<g><path style="opacity:1" fill="#c50000" d="M 38.5,64.5 C 38.1568,66.4832 38.8235,67.8166 40.5,68.5C 39.4489,69.2223 38.7822,70.2223 38.5,71.5C 37.2223,71.2178 36.2223,70.5511 35.5,69.5C 35.5,67.8333 35.5,66.1667 35.5,64.5C 36.5,63.1667 37.5,63.1667 38.5,64.5 Z"/></g>
<g><path style="opacity:1" fill="#be0000" d="M 56.5,64.5 C 57.5,64.5 58.5,64.5 59.5,64.5C 59.7733,66.451 59.1066,67.951 57.5,69C 58.2438,70.0386 59.2438,70.5386 60.5,70.5C 60.5,72.1667 60.5,73.8333 60.5,75.5C 60.5,76.5 60.5,77.5 60.5,78.5C 59.5284,80.4931 58.1951,80.8264 56.5,79.5C 56.5,78.1667 56.5,76.8333 56.5,75.5C 57.6946,75.1344 58.3613,74.301 58.5,73C 56.8542,70.405 56.1875,67.5716 56.5,64.5 Z"/></g>
<g><path style="opacity:1" fill="#7e0000" d="M 62.5,66.5 C 62.5,67.5 62.5,68.5 62.5,69.5C 62.5,71.5 62.5,73.5 62.5,75.5C 61.8333,75.5 61.1667,75.5 60.5,75.5C 60.5,73.8333 60.5,72.1667 60.5,70.5C 60.1568,68.5168 60.8235,67.1834 62.5,66.5 Z"/></g>
<g><path style="opacity:1" fill="#b50000" d="M 62.5,66.5 C 64.6382,66.703 66.3049,67.703 67.5,69.5C 68.4776,69.0233 69.3109,68.3567 70,67.5C 70.4643,68.0944 70.631,68.7611 70.5,69.5C 69.5,69.8333 68.8333,70.5 68.5,71.5C 66.5,70.8333 64.5,70.1667 62.5,69.5C 62.5,68.5 62.5,67.5 62.5,66.5 Z"/></g>
<g><path style="opacity:1" fill="#c41100" d="M 73.5,67.5 C 73.8333,67.5 74.1667,67.5 74.5,67.5C 75.1667,68.8333 75.8333,70.1667 76.5,71.5C 75.5655,72.5676 75.2322,73.901 75.5,75.5C 72.5673,76.4323 70.5673,78.4323 69.5,81.5C 68.4848,80.5398 68.4848,79.3731 69.5,78C 69.1639,76.9701 68.4972,76.4701 67.5,76.5C 68.1175,74.7708 69.1175,73.2708 70.5,72C 69.9056,71.5357 69.2389,71.369 68.5,71.5C 68.8333,70.5 69.5,69.8333 70.5,69.5C 71.7777,69.2178 72.7777,68.5511 73.5,67.5 Z"/></g>
<g><path style="opacity:1" fill="#c0052f" d="M 18.5,60.5 C 20.7982,65.0067 22.7982,69.6734 24.5,74.5C 25.6005,75.6049 26.2671,76.9382 26.5,78.5C 25.8333,78.5 25.1667,78.5 24.5,78.5C 23.0256,77.5637 22.0256,76.2303 21.5,74.5C 20.0736,69.9481 19.0736,65.2815 18.5,60.5 Z"/></g>
<g><path style="opacity:1" fill="#d20000" d="M 25.5,61.5 C 26.3957,62.5063 27.0623,62.5063 27.5,61.5C 27.8333,61.5 28.1667,61.5 28.5,61.5C 28.086,65.2822 28.086,68.9489 28.5,72.5C 28.4326,73.9587 28.7659,75.2921 29.5,76.5C 29.44,77.0431 29.1067,77.3764 28.5,77.5C 27.8243,76.3984 27.1577,75.3984 26.5,74.5C 25.2264,72.0075 24.5597,69.3408 24.5,66.5C 25.4511,65.0813 25.7845,63.4147 25.5,61.5 Z"/></g>
<g><path style="opacity:1" fill="#cd0000" d="M 33.5,70.5 C 33.5,71.8333 33.5,73.1667 33.5,74.5C 33.1667,75.1667 32.8333,75.8333 32.5,76.5C 31.5,75.1667 30.5,75.1667 29.5,76.5C 28.7659,75.2921 28.4326,73.9587 28.5,72.5C 29.5,72.5 30.5,72.5 31.5,72.5C 31.3433,71.1266 31.51,69.7932 32,68.5C 32.2784,69.4158 32.7784,70.0825 33.5,70.5 Z"/></g>
<g><path style="opacity:1" fill="#b30000" d="M 54.5,61.5 C 54.9555,65.6781 54.9555,70.0114 54.5,74.5C 54.631,75.2389 54.4643,75.9056 54,76.5C 53.1785,73.8832 52.6785,71.2165 52.5,68.5C 51.8902,67.609 51.5569,66.609 51.5,65.5C 52.9779,64.5525 53.9779,63.2191 54.5,61.5 Z"/></g>
<g><path style="opacity:1" fill="#b9000d" d="M 18.5,58.5 C 18.8333,58.5 19.1667,58.5 19.5,58.5C 20.9886,61.3088 22.6553,63.9754 24.5,66.5C 24.5597,69.3408 25.2264,72.0075 26.5,74.5C 25.8333,74.5 25.1667,74.5 24.5,74.5C 22.7982,69.6734 20.7982,65.0067 18.5,60.5C 18.5,59.8333 18.5,59.1667 18.5,58.5 Z"/></g>
<g><path style="opacity:1" fill="#cc0000" d="M 35.5,69.5 C 36.2223,70.5511 37.2223,71.2178 38.5,71.5C 38.1961,72.1499 37.8627,72.8165 37.5,73.5C 37.8457,74.6956 38.3457,74.6956 39,73.5C 39.4955,75.4727 39.6621,77.4727 39.5,79.5C 38.8386,78.2825 38.1719,76.9492 37.5,75.5C 36.4777,75.8555 35.811,76.5222 35.5,77.5C 34.609,76.8902 33.609,76.5569 32.5,76.5C 32.8333,75.8333 33.1667,75.1667 33.5,74.5C 34.675,74.719 35.675,74.3857 36.5,73.5C 34.8241,72.2724 34.4908,70.9391 35.5,69.5 Z"/></g>
<g><path style="opacity:1" fill="#bd0000" d="M 38.5,71.5 C 39.4584,71.9528 40.2917,72.6195 41,73.5C 41.3988,73.2716 41.5654,72.9382 41.5,72.5C 41.8333,72.5 42.1667,72.5 42.5,72.5C 44.9341,73.5201 44.9341,74.8534 42.5,76.5C 41.8076,75.9747 41.3076,75.3081 41,74.5C 40.5065,76.1341 40.3398,77.8008 40.5,79.5C 40.1667,79.5 39.8333,79.5 39.5,79.5C 39.6621,77.4727 39.4955,75.4727 39,73.5C 38.3457,74.6956 37.8457,74.6956 37.5,73.5C 37.8627,72.8165 38.1961,72.1499 38.5,71.5 Z"/></g>
<g><path style="opacity:1" fill="#aa0000" d="M 48.5,75.5 C 48.1667,75.5 47.8333,75.5 47.5,75.5C 46.2905,75.9321 45.2905,76.5987 44.5,77.5C 43.2101,78.0577 42.3768,79.0577 42,80.5C 41.6174,79.944 41.1174,79.6107 40.5,79.5C 40.3398,77.8008 40.5065,76.1341 41,74.5C 41.3076,75.3081 41.8076,75.9747 42.5,76.5C 44.9341,74.8534 44.9341,73.5201 42.5,72.5C 42.281,71.325 42.6143,70.325 43.5,69.5C 45.1747,71.5309 46.8414,73.5309 48.5,75.5 Z"/></g>
<g><path style="opacity:1" fill="#c20000" d="M 62.5,69.5 C 64.5,70.1667 66.5,70.8333 68.5,71.5C 69.2389,71.369 69.9056,71.5357 70.5,72C 69.1175,73.2708 68.1175,74.7708 67.5,76.5C 67.1667,76.5 66.8333,76.5 66.5,76.5C 65.7081,74.2552 64.3747,73.9219 62.5,75.5C 62.5,73.5 62.5,71.5 62.5,69.5 Z"/></g>
<g><path style="opacity:1" fill="#cf5b25" d="M 79.5,68.5 C 79.5,68.8333 79.5,69.1667 79.5,69.5C 78.962,71.1172 78.6287,72.7839 78.5,74.5C 77.3429,78.9757 75.0095,82.6423 71.5,85.5C 73.6443,82.1808 74.9776,78.8475 75.5,75.5C 75.2322,73.901 75.5655,72.5676 76.5,71.5C 77.2719,70.3065 78.2719,69.3065 79.5,68.5 Z"/></g>
<g><path style="opacity:0.867" fill="#ce7483" d="M 17.5,68.5 C 18.8333,70.5 20.1667,72.5 21.5,74.5C 22.0256,76.2303 23.0256,77.5637 24.5,78.5C 26.1933,81.1841 27.86,83.8508 29.5,86.5C 23.5052,81.837 19.5052,75.837 17.5,68.5 Z"/></g>
<g><path style="opacity:1" fill="#c30000" d="M 24.5,74.5 C 25.1667,74.5 25.8333,74.5 26.5,74.5C 27.1577,75.3984 27.8243,76.3984 28.5,77.5C 29.1067,77.3764 29.44,77.0431 29.5,76.5C 30.5,75.1667 31.5,75.1667 32.5,76.5C 33.609,76.5569 34.609,76.8902 35.5,77.5C 35.5,77.8333 35.5,78.1667 35.5,78.5C 34.5,78.8333 33.8333,79.5 33.5,80.5C 32.7784,80.9175 32.2784,81.5842 32,82.5C 31.51,81.2068 31.3433,79.8734 31.5,78.5C 30.1667,78.5 28.8333,78.5 27.5,78.5C 27.1667,78.5 26.8333,78.5 26.5,78.5C 26.2671,76.9382 25.6005,75.6049 24.5,74.5 Z"/></g>
<g><path style="opacity:1" fill="#a20000" d="M 51.5,65.5 C 51.5569,66.609 51.8902,67.609 52.5,68.5C 51.2248,71.3962 51.2248,74.3962 52.5,77.5C 51.2921,78.2341 49.9587,78.5674 48.5,78.5C 48.4431,77.391 48.1098,76.391 47.5,75.5C 47.8333,75.5 48.1667,75.5 48.5,75.5C 50.2385,73.8805 50.7385,71.8805 50,69.5C 49.3292,70.2524 48.4959,70.5858 47.5,70.5C 47.8333,69.8333 48.1667,69.1667 48.5,68.5C 49.3764,68.6309 50.0431,68.2975 50.5,67.5C 49.019,66.056 49.3523,65.3894 51.5,65.5 Z"/></g>
<g><path style="opacity:1" fill="#c50800" d="M 66.5,76.5 C 66.8333,76.5 67.1667,76.5 67.5,76.5C 68.4972,76.4701 69.1639,76.9701 69.5,78C 68.4848,79.3731 68.4848,80.5398 69.5,81.5C 70.0431,81.56 70.3764,81.8933 70.5,82.5C 69.7261,83.7112 68.8928,83.7112 68,82.5C 67.5357,83.0944 67.369,83.7611 67.5,84.5C 66.6091,83.7387 65.9424,82.7387 65.5,81.5C 66.3256,80.549 66.4922,79.549 66,78.5C 64.4189,81.0311 63.2523,83.6977 62.5,86.5C 62.631,87.2389 62.4643,87.9056 62,88.5C 61.8019,86.6183 61.3019,84.9516 60.5,83.5C 60.8333,82.8333 61.1667,82.1667 61.5,81.5C 62.4956,79.1766 64.1623,77.5099 66.5,76.5 Z"/></g>
<g><path style="opacity:1" fill="#950000" d="M 52.5,68.5 C 52.6785,71.2165 53.1785,73.8832 54,76.5C 54.4643,75.9056 54.631,75.2389 54.5,74.5C 55.4916,74.3284 56.1583,74.6618 56.5,75.5C 56.5,76.8333 56.5,78.1667 56.5,79.5C 55.791,80.404 54.791,80.7373 53.5,80.5C 52.8902,79.609 52.5569,78.609 52.5,77.5C 51.2248,74.3962 51.2248,71.3962 52.5,68.5 Z"/></g>
<g><path style="opacity:1" fill="#b50000" d="M 66.5,76.5 C 64.1623,77.5099 62.4956,79.1766 61.5,81.5C 61.4431,80.391 61.1098,79.391 60.5,78.5C 60.5,77.5 60.5,76.5 60.5,75.5C 61.1667,75.5 61.8333,75.5 62.5,75.5C 64.3747,73.9219 65.7081,74.2552 66.5,76.5 Z"/></g>
<g><path style="opacity:1" fill="#9e0000" d="M 35.5,78.5 C 36.2389,78.369 36.9056,78.5357 37.5,79C 36.8828,81.277 36.2161,83.4437 35.5,85.5C 34.0687,84.2196 33.4021,82.5529 33.5,80.5C 33.8333,79.5 34.5,78.8333 35.5,78.5 Z"/></g>
<g><path style="opacity:1" fill="#c63b01" d="M 75.5,75.5 C 74.9776,78.8475 73.6443,82.1808 71.5,85.5C 70.1092,87.8903 68.1092,89.5569 65.5,90.5C 65.7329,88.9382 66.3995,87.6049 67.5,86.5C 68.8333,85.8333 68.8333,85.1667 67.5,84.5C 67.369,83.7611 67.5357,83.0944 68,82.5C 68.8928,83.7112 69.7261,83.7112 70.5,82.5C 70.3764,81.8933 70.0431,81.56 69.5,81.5C 70.5673,78.4323 72.5673,76.4323 75.5,75.5 Z"/></g>
<g><path style="opacity:1" fill="#b91b31" d="M 24.5,78.5 C 25.1667,78.5 25.8333,78.5 26.5,78.5C 26.8333,78.5 27.1667,78.5 27.5,78.5C 29.8026,84.4667 33.8026,88.8001 39.5,91.5C 39.5,91.8333 39.5,92.1667 39.5,92.5C 35.4945,91.5023 32.1612,89.5023 29.5,86.5C 27.86,83.8508 26.1933,81.1841 24.5,78.5 Z"/></g>
<g><path style="opacity:1" fill="#b80000" d="M 39.5,79.5 C 39.8333,79.5 40.1667,79.5 40.5,79.5C 41.1174,79.6107 41.6174,79.944 42,80.5C 42.3768,79.0577 43.2101,78.0577 44.5,77.5C 44.5,77.8333 44.5,78.1667 44.5,78.5C 44.5,79.5 44.5,80.5 44.5,81.5C 42.8561,81.7135 41.3561,81.3802 40,80.5C 39.2938,82.9552 40.1271,84.6219 42.5,85.5C 39.9213,85.8652 37.588,85.8652 35.5,85.5C 36.2161,83.4437 36.8828,81.277 37.5,79C 36.9056,78.5357 36.2389,78.369 35.5,78.5C 35.5,78.1667 35.5,77.8333 35.5,77.5C 35.811,76.5222 36.4777,75.8555 37.5,75.5C 38.1719,76.9492 38.8386,78.2825 39.5,79.5 Z"/></g>
<g><path style="opacity:1" fill="#860000" d="M 47.5,75.5 C 48.1098,76.391 48.4431,77.391 48.5,78.5C 49.2341,79.7079 49.5674,81.0413 49.5,82.5C 48.1667,82.5 46.8333,82.5 45.5,82.5C 45.5394,81.4168 45.8728,80.4168 46.5,79.5C 46.0431,78.7025 45.3764,78.3691 44.5,78.5C 44.5,78.1667 44.5,77.8333 44.5,77.5C 45.2905,76.5987 46.2905,75.9321 47.5,75.5 Z"/></g>
<g><path style="opacity:1" fill="#bd0000" d="M 60.5,78.5 C 61.1098,79.391 61.4431,80.391 61.5,81.5C 61.1667,82.1667 60.8333,82.8333 60.5,83.5C 59.391,83.5569 58.391,83.8902 57.5,84.5C 57.5654,84.0618 57.3988,83.7284 57,83.5C 56.3918,85.0664 55.5585,86.3998 54.5,87.5C 53.6586,85.6208 53.3253,83.6208 53.5,81.5C 49.5,81.1667 49.5,80.8333 53.5,80.5C 54.791,80.7373 55.791,80.404 56.5,79.5C 58.1951,80.8264 59.5284,80.4931 60.5,78.5 Z"/></g>
<g><path style="opacity:1" fill="#a60000" d="M 44.5,78.5 C 45.3764,78.3691 46.0431,78.7025 46.5,79.5C 45.8728,80.4168 45.5394,81.4168 45.5,82.5C 44.1667,83.8333 44.1667,85.1667 45.5,86.5C 44.375,87.3478 44.375,88.3478 45.5,89.5C 44.3753,91.8384 43.3753,91.5051 42.5,88.5C 42.5,87.5 42.5,86.5 42.5,85.5C 40.1271,84.6219 39.2938,82.9552 40,80.5C 41.3561,81.3802 42.8561,81.7135 44.5,81.5C 44.5,80.5 44.5,79.5 44.5,78.5 Z"/></g>
<g><path style="opacity:1" fill="#ad0000" d="M 52.5,77.5 C 52.5569,78.609 52.8902,79.609 53.5,80.5C 49.5,80.8333 49.5,81.1667 53.5,81.5C 53.3253,83.6208 53.6586,85.6208 54.5,87.5C 54.1667,88.1667 53.8333,88.8333 53.5,89.5C 52.6252,87.4319 51.4585,85.4319 50,83.5C 49.5172,84.448 49.3505,85.448 49.5,86.5C 48.1667,86.5 46.8333,86.5 45.5,86.5C 44.1667,85.1667 44.1667,83.8333 45.5,82.5C 46.8333,82.5 48.1667,82.5 49.5,82.5C 49.5674,81.0413 49.2341,79.7079 48.5,78.5C 49.9587,78.5674 51.2921,78.2341 52.5,77.5 Z"/></g>
<g><path style="opacity:1" fill="#b30100" d="M 67.5,84.5 C 68.8333,85.1667 68.8333,85.8333 67.5,86.5C 65.9008,85.438 64.2341,85.438 62.5,86.5C 63.2523,83.6977 64.4189,81.0311 66,78.5C 66.4922,79.549 66.3256,80.549 65.5,81.5C 65.9424,82.7387 66.6091,83.7387 67.5,84.5 Z"/></g>
<g><path style="opacity:1" fill="#b80002" d="M 27.5,78.5 C 28.8333,78.5 30.1667,78.5 31.5,78.5C 31.3433,79.8734 31.51,81.2068 32,82.5C 32.2784,81.5842 32.7784,80.9175 33.5,80.5C 33.4021,82.5529 34.0687,84.2196 35.5,85.5C 37.588,85.8652 39.9213,85.8652 42.5,85.5C 42.5,86.5 42.5,87.5 42.5,88.5C 38.5484,86.6963 37.5484,87.6963 39.5,91.5C 33.8026,88.8001 29.8026,84.4667 27.5,78.5 Z"/></g>
<g><path style="opacity:1" fill="#bf0000" d="M 53.5,89.5 C 52.8333,90.1667 52.1667,90.8333 51.5,91.5C 51.1583,92.3382 50.4916,92.6716 49.5,92.5C 48.9522,90.4677 47.6188,89.4677 45.5,89.5C 44.375,88.3478 44.375,87.3478 45.5,86.5C 46.8333,86.5 48.1667,86.5 49.5,86.5C 49.3505,85.448 49.5172,84.448 50,83.5C 51.4585,85.4319 52.6252,87.4319 53.5,89.5 Z"/></g>
<g><path style="opacity:1" fill="#b60200" d="M 60.5,83.5 C 61.3019,84.9516 61.8019,86.6183 62,88.5C 62.4643,87.9056 62.631,87.2389 62.5,86.5C 64.2341,85.438 65.9008,85.438 67.5,86.5C 66.3995,87.6049 65.7329,88.9382 65.5,90.5C 61.8648,91.1143 58.1981,91.4476 54.5,91.5C 55.8721,89.9113 57.5388,88.5779 59.5,87.5C 58.3881,86.7348 57.7214,85.7348 57.5,84.5C 58.391,83.8902 59.391,83.5569 60.5,83.5 Z"/></g>
<g><path style="opacity:1" fill="#c30000" d="M 57.5,84.5 C 57.7214,85.7348 58.3881,86.7348 59.5,87.5C 57.5388,88.5779 55.8721,89.9113 54.5,91.5C 53.5,91.5 52.5,91.5 51.5,91.5C 52.1667,90.8333 52.8333,90.1667 53.5,89.5C 53.8333,88.8333 54.1667,88.1667 54.5,87.5C 55.5585,86.3998 56.3918,85.0664 57,83.5C 57.3988,83.7284 57.5654,84.0618 57.5,84.5 Z"/></g>
<g><path style="opacity:1" fill="#b10000" d="M 42.5,88.5 C 43.3753,91.5051 44.3753,91.8384 45.5,89.5C 47.6188,89.4677 48.9522,90.4677 49.5,92.5C 46.1667,92.5 42.8333,92.5 39.5,92.5C 39.5,92.1667 39.5,91.8333 39.5,91.5C 37.5484,87.6963 38.5484,86.6963 42.5,88.5 Z"/></g>
<g><path style="opacity:0.949" fill="#940404" d="M 65.5,90.5 C 64.158,91.793 62.4913,92.6264 60.5,93C 53.3209,93.8213 46.3209,93.6546 39.5,92.5C 42.8333,92.5 46.1667,92.5 49.5,92.5C 50.4916,92.6716 51.1583,92.3382 51.5,91.5C 52.5,91.5 53.5,91.5 54.5,91.5C 58.1981,91.4476 61.8648,91.1143 65.5,90.5 Z"/></g>
</svg>
