<?xml version="1.0" encoding="UTF-8"?>
<!DOCTYPE svg PUBLIC "-//W3C//DTD SVG 1.1//EN" "http://www.w3.org/Graphics/SVG/1.1/DTD/svg11.dtd">
<svg xmlns="http://www.w3.org/2000/svg" version="1.1" width="512px" height="512px" style="shape-rendering:geometricPrecision; text-rendering:geometricPrecision; image-rendering:optimizeQuality; fill-rule:evenodd; clip-rule:evenodd" xmlns:xlink="http://www.w3.org/1999/xlink">
<g><path style="opacity:0.991" fill="#fefffe" d="M 511.5,113.5 C 511.5,208.167 511.5,302.833 511.5,397.5C 506.915,412.582 496.915,422.082 481.5,426C 360.167,426.667 238.833,426.667 117.5,426C 112.475,424.311 108.641,421.144 106,416.5C 70.4773,364.767 34.9773,313.101 -0.5,261.5C -0.5,257.5 -0.5,253.5 -0.5,249.5C 36.5242,194.961 74.1908,140.794 112.5,87C 114.087,86.1376 115.754,85.4709 117.5,85C 238.833,84.3333 360.167,84.3333 481.5,85C 496.915,88.9176 506.915,98.4176 511.5,113.5 Z M 271.5,159.5 C 277.563,158.838 283.23,160.004 288.5,163C 309.347,184.014 330.347,204.847 351.5,225.5C 372.653,204.847 393.653,184.014 414.5,163C 429.091,155.972 439.591,159.806 446,174.5C 447.301,180.922 446.301,186.922 443,192.5C 421.986,213.347 401.153,234.347 380.5,255.5C 401.153,276.653 421.986,297.653 443,318.5C 449.87,331.737 447.036,342.237 434.5,350C 427.532,352.37 420.865,351.703 414.5,348C 393.653,326.986 372.653,306.153 351.5,285.5C 330.347,306.153 309.347,326.986 288.5,348C 270.774,355.304 259.774,349.637 255.5,331C 256.004,326.517 257.504,322.351 260,318.5C 281.014,297.653 301.847,276.653 322.5,255.5C 301.847,234.347 281.014,213.347 260,192.5C 252.84,177.475 256.673,166.475 271.5,159.5 Z"/></g>
</svg>
