<?xml version="1.0" encoding="UTF-8"?>
<!DOCTYPE svg PUBLIC "-//W3C//DTD SVG 1.1//EN" "http://www.w3.org/Graphics/SVG/1.1/DTD/svg11.dtd">
<svg xmlns="http://www.w3.org/2000/svg" version="1.1" width="100px" height="100px" style="shape-rendering:geometricPrecision; text-rendering:geometricPrecision; image-rendering:optimizeQuality; fill-rule:evenodd; clip-rule:evenodd" xmlns:xlink="http://www.w3.org/1999/xlink">
<g><path style="opacity:0.952" fill="#000000" d="M 39.5,-0.5 C 46.1667,-0.5 52.8333,-0.5 59.5,-0.5C 61.9862,0.662433 64.4862,1.99577 67,3.5C 67.6667,7.83333 67.6667,12.1667 67,16.5C 65.9887,17.3366 64.8221,17.67 63.5,17.5C 63.8841,15.3352 63.2174,13.6685 61.5,12.5C 59.7826,13.6685 59.1159,15.3352 59.5,17.5C 52.8333,17.5 46.1667,17.5 39.5,17.5C 39.8841,15.3352 39.2174,13.6685 37.5,12.5C 35.7826,13.6685 35.1159,15.3352 35.5,17.5C 34.1779,17.67 33.0113,17.3366 32,16.5C 31.3333,12.1667 31.3333,7.83333 32,3.5C 34.5138,1.99577 37.0138,0.662433 39.5,-0.5 Z"/></g>
<g><path style="opacity:0.939" fill="#000000" d="M 26.5,6.5 C 27.2487,10.0536 28.082,13.7203 29,17.5C 30.7342,19.4506 32.9009,20.4506 35.5,20.5C 35.0508,22.9775 35.7175,24.9775 37.5,26.5C 39.2174,25.3315 39.8841,23.6648 39.5,21.5C 46.1667,21.5 52.8333,21.5 59.5,21.5C 59.1159,23.6648 59.7826,25.3315 61.5,26.5C 63.2825,24.9775 63.9492,22.9775 63.5,20.5C 66.0991,20.4506 68.2658,19.4506 70,17.5C 71.0734,13.9164 71.7401,10.2498 72,6.5C 76.2708,10.7034 79.2708,15.7034 81,21.5C 81.8203,40.5436 81.6537,59.5436 80.5,78.5C 77.2326,79.9916 75.0659,78.9916 74,75.5C 73.3333,72.8333 72.6667,70.1667 72,67.5C 71.6667,54.8333 71.3333,42.1667 71,29.5C 70,28.1667 69,28.1667 68,29.5C 67.5045,31.4727 67.3379,33.4727 67.5,35.5C 61.5113,37.4923 55.5113,39.4923 49.5,41.5C 43.6326,39.9013 37.9659,37.7346 32.5,35C 31.7511,33.2663 31.2511,31.433 31,29.5C 30.2825,28.5494 29.4491,28.3828 28.5,29C 27.6766,41.758 27.1766,54.5914 27,67.5C 26.2944,71.3253 25.1277,74.9919 23.5,78.5C 21.8333,79.8333 20.1667,79.8333 18.5,78.5C 17.3463,59.5436 17.1797,40.5436 18,21.5C 19.8191,15.8548 22.6524,10.8548 26.5,6.5 Z"/></g>
<g><path style="opacity:0.875" fill="#000000" d="M 12.5,35.5 C 13.6593,46.6591 13.8259,57.9924 13,69.5C 8.27127,66.2058 6.43793,61.7058 7.5,56C 7.53163,48.708 9.1983,41.8747 12.5,35.5 Z"/></g>
<g><path style="opacity:0.879" fill="#000000" d="M 85.5,35.5 C 91.0468,43.9744 92.8801,53.3077 91,63.5C 89.7101,65.792 88.0435,67.792 86,69.5C 85.5001,58.1716 85.3335,46.8382 85.5,35.5 Z"/></g>
<g><path style="opacity:0.76" fill="#000000" d="M 31.5,37.5 C 35.9576,39.2288 40.2909,41.2288 44.5,43.5C 40.4097,45.6283 36.243,47.6283 32,49.5C 31.5012,45.5138 31.3345,41.5138 31.5,37.5 Z"/></g>
<g><path style="opacity:0.78" fill="#000000" d="M 66.5,37.5 C 67.6453,41.3112 67.8119,45.3112 67,49.5C 62.7791,47.6397 58.6124,45.6397 54.5,43.5C 58.6815,41.6743 62.6815,39.6743 66.5,37.5 Z"/></g>
<g><path style="opacity:0.822" fill="#000000" d="M 46.5,45.5 C 53.9331,46.4221 60.9331,48.7555 67.5,52.5C 60.9514,56.407 53.9514,58.5737 46.5,59C 41.6127,56.7232 36.6127,54.7232 31.5,53C 36.525,50.3911 41.525,47.8911 46.5,45.5 Z"/></g>
<g><path style="opacity:0.71" fill="#000000" d="M 30.5,55.5 C 35.4077,56.9543 40.0743,58.9543 44.5,61.5C 40.3171,63.7571 35.9838,65.7571 31.5,67.5C 30.5091,63.5546 30.1758,59.5546 30.5,55.5 Z"/></g>
<g><path style="opacity:0.708" fill="#000000" d="M 66.5,55.5 C 67.7943,57.0478 68.4609,59.0478 68.5,61.5C 68.1667,63.5 67.8333,65.5 67.5,67.5C 63.0162,65.7571 58.6829,63.7571 54.5,61.5C 58.5608,59.4696 62.5608,57.4696 66.5,55.5 Z"/></g>
<g><path style="opacity:0.922" fill="#000000" d="M 47.5,63.5 C 55.0416,65.2919 62.375,67.7919 69.5,71C 70.27,73.5669 71.27,76.0669 72.5,78.5C 57.1667,79.8333 41.8333,79.8333 26.5,78.5C 27.73,76.0669 28.73,73.5669 29.5,71C 35.7039,68.7236 41.7039,66.2236 47.5,63.5 Z"/></g>
<g><path style="opacity:0.985" fill="#000000" d="M 35.5,99.5 C 28.1667,99.5 20.8333,99.5 13.5,99.5C 11.4656,95.1236 10.9656,90.4569 12,85.5C 12.5,85 13,84.5 13.5,84C 20.8258,83.5003 28.1591,83.3337 35.5,83.5C 35.5,88.8333 35.5,94.1667 35.5,99.5 Z"/></g>
<g><path style="opacity:1" fill="#000000" d="M 59.5,99.5 C 52.8333,99.5 46.1667,99.5 39.5,99.5C 39.5,94.1667 39.5,88.8333 39.5,83.5C 46.1667,83.5 52.8333,83.5 59.5,83.5C 59.5,88.8333 59.5,94.1667 59.5,99.5 Z"/></g>
<g><path style="opacity:0.985" fill="#000000" d="M 85.5,99.5 C 78.1667,99.5 70.8333,99.5 63.5,99.5C 63.5,94.1667 63.5,88.8333 63.5,83.5C 70.8409,83.3337 78.1742,83.5003 85.5,84C 86,84.5 86.5,85 87,85.5C 88.0344,90.4569 87.5344,95.1236 85.5,99.5 Z"/></g>
</svg>
