<?xml version="1.0" encoding="UTF-8"?>
<!DOCTYPE svg PUBLIC "-//W3C//DTD SVG 1.1//EN" "http://www.w3.org/Graphics/SVG/1.1/DTD/svg11.dtd">
<svg xmlns="http://www.w3.org/2000/svg" version="1.1" width="100px" height="100px" style="shape-rendering:geometricPrecision; text-rendering:geometricPrecision; image-rendering:optimizeQuality; fill-rule:evenodd; clip-rule:evenodd" xmlns:xlink="http://www.w3.org/1999/xlink">
<g><path style="opacity:1" fill="#cf895d" d="M 60.5,9.5 C 60.5,10.1667 60.5,10.8333 60.5,11.5C 58.7639,12.0457 56.7639,12.0457 54.5,11.5C 53.548,10.467 53.548,9.30038 54.5,8C 54.1639,6.97008 53.4972,6.47008 52.5,6.5C 52.811,5.52216 53.4777,4.85549 54.5,4.5C 56.9408,5.70899 58.9408,7.37565 60.5,9.5 Z"/></g>
<g><path style="opacity:1" fill="#835c43" d="M 52.5,6.5 C 53.4972,6.47008 54.1639,6.97008 54.5,8C 53.548,9.30038 53.548,10.467 54.5,11.5C 56.7639,12.0457 58.7639,12.0457 60.5,11.5C 61.7834,14.3776 60.9501,15.0443 58,13.5C 56.9701,13.8361 56.4701,14.5028 56.5,15.5C 54.9382,15.2671 53.6049,14.6005 52.5,13.5C 51.4574,11.1481 50.1241,10.9815 48.5,13C 52.2229,13.4342 52.3895,14.2676 49,15.5C 47.6898,14.8699 46.8565,13.8699 46.5,12.5C 47.4412,10.5336 48.4412,8.53359 49.5,6.5C 50.4246,5.43764 51.4246,5.43764 52.5,6.5 Z"/></g>
<g><path style="opacity:1" fill="#626605" d="M 52.5,13.5 C 52.8185,17.1357 53.9852,20.469 56,23.5C 56.6015,26.2205 56.4349,28.8872 55.5,31.5C 55.5,31.8333 55.5,32.1667 55.5,32.5C 54.8333,31.5 54.1667,30.5 53.5,29.5C 53.2172,28.7109 52.7172,28.0442 52,27.5C 49.4246,31.3837 47.5913,30.8837 46.5,26C 47.2335,24.2341 47.5668,22.4008 47.5,20.5C 47.6126,17.9512 46.9459,15.6179 45.5,13.5C 45.6236,12.8933 45.9569,12.56 46.5,12.5C 46.8565,13.8699 47.6898,14.8699 49,15.5C 52.3895,14.2676 52.2229,13.4342 48.5,13C 50.1241,10.9815 51.4574,11.1481 52.5,13.5 Z"/></g>
<g><path style="opacity:1" fill="#868e03" d="M 52.5,13.5 C 53.6049,14.6005 54.9382,15.2671 56.5,15.5C 56.1961,16.1499 55.8627,16.8165 55.5,17.5C 57.9008,21.6576 58.5675,25.991 57.5,30.5C 56.8333,30.8333 56.1667,31.1667 55.5,31.5C 56.4349,28.8872 56.6015,26.2205 56,23.5C 53.9852,20.469 52.8185,17.1357 52.5,13.5 Z"/></g>
<g><path style="opacity:1" fill="#d2b414" d="M 47.5,20.5 C 47.5668,22.4008 47.2335,24.2341 46.5,26C 47.5913,30.8837 49.4246,31.3837 52,27.5C 52.7172,28.0442 53.2172,28.7109 53.5,29.5C 52.9421,35.1803 52.2755,40.8469 51.5,46.5C 51.1667,46.5 50.8333,46.5 50.5,46.5C 50.2792,43.9028 49.7792,43.9028 49,46.5C 48.6401,44.3921 47.9734,42.3921 47,40.5C 46.7206,43.4568 45.8873,46.1234 44.5,48.5C 43.8333,48.5 43.1667,48.5 42.5,48.5C 42.7364,44.0065 42.7364,39.3398 42.5,34.5C 40.9178,36.0147 39.5845,37.6814 38.5,39.5C 38.6287,37.7839 38.962,36.1172 39.5,34.5C 41.6782,29.4675 44.3449,24.8009 47.5,20.5 Z"/></g>
<g><path style="opacity:1" fill="#fee268" d="M 83.5,24.5 C 85.7458,26.6489 87.2458,29.3156 88,32.5C 88.6667,40.1667 88.6667,47.8333 88,55.5C 87.7679,56.7375 87.2679,57.7375 86.5,58.5C 86.8134,55.7531 86.48,53.0865 85.5,50.5C 84.8333,50.8333 84.1667,51.1667 83.5,51.5C 81.4818,56.5862 79.3152,61.5862 77,66.5C 75.1643,69.3788 72.6643,70.8788 69.5,71C 74.9865,65.5245 78.4865,59.0245 80,51.5C 80.3455,44.5479 80.5122,37.7146 80.5,31C 78.4376,29.4675 77.1043,27.4675 76.5,25C 79.3174,23.0165 81.1507,23.8498 82,27.5C 82.2321,26.2625 82.7321,25.2625 83.5,24.5 Z"/></g>
<g><path style="opacity:1" fill="#8f5700" d="M 53.5,29.5 C 54.1667,30.5 54.8333,31.5 55.5,32.5C 55.06,41.5889 53.06,50.2556 49.5,58.5C 48.9033,58.2648 48.5699,57.7648 48.5,57C 50.0458,53.649 51.0458,50.149 51.5,46.5C 52.2755,40.8469 52.9421,35.1803 53.5,29.5 Z"/></g>
<g><path style="opacity:1" fill="#d4b11c" d="M 57.5,30.5 C 58.4558,43.8178 54.7891,55.4844 46.5,65.5C 46.5,64.8333 46.1667,64.5 45.5,64.5C 46.8333,62.5 48.1667,60.5 49.5,58.5C 53.06,50.2556 55.06,41.5889 55.5,32.5C 55.5,32.1667 55.5,31.8333 55.5,31.5C 56.1667,31.1667 56.8333,30.8333 57.5,30.5 Z"/></g>
<g><path style="opacity:1" fill="#f1d45f" d="M 39.5,34.5 C 38.962,36.1172 38.6287,37.7839 38.5,39.5C 38.2625,42.2116 38.2625,44.7116 38.5,47C 34.6787,50.6553 31.012,54.4887 27.5,58.5C 23.5417,61.9135 19.2084,64.5802 14.5,66.5C 24.3576,56.9815 32.691,46.3148 39.5,34.5 Z"/></g>
<g><path style="opacity:1" fill="#f5cd1f" d="M 42.5,48.5 C 39.3907,55.5369 34.7241,61.3702 28.5,66C 24.5,68.3333 20.5,70.6667 16.5,73C 14.6707,74.1133 13.8374,75.6133 14,77.5C 22.1277,73.8175 29.961,68.9842 37.5,63C 41.8557,59.1225 44.189,54.2891 44.5,48.5C 45.8873,46.1234 46.7206,43.4568 47,40.5C 47.9734,42.3921 48.6401,44.3921 49,46.5C 49.7792,43.9028 50.2792,43.9028 50.5,46.5C 49.0338,50.7351 47.8671,55.0684 47,59.5C 44.9579,62.9405 42.4579,65.9405 39.5,68.5C 39.9195,66.9064 40.5862,65.4064 41.5,64C 41.1667,63.5 40.8333,63 40.5,62.5C 35.0133,67.0758 29.3467,71.4091 23.5,75.5C 24,75.8333 24.5,76.1667 25,76.5C 28.0345,74.8766 31.2012,73.5433 34.5,72.5C 30.4729,75.8604 26.8062,79.5271 23.5,83.5C 20.8127,83.6641 18.146,83.4974 15.5,83C 13.3048,79.6317 11.3048,76.1317 9.5,72.5C 9.77171,69.2678 11.4384,67.2678 14.5,66.5C 19.2084,64.5802 23.5417,61.9135 27.5,58.5C 31.012,54.4887 34.6787,50.6553 38.5,47C 38.2625,44.7116 38.2625,42.2116 38.5,39.5C 39.5845,37.6814 40.9178,36.0147 42.5,34.5C 42.7364,39.3398 42.7364,44.0065 42.5,48.5 Z"/></g>
<g><path style="opacity:1" fill="#f6d763" d="M 42.5,48.5 C 43.1667,48.5 43.8333,48.5 44.5,48.5C 44.189,54.2891 41.8557,59.1225 37.5,63C 29.961,68.9842 22.1277,73.8175 14,77.5C 13.8374,75.6133 14.6707,74.1133 16.5,73C 20.5,70.6667 24.5,68.3333 28.5,66C 34.7241,61.3702 39.3907,55.5369 42.5,48.5 Z"/></g>
<g><path style="opacity:1" fill="#d89903" d="M 50.5,46.5 C 50.8333,46.5 51.1667,46.5 51.5,46.5C 51.0458,50.149 50.0458,53.649 48.5,57C 48.5699,57.7648 48.9033,58.2648 49.5,58.5C 48.1667,60.5 46.8333,62.5 45.5,64.5C 39.9825,70.074 34.3158,75.4073 28.5,80.5C 27.7281,81.6935 26.7281,82.6935 25.5,83.5C 24.8333,83.5 24.1667,83.5 23.5,83.5C 26.8062,79.5271 30.4729,75.8604 34.5,72.5C 35.9842,70.9263 37.6508,69.593 39.5,68.5C 42.4579,65.9405 44.9579,62.9405 47,59.5C 47.8671,55.0684 49.0338,50.7351 50.5,46.5 Z"/></g>
<g><path style="opacity:0.087" fill="#0c0704" d="M 83.5,66.5 C 86.1213,66.4772 87.4546,67.8105 87.5,70.5C 86.6395,74.3879 84.6395,77.5545 81.5,80C 72.9046,84.6346 63.9046,88.1346 54.5,90.5C 52.0846,89.6948 49.7513,88.6948 47.5,87.5C 40.7025,93.3849 33.0358,95.2182 24.5,93C 23.5,92 22.5,91 21.5,90C 24.0278,89.3311 24.0278,88.4978 21.5,87.5C 16.7297,89.5497 12.0631,89.5497 7.5,87.5C 6.70592,83.9618 6.37258,80.2952 6.5,76.5C 6.84569,75.3044 7.34569,75.3044 8,76.5C 8.21003,74.9419 8.71003,73.6085 9.5,72.5C 11.3048,76.1317 13.3048,79.6317 15.5,83C 18.146,83.4974 20.8127,83.6641 23.5,83.5C 24.1667,83.5 24.8333,83.5 25.5,83.5C 26.6675,87.1676 29.1675,89.1676 33,89.5C 41.0445,88.0615 47.8778,84.3949 53.5,78.5C 55.0915,80.9838 57.4248,81.9838 60.5,81.5C 63.4857,81.6183 66.1524,80.9517 68.5,79.5C 72.698,77.5673 76.3647,74.9006 79.5,71.5C 80.1667,71.5 80.5,71.1667 80.5,70.5C 81.1667,70.5 81.5,70.1667 81.5,69.5C 82.9063,69.0269 83.573,68.0269 83.5,66.5 Z"/></g>
<g><path style="opacity:1" fill="#ffe35f" d="M 39.5,68.5 C 37.6508,69.593 35.9842,70.9263 34.5,72.5C 31.2012,73.5433 28.0345,74.8766 25,76.5C 24.5,76.1667 24,75.8333 23.5,75.5C 29.3467,71.4091 35.0133,67.0758 40.5,62.5C 40.8333,63 41.1667,63.5 41.5,64C 40.5862,65.4064 39.9195,66.9064 39.5,68.5 Z"/></g>
<g><path style="opacity:1" fill="#f1d877" d="M 45.5,64.5 C 46.1667,64.5 46.5,64.8333 46.5,65.5C 43.1396,69.5271 39.4729,73.1938 35.5,76.5C 33.7041,77.7927 32.0375,79.2927 30.5,81C 29.5632,81.6917 28.8966,81.525 28.5,80.5C 34.3158,75.4073 39.9825,70.074 45.5,64.5 Z"/></g>
<g><path style="opacity:1" fill="#f7cf18" d="M 61.5,67.5 C 59.6413,70.1354 58.1413,72.8021 57,75.5C 58.7581,73.2345 60.9248,71.5678 63.5,70.5C 64.6085,71.29 65.9419,71.79 67.5,72C 66.8333,72.6667 66.1667,73.3333 65.5,74C 73.0756,73.5666 73.4089,75.2333 66.5,79C 67.0944,79.4643 67.7611,79.631 68.5,79.5C 66.1524,80.9517 63.4857,81.6183 60.5,81.5C 57.4248,81.9838 55.0915,80.9838 53.5,78.5C 47.8778,84.3949 41.0445,88.0615 33,89.5C 29.1675,89.1676 26.6675,87.1676 25.5,83.5C 26.7281,82.6935 27.7281,81.6935 28.5,80.5C 28.8966,81.525 29.5632,81.6917 30.5,81C 32.0375,79.2927 33.7041,77.7927 35.5,76.5C 36.3324,77.3285 35.999,78.1618 34.5,79C 36.1293,79.5855 37.6293,80.4188 39,81.5C 44.2693,79.7252 48.1027,76.3919 50.5,71.5C 52.5273,71.6621 54.5273,71.4955 56.5,71C 58.0646,69.5881 59.7313,68.4214 61.5,67.5 Z"/></g>
<g><path style="opacity:1" fill="#f7d939" d="M 60.5,9.5 C 62.8736,11.8765 65.5402,14.0431 68.5,16C 74.7575,16.7906 79.7575,19.624 83.5,24.5C 82.7321,25.2625 82.2321,26.2625 82,27.5C 81.1507,23.8498 79.3174,23.0165 76.5,25C 77.1043,27.4675 78.4376,29.4675 80.5,31C 80.5122,37.7146 80.3455,44.5479 80,51.5C 78.4865,59.0245 74.9865,65.5245 69.5,71C 72.6643,70.8788 75.1643,69.3788 77,66.5C 79.3152,61.5862 81.4818,56.5862 83.5,51.5C 84.1667,51.1667 84.8333,50.8333 85.5,50.5C 86.48,53.0865 86.8134,55.7531 86.5,58.5C 85.5,61.1667 84.5,63.8333 83.5,66.5C 82.0937,66.9731 81.427,67.9731 81.5,69.5C 80.8333,69.5 80.5,69.8333 80.5,70.5C 79.8333,70.5 79.5,70.8333 79.5,71.5C 76.3647,74.9006 72.698,77.5673 68.5,79.5C 67.7611,79.631 67.0944,79.4643 66.5,79C 73.4089,75.2333 73.0756,73.5666 65.5,74C 66.1667,73.3333 66.8333,72.6667 67.5,72C 65.9419,71.79 64.6085,71.29 63.5,70.5C 71.1712,65.1681 75.5046,57.8347 76.5,48.5C 77.8101,38.4909 75.1434,29.8242 68.5,22.5C 65.6298,19.8098 62.4631,17.4765 59,15.5C 59.0192,18.2441 59.6859,20.9107 61,23.5C 63.0795,26.0652 64.9128,28.7318 66.5,31.5C 64.7867,29.1496 62.4534,28.1496 59.5,28.5C 61.1167,38.7678 60.2834,48.7678 57,58.5C 54.2436,61.0177 52.2436,64.0177 51,67.5C 47.6558,70.3451 44.4891,73.3451 41.5,76.5C 42,76.8333 42.5,77.1667 43,77.5C 45.4076,75.3802 47.9076,73.3802 50.5,71.5C 48.1027,76.3919 44.2693,79.7252 39,81.5C 37.6293,80.4188 36.1293,79.5855 34.5,79C 35.999,78.1618 36.3324,77.3285 35.5,76.5C 39.4729,73.1938 43.1396,69.5271 46.5,65.5C 54.7891,55.4844 58.4558,43.8178 57.5,30.5C 58.5675,25.991 57.9008,21.6576 55.5,17.5C 55.8627,16.8165 56.1961,16.1499 56.5,15.5C 56.4701,14.5028 56.9701,13.8361 58,13.5C 60.9501,15.0443 61.7834,14.3776 60.5,11.5C 60.5,10.8333 60.5,10.1667 60.5,9.5 Z"/></g>
<g><path style="opacity:1" fill="#f2ba01" d="M 68.5,36.5 C 69.404,37.209 69.7373,38.209 69.5,39.5C 69.666,44.8437 69.4994,50.1771 69,55.5C 68.0701,57.9361 66.9034,60.2695 65.5,62.5C 65.6667,62.8333 65.8333,63.1667 66,63.5C 69.4771,60.2126 71.6438,56.2126 72.5,51.5C 73.5261,50.147 74.8595,49.147 76.5,48.5C 75.5046,57.8347 71.1712,65.1681 63.5,70.5C 60.9248,71.5678 58.7581,73.2345 57,75.5C 58.1413,72.8021 59.6413,70.1354 61.5,67.5C 67.1311,58.1129 69.4645,47.7796 68.5,36.5 Z"/></g>
<g><path style="opacity:1" fill="#a46100" d="M 69.5,39.5 C 70.6066,43.1424 71.6066,46.8091 72.5,50.5C 72.5,50.8333 72.5,51.1667 72.5,51.5C 71.6438,56.2126 69.4771,60.2126 66,63.5C 65.8333,63.1667 65.6667,62.8333 65.5,62.5C 66.9034,60.2695 68.0701,57.9361 69,55.5C 69.4994,50.1771 69.666,44.8437 69.5,39.5 Z"/></g>
<g><path style="opacity:1" fill="#fede4a" d="M 66.5,31.5 C 66.8333,31.5 67.1667,31.5 67.5,31.5C 68.038,33.1172 68.3713,34.7839 68.5,36.5C 69.4645,47.7796 67.1311,58.1129 61.5,67.5C 59.7313,68.4214 58.0646,69.5881 56.5,71C 54.5273,71.4955 52.5273,71.6621 50.5,71.5C 51.6222,70.0527 53.1222,69.0527 55,68.5C 56.6198,64.9181 58.9531,61.9181 62,59.5C 63.5022,55.8504 63.6688,52.1837 62.5,48.5C 63.5,46.8333 64.8333,45.5 66.5,44.5C 67.5404,40.1818 67.5404,35.8485 66.5,31.5 Z"/></g>
<g><path style="opacity:1" fill="#ffe56b" d="M 66.5,31.5 C 67.5404,35.8485 67.5404,40.1818 66.5,44.5C 64.8333,45.5 63.5,46.8333 62.5,48.5C 63.6688,52.1837 63.5022,55.8504 62,59.5C 58.9531,61.9181 56.6198,64.9181 55,68.5C 53.1222,69.0527 51.6222,70.0527 50.5,71.5C 47.9076,73.3802 45.4076,75.3802 43,77.5C 42.5,77.1667 42,76.8333 41.5,76.5C 44.4891,73.3451 47.6558,70.3451 51,67.5C 52.2436,64.0177 54.2436,61.0177 57,58.5C 60.2834,48.7678 61.1167,38.7678 59.5,28.5C 62.4534,28.1496 64.7867,29.1496 66.5,31.5 Z"/></g>
<g><path style="opacity:1" fill="#cb9500" d="M 68.5,22.5 C 75.1434,29.8242 77.8101,38.4909 76.5,48.5C 74.8595,49.147 73.5261,50.147 72.5,51.5C 72.5,51.1667 72.5,50.8333 72.5,50.5C 74.1033,42.181 73.1033,34.181 69.5,26.5C 69.1667,25.1667 68.8333,23.8333 68.5,22.5 Z"/></g>
<g><path style="opacity:1" fill="#723f00" d="M 69.5,26.5 C 73.1033,34.181 74.1033,42.181 72.5,50.5C 71.6066,46.8091 70.6066,43.1424 69.5,39.5C 69.7373,38.209 69.404,37.209 68.5,36.5C 68.3713,34.7839 68.038,33.1172 67.5,31.5C 68.0241,29.6943 68.6908,28.0276 69.5,26.5 Z"/></g>
<g><path style="opacity:1" fill="#705c00" d="M 68.5,22.5 C 68.8333,23.8333 69.1667,25.1667 69.5,26.5C 68.6908,28.0276 68.0241,29.6943 67.5,31.5C 67.1667,31.5 66.8333,31.5 66.5,31.5C 64.9128,28.7318 63.0795,26.0652 61,23.5C 59.6859,20.9107 59.0192,18.2441 59,15.5C 62.4631,17.4765 65.6298,19.8098 68.5,22.5 Z"/></g>
</svg>
