<?xml version="1.0" encoding="UTF-8"?>
<!DOCTYPE svg PUBLIC "-//W3C//DTD SVG 1.1//EN" "http://www.w3.org/Graphics/SVG/1.1/DTD/svg11.dtd">
<svg xmlns="http://www.w3.org/2000/svg" version="1.1" width="100px" height="100px" style="shape-rendering:geometricPrecision; text-rendering:geometricPrecision; image-rendering:optimizeQuality; fill-rule:evenodd; clip-rule:evenodd" xmlns:xlink="http://www.w3.org/1999/xlink">
<g><path style="opacity:0.642" fill="#d2c1af" d="M 55.5,9.5 C 54.8333,9.5 54.1667,9.5 53.5,9.5C 53.1667,9.5 52.8333,9.5 52.5,9.5C 52.5,9.16667 52.5,8.83333 52.5,8.5C 53.5862,8.38002 54.2528,7.71335 54.5,6.5C 54.2528,5.28665 53.5862,4.61998 52.5,4.5C 50.5,4.5 48.5,4.5 46.5,4.5C 45.4138,4.61998 44.7472,5.28665 44.5,6.5C 44.5427,7.41638 44.8761,8.08305 45.5,8.5C 45.5,8.83333 45.5,9.16667 45.5,9.5C 45.1667,9.5 44.8333,9.5 44.5,9.5C 43.8333,9.5 43.1667,9.5 42.5,9.5C 42.7923,7.04279 42.7923,4.37612 42.5,1.5C 46.8461,1.33432 51.1794,1.50098 55.5,2C 55.8916,4.35426 55.8916,6.85426 55.5,9.5 Z"/></g>
<g><path style="opacity:1" fill="#194407" d="M 46.5,4.5 C 46.9704,5.69348 47.9704,6.36015 49.5,6.5C 51.0296,6.36015 52.0296,5.69348 52.5,4.5C 53.5862,4.61998 54.2528,5.28665 54.5,6.5C 54.2528,7.71335 53.5862,8.38002 52.5,8.5C 50.412,8.13481 48.0787,8.13481 45.5,8.5C 44.8761,8.08305 44.5427,7.41638 44.5,6.5C 44.7472,5.28665 45.4138,4.61998 46.5,4.5 Z"/></g>
<g><path style="opacity:1" fill="#02af00" d="M 46.5,4.5 C 48.5,4.5 50.5,4.5 52.5,4.5C 52.0296,5.69348 51.0296,6.36015 49.5,6.5C 47.9704,6.36015 46.9704,5.69348 46.5,4.5 Z"/></g>
<g><path style="opacity:1" fill="#91df4b" d="M 52.5,8.5 C 52.5,8.83333 52.5,9.16667 52.5,9.5C 50.1667,9.5 47.8333,9.5 45.5,9.5C 45.5,9.16667 45.5,8.83333 45.5,8.5C 48.0787,8.13481 50.412,8.13481 52.5,8.5 Z"/></g>
<g><path style="opacity:1" fill="#fbe9dd" d="M 44.5,9.5 C 44.8333,9.5 45.1667,9.5 45.5,9.5C 47.8333,9.5 50.1667,9.5 52.5,9.5C 52.8333,9.5 53.1667,9.5 53.5,9.5C 53.6695,11.8484 54.0029,14.1817 54.5,16.5C 54.3601,18.0296 53.6935,19.0296 52.5,19.5C 52.5,18.5 52.5,17.5 52.5,16.5C 52.9238,11.4448 50.9238,9.77818 46.5,11.5C 45.1667,11.5 44.5,10.8333 44.5,9.5 Z"/></g>
<g><path style="opacity:0.844" fill="#f4e2d2" d="M 42.5,9.5 C 43.1667,9.5 43.8333,9.5 44.5,9.5C 44.5,10.8333 45.1667,11.5 46.5,11.5C 44.9378,13.9007 45.2712,15.9007 47.5,17.5C 47.2852,19.1788 47.9519,20.1788 49.5,20.5C 48.791,21.404 47.791,21.7373 46.5,21.5C 45.391,21.5569 44.391,21.8902 43.5,22.5C 42.8333,22.5 42.1667,22.5 41.5,22.5C 42.1995,18.2022 42.5328,13.8689 42.5,9.5 Z"/></g>
<g><path style="opacity:1" fill="#dd9a69" d="M 52.5,16.5 C 50.9582,17.3007 49.2915,17.634 47.5,17.5C 45.2712,15.9007 44.9378,13.9007 46.5,11.5C 50.9238,9.77818 52.9238,11.4448 52.5,16.5 Z"/></g>
<g><path style="opacity:0.408" fill="#e5d5c6" d="M 53.5,9.5 C 54.1667,9.5 54.8333,9.5 55.5,9.5C 56.1995,13.7978 56.5328,18.1311 56.5,22.5C 56.1667,22.5 55.8333,22.5 55.5,22.5C 55.1788,20.9519 54.1788,20.2852 52.5,20.5C 52.1667,20.5 51.8333,20.5 51.5,20.5C 51.5,19.8333 51.8333,19.5 52.5,19.5C 53.6935,19.0296 54.3601,18.0296 54.5,16.5C 54.0029,14.1817 53.6695,11.8484 53.5,9.5 Z"/></g>
<g><path style="opacity:1" fill="#f3d9c0" d="M 52.5,16.5 C 52.5,17.5 52.5,18.5 52.5,19.5C 51.8333,19.5 51.5,19.8333 51.5,20.5C 50.8333,20.5 50.1667,20.5 49.5,20.5C 47.9519,20.1788 47.2852,19.1788 47.5,17.5C 49.2915,17.634 50.9582,17.3007 52.5,16.5 Z"/></g>
<g><path style="opacity:1" fill="#445c78" d="M 49.5,20.5 C 50.1667,20.5 50.8333,20.5 51.5,20.5C 51.8333,20.5 52.1667,20.5 52.5,20.5C 52.4226,21.7498 51.756,22.5831 50.5,23C 51.3366,24.0113 51.67,25.1779 51.5,26.5C 50.1667,26.5 48.8333,26.5 47.5,26.5C 47.5674,25.0413 47.2341,23.7079 46.5,22.5C 46.5,22.1667 46.5,21.8333 46.5,21.5C 47.791,21.7373 48.791,21.404 49.5,20.5 Z"/></g>
<g><path style="opacity:0.184" fill="#a2978f" d="M 41.5,22.5 C 42.1667,22.5 42.8333,22.5 43.5,22.5C 42.6314,24.717 42.298,27.0504 42.5,29.5C 42.5,29.8333 42.5,30.1667 42.5,30.5C 41.8333,30.8333 41.1667,31.1667 40.5,31.5C 40.9629,28.5176 41.2962,25.5176 41.5,22.5 Z"/></g>
<g><path style="opacity:1" fill="#52769a" d="M 46.5,21.5 C 46.5,21.8333 46.5,22.1667 46.5,22.5C 45.8419,24.6391 44.8419,26.6391 43.5,28.5C 43.5,28.8333 43.5,29.1667 43.5,29.5C 43.1667,29.5 42.8333,29.5 42.5,29.5C 42.298,27.0504 42.6314,24.717 43.5,22.5C 44.391,21.8902 45.391,21.5569 46.5,21.5 Z"/></g>
<g><path style="opacity:1" fill="#326697" d="M 46.5,22.5 C 47.2341,23.7079 47.5674,25.0413 47.5,26.5C 47.5,27.1667 47.8333,27.5 48.5,27.5C 47.0813,28.4511 45.4147,28.7845 43.5,28.5C 44.8419,26.6391 45.8419,24.6391 46.5,22.5 Z"/></g>
<g><path style="opacity:1" fill="#2a5787" d="M 52.5,20.5 C 54.1788,20.2852 55.1788,20.9519 55.5,22.5C 55.5,24.1667 55.5,25.8333 55.5,27.5C 55.1667,27.5 54.8333,27.5 54.5,27.5C 54.1667,27.5 53.8333,27.5 53.5,27.5C 51.8333,27.5 50.1667,27.5 48.5,27.5C 47.8333,27.5 47.5,27.1667 47.5,26.5C 48.8333,26.5 50.1667,26.5 51.5,26.5C 51.67,25.1779 51.3366,24.0113 50.5,23C 51.756,22.5831 52.4226,21.7498 52.5,20.5 Z"/></g>
<g><path style="opacity:1" fill="#56bb16" d="M 48.5,27.5 C 50.1667,27.5 51.8333,27.5 53.5,27.5C 53.5,28.5 53.5,29.5 53.5,30.5C 52.5,30.5 51.5,30.5 50.5,30.5C 48.3926,29.5318 46.0593,29.1984 43.5,29.5C 43.5,29.1667 43.5,28.8333 43.5,28.5C 45.4147,28.7845 47.0813,28.4511 48.5,27.5 Z"/></g>
<g><path style="opacity:1" fill="#7de800" d="M 53.5,27.5 C 53.8333,27.5 54.1667,27.5 54.5,27.5C 54.8064,30.3854 54.4731,33.0521 53.5,35.5C 51.5242,33.9891 49.1909,33.1558 46.5,33C 48.133,32.5204 49.4664,31.6871 50.5,30.5C 51.5,30.5 52.5,30.5 53.5,30.5C 53.5,29.5 53.5,28.5 53.5,27.5 Z"/></g>
<g><path style="opacity:1" fill="#7ae500" d="M 43.5,29.5 C 46.0593,29.1984 48.3926,29.5318 50.5,30.5C 49.4664,31.6871 48.133,32.5204 46.5,33C 49.1909,33.1558 51.5242,33.9891 53.5,35.5C 50.5,35.5 47.5,35.5 44.5,35.5C 44.1667,35.5 43.8333,35.5 43.5,35.5C 43.5,33.5 43.5,31.5 43.5,29.5 Z"/></g>
<g><path style="opacity:0.412" fill="#897f74" d="M 55.5,22.5 C 55.8333,22.5 56.1667,22.5 56.5,22.5C 56.9846,29.0012 58.3179,35.3345 60.5,41.5C 57.7047,37.9168 56.038,33.9168 55.5,29.5C 55.5,28.8333 55.5,28.1667 55.5,27.5C 55.5,25.8333 55.5,24.1667 55.5,22.5 Z"/></g>
<g><path style="opacity:1" fill="#1b2607" d="M 42.5,29.5 C 42.8333,29.5 43.1667,29.5 43.5,29.5C 43.5,31.5 43.5,33.5 43.5,35.5C 43.2671,37.0618 42.6005,38.3951 41.5,39.5C 41.1667,39.5 40.8333,39.5 40.5,39.5C 40.5,39.1667 40.5,38.8333 40.5,38.5C 41.1667,35.8333 41.8333,33.1667 42.5,30.5C 42.5,30.1667 42.5,29.8333 42.5,29.5 Z"/></g>
<g><path style="opacity:1" fill="#1c1d08" d="M 55.5,29.5 C 56.038,33.9168 57.7047,37.9168 60.5,41.5C 60.5,46.1667 60.5,50.8333 60.5,55.5C 59.5,55.1667 58.8333,54.5 58.5,53.5C 58.5,52.1667 58.5,50.8333 58.5,49.5C 58.81,46.2869 58.4767,43.2869 57.5,40.5C 57.6716,39.5084 57.3382,38.8417 56.5,38.5C 55.5975,35.6085 55.2641,32.6085 55.5,29.5 Z"/></g>
<g><path style="opacity:0.255" fill="#908679" d="M 42.5,30.5 C 41.8333,33.1667 41.1667,35.8333 40.5,38.5C 39.2719,39.3065 38.2719,40.3065 37.5,41.5C 38.5,38.1667 39.5,34.8333 40.5,31.5C 41.1667,31.1667 41.8333,30.8333 42.5,30.5 Z"/></g>
<g><path style="opacity:1" fill="#6dc400" d="M 44.5,35.5 C 47.5,35.5 50.5,35.5 53.5,35.5C 53.7373,36.791 53.404,37.791 52.5,38.5C 49.8333,38.5 47.1667,38.5 44.5,38.5C 44.5,37.5 44.5,36.5 44.5,35.5 Z"/></g>
<g><path style="opacity:1" fill="#91d600" d="M 43.5,35.5 C 43.8333,35.5 44.1667,35.5 44.5,35.5C 44.5,36.5 44.5,37.5 44.5,38.5C 47.1667,38.5 49.8333,38.5 52.5,38.5C 52.5,38.8333 52.5,39.1667 52.5,39.5C 49.5,39.5 46.5,39.5 43.5,39.5C 42.8333,39.5 42.1667,39.5 41.5,39.5C 42.6005,38.3951 43.2671,37.0618 43.5,35.5 Z"/></g>
<g><path style="opacity:1" fill="#7ab300" d="M 54.5,27.5 C 54.8333,27.5 55.1667,27.5 55.5,27.5C 55.5,28.1667 55.5,28.8333 55.5,29.5C 55.2641,32.6085 55.5975,35.6085 56.5,38.5C 55.2921,39.2341 53.9587,39.5674 52.5,39.5C 52.5,39.1667 52.5,38.8333 52.5,38.5C 53.404,37.791 53.7373,36.791 53.5,35.5C 54.4731,33.0521 54.8064,30.3854 54.5,27.5 Z"/></g>
<g><path style="opacity:1" fill="#b0e300" d="M 56.5,38.5 C 57.3382,38.8417 57.6716,39.5084 57.5,40.5C 57.1667,40.5 56.8333,40.5 56.5,40.5C 52.5378,41.2379 48.5378,41.9046 44.5,42.5C 43.8902,41.609 43.5569,40.609 43.5,39.5C 46.5,39.5 49.5,39.5 52.5,39.5C 53.9587,39.5674 55.2921,39.2341 56.5,38.5 Z"/></g>
<g><path style="opacity:1" fill="#c0e200" d="M 56.5,40.5 C 56.5,42.8333 56.5,45.1667 56.5,47.5C 54.7853,46.0807 52.9519,44.7473 51,43.5C 50.3333,44.1667 49.6667,44.8333 49,45.5C 48.2303,44.4019 47.397,44.4019 46.5,45.5C 46.1667,44.5 45.5,43.8333 44.5,43.5C 44.5,43.1667 44.5,42.8333 44.5,42.5C 48.5378,41.9046 52.5378,41.2379 56.5,40.5 Z"/></g>
<g><path style="opacity:1" fill="#b1dc00" d="M 40.5,39.5 C 40.8333,39.5 41.1667,39.5 41.5,39.5C 42.1667,39.5 42.8333,39.5 43.5,39.5C 43.5569,40.609 43.8902,41.609 44.5,42.5C 44.5,42.8333 44.5,43.1667 44.5,43.5C 43.7838,46.0118 42.7838,46.0118 41.5,43.5C 42.9884,41.1143 42.6551,40.4476 40.5,41.5C 40.5,40.8333 40.5,40.1667 40.5,39.5 Z"/></g>
<g><path style="opacity:1" fill="#c6e600" d="M 44.5,43.5 C 45.5,43.8333 46.1667,44.5 46.5,45.5C 45.8333,46.1667 45.1667,46.8333 44.5,47.5C 43.5041,47.5858 42.6708,47.2524 42,46.5C 41.5357,47.0944 41.369,47.7611 41.5,48.5C 40.4902,46.9866 40.1569,44.6533 40.5,41.5C 42.6551,40.4476 42.9884,41.1143 41.5,43.5C 42.7838,46.0118 43.7838,46.0118 44.5,43.5 Z"/></g>
<g><path style="opacity:1" fill="#c4dc00" d="M 56.5,47.5 C 56.5,48.1667 56.5,48.8333 56.5,49.5C 55.609,48.8902 54.609,48.5569 53.5,48.5C 52.791,47.596 51.791,47.2627 50.5,47.5C 50.5,48.5 50.5,49.5 50.5,50.5C 49.5,50.5 48.5,50.5 47.5,50.5C 47.4142,49.5041 47.7476,48.6708 48.5,48C 47.2068,47.51 45.8734,47.3433 44.5,47.5C 45.1667,46.8333 45.8333,46.1667 46.5,45.5C 47.397,44.4019 48.2303,44.4019 49,45.5C 49.6667,44.8333 50.3333,44.1667 51,43.5C 52.9519,44.7473 54.7853,46.0807 56.5,47.5 Z"/></g>
<g><path style="opacity:1" fill="#242215" d="M 40.5,38.5 C 40.5,38.8333 40.5,39.1667 40.5,39.5C 40.5,40.1667 40.5,40.8333 40.5,41.5C 39.5166,45.2984 39.1832,49.2984 39.5,53.5C 39.5,54.1667 39.5,54.8333 39.5,55.5C 38.8333,55.8333 38.1667,56.1667 37.5,56.5C 37.5,51.5 37.5,46.5 37.5,41.5C 38.2719,40.3065 39.2719,39.3065 40.5,38.5 Z"/></g>
<g><path style="opacity:1" fill="#d4e900" d="M 56.5,40.5 C 56.8333,40.5 57.1667,40.5 57.5,40.5C 58.4767,43.2869 58.81,46.2869 58.5,49.5C 57.6043,50.5063 56.9377,50.5063 56.5,49.5C 56.5,48.8333 56.5,48.1667 56.5,47.5C 56.5,45.1667 56.5,42.8333 56.5,40.5 Z"/></g>
<g><path style="opacity:1" fill="#c2d600" d="M 44.5,47.5 C 45.8734,47.3433 47.2068,47.51 48.5,48C 47.7476,48.6708 47.4142,49.5041 47.5,50.5C 46.8333,50.5 46.5,50.8333 46.5,51.5C 46.1667,51.5 45.8333,51.5 45.5,51.5C 45.719,50.325 45.3857,49.325 44.5,48.5C 43.4728,49.7914 42.4728,49.7914 41.5,48.5C 41.369,47.7611 41.5357,47.0944 42,46.5C 42.6708,47.2524 43.5041,47.5858 44.5,47.5 Z"/></g>
<g><path style="opacity:1" fill="#c4d300" d="M 53.5,48.5 C 52.596,49.209 52.2627,50.209 52.5,51.5C 50.5,51.5 48.5,51.5 46.5,51.5C 46.5,50.8333 46.8333,50.5 47.5,50.5C 48.5,50.5 49.5,50.5 50.5,50.5C 50.5,49.5 50.5,48.5 50.5,47.5C 51.791,47.2627 52.791,47.596 53.5,48.5 Z"/></g>
<g><path style="opacity:1" fill="#b7c801" d="M 40.5,41.5 C 40.1569,44.6533 40.4902,46.9866 41.5,48.5C 42.4728,49.7914 43.4728,49.7914 44.5,48.5C 45.3857,49.325 45.719,50.325 45.5,51.5C 44.209,51.2627 43.209,51.596 42.5,52.5C 41.391,52.5569 40.391,52.8902 39.5,53.5C 39.1832,49.2984 39.5166,45.2984 40.5,41.5 Z"/></g>
<g><path style="opacity:1" fill="#bacf08" d="M 53.5,48.5 C 54.609,48.5569 55.609,48.8902 56.5,49.5C 56.9377,50.5063 57.6043,50.5063 58.5,49.5C 58.5,50.8333 58.5,52.1667 58.5,53.5C 56.7028,52.2702 54.7028,51.6036 52.5,51.5C 52.2627,50.209 52.596,49.209 53.5,48.5 Z"/></g>
<g><path style="opacity:1" fill="#d3c2af" d="M 42.5,52.5 C 43.209,51.596 44.209,51.2627 45.5,51.5C 45.8333,51.5 46.1667,51.5 46.5,51.5C 48.5,51.5 50.5,51.5 52.5,51.5C 54.7028,51.6036 56.7028,52.2702 58.5,53.5C 58.8333,54.5 59.5,55.1667 60.5,55.5C 60.5,62.5 60.5,69.5 60.5,76.5C 60.1667,76.5 59.8333,76.5 59.5,76.5C 59.5,74.8333 59.5,73.1667 59.5,71.5C 59.665,68.1501 59.4983,64.8168 59,61.5C 58.6174,60.944 58.1174,60.6107 57.5,60.5C 58.6268,57.573 57.6268,55.4063 54.5,54C 53.2068,53.51 51.8734,53.3433 50.5,53.5C 48.8333,53.5 47.1667,53.5 45.5,53.5C 44.791,52.596 43.791,52.2627 42.5,52.5 Z"/></g>
<g><path style="opacity:1" fill="#f0e9e1" d="M 42.5,52.5 C 43.791,52.2627 44.791,52.596 45.5,53.5C 43.1475,54.3403 41.1475,55.6736 39.5,57.5C 39.5,56.8333 39.5,56.1667 39.5,55.5C 39.5,54.8333 39.5,54.1667 39.5,53.5C 40.391,52.8902 41.391,52.5569 42.5,52.5 Z"/></g>
<g><path style="opacity:1" fill="#405d77" d="M 45.5,53.5 C 47.1667,53.5 48.8333,53.5 50.5,53.5C 51.8083,54.2323 53.1416,55.0656 54.5,56C 53.552,56.4828 52.552,56.6495 51.5,56.5C 50.5084,56.3284 49.8417,56.6618 49.5,57.5C 48.8333,57.5 48.1667,57.5 47.5,57.5C 47.5,56.8333 47.1667,56.5 46.5,56.5C 45.8333,56.5 45.1667,56.5 44.5,56.5C 44.0618,56.5654 43.7284,56.3988 43.5,56C 44.3805,55.2917 45.0472,54.4584 45.5,53.5 Z"/></g>
<g><path style="opacity:1" fill="#5d7a98" d="M 50.5,53.5 C 51.8734,53.3433 53.2068,53.51 54.5,54C 57.6268,55.4063 58.6268,57.573 57.5,60.5C 55.8333,61.8333 54.1667,61.8333 52.5,60.5C 52.5674,59.0413 52.2341,57.7079 51.5,56.5C 52.552,56.6495 53.552,56.4828 54.5,56C 53.1416,55.0656 51.8083,54.2323 50.5,53.5 Z"/></g>
<g><path style="opacity:1" fill="#6484a6" d="M 45.5,53.5 C 45.0472,54.4584 44.3805,55.2917 43.5,56C 43.7284,56.3988 44.0618,56.5654 44.5,56.5C 44.6747,58.6208 44.3414,60.6208 43.5,62.5C 41.9699,61.7888 40.6366,60.7888 39.5,59.5C 39.5,58.8333 39.5,58.1667 39.5,57.5C 41.1475,55.6736 43.1475,54.3403 45.5,53.5 Z"/></g>
<g><path style="opacity:1" fill="#f4e1d4" d="M 39.5,59.5 C 40.6366,60.7888 41.9699,61.7888 43.5,62.5C 44.1667,62.5 44.5,62.8333 44.5,63.5C 42.8333,63.5 41.1667,63.5 39.5,63.5C 39.5,64.8333 39.5,66.1667 39.5,67.5C 39.5,68.8333 39.5,70.1667 39.5,71.5C 41.5,71.5 43.5,71.5 45.5,71.5C 45.1667,72.8333 44.8333,74.1667 44.5,75.5C 44.1667,75.5 43.8333,75.5 43.5,75.5C 42.8333,75.1667 42.1667,74.8333 41.5,74.5C 40.8333,73.1667 40.1667,73.1667 39.5,74.5C 38.1667,69.5 38.1667,64.5 39.5,59.5 Z"/></g>
<g><path style="opacity:1" fill="#d9c7be" d="M 44.5,56.5 C 45.1667,56.5 45.8333,56.5 46.5,56.5C 44.9378,58.9007 45.2712,60.9007 47.5,62.5C 46.8333,63.1667 46.1667,63.8333 45.5,64.5C 45.5,65.5 45.5,66.5 45.5,67.5C 43.857,67.4802 42.5237,68.1468 41.5,69.5C 40.7025,69.0431 40.3691,68.3764 40.5,67.5C 42.0414,66.3332 43.3748,64.9999 44.5,63.5C 44.5,62.8333 44.1667,62.5 43.5,62.5C 44.3414,60.6208 44.6747,58.6208 44.5,56.5 Z"/></g>
<g><path style="opacity:1" fill="#c96449" d="M 46.5,56.5 C 47.1667,56.5 47.5,56.8333 47.5,57.5C 46.0464,60.3999 47.0464,61.7332 50.5,61.5C 50.7678,59.901 50.4345,58.5676 49.5,57.5C 49.8417,56.6618 50.5084,56.3284 51.5,56.5C 52.2341,57.7079 52.5674,59.0413 52.5,60.5C 52.1667,61.5 51.5,62.1667 50.5,62.5C 49.5,62.5 48.5,62.5 47.5,62.5C 45.2712,60.9007 44.9378,58.9007 46.5,56.5 Z"/></g>
<g><path style="opacity:1" fill="#cfad8c" d="M 47.5,57.5 C 48.1667,57.5 48.8333,57.5 49.5,57.5C 50.4345,58.5676 50.7678,59.901 50.5,61.5C 47.0464,61.7332 46.0464,60.3999 47.5,57.5 Z"/></g>
<g><path style="opacity:1" fill="#f3e0d3" d="M 52.5,60.5 C 54.1667,61.8333 55.8333,61.8333 57.5,60.5C 58.1174,60.6107 58.6174,60.944 59,61.5C 59.4983,64.8168 59.665,68.1501 59.5,71.5C 59.1667,71.5 58.8333,71.5 58.5,71.5C 58.5,70.5 58.5,69.5 58.5,68.5C 58.5,66.8333 58.5,65.1667 58.5,63.5C 57.0413,63.4326 55.7079,63.7659 54.5,64.5C 53.6043,65.5063 52.9377,65.5063 52.5,64.5C 51.8333,63.8333 51.1667,63.1667 50.5,62.5C 51.5,62.1667 52.1667,61.5 52.5,60.5 Z"/></g>
<g><path style="opacity:1" fill="#e0a08d" d="M 47.5,62.5 C 48.5,62.5 49.5,62.5 50.5,62.5C 51.1667,63.1667 51.8333,63.8333 52.5,64.5C 51.7321,65.2625 51.2321,66.2625 51,67.5C 50.7216,66.5842 50.2216,65.9175 49.5,65.5C 48.2921,64.7659 46.9587,64.4326 45.5,64.5C 46.1667,63.8333 46.8333,63.1667 47.5,62.5 Z"/></g>
<g><path style="opacity:1" fill="#fa8f7e" d="M 44.5,63.5 C 43.3748,64.9999 42.0414,66.3332 40.5,67.5C 40.1667,67.5 39.8333,67.5 39.5,67.5C 39.5,66.1667 39.5,64.8333 39.5,63.5C 41.1667,63.5 42.8333,63.5 44.5,63.5 Z"/></g>
<g><path style="opacity:1" fill="#f8ad9e" d="M 58.5,68.5 C 57.8333,68.5 57.1667,68.5 56.5,68.5C 56.2671,66.9382 55.6005,65.6049 54.5,64.5C 55.7079,63.7659 57.0413,63.4326 58.5,63.5C 58.5,65.1667 58.5,66.8333 58.5,68.5 Z"/></g>
<g><path style="opacity:0.72" fill="#c0b1a0" d="M 39.5,55.5 C 39.5,56.1667 39.5,56.8333 39.5,57.5C 39.5,58.1667 39.5,58.8333 39.5,59.5C 38.1667,64.5 38.1667,69.5 39.5,74.5C 39.5,75.8333 39.5,77.1667 39.5,78.5C 38.8333,78.1667 38.1667,77.8333 37.5,77.5C 37.5,70.5 37.5,63.5 37.5,56.5C 38.1667,56.1667 38.8333,55.8333 39.5,55.5 Z"/></g>
<g><path style="opacity:1" fill="#d85749" d="M 52.5,64.5 C 52.9377,65.5063 53.6043,65.5063 54.5,64.5C 55.6005,65.6049 56.2671,66.9382 56.5,68.5C 54.1667,67.1667 51.8333,67.1667 49.5,68.5C 49.5,67.5 49.5,66.5 49.5,65.5C 50.2216,65.9175 50.7216,66.5842 51,67.5C 51.2321,66.2625 51.7321,65.2625 52.5,64.5 Z"/></g>
<g><path style="opacity:1" fill="#e49584" d="M 39.5,67.5 C 39.8333,67.5 40.1667,67.5 40.5,67.5C 40.3691,68.3764 40.7025,69.0431 41.5,69.5C 42.5237,68.1468 43.857,67.4802 45.5,67.5C 45.5,68.1667 45.8333,68.5 46.5,68.5C 48.129,70.1959 47.7957,71.1959 45.5,71.5C 43.5,71.5 41.5,71.5 39.5,71.5C 39.5,70.1667 39.5,68.8333 39.5,67.5 Z"/></g>
<g><path style="opacity:1" fill="#e8ae9c" d="M 56.5,68.5 C 57.1667,68.5 57.8333,68.5 58.5,68.5C 58.5,69.5 58.5,70.5 58.5,71.5C 57.5,71.5 56.5,71.5 55.5,71.5C 55.631,70.7611 55.4643,70.0944 55,69.5C 53.7553,69.4615 52.4219,69.7948 51,70.5C 49.9701,70.1639 49.4701,69.4972 49.5,68.5C 51.8333,67.1667 54.1667,67.1667 56.5,68.5 Z"/></g>
<g><path style="opacity:1" fill="#d47361" d="M 45.5,64.5 C 46.9587,64.4326 48.2921,64.7659 49.5,65.5C 49.5,66.5 49.5,67.5 49.5,68.5C 49.4701,69.4972 49.9701,70.1639 51,70.5C 52.4219,69.7948 53.7553,69.4615 55,69.5C 55.4643,70.0944 55.631,70.7611 55.5,71.5C 55.1667,71.5 54.8333,71.5 54.5,71.5C 52.5,71.5 50.5,71.5 48.5,71.5C 48.6495,70.448 48.4828,69.448 48,68.5C 47.31,67.2617 46.81,67.2617 46.5,68.5C 45.8333,68.5 45.5,68.1667 45.5,67.5C 45.5,66.5 45.5,65.5 45.5,64.5 Z"/></g>
<g><path style="opacity:1" fill="#dcb79c" d="M 54.5,71.5 C 53.8333,72.1667 53.1667,72.8333 52.5,73.5C 49.6592,73.5597 46.9925,74.2264 44.5,75.5C 44.8333,74.1667 45.1667,72.8333 45.5,71.5C 47.7957,71.1959 48.129,70.1959 46.5,68.5C 46.81,67.2617 47.31,67.2617 48,68.5C 48.4828,69.448 48.6495,70.448 48.5,71.5C 50.5,71.5 52.5,71.5 54.5,71.5 Z"/></g>
<g><path style="opacity:1" fill="#f5e7d9" d="M 55.5,71.5 C 56.5,71.5 57.5,71.5 58.5,71.5C 58.8333,71.5 59.1667,71.5 59.5,71.5C 59.5,73.1667 59.5,74.8333 59.5,76.5C 59.6716,77.4916 59.3382,78.1583 58.5,78.5C 58.7845,76.5853 58.4511,74.9187 57.5,73.5C 57.1667,73.5 56.8333,73.5 56.5,73.5C 55.6618,73.1583 55.3284,72.4916 55.5,71.5 Z"/></g>
<g><path style="opacity:1" fill="#ebd6c6" d="M 54.5,71.5 C 54.8333,71.5 55.1667,71.5 55.5,71.5C 55.3284,72.4916 55.6618,73.1583 56.5,73.5C 55.4884,74.8717 54.4884,76.205 53.5,77.5C 53.1667,77.5 52.8333,77.5 52.5,77.5C 53.3543,75.965 53.3543,74.6316 52.5,73.5C 53.1667,72.8333 53.8333,72.1667 54.5,71.5 Z"/></g>
<g><path style="opacity:1" fill="#c18a66" d="M 52.5,73.5 C 53.3543,74.6316 53.3543,75.965 52.5,77.5C 49.5718,77.4349 46.9052,76.7682 44.5,75.5C 46.9925,74.2264 49.6592,73.5597 52.5,73.5 Z"/></g>
<g><path style="opacity:1" fill="#d1c3b3" d="M 41.5,74.5 C 40.0608,78.1223 41.3942,80.4556 45.5,81.5C 48.6085,81.7359 51.6085,81.4025 54.5,80.5C 54.8417,81.3382 55.5084,81.6716 56.5,81.5C 56.5,82.1667 56.1667,82.5 55.5,82.5C 50.8091,83.6726 46.1425,83.6726 41.5,82.5C 41.1583,81.6618 40.4916,81.3284 39.5,81.5C 39.5,80.5 39.5,79.5 39.5,78.5C 39.5,77.1667 39.5,75.8333 39.5,74.5C 40.1667,73.1667 40.8333,73.1667 41.5,74.5 Z"/></g>
<g><path style="opacity:1" fill="#d7b89b" d="M 43.5,75.5 C 43.8333,75.5 44.1667,75.5 44.5,75.5C 46.9052,76.7682 49.5718,77.4349 52.5,77.5C 52.8333,77.5 53.1667,77.5 53.5,77.5C 53.1583,78.3382 52.4916,78.6716 51.5,78.5C 49.1432,78.6633 46.8098,78.4966 44.5,78C 43.7476,77.3292 43.4142,76.4959 43.5,75.5 Z"/></g>
<g><path style="opacity:1" fill="#466683" d="M 56.5,73.5 C 56.8333,73.5 57.1667,73.5 57.5,73.5C 58.0922,76.6305 57.0922,78.9639 54.5,80.5C 51.6085,81.4025 48.6085,81.7359 45.5,81.5C 47.1561,79.9397 49.1561,78.9397 51.5,78.5C 52.4916,78.6716 53.1583,78.3382 53.5,77.5C 54.4884,76.205 55.4884,74.8717 56.5,73.5 Z"/></g>
<g><path style="opacity:1" fill="#607c98" d="M 41.5,74.5 C 42.1667,74.8333 42.8333,75.1667 43.5,75.5C 43.4142,76.4959 43.7476,77.3292 44.5,78C 46.8098,78.4966 49.1432,78.6633 51.5,78.5C 49.1561,78.9397 47.1561,79.9397 45.5,81.5C 41.3942,80.4556 40.0608,78.1223 41.5,74.5 Z"/></g>
<g><path style="opacity:0.72" fill="#403c30" d="M 37.5,77.5 C 38.1667,77.8333 38.8333,78.1667 39.5,78.5C 39.5,79.5 39.5,80.5 39.5,81.5C 39.5,82.5 39.5,83.5 39.5,84.5C 39.1667,84.5 38.8333,84.5 38.5,84.5C 38.1667,84.5 37.8333,84.5 37.5,84.5C 37.5,82.1667 37.5,79.8333 37.5,77.5 Z"/></g>
<g><path style="opacity:1" fill="#f1e6dd" d="M 57.5,73.5 C 58.4511,74.9187 58.7845,76.5853 58.5,78.5C 58.5,79.1667 58.5,79.8333 58.5,80.5C 57.8333,80.8333 57.1667,81.1667 56.5,81.5C 55.5084,81.6716 54.8417,81.3382 54.5,80.5C 57.0922,78.9639 58.0922,76.6305 57.5,73.5 Z"/></g>
<g><path style="opacity:1" fill="#8eae01" d="M 39.5,81.5 C 40.4916,81.3284 41.1583,81.6618 41.5,82.5C 43.3268,83.6912 44.9934,85.0245 46.5,86.5C 45.8333,86.5 45.1667,86.5 44.5,86.5C 42.8333,85.8333 41.1667,85.1667 39.5,84.5C 39.5,83.5 39.5,82.5 39.5,81.5 Z"/></g>
<g><path style="opacity:1" fill="#adcb09" d="M 41.5,82.5 C 46.1425,83.6726 50.8091,83.6726 55.5,82.5C 54.674,84.2644 53.3407,85.5977 51.5,86.5C 50.6618,86.8417 50.3284,87.5084 50.5,88.5C 49.0413,88.4326 47.7079,88.7659 46.5,89.5C 46.5,88.5 46.5,87.5 46.5,86.5C 44.9934,85.0245 43.3268,83.6912 41.5,82.5 Z"/></g>
<g><path style="opacity:1" fill="#b1d504" d="M 58.5,80.5 C 58.5,81.8333 58.5,83.1667 58.5,84.5C 58.5,85.8333 58.5,87.1667 58.5,88.5C 55.6122,89.0102 53.2789,88.3435 51.5,86.5C 53.3407,85.5977 54.674,84.2644 55.5,82.5C 56.1667,82.5 56.5,82.1667 56.5,81.5C 57.1667,81.1667 57.8333,80.8333 58.5,80.5 Z"/></g>
<g><path style="opacity:1" fill="#bee400" d="M 39.5,84.5 C 41.1667,85.1667 42.8333,85.8333 44.5,86.5C 43.4479,88.256 41.7812,88.9227 39.5,88.5C 39.5,87.1667 39.5,85.8333 39.5,84.5 Z"/></g>
<g><path style="opacity:1" fill="#3e4021" d="M 59.5,76.5 C 59.8333,76.5 60.1667,76.5 60.5,76.5C 60.5,82.8333 60.5,89.1667 60.5,95.5C 58.5,95.5 56.5,95.5 54.5,95.5C 54.5,95.1667 54.5,94.8333 54.5,94.5C 56.288,94.7852 57.9547,94.4519 59.5,93.5C 59.3764,92.8933 59.0431,92.56 58.5,92.5C 58.5,91.8333 58.5,91.1667 58.5,90.5C 59.7416,88.3888 59.7416,86.3888 58.5,84.5C 58.5,83.1667 58.5,81.8333 58.5,80.5C 58.5,79.8333 58.5,79.1667 58.5,78.5C 59.3382,78.1583 59.6716,77.4916 59.5,76.5 Z"/></g>
<g><path style="opacity:1" fill="#a1c800" d="M 50.5,88.5 C 50.8333,89.1667 51.1667,89.8333 51.5,90.5C 47.8333,90.5 44.1667,90.5 40.5,90.5C 42.2646,89.5386 44.2646,89.2053 46.5,89.5C 47.7079,88.7659 49.0413,88.4326 50.5,88.5 Z"/></g>
<g><path style="opacity:1" fill="#90b300" d="M 58.5,84.5 C 59.7416,86.3888 59.7416,88.3888 58.5,90.5C 56.1667,90.5 53.8333,90.5 51.5,90.5C 51.1667,89.8333 50.8333,89.1667 50.5,88.5C 50.3284,87.5084 50.6618,86.8417 51.5,86.5C 53.2789,88.3435 55.6122,89.0102 58.5,88.5C 58.5,87.1667 58.5,85.8333 58.5,84.5 Z"/></g>
<g><path style="opacity:1" fill="#587900" d="M 38.5,84.5 C 38.8333,84.5 39.1667,84.5 39.5,84.5C 39.5,85.8333 39.5,87.1667 39.5,88.5C 41.7812,88.9227 43.4479,88.256 44.5,86.5C 45.1667,86.5 45.8333,86.5 46.5,86.5C 46.5,87.5 46.5,88.5 46.5,89.5C 44.2646,89.2053 42.2646,89.5386 40.5,90.5C 45.5,91.1667 50.5,91.8333 55.5,92.5C 50.1667,92.5 44.8333,92.5 39.5,92.5C 38.9084,89.8728 38.5751,87.2062 38.5,84.5 Z"/></g>
<g><path style="opacity:1" fill="#93d100" d="M 40.5,90.5 C 44.1667,90.5 47.8333,90.5 51.5,90.5C 53.8333,90.5 56.1667,90.5 58.5,90.5C 58.5,91.1667 58.5,91.8333 58.5,92.5C 57.5,92.5 56.5,92.5 55.5,92.5C 50.5,91.8333 45.5,91.1667 40.5,90.5 Z"/></g>
<g><path style="opacity:1" fill="#0d1304" d="M 37.5,84.5 C 37.8333,84.5 38.1667,84.5 38.5,84.5C 38.5751,87.2062 38.9084,89.8728 39.5,92.5C 44.8333,92.5 50.1667,92.5 55.5,92.5C 56.5,92.5 57.5,92.5 58.5,92.5C 59.0431,92.56 59.3764,92.8933 59.5,93.5C 57.9547,94.4519 56.288,94.7852 54.5,94.5C 48.7414,94.7857 43.0748,94.4524 37.5,93.5C 37.5,90.5 37.5,87.5 37.5,84.5 Z"/></g>
<g><path style="opacity:0.892" fill="#2b2520" d="M 37.5,93.5 C 43.0748,94.4524 48.7414,94.7857 54.5,94.5C 54.5,94.8333 54.5,95.1667 54.5,95.5C 48.4018,96.1167 42.7351,95.45 37.5,93.5 Z"/></g>
</svg>
