<?xml version="1.0" encoding="UTF-8"?>
<!DOCTYPE svg PUBLIC "-//W3C//DTD SVG 1.1//EN" "http://www.w3.org/Graphics/SVG/1.1/DTD/svg11.dtd">
<svg xmlns="http://www.w3.org/2000/svg" version="1.1" width="100px" height="100px" style="shape-rendering:geometricPrecision; text-rendering:geometricPrecision; image-rendering:optimizeQuality; fill-rule:evenodd; clip-rule:evenodd" xmlns:xlink="http://www.w3.org/1999/xlink">
<g><path style="opacity:0.199" fill="#010201" d="M 62.5,99.5 C 53.8333,99.5 45.1667,99.5 36.5,99.5C 32.0181,98.6745 27.3514,98.1745 22.5,98C 17.6892,97.2272 15.0225,94.3939 14.5,89.5C 13.1861,88.6872 12.0195,87.6872 11,86.5C 10.3333,78.1667 10.3333,69.8333 11,61.5C 12.7566,56.9694 14.2566,52.3028 15.5,47.5C 14.0549,39.1637 12.7216,30.8303 11.5,22.5C 12.4073,12.2656 18.074,7.26557 28.5,7.5C 30.9649,7.47772 33.2983,7.97772 35.5,9C 37.9415,13.9369 41.9415,15.7702 47.5,14.5C 50.1667,14.3333 52.8333,14.1667 55.5,14C 56.8333,11.3333 58.8333,9.33333 61.5,8C 69.7813,6.07827 76.6146,8.24494 82,14.5C 82.8078,16.4233 83.3078,18.4233 83.5,20.5C 81.3644,28.039 80.031,35.7057 79.5,43.5C 79.6667,46.1667 79.8333,48.8333 80,51.5C 81.7342,53.234 83.0676,55.234 84,57.5C 84.6667,67.1667 84.6667,76.8333 84,86.5C 81.8877,89.6607 80.0544,92.994 78.5,96.5C 73.1051,97.8573 67.7718,98.8573 62.5,99.5 Z"/></g>
<g><path style="opacity:1" fill="#242725" d="M 70.5,11.5 C 68.7682,13.3707 66.6016,14.704 64,15.5C 63.7216,14.5842 63.2216,13.9175 62.5,13.5C 64.2244,11.8375 66.3911,10.8375 69,10.5C 69.7648,10.5699 70.2648,10.9033 70.5,11.5 Z"/></g>
<g><path style="opacity:1" fill="#3b3b39" d="M 70.5,11.5 C 72.0858,12.1481 73.7525,12.6481 75.5,13C 76.2524,13.6708 76.5858,14.5041 76.5,15.5C 74.2928,14.2607 71.9595,13.7607 69.5,14C 71.5,15 73.5,16 75.5,17C 74.6721,17.9147 73.6721,18.5814 72.5,19C 75,19.8333 75.1667,21 73,22.5C 70.985,21.1577 68.8183,20.6577 66.5,21C 66.8333,21.3333 67.1667,21.6667 67.5,22C 61.8431,22.4994 56.1764,22.6661 50.5,22.5C 51.2341,21.2921 51.5674,19.9587 51.5,18.5C 56.5253,19.611 60.192,17.9443 62.5,13.5C 63.2216,13.9175 63.7216,14.5842 64,15.5C 66.6016,14.704 68.7682,13.3707 70.5,11.5 Z"/></g>
<g><path style="opacity:1" fill="#282b29" d="M 35.5,15.5 C 32.8813,17.7727 31.0479,20.4394 30,23.5C 36.7445,22.5212 43.5778,22.1878 50.5,22.5C 56.1764,22.6661 61.8431,22.4994 67.5,22C 67.1667,21.6667 66.8333,21.3333 66.5,21C 68.8183,20.6577 70.985,21.1577 73,22.5C 75.1667,21 75,19.8333 72.5,19C 73.6721,18.5814 74.6721,17.9147 75.5,17C 73.5,16 71.5,15 69.5,14C 71.9595,13.7607 74.2928,14.2607 76.5,15.5C 77.172,16.2674 78.0053,16.9341 79,17.5C 79.7958,20.0385 79.6291,22.3718 78.5,24.5C 78.5432,20.1074 78.0432,19.7741 77,23.5C 76.6667,22.8333 76.3333,22.1667 76,21.5C 74.1741,23.0738 72.0075,23.9071 69.5,24C 55.1407,24.8 40.8074,24.6333 26.5,23.5C 23.6345,23.7446 21.4678,25.0779 20,27.5C 19.6667,26.8333 19.3333,26.1667 19,25.5C 18.6012,25.7284 18.4346,26.0618 18.5,26.5C 17.2578,23.2598 17.4245,19.9264 19,16.5C 19.5354,18.2705 20.3687,18.6039 21.5,17.5C 20.3554,16.109 20.3554,14.7757 21.5,13.5C 24.9476,11.5068 28.4476,10.5068 32,10.5C 33.1764,12.1957 34.343,13.8624 35.5,15.5 Z"/></g>
<g><path style="opacity:1" fill="#373837" d="M 35.5,15.5 C 35.6107,16.1174 35.944,16.6174 36.5,17C 41.4482,18.0498 46.4482,18.5498 51.5,18.5C 51.5674,19.9587 51.2341,21.2921 50.5,22.5C 43.5778,22.1878 36.7445,22.5212 30,23.5C 31.0479,20.4394 32.8813,17.7727 35.5,15.5 Z"/></g>
<g><path style="opacity:1" fill="#3b3f3d" d="M 78.5,24.5 C 77.7287,27.454 77.062,30.454 76.5,33.5C 75.9424,31.2106 74.7757,29.2106 73,27.5C 73.3308,29.0187 73.1641,30.352 72.5,31.5C 67.1667,31.5 61.8333,31.5 56.5,31.5C 45.5,31.5 34.5,31.5 23.5,31.5C 26.0826,30.7761 28.7493,29.9428 31.5,29C 27.1132,28.2938 22.7799,28.4604 18.5,29.5C 18.5,28.5 18.5,27.5 18.5,26.5C 18.4346,26.0618 18.6012,25.7284 19,25.5C 19.3333,26.1667 19.6667,26.8333 20,27.5C 21.4678,25.0779 23.6345,23.7446 26.5,23.5C 40.8074,24.6333 55.1407,24.8 69.5,24C 72.0075,23.9071 74.1741,23.0738 76,21.5C 76.3333,22.1667 76.6667,22.8333 77,23.5C 78.0432,19.7741 78.5432,20.1074 78.5,24.5 Z"/></g>
<g><path style="opacity:1" fill="#2a2e2c" d="M 23.5,31.5 C 22.8501,31.8039 22.1835,32.1373 21.5,32.5C 20.8302,34.2914 20.1635,35.9581 19.5,37.5C 19.4249,34.7938 19.0916,32.1272 18.5,29.5C 22.7799,28.4604 27.1132,28.2938 31.5,29C 28.7493,29.9428 26.0826,30.7761 23.5,31.5 Z"/></g>
<g><path style="opacity:1" fill="#333533" d="M 76.5,33.5 C 76.6049,38.4008 76.2716,43.4008 75.5,48.5C 72.9704,43.2454 71.9704,37.5788 72.5,31.5C 73.1641,30.352 73.3308,29.0187 73,27.5C 74.7757,29.2106 75.9424,31.2106 76.5,33.5 Z"/></g>
<g><path style="opacity:1" fill="#1c1e1d" d="M 23.5,31.5 C 34.5,31.5 45.5,31.5 56.5,31.5C 57.8502,32.6499 57.6836,33.3166 56,33.5C 54.5349,32.6705 53.0349,32.5038 51.5,33C 51.8679,34.473 51.3679,35.973 50,37.5C 49.5814,36.3279 48.9147,35.3279 48,34.5C 47.564,36.2957 48.2307,37.6291 50,38.5C 51.3264,37.2011 52.6598,35.8678 54,34.5C 54.5,35.5 55,36.5 55.5,37.5C 53.5,39.3271 51.3333,40.9938 49,42.5C 46.066,39.5803 44.566,40.247 44.5,44.5C 47.0747,43.7207 49.408,43.8873 51.5,45C 50.1667,45.6667 50.1667,46.3333 51.5,47C 54.2464,48.7497 57.2464,49.7497 60.5,50C 56.3123,50.1762 52.3123,50.6762 48.5,51.5C 47.8333,51.5 47.1667,51.5 46.5,51.5C 38.9613,50.2218 31.2947,50.3885 23.5,52C 22.1667,53 22.1667,54 23.5,55C 22.244,55.4169 21.5774,56.2502 21.5,57.5C 20.5929,65.7921 20.2596,74.1254 20.5,82.5C 19.7978,83.1157 18.7978,83.1157 17.5,82.5C 17.3336,74.4931 17.5003,66.4931 18,58.5C 19.5,54.6667 21,50.8333 22.5,47C 21.1836,43.9016 20.1836,40.7349 19.5,37.5C 20.1635,35.9581 20.8302,34.2914 21.5,32.5C 22.1835,32.1373 22.8501,31.8039 23.5,31.5 Z"/></g>
<g><path style="opacity:1" fill="#1f2221" d="M 56.5,31.5 C 61.8333,31.5 67.1667,31.5 72.5,31.5C 71.9704,37.5788 72.9704,43.2454 75.5,48.5C 75.4431,49.609 75.1098,50.609 74.5,51.5C 73.7321,50.7375 73.2321,49.7375 73,48.5C 72.6258,49.4162 72.1258,50.2496 71.5,51C 63.8406,51.4997 56.1739,51.6664 48.5,51.5C 52.3123,50.6762 56.3123,50.1762 60.5,50C 57.2464,49.7497 54.2464,48.7497 51.5,47C 50.1667,46.3333 50.1667,45.6667 51.5,45C 49.408,43.8873 47.0747,43.7207 44.5,44.5C 44.566,40.247 46.066,39.5803 49,42.5C 51.3333,40.9938 53.5,39.3271 55.5,37.5C 55,36.5 54.5,35.5 54,34.5C 52.6598,35.8678 51.3264,37.2011 50,38.5C 48.2307,37.6291 47.564,36.2957 48,34.5C 48.9147,35.3279 49.5814,36.3279 50,37.5C 51.3679,35.973 51.8679,34.473 51.5,33C 53.0349,32.5038 54.5349,32.6705 56,33.5C 57.6836,33.3166 57.8502,32.6499 56.5,31.5 Z"/></g>
<g><path style="opacity:1" fill="#252926" d="M 46.5,51.5 C 41.1667,51.5 35.8333,51.5 30.5,51.5C 30.2627,52.791 30.596,53.791 31.5,54.5C 31.5858,55.4959 31.2524,56.3292 30.5,57C 32.4386,57.9078 33.4386,59.4078 33.5,61.5C 29.8815,62.2436 26.2148,62.577 22.5,62.5C 22.7845,60.5853 22.4511,58.9187 21.5,57.5C 21.5774,56.2502 22.244,55.4169 23.5,55C 22.1667,54 22.1667,53 23.5,52C 31.2947,50.3885 38.9613,50.2218 46.5,51.5 Z"/></g>
<g><path style="opacity:1" fill="#3b403d" d="M 74.5,51.5 C 75.1667,51.5 75.5,51.8333 75.5,52.5C 75.4431,53.609 75.1098,54.609 74.5,55.5C 72.8995,57.2978 72.5662,59.2978 73.5,61.5C 71.9547,62.4519 70.288,62.7852 68.5,62.5C 68.7678,60.901 68.4345,59.5676 67.5,58.5C 56.8626,57.8778 46.196,57.2112 35.5,56.5C 34.6798,54.8888 33.3464,54.2222 31.5,54.5C 30.596,53.791 30.2627,52.791 30.5,51.5C 35.8333,51.5 41.1667,51.5 46.5,51.5C 47.1667,51.5 47.8333,51.5 48.5,51.5C 56.1739,51.6664 63.8406,51.4997 71.5,51C 72.1258,50.2496 72.6258,49.4162 73,48.5C 73.2321,49.7375 73.7321,50.7375 74.5,51.5 Z"/></g>
<g><path style="opacity:1" fill="#222523" d="M 75.5,52.5 C 79.0894,54.6711 80.0894,57.6711 78.5,61.5C 77.391,61.5569 76.391,61.8902 75.5,62.5C 75.8016,59.9407 75.4682,57.6074 74.5,55.5C 75.1098,54.609 75.4431,53.609 75.5,52.5 Z"/></g>
<g><path style="opacity:1" fill="#383a38" d="M 31.5,54.5 C 33.3464,54.2222 34.6798,54.8888 35.5,56.5C 46.196,57.2112 56.8626,57.8778 67.5,58.5C 63.3419,58.4202 59.0086,58.7536 54.5,59.5C 53.9747,60.1924 53.3081,60.6924 52.5,61C 53.8333,61.3333 55.1667,61.6667 56.5,62C 51.9842,62.7701 47.6509,63.2701 43.5,63.5C 45.5668,64.1341 47.4002,65.1341 49,66.5C 49.804,65.1955 50.9707,64.5288 52.5,64.5C 57.6955,64.7379 62.8622,65.0712 68,65.5C 69.5671,64.1439 71.4004,63.4772 73.5,63.5C 73.5,66.1667 73.5,68.8333 73.5,71.5C 72.1266,71.6567 70.7932,71.49 69.5,71C 70.3081,70.6924 70.9747,70.1924 71.5,69.5C 69.0628,68.0744 66.5628,66.741 64,65.5C 61.0964,67.2268 57.9297,67.8935 54.5,67.5C 54.5,68.8333 54.5,70.1667 54.5,71.5C 50.774,71.1774 47.1073,71.5108 43.5,72.5C 43.9996,73.8805 44.9996,74.5472 46.5,74.5C 49.1304,74.4637 51.7971,74.4637 54.5,74.5C 55.5,74.1667 56.1667,73.5 56.5,72.5C 55.6744,71.549 55.5078,70.549 56,69.5C 57.3988,70.2266 58.8988,70.7266 60.5,71C 56.6603,72.6399 56.6603,74.1399 60.5,75.5C 58.604,76.4656 56.604,76.7989 54.5,76.5C 54.7692,78.4286 54.2692,80.0953 53,81.5C 50.5341,80.2234 48.0341,80.2234 45.5,81.5C 45.7093,82.086 46.0426,82.586 46.5,83C 51.5,83.3333 56.5,83.6667 61.5,84C 59.1902,84.4966 56.8568,84.6633 54.5,84.5C 54.5,85.5 54.5,86.5 54.5,87.5C 56.5,87.5 58.5,87.5 60.5,87.5C 58.0521,88.4731 55.3854,88.8064 52.5,88.5C 48.8333,88.5 45.1667,88.5 41.5,88.5C 41.7852,86.712 41.4519,85.0453 40.5,83.5C 38.5247,82.7248 37.6913,81.3914 38,79.5C 39.3675,81.8146 40.2009,81.8146 40.5,79.5C 40.1822,78.3527 39.5156,77.5194 38.5,77C 39.4158,76.7216 40.0825,76.2216 40.5,75.5C 40.7461,71.8494 40.7461,68.3494 40.5,65C 39.0563,64.2195 37.723,64.3861 36.5,65.5C 35.846,67.1151 35.346,68.7818 35,70.5C 34.7489,68.567 34.2489,66.7337 33.5,65C 29.7887,64.1747 26.122,64.3414 22.5,65.5C 23.3094,67.0709 23.6427,68.7376 23.5,70.5C 26.0336,70.2591 27.7002,71.2591 28.5,73.5C 29.6664,75.166 29.6664,76.8327 28.5,78.5C 27.6759,75.3369 25.6759,73.6702 22.5,73.5C 22.3337,77.0021 23.3337,80.0021 25.5,82.5C 24.5178,81.8592 23.5178,81.1925 22.5,80.5C 21.3044,80.8457 21.3044,81.3457 22.5,82C 21.9056,82.4643 21.2389,82.631 20.5,82.5C 20.2596,74.1254 20.5929,65.7921 21.5,57.5C 22.4511,58.9187 22.7845,60.5853 22.5,62.5C 26.2148,62.577 29.8815,62.2436 33.5,61.5C 33.4386,59.4078 32.4386,57.9078 30.5,57C 31.2524,56.3292 31.5858,55.4959 31.5,54.5 Z"/></g>
<g><path style="opacity:1" fill="#242927" d="M 75.5,70.5 C 75.5,69.1667 75.5,67.8333 75.5,66.5C 76.5832,66.4606 77.5832,66.1272 78.5,65.5C 79.8452,68.4692 78.8452,70.1359 75.5,70.5 Z"/></g>
<g><path style="opacity:1" fill="#171818" d="M 78.5,61.5 C 79.6019,64.4273 80.6019,67.4273 81.5,70.5C 80.2556,73.8106 80.2556,77.1439 81.5,80.5C 81.2462,82.4172 80.2462,83.7505 78.5,84.5C 77.791,83.596 76.791,83.2627 75.5,83.5C 76.3876,80.2862 77.721,77.2862 79.5,74.5C 78.1779,74.33 77.0113,74.6634 76,75.5C 75.5065,73.8659 75.3398,72.1992 75.5,70.5C 78.8452,70.1359 79.8452,68.4692 78.5,65.5C 77.5832,66.1272 76.5832,66.4606 75.5,66.5C 75.5,65.1667 75.5,63.8333 75.5,62.5C 76.391,61.8902 77.391,61.5569 78.5,61.5 Z"/></g>
<g><path style="opacity:1" fill="#414442" d="M 74.5,55.5 C 75.4682,57.6074 75.8016,59.9407 75.5,62.5C 75.5,63.8333 75.5,65.1667 75.5,66.5C 75.5,67.8333 75.5,69.1667 75.5,70.5C 74.6762,74.3123 74.1762,78.3123 74,82.5C 73.4387,81.9781 72.772,81.6448 72,81.5C 69.0876,83.0657 65.9209,83.899 62.5,84C 65.4816,84.498 68.4816,84.6646 71.5,84.5C 71.5,85.5 71.5,86.5 71.5,87.5C 67.8333,87.5 64.1667,87.5 60.5,87.5C 58.5,87.5 56.5,87.5 54.5,87.5C 54.5,86.5 54.5,85.5 54.5,84.5C 56.8568,84.6633 59.1902,84.4966 61.5,84C 56.5,83.6667 51.5,83.3333 46.5,83C 46.0426,82.586 45.7093,82.086 45.5,81.5C 48.0341,80.2234 50.5341,80.2234 53,81.5C 54.2692,80.0953 54.7692,78.4286 54.5,76.5C 56.604,76.7989 58.604,76.4656 60.5,75.5C 56.6603,74.1399 56.6603,72.6399 60.5,71C 58.8988,70.7266 57.3988,70.2266 56,69.5C 55.5078,70.549 55.6744,71.549 56.5,72.5C 56.1667,73.5 55.5,74.1667 54.5,74.5C 51.7971,74.4637 49.1304,74.4637 46.5,74.5C 44.9996,74.5472 43.9996,73.8805 43.5,72.5C 47.1073,71.5108 50.774,71.1774 54.5,71.5C 54.5,70.1667 54.5,68.8333 54.5,67.5C 57.9297,67.8935 61.0964,67.2268 64,65.5C 66.5628,66.741 69.0628,68.0744 71.5,69.5C 70.9747,70.1924 70.3081,70.6924 69.5,71C 70.7932,71.49 72.1266,71.6567 73.5,71.5C 73.5,68.8333 73.5,66.1667 73.5,63.5C 71.4004,63.4772 69.5671,64.1439 68,65.5C 62.8622,65.0712 57.6955,64.7379 52.5,64.5C 50.9707,64.5288 49.804,65.1955 49,66.5C 47.4002,65.1341 45.5668,64.1341 43.5,63.5C 47.6509,63.2701 51.9842,62.7701 56.5,62C 55.1667,61.6667 53.8333,61.3333 52.5,61C 53.3081,60.6924 53.9747,60.1924 54.5,59.5C 59.0086,58.7536 63.3419,58.4202 67.5,58.5C 68.4345,59.5676 68.7678,60.901 68.5,62.5C 70.288,62.7852 71.9547,62.4519 73.5,61.5C 72.5662,59.2978 72.8995,57.2978 74.5,55.5 Z"/></g>
<g><path style="opacity:1" fill="#292b29" d="M 40.5,75.5 C 37.2819,75.3491 36.9485,74.5158 39.5,73C 38.4366,71.8118 37.1033,71.3118 35.5,71.5C 34.8641,74.1062 34.8641,76.6062 35.5,79C 32.7016,80.9365 31.0349,80.1031 30.5,76.5C 30.1592,73.7266 30.9925,73.06 33,74.5C 34.2575,74.1501 34.5908,73.4835 34,72.5C 31.3509,69.537 29.5175,69.8703 28.5,73.5C 27.7002,71.2591 26.0336,70.2591 23.5,70.5C 23.6427,68.7376 23.3094,67.0709 22.5,65.5C 26.122,64.3414 29.7887,64.1747 33.5,65C 34.2489,66.7337 34.7489,68.567 35,70.5C 35.346,68.7818 35.846,67.1151 36.5,65.5C 37.723,64.3861 39.0563,64.2195 40.5,65C 40.7461,68.3494 40.7461,71.8494 40.5,75.5 Z"/></g>
<g><path style="opacity:1" fill="#303230" d="M 40.5,75.5 C 40.0825,76.2216 39.4158,76.7216 38.5,77C 39.5156,77.5194 40.1822,78.3527 40.5,79.5C 40.2009,81.8146 39.3675,81.8146 38,79.5C 37.6913,81.3914 38.5247,82.7248 40.5,83.5C 41.4519,85.0453 41.7852,86.712 41.5,88.5C 37.8183,88.6653 34.1516,88.4986 30.5,88C 29.0798,86.47 28.0798,84.6367 27.5,82.5C 26.5712,83.5498 25.9046,83.5498 25.5,82.5C 23.3337,80.0021 22.3337,77.0021 22.5,73.5C 25.6759,73.6702 27.6759,75.3369 28.5,78.5C 29.6664,76.8327 29.6664,75.166 28.5,73.5C 29.5175,69.8703 31.3509,69.537 34,72.5C 34.5908,73.4835 34.2575,74.1501 33,74.5C 30.9925,73.06 30.1592,73.7266 30.5,76.5C 31.0349,80.1031 32.7016,80.9365 35.5,79C 34.8641,76.6062 34.8641,74.1062 35.5,71.5C 37.1033,71.3118 38.4366,71.8118 39.5,73C 36.9485,74.5158 37.2819,75.3491 40.5,75.5 Z"/></g>
<g><path style="opacity:0.967" fill="#2e3230" d="M 75.5,70.5 C 75.3398,72.1992 75.5065,73.8659 76,75.5C 77.0113,74.6634 78.1779,74.33 79.5,74.5C 77.721,77.2862 76.3876,80.2862 75.5,83.5C 76.791,83.2627 77.791,83.596 78.5,84.5C 77.7148,86.3736 77.0482,88.3736 76.5,90.5C 68.4417,89.3559 60.4417,89.3559 52.5,90.5C 52.5,89.8333 52.5,89.1667 52.5,88.5C 55.3854,88.8064 58.0521,88.4731 60.5,87.5C 64.1667,87.5 67.8333,87.5 71.5,87.5C 71.5,86.5 71.5,85.5 71.5,84.5C 68.4816,84.6646 65.4816,84.498 62.5,84C 65.9209,83.899 69.0876,83.0657 72,81.5C 72.772,81.6448 73.4387,81.9781 74,82.5C 74.1762,78.3123 74.6762,74.3123 75.5,70.5 Z"/></g>
<g><path style="opacity:1" fill="#212321" d="M 25.5,82.5 C 25.9046,83.5498 26.5712,83.5498 27.5,82.5C 28.0798,84.6367 29.0798,86.47 30.5,88C 34.1516,88.4986 37.8183,88.6653 41.5,88.5C 45.1667,88.5 48.8333,88.5 52.5,88.5C 52.5,89.1667 52.5,89.8333 52.5,90.5C 52.5654,90.9382 52.3988,91.2716 52,91.5C 50.5993,89.8078 48.7659,89.1412 46.5,89.5C 46.5,90.8333 46.5,92.1667 46.5,93.5C 43.8333,93.5 41.1667,93.5 38.5,93.5C 40.2922,92.6909 42.2922,92.1909 44.5,92C 39.2924,90.3249 33.9591,89.4916 28.5,89.5C 28.5,90.5 28.5,91.5 28.5,92.5C 31.3854,92.1936 34.0521,92.5269 36.5,93.5C 32.0848,93.6946 27.7514,93.1946 23.5,92C 22.2916,88.3416 20.2916,85.1749 17.5,82.5C 18.7978,83.1157 19.7978,83.1157 20.5,82.5C 21.2389,82.631 21.9056,82.4643 22.5,82C 21.3044,81.3457 21.3044,80.8457 22.5,80.5C 23.5178,81.1925 24.5178,81.8592 25.5,82.5 Z"/></g>
<g><path style="opacity:1" fill="#2f322f" d="M 38.5,93.5 C 37.8333,93.5 37.1667,93.5 36.5,93.5C 34.0521,92.5269 31.3854,92.1936 28.5,92.5C 28.5,91.5 28.5,90.5 28.5,89.5C 33.9591,89.4916 39.2924,90.3249 44.5,92C 42.2922,92.1909 40.2922,92.6909 38.5,93.5 Z"/></g>
<g><path style="opacity:0.957" fill="#3f403e" d="M 52.5,90.5 C 60.4417,89.3559 68.4417,89.3559 76.5,90.5C 74.9739,92.13 72.9739,92.9633 70.5,93C 62.5069,93.4997 54.5069,93.6664 46.5,93.5C 46.5,92.1667 46.5,90.8333 46.5,89.5C 48.7659,89.1412 50.5993,89.8078 52,91.5C 52.3988,91.2716 52.5654,90.9382 52.5,90.5 Z"/></g>
</svg>
