<?xml version="1.0" encoding="UTF-8"?>
<!DOCTYPE svg PUBLIC "-//W3C//DTD SVG 1.1//EN" "http://www.w3.org/Graphics/SVG/1.1/DTD/svg11.dtd">
<svg xmlns="http://www.w3.org/2000/svg" version="1.1" width="512px" height="512px" style="shape-rendering:geometricPrecision; text-rendering:geometricPrecision; image-rendering:optimizeQuality; fill-rule:evenodd; clip-rule:evenodd" xmlns:xlink="http://www.w3.org/1999/xlink">
<g><path style="opacity:0.978" fill="#000000" d="M 341.5,31.5 C 366.3,28.9806 390.3,32.1473 413.5,41C 453.901,60.4271 475.735,92.5938 479,137.5C 462.352,111.237 438.352,98.2373 407,98.5C 372.003,101.054 339.169,110.888 308.5,128C 219.389,175.776 154.556,245.943 114,338.5C 104.879,360.439 99.7122,383.272 98.5,407C 98.191,437.889 110.858,461.722 136.5,478.5C 89.8817,474.932 57.3817,451.599 39,408.5C 31.8854,386.706 29.5521,364.373 32,341.5C 37.882,300.186 51.882,261.853 74,226.5C 113.5,164.333 164.333,113.5 226.5,74C 262.053,51.9862 300.386,37.8195 341.5,31.5 Z M 227.5,99.5 C 237.833,99.5 248.167,99.5 258.5,99.5C 258.5,109.833 258.5,120.167 258.5,130.5C 248.167,130.5 237.833,130.5 227.5,130.5C 227.5,120.167 227.5,109.833 227.5,99.5 Z M 159.5,159.5 C 170.167,159.5 180.833,159.5 191.5,159.5C 191.5,170.167 191.5,180.833 191.5,191.5C 180.833,191.5 170.167,191.5 159.5,191.5C 159.5,180.833 159.5,170.167 159.5,159.5 Z M 99.5,227.5 C 109.833,227.5 120.167,227.5 130.5,227.5C 130.5,237.833 130.5,248.167 130.5,258.5C 120.167,258.5 109.833,258.5 99.5,258.5C 99.5,248.167 99.5,237.833 99.5,227.5 Z"/></g>
<g><path style="opacity:0.981" fill="#000000" d="M 391.5,123.5 C 411.079,120.983 429.412,124.483 446.5,134C 462.418,147.695 469.751,165.195 468.5,186.5C 467.631,210.277 462.131,232.944 452,254.5C 445.202,269.599 437.202,283.932 428,297.5C 408.67,317.45 387.503,319.616 364.5,304C 350.089,289.614 346.255,272.78 353,253.5C 373.766,222.205 386.433,187.872 391,150.5C 391.5,141.506 391.666,132.506 391.5,123.5 Z"/></g>
<g><path style="opacity:0.981" fill="#000000" d="M 265.5,349.5 C 297.639,350.138 313.805,366.472 314,398.5C 311.676,413.155 304.176,424.321 291.5,432C 263.033,450.49 232.033,462.49 198.5,468C 143.7,471.976 118.7,446.476 123.5,391.5C 155.149,392.537 185.483,386.704 214.5,374C 227.978,367.763 240.978,360.763 253.5,353C 257.543,351.509 261.543,350.342 265.5,349.5 Z"/></g>
</svg>
