<?xml version="1.0" encoding="UTF-8"?>
<!DOCTYPE svg PUBLIC "-//W3C//DTD SVG 1.1//EN" "http://www.w3.org/Graphics/SVG/1.1/DTD/svg11.dtd">
<svg xmlns="http://www.w3.org/2000/svg" version="1.1" width="100px" height="100px" style="shape-rendering:geometricPrecision; text-rendering:geometricPrecision; image-rendering:optimizeQuality; fill-rule:evenodd; clip-rule:evenodd" xmlns:xlink="http://www.w3.org/1999/xlink">
<g><path style="opacity:0.525" fill="#e6c4a6" d="M 36.5,12.5 C 35.8333,12.5 35.1667,12.5 34.5,12.5C 33.7375,11.7321 32.7375,11.2321 31.5,11C 27.8484,10.5014 24.1817,10.3347 20.5,10.5C 17.0787,10.5176 14.4121,11.851 12.5,14.5C 12.5,14.8333 12.5,15.1667 12.5,15.5C 10.7697,16.0256 9.43634,17.0256 8.5,18.5C 8.16667,18.5 7.83333,18.5 7.5,18.5C 12.2234,9.95062 19.5568,6.78396 29.5,9C 32.2813,9.52184 34.6146,10.6885 36.5,12.5 Z"/></g>
<g><path style="opacity:1" fill="#c5762e" d="M 20.5,10.5 C 19.8333,11.1667 19.1667,11.8333 18.5,12.5C 16.8712,13.6253 15.3712,14.9586 14,16.5C 13.7216,15.5842 13.2216,14.9175 12.5,14.5C 14.4121,11.851 17.0787,10.5176 20.5,10.5 Z"/></g>
<g><path style="opacity:1" fill="#c96d17" d="M 20.5,10.5 C 24.1817,10.3347 27.8484,10.5014 31.5,11C 32.7375,11.2321 33.7375,11.7321 34.5,12.5C 33.5084,12.3284 32.8417,12.6618 32.5,13.5C 31.8333,13.5 31.1667,13.5 30.5,13.5C 29.0539,12.0598 27.2206,11.3932 25,11.5C 22.813,11.7885 20.6463,12.1218 18.5,12.5C 19.1667,11.8333 19.8333,11.1667 20.5,10.5 Z"/></g>
<g><path style="opacity:1" fill="#cc6e05" d="M 30.5,13.5 C 26.8183,13.3347 23.1516,13.5014 19.5,14C 18.0577,14.3768 17.0577,15.2101 16.5,16.5C 15.2921,17.2341 13.9587,17.5674 12.5,17.5C 12.5,16.8333 12.5,16.1667 12.5,15.5C 12.5,15.1667 12.5,14.8333 12.5,14.5C 13.2216,14.9175 13.7216,15.5842 14,16.5C 15.3712,14.9586 16.8712,13.6253 18.5,12.5C 20.6463,12.1218 22.813,11.7885 25,11.5C 27.2206,11.3932 29.0539,12.0598 30.5,13.5 Z"/></g>
<g><path style="opacity:1" fill="#d68014" d="M 30.5,13.5 C 31.1667,13.5 31.8333,13.5 32.5,13.5C 32.5,14.1667 32.1667,14.5 31.5,14.5C 28.4281,14.1826 25.4281,14.5159 22.5,15.5C 21.2889,16.7202 21.2889,17.8869 22.5,19C 21.2625,19.2321 20.2625,19.7321 19.5,20.5C 18.0221,19.5525 17.0221,18.2191 16.5,16.5C 17.0577,15.2101 18.0577,14.3768 19.5,14C 23.1516,13.5014 26.8183,13.3347 30.5,13.5 Z"/></g>
<g><path style="opacity:1" fill="#e39343" d="M 38.5,13.5 C 42.3633,14.6936 45.3633,17.027 47.5,20.5C 44.9242,20.5321 42.5909,19.8654 40.5,18.5C 39.791,17.596 38.791,17.2627 37.5,17.5C 36.2825,16.8386 34.9492,16.1719 33.5,15.5C 34.5821,15.2514 35.9154,15.0848 37.5,15C 38.056,14.6174 38.3893,14.1174 38.5,13.5 Z"/></g>
<g><path style="opacity:1" fill="#dc8324" d="M 34.5,12.5 C 35.1667,12.5 35.8333,12.5 36.5,12.5C 37.4916,12.3284 38.1583,12.6618 38.5,13.5C 38.3893,14.1174 38.056,14.6174 37.5,15C 35.9154,15.0848 34.5821,15.2514 33.5,15.5C 34.9492,16.1719 36.2825,16.8386 37.5,17.5C 35.1432,17.6633 32.8098,17.4966 30.5,17C 32.6192,16.6582 32.9526,15.8249 31.5,14.5C 32.1667,14.5 32.5,14.1667 32.5,13.5C 32.8417,12.6618 33.5084,12.3284 34.5,12.5 Z"/></g>
<g><path style="opacity:1" fill="#c3700c" d="M 16.5,16.5 C 17.0221,18.2191 18.0221,19.5525 19.5,20.5C 19.1583,21.3382 18.4916,21.6716 17.5,21.5C 16.8333,21.5 16.1667,21.5 15.5,21.5C 13.8595,22.147 12.5261,23.147 11.5,24.5C 11.179,23.1825 10.8457,21.8492 10.5,20.5C 10.4534,18.9623 11.1201,17.9623 12.5,17.5C 13.9587,17.5674 15.2921,17.2341 16.5,16.5 Z"/></g>
<g><path style="opacity:1" fill="#c96a06" d="M 31.5,14.5 C 32.9526,15.8249 32.6192,16.6582 30.5,17C 32.8098,17.4966 35.1432,17.6633 37.5,17.5C 38.791,17.2627 39.791,17.596 40.5,18.5C 39.1667,18.5 37.8333,18.5 36.5,18.5C 33.6146,18.1936 30.9479,18.5269 28.5,19.5C 26.6208,20.3414 24.6208,20.6747 22.5,20.5C 21.5,20.5 20.5,20.5 19.5,20.5C 20.2625,19.7321 21.2625,19.2321 22.5,19C 21.2889,17.8869 21.2889,16.7202 22.5,15.5C 25.4281,14.5159 28.4281,14.1826 31.5,14.5 Z"/></g>
<g><path style="opacity:1" fill="#c56317" d="M 36.5,18.5 C 37.8333,18.5 39.1667,18.5 40.5,18.5C 42.5909,19.8654 44.9242,20.5321 47.5,20.5C 48.5,20.8333 49.1667,21.5 49.5,22.5C 49.38,23.5862 48.7133,24.2528 47.5,24.5C 45.5466,23.8444 43.5466,23.5111 41.5,23.5C 41.1667,23.5 40.8333,23.5 40.5,23.5C 39.5398,21.5393 38.2065,19.8726 36.5,18.5 Z"/></g>
<g><path style="opacity:1" fill="#b86b1d" d="M 12.5,15.5 C 12.5,16.1667 12.5,16.8333 12.5,17.5C 11.1201,17.9623 10.4534,18.9623 10.5,20.5C 10.8457,21.8492 11.179,23.1825 11.5,24.5C 11.1667,26.5 10.8333,28.5 10.5,30.5C 8.75006,26.8171 8.08339,22.8171 8.5,18.5C 9.43634,17.0256 10.7697,16.0256 12.5,15.5 Z"/></g>
<g><path style="opacity:1" fill="#a83f00" d="M 28.5,19.5 C 28.5,21.1667 28.5,22.8333 28.5,24.5C 26.5,24.5 24.5,24.5 22.5,24.5C 22.0472,23.5416 21.3805,22.7083 20.5,22C 21.4158,21.7216 22.0825,21.2216 22.5,20.5C 24.6208,20.6747 26.6208,20.3414 28.5,19.5 Z"/></g>
<g><path style="opacity:1" fill="#af4500" d="M 28.5,19.5 C 30.1992,19.3398 31.8659,19.5065 33.5,20C 30.8622,22.0934 31.1955,23.5934 34.5,24.5C 33.8333,24.5 33.1667,24.5 32.5,24.5C 30.2143,24.595 28.2143,25.2616 26.5,26.5C 26.1667,26.5 25.8333,26.5 25.5,26.5C 24.609,25.8902 23.609,25.5569 22.5,25.5C 22.5,25.1667 22.5,24.8333 22.5,24.5C 24.5,24.5 26.5,24.5 28.5,24.5C 28.5,22.8333 28.5,21.1667 28.5,19.5 Z"/></g>
<g><path style="opacity:1" fill="#b95203" d="M 28.5,19.5 C 30.9479,18.5269 33.6146,18.1936 36.5,18.5C 38.2065,19.8726 39.5398,21.5393 40.5,23.5C 38.5,23.8333 36.5,24.1667 34.5,24.5C 31.1955,23.5934 30.8622,22.0934 33.5,20C 31.8659,19.5065 30.1992,19.3398 28.5,19.5 Z"/></g>
<g><path style="opacity:0.081" fill="#e8e0d7" d="M 7.5,18.5 C 7.16667,21.1667 6.83333,23.8333 6.5,26.5C 5.0829,23.6596 5.41623,20.993 7.5,18.5 Z"/></g>
<g><path style="opacity:1" fill="#a84400" d="M 19.5,20.5 C 20.5,20.5 21.5,20.5 22.5,20.5C 22.0825,21.2216 21.4158,21.7216 20.5,22C 21.3805,22.7083 22.0472,23.5416 22.5,24.5C 22.5,24.8333 22.5,25.1667 22.5,25.5C 20.7839,25.6287 19.1172,25.962 17.5,26.5C 17.5,26.1667 17.5,25.8333 17.5,25.5C 17.5,24.1667 17.5,22.8333 17.5,21.5C 18.4916,21.6716 19.1583,21.3382 19.5,20.5 Z"/></g>
<g><path style="opacity:1" fill="#c78c53" d="M 7.5,18.5 C 7.83333,18.5 8.16667,18.5 8.5,18.5C 8.08339,22.8171 8.75006,26.8171 10.5,30.5C 10.5,30.8333 10.5,31.1667 10.5,31.5C 10.4431,32.609 10.1098,33.609 9.5,34.5C 7.4152,32.3155 6.4152,29.6489 6.5,26.5C 6.83333,23.8333 7.16667,21.1667 7.5,18.5 Z"/></g>
<g><path style="opacity:1" fill="#d77102" d="M 40.5,23.5 C 40.8333,23.5 41.1667,23.5 41.5,23.5C 41.5,24.1667 41.1667,24.5 40.5,24.5C 39.5084,24.3284 38.8417,24.6618 38.5,25.5C 36.5,25.5 35.5,26.5 35.5,28.5C 34.3478,29.625 33.3478,29.625 32.5,28.5C 31.1667,27.1667 31.1667,25.8333 32.5,24.5C 33.1667,24.5 33.8333,24.5 34.5,24.5C 36.5,24.1667 38.5,23.8333 40.5,23.5 Z"/></g>
<g><path style="opacity:1" fill="#e79142" d="M 49.5,22.5 C 51.7488,23.0798 53.4154,24.4131 54.5,26.5C 50.5468,25.5756 46.8802,25.5756 43.5,26.5C 42.2905,26.0679 41.2905,25.4013 40.5,24.5C 41.1667,24.5 41.5,24.1667 41.5,23.5C 43.5466,23.5111 45.5466,23.8444 47.5,24.5C 48.7133,24.2528 49.38,23.5862 49.5,22.5 Z"/></g>
<g><path style="opacity:1" fill="#b14f00" d="M 22.5,25.5 C 23.609,25.5569 24.609,25.8902 25.5,26.5C 24.3285,27.3446 22.9952,28.0113 21.5,28.5C 19.9519,28.8212 19.2852,29.8212 19.5,31.5C 19.1667,31.5 18.8333,31.5 18.5,31.5C 18.634,29.7085 18.3007,28.0418 17.5,26.5C 19.1172,25.962 20.7839,25.6287 22.5,25.5 Z"/></g>
<g><path style="opacity:1" fill="#cb6601" d="M 32.5,24.5 C 31.1667,25.8333 31.1667,27.1667 32.5,28.5C 30.8333,29.1667 29.1667,29.8333 27.5,30.5C 27.33,29.1779 27.6634,28.0113 28.5,27C 27.9056,26.5357 27.2389,26.369 26.5,26.5C 28.2143,25.2616 30.2143,24.595 32.5,24.5 Z"/></g>
<g><path style="opacity:1" fill="#e07e04" d="M 38.5,25.5 C 39.9525,26.8486 40.9525,28.5153 41.5,30.5C 38.7001,31.9032 37.2001,30.9032 37,27.5C 36.6174,28.056 36.1174,28.3893 35.5,28.5C 35.5,26.5 36.5,25.5 38.5,25.5 Z"/></g>
<g><path style="opacity:1" fill="#e48824" d="M 54.5,26.5 C 54.5858,27.4959 54.2524,28.3292 53.5,29C 55.3197,29.2004 56.653,30.0337 57.5,31.5C 56.5,31.5 55.5,31.5 54.5,31.5C 52.7354,30.5386 50.7354,30.2053 48.5,30.5C 48.2172,29.7109 47.7172,29.0442 47,28.5C 45.627,28.4037 44.127,28.5704 42.5,29C 43.2524,28.3292 43.5858,27.4959 43.5,26.5C 46.8802,25.5756 50.5468,25.5756 54.5,26.5 Z"/></g>
<g><path style="opacity:1" fill="#a44600" d="M 15.5,21.5 C 16.1667,21.5 16.8333,21.5 17.5,21.5C 17.5,22.8333 17.5,24.1667 17.5,25.5C 15.7587,27.3949 14.7587,29.7282 14.5,32.5C 13.0069,31.6879 12.3402,30.3545 12.5,28.5C 13.8709,26.3189 14.8709,23.9856 15.5,21.5 Z"/></g>
<g><path style="opacity:1" fill="#a13f00" d="M 17.5,25.5 C 17.5,25.8333 17.5,26.1667 17.5,26.5C 18.3007,28.0418 18.634,29.7085 18.5,31.5C 17.7784,31.0825 17.2784,30.4158 17,29.5C 16.79,31.0581 16.29,32.3915 15.5,33.5C 15.5,32.8333 15.1667,32.5 14.5,32.5C 14.7587,29.7282 15.7587,27.3949 17.5,25.5 Z"/></g>
<g><path style="opacity:1" fill="#e18015" d="M 40.5,24.5 C 41.2905,25.4013 42.2905,26.0679 43.5,26.5C 43.5858,27.4959 43.2524,28.3292 42.5,29C 44.127,28.5704 45.627,28.4037 47,28.5C 47.7172,29.0442 48.2172,29.7109 48.5,30.5C 46.1667,30.5 43.8333,30.5 41.5,30.5C 40.9525,28.5153 39.9525,26.8486 38.5,25.5C 38.8417,24.6618 39.5084,24.3284 40.5,24.5 Z"/></g>
<g><path style="opacity:1" fill="#f1b26f" d="M 54.5,26.5 C 56.914,27.9108 58.5806,29.9108 59.5,32.5C 58.8333,32.1667 58.1667,31.8333 57.5,31.5C 56.653,30.0337 55.3197,29.2004 53.5,29C 54.2524,28.3292 54.5858,27.4959 54.5,26.5 Z"/></g>
<g><path style="opacity:1" fill="#ad5802" d="M 15.5,21.5 C 14.8709,23.9856 13.8709,26.3189 12.5,28.5C 12.3402,30.3545 13.0069,31.6879 14.5,32.5C 15.1667,32.5 15.5,32.8333 15.5,33.5C 14.8826,33.6107 14.3826,33.944 14,34.5C 12.9609,33.2899 11.7942,32.2899 10.5,31.5C 10.5,31.1667 10.5,30.8333 10.5,30.5C 10.8333,28.5 11.1667,26.5 11.5,24.5C 12.5261,23.147 13.8595,22.147 15.5,21.5 Z"/></g>
<g><path style="opacity:1" fill="#ca7103" d="M 25.5,26.5 C 25.8333,26.5 26.1667,26.5 26.5,26.5C 27.2389,26.369 27.9056,26.5357 28.5,27C 27.6634,28.0113 27.33,29.1779 27.5,30.5C 26.3052,30.3225 25.1385,29.9891 24,29.5C 22.9701,29.8361 22.4701,30.5028 22.5,31.5C 21.4929,31.5476 21.1596,30.5476 21.5,28.5C 22.9952,28.0113 24.3285,27.3446 25.5,26.5 Z"/></g>
<g><path style="opacity:1" fill="#d87d05" d="M 32.5,28.5 C 33.3478,29.625 34.3478,29.625 35.5,28.5C 35.5858,29.4959 35.2524,30.3292 34.5,31C 35.4158,31.2784 36.0825,31.7784 36.5,32.5C 33.8333,32.5 31.1667,32.5 28.5,32.5C 27.8333,32.5 27.1667,32.5 26.5,32.5C 25.4324,31.5655 24.099,31.2322 22.5,31.5C 22.4701,30.5028 22.9701,29.8361 24,29.5C 25.1385,29.9891 26.3052,30.3225 27.5,30.5C 29.1667,29.8333 30.8333,29.1667 32.5,28.5 Z"/></g>
<g><path style="opacity:1" fill="#d76f03" d="M 41.5,30.5 C 43.8333,30.5 46.1667,30.5 48.5,30.5C 50.7354,30.2053 52.7354,30.5386 54.5,31.5C 52.1667,31.5 49.8333,31.5 47.5,31.5C 43.8212,31.7244 40.1545,32.0578 36.5,32.5C 36.0825,31.7784 35.4158,31.2784 34.5,31C 35.2524,30.3292 35.5858,29.4959 35.5,28.5C 36.1174,28.3893 36.6174,28.056 37,27.5C 37.2001,30.9032 38.7001,31.9032 41.5,30.5 Z"/></g>
<g><path style="opacity:1" fill="#b65600" d="M 21.5,28.5 C 21.1596,30.5476 21.4929,31.5476 22.5,31.5C 24.099,31.2322 25.4324,31.5655 26.5,32.5C 24.9731,32.427 23.9731,33.0937 23.5,34.5C 22.391,34.4431 21.391,34.1098 20.5,33.5C 20.1667,32.8333 19.8333,32.1667 19.5,31.5C 19.2852,29.8212 19.9519,28.8212 21.5,28.5 Z"/></g>
<g><path style="opacity:1" fill="#b96a0b" d="M 10.5,31.5 C 11.7942,32.2899 12.9609,33.2899 14,34.5C 14.3826,33.944 14.8826,33.6107 15.5,33.5C 15.8925,35.2838 16.5592,36.9505 17.5,38.5C 15.4418,37.0669 13.1085,36.4003 10.5,36.5C 10.1667,35.8333 9.83333,35.1667 9.5,34.5C 10.1098,33.609 10.4431,32.609 10.5,31.5 Z"/></g>
<g><path style="opacity:1" fill="#ad4f00" d="M 18.5,31.5 C 18.8333,31.5 19.1667,31.5 19.5,31.5C 19.8333,32.1667 20.1667,32.8333 20.5,33.5C 19.8761,33.9169 19.5427,34.5836 19.5,35.5C 20.5076,37.4992 21.841,39.1658 23.5,40.5C 22.1667,40.5 20.8333,40.5 19.5,40.5C 19.1667,39.5 18.5,38.8333 17.5,38.5C 16.5592,36.9505 15.8925,35.2838 15.5,33.5C 16.29,32.3915 16.79,31.0581 17,29.5C 17.2784,30.4158 17.7784,31.0825 18.5,31.5 Z"/></g>
<g><path style="opacity:1" fill="#ac4900" d="M 20.5,33.5 C 21.391,34.1098 22.391,34.4431 23.5,34.5C 23.6596,36.153 24.3263,37.4863 25.5,38.5C 26.0998,39.8999 27.0998,40.8999 28.5,41.5C 27.609,42.1098 26.609,42.4431 25.5,42.5C 24.8333,41.8333 24.1667,41.1667 23.5,40.5C 21.841,39.1658 20.5076,37.4992 19.5,35.5C 19.5427,34.5836 19.8761,33.9169 20.5,33.5 Z"/></g>
<g><path style="opacity:1" fill="#a43a00" d="M 26.5,32.5 C 27.1667,32.5 27.8333,32.5 28.5,32.5C 28.8417,33.3382 29.5084,33.6716 30.5,33.5C 31.6354,35.2132 33.302,35.8799 35.5,35.5C 35.5,35.8333 35.5,36.1667 35.5,36.5C 33.5168,36.1568 32.1834,36.8235 31.5,38.5C 30.7321,37.7375 30.2321,36.7375 30,35.5C 28.9085,37.1166 27.4085,38.1166 25.5,38.5C 24.3263,37.4863 23.6596,36.153 23.5,34.5C 23.9731,33.0937 24.9731,32.427 26.5,32.5 Z"/></g>
<g><path style="opacity:1" fill="#bd5502" d="M 47.5,31.5 C 46.7375,32.2679 45.7375,32.7679 44.5,33C 45.056,33.3826 45.3893,33.8826 45.5,34.5C 45.631,35.2389 45.4643,35.9056 45,36.5C 43.7292,35.1175 42.2292,34.1175 40.5,33.5C 37.1667,33.5 33.8333,33.5 30.5,33.5C 29.5084,33.6716 28.8417,33.3382 28.5,32.5C 31.1667,32.5 33.8333,32.5 36.5,32.5C 40.1545,32.0578 43.8212,31.7244 47.5,31.5 Z"/></g>
<g><path style="opacity:1" fill="#c56a2e" d="M 47.5,31.5 C 49.8333,31.5 52.1667,31.5 54.5,31.5C 53.8333,32.5 53.1667,33.5 52.5,34.5C 50.8946,35.0059 50.5613,35.6726 51.5,36.5C 51.44,37.0431 51.1067,37.3764 50.5,37.5C 49.0953,36.0063 47.4287,35.0063 45.5,34.5C 45.3893,33.8826 45.056,33.3826 44.5,33C 45.7375,32.7679 46.7375,32.2679 47.5,31.5 Z"/></g>
<g><path style="opacity:1" fill="#ab4100" d="M 30.5,33.5 C 33.8333,33.5 37.1667,33.5 40.5,33.5C 40.0825,34.2216 39.4158,34.7216 38.5,35C 41.0595,35.227 42.7262,36.5603 43.5,39C 40.8169,38.2225 38.1502,37.0558 35.5,35.5C 33.302,35.8799 31.6354,35.2132 30.5,33.5 Z"/></g>
<g><path style="opacity:1" fill="#d4894c" d="M 60.5,32.5 C 62.5,33.8333 64.1667,35.5 65.5,37.5C 62.2984,37.4633 60.6317,35.7967 60.5,32.5 Z"/></g>
<g><path style="opacity:1" fill="#a74200" d="M 35.5,36.5 C 36.1667,37.1667 36.8333,37.8333 37.5,38.5C 36.0384,39.4577 34.7051,40.6244 33.5,42C 32.0715,42.5791 30.7382,42.4124 29.5,41.5C 29.7822,40.2223 30.4489,39.2223 31.5,38.5C 32.1834,36.8235 33.5168,36.1568 35.5,36.5 Z"/></g>
<g><path style="opacity:1" fill="#b44c04" d="M 40.5,33.5 C 42.2292,34.1175 43.7292,35.1175 45,36.5C 45.4643,35.9056 45.631,35.2389 45.5,34.5C 47.4287,35.0063 49.0953,36.0063 50.5,37.5C 51.1067,37.3764 51.44,37.0431 51.5,36.5C 54.1125,37.0955 54.1125,37.9288 51.5,39C 52.2438,40.0386 53.2438,40.5386 54.5,40.5C 52.642,42.1296 50.642,42.4629 48.5,41.5C 45.1276,40.4809 41.7943,40.4809 38.5,41.5C 37.8973,40.3652 37.5639,39.3652 37.5,38.5C 36.8333,37.8333 36.1667,37.1667 35.5,36.5C 35.5,36.1667 35.5,35.8333 35.5,35.5C 38.1502,37.0558 40.8169,38.2225 43.5,39C 42.7262,36.5603 41.0595,35.227 38.5,35C 39.4158,34.7216 40.0825,34.2216 40.5,33.5 Z"/></g>
<g><path style="opacity:1" fill="#c86d38" d="M 52.5,34.5 C 54.8309,34.4977 56.8309,35.331 58.5,37C 59.6843,38.1455 59.6843,39.3121 58.5,40.5C 58.1667,40.5 57.8333,40.5 57.5,40.5C 56.6522,39.375 55.6522,39.375 54.5,40.5C 53.2438,40.5386 52.2438,40.0386 51.5,39C 54.1125,37.9288 54.1125,37.0955 51.5,36.5C 50.5613,35.6726 50.8946,35.0059 52.5,34.5 Z"/></g>
<g><path style="opacity:1" fill="#c76416" d="M 54.5,31.5 C 55.5,31.5 56.5,31.5 57.5,31.5C 58.1667,31.8333 58.8333,32.1667 59.5,32.5C 59.8333,32.5 60.1667,32.5 60.5,32.5C 60.6317,35.7967 62.2984,37.4633 65.5,37.5C 66.8333,38.1667 67.8333,39.1667 68.5,40.5C 68.427,42.0269 69.0937,43.0269 70.5,43.5C 70.44,44.0431 70.1067,44.3764 69.5,44.5C 68.3777,43.3698 67.0443,42.7031 65.5,42.5C 65.5,41.8333 65.1667,41.5 64.5,41.5C 62.6208,40.6586 60.6208,40.3253 58.5,40.5C 59.6843,39.3121 59.6843,38.1455 58.5,37C 56.8309,35.331 54.8309,34.4977 52.5,34.5C 53.1667,33.5 53.8333,32.5 54.5,31.5 Z"/></g>
<g><path style="opacity:1" fill="#c37a20" d="M 10.5,36.5 C 13.1085,36.4003 15.4418,37.0669 17.5,38.5C 18.5,38.8333 19.1667,39.5 19.5,40.5C 19.5,41.1667 19.5,41.8333 19.5,42.5C 18.7784,42.0825 18.2784,41.4158 18,40.5C 17.6924,41.3081 17.1924,41.9747 16.5,42.5C 15.3578,41.1738 14.0245,40.1738 12.5,39.5C 11.5987,38.7095 10.9321,37.7095 10.5,36.5 Z"/></g>
<g><path style="opacity:1" fill="#a64000" d="M 31.5,38.5 C 30.4489,39.2223 29.7822,40.2223 29.5,41.5C 29.1667,41.5 28.8333,41.5 28.5,41.5C 27.0998,40.8999 26.0998,39.8999 25.5,38.5C 27.4085,38.1166 28.9085,37.1166 30,35.5C 30.2321,36.7375 30.7321,37.7375 31.5,38.5 Z"/></g>
<g><path style="opacity:1" fill="#b85002" d="M 48.5,41.5 C 48.5,41.8333 48.5,42.1667 48.5,42.5C 47.8333,42.5 47.1667,42.5 46.5,42.5C 44.1944,42.9926 41.861,43.3259 39.5,43.5C 38.8333,43.5 38.5,43.1667 38.5,42.5C 38.5,42.1667 38.5,41.8333 38.5,41.5C 41.7943,40.4809 45.1276,40.4809 48.5,41.5 Z"/></g>
<g><path style="opacity:1" fill="#ce914e" d="M 12.5,39.5 C 14.0245,40.1738 15.3578,41.1738 16.5,42.5C 17.1924,41.9747 17.6924,41.3081 18,40.5C 18.2784,41.4158 18.7784,42.0825 19.5,42.5C 19.5,42.8333 19.5,43.1667 19.5,43.5C 18.8902,44.391 18.5569,45.391 18.5,46.5C 15.7805,44.7807 13.7805,42.4474 12.5,39.5 Z"/></g>
<g><path style="opacity:1" fill="#c26a00" d="M 19.5,40.5 C 20.8333,40.5 22.1667,40.5 23.5,40.5C 24.1667,41.1667 24.8333,41.8333 25.5,42.5C 25.5,43.8333 26.1667,44.5 27.5,44.5C 27.8333,45.1667 28.1667,45.8333 28.5,46.5C 25.4736,45.1179 22.4736,43.7846 19.5,42.5C 19.5,41.8333 19.5,41.1667 19.5,40.5 Z"/></g>
<g><path style="opacity:1" fill="#e8b280" d="M 68.5,40.5 C 69.9063,40.9731 70.573,41.9731 70.5,43.5C 69.0937,43.0269 68.427,42.0269 68.5,40.5 Z"/></g>
<g><path style="opacity:1" fill="#b65507" d="M 37.5,38.5 C 37.5639,39.3652 37.8973,40.3652 38.5,41.5C 38.5,41.8333 38.5,42.1667 38.5,42.5C 36.9668,43.4309 35.3002,44.0976 33.5,44.5C 31.4815,43.1835 29.4815,43.1835 27.5,44.5C 26.1667,44.5 25.5,43.8333 25.5,42.5C 26.609,42.4431 27.609,42.1098 28.5,41.5C 28.8333,41.5 29.1667,41.5 29.5,41.5C 30.7382,42.4124 32.0715,42.5791 33.5,42C 34.7051,40.6244 36.0384,39.4577 37.5,38.5 Z"/></g>
<g><path style="opacity:1" fill="#d46a00" d="M 46.5,42.5 C 47.1667,42.5 47.8333,42.5 48.5,42.5C 51.4307,42.9103 52.0974,44.2436 50.5,46.5C 49.1667,46.8333 47.8333,47.1667 46.5,47.5C 42.9713,46.7027 42.8047,45.7027 46,44.5C 46.3333,44.8333 46.6667,45.1667 47,45.5C 47.4696,44.4232 47.3029,43.4232 46.5,42.5 Z"/></g>
<g><path style="opacity:1" fill="#da7209" d="M 57.5,40.5 C 53.64,42.6997 53.9733,44.3663 58.5,45.5C 58.9382,45.4346 59.2716,45.6012 59.5,46C 58.0577,46.3768 57.0577,47.2101 56.5,48.5C 55.5041,48.5858 54.6708,48.2524 54,47.5C 53.5172,48.448 53.3505,49.448 53.5,50.5C 52.5,50.5 51.5,50.5 50.5,50.5C 50.5,49.1667 50.5,47.8333 50.5,46.5C 52.0974,44.2436 51.4307,42.9103 48.5,42.5C 48.5,42.1667 48.5,41.8333 48.5,41.5C 50.642,42.4629 52.642,42.1296 54.5,40.5C 55.6522,39.375 56.6522,39.375 57.5,40.5 Z"/></g>
<g><path style="opacity:1" fill="#d17319" d="M 46.5,42.5 C 47.3029,43.4232 47.4696,44.4232 47,45.5C 46.6667,45.1667 46.3333,44.8333 46,44.5C 42.8047,45.7027 42.9713,46.7027 46.5,47.5C 45.6522,48.625 44.6522,48.625 43.5,47.5C 41.0274,47.9118 39.6941,46.9118 39.5,44.5C 39.5,44.1667 39.5,43.8333 39.5,43.5C 41.861,43.3259 44.1944,42.9926 46.5,42.5 Z"/></g>
<g><path style="opacity:1" fill="#e88c3b" d="M 57.5,40.5 C 57.8333,40.5 58.1667,40.5 58.5,40.5C 60.6208,40.3253 62.6208,40.6586 64.5,41.5C 64.5858,42.4959 64.2524,43.3292 63.5,44C 61.6183,44.1981 59.9516,44.6981 58.5,45.5C 53.9733,44.3663 53.64,42.6997 57.5,40.5 Z"/></g>
<g><path style="opacity:1" fill="#bf5d00" d="M 38.5,42.5 C 38.5,43.1667 38.8333,43.5 39.5,43.5C 39.5,43.8333 39.5,44.1667 39.5,44.5C 35.8333,45.1667 32.1667,45.8333 28.5,46.5C 28.1667,45.8333 27.8333,45.1667 27.5,44.5C 29.4815,43.1835 31.4815,43.1835 33.5,44.5C 35.3002,44.0976 36.9668,43.4309 38.5,42.5 Z"/></g>
<g><path style="opacity:1" fill="#e5882f" d="M 64.5,41.5 C 65.1667,41.5 65.5,41.8333 65.5,42.5C 65.7118,44.3841 66.7118,45.7174 68.5,46.5C 68.1373,47.1835 67.8039,47.8501 67.5,48.5C 64.7284,49.3715 62.0618,49.3715 59.5,48.5C 58.2022,49.1157 57.2022,49.1157 56.5,48.5C 57.0577,47.2101 58.0577,46.3768 59.5,46C 59.2716,45.6012 58.9382,45.4346 58.5,45.5C 59.9516,44.6981 61.6183,44.1981 63.5,44C 64.2524,43.3292 64.5858,42.4959 64.5,41.5 Z"/></g>
<g><path style="opacity:1" fill="#d08c30" d="M 19.5,43.5 C 22.1921,45.2056 24.8588,46.8722 27.5,48.5C 27.5,48.8333 27.5,49.1667 27.5,49.5C 26.8826,49.3893 26.3826,49.056 26,48.5C 25.7645,50.1193 24.9311,51.1193 23.5,51.5C 21.5,50.1667 19.8333,48.5 18.5,46.5C 18.5569,45.391 18.8902,44.391 19.5,43.5 Z"/></g>
<g><path style="opacity:1" fill="#cd7c07" d="M 19.5,43.5 C 19.5,43.1667 19.5,42.8333 19.5,42.5C 22.4736,43.7846 25.4736,45.1179 28.5,46.5C 28.8417,47.3382 29.5084,47.6716 30.5,47.5C 29.791,48.404 28.791,48.7373 27.5,48.5C 24.8588,46.8722 22.1921,45.2056 19.5,43.5 Z"/></g>
<g><path style="opacity:1" fill="#d68c1d" d="M 42.5,48.5 C 42.8333,49.1667 43.1667,49.8333 43.5,50.5C 42.5,50.5 41.5,50.5 40.5,50.5C 37.9773,49.7463 35.3106,49.0796 32.5,48.5C 31.7564,49.9905 31.0897,51.4905 30.5,53C 31.756,53.4169 32.4226,54.2502 32.5,55.5C 31.5,55.5 30.5,55.5 29.5,55.5C 28.9518,53.3736 28.2852,51.3736 27.5,49.5C 27.5,49.1667 27.5,48.8333 27.5,48.5C 28.791,48.7373 29.791,48.404 30.5,47.5C 32.0603,47.4809 33.5603,47.1476 35,46.5C 37.3187,47.8713 39.8187,48.5379 42.5,48.5 Z"/></g>
<g><path style="opacity:1" fill="#d17707" d="M 39.5,44.5 C 39.6941,46.9118 41.0274,47.9118 43.5,47.5C 43.5,48.1667 43.1667,48.5 42.5,48.5C 39.8187,48.5379 37.3187,47.8713 35,46.5C 33.5603,47.1476 32.0603,47.4809 30.5,47.5C 29.5084,47.6716 28.8417,47.3382 28.5,46.5C 32.1667,45.8333 35.8333,45.1667 39.5,44.5 Z"/></g>
<g><path style="opacity:1" fill="#e28625" d="M 65.5,42.5 C 67.0443,42.7031 68.3777,43.3698 69.5,44.5C 70.1067,44.3764 70.44,44.0431 70.5,43.5C 72.5,44.8333 74.1667,46.5 75.5,48.5C 75.5,49.1667 75.5,49.8333 75.5,50.5C 73.0075,49.2264 70.3408,48.5597 67.5,48.5C 67.8039,47.8501 68.1373,47.1835 68.5,46.5C 66.7118,45.7174 65.7118,44.3841 65.5,42.5 Z"/></g>
<g><path style="opacity:1" fill="#df800e" d="M 50.5,46.5 C 50.5,47.8333 50.5,49.1667 50.5,50.5C 50.5,51.1667 50.1667,51.5 49.5,51.5C 47.8333,51.5 46.1667,51.5 44.5,51.5C 44.5,50.8333 44.1667,50.5 43.5,50.5C 43.1667,49.8333 42.8333,49.1667 42.5,48.5C 43.1667,48.5 43.5,48.1667 43.5,47.5C 44.6522,48.625 45.6522,48.625 46.5,47.5C 47.8333,47.1667 49.1667,46.8333 50.5,46.5 Z"/></g>
<g><path style="opacity:1" fill="#d4953c" d="M 27.5,49.5 C 28.2852,51.3736 28.9518,53.3736 29.5,55.5C 29.5,56.1667 29.5,56.8333 29.5,57.5C 27.1667,55.8333 25.1667,53.8333 23.5,51.5C 24.9311,51.1193 25.7645,50.1193 26,48.5C 26.3826,49.056 26.8826,49.3893 27.5,49.5 Z"/></g>
<g><path style="opacity:1" fill="#d17e08" d="M 40.5,50.5 C 37.6802,50.2475 35.0135,50.7475 32.5,52C 33.0779,53.417 34.0779,54.2504 35.5,54.5C 36.8818,56.5486 38.5484,58.2153 40.5,59.5C 41.4333,62.3702 43.1,64.7036 45.5,66.5C 45.5,66.8333 45.5,67.1667 45.5,67.5C 44.391,67.4431 43.391,67.1098 42.5,66.5C 41.396,64.6115 40.0627,62.9448 38.5,61.5C 36.5,59.5 34.5,57.5 32.5,55.5C 32.4226,54.2502 31.756,53.4169 30.5,53C 31.0897,51.4905 31.7564,49.9905 32.5,48.5C 35.3106,49.0796 37.9773,49.7463 40.5,50.5 Z"/></g>
<g><path style="opacity:1" fill="#c9610e" d="M 67.5,48.5 C 70.3408,48.5597 73.0075,49.2264 75.5,50.5C 76.0256,52.2303 77.0256,53.5637 78.5,54.5C 78.2252,56.8418 77.3919,56.8418 76,54.5C 75.5831,55.756 74.7498,56.4226 73.5,56.5C 73.1583,55.6618 72.4916,55.3284 71.5,55.5C 71.8799,53.302 71.2132,51.6354 69.5,50.5C 68.5,50.1667 67.8333,49.5 67.5,48.5 Z"/></g>
<g><path style="opacity:1" fill="#b94e03" d="M 56.5,48.5 C 57.2022,49.1157 58.2022,49.1157 59.5,48.5C 60.5903,49.8571 61.9236,50.8571 63.5,51.5C 63.5,52.8333 63.5,54.1667 63.5,55.5C 66.1667,55.5 68.8333,55.5 71.5,55.5C 72.4916,55.3284 73.1583,55.6618 73.5,56.5C 73.1667,56.5 72.8333,56.5 72.5,56.5C 71.5,56.5 70.5,56.5 69.5,56.5C 65.8019,56.5524 62.1352,56.8857 58.5,57.5C 56.847,57.3404 55.5137,56.6737 54.5,55.5C 56.2327,54.9924 56.566,54.159 55.5,53C 53.5273,52.5045 51.5273,52.3379 49.5,52.5C 49.5,52.1667 49.5,51.8333 49.5,51.5C 50.1667,51.5 50.5,51.1667 50.5,50.5C 51.5,50.5 52.5,50.5 53.5,50.5C 53.3505,49.448 53.5172,48.448 54,47.5C 54.6708,48.2524 55.5041,48.5858 56.5,48.5 Z"/></g>
<g><path style="opacity:1" fill="#d68150" d="M 59.5,48.5 C 62.0618,49.3715 64.7284,49.3715 67.5,48.5C 67.8333,49.5 68.5,50.1667 69.5,50.5C 70.0283,51.8474 70.195,53.1807 70,54.5C 68.1575,52.8288 65.9908,51.8288 63.5,51.5C 61.9236,50.8571 60.5903,49.8571 59.5,48.5 Z"/></g>
<g><path style="opacity:1" fill="#b64800" d="M 44.5,51.5 C 46.1667,51.5 47.8333,51.5 49.5,51.5C 49.5,51.8333 49.5,52.1667 49.5,52.5C 48.71,53.6085 48.21,54.9419 48,56.5C 47.7811,55.062 47.2811,53.7287 46.5,52.5C 45.7348,53.6119 44.7348,54.2786 43.5,54.5C 41.8583,52.9192 39.8583,52.2525 37.5,52.5C 39.0134,51.4902 41.3467,51.1569 44.5,51.5 Z"/></g>
<g><path style="opacity:1" fill="#c96400" d="M 40.5,50.5 C 41.5,50.5 42.5,50.5 43.5,50.5C 44.1667,50.5 44.5,50.8333 44.5,51.5C 41.3467,51.1569 39.0134,51.4902 37.5,52.5C 36.8333,53.1667 36.1667,53.8333 35.5,54.5C 34.0779,54.2504 33.0779,53.417 32.5,52C 35.0135,50.7475 37.6802,50.2475 40.5,50.5 Z"/></g>
<g><path style="opacity:1" fill="#be5800" d="M 37.5,52.5 C 39.8583,52.2525 41.8583,52.9192 43.5,54.5C 43.5,54.8333 43.5,55.1667 43.5,55.5C 42.596,56.209 42.2627,57.209 42.5,58.5C 42.1583,59.3382 41.4916,59.6716 40.5,59.5C 38.5484,58.2153 36.8818,56.5486 35.5,54.5C 36.1667,53.8333 36.8333,53.1667 37.5,52.5 Z"/></g>
<g><path style="opacity:1" fill="#c86e3b" d="M 69.5,50.5 C 71.2132,51.6354 71.8799,53.302 71.5,55.5C 68.8333,55.5 66.1667,55.5 63.5,55.5C 63.5,54.1667 63.5,52.8333 63.5,51.5C 65.9908,51.8288 68.1575,52.8288 70,54.5C 70.195,53.1807 70.0283,51.8474 69.5,50.5 Z"/></g>
<g><path style="opacity:1" fill="#b6530e" d="M 49.5,52.5 C 51.5273,52.3379 53.5273,52.5045 55.5,53C 56.566,54.159 56.2327,54.9924 54.5,55.5C 53.7961,53.6558 52.4628,53.1558 50.5,54C 49.1667,55 49.1667,56 50.5,57C 49.9056,57.4643 49.2389,57.631 48.5,57.5C 46.4471,57.5979 44.7804,56.9313 43.5,55.5C 43.5,55.1667 43.5,54.8333 43.5,54.5C 44.7348,54.2786 45.7348,53.6119 46.5,52.5C 47.2811,53.7287 47.7811,55.062 48,56.5C 48.21,54.9419 48.71,53.6085 49.5,52.5 Z"/></g>
<g><path style="opacity:1" fill="#da965c" d="M 75.5,48.5 C 78.8333,51.1667 81.8333,54.1667 84.5,57.5C 83.1667,57.1667 81.8333,56.8333 80.5,56.5C 80.1667,55.5 79.5,54.8333 78.5,54.5C 77.0256,53.5637 76.0256,52.2303 75.5,50.5C 75.5,49.8333 75.5,49.1667 75.5,48.5 Z"/></g>
<g><path style="opacity:1" fill="#c36622" d="M 54.5,55.5 C 55.5137,56.6737 56.847,57.3404 58.5,57.5C 58.5,57.8333 58.5,58.1667 58.5,58.5C 56.8333,58.5 55.1667,58.5 53.5,58.5C 51.5853,58.7845 49.9187,58.4511 48.5,57.5C 49.2389,57.631 49.9056,57.4643 50.5,57C 49.1667,56 49.1667,55 50.5,54C 52.4628,53.1558 53.7961,53.6558 54.5,55.5 Z"/></g>
<g><path style="opacity:1" fill="#d46c05" d="M 78.5,54.5 C 79.5,54.8333 80.1667,55.5 80.5,56.5C 80.5,56.8333 80.5,57.1667 80.5,57.5C 80.1583,58.3382 79.4916,58.6716 78.5,58.5C 76.8828,57.962 75.2161,57.6287 73.5,57.5C 72.8333,57.5 72.5,57.1667 72.5,56.5C 72.8333,56.5 73.1667,56.5 73.5,56.5C 74.7498,56.4226 75.5831,55.756 76,54.5C 77.3919,56.8418 78.2252,56.8418 78.5,54.5 Z"/></g>
<g><path style="opacity:1" fill="#c35f02" d="M 43.5,55.5 C 44.7804,56.9313 46.4471,57.5979 48.5,57.5C 49.9187,58.4511 51.5853,58.7845 53.5,58.5C 53.5,59.1667 53.1667,59.5 52.5,59.5C 51.5,59.5 50.5,59.5 49.5,59.5C 47.2341,59.8588 45.4007,59.1922 44,57.5C 43.6174,58.056 43.1174,58.3893 42.5,58.5C 42.2627,57.209 42.596,56.209 43.5,55.5 Z"/></g>
<g><path style="opacity:1" fill="#d39539" d="M 29.5,55.5 C 30.5,55.5 31.5,55.5 32.5,55.5C 34.5,57.5 36.5,59.5 38.5,61.5C 37.0932,64.0392 35.9265,63.7058 35,60.5C 34.6174,61.056 34.1174,61.3893 33.5,61.5C 31.8333,60.5 30.5,59.1667 29.5,57.5C 29.5,56.8333 29.5,56.1667 29.5,55.5 Z"/></g>
<g><path style="opacity:1" fill="#d77004" d="M 69.5,56.5 C 69.5,57.1667 69.5,57.8333 69.5,58.5C 65.7104,58.0077 65.0437,58.841 67.5,61C 65.5273,61.4955 63.5273,61.6621 61.5,61.5C 61.5,59.5 60.5,58.5 58.5,58.5C 58.5,58.1667 58.5,57.8333 58.5,57.5C 62.1352,56.8857 65.8019,56.5524 69.5,56.5 Z"/></g>
<g><path style="opacity:0.808" fill="#e0be9e" d="M 84.5,57.5 C 85.9063,57.9731 86.573,58.9731 86.5,60.5C 85.8333,60.1667 85.1667,59.8333 84.5,59.5C 84.5,58.8333 84.5,58.1667 84.5,57.5 Z"/></g>
<g><path style="opacity:1" fill="#da7815" d="M 69.5,58.5 C 72.0972,58.7208 72.0972,59.2208 69.5,60C 71.3731,60.9529 71.7065,62.1196 70.5,63.5C 67.5176,63.9629 64.5176,64.2962 61.5,64.5C 59.901,64.7678 58.5676,64.4345 57.5,63.5C 58.8333,62.8333 60.1667,62.1667 61.5,61.5C 63.5273,61.6621 65.5273,61.4955 67.5,61C 65.0437,58.841 65.7104,58.0077 69.5,58.5 Z"/></g>
<g><path style="opacity:1" fill="#e08222" d="M 69.5,56.5 C 70.5,56.5 71.5,56.5 72.5,56.5C 72.5,57.1667 72.8333,57.5 73.5,57.5C 73.5,58.5 73.5,59.5 73.5,60.5C 74.9587,60.4326 76.2921,60.7659 77.5,61.5C 75.4855,62.9238 73.1522,63.5905 70.5,63.5C 71.7065,62.1196 71.3731,60.9529 69.5,60C 72.0972,59.2208 72.0972,58.7208 69.5,58.5C 69.5,57.8333 69.5,57.1667 69.5,56.5 Z"/></g>
<g><path style="opacity:1" fill="#e79230" d="M 73.5,57.5 C 75.2161,57.6287 76.8828,57.962 78.5,58.5C 79.0906,59.1515 79.7573,59.8182 80.5,60.5C 80.0431,61.2975 79.3764,61.6309 78.5,61.5C 78.1667,61.5 77.8333,61.5 77.5,61.5C 76.2921,60.7659 74.9587,60.4326 73.5,60.5C 73.5,59.5 73.5,58.5 73.5,57.5 Z"/></g>
<g><path style="opacity:1" fill="#ca6a01" d="M 49.5,59.5 C 49.0825,60.2216 48.4158,60.7216 47.5,61C 48.4158,61.2784 49.0825,61.7784 49.5,62.5C 48.0719,64.0741 47.7386,65.7408 48.5,67.5C 47.391,67.4431 46.391,67.1098 45.5,66.5C 43.1,64.7036 41.4333,62.3702 40.5,59.5C 41.4916,59.6716 42.1583,59.3382 42.5,58.5C 43.1174,58.3893 43.6174,58.056 44,57.5C 45.4007,59.1922 47.2341,59.8588 49.5,59.5 Z"/></g>
<g><path style="opacity:1" fill="#e08925" d="M 53.5,58.5 C 55.1667,58.5 56.8333,58.5 58.5,58.5C 60.5,58.5 61.5,59.5 61.5,61.5C 60.1667,62.1667 58.8333,62.8333 57.5,63.5C 55.8333,62.1667 54.1667,60.8333 52.5,59.5C 53.1667,59.5 53.5,59.1667 53.5,58.5 Z"/></g>
<g><path style="opacity:1" fill="#dc832b" d="M 80.5,57.5 C 81.4793,58.7653 82.4793,60.0986 83.5,61.5C 83.1445,62.5223 82.4778,63.189 81.5,63.5C 79.9731,63.573 78.9731,62.9063 78.5,61.5C 79.3764,61.6309 80.0431,61.2975 80.5,60.5C 79.7573,59.8182 79.0906,59.1515 78.5,58.5C 79.4916,58.6716 80.1583,58.3382 80.5,57.5 Z"/></g>
<g><path style="opacity:1" fill="#de8718" d="M 49.5,59.5 C 50.5,59.5 51.5,59.5 52.5,59.5C 54.1667,60.8333 55.8333,62.1667 57.5,63.5C 54.8728,62.9084 52.2062,62.5751 49.5,62.5C 49.0825,61.7784 48.4158,61.2784 47.5,61C 48.4158,60.7216 49.0825,60.2216 49.5,59.5 Z"/></g>
<g><path style="opacity:1" fill="#c96a0c" d="M 80.5,57.5 C 80.5,57.1667 80.5,56.8333 80.5,56.5C 81.8333,56.8333 83.1667,57.1667 84.5,57.5C 84.5,58.1667 84.5,58.8333 84.5,59.5C 85.2178,61.1368 85.3845,62.8034 85,64.5C 84.3333,65.8333 83.6667,65.8333 83,64.5C 82.5838,66.5503 81.4171,67.8836 79.5,68.5C 79.5,68.1667 79.5,67.8333 79.5,67.5C 80.8062,66.5326 81.4729,65.1993 81.5,63.5C 82.4778,63.189 83.1445,62.5223 83.5,61.5C 82.4793,60.0986 81.4793,58.7653 80.5,57.5 Z"/></g>
<g><path style="opacity:1" fill="#d2943e" d="M 38.5,61.5 C 40.0627,62.9448 41.396,64.6115 42.5,66.5C 41.1667,66.5 40.5,67.1667 40.5,68.5C 37.8333,66.5 35.5,64.1667 33.5,61.5C 34.1174,61.3893 34.6174,61.056 35,60.5C 35.9265,63.7058 37.0932,64.0392 38.5,61.5 Z"/></g>
<g><path style="opacity:1" fill="#be5907" d="M 70.5,63.5 C 70.8333,64.1667 71.1667,64.8333 71.5,65.5C 67.0974,63.9673 66.4307,65.3007 69.5,69.5C 68.8826,69.6107 68.3826,69.944 68,70.5C 67.51,69.2068 67.3433,67.8734 67.5,66.5C 65.4352,66.4828 63.4352,66.1495 61.5,65.5C 61.5,65.1667 61.5,64.8333 61.5,64.5C 64.5176,64.2962 67.5176,63.9629 70.5,63.5 Z"/></g>
<g><path style="opacity:1" fill="#d27939" d="M 77.5,61.5 C 77.8333,61.5 78.1667,61.5 78.5,61.5C 78.9731,62.9063 79.9731,63.573 81.5,63.5C 81.4729,65.1993 80.8062,66.5326 79.5,67.5C 78.8501,67.8039 78.1835,68.1373 77.5,68.5C 75.8704,66.736 73.8704,65.736 71.5,65.5C 71.1667,64.8333 70.8333,64.1667 70.5,63.5C 73.1522,63.5905 75.4855,62.9238 77.5,61.5 Z"/></g>
<g><path style="opacity:1" fill="#b54f03" d="M 49.5,62.5 C 52.2062,62.5751 54.8728,62.9084 57.5,63.5C 58.5676,64.4345 59.901,64.7678 61.5,64.5C 61.5,64.8333 61.5,65.1667 61.5,65.5C 59.8333,65.5 58.1667,65.5 56.5,65.5C 57.203,67.8726 58.5363,69.8726 60.5,71.5C 59.8902,72.391 59.5569,73.391 59.5,74.5C 57.9582,73.6993 56.2915,73.366 54.5,73.5C 52.7508,71.0838 50.7508,69.0838 48.5,67.5C 47.7386,65.7408 48.0719,64.0741 49.5,62.5 Z"/></g>
<g><path style="opacity:1" fill="#c26312" d="M 84.5,59.5 C 85.1667,59.8333 85.8333,60.1667 86.5,60.5C 87.3382,60.8417 87.6716,61.5084 87.5,62.5C 86.4239,64.9861 85.0906,67.3195 83.5,69.5C 81.8612,69.9258 80.5279,69.9258 79.5,69.5C 79.5,69.1667 79.5,68.8333 79.5,68.5C 81.4171,67.8836 82.5838,66.5503 83,64.5C 83.6667,65.8333 84.3333,65.8333 85,64.5C 85.3845,62.8034 85.2178,61.1368 84.5,59.5 Z"/></g>
<g><path style="opacity:1" fill="#b24d00" d="M 87.5,62.5 C 88.1667,65.1667 88.8333,67.8333 89.5,70.5C 87.9328,71.6808 87.0995,73.3474 87,75.5C 86.3292,74.7476 85.4959,74.4142 84.5,74.5C 84.6107,73.8826 84.944,73.3826 85.5,73C 84.0267,72.2904 83.3601,71.1238 83.5,69.5C 85.0906,67.3195 86.4239,64.9861 87.5,62.5 Z"/></g>
<g><path style="opacity:1" fill="#ba632a" d="M 61.5,65.5 C 63.4352,66.1495 65.4352,66.4828 67.5,66.5C 67.3433,67.8734 67.51,69.2068 68,70.5C 68.3826,69.944 68.8826,69.6107 69.5,69.5C 69.5,70.5 69.5,71.5 69.5,72.5C 67.8868,72.0557 66.7202,71.0557 66,69.5C 65.3333,72.1667 64.6667,72.1667 64,69.5C 63.5172,70.448 63.3505,71.448 63.5,72.5C 62.609,71.8902 61.609,71.5569 60.5,71.5C 58.5363,69.8726 57.203,67.8726 56.5,65.5C 58.1667,65.5 59.8333,65.5 61.5,65.5 Z"/></g>
<g><path style="opacity:1" fill="#bc5701" d="M 71.5,65.5 C 73.8704,65.736 75.8704,66.736 77.5,68.5C 78.1835,68.1373 78.8501,67.8039 79.5,67.5C 79.5,67.8333 79.5,68.1667 79.5,68.5C 79.5,68.8333 79.5,69.1667 79.5,69.5C 78.8333,69.8333 78.1667,70.1667 77.5,70.5C 77.1583,69.6618 76.4916,69.3284 75.5,69.5C 74.3915,68.71 73.0581,68.21 71.5,68C 72.5981,67.2303 72.5981,66.397 71.5,65.5 Z"/></g>
<g><path style="opacity:1" fill="#ce821d" d="M 42.5,66.5 C 43.391,67.1098 44.391,67.4431 45.5,67.5C 46.5511,68.2223 47.2178,69.2223 47.5,70.5C 45.5,70.1667 43.5,69.8333 41.5,69.5C 40.8333,69.5 40.5,69.1667 40.5,68.5C 40.5,67.1667 41.1667,66.5 42.5,66.5 Z"/></g>
<g><path style="opacity:1" fill="#b64f00" d="M 71.5,65.5 C 72.5981,66.397 72.5981,67.2303 71.5,68C 73.0581,68.21 74.3915,68.71 75.5,69.5C 73.7809,70.0221 72.4475,71.0221 71.5,72.5C 70.8333,72.5 70.1667,72.5 69.5,72.5C 69.5,71.5 69.5,70.5 69.5,69.5C 66.4307,65.3007 67.0974,63.9673 71.5,65.5 Z"/></g>
<g><path style="opacity:1" fill="#c76e06" d="M 45.5,66.5 C 46.391,67.1098 47.391,67.4431 48.5,67.5C 50.7508,69.0838 52.7508,71.0838 54.5,73.5C 54.8333,74.1667 55.1667,74.8333 55.5,75.5C 53.7839,75.3713 52.1172,75.038 50.5,74.5C 50.5,73.8333 50.1667,73.5 49.5,73.5C 49.2178,72.2223 48.5511,71.2223 47.5,70.5C 47.2178,69.2223 46.5511,68.2223 45.5,67.5C 45.5,67.1667 45.5,66.8333 45.5,66.5 Z"/></g>
<g><path style="opacity:1" fill="#c27b49" d="M 87.5,62.5 C 93.0267,68.0507 94.3601,74.384 91.5,81.5C 91.5,79.8333 91.5,78.1667 91.5,76.5C 90.8333,74.5 90.1667,72.5 89.5,70.5C 88.8333,67.8333 88.1667,65.1667 87.5,62.5 Z"/></g>
<g><path style="opacity:1" fill="#d18a2b" d="M 41.5,69.5 C 43.5,69.8333 45.5,70.1667 47.5,70.5C 48.5511,71.2223 49.2178,72.2223 49.5,73.5C 47.7839,73.3713 46.1172,73.038 44.5,72.5C 43.1667,71.8333 42.1667,70.8333 41.5,69.5 Z"/></g>
<g><path style="opacity:1" fill="#ae4600" d="M 75.5,69.5 C 76.4916,69.3284 77.1583,69.6618 77.5,70.5C 78.9002,71.1001 79.9002,72.1001 80.5,73.5C 78.7706,74.2362 77.7706,75.5695 77.5,77.5C 77.1667,77.5 76.8333,77.5 76.5,77.5C 75.2353,75.4379 73.5687,73.7712 71.5,72.5C 72.4475,71.0221 73.7809,70.0221 75.5,69.5 Z"/></g>
<g><path style="opacity:1" fill="#ae4f0a" d="M 60.5,71.5 C 61.609,71.5569 62.609,71.8902 63.5,72.5C 64.6005,73.6049 65.2671,74.9382 65.5,76.5C 64.5,76.5 63.5,76.5 62.5,76.5C 61.5,75.8333 60.5,75.1667 59.5,74.5C 59.5569,73.391 59.8902,72.391 60.5,71.5 Z"/></g>
<g><path style="opacity:1" fill="#ad4f07" d="M 69.5,72.5 C 70.1667,72.5 70.8333,72.5 71.5,72.5C 73.5687,73.7712 75.2353,75.4379 76.5,77.5C 76.4226,78.7498 75.756,79.5831 74.5,80C 75.9423,80.3768 76.9423,81.2101 77.5,82.5C 75.8333,82.5 74.1667,82.5 72.5,82.5C 71.8333,82.5 71.5,82.1667 71.5,81.5C 72.2891,81.2172 72.9558,80.7172 73.5,80C 72.2593,78.3015 70.926,76.8015 69.5,75.5C 69.5,74.5 69.5,73.5 69.5,72.5 Z"/></g>
<g><path style="opacity:1" fill="#b45101" d="M 79.5,69.5 C 80.5279,69.9258 81.8612,69.9258 83.5,69.5C 83.3601,71.1238 84.0267,72.2904 85.5,73C 84.944,73.3826 84.6107,73.8826 84.5,74.5C 84.0618,74.4346 83.7284,74.6012 83.5,75C 85.9316,76.0875 85.5983,76.5875 82.5,76.5C 83.0164,75.2418 82.3497,74.2418 80.5,73.5C 79.9002,72.1001 78.9002,71.1001 77.5,70.5C 78.1667,70.1667 78.8333,69.8333 79.5,69.5 Z"/></g>
<g><path style="opacity:1" fill="#bb5b00" d="M 54.5,73.5 C 56.2915,73.366 57.9582,73.6993 59.5,74.5C 60.5,75.1667 61.5,75.8333 62.5,76.5C 61.8333,77.1667 61.1667,77.8333 60.5,78.5C 58.6675,77.7515 57.0009,76.7515 55.5,75.5C 55.1667,74.8333 54.8333,74.1667 54.5,73.5 Z"/></g>
<g><path style="opacity:1" fill="#b96b38" d="M 69.5,72.5 C 69.5,73.5 69.5,74.5 69.5,75.5C 69.5912,77.6977 68.9245,78.0311 67.5,76.5C 66.8333,76.5 66.1667,76.5 65.5,76.5C 65.2671,74.9382 64.6005,73.6049 63.5,72.5C 63.3505,71.448 63.5172,70.448 64,69.5C 64.6667,72.1667 65.3333,72.1667 66,69.5C 66.7202,71.0557 67.8868,72.0557 69.5,72.5 Z"/></g>
<g><path style="opacity:1" fill="#dca662" d="M 44.5,72.5 C 46.1172,73.038 47.7839,73.3713 49.5,73.5C 50.1667,73.5 50.5,73.8333 50.5,74.5C 51.3065,75.7281 52.3065,76.7281 53.5,77.5C 52.7611,77.369 52.0944,77.5357 51.5,78C 52.3805,78.7083 53.0472,79.5416 53.5,80.5C 49.8998,78.5698 46.8998,75.9031 44.5,72.5 Z"/></g>
<g><path style="opacity:1" fill="#ad4800" d="M 80.5,73.5 C 82.3497,74.2418 83.0164,75.2418 82.5,76.5C 83.1667,77.5 83.8333,78.5 84.5,79.5C 82.0706,79.1156 79.7373,78.449 77.5,77.5C 77.7706,75.5695 78.7706,74.2362 80.5,73.5 Z"/></g>
<g><path style="opacity:1" fill="#ce7d1d" d="M 50.5,74.5 C 52.1172,75.038 53.7839,75.3713 55.5,75.5C 57.0009,76.7515 58.6675,77.7515 60.5,78.5C 60.5,79.5 60.5,80.5 60.5,81.5C 58.9902,80.2721 57.4902,80.2721 56,81.5C 54.3831,80.4642 54.2164,79.2975 55.5,78C 54.9056,77.5357 54.2389,77.369 53.5,77.5C 52.3065,76.7281 51.3065,75.7281 50.5,74.5 Z"/></g>
<g><path style="opacity:1" fill="#a84400" d="M 89.5,70.5 C 90.1667,72.5 90.8333,74.5 91.5,76.5C 89.9611,77.7671 88.2944,78.7671 86.5,79.5C 85.8333,79.8333 85.1667,80.1667 84.5,80.5C 84.5,80.1667 84.5,79.8333 84.5,79.5C 83.8333,78.5 83.1667,77.5 82.5,76.5C 85.5983,76.5875 85.9316,76.0875 83.5,75C 83.7284,74.6012 84.0618,74.4346 84.5,74.5C 85.4959,74.4142 86.3292,74.7476 87,75.5C 87.0995,73.3474 87.9328,71.6808 89.5,70.5 Z"/></g>
<g><path style="opacity:1" fill="#ac4d00" d="M 62.5,76.5 C 63.5,76.5 64.5,76.5 65.5,76.5C 66.1667,76.5 66.8333,76.5 67.5,76.5C 66.7375,77.2679 65.7375,77.7679 64.5,78C 66.1667,78.3333 67.8333,78.6667 69.5,79C 67.3808,79.3418 67.0474,80.1751 68.5,81.5C 67.1667,83.1667 67.1667,84.8333 68.5,86.5C 66.5956,86.2624 65.2623,85.2624 64.5,83.5C 64.9597,80.9051 63.6263,79.2385 60.5,78.5C 61.1667,77.8333 61.8333,77.1667 62.5,76.5 Z"/></g>
<g><path style="opacity:1" fill="#a45219" d="M 91.5,76.5 C 91.5,78.1667 91.5,79.8333 91.5,81.5C 90.2427,84.4274 88.2427,86.7607 85.5,88.5C 85.1667,88.5 84.8333,88.5 84.5,88.5C 84.8333,87.8333 85.1667,87.1667 85.5,86.5C 86.5,86.1667 87.1667,85.5 87.5,84.5C 88.6921,83.4341 88.3588,82.6008 86.5,82C 89.1125,80.9288 89.1125,80.0955 86.5,79.5C 88.2944,78.7671 89.9611,77.7671 91.5,76.5 Z"/></g>
<g><path style="opacity:1" fill="#b95c00" d="M 60.5,78.5 C 63.6263,79.2385 64.9597,80.9051 64.5,83.5C 63.8333,83.5 63.1667,83.5 62.5,83.5C 61.5,83.1667 60.8333,82.5 60.5,81.5C 60.5,80.5 60.5,79.5 60.5,78.5 Z"/></g>
<g><path style="opacity:1" fill="#b15d20" d="M 69.5,75.5 C 70.926,76.8015 72.2593,78.3015 73.5,80C 72.9558,80.7172 72.2891,81.2172 71.5,81.5C 70.5,81.5 69.5,81.5 68.5,81.5C 67.0474,80.1751 67.3808,79.3418 69.5,79C 67.8333,78.6667 66.1667,78.3333 64.5,78C 65.7375,77.7679 66.7375,77.2679 67.5,76.5C 68.9245,78.0311 69.5912,77.6977 69.5,75.5 Z"/></g>
<g><path style="opacity:1" fill="#a13d00" d="M 76.5,77.5 C 76.8333,77.5 77.1667,77.5 77.5,77.5C 79.7373,78.449 82.0706,79.1156 84.5,79.5C 84.5,79.8333 84.5,80.1667 84.5,80.5C 82.6203,80.2291 81.287,80.8958 80.5,82.5C 79.5,82.5 78.5,82.5 77.5,82.5C 76.9423,81.2101 75.9423,80.3768 74.5,80C 75.756,79.5831 76.4226,78.7498 76.5,77.5 Z"/></g>
<g><path style="opacity:1" fill="#9c3a00" d="M 86.5,79.5 C 89.1125,80.0955 89.1125,80.9288 86.5,82C 88.3588,82.6008 88.6921,83.4341 87.5,84.5C 85.3432,83.5933 83.0098,82.9267 80.5,82.5C 81.287,80.8958 82.6203,80.2291 84.5,80.5C 85.1667,80.1667 85.8333,79.8333 86.5,79.5 Z"/></g>
<g><path style="opacity:1" fill="#cd8637" d="M 53.5,77.5 C 54.2389,77.369 54.9056,77.5357 55.5,78C 54.2164,79.2975 54.3831,80.4642 56,81.5C 57.4902,80.2721 58.9902,80.2721 60.5,81.5C 60.8333,82.5 61.5,83.1667 62.5,83.5C 62.4431,84.609 62.1098,85.609 61.5,86.5C 58.0787,85.4611 55.4121,83.4611 53.5,80.5C 53.0472,79.5416 52.3805,78.7083 51.5,78C 52.0944,77.5357 52.7611,77.369 53.5,77.5 Z"/></g>
<g><path style="opacity:1" fill="#9f3e00" d="M 68.5,81.5 C 69.5,81.5 70.5,81.5 71.5,81.5C 71.5,82.1667 71.8333,82.5 72.5,82.5C 72.5,83.8333 72.5,85.1667 72.5,86.5C 71.8333,86.5 71.5,86.8333 71.5,87.5C 70.8333,87.5 70.1667,87.5 69.5,87.5C 68.8333,87.5 68.5,87.1667 68.5,86.5C 67.1667,84.8333 67.1667,83.1667 68.5,81.5 Z"/></g>
<g><path style="opacity:1" fill="#973500" d="M 72.5,82.5 C 74.1667,82.5 75.8333,82.5 77.5,82.5C 78.5,82.5 79.5,82.5 80.5,82.5C 83.0098,82.9267 85.3432,83.5933 87.5,84.5C 87.1667,85.5 86.5,86.1667 85.5,86.5C 81.2048,85.4624 76.8715,85.4624 72.5,86.5C 72.5,85.1667 72.5,83.8333 72.5,82.5 Z"/></g>
<g><path style="opacity:1" fill="#b26118" d="M 62.5,83.5 C 63.1667,83.5 63.8333,83.5 64.5,83.5C 65.2623,85.2624 66.5956,86.2624 68.5,86.5C 68.5,87.1667 68.8333,87.5 69.5,87.5C 70.8333,88.5 72.1667,89.5 73.5,90.5C 71.0971,90.552 68.7638,90.2186 66.5,89.5C 66.1667,89.5 65.8333,89.5 65.5,89.5C 64.7377,87.7376 63.4044,86.7376 61.5,86.5C 62.1098,85.609 62.4431,84.609 62.5,83.5 Z"/></g>
<g><path style="opacity:0.969" fill="#cf9e79" d="M 61.5,86.5 C 63.4044,86.7376 64.7377,87.7376 65.5,89.5C 63.5956,89.2624 62.2623,88.2624 61.5,86.5 Z"/></g>
<g><path style="opacity:1" fill="#903201" d="M 85.5,86.5 C 85.1667,87.1667 84.8333,87.8333 84.5,88.5C 83.609,89.1098 82.609,89.4431 81.5,89.5C 79.5698,88.9642 77.4031,88.9642 75,89.5C 74.6667,88.8333 74.3333,88.1667 74,87.5C 73.2303,88.5981 72.397,88.5981 71.5,87.5C 71.5,86.8333 71.8333,86.5 72.5,86.5C 76.8715,85.4624 81.2048,85.4624 85.5,86.5 Z"/></g>
<g><path style="opacity:0.993" fill="#9b4602" d="M 69.5,87.5 C 70.1667,87.5 70.8333,87.5 71.5,87.5C 72.397,88.5981 73.2303,88.5981 74,87.5C 74.3333,88.1667 74.6667,88.8333 75,89.5C 77.4031,88.9642 79.5698,88.9642 81.5,89.5C 78.9455,90.388 76.2788,90.7214 73.5,90.5C 72.1667,89.5 70.8333,88.5 69.5,87.5 Z"/></g>
<g><path style="opacity:0.541" fill="#d7b9a1" d="M 84.5,88.5 C 84.8333,88.5 85.1667,88.5 85.5,88.5C 83.2373,90.7944 80.4039,92.1277 77,92.5C 74.9452,91.3078 72.9452,91.3078 71,92.5C 69.1222,91.9473 67.6222,90.9473 66.5,89.5C 68.7638,90.2186 71.0971,90.552 73.5,90.5C 76.2788,90.7214 78.9455,90.388 81.5,89.5C 82.609,89.4431 83.609,89.1098 84.5,88.5 Z"/></g>
</svg>
