<?xml version="1.0" encoding="UTF-8"?>
<!DOCTYPE svg PUBLIC "-//W3C//DTD SVG 1.1//EN" "http://www.w3.org/Graphics/SVG/1.1/DTD/svg11.dtd">
<svg xmlns="http://www.w3.org/2000/svg" version="1.1" width="200px" height="200px" style="shape-rendering:geometricPrecision; text-rendering:geometricPrecision; image-rendering:optimizeQuality; fill-rule:evenodd; clip-rule:evenodd" xmlns:xlink="http://www.w3.org/1999/xlink">
<g><path style="opacity:0.983" fill="#dee2e2" d="M 54.5,41.5 C 89.8333,41.5 125.167,41.5 160.5,41.5C 158.979,43.4066 157.312,44.4066 155.5,44.5C 164.539,44.8505 173.206,45.8505 181.5,47.5C 169.833,47.5 158.167,47.5 146.5,47.5C 146.5,48.5 146.5,49.5 146.5,50.5C 158.167,50.5 169.833,50.5 181.5,50.5C 174.687,51.4912 167.687,51.8245 160.5,51.5C 155.786,51.1734 151.12,51.5067 146.5,52.5C 148.023,54.5857 147.69,56.2524 145.5,57.5C 136.704,56.8595 128.038,56.1928 119.5,55.5C 127.5,55.5 135.5,55.5 143.5,55.5C 143.5,51.5 143.5,47.5 143.5,43.5C 134.5,43.5 125.5,43.5 116.5,43.5C 107.682,42.5067 98.6822,42.1734 89.5,42.5C 80.5,42.5 71.5,42.5 62.5,42.5C 62.5,46.5 62.5,50.5 62.5,54.5C 60.9032,53.2627 59.7365,51.596 59,49.5C 58.1376,51.087 57.4709,52.7536 57,54.5C 57.1085,52.0111 56.2752,49.6778 54.5,47.5C 41.5,47.5 28.5,47.5 15.5,47.5C 27.7937,45.6821 40.4604,44.8488 53.5,45C 53.1667,44.6667 52.8333,44.3333 52.5,44C 53.3805,43.2917 54.0472,42.4584 54.5,41.5 Z"/></g>
<g><path style="opacity:1" fill="#fe1c11" d="M 116.5,43.5 C 125.5,43.5 134.5,43.5 143.5,43.5C 143.5,47.5 143.5,51.5 143.5,55.5C 135.5,55.5 127.5,55.5 119.5,55.5C 118.5,55.5 117.5,55.5 116.5,55.5C 116.5,51.5 116.5,47.5 116.5,43.5 Z"/></g>
<g><path style="opacity:1" fill="#0266ff" d="M 89.5,43.5 C 89.5,47.1667 89.5,50.8333 89.5,54.5C 80.8333,54.5 72.1667,54.5 63.5,54.5C 63.5,50.8333 63.5,47.1667 63.5,43.5C 72.1667,43.5 80.8333,43.5 89.5,43.5 Z"/></g>
<g><path style="opacity:1" fill="#fbd326" d="M 89.5,42.5 C 98.6822,42.1734 107.682,42.5067 116.5,43.5C 116.5,47.5 116.5,51.5 116.5,55.5C 116.167,55.5 115.833,55.5 115.5,55.5C 106.833,55.5 98.1667,55.5 89.5,55.5C 89.5,55.1667 89.5,54.8333 89.5,54.5C 89.5,50.8333 89.5,47.1667 89.5,43.5C 89.5,43.1667 89.5,42.8333 89.5,42.5 Z"/></g>
<g><path style="opacity:1" fill="#000000" d="M 15.5,47.5 C 28.5,47.5 41.5,47.5 54.5,47.5C 54.5,48.5 54.5,49.5 54.5,50.5C 41.5,50.5 28.5,50.5 15.5,50.5C 15.5,49.5 15.5,48.5 15.5,47.5 Z"/></g>
<g><path style="opacity:1" fill="#171818" d="M 181.5,47.5 C 181.5,48.5 181.5,49.5 181.5,50.5C 169.833,50.5 158.167,50.5 146.5,50.5C 146.5,49.5 146.5,48.5 146.5,47.5C 158.167,47.5 169.833,47.5 181.5,47.5 Z"/></g>
<g><path style="opacity:1" fill="#e4f0f1" d="M 54.5,47.5 C 56.2752,49.6778 57.1085,52.0111 57,54.5C 57.4709,52.7536 58.1376,51.087 59,49.5C 59.7365,51.596 60.9032,53.2627 62.5,54.5C 62.5,54.8333 62.5,55.1667 62.5,55.5C 63.7683,56.787 63.435,57.787 61.5,58.5C 62.3968,60.9604 63.7301,62.1271 65.5,62C 64.9915,63.1685 64.1581,64.0019 63,64.5C 62.6667,66.8333 62.3333,69.1667 62,71.5C 61.6667,68.8333 61.3333,66.1667 61,63.5C 58.9098,64.7908 57.5764,64.1242 57,61.5C 56.6824,63.0609 55.8491,64.2276 54.5,65C 57.5302,67.3398 58.1969,70.0064 56.5,73C 56.9031,74.4728 57.5697,75.8061 58.5,77C 57.2575,77.3114 56.2575,76.8114 55.5,75.5C 54.5224,75.9767 53.6891,76.6433 53,77.5C 52.8302,75.0173 53.6635,72.8507 55.5,71C 55.0183,69.9916 54.8516,68.825 55,67.5C 53.9563,68.6226 53.2896,69.9559 53,71.5C 51.4126,70.273 50.0793,70.6063 49,72.5C 48.654,74.2182 48.154,75.8849 47.5,77.5C 48.0253,78.1924 48.6919,78.6924 49.5,79C 49.5,81 49.5,83 49.5,85C 47.5911,85.4479 46.4244,84.6145 46,82.5C 44.2495,83.2225 42.7495,84.2225 41.5,85.5C 40.9478,83.6693 40.9478,82.0026 41.5,80.5C 38.972,79.4826 38.972,78.3159 41.5,77C 40.5697,75.8061 39.9031,74.4728 39.5,73C 41.0648,71.3333 42.7315,69.6667 44.5,68C 45.7472,65.356 45.7472,62.6893 44.5,60C 46.8075,59.6458 47.1408,58.6458 45.5,57C 46.7073,55.6998 47.3739,54.1998 47.5,52.5C 41.3627,51.641 30.696,50.9743 15.5,50.5C 28.5,50.5 41.5,50.5 54.5,50.5C 54.5,49.5 54.5,48.5 54.5,47.5 Z"/></g>
<g><path style="opacity:1" fill="#e8f4f5" d="M 160.5,51.5 C 160.703,53.0443 161.37,54.3777 162.5,55.5C 160.707,54.8796 158.707,54.8796 156.5,55.5C 153.68,58.4811 154.013,60.8144 157.5,62.5C 158.652,65.1062 158.818,67.7728 158,70.5C 157.667,68.5 157.333,66.5 157,64.5C 156.503,66.8098 156.337,69.1432 156.5,71.5C 155.735,73.929 154.069,75.2623 151.5,75.5C 151.81,72.2869 151.477,69.2869 150.5,66.5C 150.5,64.8333 150.5,63.1667 150.5,61.5C 148.167,61.5 145.833,61.5 143.5,61.5C 136.424,61.4463 129.424,62.1129 122.5,63.5C 115.21,62.4179 107.877,62.4179 100.5,63.5C 100.894,67.9631 100.561,70.9631 99.5,72.5C 95.7016,71.5166 91.7016,71.1832 87.5,71.5C 89.4104,66.4227 93.0771,63.9227 98.5,64C 97.8333,63.6667 97.1667,63.3333 96.5,63C 98.1911,61.5946 100.024,60.4279 102,59.5C 104.778,60.6853 106.278,59.6853 106.5,56.5C 109.713,56.81 112.713,56.4767 115.5,55.5C 115.833,55.5 116.167,55.5 116.5,55.5C 117.5,55.5 118.5,55.5 119.5,55.5C 128.038,56.1928 136.704,56.8595 145.5,57.5C 147.69,56.2524 148.023,54.5857 146.5,52.5C 151.12,51.5067 155.786,51.1734 160.5,51.5 Z"/></g>
<g><path style="opacity:1" fill="#e9f5f7" d="M 54.5,41.5 C 54.0472,42.4584 53.3805,43.2917 52.5,44C 52.8333,44.3333 53.1667,44.6667 53.5,45C 40.4604,44.8488 27.7937,45.6821 15.5,47.5C 15.5,48.5 15.5,49.5 15.5,50.5C 30.696,50.9743 41.3627,51.641 47.5,52.5C 43.8333,52.5 40.1667,52.5 36.5,52.5C 33.6035,52.1253 30.9368,52.6253 28.5,54C 29.1667,54.3333 29.8333,54.6667 30.5,55C 29.4552,56.6158 28.4552,58.2825 27.5,60C 30.1291,62.7892 29.4625,64.7892 25.5,66C 27.8912,66.6914 27.8912,67.6914 25.5,69C 27.8683,72.9616 27.035,76.4616 23,79.5C 23.2878,83.1418 21.7878,85.6418 18.5,87C 19.1667,87.6667 19.8333,88.3333 20.5,89C 19.782,90.9874 18.782,92.8208 17.5,94.5C 19.9458,95.9828 19.6124,97.1495 16.5,98C 17.9187,101.163 17.5854,104.163 15.5,107C 16.5763,109.131 17.2429,111.465 17.5,114C 16.1667,114.667 15.1667,115.667 14.5,117C 14.4134,119.13 14.4134,121.297 14.5,123.5C 12.5455,125.668 11.8788,128.002 12.5,130.5C 12.0431,131.298 11.3764,131.631 10.5,131.5C 10.3334,103.498 10.5,75.498 11,47.5C 12.1667,45 14,43.1667 16.5,42C 29.1623,41.5001 41.8289,41.3334 54.5,41.5 Z"/></g>
<g><path style="opacity:1" fill="#6ea8fa" d="M 89.5,42.5 C 89.5,42.8333 89.5,43.1667 89.5,43.5C 80.8333,43.5 72.1667,43.5 63.5,43.5C 63.5,47.1667 63.5,50.8333 63.5,54.5C 72.1667,54.5 80.8333,54.5 89.5,54.5C 89.5,54.8333 89.5,55.1667 89.5,55.5C 80.5,55.5 71.5,55.5 62.5,55.5C 62.5,55.1667 62.5,54.8333 62.5,54.5C 62.5,50.5 62.5,46.5 62.5,42.5C 71.5,42.5 80.5,42.5 89.5,42.5 Z"/></g>
<g><path style="opacity:1" fill="#e6f4f5" d="M 160.5,41.5 C 167.175,41.3337 173.842,41.5004 180.5,42C 185.564,44.6294 187.564,48.7961 186.5,54.5C 185.167,54.5 183.833,54.5 182.5,54.5C 182.5,55.5 182.5,56.5 182.5,57.5C 180.43,57.4486 178.597,58.1153 177,59.5C 176.228,59.3552 175.561,59.0219 175,58.5C 174.781,57.062 174.281,55.7287 173.5,54.5C 173.406,56.2388 173.239,58.2388 173,60.5C 172.667,60.1667 172.333,59.8333 172,59.5C 171.667,60.5 171.333,61.5 171,62.5C 170.29,61.0267 169.124,60.3601 167.5,60.5C 167.808,62.924 167.474,65.2573 166.5,67.5C 163.314,69.4343 159.981,70.7677 156.5,71.5C 156.337,69.1432 156.503,66.8098 157,64.5C 157.333,66.5 157.667,68.5 158,70.5C 158.818,67.7728 158.652,65.1062 157.5,62.5C 154.013,60.8144 153.68,58.4811 156.5,55.5C 158.707,54.8796 160.707,54.8796 162.5,55.5C 161.37,54.3777 160.703,53.0443 160.5,51.5C 167.687,51.8245 174.687,51.4912 181.5,50.5C 181.5,49.5 181.5,48.5 181.5,47.5C 173.206,45.8505 164.539,44.8505 155.5,44.5C 157.312,44.4066 158.979,43.4066 160.5,41.5 Z"/></g>
<g><path style="opacity:1" fill="#cddcf2" d="M 143.5,61.5 C 145.833,61.5 148.167,61.5 150.5,61.5C 150.5,63.1667 150.5,64.8333 150.5,66.5C 150.5,83.8333 150.5,101.167 150.5,118.5C 148.236,122.135 144.902,123.968 140.5,124C 153.496,124.5 166.496,124.667 179.5,124.5C 179.5,124.833 179.5,125.167 179.5,125.5C 166.5,125.5 153.5,125.5 140.5,125.5C 137.057,126.059 134.057,127.393 131.5,129.5C 127.833,130.833 124.167,130.833 120.5,129.5C 118.225,128.163 115.891,126.829 113.5,125.5C 97.1667,125.5 80.8333,125.5 64.5,125.5C 64.5,125.167 64.5,124.833 64.5,124.5C 80.5035,124.667 96.5035,124.5 112.5,124C 104.545,124.873 100.545,121.373 100.5,113.5C 104.226,113.177 107.893,113.511 111.5,114.5C 113.118,116.467 115.118,117.801 117.5,118.5C 119.279,119.67 120.279,121.336 120.5,123.5C 122.675,123.682 124.675,124.349 126.5,125.5C 129.876,123.457 132.543,120.791 134.5,117.5C 136.632,117.446 137.965,116.446 138.5,114.5C 138.833,114.5 139.167,114.5 139.5,114.5C 140.167,112.833 140.833,111.167 141.5,109.5C 142.82,110.942 144.486,111.608 146.5,111.5C 146.5,99.1667 146.5,86.8333 146.5,74.5C 146.047,73.5416 145.381,72.7083 144.5,72C 144.833,71.6667 145.167,71.3333 145.5,71C 142.833,70.6667 140.167,70.3333 137.5,70C 139.059,69.0201 140.726,68.1867 142.5,67.5C 142.192,66.6919 141.692,66.0253 141,65.5C 139.951,66.5171 138.784,66.6838 137.5,66C 139.569,65.6758 139.902,64.8425 138.5,63.5C 140.841,62.2885 143.007,62.6218 145,64.5C 145.239,63.212 144.739,62.212 143.5,61.5 Z"/></g>
<g><path style="opacity:1" fill="#d8eff1" d="M 89.5,55.5 C 98.1667,55.5 106.833,55.5 115.5,55.5C 112.713,56.4767 109.713,56.81 106.5,56.5C 106.278,59.6853 104.778,60.6853 102,59.5C 100.024,60.4279 98.1911,61.5946 96.5,63C 97.1667,63.3333 97.8333,63.6667 98.5,64C 93.0771,63.9227 89.4104,66.4227 87.5,71.5C 81.1222,71.7054 74.7889,71.3721 68.5,70.5C 68.2978,68.0108 68.7978,65.6775 70,63.5C 71,62.1667 72,62.1667 73,63.5C 73.526,58.5199 75.026,58.1866 77.5,62.5C 77.7486,61.4179 77.9152,60.0846 78,58.5C 78.3333,58.8333 78.6667,59.1667 79,59.5C 79.3742,58.5838 79.8742,57.7504 80.5,57C 83.6946,56.8195 86.6946,56.3195 89.5,55.5 Z"/></g>
<g><path style="opacity:1" fill="#d5e1f0" d="M 143.5,61.5 C 144.739,62.212 145.239,63.212 145,64.5C 143.007,62.6218 140.841,62.2885 138.5,63.5C 139.902,64.8425 139.569,65.6758 137.5,66C 138.784,66.6838 139.951,66.5171 141,65.5C 141.692,66.0253 142.192,66.6919 142.5,67.5C 140.726,68.1867 139.059,69.0201 137.5,70C 140.167,70.3333 142.833,70.6667 145.5,71C 145.167,71.3333 144.833,71.6667 144.5,72C 145.381,72.7083 146.047,73.5416 146.5,74.5C 144.745,73.9278 143.078,73.0945 141.5,72C 136.13,71.3686 133.63,73.8686 134,79.5C 132.989,80.3366 131.822,80.67 130.5,80.5C 132.416,70.7504 128.416,65.7504 118.5,65.5C 118.592,69.0614 118.925,72.7281 119.5,76.5C 120.167,74.8333 120.833,73.1667 121.5,71.5C 121.833,72.5 122.167,73.5 122.5,74.5C 122.16,76.5122 121.827,78.5122 121.5,80.5C 119.833,80.5 118.167,80.5 116.5,80.5C 116.054,70.7844 112.221,69.1177 105,75.5C 104.59,76.9007 104.09,78.234 103.5,79.5C 102.85,79.8039 102.183,80.1373 101.5,80.5C 100.756,79.0095 100.09,77.5095 99.5,76C 87.3263,75.8307 75.3263,75.3307 63.5,74.5C 75.5479,75.1451 87.2146,74.4784 98.5,72.5C 98.8333,72.5 99.1667,72.5 99.5,72.5C 100.561,70.9631 100.894,67.9631 100.5,63.5C 107.877,62.4179 115.21,62.4179 122.5,63.5C 129.424,62.1129 136.424,61.4463 143.5,61.5 Z"/></g>
<g><path style="opacity:1" fill="#d1e2f3" d="M 186.5,54.5 C 186.5,59.8333 186.5,65.1667 186.5,70.5C 185.833,70.8333 185.167,71.1667 184.5,71.5C 183.363,69.1609 183.196,66.8275 184,64.5C 183.667,64.1667 183.333,63.8333 183,63.5C 182.576,67.19 181.742,67.3567 180.5,64C 176.723,63.619 176.723,64.2856 180.5,66C 178.067,66.7658 176.234,68.2658 175,70.5C 174.667,70.1667 174.333,69.8333 174,69.5C 174,70.8333 174,72.1667 174,73.5C 172.324,74.0611 170.991,75.0611 170,76.5C 169.163,74.9926 167.996,74.4926 166.5,75C 168.211,76.1332 168.711,77.6332 168,79.5C 167.646,77.1925 166.646,76.8592 165,78.5C 163.216,75.9624 161.383,75.9624 159.5,78.5C 160.836,80.3746 160.336,81.7079 158,82.5C 157.035,80.7397 155.868,80.4063 154.5,81.5C 156.735,83.4375 159.068,85.1041 161.5,86.5C 159.164,89.3552 157.331,89.0218 156,85.5C 155.805,86.8193 155.972,88.1526 156.5,89.5C 163.745,90.4991 171.745,90.8324 180.5,90.5C 180.5,91.5 180.5,92.5 180.5,93.5C 172.167,93.5 163.833,93.5 155.5,93.5C 155.771,95.8211 155.104,97.8211 153.5,99.5C 155.945,101.364 156.112,103.364 154,105.5C 153.581,104.328 152.915,103.328 152,102.5C 151.827,108.016 151.327,113.349 150.5,118.5C 150.5,101.167 150.5,83.8333 150.5,66.5C 151.477,69.2869 151.81,72.2869 151.5,75.5C 154.069,75.2623 155.735,73.929 156.5,71.5C 159.981,70.7677 163.314,69.4343 166.5,67.5C 167.474,65.2573 167.808,62.924 167.5,60.5C 169.124,60.3601 170.29,61.0267 171,62.5C 171.333,61.5 171.667,60.5 172,59.5C 172.333,59.8333 172.667,60.1667 173,60.5C 173.239,58.2388 173.406,56.2388 173.5,54.5C 174.281,55.7287 174.781,57.062 175,58.5C 175.561,59.0219 176.228,59.3552 177,59.5C 178.597,58.1153 180.43,57.4486 182.5,57.5C 182.5,56.5 182.5,55.5 182.5,54.5C 183.833,54.5 185.167,54.5 186.5,54.5 Z"/></g>
<g><path style="opacity:1" fill="#203ffe" d="M 98.5,72.5 C 87.2146,74.4784 75.5479,75.1451 63.5,74.5C 74.7854,72.5216 86.4521,71.8549 98.5,72.5 Z"/></g>
<g><path style="opacity:1" fill="#e0f2f4" d="M 184.5,71.5 C 183.905,74.1125 183.071,74.1125 182,71.5C 182.218,73.5868 182.051,75.5868 181.5,77.5C 180.252,76.9598 179.085,76.2931 178,75.5C 177.833,75.8333 177.667,76.1667 177.5,76.5C 179.524,80.7111 179.857,85.0444 178.5,89.5C 177.182,78.9146 176.515,78.9146 176.5,89.5C 169.833,89.5 163.167,89.5 156.5,89.5C 155.972,88.1526 155.805,86.8193 156,85.5C 157.331,89.0218 159.164,89.3552 161.5,86.5C 159.068,85.1041 156.735,83.4375 154.5,81.5C 155.868,80.4063 157.035,80.7397 158,82.5C 160.336,81.7079 160.836,80.3746 159.5,78.5C 161.383,75.9624 163.216,75.9624 165,78.5C 166.646,76.8592 167.646,77.1925 168,79.5C 168.711,77.6332 168.211,76.1332 166.5,75C 167.996,74.4926 169.163,74.9926 170,76.5C 170.991,75.0611 172.324,74.0611 174,73.5C 174,72.1667 174,70.8333 174,69.5C 174.333,69.8333 174.667,70.1667 175,70.5C 176.234,68.2658 178.067,66.7658 180.5,66C 176.723,64.2856 176.723,63.619 180.5,64C 181.742,67.3567 182.576,67.19 183,63.5C 183.333,63.8333 183.667,64.1667 184,64.5C 183.196,66.8275 183.363,69.1609 184.5,71.5 Z"/></g>
<g><path style="opacity:1" fill="#3255fb" d="M 103.5,81.5 C 105.415,81.2155 107.081,81.5489 108.5,82.5C 93.676,83.4961 78.676,83.8294 63.5,83.5C 76.4581,81.5186 89.7914,80.8519 103.5,81.5 Z"/></g>
<g><path style="opacity:1" fill="#e7f4f3" d="M 62.5,55.5 C 71.5,55.5 80.5,55.5 89.5,55.5C 86.6946,56.3195 83.6946,56.8195 80.5,57C 79.8742,57.7504 79.3742,58.5838 79,59.5C 78.6667,59.1667 78.3333,58.8333 78,58.5C 77.9152,60.0846 77.7486,61.4179 77.5,62.5C 75.026,58.1866 73.526,58.5199 73,63.5C 72,62.1667 71,62.1667 70,63.5C 68.7978,65.6775 68.2978,68.0108 68.5,70.5C 74.7889,71.3721 81.1222,71.7054 87.5,71.5C 91.7016,71.1832 95.7016,71.5166 99.5,72.5C 99.1667,72.5 98.8333,72.5 98.5,72.5C 86.4521,71.8549 74.7854,72.5216 63.5,74.5C 75.3263,75.3307 87.3263,75.8307 99.5,76C 100.09,77.5095 100.756,79.0095 101.5,80.5C 102.183,80.1373 102.85,79.8039 103.5,79.5C 103.5,80.1667 103.5,80.8333 103.5,81.5C 89.7914,80.8519 76.4581,81.5186 63.5,83.5C 62.8826,83.3893 62.3826,83.056 62,82.5C 60.7817,84.0192 59.2817,85.1859 57.5,86C 57.8333,86.3333 58.1667,86.6667 58.5,87C 54.6395,87.5691 54.6395,88.4024 58.5,89.5C 56.9563,91.4461 54.9563,91.9461 52.5,91C 56.3258,90.3129 56.3258,89.4796 52.5,88.5C 52.2048,87.1033 51.8714,85.6033 51.5,84C 53.8361,82.7299 53.8361,81.2299 51.5,79.5C 51.2081,82.3043 50.3748,85.3043 49,88.5C 48.6667,88.1667 48.3333,87.8333 48,87.5C 46.8903,89.3969 46.7236,91.2302 47.5,93C 46.6667,93.8333 45.8333,94.6667 45,95.5C 44.1292,91.9912 42.9625,88.6578 41.5,85.5C 42.7495,84.2225 44.2495,83.2225 46,82.5C 46.4244,84.6145 47.5911,85.4479 49.5,85C 49.5,83 49.5,81 49.5,79C 48.6919,78.6924 48.0253,78.1924 47.5,77.5C 48.154,75.8849 48.654,74.2182 49,72.5C 50.0793,70.6063 51.4126,70.273 53,71.5C 53.2896,69.9559 53.9563,68.6226 55,67.5C 54.8516,68.825 55.0183,69.9916 55.5,71C 53.6635,72.8507 52.8302,75.0173 53,77.5C 53.6891,76.6433 54.5224,75.9767 55.5,75.5C 56.2575,76.8114 57.2575,77.3114 58.5,77C 57.5697,75.8061 56.9031,74.4728 56.5,73C 58.1969,70.0064 57.5302,67.3398 54.5,65C 55.8491,64.2276 56.6824,63.0609 57,61.5C 57.5764,64.1242 58.9098,64.7908 61,63.5C 61.3333,66.1667 61.6667,68.8333 62,71.5C 62.3333,69.1667 62.6667,66.8333 63,64.5C 64.1581,64.0019 64.9915,63.1685 65.5,62C 63.7301,62.1271 62.3968,60.9604 61.5,58.5C 63.435,57.787 63.7683,56.787 62.5,55.5 Z"/></g>
<g><path style="opacity:1" fill="#ede9a0" d="M 146.5,74.5 C 146.5,86.8333 146.5,99.1667 146.5,111.5C 144.486,111.608 142.82,110.942 141.5,109.5C 141.047,108.542 140.381,107.708 139.5,107C 141.894,102.051 143.561,96.8844 144.5,91.5C 143.178,91.33 142.011,91.6634 141,92.5C 140.734,97.0694 139.734,101.403 138,105.5C 136.471,104.271 135.304,102.771 134.5,101C 136.291,98.8938 136.958,96.3938 136.5,93.5C 136.5,90.1667 136.5,86.8333 136.5,83.5C 134.508,83.3285 132.842,83.9951 131.5,85.5C 130.107,84.1369 128.441,83.3036 126.5,83C 122.514,82.5012 118.514,82.3345 114.5,82.5C 114.5,85.1667 114.5,87.8333 114.5,90.5C 111.167,90.5 107.833,90.5 104.5,90.5C 104.5,88.5 104.5,86.5 104.5,84.5C 106.288,84.7852 107.955,84.4519 109.5,83.5C 109.376,82.8933 109.043,82.56 108.5,82.5C 107.081,81.5489 105.415,81.2155 103.5,81.5C 103.5,80.8333 103.5,80.1667 103.5,79.5C 104.09,78.234 104.59,76.9007 105,75.5C 112.221,69.1177 116.054,70.7844 116.5,80.5C 118.167,80.5 119.833,80.5 121.5,80.5C 121.827,78.5122 122.16,76.5122 122.5,74.5C 122.167,73.5 121.833,72.5 121.5,71.5C 120.833,73.1667 120.167,74.8333 119.5,76.5C 118.925,72.7281 118.592,69.0614 118.5,65.5C 128.416,65.7504 132.416,70.7504 130.5,80.5C 131.822,80.67 132.989,80.3366 134,79.5C 133.63,73.8686 136.13,71.3686 141.5,72C 143.078,73.0945 144.745,73.9278 146.5,74.5 Z"/></g>
<g><path style="opacity:1" fill="#def1f3" d="M 36.5,52.5 C 36.3249,55.3289 37.6582,56.9955 40.5,57.5C 39.624,58.2508 38.624,58.7508 37.5,59C 38.0606,60.5655 37.3939,61.8989 35.5,63C 37.9913,63.6259 37.9913,64.4593 35.5,65.5C 36.0253,66.1924 36.6919,66.6924 37.5,67C 36.1768,69.6631 33.8435,71.9964 30.5,74C 31.1667,74.3333 31.8333,74.6667 32.5,75C 30.8839,75.6152 29.5505,76.6152 28.5,78C 29.0509,79.3985 29.3842,80.7318 29.5,82C 28.6721,82.9147 27.6721,83.5814 26.5,84C 28.5669,85.6572 29.9002,87.3238 30.5,89C 29.8333,89.6667 29.1667,90.3333 28.5,91C 29.8333,91.6667 29.8333,92.3333 28.5,93C 30.797,94.1597 30.4637,95.1597 27.5,96C 28.1667,96.3333 28.8333,96.6667 29.5,97C 28.6243,98.5848 27.2909,99.5848 25.5,100C 26.7054,102.234 26.0387,103.901 23.5,105C 25.7151,106.943 25.7151,108.609 23.5,110C 25.3632,111.418 25.8632,113.251 25,115.5C 24.0228,114.226 23.1894,114.226 22.5,115.5C 21.5,115.5 20.5,115.5 19.5,115.5C 19.838,118.157 19.1713,120.49 17.5,122.5C 17.8333,123.833 18.1667,125.167 18.5,126.5C 17.0878,127.806 15.4211,128.64 13.5,129C 14.1667,129.667 14.8333,130.333 15.5,131C 15.1119,132.525 15.1119,134.192 15.5,136C 14.8957,138.468 13.5624,140.468 11.5,142C 12.1667,142.333 12.8333,142.667 13.5,143C 12.3636,144.145 11.3636,145.312 10.5,146.5C 10.5,141.5 10.5,136.5 10.5,131.5C 11.3764,131.631 12.0431,131.298 12.5,130.5C 11.8788,128.002 12.5455,125.668 14.5,123.5C 14.4134,121.297 14.4134,119.13 14.5,117C 15.1667,115.667 16.1667,114.667 17.5,114C 17.2429,111.465 16.5763,109.131 15.5,107C 17.5854,104.163 17.9187,101.163 16.5,98C 19.6124,97.1495 19.9458,95.9828 17.5,94.5C 18.782,92.8208 19.782,90.9874 20.5,89C 19.8333,88.3333 19.1667,87.6667 18.5,87C 21.7878,85.6418 23.2878,83.1418 23,79.5C 27.035,76.4616 27.8683,72.9616 25.5,69C 27.8912,67.6914 27.8912,66.6914 25.5,66C 29.4625,64.7892 30.1291,62.7892 27.5,60C 28.4552,58.2825 29.4552,56.6158 30.5,55C 29.8333,54.6667 29.1667,54.3333 28.5,54C 30.9368,52.6253 33.6035,52.1253 36.5,52.5 Z"/></g>
<g><path style="opacity:1" fill="#5369fb" d="M 104.5,90.5 C 107.833,90.5 111.167,90.5 114.5,90.5C 113.448,92.256 111.781,92.9227 109.5,92.5C 94.1522,92.8327 78.8189,92.4994 63.5,91.5C 77.1504,90.5008 90.8171,90.1675 104.5,90.5 Z"/></g>
<g><path style="opacity:1" fill="#ddeef3" d="M 63.5,83.5 C 78.676,83.8294 93.676,83.4961 108.5,82.5C 109.043,82.56 109.376,82.8933 109.5,83.5C 107.955,84.4519 106.288,84.7852 104.5,84.5C 104.5,86.5 104.5,88.5 104.5,90.5C 90.8171,90.1675 77.1504,90.5008 63.5,91.5C 78.8189,92.4994 94.1522,92.8327 109.5,92.5C 109.5,92.8333 109.5,93.1667 109.5,93.5C 107.801,93.3398 106.134,93.5065 104.5,94C 105.406,95.6995 105.739,97.5328 105.5,99.5C 91.3234,99.1709 77.3234,99.5042 63.5,100.5C 63.5,101.167 63.5,101.833 63.5,102.5C 61.8333,105.167 60.1667,107.833 58.5,110.5C 56.2818,112.374 53.9485,114.207 51.5,116C 54.3323,117.908 53.999,118.741 50.5,118.5C 51.0557,122.193 49.7224,124.86 46.5,126.5C 45.3527,126.182 44.5194,125.516 44,124.5C 43.79,126.058 43.29,127.391 42.5,128.5C 42.5,127.167 42.5,125.833 42.5,124.5C 38.1667,124.5 33.8333,124.5 29.5,124.5C 33.9819,123.674 38.6486,123.174 43.5,123C 42.4267,121.75 42.4267,120.416 43.5,119C 44.6533,117.346 45.9866,115.846 47.5,114.5C 45.9539,113.316 44.2873,112.316 42.5,111.5C 44.3649,110.334 46.0316,110.667 47.5,112.5C 48.6039,111.369 48.2705,110.535 46.5,110C 47.7839,109.316 48.9505,109.483 50,110.5C 50.5074,109.004 50.0074,107.837 48.5,107C 49.5,106.667 50.5,106.333 51.5,106C 50.3157,104.855 50.3157,103.688 51.5,102.5C 52.3764,102.631 53.0431,102.298 53.5,101.5C 51.5767,100.692 49.5767,100.192 47.5,100C 49.8333,99.6667 52.1667,99.3333 54.5,99C 49.373,97.4741 49.373,96.4741 54.5,96C 52.8333,95.6667 51.1667,95.3333 49.5,95C 51.6234,93.8063 53.9568,93.1397 56.5,93C 54.567,92.7489 52.7337,92.2489 51,91.5C 50.7613,90.212 51.2613,89.212 52.5,88.5C 56.3258,89.4796 56.3258,90.3129 52.5,91C 54.9563,91.9461 56.9563,91.4461 58.5,89.5C 54.6395,88.4024 54.6395,87.5691 58.5,87C 58.1667,86.6667 57.8333,86.3333 57.5,86C 59.2817,85.1859 60.7817,84.0192 62,82.5C 62.3826,83.056 62.8826,83.3893 63.5,83.5 Z"/></g>
<g><path style="opacity:1" fill="#dbd0b7" d="M 136.5,93.5 C 133.15,93.335 129.817,93.5017 126.5,94C 125.62,95.3561 125.286,96.8561 125.5,98.5C 126.419,99.8962 123.753,100.23 117.5,99.5C 116.791,98.596 115.791,98.2627 114.5,98.5C 114.5,96.8333 114.5,95.1667 114.5,93.5C 112.833,93.5 111.167,93.5 109.5,93.5C 109.5,93.1667 109.5,92.8333 109.5,92.5C 111.781,92.9227 113.448,92.256 114.5,90.5C 114.5,87.8333 114.5,85.1667 114.5,82.5C 118.514,82.3345 122.514,82.5012 126.5,83C 128.441,83.3036 130.107,84.1369 131.5,85.5C 132.842,83.9951 134.508,83.3285 136.5,83.5C 136.5,86.8333 136.5,90.1667 136.5,93.5 Z"/></g>
<g><path style="opacity:1" fill="#e6f4f5" d="M 36.5,52.5 C 40.1667,52.5 43.8333,52.5 47.5,52.5C 47.3739,54.1998 46.7073,55.6998 45.5,57C 47.1408,58.6458 46.8075,59.6458 44.5,60C 45.7472,62.6893 45.7472,65.356 44.5,68C 42.7315,69.6667 41.0648,71.3333 39.5,73C 39.9031,74.4728 40.5697,75.8061 41.5,77C 38.972,78.3159 38.972,79.4826 41.5,80.5C 40.9478,82.0026 40.9478,83.6693 41.5,85.5C 42.9625,88.6578 44.1292,91.9912 45,95.5C 45.8333,94.6667 46.6667,93.8333 47.5,93C 46.7236,91.2302 46.8903,89.3969 48,87.5C 48.3333,87.8333 48.6667,88.1667 49,88.5C 50.3748,85.3043 51.2081,82.3043 51.5,79.5C 53.8361,81.2299 53.8361,82.7299 51.5,84C 51.8714,85.6033 52.2048,87.1033 52.5,88.5C 51.2613,89.212 50.7613,90.212 51,91.5C 52.7337,92.2489 54.567,92.7489 56.5,93C 53.9568,93.1397 51.6234,93.8063 49.5,95C 51.1667,95.3333 52.8333,95.6667 54.5,96C 49.373,96.4741 49.373,97.4741 54.5,99C 52.1667,99.3333 49.8333,99.6667 47.5,100C 49.5767,100.192 51.5767,100.692 53.5,101.5C 53.0431,102.298 52.3764,102.631 51.5,102.5C 47.6166,102.109 43.95,102.776 40.5,104.5C 39.7492,105.376 39.2492,106.376 39,107.5C 37.3117,106.675 37.1451,105.675 38.5,104.5C 37.9984,103.479 37.3317,103.312 36.5,104C 35.7734,105.399 35.2734,106.899 35,108.5C 33.527,108.132 32.027,108.632 30.5,110C 30.9574,110.414 31.2907,110.914 31.5,111.5C 29.1224,114.759 27.1224,117.759 25.5,120.5C 24.6801,118.681 23.6801,117.014 22.5,115.5C 23.1894,114.226 24.0228,114.226 25,115.5C 25.8632,113.251 25.3632,111.418 23.5,110C 25.7151,108.609 25.7151,106.943 23.5,105C 26.0387,103.901 26.7054,102.234 25.5,100C 27.2909,99.5848 28.6243,98.5848 29.5,97C 28.8333,96.6667 28.1667,96.3333 27.5,96C 30.4637,95.1597 30.797,94.1597 28.5,93C 29.8333,92.3333 29.8333,91.6667 28.5,91C 29.1667,90.3333 29.8333,89.6667 30.5,89C 29.9002,87.3238 28.5669,85.6572 26.5,84C 27.6721,83.5814 28.6721,82.9147 29.5,82C 29.3842,80.7318 29.0509,79.3985 28.5,78C 29.5505,76.6152 30.8839,75.6152 32.5,75C 31.8333,74.6667 31.1667,74.3333 30.5,74C 33.8435,71.9964 36.1768,69.6631 37.5,67C 36.6919,66.6924 36.0253,66.1924 35.5,65.5C 37.9913,64.4593 37.9913,63.6259 35.5,63C 37.3939,61.8989 38.0606,60.5655 37.5,59C 38.624,58.7508 39.624,58.2508 40.5,57.5C 37.6582,56.9955 36.3249,55.3289 36.5,52.5 Z"/></g>
<g><path style="opacity:0.998" fill="#eaf6f6" d="M 186.5,70.5 C 186.5,83.5 186.5,96.5 186.5,109.5C 185.883,109.389 185.383,109.056 185,108.5C 183.223,110.519 181.056,112.019 178.5,113C 180.709,113.957 180.543,115.124 178,116.5C 176.605,115.185 175.605,115.519 175,117.5C 174.667,116.833 174.333,116.167 174,115.5C 173.784,117.384 173.117,119.051 172,120.5C 171.667,119.833 171.333,119.167 171,118.5C 168.708,119.006 166.542,119.673 164.5,120.5C 164.833,121.167 165.167,121.833 165.5,122.5C 170.317,123.167 174.983,123.834 179.5,124.5C 166.496,124.667 153.496,124.5 140.5,124C 144.902,123.968 148.236,122.135 150.5,118.5C 151.327,113.349 151.827,108.016 152,102.5C 152.915,103.328 153.581,104.328 154,105.5C 156.112,103.364 155.945,101.364 153.5,99.5C 155.104,97.8211 155.771,95.8211 155.5,93.5C 163.833,93.5 172.167,93.5 180.5,93.5C 180.5,92.5 180.5,91.5 180.5,90.5C 171.745,90.8324 163.745,90.4991 156.5,89.5C 163.167,89.5 169.833,89.5 176.5,89.5C 176.515,78.9146 177.182,78.9146 178.5,89.5C 179.857,85.0444 179.524,80.7111 177.5,76.5C 177.667,76.1667 177.833,75.8333 178,75.5C 179.085,76.2931 180.252,76.9598 181.5,77.5C 182.051,75.5868 182.218,73.5868 182,71.5C 183.071,74.1125 183.905,74.1125 184.5,71.5C 185.167,71.1667 185.833,70.8333 186.5,70.5 Z"/></g>
<g><path style="opacity:1" fill="#f6f29b" d="M 109.5,93.5 C 111.167,93.5 112.833,93.5 114.5,93.5C 114.5,95.1667 114.5,96.8333 114.5,98.5C 115.791,98.2627 116.791,98.596 117.5,99.5C 113.5,99.5 109.5,99.5 105.5,99.5C 105.739,97.5328 105.406,95.6995 104.5,94C 106.134,93.5065 107.801,93.3398 109.5,93.5 Z"/></g>
<g><path style="opacity:1" fill="#7377ef" d="M 63.5,100.5 C 85.8433,100.167 108.177,100.5 130.5,101.5C 130.376,102.107 130.043,102.44 129.5,102.5C 126.833,102.5 124.167,102.5 121.5,102.5C 119.167,102.5 116.833,102.5 114.5,102.5C 111.167,102.5 107.833,102.5 104.5,102.5C 90.8333,102.5 77.1667,102.5 63.5,102.5C 63.5,101.833 63.5,101.167 63.5,100.5 Z"/></g>
<g><path style="opacity:1" fill="#b2bfd4" d="M 141.5,109.5 C 140.833,111.167 140.167,112.833 139.5,114.5C 139.5,112.833 139.5,111.167 139.5,109.5C 138.167,109.5 136.833,109.5 135.5,109.5C 135.623,106.412 134.623,103.745 132.5,101.5C 131.682,103.108 131.015,104.775 130.5,106.5C 131.077,108.55 132.41,109.55 134.5,109.5C 134.343,112.344 135.676,114.011 138.5,114.5C 137.965,116.446 136.632,117.446 134.5,117.5C 132.653,114.653 130.986,111.653 129.5,108.5C 127.5,107.833 125.5,107.167 123.5,106.5C 123.919,105.328 124.585,104.328 125.5,103.5C 127.516,106.163 128.849,105.83 129.5,102.5C 130.043,102.44 130.376,102.107 130.5,101.5C 108.177,100.5 85.8433,100.167 63.5,100.5C 77.3234,99.5042 91.3234,99.1709 105.5,99.5C 109.5,99.5 113.5,99.5 117.5,99.5C 123.753,100.23 126.419,99.8962 125.5,98.5C 125.286,96.8561 125.62,95.3561 126.5,94C 129.817,93.5017 133.15,93.335 136.5,93.5C 136.958,96.3938 136.291,98.8938 134.5,101C 135.304,102.771 136.471,104.271 138,105.5C 139.734,101.403 140.734,97.0694 141,92.5C 142.011,91.6634 143.178,91.33 144.5,91.5C 143.561,96.8844 141.894,102.051 139.5,107C 140.381,107.708 141.047,108.542 141.5,109.5 Z"/></g>
<g><path style="opacity:1" fill="#e3cfa2" d="M 139.5,114.5 C 139.167,114.5 138.833,114.5 138.5,114.5C 135.676,114.011 134.343,112.344 134.5,109.5C 132.41,109.55 131.077,108.55 130.5,106.5C 131.015,104.775 131.682,103.108 132.5,101.5C 134.623,103.745 135.623,106.412 135.5,109.5C 136.833,109.5 138.167,109.5 139.5,109.5C 139.5,111.167 139.5,112.833 139.5,114.5 Z"/></g>
<g><path style="opacity:1" fill="#edeba2" d="M 121.5,102.5 C 124.167,102.5 126.833,102.5 129.5,102.5C 128.849,105.83 127.516,106.163 125.5,103.5C 124.585,104.328 123.919,105.328 123.5,106.5C 125.5,107.167 127.5,107.833 129.5,108.5C 130.986,111.653 132.653,114.653 134.5,117.5C 132.543,120.791 129.876,123.457 126.5,125.5C 124.675,124.349 122.675,123.682 120.5,123.5C 120.279,121.336 119.279,119.67 117.5,118.5C 118.759,115.634 119.759,112.634 120.5,109.5C 115.815,109.076 114.981,107.409 118,104.5C 120.411,106.153 121.578,105.487 121.5,102.5 Z"/></g>
<g><path style="opacity:1" fill="#e4f2f3" d="M 51.5,102.5 C 50.3157,103.688 50.3157,104.855 51.5,106C 50.5,106.333 49.5,106.667 48.5,107C 50.0074,107.837 50.5074,109.004 50,110.5C 48.9505,109.483 47.7839,109.316 46.5,110C 48.2705,110.535 48.6039,111.369 47.5,112.5C 46.0316,110.667 44.3649,110.334 42.5,111.5C 44.2873,112.316 45.9539,113.316 47.5,114.5C 45.9866,115.846 44.6533,117.346 43.5,119C 42.4267,120.416 42.4267,121.75 43.5,123C 38.6486,123.174 33.9819,123.674 29.5,124.5C 29.5,125.833 29.5,127.167 29.5,128.5C 33.8333,128.5 38.1667,128.5 42.5,128.5C 43.29,127.391 43.79,126.058 44,124.5C 44.5194,125.516 45.3527,126.182 46.5,126.5C 49.7224,124.86 51.0557,122.193 50.5,118.5C 53.999,118.741 54.3323,117.908 51.5,116C 53.9485,114.207 56.2818,112.374 58.5,110.5C 61.1067,113.159 62.7733,115.992 63.5,119C 61.9336,119.608 60.6002,120.442 59.5,121.5C 58.5,121.5 57.5,121.5 56.5,121.5C 55.216,129.422 53.8826,129.422 52.5,121.5C 51.269,122.651 51.269,123.817 52.5,125C 50.5188,125.605 50.1854,126.605 51.5,128C 50.5,128.333 49.5,128.667 48.5,129C 48.5,130 48.5,131 48.5,132C 47.1667,132 45.8333,132 44.5,132C 44.1313,134.552 44.1313,137.219 44.5,140C 41.8333,140.667 41.8333,141.333 44.5,142C 43.5842,142.278 42.9175,142.778 42.5,143.5C 41.8826,143.389 41.3826,143.056 41,142.5C 40.0197,143.981 38.853,145.315 37.5,146.5C 36.6919,146.192 36.0253,145.692 35.5,145C 36.2744,142.595 36.7744,140.095 37,137.5C 37.9603,134.935 39.4603,132.769 41.5,131C 39.1902,130.503 36.8568,130.337 34.5,130.5C 33.9478,132.331 33.9478,133.997 34.5,135.5C 32.614,136.93 30.9473,138.597 29.5,140.5C 30.0933,142.382 30.7599,144.215 31.5,146C 29.6133,145.577 27.6133,145.744 25.5,146.5C 25.3505,147.552 25.5172,148.552 26,149.5C 28.0014,149.166 29.8347,149.166 31.5,149.5C 29.033,151.79 29.033,153.957 31.5,156C 30.6634,157.011 30.33,158.178 30.5,159.5C 25.4889,159.666 20.4889,159.499 15.5,159C 11.2051,155.907 9.53839,151.74 10.5,146.5C 11.3636,145.312 12.3636,144.145 13.5,143C 12.8333,142.667 12.1667,142.333 11.5,142C 13.5624,140.468 14.8957,138.468 15.5,136C 15.1119,134.192 15.1119,132.525 15.5,131C 14.8333,130.333 14.1667,129.667 13.5,129C 15.4211,128.64 17.0878,127.806 18.5,126.5C 18.1667,125.167 17.8333,123.833 17.5,122.5C 19.1713,120.49 19.838,118.157 19.5,115.5C 20.5,115.5 21.5,115.5 22.5,115.5C 23.6801,117.014 24.6801,118.681 25.5,120.5C 27.1224,117.759 29.1224,114.759 31.5,111.5C 31.2907,110.914 30.9574,110.414 30.5,110C 32.027,108.632 33.527,108.132 35,108.5C 35.2734,106.899 35.7734,105.399 36.5,104C 37.3317,103.312 37.9984,103.479 38.5,104.5C 37.1451,105.675 37.3117,106.675 39,107.5C 39.2492,106.376 39.7492,105.376 40.5,104.5C 43.95,102.776 47.6166,102.109 51.5,102.5 Z"/></g>
<g><path style="opacity:1" fill="#e2ecee" d="M 63.5,102.5 C 77.1667,102.5 90.8333,102.5 104.5,102.5C 105.369,104.717 105.702,107.05 105.5,109.5C 91.4841,109.167 77.4841,109.501 63.5,110.5C 71.5,110.833 79.5,111.167 87.5,111.5C 95.8624,111.498 103.862,110.831 111.5,109.5C 111.579,108.07 111.246,106.736 110.5,105.5C 111.391,104.41 112.391,104.41 113.5,105.5C 114.386,104.675 114.719,103.675 114.5,102.5C 116.833,102.5 119.167,102.5 121.5,102.5C 121.578,105.487 120.411,106.153 118,104.5C 114.981,107.409 115.815,109.076 120.5,109.5C 119.759,112.634 118.759,115.634 117.5,118.5C 115.118,117.801 113.118,116.467 111.5,114.5C 107.893,113.511 104.226,113.177 100.5,113.5C 88.3403,112.34 76.0069,112.173 63.5,113C 65.5,113.333 67.5,113.667 69.5,114C 67.7795,114.739 66.1128,115.573 64.5,116.5C 65.09,117.799 66.09,118.632 67.5,119C 64.095,119.753 63.095,121.586 64.5,124.5C 64.5,124.833 64.5,125.167 64.5,125.5C 64.5,126.167 64.5,126.833 64.5,127.5C 66.0419,128.163 67.7086,128.83 69.5,129.5C 69.1543,130.696 68.6543,130.696 68,129.5C 67.6667,130.167 67.3333,130.833 67,131.5C 64.8526,130.887 62.686,130.221 60.5,129.5C 64.5363,127.225 64.203,124.558 59.5,121.5C 60.6002,120.442 61.9336,119.608 63.5,119C 62.7733,115.992 61.1067,113.159 58.5,110.5C 60.1667,107.833 61.8333,105.167 63.5,102.5 Z"/></g>
<g><path style="opacity:1" fill="#0739fe" d="M 105.5,109.5 C 107.5,109.5 109.5,109.5 111.5,109.5C 103.862,110.831 95.8624,111.498 87.5,111.5C 79.5,111.167 71.5,110.833 63.5,110.5C 77.4841,109.501 91.4841,109.167 105.5,109.5 Z"/></g>
<g><path style="opacity:1" fill="#f2ef9c" d="M 104.5,102.5 C 107.833,102.5 111.167,102.5 114.5,102.5C 114.719,103.675 114.386,104.675 113.5,105.5C 112.391,104.41 111.391,104.41 110.5,105.5C 111.246,106.736 111.579,108.07 111.5,109.5C 109.5,109.5 107.5,109.5 105.5,109.5C 105.702,107.05 105.369,104.717 104.5,102.5 Z"/></g>
<g><path style="opacity:1" fill="#e9f5f6" d="M 100.5,113.5 C 100.545,121.373 104.545,124.873 112.5,124C 96.5035,124.5 80.5035,124.667 64.5,124.5C 63.095,121.586 64.095,119.753 67.5,119C 66.09,118.632 65.09,117.799 64.5,116.5C 66.1128,115.573 67.7795,114.739 69.5,114C 67.5,113.667 65.5,113.333 63.5,113C 76.0069,112.173 88.3403,112.34 100.5,113.5 Z"/></g>
<g><path style="opacity:1" fill="#163dfe" d="M 29.5,124.5 C 33.8333,124.5 38.1667,124.5 42.5,124.5C 42.5,125.833 42.5,127.167 42.5,128.5C 38.1667,128.5 33.8333,128.5 29.5,128.5C 29.5,127.167 29.5,125.833 29.5,124.5 Z"/></g>
<g><path style="opacity:1" fill="#375bfd" d="M 64.5,125.5 C 80.8333,125.5 97.1667,125.5 113.5,125.5C 113.5,126.167 113.5,126.833 113.5,127.5C 97.1667,127.5 80.8333,127.5 64.5,127.5C 64.5,126.833 64.5,126.167 64.5,125.5 Z"/></g>
<g><path style="opacity:1" fill="#e6f4f6" d="M 113.5,125.5 C 115.891,126.829 118.225,128.163 120.5,129.5C 118.32,128.145 116.32,128.311 114.5,130C 115.973,130.71 116.64,131.876 116.5,133.5C 110.857,133.22 109.857,134.72 113.5,138C 113.167,138.333 112.833,138.667 112.5,139C 110.473,138.502 108.473,138.669 106.5,139.5C 104.978,141.156 105.311,142.323 107.5,143C 106.635,144.359 105.635,145.526 104.5,146.5C 98.3796,145.518 92.0463,145.518 85.5,146.5C 84.5041,146.586 83.6708,146.252 83,145.5C 81.6515,141.774 80.1515,138.108 78.5,134.5C 78.6667,134.167 78.8333,133.833 79,133.5C 83.6883,138.643 84.1883,138.31 80.5,132.5C 80.8333,132.167 81.1667,131.833 81.5,131.5C 82.8333,132.833 84.1667,134.167 85.5,135.5C 85.8333,135.333 86.1667,135.167 86.5,135C 83.6667,133.167 83.8333,131.667 87,130.5C 89.3689,136.824 90.3689,136.49 90,129.5C 90.3173,131.301 90.984,131.634 92,130.5C 92.5469,135.734 93.3802,135.734 94.5,130.5C 93.624,129.749 92.624,129.249 91.5,129C 99.0115,128.829 106.345,128.329 113.5,127.5C 113.5,126.833 113.5,126.167 113.5,125.5 Z"/></g>
<g><path style="opacity:1" fill="#e5f4f5" d="M 186.5,109.5 C 186.667,124.17 186.5,138.837 186,153.5C 184.878,155.624 183.378,157.457 181.5,159C 176.177,159.499 170.844,159.666 165.5,159.5C 165.222,157.654 165.889,156.32 167.5,155.5C 175.152,157.481 176.152,155.481 170.5,149.5C 172.066,150.061 173.399,149.394 174.5,147.5C 171.194,146.874 167.861,145.541 164.5,143.5C 163.289,144.274 163.289,145.107 164.5,146C 163.065,145.689 161.732,145.855 160.5,146.5C 160.168,145.211 159.834,143.545 159.5,141.5C 162.909,139.402 165.409,136.402 167,132.5C 167.333,133.167 167.667,133.833 168,134.5C 169.713,133.122 171.047,131.455 172,129.5C 172.689,130.357 173.522,131.023 174.5,131.5C 175.425,130.359 176.259,130.359 177,131.5C 177.692,130.975 178.192,130.308 178.5,129.5C 165.513,128.334 152.513,128.167 139.5,129C 140.747,130.458 140.747,131.958 139.5,133.5C 137.607,132.945 135.94,133.612 134.5,135.5C 134.225,133.158 133.392,133.158 132,135.5C 132,136.833 132,138.167 132,139.5C 130.915,137.343 129.749,137.176 128.5,139C 128.057,140.518 128.724,141.685 130.5,142.5C 126.892,145.879 122.892,147.046 118.5,146C 116.665,145.072 116.332,143.906 117.5,142.5C 116.311,141.571 114.978,141.238 113.5,141.5C 114.935,140.491 115.769,139.157 116,137.5C 116.639,140.228 117.806,140.728 119.5,139C 117.099,138.195 117.266,137.362 120,136.5C 120.414,136.957 120.914,137.291 121.5,137.5C 123.025,134.647 125.191,133.647 128,134.5C 129.487,133.747 129.654,132.914 128.5,132C 130.119,131.764 131.119,130.931 131.5,129.5C 134.057,127.393 137.057,126.059 140.5,125.5C 146.631,126.83 153.131,127.497 160,127.5C 166.869,127.497 173.369,126.83 179.5,125.5C 179.5,125.167 179.5,124.833 179.5,124.5C 174.983,123.834 170.317,123.167 165.5,122.5C 165.167,121.833 164.833,121.167 164.5,120.5C 166.542,119.673 168.708,119.006 171,118.5C 171.333,119.167 171.667,119.833 172,120.5C 173.117,119.051 173.784,117.384 174,115.5C 174.333,116.167 174.667,116.833 175,117.5C 175.605,115.519 176.605,115.185 178,116.5C 180.543,115.124 180.709,113.957 178.5,113C 181.056,112.019 183.223,110.519 185,108.5C 185.383,109.056 185.883,109.389 186.5,109.5 Z"/></g>
<g><path style="opacity:1" fill="#5568fc" d="M 140.5,125.5 C 153.5,125.5 166.5,125.5 179.5,125.5C 173.369,126.83 166.869,127.497 160,127.5C 153.131,127.497 146.631,126.83 140.5,125.5 Z"/></g>
<g><path style="opacity:1" fill="#e3f0f0" d="M 59.5,121.5 C 64.203,124.558 64.5363,127.225 60.5,129.5C 62.686,130.221 64.8526,130.887 67,131.5C 67.3333,130.833 67.6667,130.167 68,129.5C 68.6543,130.696 69.1543,130.696 69.5,129.5C 67.7086,128.83 66.0419,128.163 64.5,127.5C 80.8333,127.5 97.1667,127.5 113.5,127.5C 106.345,128.329 99.0115,128.829 91.5,129C 92.624,129.249 93.624,129.749 94.5,130.5C 93.3802,135.734 92.5469,135.734 92,130.5C 90.984,131.634 90.3173,131.301 90,129.5C 90.3689,136.49 89.3689,136.824 87,130.5C 83.8333,131.667 83.6667,133.167 86.5,135C 86.1667,135.167 85.8333,135.333 85.5,135.5C 84.1667,134.167 82.8333,132.833 81.5,131.5C 81.1667,131.833 80.8333,132.167 80.5,132.5C 84.1883,138.31 83.6883,138.643 79,133.5C 78.8333,133.833 78.6667,134.167 78.5,134.5C 80.1515,138.108 81.6515,141.774 83,145.5C 83.6708,146.252 84.5041,146.586 85.5,146.5C 85.3505,147.552 85.5172,148.552 86,149.5C 88.2109,149.377 90.3775,149.377 92.5,149.5C 93.4776,149.023 94.3109,148.357 95,147.5C 95.3333,148.167 95.6667,148.833 96,149.5C 98.2109,149.377 100.378,149.377 102.5,149.5C 103.919,148.995 104.585,147.995 104.5,146.5C 105.635,145.526 106.635,144.359 107.5,143C 105.311,142.323 104.978,141.156 106.5,139.5C 108.473,138.669 110.473,138.502 112.5,139C 112.833,138.667 113.167,138.333 113.5,138C 109.857,134.72 110.857,133.22 116.5,133.5C 116.64,131.876 115.973,130.71 114.5,130C 116.32,128.311 118.32,128.145 120.5,129.5C 124.167,130.833 127.833,130.833 131.5,129.5C 131.119,130.931 130.119,131.764 128.5,132C 129.654,132.914 129.487,133.747 128,134.5C 125.191,133.647 123.025,134.647 121.5,137.5C 120.914,137.291 120.414,136.957 120,136.5C 117.266,137.362 117.099,138.195 119.5,139C 117.806,140.728 116.639,140.228 116,137.5C 115.769,139.157 114.935,140.491 113.5,141.5C 113.167,144.5 111.5,146.167 108.5,146.5C 108.281,147.675 108.614,148.675 109.5,149.5C 112.405,148.47 115.405,148.304 118.5,149C 117.672,149.915 116.672,150.581 115.5,151C 117.901,151.805 117.734,152.638 115,153.5C 114.517,152.552 114.351,151.552 114.5,150.5C 113.5,150.5 112.5,150.5 111.5,150.5C 111.649,151.552 111.483,152.552 111,153.5C 108.903,153.306 106.737,153.306 104.5,153.5C 101.167,150.833 97.8333,150.833 94.5,153.5C 92.7859,152.391 92.1192,153.058 92.5,155.5C 97.6164,155.839 98.2831,157.172 94.5,159.5C 81.5,159.5 68.5,159.5 55.5,159.5C 55.8102,157.856 56.8102,156.856 58.5,156.5C 61.5688,156.037 62.0688,154.704 60,152.5C 59.6667,153.167 59.3333,153.833 59,154.5C 58.3109,153.643 57.4776,152.977 56.5,152.5C 55.5,153.833 54.5,153.833 53.5,152.5C 52.2241,153.614 52.2241,154.614 53.5,155.5C 52.791,156.404 51.791,156.737 50.5,156.5C 51.9349,155.015 51.7683,153.682 50,152.5C 49.6667,153.167 49.3333,153.833 49,154.5C 48.1841,153.177 47.0174,152.511 45.5,152.5C 45.2222,150.654 45.8888,149.32 47.5,148.5C 52.5969,148.583 57.5969,148.916 62.5,149.5C 63.5,149.167 64.1667,148.5 64.5,147.5C 61.5693,143.609 58.0693,140.276 54,137.5C 50.88,138.593 50.7133,140.093 53.5,142C 50.8333,143 50.8333,144 53.5,145C 49.6438,147.176 45.9771,146.676 42.5,143.5C 42.9175,142.778 43.5842,142.278 44.5,142C 41.8333,141.333 41.8333,140.667 44.5,140C 44.1313,137.219 44.1313,134.552 44.5,132C 45.8333,132 47.1667,132 48.5,132C 48.5,131 48.5,130 48.5,129C 49.5,128.667 50.5,128.333 51.5,128C 50.1854,126.605 50.5188,125.605 52.5,125C 51.269,123.817 51.269,122.651 52.5,121.5C 53.8826,129.422 55.216,129.422 56.5,121.5C 57.5,121.5 58.5,121.5 59.5,121.5 Z"/></g>
<g><path style="opacity:1" fill="#ddeff0" d="M 159.5,141.5 C 158.559,138.875 157.393,138.875 156,141.5C 153.139,141.092 152.972,141.925 155.5,144C 155.043,144.414 154.709,144.914 154.5,145.5C 152.627,144.911 150.96,145.578 149.5,147.5C 150.328,148.415 151.328,149.081 152.5,149.5C 155.833,148.167 159.167,148.167 162.5,149.5C 163.893,150.517 164.227,151.517 163.5,152.5C 161.119,150.608 158.453,150.108 155.5,151C 157.795,151.984 157.461,152.817 154.5,153.5C 153.313,152.106 152.646,152.273 152.5,154C 153.01,155.826 153.844,155.993 155,154.5C 157.902,156.211 160.902,156.544 164,155.5C 164.195,156.819 164.028,158.153 163.5,159.5C 157.833,159.5 152.167,159.5 146.5,159.5C 144.966,157.658 145.3,156.325 147.5,155.5C 148.696,155.846 148.696,156.346 147.5,157C 148.793,157.49 150.127,157.657 151.5,157.5C 151.884,155.335 151.217,153.668 149.5,152.5C 147.902,152.61 146.235,152.943 144.5,153.5C 142.885,152.846 141.218,152.346 139.5,152C 141.878,151.026 141.544,150.359 138.5,150C 140.055,148.354 141.721,148.021 143.5,149C 144.711,148.107 144.711,147.274 143.5,146.5C 141.306,146.642 138.973,146.309 136.5,145.5C 136.286,143.856 136.62,142.356 137.5,141C 134.625,139.745 133.625,137.911 134.5,135.5C 135.94,133.612 137.607,132.945 139.5,133.5C 140.747,131.958 140.747,130.458 139.5,129C 152.513,128.167 165.513,128.334 178.5,129.5C 178.192,130.308 177.692,130.975 177,131.5C 176.259,130.359 175.425,130.359 174.5,131.5C 173.522,131.023 172.689,130.357 172,129.5C 171.047,131.455 169.713,133.122 168,134.5C 167.667,133.833 167.333,133.167 167,132.5C 165.409,136.402 162.909,139.402 159.5,141.5 Z"/></g>
<g><path style="opacity:1" fill="#989d9d" d="M 104.5,146.5 C 104.585,147.995 103.919,148.995 102.5,149.5C 100.378,149.377 98.2109,149.377 96,149.5C 95.6667,148.833 95.3333,148.167 95,147.5C 94.3109,148.357 93.4776,149.023 92.5,149.5C 90.3775,149.377 88.2109,149.377 86,149.5C 85.5172,148.552 85.3505,147.552 85.5,146.5C 92.0463,145.518 98.3796,145.518 104.5,146.5 Z"/></g>
<g><path style="opacity:1" fill="#959c9d" d="M 45.5,152.5 C 47.0174,152.511 48.1841,153.177 49,154.5C 49.3333,153.833 49.6667,153.167 50,152.5C 51.7683,153.682 51.9349,155.015 50.5,156.5C 47.7954,156.237 45.1288,155.904 42.5,155.5C 42.281,154.325 42.6143,153.325 43.5,152.5C 44.4288,153.55 45.0954,153.55 45.5,152.5 Z"/></g>
<g><path style="opacity:1" fill="#959b9c" d="M 58.5,156.5 C 56.9498,156.508 55.2832,156.175 53.5,155.5C 52.2241,154.614 52.2241,153.614 53.5,152.5C 54.5,153.833 55.5,153.833 56.5,152.5C 57.4776,152.977 58.3109,153.643 59,154.5C 59.3333,153.833 59.6667,153.167 60,152.5C 62.0688,154.704 61.5688,156.037 58.5,156.5 Z"/></g>
<g><path style="opacity:0.981" fill="#d4dedf" d="M 134.5,135.5 C 133.625,137.911 134.625,139.745 137.5,141C 136.62,142.356 136.286,143.856 136.5,145.5C 138.973,146.309 141.306,146.642 143.5,146.5C 144.711,147.274 144.711,148.107 143.5,149C 141.721,148.021 140.055,148.354 138.5,150C 141.544,150.359 141.878,151.026 139.5,152C 141.218,152.346 142.885,152.846 144.5,153.5C 146.235,152.943 147.902,152.61 149.5,152.5C 151.217,153.668 151.884,155.335 151.5,157.5C 150.127,157.657 148.793,157.49 147.5,157C 148.696,156.346 148.696,155.846 147.5,155.5C 145.3,156.325 144.966,157.658 146.5,159.5C 129.167,159.5 111.833,159.5 94.5,159.5C 98.2831,157.172 97.6164,155.839 92.5,155.5C 92.1192,153.058 92.7859,152.391 94.5,153.5C 97.8333,150.833 101.167,150.833 104.5,153.5C 106.737,153.306 108.903,153.306 111,153.5C 111.483,152.552 111.649,151.552 111.5,150.5C 112.5,150.5 113.5,150.5 114.5,150.5C 114.351,151.552 114.517,152.552 115,153.5C 117.734,152.638 117.901,151.805 115.5,151C 116.672,150.581 117.672,149.915 118.5,149C 115.405,148.304 112.405,148.47 109.5,149.5C 108.614,148.675 108.281,147.675 108.5,146.5C 111.5,146.167 113.167,144.5 113.5,141.5C 114.978,141.238 116.311,141.571 117.5,142.5C 116.332,143.906 116.665,145.072 118.5,146C 122.892,147.046 126.892,145.879 130.5,142.5C 128.724,141.685 128.057,140.518 128.5,139C 129.749,137.176 130.915,137.343 132,139.5C 132,138.167 132,136.833 132,135.5C 133.392,133.158 134.225,133.158 134.5,135.5 Z"/></g>
<g><path style="opacity:1" fill="#909697" d="M 119.5,152.5 C 120.458,152.953 121.292,153.619 122,154.5C 122.333,153.833 122.667,153.167 123,152.5C 125.211,152.623 127.378,152.623 129.5,152.5C 132.188,154.023 132.022,155.357 129,156.5C 128,155.167 127,155.167 126,156.5C 125.667,155.833 125.333,155.167 125,154.5C 122.087,157.133 120.254,156.467 119.5,152.5 Z"/></g>
<g><path style="opacity:0.987" fill="#c5cfd0" d="M 159.5,141.5 C 159.834,143.545 160.168,145.211 160.5,146.5C 161.732,145.855 163.065,145.689 164.5,146C 163.289,145.107 163.289,144.274 164.5,143.5C 167.861,145.541 171.194,146.874 174.5,147.5C 173.399,149.394 172.066,150.061 170.5,149.5C 176.152,155.481 175.152,157.481 167.5,155.5C 165.889,156.32 165.222,157.654 165.5,159.5C 164.833,159.5 164.167,159.5 163.5,159.5C 164.028,158.153 164.195,156.819 164,155.5C 160.902,156.544 157.902,156.211 155,154.5C 153.844,155.993 153.01,155.826 152.5,154C 152.646,152.273 153.313,152.106 154.5,153.5C 157.461,152.817 157.795,151.984 155.5,151C 158.453,150.108 161.119,150.608 163.5,152.5C 164.227,151.517 163.893,150.517 162.5,149.5C 159.167,148.167 155.833,148.167 152.5,149.5C 151.328,149.081 150.328,148.415 149.5,147.5C 150.96,145.578 152.627,144.911 154.5,145.5C 154.709,144.914 155.043,144.414 155.5,144C 152.972,141.925 153.139,141.092 156,141.5C 157.393,138.875 158.559,138.875 159.5,141.5 Z"/></g>
<g><path style="opacity:0.949" fill="#d4e1e2" d="M 42.5,143.5 C 45.9771,146.676 49.6438,147.176 53.5,145C 50.8333,144 50.8333,143 53.5,142C 50.7133,140.093 50.88,138.593 54,137.5C 58.0693,140.276 61.5693,143.609 64.5,147.5C 64.1667,148.5 63.5,149.167 62.5,149.5C 57.5969,148.916 52.5969,148.583 47.5,148.5C 45.8888,149.32 45.2222,150.654 45.5,152.5C 45.0954,153.55 44.4288,153.55 43.5,152.5C 42.6143,153.325 42.281,154.325 42.5,155.5C 45.1288,155.904 47.7954,156.237 50.5,156.5C 51.791,156.737 52.791,156.404 53.5,155.5C 55.2832,156.175 56.9498,156.508 58.5,156.5C 56.8102,156.856 55.8102,157.856 55.5,159.5C 47.1667,159.5 38.8333,159.5 30.5,159.5C 30.33,158.178 30.6634,157.011 31.5,156C 29.033,153.957 29.033,151.79 31.5,149.5C 29.8347,149.166 28.0014,149.166 26,149.5C 25.5172,148.552 25.3505,147.552 25.5,146.5C 27.6133,145.744 29.6133,145.577 31.5,146C 30.7599,144.215 30.0933,142.382 29.5,140.5C 30.9473,138.597 32.614,136.93 34.5,135.5C 33.9478,133.997 33.9478,132.331 34.5,130.5C 36.8568,130.337 39.1902,130.503 41.5,131C 39.4603,132.769 37.9603,134.935 37,137.5C 36.7744,140.095 36.2744,142.595 35.5,145C 36.0253,145.692 36.6919,146.192 37.5,146.5C 38.853,145.315 40.0197,143.981 41,142.5C 41.3826,143.056 41.8826,143.389 42.5,143.5 Z"/></g>
</svg>
