<?xml version="1.0" encoding="UTF-8"?>
<!DOCTYPE svg PUBLIC "-//W3C//DTD SVG 1.1//EN" "http://www.w3.org/Graphics/SVG/1.1/DTD/svg11.dtd">
<svg xmlns="http://www.w3.org/2000/svg" version="1.1" width="100px" height="100px" style="shape-rendering:geometricPrecision; text-rendering:geometricPrecision; image-rendering:optimizeQuality; fill-rule:evenodd; clip-rule:evenodd" xmlns:xlink="http://www.w3.org/1999/xlink">
<g><path style="opacity:1" fill="#532203" d="M 34.5,8.5 C 35.8333,8.5 37.1667,8.5 38.5,8.5C 43.4449,10.6409 42.7783,11.6409 36.5,11.5C 36.9662,13.2012 36.9662,14.7012 36.5,16C 34.1902,16.4966 31.8568,16.6633 29.5,16.5C 28.1266,16.6567 26.7932,16.49 25.5,16C 26.3802,14.6439 26.7135,13.1439 26.5,11.5C 29.9476,12.0994 32.6143,11.0994 34.5,8.5 Z"/></g>
<g><path style="opacity:1" fill="#7d583e" d="M 60.5,6.5 C 60.5,6.83333 60.5,7.16667 60.5,7.5C 58.631,9.63528 57.9644,12.3019 58.5,15.5C 55.8333,15.5 53.1667,15.5 50.5,15.5C 51.1667,12.8333 51.8333,10.1667 52.5,7.5C 55.1667,7.16667 57.8333,6.83333 60.5,6.5 Z"/></g>
<g><path style="opacity:1" fill="#62330d" d="M 38.5,8.5 C 39.209,7.59603 40.209,7.26269 41.5,7.5C 43.0419,8.16348 44.7086,8.83015 46.5,9.5C 45.6218,11.7482 45.9551,13.9149 47.5,16C 45.8333,16.3333 44.1667,16.6667 42.5,17C 43.756,17.4169 44.4226,18.2502 44.5,19.5C 42.1667,19.5 39.8333,19.5 37.5,19.5C 35.3647,17.631 32.6981,16.9644 29.5,17.5C 29.5,17.1667 29.5,16.8333 29.5,16.5C 31.8568,16.6633 34.1902,16.4966 36.5,16C 36.9662,14.7012 36.9662,13.2012 36.5,11.5C 42.7783,11.6409 43.4449,10.6409 38.5,8.5 Z"/></g>
<g><path style="opacity:1" fill="#673a15" d="M 60.5,6.5 C 63.7131,6.19 66.7131,6.52333 69.5,7.5C 70.5695,10.26 71.5695,13.0933 72.5,16C 71.8333,16.3333 71.1667,16.6667 70.5,17C 71.9423,17.3768 72.9423,18.2101 73.5,19.5C 72.1667,19.5 70.8333,19.5 69.5,19.5C 69.2089,18.3509 68.3756,17.6842 67,17.5C 65.3009,17.3866 64.1342,18.0532 63.5,19.5C 62.1667,19.5 60.8333,19.5 59.5,19.5C 59.9528,18.5416 60.6195,17.7083 61.5,17C 60.8333,16.6667 60.1667,16.3333 59.5,16C 60.4438,13.2809 60.7771,10.4475 60.5,7.5C 60.5,7.16667 60.5,6.83333 60.5,6.5 Z"/></g>
<g><path style="opacity:1" fill="#552401" d="M 62.5,7.5 C 63.8333,7.5 65.1667,7.5 66.5,7.5C 66.5,8.83333 66.5,10.1667 66.5,11.5C 67.5,11.5 68.5,11.5 69.5,11.5C 69.5,13.1667 69.5,14.8333 69.5,16.5C 67.5,16.5 65.5,16.5 63.5,16.5C 63.2962,13.4824 62.9629,10.4824 62.5,7.5 Z"/></g>
<g><path style="opacity:1" fill="#764d2e" d="M 41.5,7.5 C 45.1667,7.5 48.8333,7.5 52.5,7.5C 51.8333,10.1667 51.1667,12.8333 50.5,15.5C 53.1667,15.5 55.8333,15.5 58.5,15.5C 57.9644,12.3019 58.631,9.63528 60.5,7.5C 60.7771,10.4475 60.4438,13.2809 59.5,16C 60.1667,16.3333 60.8333,16.6667 61.5,17C 60.6195,17.7083 59.9528,18.5416 59.5,19.5C 54.5,19.5 49.5,19.5 44.5,19.5C 44.4226,18.2502 43.756,17.4169 42.5,17C 44.1667,16.6667 45.8333,16.3333 47.5,16C 45.9551,13.9149 45.6218,11.7482 46.5,9.5C 44.7086,8.83015 43.0419,8.16348 41.5,7.5 Z"/></g>
<g><path style="opacity:1" fill="#855b3b" d="M 69.5,7.5 C 71.0376,9.42143 72.871,11.0881 75,12.5C 75.1667,13.8333 75.3333,15.1667 75.5,16.5C 75.4146,18.3328 74.7479,19.6661 73.5,20.5C 73.5,20.1667 73.5,19.8333 73.5,19.5C 72.9423,18.2101 71.9423,17.3768 70.5,17C 71.1667,16.6667 71.8333,16.3333 72.5,16C 71.5695,13.0933 70.5695,10.26 69.5,7.5 Z"/></g>
<g><path style="opacity:1" fill="#501d02" d="M 29.5,17.5 C 32.6981,16.9644 35.3647,17.631 37.5,19.5C 33.5,19.5 29.5,19.5 25.5,19.5C 26.287,17.8958 27.6203,17.2291 29.5,17.5 Z"/></g>
<g><path style="opacity:1" fill="#7d5231" d="M 34.5,8.5 C 32.6143,11.0994 29.9476,12.0994 26.5,11.5C 26.7135,13.1439 26.3802,14.6439 25.5,16C 26.7932,16.49 28.1266,16.6567 29.5,16.5C 29.5,16.8333 29.5,17.1667 29.5,17.5C 27.6203,17.2291 26.287,17.8958 25.5,19.5C 24.5084,19.3284 23.8417,19.6618 23.5,20.5C 22.3622,17.6965 22.1955,14.6965 23,11.5C 26.9599,10.82 30.7932,9.82 34.5,8.5 Z"/></g>
<g><path style="opacity:1" fill="#4b1800" d="M 69.5,19.5 C 67.5,19.5 65.5,19.5 63.5,19.5C 64.1342,18.0532 65.3009,17.3866 67,17.5C 68.3756,17.6842 69.2089,18.3509 69.5,19.5 Z"/></g>
<g><path style="opacity:1" fill="#958577" d="M 23.5,20.5 C 23.8417,19.6618 24.5084,19.3284 25.5,19.5C 29.5,19.5 33.5,19.5 37.5,19.5C 39.8333,19.5 42.1667,19.5 44.5,19.5C 49.5,19.5 54.5,19.5 59.5,19.5C 60.8333,19.5 62.1667,19.5 63.5,19.5C 65.5,19.5 67.5,19.5 69.5,19.5C 70.8333,19.5 72.1667,19.5 73.5,19.5C 73.5,19.8333 73.5,20.1667 73.5,20.5C 61.4197,20.1881 49.4197,20.5214 37.5,21.5C 33.5,21.5 29.5,21.5 25.5,21.5C 24.8333,21.1667 24.1667,20.8333 23.5,20.5 Z"/></g>
<g><path style="opacity:1" fill="#dad9d8" d="M 23.5,20.5 C 24.1667,20.8333 24.8333,21.1667 25.5,21.5C 26.172,22.2674 27.0053,22.9341 28,23.5C 28.2178,26.4262 28.7178,29.2595 29.5,32C 28.944,32.3826 28.6107,32.8826 28.5,33.5C 27.8333,33.5 27.1667,33.5 26.5,33.5C 25.8333,33.5 25.1667,33.5 24.5,33.5C 24.0728,29.1756 23.7395,24.8422 23.5,20.5 Z"/></g>
<g><path style="opacity:1" fill="#babab8" d="M 25.5,21.5 C 29.5,21.5 33.5,21.5 37.5,21.5C 36.9935,22.8589 35.9935,23.8589 34.5,24.5C 36.1498,27.3477 35.8164,29.8477 33.5,32C 34.7375,32.2321 35.7375,32.7321 36.5,33.5C 33.8333,33.5 31.1667,33.5 28.5,33.5C 28.6107,32.8826 28.944,32.3826 29.5,32C 28.7178,29.2595 28.2178,26.4262 28,23.5C 27.0053,22.9341 26.172,22.2674 25.5,21.5 Z"/></g>
<g><path style="opacity:1" fill="#c9c7c4" d="M 73.5,20.5 C 73.5,21.1667 73.5,21.8333 73.5,22.5C 63.1613,22.3335 52.828,22.5002 42.5,23C 41.2117,25.4665 41.2117,27.9665 42.5,30.5C 41.9747,31.1924 41.3081,31.6924 40.5,32C 42.3817,32.1981 44.0484,32.6981 45.5,33.5C 42.5,33.5 39.5,33.5 36.5,33.5C 35.7375,32.7321 34.7375,32.2321 33.5,32C 35.8164,29.8477 36.1498,27.3477 34.5,24.5C 35.9935,23.8589 36.9935,22.8589 37.5,21.5C 49.4197,20.5214 61.4197,20.1881 73.5,20.5 Z"/></g>
<g><path style="opacity:1" fill="#e7e7e7" d="M 73.5,22.5 C 73.0846,26.2873 73.0846,29.9539 73.5,33.5C 72.8333,33.5 72.1667,33.5 71.5,33.5C 70.8333,33.5 70.1667,33.5 69.5,33.5C 67.5,33.5 65.5,33.5 63.5,33.5C 57.5,33.5 51.5,33.5 45.5,33.5C 44.0484,32.6981 42.3817,32.1981 40.5,32C 41.3081,31.6924 41.9747,31.1924 42.5,30.5C 41.2117,27.9665 41.2117,25.4665 42.5,23C 52.828,22.5002 63.1613,22.3335 73.5,22.5 Z"/></g>
<g><path style="opacity:1" fill="#f7f7f8" d="M 48.5,23.5 C 52.5,23.5 56.5,23.5 60.5,23.5C 60.012,26.7107 60.6787,29.544 62.5,32C 57.8452,32.4992 53.1785,32.6658 48.5,32.5C 48.5,29.5 48.5,26.5 48.5,23.5 Z"/></g>
<g><path style="opacity:1" fill="#a38263" d="M 45.5,33.5 C 51.5,33.5 57.5,33.5 63.5,33.5C 63.0825,34.2216 62.4158,34.7216 61.5,35C 63.7618,41.2914 61.7618,44.2914 55.5,44C 54.3636,45.1451 53.3636,46.3117 52.5,47.5C 52.1667,47.5 51.8333,47.5 51.5,47.5C 51.6583,45.1789 52.6583,43.3455 54.5,42C 51.3861,40.9126 49.0528,41.746 47.5,44.5C 45.5864,41.3157 44.9197,37.649 45.5,33.5 Z"/></g>
<g><path style="opacity:1" fill="#906745" d="M 63.5,33.5 C 65.5,33.5 67.5,33.5 69.5,33.5C 69.6716,34.4916 69.3382,35.1583 68.5,35.5C 67.4061,42.3203 66.5728,49.3203 66,56.5C 65.2401,52.181 64.5735,47.8477 64,43.5C 62.6487,45.019 61.1487,46.3523 59.5,47.5C 59.8627,48.1835 60.1961,48.8501 60.5,49.5C 59.8333,49.5 59.1667,49.5 58.5,49.5C 56.5648,50.1495 54.5648,50.4828 52.5,50.5C 52.5,49.5 52.5,48.5 52.5,47.5C 53.3636,46.3117 54.3636,45.1451 55.5,44C 61.7618,44.2914 63.7618,41.2914 61.5,35C 62.4158,34.7216 63.0825,34.2216 63.5,33.5 Z"/></g>
<g><path style="opacity:0.841" fill="#cab5a0" d="M 24.5,33.5 C 25.1667,33.5 25.8333,33.5 26.5,33.5C 26.8382,48.9308 27.8382,64.2642 29.5,79.5C 28.8333,79.5 28.1667,79.5 27.5,79.5C 26.5,64.1667 25.5,48.8333 24.5,33.5 Z"/></g>
<g><path style="opacity:1" fill="#744827" d="M 51.5,47.5 C 50.9396,49.8008 50.4396,52.1341 50,54.5C 48.9887,55.3366 47.8221,55.67 46.5,55.5C 44.8212,55.7148 43.8212,55.0481 43.5,53.5C 41.3792,53.3253 39.3792,53.6586 37.5,54.5C 36.5041,54.5858 35.6708,54.2524 35,53.5C 33.7069,49.4179 34.8735,46.2513 38.5,44C 40.9436,43.6011 41.6102,44.4345 40.5,46.5C 39.0944,45.3318 37.9277,45.6652 37,47.5C 36.5065,49.1341 36.3398,50.8008 36.5,52.5C 37.552,52.6495 38.552,52.4828 39.5,52C 40.1898,49.304 41.6898,47.1374 44,45.5C 46.1777,48.4685 47.3444,48.1351 47.5,44.5C 49.0528,41.746 51.3861,40.9126 54.5,42C 52.6583,43.3455 51.6583,45.1789 51.5,47.5 Z"/></g>
<g><path style="opacity:1" fill="#9c795b" d="M 49.5,43.5 C 50.1239,43.9169 50.4573,44.5836 50.5,45.5C 50.0465,48.222 49.3798,50.8886 48.5,53.5C 48.1667,52.8333 47.8333,52.1667 47.5,51.5C 48.1712,48.8151 48.8379,46.1484 49.5,43.5 Z"/></g>
<g><path style="opacity:0.537" fill="#af967f" d="M 71.5,33.5 C 72.1667,33.5 72.8333,33.5 73.5,33.5C 71.829,48.9299 70.1623,64.2633 68.5,79.5C 68.8807,64.1225 69.8807,48.7892 71.5,33.5 Z"/></g>
<g><path style="opacity:1" fill="#a48264" d="M 51.5,47.5 C 51.8333,47.5 52.1667,47.5 52.5,47.5C 52.5,48.5 52.5,49.5 52.5,50.5C 54.5648,50.4828 56.5648,50.1495 58.5,49.5C 58.9175,50.2216 59.5842,50.7216 60.5,51C 59.5631,60.9364 58.5631,70.7697 57.5,80.5C 57.5,76.1667 57.5,71.8333 57.5,67.5C 56.8836,63.9941 55.2169,63.1608 52.5,65C 50.1667,65.6667 47.8333,65.6667 45.5,65C 48.9316,64.8839 51.9316,63.7172 54.5,61.5C 53.6431,60.5748 52.6431,59.9081 51.5,59.5C 49.2889,58.8889 47.6223,57.5556 46.5,55.5C 47.8221,55.67 48.9887,55.3366 50,54.5C 50.4396,52.1341 50.9396,49.8008 51.5,47.5 Z"/></g>
<g><path style="opacity:1" fill="#916a49" d="M 43.5,53.5 C 42.1448,51.3196 42.3115,49.3196 44,47.5C 44.3589,50.5443 45.0255,50.8776 46,48.5C 46.3247,50.5527 45.9913,52.5527 45,54.5C 44.6174,53.944 44.1174,53.6107 43.5,53.5 Z"/></g>
<g><path style="opacity:1" fill="#966e49" d="M 41.5,80.5 C 43.5,80.5 45.5,80.5 47.5,80.5C 44.0381,81.4816 40.3714,81.815 36.5,81.5C 34.1016,81.7406 32.1016,81.0739 30.5,79.5C 30.5,73.8333 30.5,68.1667 30.5,62.5C 31.665,59.8529 32.8316,57.1862 34,54.5C 37.7702,55.5889 38.6036,57.7556 36.5,61C 37.4237,67.4797 38.0904,73.9797 38.5,80.5C 39.5,80.5 40.5,80.5 41.5,80.5 Z"/></g>
<g><path style="opacity:1" fill="#98704d" d="M 28.5,33.5 C 31.1667,33.5 33.8333,33.5 36.5,33.5C 39.5,33.5 42.5,33.5 45.5,33.5C 44.9197,37.649 45.5864,41.3157 47.5,44.5C 47.3444,48.1351 46.1777,48.4685 44,45.5C 41.6898,47.1374 40.1898,49.304 39.5,52C 38.552,52.4828 37.552,52.6495 36.5,52.5C 36.3398,50.8008 36.5065,49.1341 37,47.5C 37.9277,45.6652 39.0944,45.3318 40.5,46.5C 41.6102,44.4345 40.9436,43.6011 38.5,44C 34.8735,46.2513 33.7069,49.4179 35,53.5C 35.6708,54.2524 36.5041,54.5858 37.5,54.5C 39.0133,63.0105 40.3466,71.6771 41.5,80.5C 40.5,80.5 39.5,80.5 38.5,80.5C 38.0904,73.9797 37.4237,67.4797 36.5,61C 38.6036,57.7556 37.7702,55.5889 34,54.5C 32.8316,57.1862 31.665,59.8529 30.5,62.5C 29.4892,53.0084 28.8225,43.3417 28.5,33.5 Z"/></g>
<g><path style="opacity:1" fill="#98714e" d="M 68.5,35.5 C 68.3265,50.1711 67.9931,64.8378 67.5,79.5C 66.609,80.1098 65.609,80.4431 64.5,80.5C 63.5,80.5 62.5,80.5 61.5,80.5C 61.4972,69.3981 61.9972,58.3981 63,47.5C 62.2917,48.3805 61.4584,49.0472 60.5,49.5C 60.1961,48.8501 59.8627,48.1835 59.5,47.5C 61.1487,46.3523 62.6487,45.019 64,43.5C 64.5735,47.8477 65.2401,52.181 66,56.5C 66.5728,49.3203 67.4061,42.3203 68.5,35.5 Z"/></g>
<g><path style="opacity:1" fill="#af8f73" d="M 26.5,33.5 C 27.1667,33.5 27.8333,33.5 28.5,33.5C 28.8225,43.3417 29.4892,53.0084 30.5,62.5C 30.5,68.1667 30.5,73.8333 30.5,79.5C 30.1667,79.5 29.8333,79.5 29.5,79.5C 27.8382,64.2642 26.8382,48.9308 26.5,33.5 Z"/></g>
<g><path style="opacity:1" fill="#9d7756" d="M 64.5,80.5 C 64.5,80.8333 64.5,81.1667 64.5,81.5C 61.8333,81.5 59.1667,81.5 56.5,81.5C 52.8284,80.9553 53.1617,80.6219 57.5,80.5C 58.5631,70.7697 59.5631,60.9364 60.5,51C 59.5842,50.7216 58.9175,50.2216 58.5,49.5C 59.1667,49.5 59.8333,49.5 60.5,49.5C 61.4584,49.0472 62.2917,48.3805 63,47.5C 61.9972,58.3981 61.4972,69.3981 61.5,80.5C 62.5,80.5 63.5,80.5 64.5,80.5 Z"/></g>
<g><path style="opacity:1" fill="#9a7351" d="M 43.5,53.5 C 43.8212,55.0481 44.8212,55.7148 46.5,55.5C 47.6223,57.5556 49.2889,58.8889 51.5,59.5C 48.8127,59.3359 46.146,59.5026 43.5,60C 42.273,61.5874 42.6063,62.9207 44.5,64C 43.2624,63.9227 42.2624,64.0894 41.5,64.5C 42.379,69.0547 45.0457,71.388 49.5,71.5C 48.7375,72.2679 47.7375,72.7679 46.5,73C 47.435,75.3806 47.7683,77.8806 47.5,80.5C 45.5,80.5 43.5,80.5 41.5,80.5C 40.3466,71.6771 39.0133,63.0105 37.5,54.5C 39.3792,53.6586 41.3792,53.3253 43.5,53.5 Z"/></g>
<g><path style="opacity:1" fill="#734827" d="M 51.5,59.5 C 52.6431,59.9081 53.6431,60.5748 54.5,61.5C 51.9316,63.7172 48.9316,64.8839 45.5,65C 47.8333,65.6667 50.1667,65.6667 52.5,65C 55.2169,63.1608 56.8836,63.9941 57.5,67.5C 54.8333,68.8333 52.1667,70.1667 49.5,71.5C 45.0457,71.388 42.379,69.0547 41.5,64.5C 42.2624,64.0894 43.2624,63.9227 44.5,64C 42.6063,62.9207 42.273,61.5874 43.5,60C 46.146,59.5026 48.8127,59.3359 51.5,59.5 Z"/></g>
<g><path style="opacity:1" fill="#ab8a6d" d="M 54.5,65.5 C 55.7125,66.4971 55.5458,67.4971 54,68.5C 53.5304,67.4232 53.6971,66.4232 54.5,65.5 Z"/></g>
<g><path style="opacity:1" fill="#a68466" d="M 69.5,33.5 C 70.1667,33.5 70.8333,33.5 71.5,33.5C 69.8807,48.7892 68.8807,64.1225 68.5,79.5C 68.1667,79.5 67.8333,79.5 67.5,79.5C 67.9931,64.8378 68.3265,50.1711 68.5,35.5C 69.3382,35.1583 69.6716,34.4916 69.5,33.5 Z"/></g>
<g><path style="opacity:1" fill="#a68568" d="M 57.5,67.5 C 57.5,71.8333 57.5,76.1667 57.5,80.5C 53.1617,80.6219 52.8284,80.9553 56.5,81.5C 54.0521,82.4731 51.3854,82.8064 48.5,82.5C 45.1667,82.5 41.8333,82.5 38.5,82.5C 37.5084,82.6716 36.8417,82.3382 36.5,81.5C 40.3714,81.815 44.0381,81.4816 47.5,80.5C 47.7683,77.8806 47.435,75.3806 46.5,73C 47.7375,72.7679 48.7375,72.2679 49.5,71.5C 52.1667,70.1667 54.8333,68.8333 57.5,67.5 Z"/></g>
<g><path style="opacity:1" fill="#cbcbca" d="M 27.5,79.5 C 28.1667,79.5 28.8333,79.5 29.5,79.5C 29.8333,79.5 30.1667,79.5 30.5,79.5C 32.1016,81.0739 34.1016,81.7406 36.5,81.5C 36.8417,82.3382 37.5084,82.6716 38.5,82.5C 40.2184,83.224 42.0517,83.8906 44,84.5C 42.8497,86.5951 42.3497,88.7618 42.5,91C 43.4158,91.2784 44.0825,91.7784 44.5,92.5C 43.1667,92.5 41.8333,92.5 40.5,92.5C 39.6993,90.9582 39.366,89.2915 39.5,87.5C 36.2027,87.6713 35.8694,87.0046 38.5,85.5C 37,84.5 35.5,83.5 34,82.5C 33.5,82.8333 33,83.1667 32.5,83.5C 32.9461,85.3682 33.2795,87.2015 33.5,89C 32.552,89.4828 31.552,89.6495 30.5,89.5C 28.6897,86.6279 27.6897,83.2946 27.5,79.5 Z"/></g>
<g><path style="opacity:1" fill="#f0f0f0" d="M 56.5,81.5 C 59.1667,81.5 61.8333,81.5 64.5,81.5C 63.0283,83.1343 61.3617,84.6343 59.5,86C 62.5443,86.3589 62.8776,87.0255 60.5,88C 61.1667,88.6667 61.8333,89.3333 62.5,90C 58.6251,91.5204 54.6251,91.8538 50.5,91C 51.0585,90.2753 51.3918,89.4419 51.5,88.5C 50.0366,86.7112 49.0366,84.7112 48.5,82.5C 51.3854,82.8064 54.0521,82.4731 56.5,81.5 Z"/></g>
<g><path style="opacity:1" fill="#bab9b7" d="M 40.5,92.5 C 36.7144,92.68 33.381,91.68 30.5,89.5C 31.552,89.6495 32.552,89.4828 33.5,89C 33.2795,87.2015 32.9461,85.3682 32.5,83.5C 33,83.1667 33.5,82.8333 34,82.5C 35.5,83.5 37,84.5 38.5,85.5C 35.8694,87.0046 36.2027,87.6713 39.5,87.5C 39.366,89.2915 39.6993,90.9582 40.5,92.5 Z"/></g>
<g><path style="opacity:1" fill="#e2e2e1" d="M 67.5,79.5 C 67.8333,79.5 68.1667,79.5 68.5,79.5C 68.6646,82.5184 68.498,85.5184 68,88.5C 67.1667,89.3333 66.3333,90.1667 65.5,91C 58.5736,92.339 51.5736,92.839 44.5,92.5C 44.0825,91.7784 43.4158,91.2784 42.5,91C 42.3497,88.7618 42.8497,86.5951 44,84.5C 42.0517,83.8906 40.2184,83.224 38.5,82.5C 41.8333,82.5 45.1667,82.5 48.5,82.5C 49.0366,84.7112 50.0366,86.7112 51.5,88.5C 51.3918,89.4419 51.0585,90.2753 50.5,91C 54.6251,91.8538 58.6251,91.5204 62.5,90C 61.8333,89.3333 61.1667,88.6667 60.5,88C 62.8776,87.0255 62.5443,86.3589 59.5,86C 61.3617,84.6343 63.0283,83.1343 64.5,81.5C 64.5,81.1667 64.5,80.8333 64.5,80.5C 65.609,80.4431 66.609,80.1098 67.5,79.5 Z"/></g>
</svg>
