<?xml version="1.0" encoding="UTF-8"?>
<!DOCTYPE svg PUBLIC "-//W3C//DTD SVG 1.1//EN" "http://www.w3.org/Graphics/SVG/1.1/DTD/svg11.dtd">
<svg xmlns="http://www.w3.org/2000/svg" version="1.1" width="100px" height="100px" style="shape-rendering:geometricPrecision; text-rendering:geometricPrecision; image-rendering:optimizeQuality; fill-rule:evenodd; clip-rule:evenodd" xmlns:xlink="http://www.w3.org/1999/xlink">
<g><path style="opacity:0.89" fill="#cfc9a7" d="M 67.5,25.5 C 66.8333,25.1667 66.1667,24.8333 65.5,24.5C 65.5,24.1667 65.5,23.8333 65.5,23.5C 67.1765,22.8166 67.8432,21.4832 67.5,19.5C 66.5,19.5 65.5,19.5 64.5,19.5C 65.1834,17.8235 66.5168,17.1568 68.5,17.5C 68.4208,18.9305 68.7542,20.2638 69.5,21.5C 68.8201,22.8599 68.1534,24.1932 67.5,25.5 Z"/></g>
<g><path style="opacity:1" fill="#c1ba95" d="M 62.5,20.5 C 61.5,20.5 60.5,20.5 59.5,20.5C 59.7148,22.1788 59.0481,23.1788 57.5,23.5C 57.8154,19.0962 59.4821,18.0962 62.5,20.5 Z"/></g>
<g><path style="opacity:1" fill="#84aa42" d="M 64.5,19.5 C 65.5,19.5 66.5,19.5 67.5,19.5C 67.8432,21.4832 67.1765,22.8166 65.5,23.5C 62.3084,23.4045 59.3084,24.0712 56.5,25.5C 54.9689,24.0755 55.3023,23.4088 57.5,23.5C 59.0481,23.1788 59.7148,22.1788 59.5,20.5C 60.5,20.5 61.5,20.5 62.5,20.5C 63.9245,22.0311 64.5912,21.6977 64.5,19.5 Z"/></g>
<g><path style="opacity:1" fill="#f291a7" d="M 65.5,23.5 C 65.5,23.8333 65.5,24.1667 65.5,24.5C 63.901,24.2322 62.5676,24.5655 61.5,25.5C 60.8333,25.5 60.5,25.8333 60.5,26.5C 59.0413,26.4326 57.7079,26.7659 56.5,27.5C 56.5,27.1667 56.5,26.8333 56.5,26.5C 56.5,26.1667 56.5,25.8333 56.5,25.5C 59.3084,24.0712 62.3084,23.4045 65.5,23.5 Z"/></g>
<g><path style="opacity:1" fill="#67af2f" d="M 45.5,26.5 C 44.8333,26.5 44.5,26.8333 44.5,27.5C 42.8333,27.5 41.1667,27.5 39.5,27.5C 39.5,26.8333 39.1667,26.5 38.5,26.5C 40.8333,21.1667 43.1667,21.1667 45.5,26.5 Z"/></g>
<g><path style="opacity:1" fill="#71b03e" d="M 38.5,26.5 C 38.5,26.8333 38.5,27.1667 38.5,27.5C 37.1007,28.8897 35.4341,29.8897 33.5,30.5C 31.3531,29.0679 31.0198,27.2345 32.5,25C 34.8401,24.2516 36.8401,24.7516 38.5,26.5 Z"/></g>
<g><path style="opacity:1" fill="#fa86a1" d="M 65.5,24.5 C 66.1667,24.8333 66.8333,25.1667 67.5,25.5C 68.8333,26.1667 69.8333,27.1667 70.5,28.5C 70.5,28.8333 70.5,29.1667 70.5,29.5C 69.596,30.209 69.2627,31.209 69.5,32.5C 67.9251,31.6716 66.5918,31.3382 65.5,31.5C 65.458,29.1877 65.458,26.8543 65.5,24.5 Z"/></g>
<g><path style="opacity:0.851" fill="#a1b266" d="M 56.5,26.5 C 56.5,26.8333 56.5,27.1667 56.5,27.5C 54.9263,28.9842 53.593,30.6508 52.5,32.5C 51.1007,31.1103 49.4341,30.1103 47.5,29.5C 46.8333,28.8333 46.1667,28.1667 45.5,27.5C 45.5,27.1667 45.5,26.8333 45.5,26.5C 46.2216,26.0825 46.7216,25.4158 47,24.5C 48.0414,26.5852 49.5414,28.2519 51.5,29.5C 52.293,28.6446 51.9597,27.8113 50.5,27C 52.4727,26.5045 54.4727,26.3379 56.5,26.5 Z"/></g>
<g><path style="opacity:1" fill="#eb8c86" d="M 38.5,27.5 C 38.8333,27.5 39.1667,27.5 39.5,27.5C 41.1667,27.5 42.8333,27.5 44.5,27.5C 44.8333,27.5 45.1667,27.5 45.5,27.5C 46.1667,28.1667 46.8333,28.8333 47.5,29.5C 47.1667,29.5 46.8333,29.5 46.5,29.5C 45.0413,29.5674 43.7079,29.2341 42.5,28.5C 39.733,28.8702 37.733,30.2036 36.5,32.5C 36.1667,32.5 35.8333,32.5 35.5,32.5C 34.7978,31.8843 33.7978,31.8843 32.5,32.5C 32.8333,31.8333 33.1667,31.1667 33.5,30.5C 35.4341,29.8897 37.1007,28.8897 38.5,27.5 Z"/></g>
<g><path style="opacity:1" fill="#ea010f" d="M 61.5,25.5 C 64.1247,26.4577 64.1247,27.6243 61.5,29C 61.2288,31.4111 61.5621,33.9111 62.5,36.5C 62.5,38.5 62.5,40.5 62.5,42.5C 62.1667,42.5 61.8333,42.5 61.5,42.5C 61.5405,39.1194 61.2071,35.7861 60.5,32.5C 58.6203,32.7709 57.287,32.1042 56.5,30.5C 58.1667,29.5 59.5,28.1667 60.5,26.5C 60.5,25.8333 60.8333,25.5 61.5,25.5 Z"/></g>
<g><path style="opacity:1" fill="#fa1e2e" d="M 42.5,28.5 C 42.8807,29.9311 43.8807,30.7645 45.5,31C 44.9056,31.4643 44.2389,31.631 43.5,31.5C 41.9878,33.3167 39.9878,34.3167 37.5,34.5C 37.6716,33.5084 37.3382,32.8417 36.5,32.5C 37.733,30.2036 39.733,28.8702 42.5,28.5 Z"/></g>
<g><path style="opacity:1" fill="#fc1b25" d="M 61.5,25.5 C 62.5676,24.5655 63.901,24.2322 65.5,24.5C 65.458,26.8543 65.458,29.1877 65.5,31.5C 64.375,32.3478 64.375,33.3478 65.5,34.5C 65.1667,35.8333 64.8333,37.1667 64.5,38.5C 63.8333,37.8333 63.1667,37.1667 62.5,36.5C 61.5621,33.9111 61.2288,31.4111 61.5,29C 64.1247,27.6243 64.1247,26.4577 61.5,25.5 Z"/></g>
<g><path style="opacity:1" fill="#fd708c" d="M 65.5,31.5 C 66.5918,31.3382 67.9251,31.6716 69.5,32.5C 69.7845,34.4147 69.4511,36.0813 68.5,37.5C 67.5,36.5 66.5,35.5 65.5,34.5C 64.375,33.3478 64.375,32.3478 65.5,31.5 Z"/></g>
<g><path style="opacity:1" fill="#ba1715" d="M 60.5,26.5 C 59.5,28.1667 58.1667,29.5 56.5,30.5C 55.9569,30.56 55.6236,30.8933 55.5,31.5C 56.8029,33.9676 58.3029,36.301 60,38.5C 60.49,39.7932 60.6567,41.1266 60.5,42.5C 60.1667,42.5 59.8333,42.5 59.5,42.5C 57.2384,40.3152 55.7384,37.6485 55,34.5C 54.8019,36.3817 54.3019,38.0484 53.5,39.5C 53.1778,38.1418 53.1778,36.4752 53.5,34.5C 53.1667,33.8333 52.8333,33.1667 52.5,32.5C 53.593,30.6508 54.9263,28.9842 56.5,27.5C 57.7079,26.7659 59.0413,26.4326 60.5,26.5 Z"/></g>
<g><path style="opacity:1" fill="#fe4d69" d="M 70.5,29.5 C 70.5,33.8333 70.5,38.1667 70.5,42.5C 69.8333,43.8333 68.8333,44.8333 67.5,45.5C 67.5,45.1667 67.5,44.8333 67.5,44.5C 67.8693,42.5588 68.536,40.7255 69.5,39C 68.944,38.6174 68.6107,38.1174 68.5,37.5C 69.4511,36.0813 69.7845,34.4147 69.5,32.5C 69.2627,31.209 69.596,30.209 70.5,29.5 Z"/></g>
<g><path style="opacity:1" fill="#f30514" d="M 43.5,31.5 C 42.3157,32.6879 42.3157,33.8545 43.5,35C 41.9297,36.3968 40.5964,37.8968 39.5,39.5C 39.0472,38.5416 38.3805,37.7083 37.5,37C 38.1667,36.6667 38.8333,36.3333 39.5,36C 38.5842,35.7216 37.9175,35.2216 37.5,34.5C 39.9878,34.3167 41.9878,33.3167 43.5,31.5 Z"/></g>
<g><path style="opacity:1" fill="#fe6c84" d="M 46.5,29.5 C 46.8333,29.5 47.1667,29.5 47.5,29.5C 49.4341,30.1103 51.1007,31.1103 52.5,32.5C 52.8333,33.1667 53.1667,33.8333 53.5,34.5C 52.5116,35.795 51.5116,37.1283 50.5,38.5C 49.2652,38.2786 48.2652,37.6119 47.5,36.5C 46.4777,36.8555 45.811,37.5222 45.5,38.5C 45.2102,36.978 45.2102,35.478 45.5,34C 46.1667,33.3333 46.8333,32.6667 47.5,32C 46.7476,31.3292 46.4142,30.4959 46.5,29.5 Z"/></g>
<g><path style="opacity:1" fill="#de3e4c" d="M 35.5,32.5 C 35.2865,34.1439 35.6198,35.6439 36.5,37C 35.2559,37.4561 34.4226,36.9561 34,35.5C 33.2748,37.1575 33.7748,38.1575 35.5,38.5C 35.5,38.8333 35.5,39.1667 35.5,39.5C 34.209,39.2627 33.209,39.596 32.5,40.5C 32.1667,40.5 31.8333,40.5 31.5,40.5C 32.2653,37.9039 32.5987,35.2372 32.5,32.5C 33.7978,31.8843 34.7978,31.8843 35.5,32.5 Z"/></g>
<g><path style="opacity:1" fill="#ff6b7f" d="M 65.5,34.5 C 66.5,35.5 67.5,36.5 68.5,37.5C 68.6107,38.1174 68.944,38.6174 69.5,39C 68.536,40.7255 67.8693,42.5588 67.5,44.5C 65.7691,43.0145 64.7691,41.0145 64.5,38.5C 64.8333,37.1667 65.1667,35.8333 65.5,34.5 Z"/></g>
<g><path style="opacity:1" fill="#fc3547" d="M 42.5,28.5 C 43.7079,29.2341 45.0413,29.5674 46.5,29.5C 46.4142,30.4959 46.7476,31.3292 47.5,32C 46.8333,32.6667 46.1667,33.3333 45.5,34C 45.2102,35.478 45.2102,36.978 45.5,38.5C 44.0474,39.8249 44.3808,40.6582 46.5,41C 44.8608,42.5193 43.1942,42.686 41.5,41.5C 40.5,41.1667 39.8333,40.5 39.5,39.5C 40.5964,37.8968 41.9297,36.3968 43.5,35C 42.3157,33.8545 42.3157,32.6879 43.5,31.5C 44.2389,31.631 44.9056,31.4643 45.5,31C 43.8807,30.7645 42.8807,29.9311 42.5,28.5 Z"/></g>
<g><path style="opacity:0.498" fill="#dc9f8f" d="M 70.5,28.5 C 71.4767,31.2869 71.81,34.2869 71.5,37.5C 72.8734,37.3433 74.2068,37.51 75.5,38C 74.944,38.3826 74.6107,38.8826 74.5,39.5C 72.0582,39.1192 71.3915,39.7859 72.5,41.5C 72.0431,42.2975 71.3764,42.6309 70.5,42.5C 70.5,38.1667 70.5,33.8333 70.5,29.5C 70.5,29.1667 70.5,28.8333 70.5,28.5 Z"/></g>
<g><path style="opacity:0.502" fill="#bdc093" d="M 20.5,41.5 C 17.2307,41.1156 14.3974,39.7823 12,37.5C 11.5357,38.0944 11.369,38.7611 11.5,39.5C 8.97212,38.4821 9.13878,37.4821 12,36.5C 15.2927,37.5565 18.126,39.2231 20.5,41.5 Z"/></g>
<g><path style="opacity:0.208" fill="#d6b0a7" d="M 32.5,32.5 C 32.5987,35.2372 32.2653,37.9039 31.5,40.5C 30.8333,40.5 30.5,40.1667 30.5,39.5C 30.1706,36.7718 30.8372,34.4385 32.5,32.5 Z"/></g>
<g><path style="opacity:1" fill="#e5121c" d="M 35.5,32.5 C 35.8333,32.5 36.1667,32.5 36.5,32.5C 37.3382,32.8417 37.6716,33.5084 37.5,34.5C 37.9175,35.2216 38.5842,35.7216 39.5,36C 38.8333,36.3333 38.1667,36.6667 37.5,37C 38.3805,37.7083 39.0472,38.5416 39.5,39.5C 38.1667,39.1667 36.8333,38.8333 35.5,38.5C 33.7748,38.1575 33.2748,37.1575 34,35.5C 34.4226,36.9561 35.2559,37.4561 36.5,37C 35.6198,35.6439 35.2865,34.1439 35.5,32.5 Z"/></g>
<g><path style="opacity:1" fill="#ff5c6e" d="M 50.5,38.5 C 51.7181,40.3318 51.0514,41.3318 48.5,41.5C 47.8333,42.1667 47.1667,42.8333 46.5,43.5C 44.602,44.0965 42.9354,44.0965 41.5,43.5C 41.5,42.8333 41.5,42.1667 41.5,41.5C 43.1942,42.686 44.8608,42.5193 46.5,41C 44.3808,40.6582 44.0474,39.8249 45.5,38.5C 45.811,37.5222 46.4777,36.8555 47.5,36.5C 48.2652,37.6119 49.2652,38.2786 50.5,38.5 Z"/></g>
<g><path style="opacity:1" fill="#d20001" d="M 56.5,30.5 C 57.287,32.1042 58.6203,32.7709 60.5,32.5C 61.2071,35.7861 61.5405,39.1194 61.5,42.5C 61.1667,42.5 60.8333,42.5 60.5,42.5C 60.6567,41.1266 60.49,39.7932 60,38.5C 58.3029,36.301 56.8029,33.9676 55.5,31.5C 55.6236,30.8933 55.9569,30.56 56.5,30.5 Z"/></g>
<g><path style="opacity:1" fill="#f0030d" d="M 35.5,38.5 C 36.8333,38.8333 38.1667,39.1667 39.5,39.5C 39.8333,40.5 40.5,41.1667 41.5,41.5C 41.5,42.1667 41.5,42.8333 41.5,43.5C 41.1667,44.8333 40.8333,46.1667 40.5,47.5C 39.8333,47.5 39.1667,47.5 38.5,47.5C 37.3438,44.9212 36.3438,42.2545 35.5,39.5C 35.5,39.1667 35.5,38.8333 35.5,38.5 Z"/></g>
<g><path style="opacity:0.957" fill="#89ae4c" d="M 30.5,39.5 C 30.5,40.1667 30.8333,40.5 31.5,40.5C 28.8333,41.1667 26.1667,41.8333 23.5,42.5C 22.8333,42.5 22.5,42.8333 22.5,43.5C 22.1667,43.5 21.8333,43.5 21.5,43.5C 21.1667,42.8333 20.8333,42.1667 20.5,41.5C 22.1932,39.9896 23.0266,38.323 23,36.5C 24.8484,39.0414 27.3484,40.0414 30.5,39.5 Z"/></g>
<g><path style="opacity:0.808" fill="#b1bd84" d="M 11.5,40.5 C 12.552,40.3505 13.552,40.5172 14.5,41C 14.6526,42.2087 14.9859,43.3754 15.5,44.5C 15.5,44.8333 15.5,45.1667 15.5,45.5C 14.391,45.4431 13.391,45.1098 12.5,44.5C 12.5,44.1667 12.5,43.8333 12.5,43.5C 12.9382,43.5654 13.2716,43.3988 13.5,43C 12.6195,42.2917 11.9528,41.4584 11.5,40.5 Z"/></g>
<g><path style="opacity:1" fill="#a98258" d="M 31.5,40.5 C 31.8333,40.5 32.1667,40.5 32.5,40.5C 32.5,41.1667 32.5,41.8333 32.5,42.5C 29.5,42.5 26.5,42.5 23.5,42.5C 26.1667,41.8333 28.8333,41.1667 31.5,40.5 Z"/></g>
<g><path style="opacity:1" fill="#fc4143" d="M 53.5,34.5 C 53.1778,36.4752 53.1778,38.1418 53.5,39.5C 53.1218,41.921 52.4552,44.2543 51.5,46.5C 50.8333,46.8333 50.1667,47.1667 49.5,47.5C 49.1667,45.5 48.8333,43.5 48.5,41.5C 51.0514,41.3318 51.7181,40.3318 50.5,38.5C 51.5116,37.1283 52.5116,35.795 53.5,34.5 Z"/></g>
<g><path style="opacity:1" fill="#58ae1f" d="M 20.5,41.5 C 20.8333,42.1667 21.1667,42.8333 21.5,43.5C 21.5,43.8333 21.5,44.1667 21.5,44.5C 21.1667,44.5 20.8333,44.5 20.5,44.5C 18.8333,45.8333 17.1667,45.8333 15.5,44.5C 14.9859,43.3754 14.6526,42.2087 14.5,41C 13.552,40.5172 12.552,40.3505 11.5,40.5C 11.5,40.1667 11.5,39.8333 11.5,39.5C 11.369,38.7611 11.5357,38.0944 12,37.5C 14.3974,39.7823 17.2307,41.1156 20.5,41.5 Z"/></g>
<g><path style="opacity:1" fill="#fb0a0a" d="M 62.5,36.5 C 63.1667,37.1667 63.8333,37.8333 64.5,38.5C 64.7691,41.0145 65.7691,43.0145 67.5,44.5C 67.5,44.8333 67.5,45.1667 67.5,45.5C 66.4324,46.4345 65.099,46.7678 63.5,46.5C 63.7678,44.901 63.4345,43.5676 62.5,42.5C 62.5,40.5 62.5,38.5 62.5,36.5 Z"/></g>
<g><path style="opacity:1" fill="#fb8799" d="M 74.5,39.5 C 77.5616,40.2678 79.2283,42.2678 79.5,45.5C 77.5227,46.8715 75.8561,46.5382 74.5,44.5C 75.562,42.7659 75.562,41.0992 74.5,39.5 Z"/></g>
<g><path style="opacity:1" fill="#69a927" d="M 59.5,42.5 C 59.8333,42.5 60.1667,42.5 60.5,42.5C 60.8333,42.5 61.1667,42.5 61.5,42.5C 61.8039,43.1499 62.1373,43.8165 62.5,44.5C 59.9135,45.48 57.2469,45.8134 54.5,45.5C 54.4958,41.6696 56.1625,40.6696 59.5,42.5 Z"/></g>
<g><path style="opacity:1" fill="#5e9925" d="M 12.5,43.5 C 12.5,43.8333 12.5,44.1667 12.5,44.5C 9.90391,45.2653 7.23725,45.5987 4.5,45.5C 6.45379,42.4097 9.12046,41.7431 12.5,43.5 Z"/></g>
<g><path style="opacity:1" fill="#e94759" d="M 23.5,42.5 C 26.5,42.5 29.5,42.5 32.5,42.5C 32.5,43.1667 32.1667,43.5 31.5,43.5C 28.7524,43.4017 28.0857,44.4017 29.5,46.5C 29.1667,46.5 28.8333,46.5 28.5,46.5C 27.8485,45.9094 27.1818,45.2427 26.5,44.5C 25.5832,45.1272 24.5832,45.4606 23.5,45.5C 22.6618,45.1583 22.3284,44.4916 22.5,43.5C 22.5,42.8333 22.8333,42.5 23.5,42.5 Z"/></g>
<g><path style="opacity:1" fill="#f10612" d="M 31.5,43.5 C 31.5,44.1667 31.8333,44.5 32.5,44.5C 33.4408,46.0495 34.1075,47.7162 34.5,49.5C 33.5,49.8333 32.8333,50.5 32.5,51.5C 31.6618,51.1583 31.3284,50.4916 31.5,49.5C 31.2178,48.2223 30.5511,47.2223 29.5,46.5C 28.0857,44.4017 28.7524,43.4017 31.5,43.5 Z"/></g>
<g><path style="opacity:1" fill="#ff7387" d="M 48.5,41.5 C 48.8333,43.5 49.1667,45.5 49.5,47.5C 48.1266,47.3433 46.7932,47.51 45.5,48C 45.8333,48.3333 46.1667,48.6667 46.5,49C 45.5842,49.2784 44.9175,49.7784 44.5,50.5C 44.1667,50.5 43.8333,50.5 43.5,50.5C 42.529,47.4311 43.529,45.0978 46.5,43.5C 47.1667,42.8333 47.8333,42.1667 48.5,41.5 Z"/></g>
<g><path style="opacity:1" fill="#7c2108" d="M 59.5,42.5 C 56.1625,40.6696 54.4958,41.6696 54.5,45.5C 54.7373,46.791 54.404,47.791 53.5,48.5C 53.5,47.1667 52.8333,46.5 51.5,46.5C 52.4552,44.2543 53.1218,41.921 53.5,39.5C 54.3019,38.0484 54.8019,36.3817 55,34.5C 55.7384,37.6485 57.2384,40.3152 59.5,42.5 Z"/></g>
<g><path style="opacity:1" fill="#f60e1a" d="M 28.5,46.5 C 26.7215,47.6697 25.7215,49.3364 25.5,51.5C 24.5418,49.6976 23.8751,47.6976 23.5,45.5C 24.5832,45.4606 25.5832,45.1272 26.5,44.5C 27.1818,45.2427 27.8485,45.9094 28.5,46.5 Z"/></g>
<g><path style="opacity:1" fill="#d5030a" d="M 35.5,39.5 C 36.3438,42.2545 37.3438,44.9212 38.5,47.5C 37.8902,48.391 37.5569,49.391 37.5,50.5C 36.207,49.158 35.3736,47.4913 35,45.5C 34.3292,44.7476 33.4959,44.4142 32.5,44.5C 31.8333,44.5 31.5,44.1667 31.5,43.5C 32.1667,43.5 32.5,43.1667 32.5,42.5C 32.5,41.8333 32.5,41.1667 32.5,40.5C 33.209,39.596 34.209,39.2627 35.5,39.5 Z"/></g>
<g><path style="opacity:1" fill="#fe2a3c" d="M 41.5,43.5 C 42.9354,44.0965 44.602,44.0965 46.5,43.5C 43.529,45.0978 42.529,47.4311 43.5,50.5C 41.5627,51.1951 40.5627,50.1951 40.5,47.5C 40.8333,46.1667 41.1667,44.8333 41.5,43.5 Z"/></g>
<g><path style="opacity:1" fill="#2fa102" d="M 12.5,44.5 C 13.391,45.1098 14.391,45.4431 15.5,45.5C 17.0311,46.9245 16.6977,47.5912 14.5,47.5C 14.5654,47.0618 14.3988,46.7284 14,46.5C 12.324,47.0611 10.9906,48.0611 10,49.5C 7.95513,47.9568 6.45513,48.2901 5.5,50.5C 4.83333,49.8333 4.16667,49.1667 3.5,48.5C 3.26269,47.209 3.59603,46.209 4.5,45.5C 7.23725,45.5987 9.90391,45.2653 12.5,44.5 Z"/></g>
<g><path style="opacity:1" fill="#e80d13" d="M 74.5,39.5 C 75.562,41.0992 75.562,42.7659 74.5,44.5C 73.7109,44.7828 73.0442,45.2828 72.5,46C 74.6896,46.9251 76.6896,48.0918 78.5,49.5C 78.0679,50.7095 77.4013,51.7095 76.5,52.5C 76.631,51.7611 76.4643,51.0944 76,50.5C 75.7216,51.4158 75.2216,52.0825 74.5,52.5C 74.5,51.5 74.5,50.5 74.5,49.5C 71.1934,49.9368 68.1934,49.2702 65.5,47.5C 64.8933,47.6236 64.56,47.9569 64.5,48.5C 64.1667,48.5 63.8333,48.5 63.5,48.5C 62.8826,48.3893 62.3826,48.056 62,47.5C 61.1667,49.6667 59.6667,51.1667 57.5,52C 58.7736,52.9772 58.7736,53.8106 57.5,54.5C 56.5,53.8333 55.5,53.1667 54.5,52.5C 56.0744,52.0629 57.2411,51.0629 58,49.5C 58.6172,48.5509 58.4506,47.7175 57.5,47C 59.4727,46.5045 61.4727,46.3379 63.5,46.5C 65.099,46.7678 66.4324,46.4345 67.5,45.5C 68.8333,44.8333 69.8333,43.8333 70.5,42.5C 71.3764,42.6309 72.0431,42.2975 72.5,41.5C 71.3915,39.7859 72.0582,39.1192 74.5,39.5 Z"/></g>
<g><path style="opacity:1" fill="#fc5f72" d="M 74.5,44.5 C 75.8561,46.5382 77.5227,46.8715 79.5,45.5C 79.5858,46.4959 79.2524,47.3292 78.5,48C 79.0944,48.4643 79.7611,48.631 80.5,48.5C 80.1583,49.3382 79.4916,49.6716 78.5,49.5C 76.6896,48.0918 74.6896,46.9251 72.5,46C 73.0442,45.2828 73.7109,44.7828 74.5,44.5 Z"/></g>
<g><path style="opacity:1" fill="#a52310" d="M 20.5,46.5 C 19.5254,48.7952 18.1921,50.7952 16.5,52.5C 16.5,54.5 16.5,56.5 16.5,58.5C 15.8333,57.8333 15.1667,57.1667 14.5,56.5C 14.8333,54.5 15.1667,52.5 15.5,50.5C 16.5794,48.457 18.246,47.1237 20.5,46.5 Z"/></g>
<g><path style="opacity:1" fill="#fd4665" d="M 28.5,46.5 C 28.8333,46.5 29.1667,46.5 29.5,46.5C 30.5511,47.2223 31.2178,48.2223 31.5,49.5C 30.8501,49.1961 30.1835,48.8627 29.5,48.5C 28.8302,50.2914 28.1635,51.9581 27.5,53.5C 26.8333,52.8333 26.1667,52.1667 25.5,51.5C 25.7215,49.3364 26.7215,47.6697 28.5,46.5 Z"/></g>
<g><path style="opacity:0.996" fill="#6da927" d="M 15.5,44.5 C 17.1667,45.8333 18.8333,45.8333 20.5,44.5C 20.5,45.1667 20.5,45.8333 20.5,46.5C 18.246,47.1237 16.5794,48.457 15.5,50.5C 12.885,51.2906 10.2184,51.9573 7.5,52.5C 6.43236,51.5655 5.09903,51.2322 3.5,51.5C 3.5,50.5 3.5,49.5 3.5,48.5C 4.16667,49.1667 4.83333,49.8333 5.5,50.5C 7.85684,50.6633 10.1902,50.4966 12.5,50C 13.756,49.5831 14.4226,48.7498 14.5,47.5C 16.6977,47.5912 17.0311,46.9245 15.5,45.5C 15.5,45.1667 15.5,44.8333 15.5,44.5 Z"/></g>
<g><path style="opacity:1" fill="#20a600" d="M 14.5,47.5 C 14.4226,48.7498 13.756,49.5831 12.5,50C 10.1902,50.4966 7.85684,50.6633 5.5,50.5C 6.45513,48.2901 7.95513,47.9568 10,49.5C 10.9906,48.0611 12.324,47.0611 14,46.5C 14.3988,46.7284 14.5654,47.0618 14.5,47.5 Z"/></g>
<g><path style="opacity:1" fill="#aaa960" d="M 51.5,46.5 C 52.8333,46.5 53.5,47.1667 53.5,48.5C 52.8444,49.2778 52.0111,49.9444 51,50.5C 50.2352,50.4301 49.7352,50.0967 49.5,49.5C 49.5,48.8333 49.5,48.1667 49.5,47.5C 50.1667,47.1667 50.8333,46.8333 51.5,46.5 Z"/></g>
<g><path style="opacity:1" fill="#d1060b" d="M 61.5,42.5 C 61.8333,42.5 62.1667,42.5 62.5,42.5C 63.4345,43.5676 63.7678,44.901 63.5,46.5C 61.4727,46.3379 59.4727,46.5045 57.5,47C 58.4506,47.7175 58.6172,48.5509 58,49.5C 57.2411,51.0629 56.0744,52.0629 54.5,52.5C 54.1667,52.5 53.8333,52.5 53.5,52.5C 53.5,51.1667 53.5,49.8333 53.5,48.5C 54.404,47.791 54.7373,46.791 54.5,45.5C 57.2469,45.8134 59.9135,45.48 62.5,44.5C 62.1373,43.8165 61.8039,43.1499 61.5,42.5 Z"/></g>
<g><path style="opacity:1" fill="#d1bf9c" d="M 79.5,45.5 C 80.4584,45.9528 81.2917,46.6195 82,47.5C 83.5185,47.9426 84.6852,47.2759 85.5,45.5C 86.7629,47.0287 87.7629,48.6954 88.5,50.5C 86.6096,50.7035 85.1096,50.0368 84,48.5C 83.6012,48.7284 83.4346,49.0618 83.5,49.5C 82.609,48.8902 81.609,48.5569 80.5,48.5C 79.7611,48.631 79.0944,48.4643 78.5,48C 79.2524,47.3292 79.5858,46.4959 79.5,45.5 Z"/></g>
<g><path style="opacity:1" fill="#f90000" d="M 38.5,47.5 C 39.1667,47.5 39.8333,47.5 40.5,47.5C 40.5627,50.1951 41.5627,51.1951 43.5,50.5C 43.8333,50.5 44.1667,50.5 44.5,50.5C 42.403,53.1955 40.5697,52.8622 39,49.5C 38.5357,50.0944 38.369,50.7611 38.5,51.5C 37.8333,51.5 37.5,51.1667 37.5,50.5C 37.5569,49.391 37.8902,48.391 38.5,47.5 Z"/></g>
<g><path style="opacity:1" fill="#ff5b76" d="M 63.5,48.5 C 63.8333,48.5 64.1667,48.5 64.5,48.5C 65.4778,48.811 66.1445,49.4777 66.5,50.5C 66.7229,52.7382 66.3895,55.0715 65.5,57.5C 64.7375,58.2679 63.7375,58.7679 62.5,59C 65.4016,59.9186 65.7349,60.7519 63.5,61.5C 61.703,60.607 60.3696,59.2737 59.5,57.5C 62.4589,57.223 63.1256,55.8896 61.5,53.5C 62.1869,51.8228 62.8535,50.1561 63.5,48.5 Z"/></g>
<g><path style="opacity:1" fill="#dadbba" d="M 88.5,50.5 C 89.4614,52.2646 89.7947,54.2646 89.5,56.5C 89.8333,57.8333 90.1667,59.1667 90.5,60.5C 88.744,59.4479 88.0773,57.7812 88.5,55.5C 88.5,53.5 87.5,52.5 85.5,52.5C 84.8333,51.5 84.1667,50.5 83.5,49.5C 83.4346,49.0618 83.6012,48.7284 84,48.5C 85.1096,50.0368 86.6096,50.7035 88.5,50.5 Z"/></g>
<g><path style="opacity:1" fill="#de0106" d="M 20.5,44.5 C 20.8333,44.5 21.1667,44.5 21.5,44.5C 21.4571,47.9099 21.9571,51.2432 23,54.5C 24.1068,53.2881 24.6068,53.6214 24.5,55.5C 23.1667,55.5 21.8333,55.5 20.5,55.5C 17.3259,55.0478 16.9925,54.0478 19.5,52.5C 18.5754,51.4376 17.5754,51.4376 16.5,52.5C 18.1921,50.7952 19.5254,48.7952 20.5,46.5C 20.5,45.8333 20.5,45.1667 20.5,44.5 Z"/></g>
<g><path style="opacity:1" fill="#fc577a" d="M 31.5,49.5 C 31.3284,50.4916 31.6618,51.1583 32.5,51.5C 33.8333,51.8333 33.8333,52.1667 32.5,52.5C 30.9731,52.427 29.9731,53.0937 29.5,54.5C 28.8333,54.8333 28.1667,55.1667 27.5,55.5C 27.5,54.8333 27.5,54.1667 27.5,53.5C 28.1635,51.9581 28.8302,50.2914 29.5,48.5C 30.1835,48.8627 30.8501,49.1961 31.5,49.5 Z"/></g>
<g><path style="opacity:1" fill="#f11e36" d="M 63.5,48.5 C 62.8535,50.1561 62.1869,51.8228 61.5,53.5C 63.1256,55.8896 62.4589,57.223 59.5,57.5C 59.1667,57.5 58.8333,57.5 58.5,57.5C 58.4431,56.391 58.1098,55.391 57.5,54.5C 58.7736,53.8106 58.7736,52.9772 57.5,52C 59.6667,51.1667 61.1667,49.6667 62,47.5C 62.3826,48.056 62.8826,48.3893 63.5,48.5 Z"/></g>
<g><path style="opacity:1" fill="#499217" d="M 15.5,50.5 C 15.1667,52.5 14.8333,54.5 14.5,56.5C 13.5,56.8333 12.8333,57.5 12.5,58.5C 12.5,59.1667 12.1667,59.5 11.5,59.5C 10.7321,58.7375 10.2321,57.7375 10,56.5C 9.60123,56.7284 9.43456,57.0618 9.5,57.5C 7.78679,56.3646 7.12012,54.698 7.5,52.5C 10.2184,51.9573 12.885,51.2906 15.5,50.5 Z"/></g>
<g><path style="opacity:1" fill="#ec081a" d="M 21.5,43.5 C 21.8333,43.5 22.1667,43.5 22.5,43.5C 22.3284,44.4916 22.6618,45.1583 23.5,45.5C 23.8751,47.6976 24.5418,49.6976 25.5,51.5C 26.1667,52.1667 26.8333,52.8333 27.5,53.5C 27.5,54.1667 27.5,54.8333 27.5,55.5C 26.609,56.1098 25.609,56.4431 24.5,56.5C 24.5,56.1667 24.5,55.8333 24.5,55.5C 24.6068,53.6214 24.1068,53.2881 23,54.5C 21.9571,51.2432 21.4571,47.9099 21.5,44.5C 21.5,44.1667 21.5,43.8333 21.5,43.5 Z"/></g>
<g><path style="opacity:1" fill="#ea0d10" d="M 34.5,49.5 C 35.9313,50.7804 36.5979,52.4471 36.5,54.5C 37.9587,54.4326 39.2921,54.7659 40.5,55.5C 41.3382,55.8417 41.6716,56.5084 41.5,57.5C 41.8432,59.4832 41.1765,60.8166 39.5,61.5C 40.6602,59.7973 39.9935,59.1307 37.5,59.5C 37.6495,58.448 37.4828,57.448 37,56.5C 36.6667,56.8333 36.3333,57.1667 36,57.5C 34.6134,55.9535 33.4467,54.2868 32.5,52.5C 33.8333,52.1667 33.8333,51.8333 32.5,51.5C 32.8333,50.5 33.5,49.8333 34.5,49.5 Z"/></g>
<g><path style="opacity:1" fill="#ef161f" d="M 49.5,47.5 C 49.5,48.1667 49.5,48.8333 49.5,49.5C 47.8333,50.8333 46.1667,52.1667 44.5,53.5C 41.9899,53.9465 39.9899,53.2798 38.5,51.5C 38.369,50.7611 38.5357,50.0944 39,49.5C 40.5697,52.8622 42.403,53.1955 44.5,50.5C 44.9175,49.7784 45.5842,49.2784 46.5,49C 46.1667,48.6667 45.8333,48.3333 45.5,48C 46.7932,47.51 48.1266,47.3433 49.5,47.5 Z"/></g>
<g><path style="opacity:1" fill="#d10105" d="M 64.5,48.5 C 64.56,47.9569 64.8933,47.6236 65.5,47.5C 68.1934,49.2702 71.1934,49.9368 74.5,49.5C 74.5,50.5 74.5,51.5 74.5,52.5C 73.1201,52.9623 72.4534,53.9623 72.5,55.5C 73.1556,57.4534 73.4889,59.4534 73.5,61.5C 72.4937,61.9377 72.4937,62.6043 73.5,63.5C 73.5,63.8333 73.5,64.1667 73.5,64.5C 72.0256,63.5637 71.0256,62.2303 70.5,60.5C 71.2653,57.9039 71.5987,55.2372 71.5,52.5C 70.469,51.7515 69.3024,51.0848 68,50.5C 67.8227,54.3563 67.3227,58.023 66.5,61.5C 66.7678,59.901 66.4345,58.5676 65.5,57.5C 66.3895,55.0715 66.7229,52.7382 66.5,50.5C 66.1445,49.4777 65.4778,48.811 64.5,48.5 Z"/></g>
<g><path style="opacity:1" fill="#db0000" d="M 74.5,52.5 C 74.4045,55.6916 75.0712,58.6916 76.5,61.5C 75.5,60.1667 74.5,60.1667 73.5,61.5C 73.4889,59.4534 73.1556,57.4534 72.5,55.5C 72.4534,53.9623 73.1201,52.9623 74.5,52.5 Z"/></g>
<g><path style="opacity:1" fill="#881b0c" d="M 32.5,44.5 C 33.4959,44.4142 34.3292,44.7476 35,45.5C 35.3736,47.4913 36.207,49.158 37.5,50.5C 37.5,51.1667 37.8333,51.5 38.5,51.5C 39.9899,53.2798 41.9899,53.9465 44.5,53.5C 44.5,54.8333 44.5,56.1667 44.5,57.5C 43.596,56.791 43.2627,55.791 43.5,54.5C 42.209,54.2627 41.209,54.596 40.5,55.5C 39.2921,54.7659 37.9587,54.4326 36.5,54.5C 36.5979,52.4471 35.9313,50.7804 34.5,49.5C 34.1075,47.7162 33.4408,46.0495 32.5,44.5 Z"/></g>
<g><path style="opacity:1" fill="#ba0e06" d="M 53.5,48.5 C 53.5,49.8333 53.5,51.1667 53.5,52.5C 51.9988,51.5573 50.6654,51.8906 49.5,53.5C 48.5,55.5 47.5,57.5 46.5,59.5C 46.5,59.8333 46.5,60.1667 46.5,60.5C 46.1667,60.5 45.8333,60.5 45.5,60.5C 45.6716,59.5084 45.3382,58.8417 44.5,58.5C 44.5,58.1667 44.5,57.8333 44.5,57.5C 44.5,56.1667 44.5,54.8333 44.5,53.5C 46.1667,52.1667 47.8333,50.8333 49.5,49.5C 49.7352,50.0967 50.2352,50.4301 51,50.5C 52.0111,49.9444 52.8444,49.2778 53.5,48.5 Z"/></g>
<g><path style="opacity:1" fill="#d6000b" d="M 53.5,52.5 C 53.8333,52.5 54.1667,52.5 54.5,52.5C 55.5,53.1667 56.5,53.8333 57.5,54.5C 55.8564,54.8102 54.8564,55.8102 54.5,57.5C 52.9902,56.2721 51.4902,56.2721 50,57.5C 49.51,56.2068 49.3433,54.8734 49.5,53.5C 50.6654,51.8906 51.9988,51.5573 53.5,52.5 Z"/></g>
<g><path style="opacity:1" fill="#ef260c" d="M 80.5,48.5 C 81.609,48.5569 82.609,48.8902 83.5,49.5C 84.1667,50.5 84.8333,51.5 85.5,52.5C 82.9664,52.2591 81.2998,53.2591 80.5,55.5C 79.8485,54.9094 79.1818,54.2427 78.5,53.5C 77.3044,53.8457 77.3044,54.3457 78.5,55C 77.9056,55.4643 77.2389,55.631 76.5,55.5C 75.375,54.6522 75.375,53.6522 76.5,52.5C 77.4013,51.7095 78.0679,50.7095 78.5,49.5C 79.4916,49.6716 80.1583,49.3382 80.5,48.5 Z"/></g>
<g><path style="opacity:1" fill="#fc1201" d="M 80.5,55.5 C 80.5569,56.609 80.8902,57.609 81.5,58.5C 80.1879,58.8243 79.3546,59.4909 79,60.5C 77.124,59.381 76.2907,57.7144 76.5,55.5C 77.2389,55.631 77.9056,55.4643 78.5,55C 77.3044,54.3457 77.3044,53.8457 78.5,53.5C 79.1818,54.2427 79.8485,54.9094 80.5,55.5 Z"/></g>
<g><path style="opacity:1" fill="#9cbf5c" d="M 85.5,52.5 C 87.5,52.5 88.5,53.5 88.5,55.5C 85.0299,53.0838 84.6966,53.7505 87.5,57.5C 87.3764,58.1067 87.0431,58.44 86.5,58.5C 85.5637,57.0256 84.2303,56.0256 82.5,55.5C 81.8333,55.5 81.1667,55.5 80.5,55.5C 81.2998,53.2591 82.9664,52.2591 85.5,52.5 Z"/></g>
<g><path style="opacity:1" fill="#dd0107" d="M 49.5,53.5 C 49.3433,54.8734 49.51,56.2068 50,57.5C 51.4902,56.2721 52.9902,56.2721 54.5,57.5C 53.4489,58.2223 52.7822,59.2223 52.5,60.5C 50.965,59.6457 49.6316,59.6457 48.5,60.5C 47.8333,60.1667 47.1667,59.8333 46.5,59.5C 47.5,57.5 48.5,55.5 49.5,53.5 Z"/></g>
<g><path style="opacity:1" fill="#ed1b04" d="M 76.5,52.5 C 75.375,53.6522 75.375,54.6522 76.5,55.5C 76.2907,57.7144 77.124,59.381 79,60.5C 79.3546,59.4909 80.1879,58.8243 81.5,58.5C 81.2155,60.4147 81.5489,62.0813 82.5,63.5C 83.1667,63.5 83.5,63.8333 83.5,64.5C 83.5654,64.9382 83.3988,65.2716 83,65.5C 81.8873,64.695 80.7206,64.0283 79.5,63.5C 78.7095,62.5987 77.7095,61.9321 76.5,61.5C 75.0712,58.6916 74.4045,55.6916 74.5,52.5C 75.2216,52.0825 75.7216,51.4158 76,50.5C 76.4643,51.0944 76.631,51.7611 76.5,52.5 Z"/></g>
<g><path style="opacity:1" fill="#d71a34" d="M 20.5,55.5 C 19.147,56.5261 18.147,57.8595 17.5,59.5C 17.1667,59.5 16.8333,59.5 16.5,59.5C 16.5,59.1667 16.5,58.8333 16.5,58.5C 16.5,56.5 16.5,54.5 16.5,52.5C 17.5754,51.4376 18.5754,51.4376 19.5,52.5C 16.9925,54.0478 17.3259,55.0478 20.5,55.5 Z"/></g>
<g><path style="opacity:1" fill="#d41a29" d="M 20.5,55.5 C 21.8333,55.5 23.1667,55.5 24.5,55.5C 24.5,55.8333 24.5,56.1667 24.5,56.5C 23.0998,57.1001 22.0998,58.1001 21.5,59.5C 20.1667,59.5 18.8333,59.5 17.5,59.5C 18.147,57.8595 19.147,56.5261 20.5,55.5 Z"/></g>
<g><path style="opacity:1" fill="#fb4465" d="M 32.5,52.5 C 33.4467,54.2868 34.6134,55.9535 36,57.5C 36.3333,57.1667 36.6667,56.8333 37,56.5C 37.4828,57.448 37.6495,58.448 37.5,59.5C 39.9935,59.1307 40.6602,59.7973 39.5,61.5C 39.5,61.8333 39.5,62.1667 39.5,62.5C 38.8333,62.5 38.1667,62.5 37.5,62.5C 37.6309,61.6236 37.2975,60.9569 36.5,60.5C 32.8494,59.8384 30.516,57.8384 29.5,54.5C 29.9731,53.0937 30.9731,52.427 32.5,52.5 Z"/></g>
<g><path style="opacity:1" fill="#e30116" d="M 57.5,54.5 C 58.1098,55.391 58.4431,56.391 58.5,57.5C 58.5858,58.4959 58.2524,59.3292 57.5,60C 56.1667,60.3333 54.8333,60.6667 53.5,61C 54.056,61.3826 54.3893,61.8826 54.5,62.5C 53.1667,62.5 52.5,61.8333 52.5,60.5C 52.7822,59.2223 53.4489,58.2223 54.5,57.5C 54.8564,55.8102 55.8564,54.8102 57.5,54.5 Z"/></g>
<g><path style="opacity:1" fill="#e56c44" d="M 80.5,55.5 C 81.1667,55.5 81.8333,55.5 82.5,55.5C 83.3715,58.0618 83.3715,60.7284 82.5,63.5C 81.5489,62.0813 81.2155,60.4147 81.5,58.5C 80.8902,57.609 80.5569,56.609 80.5,55.5 Z"/></g>
<g><path style="opacity:0.886" fill="#4d7315" d="M 7.5,52.5 C 7.12012,54.698 7.78679,56.3646 9.5,57.5C 8.44787,59.256 6.78121,59.9227 4.5,59.5C 4.03929,58.2261 3.87262,56.5595 4,54.5C 4.81595,53.1772 5.98261,52.5106 7.5,52.5 Z"/></g>
<g><path style="opacity:1" fill="#e0d9c4" d="M 89.5,56.5 C 93.3111,58.3951 94.9778,61.2284 94.5,65C 93.4232,65.4696 92.4232,65.3029 91.5,64.5C 91.5674,63.0413 91.2341,61.7079 90.5,60.5C 90.1667,59.1667 89.8333,57.8333 89.5,56.5 Z"/></g>
<g><path style="opacity:1" fill="#e7000b" d="M 29.5,54.5 C 30.516,57.8384 32.8494,59.8384 36.5,60.5C 37.2975,60.9569 37.6309,61.6236 37.5,62.5C 37.5,63.1667 37.1667,63.5 36.5,63.5C 34.9142,62.8519 33.2475,62.3519 31.5,62C 32.6537,61.0862 32.487,60.2529 31,59.5C 30.4177,62.6677 29.4177,63.001 28,60.5C 27.3292,61.2524 26.4959,61.5858 25.5,61.5C 25.2056,58.5189 23.8722,57.8522 21.5,59.5C 22.0998,58.1001 23.0998,57.1001 24.5,56.5C 25.609,56.4431 26.609,56.1098 27.5,55.5C 28.1667,55.1667 28.8333,54.8333 29.5,54.5 Z"/></g>
<g><path style="opacity:1" fill="#c00000" d="M 71.5,52.5 C 71.5987,55.2372 71.2653,57.9039 70.5,60.5C 69.4138,60.38 68.7472,59.7133 68.5,58.5C 68.7587,56.0128 69.7587,54.0128 71.5,52.5 Z"/></g>
<g><path style="opacity:0.38" fill="#776136" d="M 14.5,56.5 C 15.1667,57.1667 15.8333,57.8333 16.5,58.5C 16.5,58.8333 16.5,59.1667 16.5,59.5C 15.8485,60.0906 15.1818,60.7573 14.5,61.5C 13.8243,60.3984 13.1577,59.3984 12.5,58.5C 12.8333,57.5 13.5,56.8333 14.5,56.5 Z"/></g>
<g><path style="opacity:1" fill="#fe3a4f" d="M 65.5,57.5 C 66.4345,58.5676 66.7678,59.901 66.5,61.5C 66.5,63.1667 66.5,64.8333 66.5,66.5C 66.5,67.8333 65.8333,68.5 64.5,68.5C 63.7701,67.2876 62.7701,66.2876 61.5,65.5C 62.2458,64.2638 62.5792,62.9305 62.5,61.5C 62.8333,61.5 63.1667,61.5 63.5,61.5C 65.7349,60.7519 65.4016,59.9186 62.5,59C 63.7375,58.7679 64.7375,58.2679 65.5,57.5 Z"/></g>
<g><path style="opacity:0.976" fill="#baab8d" d="M 11.5,59.5 C 11.1077,61.1789 10.6077,62.8455 10,64.5C 7.87774,63.7801 7.37774,62.6134 8.5,61C 6.94186,60.79 5.60853,60.29 4.5,59.5C 6.78121,59.9227 8.44787,59.256 9.5,57.5C 9.43456,57.0618 9.60123,56.7284 10,56.5C 10.2321,57.7375 10.7321,58.7375 11.5,59.5 Z"/></g>
<g><path style="opacity:1" fill="#8c8a30" d="M 41.5,57.5 C 42.391,58.1098 43.391,58.4431 44.5,58.5C 45.3382,58.8417 45.6716,59.5084 45.5,60.5C 44.1667,61.1667 43.1667,62.1667 42.5,63.5C 41.5,64.1667 40.5,64.8333 39.5,65.5C 39.5,64.5 39.5,63.5 39.5,62.5C 39.5,62.1667 39.5,61.8333 39.5,61.5C 41.1765,60.8166 41.8432,59.4832 41.5,57.5 Z"/></g>
<g><path style="opacity:1" fill="#fe3a34" d="M 46.5,59.5 C 47.1667,59.8333 47.8333,60.1667 48.5,60.5C 50.6204,61.4033 50.9538,62.7367 49.5,64.5C 48.0221,65.4475 47.0221,66.7809 46.5,68.5C 46.6715,66.5082 46.0049,64.8415 44.5,63.5C 45.7161,62.9041 47.0494,62.7374 48.5,63C 47.6195,62.2917 46.9528,61.4584 46.5,60.5C 46.5,60.1667 46.5,59.8333 46.5,59.5 Z"/></g>
<g><path style="opacity:1" fill="#b22011" d="M 71.5,52.5 C 69.7587,54.0128 68.7587,56.0128 68.5,58.5C 68.7472,59.7133 69.4138,60.38 70.5,60.5C 71.0256,62.2303 72.0256,63.5637 73.5,64.5C 73.5,64.8333 73.5,65.1667 73.5,65.5C 71.5742,64.7577 69.7409,63.7577 68,62.5C 67.79,64.0581 67.29,65.3915 66.5,66.5C 66.5,64.8333 66.5,63.1667 66.5,61.5C 67.3227,58.023 67.8227,54.3563 68,50.5C 69.3024,51.0848 70.469,51.7515 71.5,52.5 Z"/></g>
<g><path style="opacity:1" fill="#e10f0e" d="M 76.5,61.5 C 77.7095,61.9321 78.7095,62.5987 79.5,63.5C 79.6309,64.3764 79.2975,65.0431 78.5,65.5C 76.9246,64.5435 75.258,63.8769 73.5,63.5C 72.4937,62.6043 72.4937,61.9377 73.5,61.5C 74.5,60.1667 75.5,60.1667 76.5,61.5 Z"/></g>
<g><path style="opacity:1" fill="#bbc585" d="M 88.5,55.5 C 88.0773,57.7812 88.744,59.4479 90.5,60.5C 91.2341,61.7079 91.5674,63.0413 91.5,64.5C 90.7611,64.369 90.0944,64.5357 89.5,65C 88.9152,66.3024 88.2485,67.469 87.5,68.5C 87.5405,65.1194 87.2071,61.7861 86.5,58.5C 87.0431,58.44 87.3764,58.1067 87.5,57.5C 84.6966,53.7505 85.0299,53.0838 88.5,55.5 Z"/></g>
<g><path style="opacity:1" fill="#b72d3f" d="M 25.5,61.5 C 27.8804,63.4047 30.5471,64.738 33.5,65.5C 28.3991,64.8573 23.3991,63.6906 18.5,62C 17.6195,61.2917 16.9528,60.4584 16.5,59.5C 16.8333,59.5 17.1667,59.5 17.5,59.5C 18.8333,59.5 20.1667,59.5 21.5,59.5C 23.8722,57.8522 25.2056,58.5189 25.5,61.5 Z"/></g>
<g><path style="opacity:1" fill="#d2000c" d="M 36.5,63.5 C 36.1667,64.5 35.5,65.1667 34.5,65.5C 34.1667,65.5 33.8333,65.5 33.5,65.5C 30.5471,64.738 27.8804,63.4047 25.5,61.5C 26.4959,61.5858 27.3292,61.2524 28,60.5C 29.4177,63.001 30.4177,62.6677 31,59.5C 32.487,60.2529 32.6537,61.0862 31.5,62C 33.2475,62.3519 34.9142,62.8519 36.5,63.5 Z"/></g>
<g><path style="opacity:1" fill="#ff5764" d="M 48.5,60.5 C 49.6316,59.6457 50.965,59.6457 52.5,60.5C 52.5,61.8333 53.1667,62.5 54.5,62.5C 55.8333,63.1667 56.8333,64.1667 57.5,65.5C 56.5041,65.4142 55.6708,65.7476 55,66.5C 54.2917,65.6195 53.4584,64.9528 52.5,64.5C 52.1667,64.5 51.8333,64.5 51.5,64.5C 50.8333,64.5 50.1667,64.5 49.5,64.5C 50.9538,62.7367 50.6204,61.4033 48.5,60.5 Z"/></g>
<g><path style="opacity:1" fill="#ec0110" d="M 58.5,57.5 C 58.8333,57.5 59.1667,57.5 59.5,57.5C 60.3696,59.2737 61.703,60.607 63.5,61.5C 63.1667,61.5 62.8333,61.5 62.5,61.5C 61.4415,62.6002 60.6082,63.9336 60,65.5C 59.2303,64.4019 58.397,64.4019 57.5,65.5C 56.8333,64.1667 55.8333,63.1667 54.5,62.5C 54.3893,61.8826 54.056,61.3826 53.5,61C 54.8333,60.6667 56.1667,60.3333 57.5,60C 58.2524,59.3292 58.5858,58.4959 58.5,57.5 Z"/></g>
<g><path style="opacity:1" fill="#d8d7b8" d="M 82.5,55.5 C 84.2303,56.0256 85.5637,57.0256 86.5,58.5C 87.2071,61.7861 87.5405,65.1194 87.5,68.5C 86.8595,70.332 85.8595,70.6653 84.5,69.5C 84.9767,68.5224 85.6433,67.6891 86.5,67C 85.9056,66.5357 85.2389,66.369 84.5,66.5C 84.6716,65.5084 84.3382,64.8417 83.5,64.5C 83.5,63.8333 83.1667,63.5 82.5,63.5C 83.3715,60.7284 83.3715,58.0618 82.5,55.5 Z"/></g>
<g><path style="opacity:1" fill="#f50a07" d="M 45.5,60.5 C 45.8333,60.5 46.1667,60.5 46.5,60.5C 46.9528,61.4584 47.6195,62.2917 48.5,63C 47.0494,62.7374 45.7161,62.9041 44.5,63.5C 46.0049,64.8415 46.6715,66.5082 46.5,68.5C 45.2348,70.3569 45.5682,72.0236 47.5,73.5C 47.1667,73.5 46.8333,73.5 46.5,73.5C 44.6776,73.1692 43.0109,72.5025 41.5,71.5C 41.9528,70.5416 42.6195,69.7083 43.5,69C 42.5939,67.3005 42.2606,65.4672 42.5,63.5C 43.1667,62.1667 44.1667,61.1667 45.5,60.5 Z"/></g>
<g><path style="opacity:1" fill="#e04943" d="M 73.5,63.5 C 75.258,63.8769 76.9246,64.5435 78.5,65.5C 79.2975,65.0431 79.6309,64.3764 79.5,63.5C 80.7206,64.0283 81.8873,64.695 83,65.5C 83.3988,65.2716 83.5654,64.9382 83.5,64.5C 84.3382,64.8417 84.6716,65.5084 84.5,66.5C 80.5697,68.0478 76.903,67.7145 73.5,65.5C 73.5,65.1667 73.5,64.8333 73.5,64.5C 73.5,64.1667 73.5,63.8333 73.5,63.5 Z"/></g>
<g><path style="opacity:1" fill="#ff575b" d="M 51.5,64.5 C 51.8333,64.5 52.1667,64.5 52.5,64.5C 52.5569,65.609 52.8902,66.609 53.5,67.5C 50.001,67.259 49.6677,68.0924 52.5,70C 51.2506,70.7401 50.2506,70.5735 49.5,69.5C 48.7659,68.2921 48.4326,66.9587 48.5,65.5C 49.791,65.7373 50.791,65.404 51.5,64.5 Z"/></g>
<g><path style="opacity:1" fill="#fb000d" d="M 62.5,61.5 C 62.5792,62.9305 62.2458,64.2638 61.5,65.5C 62.7701,66.2876 63.7701,67.2876 64.5,68.5C 61.6722,66.5993 60.0056,67.266 59.5,70.5C 58.5,70.5 57.5,70.5 56.5,70.5C 58.5992,69.1851 58.9326,67.5184 57.5,65.5C 58.397,64.4019 59.2303,64.4019 60,65.5C 60.6082,63.9336 61.4415,62.6002 62.5,61.5 Z"/></g>
<g><path style="opacity:1" fill="#ff6073" d="M 52.5,64.5 C 53.4584,64.9528 54.2917,65.6195 55,66.5C 55.6708,65.7476 56.5041,65.4142 57.5,65.5C 58.9326,67.5184 58.5992,69.1851 56.5,70.5C 54.6214,70.6068 54.2881,70.1068 55.5,69C 54.9558,68.2828 54.2891,67.7828 53.5,67.5C 52.8902,66.609 52.5569,65.609 52.5,64.5 Z"/></g>
<g><path style="opacity:1" fill="#76851f" d="M 37.5,62.5 C 38.1667,62.5 38.8333,62.5 39.5,62.5C 39.5,63.5 39.5,64.5 39.5,65.5C 39.5,65.8333 39.5,66.1667 39.5,66.5C 38.5318,68.6074 38.1984,70.9407 38.5,73.5C 38.1667,73.5 37.8333,73.5 37.5,73.5C 36.4719,72.9264 35.4719,72.593 34.5,72.5C 35.0933,70.6183 35.7599,68.7849 36.5,67C 35.5842,66.7216 34.9175,66.2216 34.5,65.5C 35.5,65.1667 36.1667,64.5 36.5,63.5C 37.1667,63.5 37.5,63.1667 37.5,62.5 Z"/></g>
<g><path style="opacity:1" fill="#e9091b" d="M 42.5,63.5 C 42.2606,65.4672 42.5939,67.3005 43.5,69C 42.6195,69.7083 41.9528,70.5416 41.5,71.5C 40.8826,71.6107 40.3826,71.944 40,72.5C 39.5045,70.5273 39.3379,68.5273 39.5,66.5C 39.5,66.1667 39.5,65.8333 39.5,65.5C 40.5,64.8333 41.5,64.1667 42.5,63.5 Z"/></g>
<g><path style="opacity:1" fill="#fe1917" d="M 49.5,64.5 C 50.1667,64.5 50.8333,64.5 51.5,64.5C 50.791,65.404 49.791,65.7373 48.5,65.5C 48.4326,66.9587 48.7659,68.2921 49.5,69.5C 48.7611,69.369 48.0944,69.5357 47.5,70C 48.5634,71.1882 49.8967,71.6882 51.5,71.5C 51.2454,72.9361 50.9121,74.4361 50.5,76C 49.8333,76.6667 49.1667,76.6667 48.5,76C 49.5171,74.9505 49.6838,73.7839 49,72.5C 48.6667,73.1667 48.3333,73.8333 48,74.5C 47.6012,74.2716 47.4346,73.9382 47.5,73.5C 45.5682,72.0236 45.2348,70.3569 46.5,68.5C 47.0221,66.7809 48.0221,65.4475 49.5,64.5 Z"/></g>
<g><path style="opacity:1" fill="#ff5866" d="M 53.5,67.5 C 54.2891,67.7828 54.9558,68.2828 55.5,69C 54.2881,70.1068 54.6214,70.6068 56.5,70.5C 57.5,70.5 58.5,70.5 59.5,70.5C 58.0998,71.1001 57.0998,72.1001 56.5,73.5C 55.2502,73.4226 54.4169,72.756 54,71.5C 53.7216,72.4158 53.2216,73.0825 52.5,73.5C 52.6716,72.5084 52.3382,71.8417 51.5,71.5C 49.8967,71.6882 48.5634,71.1882 47.5,70C 48.0944,69.5357 48.7611,69.369 49.5,69.5C 50.2506,70.5735 51.2506,70.7401 52.5,70C 49.6677,68.0924 50.001,67.259 53.5,67.5 Z"/></g>
<g><path style="opacity:1" fill="#f86d70" d="M 64.5,68.5 C 63.3998,69.5585 62.0664,70.3918 60.5,71C 61.5762,72.7261 61.7429,74.5594 61,76.5C 60.5776,78.4257 59.4109,79.4257 57.5,79.5C 57.7214,78.2652 58.3881,77.2652 59.5,76.5C 58.4179,76.2514 57.0846,76.0848 55.5,76C 56.999,75.1618 57.3324,74.3285 56.5,73.5C 57.0998,72.1001 58.0998,71.1001 59.5,70.5C 60.0056,67.266 61.6722,66.5993 64.5,68.5 Z"/></g>
<g><path style="opacity:1" fill="#da2a34" d="M 39.5,66.5 C 39.3379,68.5273 39.5045,70.5273 40,72.5C 40.3826,71.944 40.8826,71.6107 41.5,71.5C 43.0109,72.5025 44.6776,73.1692 46.5,73.5C 45.2639,74.579 43.9306,75.579 42.5,76.5C 40.7673,75.9924 40.434,75.159 41.5,74C 40.552,73.5172 39.552,73.3505 38.5,73.5C 38.1984,70.9407 38.5318,68.6074 39.5,66.5 Z"/></g>
<g><path style="opacity:1" fill="#f32134" d="M 51.5,71.5 C 52.3382,71.8417 52.6716,72.5084 52.5,73.5C 53.1157,74.7978 53.1157,75.7978 52.5,76.5C 49.2585,77.2122 45.9251,77.2122 42.5,76.5C 43.9306,75.579 45.2639,74.579 46.5,73.5C 46.8333,73.5 47.1667,73.5 47.5,73.5C 47.4346,73.9382 47.6012,74.2716 48,74.5C 48.3333,73.8333 48.6667,73.1667 49,72.5C 49.6838,73.7839 49.5171,74.9505 48.5,76C 49.1667,76.6667 49.8333,76.6667 50.5,76C 50.9121,74.4361 51.2454,72.9361 51.5,71.5 Z"/></g>
<g><path style="opacity:1" fill="#dc4650" d="M 37.5,73.5 C 37.8333,73.5 38.1667,73.5 38.5,73.5C 39.552,73.3505 40.552,73.5172 41.5,74C 40.434,75.159 40.7673,75.9924 42.5,76.5C 45.9251,77.2122 49.2585,77.2122 52.5,76.5C 53.4475,77.9779 54.7809,78.9779 56.5,79.5C 54.8333,79.5 53.1667,79.5 51.5,79.5C 48.7273,78.3428 45.7273,77.6761 42.5,77.5C 40.2512,76.9202 38.5846,75.5869 37.5,73.5 Z"/></g>
<g><path style="opacity:1" fill="#fc2229" d="M 56.5,73.5 C 57.3324,74.3285 56.999,75.1618 55.5,76C 57.0846,76.0848 58.4179,76.2514 59.5,76.5C 58.3881,77.2652 57.7214,78.2652 57.5,79.5C 57.1667,79.5 56.8333,79.5 56.5,79.5C 54.7809,78.9779 53.4475,77.9779 52.5,76.5C 53.1157,75.7978 53.1157,74.7978 52.5,73.5C 53.2216,73.0825 53.7216,72.4158 54,71.5C 54.4169,72.756 55.2502,73.4226 56.5,73.5 Z"/></g>
<g><path style="opacity:0.651" fill="#bc7671" d="M 42.5,77.5 C 45.7273,77.6761 48.7273,78.3428 51.5,79.5C 48.1709,79.7847 45.1709,79.1181 42.5,77.5 Z"/></g>
</svg>
