<?xml version="1.0" encoding="UTF-8"?>
<!DOCTYPE svg PUBLIC "-//W3C//DTD SVG 1.1//EN" "http://www.w3.org/Graphics/SVG/1.1/DTD/svg11.dtd">
<svg xmlns="http://www.w3.org/2000/svg" version="1.1" width="100px" height="100px" style="shape-rendering:geometricPrecision; text-rendering:geometricPrecision; image-rendering:optimizeQuality; fill-rule:evenodd; clip-rule:evenodd" xmlns:xlink="http://www.w3.org/1999/xlink">
<g><path style="opacity:0.333" fill="#c6b3b2" d="M 65.5,8.5 C 55.9162,7.52684 46.2496,7.1935 36.5,7.5C 35.8571,9.07641 34.8571,10.4097 33.5,11.5C 33.8693,9.55879 34.536,7.72546 35.5,6C 45.1667,5.33333 54.8333,5.33333 64.5,6C 65.2524,6.67076 65.5858,7.5041 65.5,8.5 Z"/></g>
<g><path style="opacity:1" fill="#dc060d" d="M 36.5,7.5 C 46.2496,7.1935 55.9162,7.52684 65.5,8.5C 66.3439,12.0991 66.6773,15.7657 66.5,19.5C 64.5853,19.2155 62.9187,19.5489 61.5,20.5C 58.883,21.7859 56.5496,23.4525 54.5,25.5C 53.5139,21.03 53.1805,16.3633 53.5,11.5C 50.5,11.5 47.5,11.5 44.5,11.5C 44.5,15.8333 44.5,20.1667 44.5,24.5C 43.3065,25.2719 42.3065,26.2719 41.5,27.5C 40.8333,26.8333 40.1667,26.1667 39.5,25.5C 37.5956,25.7376 36.2623,26.7376 35.5,28.5C 34.7515,27.469 34.0848,26.3024 33.5,25C 34.3802,23.6439 34.7135,22.1439 34.5,20.5C 33.7691,16.3966 34.7691,12.8966 37.5,10C 36.7476,9.32924 36.4142,8.4959 36.5,7.5 Z"/></g>
<g><path style="opacity:1" fill="#a8130f" d="M 36.5,7.5 C 36.4142,8.4959 36.7476,9.32924 37.5,10C 34.7691,12.8966 33.7691,16.3966 34.5,20.5C 33.8333,20.5 33.1667,20.5 32.5,20.5C 32.19,17.2869 32.5233,14.2869 33.5,11.5C 34.8571,10.4097 35.8571,9.07641 36.5,7.5 Z"/></g>
<g><path style="opacity:0.702" fill="#b55c5c" d="M 32.5,20.5 C 33.1667,20.5 33.8333,20.5 34.5,20.5C 34.7135,22.1439 34.3802,23.6439 33.5,25C 34.0848,26.3024 34.7515,27.469 35.5,28.5C 34.6314,30.717 34.298,33.0504 34.5,35.5C 33.8333,36.1667 33.1667,36.8333 32.5,37.5C 32.5,31.8333 32.5,26.1667 32.5,20.5 Z"/></g>
<g><path style="opacity:1" fill="#f0838a" d="M 66.5,19.5 C 66.5,20.5 66.5,21.5 66.5,22.5C 65.8826,22.3893 65.3826,22.056 65,21.5C 64.6401,23.6079 63.9734,25.6079 63,27.5C 61.9887,28.3366 60.8221,28.67 59.5,28.5C 59.4125,25.4017 59.9125,25.0684 61,27.5C 63.639,25.3842 63.8057,23.3842 61.5,21.5C 61.5,21.1667 61.5,20.8333 61.5,20.5C 62.9187,19.5489 64.5853,19.2155 66.5,19.5 Z"/></g>
<g><path style="opacity:1" fill="#f9e8e8" d="M 61.5,20.5 C 61.5,20.8333 61.5,21.1667 61.5,21.5C 55.1861,26.1257 52.1861,32.1257 52.5,39.5C 52.8333,40.1667 53.1667,40.8333 53.5,41.5C 53.1667,41.5 52.8333,41.5 52.5,41.5C 49.2657,41.7634 47.9324,40.2634 48.5,37C 49.0584,32.3822 51.0584,28.5489 54.5,25.5C 56.5496,23.4525 58.883,21.7859 61.5,20.5 Z"/></g>
<g><path style="opacity:1" fill="#de1e1f" d="M 61.5,21.5 C 63.8057,23.3842 63.639,25.3842 61,27.5C 59.9125,25.0684 59.4125,25.4017 59.5,28.5C 60.8221,28.67 61.9887,28.3366 63,27.5C 63.9734,25.6079 64.6401,23.6079 65,21.5C 65.3826,22.056 65.8826,22.3893 66.5,22.5C 66.5,24.8333 66.5,27.1667 66.5,29.5C 64.7697,30.0256 63.4363,31.0256 62.5,32.5C 61.5,32.8333 60.8333,33.5 60.5,34.5C 59.8333,33.1667 59.1667,31.8333 58.5,30.5C 55.2858,31.2762 53.7858,33.2762 54,36.5C 55.4048,35.2695 56.5714,33.9361 57.5,32.5C 58.494,33.9989 58.494,35.6656 57.5,37.5C 56.1805,38.9418 54.5138,39.6085 52.5,39.5C 52.1861,32.1257 55.1861,26.1257 61.5,21.5 Z"/></g>
<g><path style="opacity:1" fill="#e9d0d0" d="M 44.5,24.5 C 45.766,25.0899 47.0993,25.5899 48.5,26C 45.7922,29.3824 44.1255,32.8824 43.5,36.5C 40.3314,36.5558 37.3314,36.2225 34.5,35.5C 34.298,33.0504 34.6314,30.717 35.5,28.5C 36.2623,26.7376 37.5956,25.7376 39.5,25.5C 39.1667,26.1667 38.8333,26.8333 38.5,27.5C 36.3898,29.3276 35.5565,31.6609 36,34.5C 37.3756,33.2949 38.5423,31.9616 39.5,30.5C 40.4013,29.7095 41.0679,28.7095 41.5,27.5C 42.3065,26.2719 43.3065,25.2719 44.5,24.5 Z"/></g>
<g><path style="opacity:1" fill="#d2322e" d="M 44.5,26.5 C 45.0431,26.56 45.3764,26.8933 45.5,27.5C 44.1667,29.5 42.8333,31.5 41.5,33.5C 41.1667,33.1667 40.8333,32.8333 40.5,32.5C 41.4671,30.2099 42.8004,28.2099 44.5,26.5 Z"/></g>
<g><path style="opacity:1" fill="#e52126" d="M 38.5,27.5 C 38.5569,28.609 38.8902,29.609 39.5,30.5C 38.5423,31.9616 37.3756,33.2949 36,34.5C 35.5565,31.6609 36.3898,29.3276 38.5,27.5 Z"/></g>
<g><path style="opacity:1" fill="#d8666a" d="M 39.5,25.5 C 40.1667,26.1667 40.8333,26.8333 41.5,27.5C 41.0679,28.7095 40.4013,29.7095 39.5,30.5C 38.8902,29.609 38.5569,28.609 38.5,27.5C 38.8333,26.8333 39.1667,26.1667 39.5,25.5 Z"/></g>
<g><path style="opacity:1" fill="#f1e4e3" d="M 58.5,30.5 C 58.1667,31.1667 57.8333,31.8333 57.5,32.5C 56.5714,33.9361 55.4048,35.2695 54,36.5C 53.7858,33.2762 55.2858,31.2762 58.5,30.5 Z"/></g>
<g><path style="opacity:1" fill="#d77177" d="M 58.5,30.5 C 59.1667,31.8333 59.8333,33.1667 60.5,34.5C 60.0679,35.7095 59.4013,36.7095 58.5,37.5C 58.1667,37.5 57.8333,37.5 57.5,37.5C 58.494,35.6656 58.494,33.9989 57.5,32.5C 57.8333,31.8333 58.1667,31.1667 58.5,30.5 Z"/></g>
<g><path style="opacity:1" fill="#f18388" d="M 66.5,29.5 C 66.5,30.1667 66.5,30.8333 66.5,31.5C 65.6588,32.9264 64.6588,34.2597 63.5,35.5C 62.8333,35.5 62.1667,35.5 61.5,35.5C 62.1098,34.609 62.4431,33.609 62.5,32.5C 63.4363,31.0256 64.7697,30.0256 66.5,29.5 Z"/></g>
<g><path style="opacity:1" fill="#d12422" d="M 34.5,35.5 C 37.3314,36.2225 40.3314,36.5558 43.5,36.5C 43.5,37.5 43.5,38.5 43.5,39.5C 40.3962,38.2248 37.3962,38.2248 34.5,39.5C 33.8333,39.5 33.1667,39.5 32.5,39.5C 32.5,38.8333 32.5,38.1667 32.5,37.5C 33.1667,36.8333 33.8333,36.1667 34.5,35.5 Z"/></g>
<g><path style="opacity:1" fill="#dfa8aa" d="M 66.5,31.5 C 66.5,34.8333 66.5,38.1667 66.5,41.5C 64.7691,40.0145 63.7691,38.0145 63.5,35.5C 64.6588,34.2597 65.6588,32.9264 66.5,31.5 Z"/></g>
<g><path style="opacity:1" fill="#e3dcdd" d="M 34.5,39.5 C 37.3962,38.2248 40.3962,38.2248 43.5,39.5C 42.1667,40.1667 40.8333,40.8333 39.5,41.5C 38.391,41.4431 37.391,41.1098 36.5,40.5C 36.1583,39.6618 35.4916,39.3284 34.5,39.5 Z"/></g>
<g><path style="opacity:1" fill="#f59fa4" d="M 57.5,37.5 C 57.106,39.7099 55.7727,41.0432 53.5,41.5C 53.1667,40.8333 52.8333,40.1667 52.5,39.5C 54.5138,39.6085 56.1805,38.9418 57.5,37.5 Z"/></g>
<g><path style="opacity:1" fill="#ddd1d0" d="M 62.5,32.5 C 62.4431,33.609 62.1098,34.609 61.5,35.5C 60.438,37.2341 60.438,38.9008 61.5,40.5C 60.791,41.404 59.791,41.7373 58.5,41.5C 58.5,40.1667 58.5,38.8333 58.5,37.5C 59.4013,36.7095 60.0679,35.7095 60.5,34.5C 60.8333,33.5 61.5,32.8333 62.5,32.5 Z"/></g>
<g><path style="opacity:1" fill="#dc565c" d="M 43.5,39.5 C 44.2891,39.7828 44.9558,40.2828 45.5,41C 43.5273,41.4955 41.5273,41.6621 39.5,41.5C 40.8333,40.8333 42.1667,40.1667 43.5,39.5 Z"/></g>
<g><path style="opacity:1" fill="#eb1218" d="M 54.5,25.5 C 51.0584,28.5489 49.0584,32.3822 48.5,37C 47.9324,40.2634 49.2657,41.7634 52.5,41.5C 51.9094,42.1515 51.2427,42.8182 50.5,43.5C 51.6119,44.2652 52.2786,45.2652 52.5,46.5C 51.3115,45.9524 50.1448,45.6191 49,45.5C 47.2053,46.7195 47.3719,47.7195 49.5,48.5C 47.8333,48.5 46.1667,48.5 44.5,48.5C 42.901,48.7678 41.5676,48.4345 40.5,47.5C 48.4497,46.8499 48.4497,46.1832 40.5,45.5C 38.0478,45.5391 36.0478,46.2057 34.5,47.5C 34.5,61.5 34.5,75.5 34.5,89.5C 33.5036,73.3419 33.1702,57.0085 33.5,40.5C 34.5,40.5 35.5,40.5 36.5,40.5C 37.391,41.1098 38.391,41.4431 39.5,41.5C 41.5273,41.6621 43.5273,41.4955 45.5,41C 44.9558,40.2828 44.2891,39.7828 43.5,39.5C 43.5,38.5 43.5,37.5 43.5,36.5C 44.1255,32.8824 45.7922,29.3824 48.5,26C 47.0993,25.5899 45.766,25.0899 44.5,24.5C 44.5,20.1667 44.5,15.8333 44.5,11.5C 47.5,11.5 50.5,11.5 53.5,11.5C 53.1805,16.3633 53.5139,21.03 54.5,25.5 Z"/></g>
<g><path style="opacity:1" fill="#fcb1b5" d="M 49.5,25.5 C 52.7973,25.3287 53.1306,25.9954 50.5,27.5C 49.7025,27.0431 49.3691,26.3764 49.5,25.5 Z"/></g>
<g><path style="opacity:1" fill="#e27176" d="M 40.5,47.5 C 40.1667,47.5 39.8333,47.5 39.5,47.5C 37.8333,47.5 36.1667,47.5 34.5,47.5C 36.0478,46.2057 38.0478,45.5391 40.5,45.5C 48.4497,46.1832 48.4497,46.8499 40.5,47.5 Z"/></g>
<g><path style="opacity:1" fill="#e2797e" d="M 54.5,46.5 C 56.8773,45.6349 59.544,45.3016 62.5,45.5C 64.0281,45.5173 64.5281,46.184 64,47.5C 60.8806,47.6332 57.7139,47.2999 54.5,46.5 Z"/></g>
<g><path style="opacity:1" fill="#fb6e72" d="M 52.5,46.5 C 52.1788,48.0481 51.1788,48.7148 49.5,48.5C 47.3719,47.7195 47.2053,46.7195 49,45.5C 50.1448,45.6191 51.3115,45.9524 52.5,46.5 Z"/></g>
<g><path style="opacity:1" fill="#d10000" d="M 39.5,47.5 C 39.8333,47.5 40.1667,47.5 40.5,47.5C 41.5676,48.4345 42.901,48.7678 44.5,48.5C 44.5,62.5 44.5,76.5 44.5,90.5C 42.5,90.5 40.5,90.5 38.5,90.5C 36.8445,76 37.1778,61.6667 39.5,47.5 Z"/></g>
<g><path style="opacity:1" fill="#ee0005" d="M 57.5,37.5 C 57.8333,37.5 58.1667,37.5 58.5,37.5C 58.5,38.8333 58.5,40.1667 58.5,41.5C 59.791,41.7373 60.791,41.404 61.5,40.5C 62.1174,40.3893 62.6174,40.056 63,39.5C 63.6776,41.5976 63.5109,43.5976 62.5,45.5C 59.544,45.3016 56.8773,45.6349 54.5,46.5C 54.5,47.8333 55.1667,48.5 56.5,48.5C 56.5,62.5 56.5,76.5 56.5,90.5C 52.5,90.5 48.5,90.5 44.5,90.5C 44.5,76.5 44.5,62.5 44.5,48.5C 46.1667,48.5 47.8333,48.5 49.5,48.5C 51.1788,48.7148 52.1788,48.0481 52.5,46.5C 52.2786,45.2652 51.6119,44.2652 50.5,43.5C 51.2427,42.8182 51.9094,42.1515 52.5,41.5C 52.8333,41.5 53.1667,41.5 53.5,41.5C 55.7727,41.0432 57.106,39.7099 57.5,37.5 Z"/></g>
<g><path style="opacity:1" fill="#d10000" d="M 56.5,48.5 C 58.5,48.5 60.5,48.5 62.5,48.5C 62.5,62.5 62.5,76.5 62.5,90.5C 60.5,90.5 58.5,90.5 56.5,90.5C 56.5,76.5 56.5,62.5 56.5,48.5 Z"/></g>
<g><path style="opacity:1" fill="#f80226" d="M 34.5,47.5 C 36.1667,47.5 37.8333,47.5 39.5,47.5C 37.1778,61.6667 36.8445,76 38.5,90.5C 37.8333,90.5 37.1667,90.5 36.5,90.5C 35.8333,90.5 35.1667,90.5 34.5,90.5C 34.5,90.1667 34.5,89.8333 34.5,89.5C 34.5,75.5 34.5,61.5 34.5,47.5 Z"/></g>
<g><path style="opacity:1" fill="#fb0015" d="M 46.5,49.5 C 48.4672,49.2606 50.3005,49.5939 52,50.5C 52.4999,63.4957 52.6666,76.4957 52.5,89.5C 50.5,89.5 48.5,89.5 46.5,89.5C 46.5,76.1667 46.5,62.8333 46.5,49.5 Z"/></g>
<g><path style="opacity:1" fill="#e6232d" d="M 61.5,35.5 C 62.1667,35.5 62.8333,35.5 63.5,35.5C 63.7691,38.0145 64.7691,40.0145 66.5,41.5C 66.5,57.8333 66.5,74.1667 66.5,90.5C 56.3592,91.7697 46.3592,91.7697 36.5,90.5C 37.1667,90.5 37.8333,90.5 38.5,90.5C 40.5,90.5 42.5,90.5 44.5,90.5C 48.5,90.5 52.5,90.5 56.5,90.5C 58.5,90.5 60.5,90.5 62.5,90.5C 62.5,76.5 62.5,62.5 62.5,48.5C 60.5,48.5 58.5,48.5 56.5,48.5C 55.1667,48.5 54.5,47.8333 54.5,46.5C 57.7139,47.2999 60.8806,47.6332 64,47.5C 64.5281,46.184 64.0281,45.5173 62.5,45.5C 63.5109,43.5976 63.6776,41.5976 63,39.5C 62.6174,40.056 62.1174,40.3893 61.5,40.5C 60.438,38.9008 60.438,37.2341 61.5,35.5 Z"/></g>
<g><path style="opacity:0.686" fill="#9c1e21" d="M 32.5,39.5 C 33.1667,39.5 33.8333,39.5 34.5,39.5C 35.4916,39.3284 36.1583,39.6618 36.5,40.5C 35.5,40.5 34.5,40.5 33.5,40.5C 33.1702,57.0085 33.5036,73.3419 34.5,89.5C 34.5,89.8333 34.5,90.1667 34.5,90.5C 33.8333,90.5 33.1667,90.5 32.5,90.5C 32.5,73.5 32.5,56.5 32.5,39.5 Z"/></g>
<g><path style="opacity:1" fill="#858a8a" d="M 32.5,90.5 C 33.1667,90.5 33.8333,90.5 34.5,90.5C 35.1667,90.5 35.8333,90.5 36.5,90.5C 46.3592,91.7697 56.3592,91.7697 66.5,90.5C 66.1961,91.1499 65.8627,91.8165 65.5,92.5C 55.1667,93.8333 44.8333,93.8333 34.5,92.5C 33.7573,91.8182 33.0906,91.1515 32.5,90.5 Z"/></g>
</svg>
