<?xml version="1.0" encoding="UTF-8"?>
<!DOCTYPE svg PUBLIC "-//W3C//DTD SVG 1.1//EN" "http://www.w3.org/Graphics/SVG/1.1/DTD/svg11.dtd">
<svg xmlns="http://www.w3.org/2000/svg" version="1.1" width="512px" height="512px" style="shape-rendering:geometricPrecision; text-rendering:geometricPrecision; image-rendering:optimizeQuality; fill-rule:evenodd; clip-rule:evenodd" xmlns:xlink="http://www.w3.org/1999/xlink">
<g><path style="opacity:0.937" fill="#000000" d="M 140.5,-0.5 C 147.833,-0.5 155.167,-0.5 162.5,-0.5C 194.083,9.2378 209.583,30.9045 209,64.5C 212.969,80.471 222.636,91.471 238,97.5C 241.997,108.036 238.497,112.536 227.5,111C 201.276,97.7148 188.776,76.2148 190,46.5C 182.259,23.5496 166.425,13.7163 142.5,17C 120.062,24.4488 110.229,39.9488 113,63.5C 116.073,76.908 123.906,86.408 136.5,92C 146.455,93.3861 153.622,98.5528 158,107.5C 159.621,123.433 159.954,139.433 159,155.5C 157.471,158.516 154.971,159.849 151.5,159.5C 148.029,159.849 145.529,158.516 144,155.5C 143.929,141.445 143.262,127.445 142,113.5C 136.889,110.236 131.389,107.736 125.5,106C 101.911,92.3162 92.0775,71.8162 96,44.5C 101.681,20.3195 116.514,5.31951 140.5,-0.5 Z"/></g>
<g><path style="opacity:0.937" fill="#000000" d="M 348.5,-0.5 C 355.833,-0.5 363.167,-0.5 370.5,-0.5C 402.083,9.2378 417.583,30.9045 417,64.5C 420.969,80.471 430.636,91.471 446,97.5C 449.997,108.036 446.497,112.536 435.5,111C 409.276,97.7148 396.776,76.2148 398,46.5C 390.259,23.5496 374.425,13.7163 350.5,17C 328.062,24.4488 318.229,39.9488 321,63.5C 324.073,76.908 331.906,86.408 344.5,92C 354.455,93.3861 361.622,98.5528 366,107.5C 367.621,123.433 367.954,139.433 367,155.5C 365.471,158.516 362.971,159.849 359.5,159.5C 356.029,159.849 353.529,158.516 352,155.5C 351.929,141.445 351.262,127.445 350,113.5C 344.889,110.236 339.389,107.736 333.5,106C 309.911,92.3162 300.077,71.8162 304,44.5C 309.681,20.3195 324.514,5.31951 348.5,-0.5 Z"/></g>
<g><path style="opacity:0.932" fill="#000000" d="M 164.5,511.5 C 155.833,511.5 147.167,511.5 138.5,511.5C 99.7065,503.877 75.2065,480.877 65,442.5C 61.3347,421.495 63.6681,401.162 72,381.5C 82.659,355.179 95.659,330.179 111,306.5C 119.696,293.97 128.196,281.303 136.5,268.5C 119.61,257.322 115.11,242.322 123,223.5C 125.616,219.901 128.45,216.567 131.5,213.5C 126.346,204.313 126.18,194.98 131,185.5C 140.791,174.757 152.291,172.59 165.5,179C 176.438,189.071 178.438,200.738 171.5,214C 184.151,225.709 186.984,239.542 180,255.5C 178.333,257.833 176.667,260.167 175,262.5C 172.167,264.667 169.333,266.833 166.5,269C 174.72,279.94 182.053,291.44 188.5,303.5C 186.187,311.443 181.187,313.61 173.5,310C 166.536,299.238 159.203,288.738 151.5,278.5C 130.758,306.11 112.591,335.444 97,366.5C 89.6784,381.131 84.3451,396.464 81,412.5C 77.6294,446.429 90.7961,471.596 120.5,488C 154.371,501.408 183.537,494.574 208,467.5C 223.466,445.651 226.8,421.984 218,396.5C 215.53,389.422 212.863,382.422 210,375.5C 203.201,362.237 196.701,348.904 190.5,335.5C 191.737,327.937 196.071,325.437 203.5,328C 217.062,348.293 227.562,370.126 235,393.5C 247.235,435.792 236.068,470.292 201.5,497C 189.94,504.125 177.607,508.958 164.5,511.5 Z M 148.5,192.5 C 157.85,192.365 160.517,196.532 156.5,205C 147.956,208.322 144.123,205.489 145,196.5C 145.69,194.65 146.856,193.316 148.5,192.5 Z M 146.5,224.5 C 163.765,224.257 169.598,232.257 164,248.5C 157.749,255.011 150.582,256.177 142.5,252C 135.989,245.749 134.823,238.582 139,230.5C 141.114,227.879 143.614,225.879 146.5,224.5 Z M 150.5,367.5 C 151.496,367.414 152.329,367.748 153,368.5C 160.154,381.807 166.487,395.473 172,409.5C 177.37,422.569 174.87,433.735 164.5,443C 149.641,450.156 138.141,446.656 130,432.5C 127.708,423.632 128.374,414.966 132,406.5C 137.635,393.231 143.801,380.231 150.5,367.5 Z"/></g>
<g><path style="opacity:0.932" fill="#000000" d="M 372.5,511.5 C 363.833,511.5 355.167,511.5 346.5,511.5C 299.708,501.116 274.708,471.95 271.5,424C 271.318,413.589 272.818,403.422 276,393.5C 285.733,365.702 298.4,339.369 314,314.5C 323.97,299.031 334.137,283.698 344.5,268.5C 327.61,257.322 323.11,242.322 331,223.5C 333.616,219.901 336.45,216.567 339.5,213.5C 334.346,204.313 334.18,194.98 339,185.5C 348.791,174.757 360.291,172.59 373.5,179C 384.438,189.071 386.438,200.738 379.5,214C 392.153,225.665 394.986,239.499 388,255.5C 386.333,257.833 384.667,260.167 383,262.5C 380.167,264.667 377.333,266.833 374.5,269C 400.213,303.906 421.713,341.406 439,381.5C 448.21,403.98 449.877,426.98 444,450.5C 440.514,460.976 435.347,470.476 428.5,479C 418.426,482.553 413.926,479.053 415,468.5C 430.957,447.653 434.957,424.653 427,399.5C 420.297,380.094 411.963,361.428 402,343.5C 389.21,320.888 375.043,299.221 359.5,278.5C 338.758,306.11 320.591,335.444 305,366.5C 297.678,381.131 292.345,396.464 289,412.5C 285.945,451.754 302.778,478.254 339.5,492C 352.728,496.207 366.061,496.207 379.5,492C 385.838,489.497 392.172,486.997 398.5,484.5C 406.552,486.326 408.885,490.992 405.5,498.5C 395.281,505.013 384.281,509.347 372.5,511.5 Z M 356.5,192.5 C 365.85,192.365 368.517,196.532 364.5,205C 355.956,208.322 352.123,205.489 353,196.5C 353.69,194.65 354.856,193.316 356.5,192.5 Z M 354.5,224.5 C 371.765,224.257 377.598,232.257 372,248.5C 365.749,255.011 358.582,256.177 350.5,252C 343.989,245.749 342.823,238.582 347,230.5C 349.114,227.879 351.614,225.879 354.5,224.5 Z M 358.5,367.5 C 359.496,367.414 360.329,367.748 361,368.5C 368.154,381.807 374.487,395.473 380,409.5C 385.37,422.569 382.87,433.735 372.5,443C 357.641,450.156 346.141,446.656 338,432.5C 335.708,423.632 336.374,414.966 340,406.5C 345.635,393.231 351.801,380.231 358.5,367.5 Z"/></g>
<g><path style="opacity:0.928" fill="#000000" d="M 149.5,340.5 C 153.31,340.379 156.477,341.712 159,344.5C 172.915,366.33 183.581,389.664 191,414.5C 194.42,435.828 186.586,451.328 167.5,461C 143.754,468.093 125.92,460.926 114,439.5C 110.702,428.514 110.702,417.514 114,406.5C 121.869,384.763 131.869,364.096 144,344.5C 145.5,342.531 147.333,341.198 149.5,340.5 Z M 150.5,367.5 C 143.801,380.231 137.635,393.231 132,406.5C 128.374,414.966 127.708,423.632 130,432.5C 138.141,446.656 149.641,450.156 164.5,443C 174.87,433.735 177.37,422.569 172,409.5C 166.487,395.473 160.154,381.807 153,368.5C 152.329,367.748 151.496,367.414 150.5,367.5 Z"/></g>
<g><path style="opacity:0.928" fill="#000000" d="M 357.5,340.5 C 361.31,340.379 364.477,341.712 367,344.5C 380.915,366.33 391.581,389.664 399,414.5C 402.42,435.828 394.586,451.328 375.5,461C 351.754,468.093 333.92,460.926 322,439.5C 318.702,428.514 318.702,417.514 322,406.5C 329.869,384.763 339.869,364.096 352,344.5C 353.5,342.531 355.333,341.198 357.5,340.5 Z M 358.5,367.5 C 351.801,380.231 345.635,393.231 340,406.5C 336.374,414.966 335.708,423.632 338,432.5C 346.141,446.656 357.641,450.156 372.5,443C 382.87,433.735 385.37,422.569 380,409.5C 374.487,395.473 368.154,381.807 361,368.5C 360.329,367.748 359.496,367.414 358.5,367.5 Z"/></g>
</svg>
