<?xml version="1.0" encoding="UTF-8"?>
<!DOCTYPE svg PUBLIC "-//W3C//DTD SVG 1.1//EN" "http://www.w3.org/Graphics/SVG/1.1/DTD/svg11.dtd">
<svg xmlns="http://www.w3.org/2000/svg" version="1.1" width="512px" height="512px" style="shape-rendering:geometricPrecision; text-rendering:geometricPrecision; image-rendering:optimizeQuality; fill-rule:evenodd; clip-rule:evenodd" xmlns:xlink="http://www.w3.org/1999/xlink">
<g><path style="opacity:0.976" fill="#fefffe" d="M 511.5,29.5 C 511.5,179.833 511.5,330.167 511.5,480.5C 507.322,492.784 498.655,499.617 485.5,501C 331.833,501.667 178.167,501.667 24.5,501C 11.9457,499.742 3.61236,493.242 -0.5,481.5C -0.5,401.5 -0.5,321.5 -0.5,241.5C 3.19164,230.979 10.525,224.479 21.5,222C 90.1659,221.5 158.833,221.333 227.5,221.5C 227.333,158.166 227.5,94.8325 228,31.5C 231.519,18.9779 239.686,11.8112 252.5,10C 330.5,9.33333 408.5,9.33333 486.5,10C 499.054,11.2579 507.388,17.7579 511.5,29.5 Z M 293.5,41.5 C 348.501,41.3333 403.501,41.5 458.5,42C 468.356,43.177 475.189,48.3437 479,57.5C 480.66,185.791 480.993,314.124 480,442.5C 477.5,453 471,459.5 460.5,462C 330.833,462.667 201.167,462.667 71.5,462C 61.7987,459.9 55.632,454.067 53,444.5C 52.3333,388.167 52.3333,331.833 53,275.5C 56.2677,264.236 63.7677,258.069 75.5,257C 140.832,256.5 206.166,256.333 271.5,256.5C 271.333,191.499 271.5,126.499 272,61.5C 274.902,50.0936 282.068,43.4269 293.5,41.5 Z M 237.5,289.5 C 247.79,289.289 253.623,294.289 255,304.5C 255.667,326.167 255.667,347.833 255,369.5C 254.61,376.561 251.11,381.394 244.5,384C 214.168,384.5 183.835,384.667 153.5,384.5C 157.79,396.076 161.79,407.743 165.5,419.5C 163.217,419.392 161.217,418.559 159.5,417C 140.167,402 120.833,387 101.5,372C 121.522,355.649 141.855,339.649 162.5,324C 163.448,323.517 164.448,323.351 165.5,323.5C 162.7,334.108 159.034,344.441 154.5,354.5C 178.157,355.5 201.824,355.833 225.5,355.5C 225.333,337.497 225.5,319.497 226,301.5C 228.019,295.65 231.852,291.65 237.5,289.5 Z"/></g>
<g><path style="opacity:0.991" fill="#fefffe" d="M 290.5,52.5 C 347.501,52.3333 404.501,52.5 461.5,53C 465,54.5 467.5,57 469,60.5C 469.667,188.167 469.667,315.833 469,443.5C 467.5,447 465,449.5 461.5,451C 412.167,451.333 362.833,451.667 313.5,452C 232.464,452.986 151.464,452.653 70.5,451C 66.5095,449.01 64.0095,445.843 63,441.5C 62.3333,386.833 62.3333,332.167 63,277.5C 64.1667,272.333 67.3333,269.167 72.5,268C 142.166,267.5 211.833,267.333 281.5,267.5C 281.333,200.166 281.5,132.833 282,65.5C 282.683,59.67 285.516,55.3367 290.5,52.5 Z M 237.5,289.5 C 231.852,291.65 228.019,295.65 226,301.5C 225.5,319.497 225.333,337.497 225.5,355.5C 201.824,355.833 178.157,355.5 154.5,354.5C 159.034,344.441 162.7,334.108 165.5,323.5C 164.448,323.351 163.448,323.517 162.5,324C 141.855,339.649 121.522,355.649 101.5,372C 120.833,387 140.167,402 159.5,417C 161.217,418.559 163.217,419.392 165.5,419.5C 161.79,407.743 157.79,396.076 153.5,384.5C 183.835,384.667 214.168,384.5 244.5,384C 251.11,381.394 254.61,376.561 255,369.5C 255.667,347.833 255.667,326.167 255,304.5C 253.623,294.289 247.79,289.289 237.5,289.5 Z"/></g>
</svg>
