<?xml version="1.0" encoding="UTF-8"?>
<!DOCTYPE svg PUBLIC "-//W3C//DTD SVG 1.1//EN" "http://www.w3.org/Graphics/SVG/1.1/DTD/svg11.dtd">
<svg xmlns="http://www.w3.org/2000/svg" version="1.1" width="512px" height="512px" style="shape-rendering:geometricPrecision; text-rendering:geometricPrecision; image-rendering:optimizeQuality; fill-rule:evenodd; clip-rule:evenodd" xmlns:xlink="http://www.w3.org/1999/xlink">
<g><path style="opacity:0.994" fill="#fefffe" d="M 47.5,-0.5 C 186.167,-0.5 324.833,-0.5 463.5,-0.5C 489.14,5.80667 505.14,21.8067 511.5,47.5C 511.5,186.167 511.5,324.833 511.5,463.5C 505.14,489.193 489.14,505.193 463.5,511.5C 324.833,511.5 186.167,511.5 47.5,511.5C 21.8067,505.14 5.80667,489.14 -0.5,463.5C -0.5,324.833 -0.5,186.167 -0.5,47.5C 5.80667,21.86 21.8067,5.85998 47.5,-0.5 Z M 137.5,170.5 C 152.239,170.05 166.905,170.55 181.5,172C 189.361,176.236 192.195,182.736 190,191.5C 188.073,196.428 184.573,199.594 179.5,201C 166.167,201.333 152.833,201.667 139.5,202C 127.54,203.961 120.04,210.794 117,222.5C 116.501,228.157 116.334,233.824 116.5,239.5C 137.879,239.057 159.212,239.557 180.5,241C 190.723,246.295 193.223,254.128 188,264.5C 186.062,267.106 183.562,268.939 180.5,270C 159.212,271.443 137.879,271.943 116.5,271.5C 113.298,288.475 119.298,300.642 134.5,308C 136.167,308.333 137.833,308.667 139.5,309C 153.901,309.051 168.235,309.718 182.5,311C 190.463,316.286 192.63,323.453 189,332.5C 186.313,336.194 182.813,338.694 178.5,340C 164.833,340.667 151.167,340.667 137.5,340C 109.229,335.063 92.0628,318.563 86,290.5C 85.3333,267.167 85.3333,243.833 86,220.5C 92.2397,192.425 109.406,175.758 137.5,170.5 Z M 257.5,170.5 C 273.837,170.333 290.17,170.5 306.5,171C 318.922,176.266 321.755,184.766 315,196.5C 313.59,197.787 312.09,198.954 310.5,200C 293.566,201.291 276.566,201.958 259.5,202C 244.657,207.851 240.823,218.018 248,232.5C 250.365,235.869 253.532,238.036 257.5,239C 280.722,237.199 298.889,245.699 312,264.5C 324.543,291.155 319.377,313.655 296.5,332C 289.741,336.253 282.407,338.92 274.5,340C 258.167,340.667 241.833,340.667 225.5,340C 216.136,336.774 212.303,330.274 214,320.5C 215.833,315.333 219.333,311.833 224.5,310C 240.5,309.667 256.5,309.333 272.5,309C 279.79,307.712 284.623,303.545 287,296.5C 289.754,285.177 285.92,277.01 275.5,272C 254.165,273.736 236.665,266.57 223,250.5C 208.069,225.459 210.903,202.626 231.5,182C 239.408,176.207 248.075,172.374 257.5,170.5 Z M 393.5,170.5 C 407.171,170.333 420.837,170.5 434.5,171C 446.922,176.266 449.755,184.766 443,196.5C 441.59,197.787 440.09,198.954 438.5,200C 422.522,201.034 406.522,202.034 390.5,203C 381.138,206.36 375.305,212.86 373,222.5C 372.333,244.5 372.333,266.5 373,288.5C 375.305,298.14 381.138,304.64 390.5,308C 405.455,309.249 420.455,309.916 435.5,310C 445.892,314.296 449.058,321.796 445,332.5C 442.313,336.194 438.813,338.694 434.5,340C 420.833,340.667 407.167,340.667 393.5,340C 367.301,335.802 350.468,320.968 343,295.5C 341.382,270.541 341.048,245.541 342,220.5C 348.24,192.425 365.406,175.758 393.5,170.5 Z"/></g>
</svg>
