<?xml version="1.0" encoding="UTF-8"?>
<!DOCTYPE svg PUBLIC "-//W3C//DTD SVG 1.1//EN" "http://www.w3.org/Graphics/SVG/1.1/DTD/svg11.dtd">
<svg xmlns="http://www.w3.org/2000/svg" version="1.1" width="512px" height="512px" style="shape-rendering:geometricPrecision; text-rendering:geometricPrecision; image-rendering:optimizeQuality; fill-rule:evenodd; clip-rule:evenodd" xmlns:xlink="http://www.w3.org/1999/xlink">
<g><path style="opacity:0.995" fill="#000000" d="M 42.5,-0.5 C 184.5,-0.5 326.5,-0.5 468.5,-0.5C 491.167,5.5 505.5,19.8333 511.5,42.5C 511.5,184.5 511.5,326.5 511.5,468.5C 505.509,491.158 491.175,505.491 468.5,511.5C 326.5,511.5 184.5,511.5 42.5,511.5C 19.8068,505.473 5.47348,491.14 -0.5,468.5C -0.5,326.5 -0.5,184.5 -0.5,42.5C 5.5,19.8333 19.8333,5.5 42.5,-0.5 Z"/></g>
<g><path style="opacity:0.997" fill="#fdfdfd" d="M 47.5,20.5 C 185.5,20.3333 323.5,20.5 461.5,21C 476.761,23.5931 486.261,32.4265 490,47.5C 490.667,185.833 490.667,324.167 490,462.5C 486.833,477.667 477.667,486.833 462.5,490C 324.167,490.667 185.833,490.667 47.5,490C 32.9102,486.41 24.0769,477.243 21,462.5C 20.3333,324.167 20.3333,185.833 21,47.5C 24.682,33.3189 33.5154,24.3189 47.5,20.5 Z"/></g>
<g><path style="opacity:1" fill="#060606" d="M 127.5,170.5 C 146.503,170.333 165.503,170.5 184.5,171C 191.283,174.401 193.116,179.567 190,186.5C 188.363,188.81 186.196,190.31 183.5,191C 166.167,191.333 148.833,191.667 131.5,192C 119.106,195.394 110.939,203.227 107,215.5C 106.5,225.161 106.334,234.828 106.5,244.5C 132.169,244.333 157.835,244.5 183.5,245C 191.802,248.73 193.635,254.564 189,262.5C 187.421,264.041 185.587,265.208 183.5,266C 157.835,266.5 132.169,266.667 106.5,266.5C 106.334,276.172 106.5,285.839 107,295.5C 110.93,307.764 119.097,315.597 131.5,319C 148.833,319.333 166.167,319.667 183.5,320C 191.017,322.871 193.183,328.038 190,335.5C 188.457,337.378 186.624,338.878 184.5,340C 164.115,340.952 143.782,340.619 123.5,339C 101.618,331.454 88.7849,316.288 85,293.5C 84.3333,267.833 84.3333,242.167 85,216.5C 90.0225,192.647 104.189,177.313 127.5,170.5 Z"/></g>
<g><path style="opacity:1" fill="#030303" d="M 250.5,170.5 C 271.169,170.333 291.836,170.5 312.5,171C 319.283,174.401 321.116,179.567 318,186.5C 316.363,188.81 314.196,190.31 311.5,191C 292.5,191.333 273.5,191.667 254.5,192C 236.587,199.326 230.754,212.159 237,230.5C 240.996,236.828 246.496,241.328 253.5,244C 271.471,241.79 287.804,245.79 302.5,256C 322.261,275.787 324.761,297.621 310,321.5C 301.891,331.641 291.391,337.808 278.5,340C 258.833,340.667 239.167,340.667 219.5,340C 210.167,333.333 210.167,326.667 219.5,320C 238.5,319.667 257.5,319.333 276.5,319C 293.737,313.695 300.57,302.195 297,284.5C 293.631,275.129 287.131,269.296 277.5,267C 258.726,269.388 242.059,264.721 227.5,253C 206.383,227.411 207.716,203.078 231.5,180C 237.378,175.727 243.712,172.561 250.5,170.5 Z"/></g>
<g><path style="opacity:1" fill="#040404" d="M 383.5,170.5 C 402.503,170.333 421.503,170.5 440.5,171C 447.283,174.401 449.116,179.567 446,186.5C 444.363,188.81 442.196,190.31 439.5,191C 422.167,191.333 404.833,191.667 387.5,192C 375.106,195.394 366.939,203.227 363,215.5C 362.333,242.167 362.333,268.833 363,295.5C 366.93,307.764 375.097,315.597 387.5,319C 405.899,319.039 424.232,319.706 442.5,321C 449.485,328.101 448.818,334.434 440.5,340C 421.5,340.667 402.5,340.667 383.5,340C 359.562,333.396 345.395,317.896 341,293.5C 340.333,267.833 340.333,242.167 341,216.5C 346.022,192.647 360.189,177.313 383.5,170.5 Z"/></g>
</svg>
