<?xml version="1.0" encoding="UTF-8"?>
<!DOCTYPE svg PUBLIC "-//W3C//DTD SVG 1.1//EN" "http://www.w3.org/Graphics/SVG/1.1/DTD/svg11.dtd">
<svg xmlns="http://www.w3.org/2000/svg" version="1.1" width="100px" height="100px" style="shape-rendering:geometricPrecision; text-rendering:geometricPrecision; image-rendering:optimizeQuality; fill-rule:evenodd; clip-rule:evenodd" xmlns:xlink="http://www.w3.org/1999/xlink">
<g><path style="opacity:1" fill="#eee8e5" d="M 65.5,8.5 C 65.1583,7.66175 64.4916,7.32842 63.5,7.5C 61.8333,7.5 60.1667,7.5 58.5,7.5C 58.1667,7.5 57.8333,7.5 57.5,7.5C 52.5,7.5 47.5,7.5 42.5,7.5C 42.1667,7.5 41.8333,7.5 41.5,7.5C 38.9407,7.19845 36.6074,7.53178 34.5,8.5C 33.3079,7.43414 33.6412,6.60081 35.5,6C 45.5,5.33333 55.5,5.33333 65.5,6C 66.7736,6.97722 66.7736,7.81056 65.5,8.5 Z"/></g>
<g><path style="opacity:1" fill="#fe7100" d="M 42.5,7.5 C 47.5,7.5 52.5,7.5 57.5,7.5C 56.5994,9.7271 54.9328,10.7271 52.5,10.5C 52.5,11.8333 52.5,13.1667 52.5,14.5C 50.8561,14.2865 49.3561,14.6198 48,15.5C 46.5387,18.6786 45.7054,22.0119 45.5,25.5C 47.4147,25.2155 49.0813,25.5489 50.5,26.5C 49.209,26.2627 48.209,26.596 47.5,27.5C 45.7839,27.6287 44.1172,27.962 42.5,28.5C 41.337,21.5557 41.337,14.5557 42.5,7.5 Z"/></g>
<g><path style="opacity:1" fill="#ffd283" d="M 34.5,8.5 C 36.6074,7.53178 38.9407,7.19845 41.5,7.5C 41.5497,10.1977 40.5497,12.3644 38.5,14C 41.5604,18.8036 40.8937,22.9703 36.5,26.5C 34.8888,25.6798 34.2222,24.3464 34.5,22.5C 38.3107,22.4042 38.3107,21.7376 34.5,20.5C 35.1667,19.5 35.8333,18.5 36.5,17.5C 36.1543,16.3044 35.6543,16.3044 35,17.5C 34.8333,16.8333 34.6667,16.1667 34.5,15.5C 35.9771,13.361 36.9771,11.0277 37.5,8.5C 36.5,8.5 35.5,8.5 34.5,8.5 Z"/></g>
<g><path style="opacity:1" fill="#ff7e00" d="M 57.5,7.5 C 57.8333,7.5 58.1667,7.5 58.5,7.5C 59.3721,13.7889 59.7054,20.1222 59.5,26.5C 56.5,26.5 53.5,26.5 50.5,26.5C 49.0813,25.5489 47.4147,25.2155 45.5,25.5C 45.7054,22.0119 46.5387,18.6786 48,15.5C 49.3561,14.6198 50.8561,14.2865 52.5,14.5C 52.5,13.1667 52.5,11.8333 52.5,10.5C 54.9328,10.7271 56.5994,9.7271 57.5,7.5 Z"/></g>
<g><path style="opacity:1" fill="#ff9d10" d="M 63.5,7.5 C 64.4916,7.32842 65.1583,7.66175 65.5,8.5C 66.1098,9.39105 66.4431,10.391 66.5,11.5C 66.6663,18.5079 66.4996,25.5079 66,32.5C 65.4867,31.4734 64.9867,30.4734 64.5,29.5C 64.6354,22.1375 64.3021,14.8042 63.5,7.5 Z"/></g>
<g><path style="opacity:1" fill="#ffd67f" d="M 58.5,7.5 C 60.1667,7.5 61.8333,7.5 63.5,7.5C 64.3021,14.8042 64.6354,22.1375 64.5,29.5C 63.078,28.075 61.4113,27.075 59.5,26.5C 59.7054,20.1222 59.3721,13.7889 58.5,7.5 Z"/></g>
<g><path style="opacity:1" fill="#263cac" d="M 47.5,29.5 C 47.5,28.8333 47.8333,28.5 48.5,28.5C 48.8333,28.5 49.1667,28.5 49.5,28.5C 53.1947,30.1946 55.8613,32.8613 57.5,36.5C 58.3007,38.0418 58.634,39.7085 58.5,41.5C 56.7742,39.0578 55.2742,36.3911 54,33.5C 52.3621,31.2663 50.1955,29.933 47.5,29.5 Z"/></g>
<g><path style="opacity:1" fill="#fc8204" d="M 49.5,28.5 C 52.2869,27.5233 55.2869,27.19 58.5,27.5C 58.7359,30.6085 58.4025,33.6085 57.5,36.5C 55.8613,32.8613 53.1947,30.1946 49.5,28.5 Z"/></g>
<g><path style="opacity:1" fill="#668fc7" d="M 47.5,27.5 C 48.1667,27.5 48.5,27.8333 48.5,28.5C 47.8333,28.5 47.5,28.8333 47.5,29.5C 42.9501,29.1074 39.6167,30.774 37.5,34.5C 36.4265,33.7494 36.2599,32.7494 37,31.5C 38.7804,30.3606 40.6137,29.3606 42.5,28.5C 44.1172,27.962 45.7839,27.6287 47.5,27.5 Z"/></g>
<g><path style="opacity:1" fill="#82c917" d="M 47.5,29.5 C 50.1955,29.933 52.3621,31.2663 54,33.5C 55.2742,36.3911 56.7742,39.0578 58.5,41.5C 58.6716,42.4916 58.3382,43.1583 57.5,43.5C 57.0472,42.5416 56.3805,41.7083 55.5,41C 51.0829,40.7725 46.7496,40.2725 42.5,39.5C 41.0613,37.6397 39.3947,35.973 37.5,34.5C 39.6167,30.774 42.9501,29.1074 47.5,29.5 Z"/></g>
<g><path style="opacity:1" fill="#fbc756" d="M 58.5,27.5 C 63.0372,29.3673 65.7039,32.7007 66.5,37.5C 64.857,37.5198 63.5237,36.8532 62.5,35.5C 60.9291,36.3094 59.2624,36.6427 57.5,36.5C 58.4025,33.6085 58.7359,30.6085 58.5,27.5 Z"/></g>
<g><path style="opacity:1" fill="#fead28" d="M 41.5,7.5 C 41.8333,7.5 42.1667,7.5 42.5,7.5C 41.337,14.5557 41.337,21.5557 42.5,28.5C 40.6137,29.3606 38.7804,30.3606 37,31.5C 36.2599,32.7494 36.4265,33.7494 37.5,34.5C 38.8039,37.8121 37.4706,39.4787 33.5,39.5C 33.825,31.9809 33.4916,24.6476 32.5,17.5C 32.2069,14.2457 32.8736,11.2457 34.5,8.5C 35.5,8.5 36.5,8.5 37.5,8.5C 36.9771,11.0277 35.9771,13.361 34.5,15.5C 34.6667,16.1667 34.8333,16.8333 35,17.5C 35.6543,16.3044 36.1543,16.3044 36.5,17.5C 35.8333,18.5 35.1667,19.5 34.5,20.5C 38.3107,21.7376 38.3107,22.4042 34.5,22.5C 34.2222,24.3464 34.8888,25.6798 36.5,26.5C 40.8937,22.9703 41.5604,18.8036 38.5,14C 40.5497,12.3644 41.5497,10.1977 41.5,7.5 Z"/></g>
<g><path style="opacity:1" fill="#87addf" d="M 66.5,37.5 C 65.4324,38.4345 64.099,38.7678 62.5,38.5C 61.5,38.5 60.5,38.5 59.5,38.5C 59.2229,41.4475 59.5562,44.2809 60.5,47C 58.8459,47.1961 57.8459,46.3628 57.5,44.5C 57.5,44.1667 57.5,43.8333 57.5,43.5C 58.3382,43.1583 58.6716,42.4916 58.5,41.5C 58.634,39.7085 58.3007,38.0418 57.5,36.5C 59.2624,36.6427 60.9291,36.3094 62.5,35.5C 63.5237,36.8532 64.857,37.5198 66.5,37.5 Z"/></g>
<g><path style="opacity:0.38" fill="#d0a088" d="M 32.5,17.5 C 33.4916,24.6476 33.825,31.9809 33.5,39.5C 33.3284,40.4916 33.6618,41.1583 34.5,41.5C 34.5,48.1667 34.5,54.8333 34.5,61.5C 34.5,61.8333 34.5,62.1667 34.5,62.5C 33.8333,59.5 33.1667,56.5 32.5,53.5C 32.5,41.5 32.5,29.5 32.5,17.5 Z"/></g>
<g><path style="opacity:1" fill="#e8e7df" d="M 62.5,38.5 C 62.1872,42.0419 62.5206,45.3752 63.5,48.5C 63.8204,51.8984 63.487,55.2317 62.5,58.5C 60.7844,57.4513 59.4511,56.118 58.5,54.5C 58.2172,53.7109 57.7172,53.0442 57,52.5C 56.5026,55.146 56.3359,57.8127 56.5,60.5C 55.1667,60.5 53.8333,60.5 52.5,60.5C 52.0512,54.4742 51.3845,48.4742 50.5,42.5C 53.188,42.1658 55.5214,42.8325 57.5,44.5C 57.8459,46.3628 58.8459,47.1961 60.5,47C 59.5562,44.2809 59.2229,41.4475 59.5,38.5C 60.5,38.5 61.5,38.5 62.5,38.5 Z"/></g>
<g><path style="opacity:1" fill="#3f7bce" d="M 37.5,34.5 C 39.3947,35.973 41.0613,37.6397 42.5,39.5C 41.596,40.209 41.2627,41.209 41.5,42.5C 41.1322,48.549 40.4656,54.549 39.5,60.5C 40.325,61.3857 41.325,61.719 42.5,61.5C 42.2322,59.901 42.5655,58.5676 43.5,57.5C 43.5,59.1667 43.5,60.8333 43.5,62.5C 40.483,62.5563 40.1497,62.8897 42.5,63.5C 41.1938,64.4674 40.5271,65.8007 40.5,67.5C 37.8908,66.5569 35.8908,64.8903 34.5,62.5C 34.5,62.1667 34.5,61.8333 34.5,61.5C 36.3878,59.0122 37.0545,56.0122 36.5,52.5C 37.5,52.5 38.5,52.5 39.5,52.5C 39.5,51.1667 39.5,49.8333 39.5,48.5C 38.5,48.5 37.5,48.5 36.5,48.5C 36.5,47.5 36.5,46.5 36.5,45.5C 37.5,45.5 38.5,45.5 39.5,45.5C 39.5,43.8333 39.5,42.1667 39.5,40.5C 37.5853,40.2155 35.9187,40.5489 34.5,41.5C 33.6618,41.1583 33.3284,40.4916 33.5,39.5C 37.4706,39.4787 38.8039,37.8121 37.5,34.5 Z"/></g>
<g><path style="opacity:1" fill="#dfddd5" d="M 41.5,42.5 C 43.1439,42.2865 44.6439,42.6198 46,43.5C 48.0383,48.7264 49.8716,54.0597 51.5,59.5C 50.8333,59.8333 50.1667,60.1667 49.5,60.5C 47.7888,59.4187 46.2888,58.0854 45,56.5C 44.2352,56.5699 43.7352,56.9033 43.5,57.5C 42.5655,58.5676 42.2322,59.901 42.5,61.5C 41.325,61.719 40.325,61.3857 39.5,60.5C 40.4656,54.549 41.1322,48.549 41.5,42.5 Z"/></g>
<g><path style="opacity:1" fill="#e9eff1" d="M 34.5,61.5 C 34.5,54.8333 34.5,48.1667 34.5,41.5C 35.9187,40.5489 37.5853,40.2155 39.5,40.5C 39.5,42.1667 39.5,43.8333 39.5,45.5C 38.5,45.5 37.5,45.5 36.5,45.5C 36.5,46.5 36.5,47.5 36.5,48.5C 37.5,48.5 38.5,48.5 39.5,48.5C 39.5,49.8333 39.5,51.1667 39.5,52.5C 38.5,52.5 37.5,52.5 36.5,52.5C 37.0545,56.0122 36.3878,59.0122 34.5,61.5 Z"/></g>
<g><path style="opacity:0.482" fill="#ece2d6" d="M 66.5,11.5 C 67.4964,27.3246 67.8297,43.3246 67.5,59.5C 67.1667,59.5 66.8333,59.5 66.5,59.5C 65.9282,54.1808 65.2615,48.8475 64.5,43.5C 63.5481,45.0453 63.2148,46.712 63.5,48.5C 62.5206,45.3752 62.1872,42.0419 62.5,38.5C 64.099,38.7678 65.4324,38.4345 66.5,37.5C 65.7039,32.7007 63.0372,29.3673 58.5,27.5C 55.2869,27.19 52.2869,27.5233 49.5,28.5C 49.1667,28.5 48.8333,28.5 48.5,28.5C 48.5,27.8333 48.1667,27.5 47.5,27.5C 48.209,26.596 49.209,26.2627 50.5,26.5C 53.5,26.5 56.5,26.5 59.5,26.5C 61.4113,27.075 63.078,28.075 64.5,29.5C 64.9867,30.4734 65.4867,31.4734 66,32.5C 66.4996,25.5079 66.6663,18.5079 66.5,11.5 Z"/></g>
<g><path style="opacity:1" fill="#5081d1" d="M 66.5,59.5 C 65.5,59.5 64.5,59.5 63.5,59.5C 64.5071,63.7795 63.1737,66.7795 59.5,68.5C 59.1583,67.6618 58.4916,67.3284 57.5,67.5C 59.1585,66.8186 60.8251,65.9853 62.5,65C 61.5842,64.7216 60.9175,64.2216 60.5,63.5C 61.8333,62.8333 61.8333,62.1667 60.5,61.5C 58.8516,59.5441 58.1849,57.2108 58.5,54.5C 59.4511,56.118 60.7844,57.4513 62.5,58.5C 63.487,55.2317 63.8204,51.8984 63.5,48.5C 63.2148,46.712 63.5481,45.0453 64.5,43.5C 65.2615,48.8475 65.9282,54.1808 66.5,59.5 Z"/></g>
<g><path style="opacity:1" fill="#204aad" d="M 42.5,39.5 C 46.7496,40.2725 51.0829,40.7725 55.5,41C 56.3805,41.7083 57.0472,42.5416 57.5,43.5C 57.5,43.8333 57.5,44.1667 57.5,44.5C 55.5214,42.8325 53.188,42.1658 50.5,42.5C 51.3845,48.4742 52.0512,54.4742 52.5,60.5C 53.8333,60.5 55.1667,60.5 56.5,60.5C 56.3359,57.8127 56.5026,55.146 57,52.5C 57.7172,53.0442 58.2172,53.7109 58.5,54.5C 58.1849,57.2108 58.8516,59.5441 60.5,61.5C 54.5579,62.5306 48.5579,63.1973 42.5,63.5C 40.1497,62.8897 40.483,62.5563 43.5,62.5C 43.5,60.8333 43.5,59.1667 43.5,57.5C 43.7352,56.9033 44.2352,56.5699 45,56.5C 46.2888,58.0854 47.7888,59.4187 49.5,60.5C 50.1667,60.1667 50.8333,59.8333 51.5,59.5C 49.8716,54.0597 48.0383,48.7264 46,43.5C 44.6439,42.6198 43.1439,42.2865 41.5,42.5C 41.2627,41.209 41.596,40.209 42.5,39.5 Z"/></g>
<g><path style="opacity:1" fill="#85cd2c" d="M 60.5,61.5 C 61.8333,62.1667 61.8333,62.8333 60.5,63.5C 54.1818,64.3481 48.1818,65.3481 42.5,66.5C 43.2427,67.1818 43.9094,67.8485 44.5,68.5C 44.1667,68.5 43.8333,68.5 43.5,68.5C 42.209,68.7373 41.209,68.404 40.5,67.5C 40.5271,65.8007 41.1938,64.4674 42.5,63.5C 48.5579,63.1973 54.5579,62.5306 60.5,61.5 Z"/></g>
<g><path style="opacity:1" fill="#b7da72" d="M 60.5,63.5 C 60.9175,64.2216 61.5842,64.7216 62.5,65C 60.8251,65.9853 59.1585,66.8186 57.5,67.5C 53.1756,67.9272 48.8422,68.2605 44.5,68.5C 43.9094,67.8485 43.2427,67.1818 42.5,66.5C 48.1818,65.3481 54.1818,64.3481 60.5,63.5 Z"/></g>
<g><path style="opacity:1" fill="#fda41d" d="M 32.5,53.5 C 33.1667,56.5 33.8333,59.5 34.5,62.5C 35.8908,64.8903 37.8908,66.5569 40.5,67.5C 41.209,68.404 42.209,68.7373 43.5,68.5C 47.0066,70.754 50.6733,72.754 54.5,74.5C 51.1194,74.5405 47.7861,74.2071 44.5,73.5C 42.6452,71.9669 40.8119,70.3003 39,68.5C 39.1116,70.7972 40.2783,72.4639 42.5,73.5C 42.5581,77.8675 42.3914,82.5341 42,87.5C 41.2276,88.8491 40.0609,89.6824 38.5,90C 39.7375,90.2321 40.7375,90.7321 41.5,91.5C 39.0971,91.552 36.7638,91.2186 34.5,90.5C 33.4309,87.592 33.2642,84.592 34,81.5C 35.6077,82.4332 36.441,81.7665 36.5,79.5C 36.5472,77.9996 35.8805,76.9996 34.5,76.5C 33.8328,73.0227 33.1661,69.6893 32.5,66.5C 32.5,62.1667 32.5,57.8333 32.5,53.5 Z"/></g>
<g><path style="opacity:1" fill="#febf30" d="M 66.5,59.5 C 66.6665,69.5056 66.4998,79.5056 66,89.5C 63.3788,90.9915 60.5455,91.6582 57.5,91.5C 58.1667,90.8333 58.8333,90.1667 59.5,89.5C 58.1968,85.3326 58.1968,81.166 59.5,77C 58.9558,76.2828 58.2891,75.7828 57.5,75.5C 57.5,74.8333 57.1667,74.5 56.5,74.5C 53.6493,70.9568 54.6493,68.9568 59.5,68.5C 63.1737,66.7795 64.5071,63.7795 63.5,59.5C 64.5,59.5 65.5,59.5 66.5,59.5 Z"/></g>
<g><path style="opacity:1" fill="#eee7d4" d="M 44.5,73.5 C 43.8333,73.5 43.1667,73.5 42.5,73.5C 40.2783,72.4639 39.1116,70.7972 39,68.5C 40.8119,70.3003 42.6452,71.9669 44.5,73.5 Z"/></g>
<g><path style="opacity:1" fill="#2f5dc9" d="M 57.5,67.5 C 58.4916,67.3284 59.1583,67.6618 59.5,68.5C 54.6493,68.9568 53.6493,70.9568 56.5,74.5C 55.8333,74.5 55.1667,74.5 54.5,74.5C 50.6733,72.754 47.0066,70.754 43.5,68.5C 43.8333,68.5 44.1667,68.5 44.5,68.5C 48.8422,68.2605 53.1756,67.9272 57.5,67.5 Z"/></g>
<g><path style="opacity:1" fill="#ecdac4" d="M 44.5,73.5 C 47.7861,74.2071 51.1194,74.5405 54.5,74.5C 55.1667,74.5 55.8333,74.5 56.5,74.5C 57.1667,74.5 57.5,74.8333 57.5,75.5C 56.209,75.2627 55.209,75.596 54.5,76.5C 50.5842,76.9745 47.2509,75.9745 44.5,73.5 Z"/></g>
<g><path style="opacity:1" fill="#ff9001" d="M 54.5,76.5 C 55.209,75.596 56.209,75.2627 57.5,75.5C 58.2891,75.7828 58.9558,76.2828 59.5,77C 58.1968,81.166 58.1968,85.3326 59.5,89.5C 55.9729,89.6036 52.9729,88.4369 50.5,86C 50.5,84 50.5,82 50.5,80C 51.9973,78.1294 53.9973,77.1294 56.5,77C 55.9056,76.5357 55.2389,76.369 54.5,76.5 Z"/></g>
<g><path style="opacity:1" fill="#ff8701" d="M 42.5,73.5 C 43.1667,73.5 43.8333,73.5 44.5,73.5C 47.2509,75.9745 50.5842,76.9745 54.5,76.5C 55.2389,76.369 55.9056,76.5357 56.5,77C 53.9973,77.1294 51.9973,78.1294 50.5,80C 50.5,82 50.5,84 50.5,86C 52.9729,88.4369 55.9729,89.6036 59.5,89.5C 58.8333,90.1667 58.1667,90.8333 57.5,91.5C 52.1667,91.5 46.8333,91.5 41.5,91.5C 40.7375,90.7321 39.7375,90.2321 38.5,90C 40.0609,89.6824 41.2276,88.8491 42,87.5C 42.3914,82.5341 42.5581,77.8675 42.5,73.5 Z"/></g>
<g><path style="opacity:0.369" fill="#f5d7bc" d="M 32.5,66.5 C 33.1661,69.6893 33.8328,73.0227 34.5,76.5C 35.8805,76.9996 36.5472,77.9996 36.5,79.5C 36.441,81.7665 35.6077,82.4332 34,81.5C 33.2642,84.592 33.4309,87.592 34.5,90.5C 32.5332,82.9032 31.8665,74.9032 32.5,66.5 Z"/></g>
<g><path style="opacity:1" fill="#e8ddcc" d="M 66.5,59.5 C 66.8333,59.5 67.1667,59.5 67.5,59.5C 67.6665,69.8387 67.4998,80.172 67,90.5C 66.1667,91.3333 65.3333,92.1667 64.5,93C 56.2446,94.5721 47.9113,94.9054 39.5,94C 37.0643,93.7935 35.3976,92.6269 34.5,90.5C 36.7638,91.2186 39.0971,91.552 41.5,91.5C 46.8333,91.5 52.1667,91.5 57.5,91.5C 60.5455,91.6582 63.3788,90.9915 66,89.5C 66.4998,79.5056 66.6665,69.5056 66.5,59.5 Z"/></g>
</svg>
