<?xml version="1.0" encoding="UTF-8"?>
<!DOCTYPE svg PUBLIC "-//W3C//DTD SVG 1.1//EN" "http://www.w3.org/Graphics/SVG/1.1/DTD/svg11.dtd">
<svg xmlns="http://www.w3.org/2000/svg" version="1.1" width="512px" height="512px" style="shape-rendering:geometricPrecision; text-rendering:geometricPrecision; image-rendering:optimizeQuality; fill-rule:evenodd; clip-rule:evenodd" xmlns:xlink="http://www.w3.org/1999/xlink">
<g><path style="opacity:0.992" fill="#000000" d="M 318.5,110.5 C 347.166,108.919 369.999,119.586 387,142.5C 400.374,163.277 409.04,185.943 413,210.5C 417.688,238.984 420.188,267.65 420.5,296.5C 419.562,304.543 415.896,311.043 409.5,316C 400.543,321.994 390.876,326.661 380.5,330C 320.549,344.33 259.882,348.33 198.5,342C 170.769,339.654 143.769,333.987 117.5,325C 109.896,321.618 103.062,317.118 97,311.5C 92.0782,303.405 90.2449,294.572 91.5,285C 91.3451,254.393 94.8451,224.226 102,194.5C 106.26,177.136 114.76,162.303 127.5,150C 136.071,143.473 145.737,139.473 156.5,138C 165.833,137.333 175.167,137.333 184.5,138C 200.696,141.234 217.03,142.567 233.5,142C 249.441,133.53 265.774,125.863 282.5,119C 294.341,114.871 306.341,112.038 318.5,110.5 Z"/></g>
<g><path style="opacity:0.977" fill="#000000" d="M 511.5,324.5 C 511.5,329.167 511.5,333.833 511.5,338.5C 508.892,344.298 505.225,349.464 500.5,354C 478.435,369.189 454.101,379.189 427.5,384C 353.15,398.418 278.15,403.418 202.5,399C 159.65,397.128 117.316,391.461 75.5,382C 56.2178,377.352 37.8844,370.352 20.5,361C 11.1784,355.517 4.1784,348.017 -0.5,338.5C -0.5,333.833 -0.5,329.167 -0.5,324.5C 4.89707,313.268 13.2304,304.768 24.5,299C 41.6525,290.338 59.6525,284.171 78.5,280.5C 74.5878,300.625 80.9211,316.458 97.5,328C 119.865,340.595 143.865,348.262 169.5,351C 237.531,360.959 305.198,358.959 372.5,345C 388.877,341.216 403.877,334.55 417.5,325C 426.175,318.665 431.008,310.165 432,299.5C 432.5,293.175 432.666,286.842 432.5,280.5C 455.801,284.986 477.468,293.486 497.5,306C 503.98,310.956 508.647,317.123 511.5,324.5 Z"/></g>
</svg>
