<?xml version="1.0" encoding="UTF-8"?>
<!DOCTYPE svg PUBLIC "-//W3C//DTD SVG 1.1//EN" "http://www.w3.org/Graphics/SVG/1.1/DTD/svg11.dtd">
<svg xmlns="http://www.w3.org/2000/svg" version="1.1" width="100px" height="100px" style="shape-rendering:geometricPrecision; text-rendering:geometricPrecision; image-rendering:optimizeQuality; fill-rule:evenodd; clip-rule:evenodd" xmlns:xlink="http://www.w3.org/1999/xlink">
<g><path style="opacity:1" fill="#252422" d="M 46.5,2.5 C 48.5,2.5 50.5,2.5 52.5,2.5C 52.7733,4.45101 52.1066,5.95101 50.5,7C 53.1667,8.66667 53.1667,10.3333 50.5,12C 51.9733,12.7096 52.6399,13.8762 52.5,15.5C 51.596,16.209 51.2627,17.209 51.5,18.5C 49.7741,18.8146 48.1075,18.9813 46.5,19C 47.767,17.2041 47.767,15.3707 46.5,13.5C 47.0253,12.8076 47.6919,12.3076 48.5,12C 45.9211,10.271 45.9211,8.43766 48.5,6.5C 47.1468,5.4763 46.4802,4.14297 46.5,2.5 Z"/></g>
<g><path style="opacity:1" fill="#5b5755" d="M 44.5,2.5 C 45.1667,2.5 45.8333,2.5 46.5,2.5C 46.4802,4.14297 47.1468,5.4763 48.5,6.5C 45.9211,8.43766 45.9211,10.271 48.5,12C 47.6919,12.3076 47.0253,12.8076 46.5,13.5C 47.767,15.3707 47.767,17.2041 46.5,19C 48.1075,18.9813 49.7741,18.8146 51.5,18.5C 51.2627,17.209 51.596,16.209 52.5,15.5C 51.9054,18.6537 51.9054,21.6537 52.5,24.5C 50.5,24.5 48.5,24.5 46.5,24.5C 45.1667,24.5 43.8333,24.5 42.5,24.5C 42.5,23.1667 42.5,21.8333 42.5,20.5C 42.8143,14.8982 42.981,9.23153 43,3.5C 43.3826,2.94404 43.8826,2.61071 44.5,2.5 Z"/></g>
<g><path style="opacity:0.753" fill="#ebe3ca" d="M 53.5,1.5 C 55.2485,5.58141 56.2485,10.0814 56.5,15C 57.2999,19.1328 57.2999,23.2994 56.5,27.5C 56.5,26.8333 56.5,26.1667 56.5,25.5C 53.7334,17.8101 52.7334,9.81012 53.5,1.5 Z"/></g>
<g><path style="opacity:1" fill="#796f66" d="M 44.5,2.5 C 47.2869,1.52333 50.2869,1.19 53.5,1.5C 52.7334,9.81012 53.7334,17.8101 56.5,25.5C 55.2502,25.4226 54.4169,24.756 54,23.5C 53.6174,24.056 53.1174,24.3893 52.5,24.5C 51.9054,21.6537 51.9054,18.6537 52.5,15.5C 52.6399,13.8762 51.9733,12.7096 50.5,12C 53.1667,10.3333 53.1667,8.66667 50.5,7C 52.1066,5.95101 52.7733,4.45101 52.5,2.5C 50.5,2.5 48.5,2.5 46.5,2.5C 45.8333,2.5 45.1667,2.5 44.5,2.5 Z"/></g>
<g><path style="opacity:1" fill="#683a06" d="M 46.5,24.5 C 48.5,24.5 50.5,24.5 52.5,24.5C 52.5,25.1667 52.5,25.8333 52.5,26.5C 50.5,26.5 48.5,26.5 46.5,26.5C 46.5,25.8333 46.5,25.1667 46.5,24.5 Z"/></g>
<g><path style="opacity:1" fill="#bfa389" d="M 56.5,25.5 C 56.5,26.1667 56.5,26.8333 56.5,27.5C 56.5,29.1667 56.5,30.8333 56.5,32.5C 55.8333,32.5 55.5,32.1667 55.5,31.5C 55.5,29.8333 55.5,28.1667 55.5,26.5C 54.5,26.5 53.5,26.5 52.5,26.5C 52.5,25.8333 52.5,25.1667 52.5,24.5C 53.1174,24.3893 53.6174,24.056 54,23.5C 54.4169,24.756 55.2502,25.4226 56.5,25.5 Z"/></g>
<g><path style="opacity:1" fill="#f2b507" d="M 46.5,26.5 C 48.5,26.5 50.5,26.5 52.5,26.5C 53.5,26.5 54.5,26.5 55.5,26.5C 55.5,28.1667 55.5,29.8333 55.5,31.5C 54.5,31.5 53.5,31.5 52.5,31.5C 50.5,31.5 48.5,31.5 46.5,31.5C 45.5,31.5 44.5,31.5 43.5,31.5C 43.5,29.8333 43.5,28.1667 43.5,26.5C 44.5,26.5 45.5,26.5 46.5,26.5 Z"/></g>
<g><path style="opacity:0.58" fill="#d2b696" d="M 42.5,20.5 C 42.5,21.8333 42.5,23.1667 42.5,24.5C 43.8333,24.5 45.1667,24.5 46.5,24.5C 46.5,25.1667 46.5,25.8333 46.5,26.5C 45.5,26.5 44.5,26.5 43.5,26.5C 43.5,28.1667 43.5,29.8333 43.5,31.5C 43.5,32.8333 42.8333,33.5 41.5,33.5C 41.6629,29.4033 41.9962,25.0699 42.5,20.5 Z"/></g>
<g><path style="opacity:0.31" fill="#fcdbc2" d="M 56.5,32.5 C 58.0269,32.427 59.0269,33.0937 59.5,34.5C 57.9731,34.573 56.9731,33.9063 56.5,32.5 Z"/></g>
<g><path style="opacity:0.478" fill="#f7d0b6" d="M 41.5,33.5 C 40.1667,34.8333 38.8333,36.1667 37.5,37.5C 36.5,37.5 35.5,37.5 34.5,37.5C 36.3356,35.412 38.6689,34.0787 41.5,33.5 Z"/></g>
<g><path style="opacity:1" fill="#e07203" d="M 43.5,31.5 C 44.5,31.5 45.5,31.5 46.5,31.5C 46.9704,32.6935 47.9704,33.3601 49.5,33.5C 51.0296,33.3601 52.0296,32.6935 52.5,31.5C 53.5,31.5 54.5,31.5 55.5,31.5C 55.5,32.1667 55.8333,32.5 56.5,32.5C 56.9731,33.9063 57.9731,34.573 59.5,34.5C 60.1667,35.5 60.8333,36.5 61.5,37.5C 53.5,37.5 45.5,37.5 37.5,37.5C 38.8333,36.1667 40.1667,34.8333 41.5,33.5C 42.8333,33.5 43.5,32.8333 43.5,31.5 Z"/></g>
<g><path style="opacity:1" fill="#582601" d="M 46.5,31.5 C 48.5,31.5 50.5,31.5 52.5,31.5C 52.0296,32.6935 51.0296,33.3601 49.5,33.5C 47.9704,33.3601 46.9704,32.6935 46.5,31.5 Z"/></g>
<g><path style="opacity:0.882" fill="#d7a47d" d="M 59.5,34.5 C 62.204,34.6696 63.8707,36.0029 64.5,38.5C 63.5,38.5 62.5,38.5 61.5,38.5C 61.5,38.1667 61.5,37.8333 61.5,37.5C 60.8333,36.5 60.1667,35.5 59.5,34.5 Z"/></g>
<g><path style="opacity:1" fill="#8e3701" d="M 37.5,37.5 C 45.5,37.5 53.5,37.5 61.5,37.5C 61.5,37.8333 61.5,38.1667 61.5,38.5C 53.6841,39.4924 45.6841,39.8257 37.5,39.5C 37.5,38.8333 37.5,38.1667 37.5,37.5 Z"/></g>
<g><path style="opacity:1" fill="#eb902f" d="M 34.5,37.5 C 35.5,37.5 36.5,37.5 37.5,37.5C 37.5,38.1667 37.5,38.8333 37.5,39.5C 37.5,41.1667 37.5,42.8333 37.5,44.5C 37.5,44.8333 37.5,45.1667 37.5,45.5C 36.8333,45.5 36.5,45.8333 36.5,46.5C 36.1667,46.5 35.8333,46.5 35.5,46.5C 35.7373,45.209 35.404,44.209 34.5,43.5C 34.5,41.5 34.5,39.5 34.5,37.5 Z"/></g>
<g><path style="opacity:1" fill="#e16802" d="M 61.5,38.5 C 62.5,38.5 63.5,38.5 64.5,38.5C 64.5,40.1667 64.5,41.8333 64.5,43.5C 63.7777,44.5511 62.7777,45.2178 61.5,45.5C 60.5,45.5 59.5,45.5 58.5,45.5C 54.0029,40.9088 48.8363,40.2422 43,43.5C 41.8926,43.4148 40.8926,43.0814 40,42.5C 39.5831,43.756 38.7498,44.4226 37.5,44.5C 37.5,42.8333 37.5,41.1667 37.5,39.5C 45.6841,39.8257 53.6841,39.4924 61.5,38.5 Z"/></g>
<g><path style="opacity:1" fill="#e66800" d="M 58.5,45.5 C 51.5,45.5 44.5,45.5 37.5,45.5C 37.5,45.1667 37.5,44.8333 37.5,44.5C 38.7498,44.4226 39.5831,43.756 40,42.5C 40.8926,43.0814 41.8926,43.4148 43,43.5C 48.8363,40.2422 54.0029,40.9088 58.5,45.5 Z"/></g>
<g><path style="opacity:1" fill="#1b1a1b" d="M 38.5,46.5 C 45.8409,46.3337 53.1742,46.5003 60.5,47C 49.0434,46.9391 48.7101,48.2724 59.5,51C 58.9056,51.4643 58.2389,51.631 57.5,51.5C 55.549,51.2267 54.049,51.8934 53,53.5C 52.6667,52.5 52.3333,51.5 52,50.5C 51.6667,50.8333 51.3333,51.1667 51,51.5C 50.7216,50.5842 50.2216,49.9175 49.5,49.5C 49.1344,48.3054 48.301,47.6387 47,47.5C 45.3736,48.0182 43.707,48.3516 42,48.5C 40.3189,48.3917 39.1522,47.7251 38.5,46.5 Z"/></g>
<g><path style="opacity:1" fill="#574232" d="M 36.5,46.5 C 36.5,45.8333 36.8333,45.5 37.5,45.5C 44.5,45.5 51.5,45.5 58.5,45.5C 59.5,45.5 60.5,45.5 61.5,45.5C 60.1667,47.8333 60.1667,50.1667 61.5,52.5C 59.901,52.7678 58.5676,52.4345 57.5,51.5C 58.2389,51.631 58.9056,51.4643 59.5,51C 48.7101,48.2724 49.0434,46.9391 60.5,47C 53.1742,46.5003 45.8409,46.3337 38.5,46.5C 38.1667,46.5 37.8333,46.5 37.5,46.5C 37.1667,46.5 36.8333,46.5 36.5,46.5 Z"/></g>
<g><path style="opacity:1" fill="#363433" d="M 37.5,46.5 C 37.8333,46.5 38.1667,46.5 38.5,46.5C 39.1522,47.7251 40.3189,48.3917 42,48.5C 43.707,48.3516 45.3736,48.0182 47,47.5C 48.301,47.6387 49.1344,48.3054 49.5,49.5C 47.955,50.2297 47.1216,51.563 47,53.5C 46.2917,52.6195 45.4584,51.9528 44.5,51.5C 42.5588,51.8693 40.7255,52.536 39,53.5C 38.5,53 38,52.5 37.5,52C 38.1383,50.2933 38.1383,48.46 37.5,46.5 Z"/></g>
<g><path style="opacity:1" fill="#887f79" d="M 36.5,46.5 C 36.8333,46.5 37.1667,46.5 37.5,46.5C 38.1383,48.46 38.1383,50.2933 37.5,52C 38,52.5 38.5,53 39,53.5C 40.7255,52.536 42.5588,51.8693 44.5,51.5C 44.5,52.8333 44.5,54.1667 44.5,55.5C 41.9342,56.3916 39.9342,58.0582 38.5,60.5C 39.259,64.9542 39.5923,69.2875 39.5,73.5C 38.7784,73.0825 38.2784,72.4158 38,71.5C 37.502,74.4816 37.3354,77.4816 37.5,80.5C 36.501,69.9154 36.1677,58.582 36.5,46.5 Z"/></g>
<g><path style="opacity:1" fill="#302c29" d="M 60.5,58.5 C 60.3653,64.4753 60.6986,70.4753 61.5,76.5C 61.5,76.8333 61.5,77.1667 61.5,77.5C 59.2888,76.9634 57.2888,75.9634 55.5,74.5C 54.5581,74.6082 53.7247,74.9415 53,75.5C 53.4488,74.0096 54.4488,72.6763 56,71.5C 56.7431,73.6447 57.5765,73.8114 58.5,72C 57.9915,70.8315 57.1581,69.9981 56,69.5C 51.883,70.5977 47.7163,70.5977 43.5,69.5C 41.2187,68.3656 41.2187,67.0322 43.5,65.5C 43.5,66.5 43.5,67.5 43.5,68.5C 48.544,68.8275 53.544,68.4941 58.5,67.5C 58.3764,66.8933 58.0431,66.56 57.5,66.5C 58.3007,64.9582 58.634,63.2915 58.5,61.5C 59.4013,60.7095 60.0679,59.7095 60.5,58.5 Z"/></g>
<g><path style="opacity:1" fill="#211e1c" d="M 60.5,58.5 C 60.0679,59.7095 59.4013,60.7095 58.5,61.5C 58.634,63.2915 58.3007,64.9582 57.5,66.5C 52.737,66.7744 48.0704,66.441 43.5,65.5C 41.2187,67.0322 41.2187,68.3656 43.5,69.5C 42.5615,71.7564 42.5615,74.0897 43.5,76.5C 44.9778,76.762 46.3112,76.4287 47.5,75.5C 45.3066,73.618 45.9733,73.118 49.5,74C 48.8288,74.9862 48.8288,76.1529 49.5,77.5C 46.4212,77.2601 43.4212,77.5934 40.5,78.5C 39.5481,76.9547 39.2148,75.288 39.5,73.5C 39.5923,69.2875 39.259,64.9542 38.5,60.5C 39.9342,58.0582 41.9342,56.3916 44.5,55.5C 50.4392,53.537 55.7726,54.537 60.5,58.5 Z"/></g>
<g><path style="opacity:1" fill="#565352" d="M 58.5,61.5 C 54.4637,65.6255 49.797,66.4588 44.5,64C 40.3665,60.8247 40.6998,58.4914 45.5,57C 49.8661,56.1145 54.0328,56.6145 58,58.5C 58.4828,59.448 58.6495,60.448 58.5,61.5 Z"/></g>
<g><path style="opacity:1" fill="#8b8785" d="M 43.5,65.5 C 48.0704,66.441 52.737,66.7744 57.5,66.5C 58.0431,66.56 58.3764,66.8933 58.5,67.5C 53.544,68.4941 48.544,68.8275 43.5,68.5C 43.5,67.5 43.5,66.5 43.5,65.5 Z"/></g>
<g><path style="opacity:1" fill="#585453" d="M 43.5,69.5 C 47.7163,70.5977 51.883,70.5977 56,69.5C 57.1581,69.9981 57.9915,70.8315 58.5,72C 57.5765,73.8114 56.7431,73.6447 56,71.5C 54.4488,72.6763 53.4488,74.0096 53,75.5C 53.7247,74.9415 54.5581,74.6082 55.5,74.5C 57.2888,75.9634 59.2888,76.9634 61.5,77.5C 61.8342,80.188 61.1675,82.5214 59.5,84.5C 50.3837,84.4366 50.3837,83.6033 59.5,82C 57.5273,81.5045 55.5273,81.3379 53.5,81.5C 55.3052,79.8031 57.6385,78.9698 60.5,79C 58.4513,78.2988 56.2847,77.7988 54,77.5C 52.6739,77.7549 51.6739,78.4216 51,79.5C 50.7216,78.5842 50.2216,77.9175 49.5,77.5C 48.8288,76.1529 48.8288,74.9862 49.5,74C 45.9733,73.118 45.3066,73.618 47.5,75.5C 46.3112,76.4287 44.9778,76.762 43.5,76.5C 42.5615,74.0897 42.5615,71.7564 43.5,69.5 Z"/></g>
<g><path style="opacity:1" fill="#97918c" d="M 64.5,43.5 C 64.5,57.1667 64.5,70.8333 64.5,84.5C 63.6696,74.0079 63.1696,63.3412 63,52.5C 62.8292,60.6772 62.3292,68.6772 61.5,76.5C 60.6986,70.4753 60.3653,64.4753 60.5,58.5C 55.7726,54.537 50.4392,53.537 44.5,55.5C 44.5,54.1667 44.5,52.8333 44.5,51.5C 45.4584,51.9528 46.2917,52.6195 47,53.5C 47.1216,51.563 47.955,50.2297 49.5,49.5C 50.2216,49.9175 50.7216,50.5842 51,51.5C 51.3333,51.1667 51.6667,50.8333 52,50.5C 52.3333,51.5 52.6667,52.5 53,53.5C 54.049,51.8934 55.549,51.2267 57.5,51.5C 58.5676,52.4345 59.901,52.7678 61.5,52.5C 60.1667,50.1667 60.1667,47.8333 61.5,45.5C 62.7777,45.2178 63.7777,44.5511 64.5,43.5 Z"/></g>
<g><path style="opacity:1" fill="#655d56" d="M 64.5,84.5 C 64.5,85.1667 64.5,85.8333 64.5,86.5C 63.5,86.5 62.5,86.5 61.5,86.5C 61.5,85.1667 60.8333,84.5 59.5,84.5C 61.1675,82.5214 61.8342,80.188 61.5,77.5C 61.5,77.1667 61.5,76.8333 61.5,76.5C 62.3292,68.6772 62.8292,60.6772 63,52.5C 63.1696,63.3412 63.6696,74.0079 64.5,84.5 Z"/></g>
<g><path style="opacity:1" fill="#534f4c" d="M 35.5,46.5 C 35.8333,46.5 36.1667,46.5 36.5,46.5C 36.1677,58.582 36.501,69.9154 37.5,80.5C 38.1614,81.7175 38.8281,83.0508 39.5,84.5C 39.0161,83.2192 39.6827,82.2192 41.5,81.5C 43.8337,82.1237 46.1671,82.957 48.5,84C 45.1489,84.0572 42.1489,84.8906 39.5,86.5C 38.209,86.2627 37.209,86.596 36.5,87.5C 36.1667,87.5 35.8333,87.5 35.5,87.5C 35.5,73.8333 35.5,60.1667 35.5,46.5 Z"/></g>
<g><path style="opacity:1" fill="#6f6a68" d="M 39.5,73.5 C 39.2148,75.288 39.5481,76.9547 40.5,78.5C 43.4212,77.5934 46.4212,77.2601 49.5,77.5C 50.2216,77.9175 50.7216,78.5842 51,79.5C 51.6739,78.4216 52.6739,77.7549 54,77.5C 56.2847,77.7988 58.4513,78.2988 60.5,79C 57.6385,78.9698 55.3052,79.8031 53.5,81.5C 49.5,81.5 45.5,81.5 41.5,81.5C 39.6827,82.2192 39.0161,83.2192 39.5,84.5C 38.8281,83.0508 38.1614,81.7175 37.5,80.5C 37.3354,77.4816 37.502,74.4816 38,71.5C 38.2784,72.4158 38.7784,73.0825 39.5,73.5 Z"/></g>
<g><path style="opacity:1" fill="#121314" d="M 41.5,81.5 C 45.5,81.5 49.5,81.5 53.5,81.5C 55.5273,81.3379 57.5273,81.5045 59.5,82C 50.3837,83.6033 50.3837,84.4366 59.5,84.5C 60.8333,84.5 61.5,85.1667 61.5,86.5C 54.1667,86.5 46.8333,86.5 39.5,86.5C 42.1489,84.8906 45.1489,84.0572 48.5,84C 46.1671,82.957 43.8337,82.1237 41.5,81.5 Z"/></g>
<g><path style="opacity:1" fill="#985107" d="M 36.5,87.5 C 37.209,86.596 38.209,86.2627 39.5,86.5C 46.8333,86.5 54.1667,86.5 61.5,86.5C 62.5,86.5 63.5,86.5 64.5,86.5C 64.5,87.1667 64.5,87.8333 64.5,88.5C 55.25,87.5279 45.9167,87.1945 36.5,87.5 Z"/></g>
<g><path style="opacity:1" fill="#e36e02" d="M 35.5,87.5 C 35.8333,87.5 36.1667,87.5 36.5,87.5C 45.9167,87.1945 55.25,87.5279 64.5,88.5C 64.5,91.1667 64.5,93.8333 64.5,96.5C 63.5084,96.6716 62.8417,96.3382 62.5,95.5C 63.8333,93.1667 63.8333,90.8333 62.5,88.5C 54.3159,88.1743 46.3159,88.5076 38.5,89.5C 38.5,90.5 38.5,91.5 38.5,92.5C 39.8333,92.5 41.1667,92.5 42.5,92.5C 40.5718,94.2939 38.2384,95.2939 35.5,95.5C 35.5,92.8333 35.5,90.1667 35.5,87.5 Z"/></g>
<g><path style="opacity:1" fill="#d96200" d="M 38.5,89.5 C 46.3159,88.5076 54.3159,88.1743 62.5,88.5C 63.8333,90.8333 63.8333,93.1667 62.5,95.5C 61.8333,95.5 61.1667,95.5 60.5,95.5C 58.7512,94.0149 56.7512,93.0149 54.5,92.5C 56.604,92.7989 58.604,92.4656 60.5,91.5C 53.5223,90.6381 46.189,89.9714 38.5,89.5 Z"/></g>
<g><path style="opacity:1" fill="#d35900" d="M 38.5,89.5 C 46.189,89.9714 53.5223,90.6381 60.5,91.5C 58.604,92.4656 56.604,92.7989 54.5,92.5C 50.5,92.5 46.5,92.5 42.5,92.5C 41.1667,92.5 39.8333,92.5 38.5,92.5C 38.5,91.5 38.5,90.5 38.5,89.5 Z"/></g>
<g><path style="opacity:1" fill="#d17502" d="M 42.5,92.5 C 46.5,92.5 50.5,92.5 54.5,92.5C 56.7512,93.0149 58.7512,94.0149 60.5,95.5C 58.5,95.5 56.5,95.5 54.5,95.5C 49.7869,94.5033 45.1202,94.8366 40.5,96.5C 38.5853,96.7845 36.9187,96.4511 35.5,95.5C 38.2384,95.2939 40.5718,94.2939 42.5,92.5 Z"/></g>
<g><path style="opacity:1" fill="#906d49" d="M 54.5,95.5 C 51.1667,96.1667 47.8333,96.8333 44.5,97.5C 43.1667,97.5 41.8333,97.5 40.5,97.5C 40.5,97.1667 40.5,96.8333 40.5,96.5C 45.1202,94.8366 49.7869,94.5033 54.5,95.5 Z"/></g>
<g><path style="opacity:0.929" fill="#cebea9" d="M 34.5,43.5 C 35.404,44.209 35.7373,45.209 35.5,46.5C 35.5,60.1667 35.5,73.8333 35.5,87.5C 35.5,90.1667 35.5,92.8333 35.5,95.5C 36.9187,96.4511 38.5853,96.7845 40.5,96.5C 40.5,96.8333 40.5,97.1667 40.5,97.5C 38.5,97.5 36.5,97.5 34.5,97.5C 34.5,79.5 34.5,61.5 34.5,43.5 Z"/></g>
<g><path style="opacity:0.929" fill="#cdbb95" d="M 54.5,95.5 C 56.5,95.5 58.5,95.5 60.5,95.5C 61.1667,95.5 61.8333,95.5 62.5,95.5C 62.8417,96.3382 63.5084,96.6716 64.5,96.5C 58.021,97.4907 51.3543,97.824 44.5,97.5C 47.8333,96.8333 51.1667,96.1667 54.5,95.5 Z"/></g>
</svg>
