<?xml version="1.0" encoding="UTF-8"?>
<!DOCTYPE svg PUBLIC "-//W3C//DTD SVG 1.1//EN" "http://www.w3.org/Graphics/SVG/1.1/DTD/svg11.dtd">
<svg xmlns="http://www.w3.org/2000/svg" version="1.1" width="100px" height="100px" style="shape-rendering:geometricPrecision; text-rendering:geometricPrecision; image-rendering:optimizeQuality; fill-rule:evenodd; clip-rule:evenodd" xmlns:xlink="http://www.w3.org/1999/xlink">
<g><path style="opacity:1" fill="#13161a" d="M 44.5,3.5 C 49.3633,3.18054 54.03,3.51388 58.5,4.5C 60.3796,10.7147 58.0463,13.3813 51.5,12.5C 51.5,9.83333 51.5,7.16667 51.5,4.5C 49.5,4.5 47.5,4.5 45.5,4.5C 44.8333,4.5 44.5,4.16667 44.5,3.5 Z"/></g>
<g><path style="opacity:1" fill="#323639" d="M 45.5,4.5 C 47.5,4.5 49.5,4.5 51.5,4.5C 51.5,7.16667 51.5,9.83333 51.5,12.5C 49.5,12.5 47.5,12.5 45.5,12.5C 45.5,9.83333 45.5,7.16667 45.5,4.5 Z"/></g>
<g><path style="opacity:1" fill="#363a3c" d="M 44.5,3.5 C 44.5,4.16667 44.8333,4.5 45.5,4.5C 45.5,7.16667 45.5,9.83333 45.5,12.5C 42.014,13.1715 39.3473,12.1715 37.5,9.5C 37.1248,4.50492 39.4582,2.50492 44.5,3.5 Z"/></g>
<g><path style="opacity:0.722" fill="#aaab98" d="M 58.5,4.5 C 59.7773,5.69363 60.4439,7.3603 60.5,9.5C 60.4932,11.3693 60.1599,13.036 59.5,14.5C 52.1667,14.5 44.8333,14.5 37.5,14.5C 36.9035,13.0646 36.9035,11.398 37.5,9.5C 39.3473,12.1715 42.014,13.1715 45.5,12.5C 47.5,12.5 49.5,12.5 51.5,12.5C 58.0463,13.3813 60.3796,10.7147 58.5,4.5 Z"/></g>
<g><path style="opacity:0.816" fill="#dcdddf" d="M 37.5,14.5 C 44.8333,14.5 52.1667,14.5 59.5,14.5C 59.366,16.2915 59.6993,17.9582 60.5,19.5C 59.1667,19.5 57.8333,19.5 56.5,19.5C 56.9175,18.7784 57.5842,18.2784 58.5,18C 57.354,17.3551 56.354,16.5217 55.5,15.5C 52.3751,17.3512 49.0417,17.8512 45.5,17C 47.1667,16.6667 48.8333,16.3333 50.5,16C 47.1177,15.1764 43.7844,15.343 40.5,16.5C 39.3881,17.2652 38.7214,18.2652 38.5,19.5C 38.1667,19.5 37.8333,19.5 37.5,19.5C 37.5,17.8333 37.5,16.1667 37.5,14.5 Z"/></g>
<g><path style="opacity:0.463" fill="#f2f2f3" d="M 56.5,19.5 C 50.5,19.5 44.5,19.5 38.5,19.5C 38.7214,18.2652 39.3881,17.2652 40.5,16.5C 43.7844,15.343 47.1177,15.1764 50.5,16C 48.8333,16.3333 47.1667,16.6667 45.5,17C 49.0417,17.8512 52.3751,17.3512 55.5,15.5C 56.354,16.5217 57.354,17.3551 58.5,18C 57.5842,18.2784 56.9175,18.7784 56.5,19.5 Z"/></g>
<g><path style="opacity:1" fill="#e9e5b7" d="M 37.5,19.5 C 37.8333,19.5 38.1667,19.5 38.5,19.5C 44.5,19.5 50.5,19.5 56.5,19.5C 57.8333,19.5 59.1667,19.5 60.5,19.5C 61.1667,19.5 61.5,19.8333 61.5,20.5C 57.5,20.5 53.5,20.5 49.5,20.5C 47.1667,20.5 44.8333,20.5 42.5,20.5C 38.6549,20.8257 35.6549,22.6591 33.5,26C 31.7509,30.3114 31.0842,34.8114 31.5,39.5C 31.1667,39.5 30.8333,39.5 30.5,39.5C 29.6172,33.0001 30.7839,27.0001 34,21.5C 35.1127,20.695 36.2794,20.0283 37.5,19.5 Z"/></g>
<g><path style="opacity:1" fill="#e1e172" d="M 42.5,20.5 C 44.8333,20.5 47.1667,20.5 49.5,20.5C 51.4467,21.1504 53.1134,22.317 54.5,24C 53.5,24.3333 52.5,24.6667 51.5,25C 52.8228,25.8159 53.4894,26.9826 53.5,28.5C 52.5,27.8333 51.5,27.1667 50.5,26.5C 48.5,26.5 46.5,26.5 44.5,26.5C 44.7148,24.8212 44.0481,23.8212 42.5,23.5C 42.1667,23.5 41.8333,23.5 41.5,23.5C 42.1098,22.609 42.4431,21.609 42.5,20.5 Z"/></g>
<g><path style="opacity:1" fill="#dedd5e" d="M 49.5,20.5 C 53.5,20.5 57.5,20.5 61.5,20.5C 61.9565,23.4056 62.9565,26.0722 64.5,28.5C 63.8333,28.5 63.5,28.8333 63.5,29.5C 62.8811,26.8808 61.2144,25.2141 58.5,24.5C 57.2867,24.7472 56.62,25.4138 56.5,26.5C 57.3597,30.4338 57.693,34.4338 57.5,38.5C 56.1667,38.5 54.8333,38.5 53.5,38.5C 54.7815,35.0641 54.7815,31.7307 53.5,28.5C 53.4894,26.9826 52.8228,25.8159 51.5,25C 52.5,24.6667 53.5,24.3333 54.5,24C 53.1134,22.317 51.4467,21.1504 49.5,20.5 Z"/></g>
<g><path style="opacity:1" fill="#e6e398" d="M 42.5,20.5 C 42.4431,21.609 42.1098,22.609 41.5,23.5C 38.769,22.6261 36.6024,23.6261 35,26.5C 34.5172,27.448 34.3505,28.448 34.5,29.5C 34.5,32.8333 34.5,36.1667 34.5,39.5C 34.1667,39.5 33.8333,39.5 33.5,39.5C 32.8333,39.5 32.1667,39.5 31.5,39.5C 31.0842,34.8114 31.7509,30.3114 33.5,26C 35.6549,22.6591 38.6549,20.8257 42.5,20.5 Z"/></g>
<g><path style="opacity:1" fill="#eeedc3" d="M 41.5,23.5 C 41.8333,23.5 42.1667,23.5 42.5,23.5C 42.5,23.8333 42.5,24.1667 42.5,24.5C 40.358,27.423 38.1913,30.423 36,33.5C 35.79,31.9419 35.29,30.6085 34.5,29.5C 34.3505,28.448 34.5172,27.448 35,26.5C 36.6024,23.6261 38.769,22.6261 41.5,23.5 Z"/></g>
<g><path style="opacity:1" fill="#f2f0cf" d="M 42.5,24.5 C 43.3382,24.8417 43.6716,25.5084 43.5,26.5C 42.5489,27.9187 42.2155,29.5853 42.5,31.5C 39.3783,33.1257 37.7117,35.7924 37.5,39.5C 36.5,39.5 35.5,39.5 34.5,39.5C 34.5,36.1667 34.5,32.8333 34.5,29.5C 35.29,30.6085 35.79,31.9419 36,33.5C 38.1913,30.423 40.358,27.423 42.5,24.5 Z"/></g>
<g><path style="opacity:1" fill="#e5e98b" d="M 63.5,29.5 C 63.8174,32.5719 63.4841,35.5719 62.5,38.5C 61.2519,37.9598 60.0852,37.2931 59,36.5C 58.6667,33.5 58.3333,30.5 58,27.5C 57.6174,26.944 57.1174,26.6107 56.5,26.5C 56.62,25.4138 57.2867,24.7472 58.5,24.5C 61.2144,25.2141 62.8811,26.8808 63.5,29.5 Z"/></g>
<g><path style="opacity:1" fill="#e5e187" d="M 42.5,24.5 C 42.5,24.1667 42.5,23.8333 42.5,23.5C 44.0481,23.8212 44.7148,24.8212 44.5,26.5C 46.5,26.5 48.5,26.5 50.5,26.5C 52.334,30.3253 52.334,34.3253 50.5,38.5C 50.5,38.8333 50.5,39.1667 50.5,39.5C 47.8333,39.5 45.1667,39.5 42.5,39.5C 42.5,39.1667 42.5,38.8333 42.5,38.5C 44.8273,38.7529 46.8273,38.0863 48.5,36.5C 47.6258,34.2534 47.2924,31.9201 47.5,29.5C 46.1667,29.5 44.8333,29.5 43.5,29.5C 43.5,28.5 43.5,27.5 43.5,26.5C 43.6716,25.5084 43.3382,24.8417 42.5,24.5 Z"/></g>
<g><path style="opacity:1" fill="#dfde74" d="M 50.5,26.5 C 51.5,27.1667 52.5,27.8333 53.5,28.5C 54.7815,31.7307 54.7815,35.0641 53.5,38.5C 52.5,38.5 51.5,38.5 50.5,38.5C 52.334,34.3253 52.334,30.3253 50.5,26.5 Z"/></g>
<g><path style="opacity:1" fill="#d4cf5a" d="M 56.5,26.5 C 57.1174,26.6107 57.6174,26.944 58,27.5C 58.3333,30.5 58.6667,33.5 59,36.5C 60.0852,37.2931 61.2519,37.9598 62.5,38.5C 63.4841,35.5719 63.8174,32.5719 63.5,29.5C 63.5,28.8333 63.8333,28.5 64.5,28.5C 64.3354,31.5184 64.502,34.5184 65,37.5C 65.3826,38.056 65.8826,38.3893 66.5,38.5C 66.5,38.8333 66.5,39.1667 66.5,39.5C 64.8333,39.5 63.1667,39.5 61.5,39.5C 57.8333,39.5 54.1667,39.5 50.5,39.5C 50.5,39.1667 50.5,38.8333 50.5,38.5C 51.5,38.5 52.5,38.5 53.5,38.5C 54.8333,38.5 56.1667,38.5 57.5,38.5C 57.693,34.4338 57.3597,30.4338 56.5,26.5 Z"/></g>
<g><path style="opacity:1" fill="#f2eda7" d="M 43.5,26.5 C 43.5,27.5 43.5,28.5 43.5,29.5C 44.8333,29.5 46.1667,29.5 47.5,29.5C 47.2924,31.9201 47.6258,34.2534 48.5,36.5C 46.8273,38.0863 44.8273,38.7529 42.5,38.5C 42.5,36.1667 42.5,33.8333 42.5,31.5C 42.2155,29.5853 42.5489,27.9187 43.5,26.5 Z"/></g>
<g><path style="opacity:1" fill="#f5f5e5" d="M 42.5,31.5 C 42.5,33.8333 42.5,36.1667 42.5,38.5C 42.5,38.8333 42.5,39.1667 42.5,39.5C 41.5,39.5 40.5,39.5 39.5,39.5C 38.8333,39.5 38.1667,39.5 37.5,39.5C 37.7117,35.7924 39.3783,33.1257 42.5,31.5 Z"/></g>
<g><path style="opacity:0.949" fill="#e8ea94" d="M 61.5,20.5 C 63.5041,21.6728 65.0041,23.3395 66,25.5C 66.499,29.8206 66.6657,34.1539 66.5,38.5C 65.8826,38.3893 65.3826,38.056 65,37.5C 64.502,34.5184 64.3354,31.5184 64.5,28.5C 62.9565,26.0722 61.9565,23.4056 61.5,20.5 Z"/></g>
<g><path style="opacity:1" fill="#0b0711" d="M 39.5,39.5 C 40.5,39.5 41.5,39.5 42.5,39.5C 45.1667,39.5 47.8333,39.5 50.5,39.5C 54.1667,39.5 57.8333,39.5 61.5,39.5C 61.8417,40.3382 62.5084,40.6716 63.5,40.5C 63.5,41.1667 63.5,41.8333 63.5,42.5C 59.3628,40.0824 55.3628,40.0824 51.5,42.5C 47.5,41.8333 43.5,41.1667 39.5,40.5C 39.5,40.1667 39.5,39.8333 39.5,39.5 Z"/></g>
<g><path style="opacity:1" fill="#131016" d="M 39.5,40.5 C 43.5,41.1667 47.5,41.8333 51.5,42.5C 50.1667,42.5 49.5,43.1667 49.5,44.5C 49.5,44.8333 49.5,45.1667 49.5,45.5C 48.2921,44.7659 46.9587,44.4326 45.5,44.5C 44.5,44.5 43.5,44.5 42.5,44.5C 41.0813,43.5489 39.4147,43.2155 37.5,43.5C 37.5,43.1667 37.5,42.8333 37.5,42.5C 36.7375,41.7321 35.7375,41.2321 34.5,41C 36.1341,40.5065 37.8008,40.3398 39.5,40.5 Z"/></g>
<g><path style="opacity:1" fill="#d3d3d0" d="M 34.5,42.5 C 35.5,42.5 36.5,42.5 37.5,42.5C 37.5,42.8333 37.5,43.1667 37.5,43.5C 36.7093,45.6907 36.7093,47.6907 37.5,49.5C 37.5,50.8333 37.5,52.1667 37.5,53.5C 36.5,53.5 35.5,53.5 34.5,53.5C 34.5,49.8333 34.5,46.1667 34.5,42.5 Z"/></g>
<g><path style="opacity:1" fill="#2b2215" d="M 63.5,42.5 C 63.6653,46.1817 63.4986,49.8484 63,53.5C 62.8138,50.9644 62.3138,48.631 61.5,46.5C 61.1344,45.3054 60.301,44.6387 59,44.5C 55.7568,44.5601 52.5901,44.5601 49.5,44.5C 49.5,43.1667 50.1667,42.5 51.5,42.5C 55.3628,40.0824 59.3628,40.0824 63.5,42.5 Z"/></g>
<g><path style="opacity:1" fill="#44474a" d="M 33.5,39.5 C 33.8333,39.5 34.1667,39.5 34.5,39.5C 35.5,39.5 36.5,39.5 37.5,39.5C 38.1667,39.5 38.8333,39.5 39.5,39.5C 39.5,39.8333 39.5,40.1667 39.5,40.5C 37.8008,40.3398 36.1341,40.5065 34.5,41C 35.7375,41.2321 36.7375,41.7321 37.5,42.5C 36.5,42.5 35.5,42.5 34.5,42.5C 33.5128,47.3054 33.1795,52.3054 33.5,57.5C 33.3253,59.6208 33.6586,61.6208 34.5,63.5C 33.5104,69.31 33.1771,75.31 33.5,81.5C 33.1667,81.5 32.8333,81.5 32.5,81.5C 32.1849,67.4213 32.5182,53.4213 33.5,39.5 Z"/></g>
<g><path style="opacity:1" fill="#f3d437" d="M 37.5,43.5 C 39.4147,43.2155 41.0813,43.5489 42.5,44.5C 42.9528,45.4584 43.6195,46.2917 44.5,47C 42.3885,47.8447 40.3885,48.678 38.5,49.5C 38.1667,49.5 37.8333,49.5 37.5,49.5C 36.7093,47.6907 36.7093,45.6907 37.5,43.5 Z"/></g>
<g><path style="opacity:1" fill="#ededed" d="M 49.5,44.5 C 52.5901,44.5601 55.7568,44.5601 59,44.5C 60.301,44.6387 61.1344,45.3054 61.5,46.5C 62.0102,49.3878 61.3435,51.7211 59.5,53.5C 59.5,51.5 59.5,49.5 59.5,47.5C 58.5,47.5 57.5,47.5 56.5,47.5C 55.9845,55.474 55.1512,55.474 54,47.5C 53.3333,46.1667 52.6667,46.1667 52,47.5C 51.5045,49.4727 51.3379,51.4727 51.5,53.5C 49.631,51.3647 48.9644,48.6981 49.5,45.5C 49.5,45.1667 49.5,44.8333 49.5,44.5 Z"/></g>
<g><path style="opacity:1" fill="#d9d7d5" d="M 42.5,44.5 C 43.5,44.5 44.5,44.5 45.5,44.5C 46.1534,45.8068 46.8201,47.1401 47.5,48.5C 39.5762,49.9623 39.5762,51.1289 47.5,52C 45.4528,54.3028 43.1194,54.8028 40.5,53.5C 39.3995,52.3951 38.7329,51.0618 38.5,49.5C 40.3885,48.678 42.3885,47.8447 44.5,47C 43.6195,46.2917 42.9528,45.4584 42.5,44.5 Z"/></g>
<g><path style="opacity:1" fill="#282729" d="M 59.5,53.5 C 62.2583,54.9665 61.925,55.6332 58.5,55.5C 56.3926,54.5318 54.0593,54.1984 51.5,54.5C 51.5,54.1667 51.5,53.8333 51.5,53.5C 51.3379,51.4727 51.5045,49.4727 52,47.5C 52.6667,46.1667 53.3333,46.1667 54,47.5C 55.1512,55.474 55.9845,55.474 56.5,47.5C 57.5,47.5 58.5,47.5 59.5,47.5C 59.5,49.5 59.5,51.5 59.5,53.5 Z"/></g>
<g><path style="opacity:1" fill="#404043" d="M 63.5,40.5 C 64.494,50.3194 64.8274,60.3194 64.5,70.5C 63.6745,66.0181 63.1745,61.3514 63,56.5C 62.8138,59.0356 62.3138,61.369 61.5,63.5C 61.5,61.1667 61.5,58.8333 61.5,56.5C 60.209,56.7373 59.209,56.404 58.5,55.5C 61.925,55.6332 62.2583,54.9665 59.5,53.5C 61.3435,51.7211 62.0102,49.3878 61.5,46.5C 62.3138,48.631 62.8138,50.9644 63,53.5C 63.4986,49.8484 63.6653,46.1817 63.5,42.5C 63.5,41.8333 63.5,41.1667 63.5,40.5 Z"/></g>
<g><path style="opacity:1" fill="#262524" d="M 34.5,42.5 C 34.5,46.1667 34.5,49.8333 34.5,53.5C 35.5,53.5 36.5,53.5 37.5,53.5C 37.5,52.1667 37.5,50.8333 37.5,49.5C 37.8333,49.5 38.1667,49.5 38.5,49.5C 38.7329,51.0618 39.3995,52.3951 40.5,53.5C 39.6618,53.8417 39.3284,54.5084 39.5,55.5C 37.1417,55.2525 35.1417,55.9192 33.5,57.5C 33.1795,52.3054 33.5128,47.3054 34.5,42.5 Z"/></g>
<g><path style="opacity:1" fill="#2b2623" d="M 45.5,44.5 C 46.9587,44.4326 48.2921,44.7659 49.5,45.5C 48.9644,48.6981 49.631,51.3647 51.5,53.5C 51.5,53.8333 51.5,54.1667 51.5,54.5C 50.5084,54.3284 49.8417,54.6618 49.5,55.5C 47.9139,56.4132 46.4139,56.4132 45,55.5C 43.6814,57.2495 43.1814,59.2495 43.5,61.5C 43.1667,61.5 42.8333,61.5 42.5,61.5C 42.9754,58.6874 41.9754,56.6874 39.5,55.5C 39.3284,54.5084 39.6618,53.8417 40.5,53.5C 43.1194,54.8028 45.4528,54.3028 47.5,52C 39.5762,51.1289 39.5762,49.9623 47.5,48.5C 46.8201,47.1401 46.1534,45.8068 45.5,44.5 Z"/></g>
<g><path style="opacity:1" fill="#6b6f71" d="M 61.5,39.5 C 63.1667,39.5 64.8333,39.5 66.5,39.5C 66.5,53.5 66.5,67.5 66.5,81.5C 65.8333,81.5 65.1667,81.5 64.5,81.5C 64.5,79.5 64.5,77.5 64.5,75.5C 64.5,74.5 64.5,73.5 64.5,72.5C 64.5,71.8333 64.5,71.1667 64.5,70.5C 64.8274,60.3194 64.494,50.3194 63.5,40.5C 62.5084,40.6716 61.8417,40.3382 61.5,39.5 Z"/></g>
<g><path style="opacity:0.714" fill="#babbb7" d="M 30.5,39.5 C 30.8333,39.5 31.1667,39.5 31.5,39.5C 31.1709,53.6766 31.5042,67.6766 32.5,81.5C 32.8333,81.5 33.1667,81.5 33.5,81.5C 33.8333,81.5 34.1667,81.5 34.5,81.5C 34.5,81.8333 34.5,82.1667 34.5,82.5C 34.1667,82.5 33.8333,82.5 33.5,82.5C 31.6565,84.2789 30.9898,86.6122 31.5,89.5C 30.5035,73.0084 30.1702,56.3417 30.5,39.5 Z"/></g>
<g><path style="opacity:1" fill="#dfdfe3" d="M 49.5,55.5 C 50.1174,55.6107 50.6174,55.944 51,56.5C 51.4974,59.146 51.6641,61.8127 51.5,64.5C 50.0551,62.3102 48.7218,59.9769 47.5,57.5C 46.5258,59.7427 46.1924,62.076 46.5,64.5C 45.5,64.5 44.5,64.5 43.5,64.5C 43.5,63.5 43.5,62.5 43.5,61.5C 43.1814,59.2495 43.6814,57.2495 45,55.5C 46.4139,56.4132 47.9139,56.4132 49.5,55.5 Z"/></g>
<g><path style="opacity:1" fill="#eae9e9" d="M 58.5,55.5 C 59.209,56.404 60.209,56.7373 61.5,56.5C 61.5,58.8333 61.5,61.1667 61.5,63.5C 61.1583,64.3382 60.4916,64.6716 59.5,64.5C 55.8084,65.673 53.8084,64.173 53.5,60C 53.7485,56.918 55.4151,55.418 58.5,55.5 Z"/></g>
<g><path style="opacity:1" fill="#322f2f" d="M 51.5,64.5 C 52.1667,64.5 52.5,64.8333 52.5,65.5C 52.5569,66.609 52.8902,67.609 53.5,68.5C 53.2053,70.7354 53.5386,72.7354 54.5,74.5C 57.6248,75.4794 60.9581,75.8128 64.5,75.5C 64.5,77.5 64.5,79.5 64.5,81.5C 64.1667,81.5 63.8333,81.5 63.5,81.5C 63.0679,80.2905 62.4013,79.2905 61.5,78.5C 61.5,78.1667 61.5,77.8333 61.5,77.5C 60.3098,76.3236 57.6431,76.1569 53.5,77C 52.6159,78.7198 51.2825,79.8865 49.5,80.5C 49.3893,79.8826 49.056,79.3826 48.5,79C 49.6721,78.5814 50.6721,77.9147 51.5,77C 49.6183,76.8019 47.9516,76.3019 46.5,75.5C 54.3981,75.1136 54.3981,74.1136 46.5,72.5C 48.396,71.5344 50.396,71.2011 52.5,71.5C 51.6615,66.3323 49.1615,65.3323 45,68.5C 44.51,69.7932 44.3433,71.1266 44.5,72.5C 43.8333,71.5 43.1667,70.5 42.5,69.5C 42.5,67.5 42.5,65.5 42.5,63.5C 42.5,62.8333 42.5,62.1667 42.5,61.5C 42.8333,61.5 43.1667,61.5 43.5,61.5C 43.5,62.5 43.5,63.5 43.5,64.5C 44.5,64.5 45.5,64.5 46.5,64.5C 46.1924,62.076 46.5258,59.7427 47.5,57.5C 48.7218,59.9769 50.0551,62.3102 51.5,64.5 Z"/></g>
<g><path style="opacity:1" fill="#1f1e20" d="M 56.5,58.5 C 59.8606,59.2032 60.1939,60.5365 57.5,62.5C 55.3576,61.5629 55.0243,60.2296 56.5,58.5 Z"/></g>
<g><path style="opacity:1" fill="#f7d730" d="M 39.5,55.5 C 41.9754,56.6874 42.9754,58.6874 42.5,61.5C 42.5,62.1667 42.5,62.8333 42.5,63.5C 41.5,63.8333 40.8333,64.5 40.5,65.5C 37.9899,65.9465 35.9899,65.2798 34.5,63.5C 33.6586,61.6208 33.3253,59.6208 33.5,57.5C 35.1417,55.9192 37.1417,55.2525 39.5,55.5 Z"/></g>
<g><path style="opacity:1" fill="#1a1719" d="M 49.5,55.5 C 49.8417,54.6618 50.5084,54.3284 51.5,54.5C 54.0593,54.1984 56.3926,54.5318 58.5,55.5C 55.4151,55.418 53.7485,56.918 53.5,60C 53.8084,64.173 55.8084,65.673 59.5,64.5C 59.9175,65.2216 60.5842,65.7216 61.5,66C 59.065,66.0748 58.3984,66.9081 59.5,68.5C 57.086,69.9108 55.4194,71.9108 54.5,74.5C 53.5386,72.7354 53.2053,70.7354 53.5,68.5C 54.9848,69.9349 56.3181,69.7683 57.5,68C 56.3474,66.117 54.6807,65.2837 52.5,65.5C 52.5,64.8333 52.1667,64.5 51.5,64.5C 51.6641,61.8127 51.4974,59.146 51,56.5C 50.6174,55.944 50.1174,55.6107 49.5,55.5 Z"/></g>
<g><path style="opacity:1" fill="#717577" d="M 31.5,39.5 C 32.1667,39.5 32.8333,39.5 33.5,39.5C 32.5182,53.4213 32.1849,67.4213 32.5,81.5C 31.5042,67.6766 31.1709,53.6766 31.5,39.5 Z"/></g>
<g><path style="opacity:1" fill="#2c2d30" d="M 34.5,63.5 C 35.9899,65.2798 37.9899,65.9465 40.5,65.5C 34.4342,66.6529 33.1009,69.8196 36.5,75C 38.4727,75.4955 40.4727,75.6621 42.5,75.5C 41.0475,76.8486 40.0475,78.5153 39.5,80.5C 37.5853,80.2155 35.9187,80.5489 34.5,81.5C 34.1667,81.5 33.8333,81.5 33.5,81.5C 33.1771,75.31 33.5104,69.31 34.5,63.5 Z"/></g>
<g><path style="opacity:1" fill="#e4e4e5" d="M 42.5,63.5 C 42.5,65.5 42.5,67.5 42.5,69.5C 42.5,71.5 42.5,73.5 42.5,75.5C 40.4727,75.6621 38.4727,75.4955 36.5,75C 33.1009,69.8196 34.4342,66.6529 40.5,65.5C 40.8333,64.5 41.5,63.8333 42.5,63.5 Z"/></g>
<g><path style="opacity:1" fill="#008637" d="M 52.5,65.5 C 54.6807,65.2837 56.3474,66.117 57.5,68C 56.3181,69.7683 54.9848,69.9349 53.5,68.5C 52.8902,67.609 52.5569,66.609 52.5,65.5 Z"/></g>
<g><path style="opacity:1" fill="#1a1922" d="M 64.5,70.5 C 64.5,71.1667 64.5,71.8333 64.5,72.5C 62.8333,71.1667 61.1667,69.8333 59.5,68.5C 58.3984,66.9081 59.065,66.0748 61.5,66C 60.5842,65.7216 59.9175,65.2216 59.5,64.5C 60.4916,64.6716 61.1583,64.3382 61.5,63.5C 62.3138,61.369 62.8138,59.0356 63,56.5C 63.1745,61.3514 63.6745,66.0181 64.5,70.5 Z"/></g>
<g><path style="opacity:1" fill="#e9e8e9" d="M 46.5,75.5 C 45.0937,75.0269 44.427,74.0269 44.5,72.5C 44.3433,71.1266 44.51,69.7932 45,68.5C 49.1615,65.3323 51.6615,66.3323 52.5,71.5C 50.396,71.2011 48.396,71.5344 46.5,72.5C 54.3981,74.1136 54.3981,75.1136 46.5,75.5 Z"/></g>
<g><path style="opacity:1" fill="#181819" d="M 37.5,69.5 C 38.5862,69.62 39.2528,70.2867 39.5,71.5C 39.1667,72.1667 38.8333,72.8333 38.5,73.5C 37.5713,72.3112 37.238,70.9778 37.5,69.5 Z"/></g>
<g><path style="opacity:1" fill="#131314" d="M 47.5,68.5 C 49.337,68.6395 49.6704,69.3061 48.5,70.5C 47.7025,70.0431 47.3691,69.3764 47.5,68.5 Z"/></g>
<g><path style="opacity:1" fill="#f2d202" d="M 59.5,68.5 C 61.1667,69.8333 62.8333,71.1667 64.5,72.5C 64.5,73.5 64.5,74.5 64.5,75.5C 60.9581,75.8128 57.6248,75.4794 54.5,74.5C 55.4194,71.9108 57.086,69.9108 59.5,68.5 Z"/></g>
<g><path style="opacity:1" fill="#0f0c11" d="M 42.5,69.5 C 43.1667,70.5 43.8333,71.5 44.5,72.5C 44.427,74.0269 45.0937,75.0269 46.5,75.5C 47.9516,76.3019 49.6183,76.8019 51.5,77C 50.6721,77.9147 49.6721,78.5814 48.5,79C 49.056,79.3826 49.3893,79.8826 49.5,80.5C 46.1667,80.5 42.8333,80.5 39.5,80.5C 40.0475,78.5153 41.0475,76.8486 42.5,75.5C 42.5,73.5 42.5,71.5 42.5,69.5 Z"/></g>
<g><path style="opacity:1" fill="#1f1d1d" d="M 61.5,77.5 C 58.6035,77.1253 55.9368,77.6253 53.5,79C 54.4162,79.3742 55.2496,79.8742 56,80.5C 57.9483,79.8906 59.7816,79.224 61.5,78.5C 62.4013,79.2905 63.0679,80.2905 63.5,81.5C 61.901,81.2322 60.5676,81.5655 59.5,82.5C 57.5,82.5 55.5,82.5 53.5,82.5C 49.8333,82.5 46.1667,82.5 42.5,82.5C 39.8333,82.5 37.1667,82.5 34.5,82.5C 34.5,82.1667 34.5,81.8333 34.5,81.5C 35.9187,80.5489 37.5853,80.2155 39.5,80.5C 42.8333,80.5 46.1667,80.5 49.5,80.5C 51.2825,79.8865 52.6159,78.7198 53.5,77C 57.6431,76.1569 60.3098,76.3236 61.5,77.5 Z"/></g>
<g><path style="opacity:1" fill="#999698" d="M 61.5,77.5 C 61.5,77.8333 61.5,78.1667 61.5,78.5C 59.7816,79.224 57.9483,79.8906 56,80.5C 55.2496,79.8742 54.4162,79.3742 53.5,79C 55.9368,77.6253 58.6035,77.1253 61.5,77.5 Z"/></g>
<g><path style="opacity:0.949" fill="#d3cf8f" d="M 59.5,82.5 C 60.5676,81.5655 61.901,81.2322 63.5,81.5C 63.8333,81.5 64.1667,81.5 64.5,81.5C 65.1667,81.5 65.8333,81.5 66.5,81.5C 66.81,84.7131 66.4767,87.7131 65.5,90.5C 65.5,87.8333 65.5,85.1667 65.5,82.5C 63.5,82.5 61.5,82.5 59.5,82.5 Z"/></g>
<g><path style="opacity:1" fill="#e6e280" d="M 33.5,82.5 C 33.1635,85.8298 34.6635,87.4964 38,87.5C 41.7585,87.907 43.2585,86.2403 42.5,82.5C 46.1667,82.5 49.8333,82.5 53.5,82.5C 52.3237,85.4329 50.657,88.0996 48.5,90.5C 48.8627,91.1835 49.1961,91.8501 49.5,92.5C 47.8333,92.5 46.1667,92.5 44.5,92.5C 44.121,91.1938 43.7876,89.8605 43.5,88.5C 40.5,89.8333 37.5,89.8333 34.5,88.5C 33.5713,89.6888 33.238,91.0222 33.5,92.5C 32.5987,91.7095 31.9321,90.7095 31.5,89.5C 30.9898,86.6122 31.6565,84.2789 33.5,82.5 Z"/></g>
<g><path style="opacity:1" fill="#e4e167" d="M 53.5,82.5 C 55.5,82.5 57.5,82.5 59.5,82.5C 61.5,82.5 63.5,82.5 65.5,82.5C 65.5,85.1667 65.5,87.8333 65.5,90.5C 65.5,91.1667 65.1667,91.5 64.5,91.5C 64.5,90.5 64.5,89.5 64.5,88.5C 63.6993,86.9582 63.366,85.2915 63.5,83.5C 61.1432,83.3367 58.8098,83.5034 56.5,84C 57.1667,84.6667 57.8333,85.3333 58.5,86C 56.9336,86.6082 55.6002,87.4415 54.5,88.5C 52.8958,89.287 52.2291,90.6203 52.5,92.5C 51.5,92.5 50.5,92.5 49.5,92.5C 49.1961,91.8501 48.8627,91.1835 48.5,90.5C 50.657,88.0996 52.3237,85.4329 53.5,82.5 Z"/></g>
<g><path style="opacity:1" fill="#efedb0" d="M 33.5,82.5 C 33.8333,82.5 34.1667,82.5 34.5,82.5C 37.1667,82.5 39.8333,82.5 42.5,82.5C 43.2585,86.2403 41.7585,87.907 38,87.5C 34.6635,87.4964 33.1635,85.8298 33.5,82.5 Z"/></g>
<g><path style="opacity:1" fill="#e0df4e" d="M 64.5,88.5 C 61.0184,88.8281 57.6851,88.8281 54.5,88.5C 55.6002,87.4415 56.9336,86.6082 58.5,86C 57.8333,85.3333 57.1667,84.6667 56.5,84C 58.8098,83.5034 61.1432,83.3367 63.5,83.5C 63.366,85.2915 63.6993,86.9582 64.5,88.5 Z"/></g>
<g><path style="opacity:1" fill="#d9d33c" d="M 54.5,88.5 C 57.6851,88.8281 61.0184,88.8281 64.5,88.5C 64.5,89.5 64.5,90.5 64.5,91.5C 64.5858,92.4959 64.2524,93.3292 63.5,94C 60.1832,94.4983 56.8499,94.665 53.5,94.5C 53.6716,93.5084 53.3382,92.8417 52.5,92.5C 52.2291,90.6203 52.8958,89.287 54.5,88.5 Z"/></g>
<g><path style="opacity:1" fill="#e0dc53" d="M 44.5,92.5 C 40.2707,91.3805 36.6041,91.3805 33.5,92.5C 33.238,91.0222 33.5713,89.6888 34.5,88.5C 37.5,89.8333 40.5,89.8333 43.5,88.5C 43.7876,89.8605 44.121,91.1938 44.5,92.5 Z"/></g>
<g><path style="opacity:0.4" fill="#d5c85d" d="M 44.5,92.5 C 46.1667,92.5 47.8333,92.5 49.5,92.5C 50.5,92.5 51.5,92.5 52.5,92.5C 53.3382,92.8417 53.6716,93.5084 53.5,94.5C 47.1579,94.6662 40.8246,94.4995 34.5,94C 33.944,93.6174 33.6107,93.1174 33.5,92.5C 36.6041,91.3805 40.2707,91.3805 44.5,92.5 Z"/></g>
</svg>
