<?xml version="1.0" encoding="UTF-8"?>
<!DOCTYPE svg PUBLIC "-//W3C//DTD SVG 1.1//EN" "http://www.w3.org/Graphics/SVG/1.1/DTD/svg11.dtd">
<svg xmlns="http://www.w3.org/2000/svg" version="1.1" width="512px" height="512px" style="shape-rendering:geometricPrecision; text-rendering:geometricPrecision; image-rendering:optimizeQuality; fill-rule:evenodd; clip-rule:evenodd" xmlns:xlink="http://www.w3.org/1999/xlink">
<g><path style="opacity:0.994" fill="#000000" d="M 187.5,20.5 C 190.978,20.1842 194.312,20.6842 197.5,22C 228.031,53.6922 262.031,58.0255 299.5,35C 304.467,31.034 309.134,26.7007 313.5,22C 317.805,20.0766 322.138,20.0766 326.5,22C 351.657,31.2743 376.657,40.941 401.5,51C 409,55.8333 415.167,62 420,69.5C 443.333,119.5 466.667,169.5 490,219.5C 490.667,282.5 490.667,345.5 490,408.5C 489.214,411.583 487.381,413.749 484.5,415C 459.833,415.667 435.167,415.667 410.5,415C 407.619,413.749 405.786,411.583 405,408.5C 404.667,358.167 404.333,307.833 404,257.5C 401.275,250.384 398.275,243.384 395,236.5C 394.667,318.833 394.333,401.167 394,483.5C 392.5,486.333 390.333,488.5 387.5,490C 298.752,490.995 210.085,490.661 121.5,489C 119.622,487.457 118.122,485.624 117,483.5C 116.667,401.167 116.333,318.833 116,236.5C 113,243.5 110,250.5 107,257.5C 106.667,307.833 106.333,358.167 106,408.5C 105.214,411.583 103.381,413.749 100.5,415C 75.8333,415.667 51.1667,415.667 26.5,415C 23.6193,413.749 21.786,411.583 21,408.5C 20.3333,345.5 20.3333,282.5 21,219.5C 43,172.167 65,124.833 87,77.5C 92.7749,64.0586 102.275,54.2252 115.5,48C 139.699,39.0556 163.699,29.8889 187.5,20.5 Z"/></g>
</svg>
