<?xml version="1.0" encoding="UTF-8"?>
<!DOCTYPE svg PUBLIC "-//W3C//DTD SVG 1.1//EN" "http://www.w3.org/Graphics/SVG/1.1/DTD/svg11.dtd">
<svg xmlns="http://www.w3.org/2000/svg" version="1.1" width="512px" height="512px" style="shape-rendering:geometricPrecision; text-rendering:geometricPrecision; image-rendering:optimizeQuality; fill-rule:evenodd; clip-rule:evenodd" xmlns:xlink="http://www.w3.org/1999/xlink">
<g><path style="opacity:0.987" fill="#000000" d="M 214.5,-0.5 C 219.5,-0.5 224.5,-0.5 229.5,-0.5C 241.787,3.64357 248.287,12.3102 249,25.5C 249.5,95.1659 249.667,164.833 249.5,234.5C 256.833,234.5 264.167,234.5 271.5,234.5C 271.03,179.805 271.53,125.138 273,70.5C 277.95,50.9337 290.45,42.7671 310.5,46C 323.131,50.3065 330.298,59.1398 332,72.5C 332.333,142.5 332.667,212.5 333,282.5C 335.691,285.852 338.857,286.685 342.5,285C 363.472,265.029 384.138,244.695 404.5,224C 417.962,210.616 433.295,207.95 450.5,216C 464.281,229.715 466.115,244.882 456,261.5C 441.617,279.549 427.617,297.882 414,316.5C 387.605,357.233 361.605,398.233 336,439.5C 308.787,481.369 270.287,505.369 220.5,511.5C 204.833,511.5 189.167,511.5 173.5,511.5C 151.952,509.778 131.285,504.278 111.5,495C 90.4486,483.282 74.9486,466.448 65,444.5C 56.0619,423.747 50.7285,402.08 49,379.5C 48.3333,291.833 48.3333,204.167 49,116.5C 53.924,98.6058 65.424,92.1058 83.5,97C 92.9319,101.01 98.0985,108.177 99,118.5C 99.5,157.499 99.6667,196.499 99.5,235.5C 106.833,235.5 114.167,235.5 121.5,235.5C 121.484,176.829 121.984,118.163 123,59.5C 128.553,38.2039 141.386,32.0372 161.5,41C 166.913,45.6547 170.413,51.4881 172,58.5C 173.464,117.144 173.964,175.81 173.5,234.5C 180.833,234.5 188.167,234.5 195.5,234.5C 195.333,165.833 195.5,97.1659 196,28.5C 196.018,14.6943 202.185,5.02759 214.5,-0.5 Z"/></g>
</svg>
