<?xml version="1.0" encoding="UTF-8"?>
<!DOCTYPE svg PUBLIC "-//W3C//DTD SVG 1.1//EN" "http://www.w3.org/Graphics/SVG/1.1/DTD/svg11.dtd">
<svg xmlns="http://www.w3.org/2000/svg" version="1.1" width="512px" height="512px" style="shape-rendering:geometricPrecision; text-rendering:geometricPrecision; image-rendering:optimizeQuality; fill-rule:evenodd; clip-rule:evenodd" xmlns:xlink="http://www.w3.org/1999/xlink">
<g><path style="opacity:0.981" fill="#000000" d="M 227.5,30.5 C 257.722,29.2697 287.055,33.7697 315.5,44C 343.249,55.4144 364.415,74.2477 379,100.5C 395.334,132.839 403.334,167.172 403,203.5C 414.333,220.833 425.667,238.167 437,255.5C 442.338,266.459 441.338,276.792 434,286.5C 426.08,319.934 414.413,351.934 399,382.5C 388.807,402.434 372.473,412.1 350,411.5C 338.909,409.574 328.076,410.407 317.5,414C 313.084,418.564 310.584,424.064 310,430.5C 308.399,443.337 308.565,456.17 310.5,469C 310.543,473.211 308.877,476.545 305.5,479C 244.249,480.659 182.916,480.992 121.5,480C 116.964,478.276 114.631,474.943 114.5,470C 124.331,436.51 132.831,402.677 140,368.5C 141.74,352.869 138.74,338.203 131,324.5C 121.333,309.5 111.667,294.5 102,279.5C 82.9285,247.786 72.4285,213.452 70.5,176.5C 70.5558,150.933 77.7225,127.6 92,106.5C 125.612,60.7726 170.778,35.4393 227.5,30.5 Z M 339.5,84.5 C 353.99,98.1156 364.49,114.449 371,133.5C 379.001,157.509 382.668,182.176 382,207.5C 384.2,212.865 387.034,217.865 390.5,222.5C 359.241,245.422 324.241,258.589 285.5,262C 271.278,255.057 257.278,247.89 243.5,240.5C 257.489,223.184 266.655,203.517 271,181.5C 273.892,167.256 276.225,152.923 278,138.5C 284.388,116.441 298.221,100.941 319.5,92C 326.16,89.173 332.827,86.673 339.5,84.5 Z M 194.5,235.5 C 202.804,241.324 211.138,247.157 219.5,253C 236.867,261.1 254.034,269.6 271,278.5C 265.312,302.582 258.978,326.582 252,350.5C 243.469,333.267 234.302,316.433 224.5,300C 216.577,298.765 208.577,298.098 200.5,298C 197.098,296.6 194.264,294.433 192,291.5C 188.34,278.033 185.506,264.367 183.5,250.5C 184.017,243.112 187.684,238.112 194.5,235.5 Z M 175.5,306.5 C 180.263,310.725 185.596,314.225 191.5,317C 198.607,318.774 205.774,319.941 213,320.5C 224.333,342.5 235.667,364.5 247,386.5C 253.609,394.564 262.109,399.731 272.5,402C 280.42,404.051 288.42,405.717 296.5,407C 293.365,412.064 291.198,417.564 290,423.5C 288.662,435.457 288.162,447.457 288.5,459.5C 238.833,459.5 189.167,459.5 139.5,459.5C 146.957,431.673 153.79,403.673 160,375.5C 162.97,358.434 161.137,341.934 154.5,326C 161.697,319.634 168.697,313.134 175.5,306.5 Z"/></g>
</svg>
