<?xml version="1.0" encoding="UTF-8"?>
<!DOCTYPE svg PUBLIC "-//W3C//DTD SVG 1.1//EN" "http://www.w3.org/Graphics/SVG/1.1/DTD/svg11.dtd">
<svg xmlns="http://www.w3.org/2000/svg" version="1.1" width="100px" height="100px" style="shape-rendering:geometricPrecision; text-rendering:geometricPrecision; image-rendering:optimizeQuality; fill-rule:evenodd; clip-rule:evenodd" xmlns:xlink="http://www.w3.org/1999/xlink">
<g><path style="opacity:0.613" fill="#c0bdb7" d="M 61.5,5.5 C 54.5,6.16667 47.5,6.83333 40.5,7.5C 38.901,7.23219 37.5676,7.56552 36.5,8.5C 35.8333,8.5 35.5,8.83333 35.5,9.5C 34.3473,8.68677 34.3473,7.68677 35.5,6.5C 44.1411,5.50196 52.8078,5.16863 61.5,5.5 Z"/></g>
<g><path style="opacity:0.984" fill="#c5a088" d="M 61.5,5.5 C 64.3091,5.95774 64.9758,7.29107 63.5,9.5C 63.5,8.83333 63.1667,8.5 62.5,8.5C 55.2155,8.5255 47.8822,8.19217 40.5,7.5C 47.5,6.83333 54.5,6.16667 61.5,5.5 Z"/></g>
<g><path style="opacity:1" fill="#fc5302" d="M 40.5,7.5 C 47.8822,8.19217 55.2155,8.5255 62.5,8.5C 62.5,9.16667 62.5,9.83333 62.5,10.5C 60.5,10.5 58.5,10.5 56.5,10.5C 56.5,11.5 56.5,12.5 56.5,13.5C 56.1667,13.5 55.8333,13.5 55.5,13.5C 52.3157,11.5864 48.649,10.9197 44.5,11.5C 42.302,10.9329 39.9686,10.9329 37.5,11.5C 38.4289,16.618 39.7622,21.618 41.5,26.5C 41.5,27.1667 41.8333,27.5 42.5,27.5C 43.2289,31.5158 42.3955,31.5158 40,27.5C 39.2023,24.1069 38.2023,20.7735 37,17.5C 36.5172,18.448 36.3505,19.448 36.5,20.5C 35.5318,22.6074 35.1984,24.9407 35.5,27.5C 35.1667,27.5 34.8333,27.5 34.5,27.5C 34.0222,20.9376 34.6889,14.6043 36.5,8.5C 37.5676,7.56552 38.901,7.23219 40.5,7.5 Z"/></g>
<g><path style="opacity:1" fill="#ffc58c" d="M 44.5,11.5 C 48.649,10.9197 52.3157,11.5864 55.5,13.5C 54.5,13.5 53.5,13.5 52.5,13.5C 49.3019,14.0356 46.6353,13.369 44.5,11.5 Z"/></g>
<g><path style="opacity:1" fill="#fd9f00" d="M 59.5,11.5 C 59.3339,17.1764 59.5006,22.8431 60,28.5C 60.0367,30.9739 60.87,32.9739 62.5,34.5C 62.5,35.1667 62.5,35.8333 62.5,36.5C 61.2223,36.2178 60.2223,35.5511 59.5,34.5C 58.032,33.2209 57.3653,31.5542 57.5,29.5C 56.8363,24.5275 56.5029,19.5275 56.5,14.5C 53.8728,15.0916 51.2062,15.4249 48.5,15.5C 49.8333,14.8333 51.1667,14.1667 52.5,13.5C 53.5,13.5 54.5,13.5 55.5,13.5C 55.8333,13.5 56.1667,13.5 56.5,13.5C 57.2223,12.4489 58.2223,11.7822 59.5,11.5 Z"/></g>
<g><path style="opacity:1" fill="#ff7d00" d="M 44.5,11.5 C 46.6353,13.369 49.3019,14.0356 52.5,13.5C 51.1667,14.1667 49.8333,14.8333 48.5,15.5C 47.0413,15.5674 45.7079,15.2341 44.5,14.5C 43.5416,14.0472 42.7083,13.3805 42,12.5C 42.0205,16.85 42.5205,21.1834 43.5,25.5C 43.0431,26.2975 42.3764,26.6309 41.5,26.5C 39.7622,21.618 38.4289,16.618 37.5,11.5C 39.9686,10.9329 42.302,10.9329 44.5,11.5 Z"/></g>
<g><path style="opacity:1" fill="#ffb903" d="M 44.5,14.5 C 45.7079,15.2341 47.0413,15.5674 48.5,15.5C 51.2062,15.4249 53.8728,15.0916 56.5,14.5C 56.5029,19.5275 56.8363,24.5275 57.5,29.5C 56.3303,27.7215 54.6636,26.7215 52.5,26.5C 52.506,23.4524 51.506,22.9524 49.5,25C 51.915,26.4653 52.915,28.632 52.5,31.5C 52.5983,34.2476 51.5983,34.9143 49.5,33.5C 50.0906,32.8485 50.7573,32.1818 51.5,31.5C 49.3123,25.7192 46.979,20.0525 44.5,14.5 Z"/></g>
<g><path style="opacity:1" fill="#ef8a00" d="M 59.5,11.5 C 61.045,12.2297 61.8784,13.563 62,15.5C 61.8362,22.1195 62.0029,28.4528 62.5,34.5C 60.87,32.9739 60.0367,30.9739 60,28.5C 59.5006,22.8431 59.3339,17.1764 59.5,11.5 Z"/></g>
<g><path style="opacity:1" fill="#dc6e00" d="M 62.5,10.5 C 62.7828,11.2891 63.2828,11.9558 64,12.5C 64.4997,20.1594 64.6664,27.8261 64.5,35.5C 63.8333,35.1667 63.1667,34.8333 62.5,34.5C 62.0029,28.4528 61.8362,22.1195 62,15.5C 61.8784,13.563 61.045,12.2297 59.5,11.5C 58.2223,11.7822 57.2223,12.4489 56.5,13.5C 56.5,12.5 56.5,11.5 56.5,10.5C 58.5,10.5 60.5,10.5 62.5,10.5 Z"/></g>
<g><path style="opacity:1" fill="#ff6500" d="M 44.5,14.5 C 46.979,20.0525 49.3123,25.7192 51.5,31.5C 50.7573,32.1818 50.0906,32.8485 49.5,33.5C 49.5,33.8333 49.5,34.1667 49.5,34.5C 47.8958,33.713 47.2291,32.3797 47.5,30.5C 47.229,26.8695 45.5623,25.8695 42.5,27.5C 41.8333,27.5 41.5,27.1667 41.5,26.5C 42.3764,26.6309 43.0431,26.2975 43.5,25.5C 42.5205,21.1834 42.0205,16.85 42,12.5C 42.7083,13.3805 43.5416,14.0472 44.5,14.5 Z"/></g>
<g><path style="opacity:1" fill="#fe2a00" d="M 36.5,20.5 C 37.1224,24.2829 38.1224,27.9495 39.5,31.5C 39.189,32.4778 38.5223,33.1445 37.5,33.5C 35.9137,31.8273 35.2471,29.8273 35.5,27.5C 35.1984,24.9407 35.5318,22.6074 36.5,20.5 Z"/></g>
<g><path style="opacity:0.61" fill="#ffd3aa" d="M 36.5,8.5 C 34.6889,14.6043 34.0222,20.9376 34.5,27.5C 34.5,30.5 34.5,33.5 34.5,36.5C 34.5,37.1667 34.5,37.8333 34.5,38.5C 34.5,40.8333 34.5,43.1667 34.5,45.5C 34.5,48.8333 34.5,52.1667 34.5,55.5C 34.5,56.8333 34.5,58.1667 34.5,59.5C 34.5,64.1667 34.5,68.8333 34.5,73.5C 34.5,77.1667 34.5,80.8333 34.5,84.5C 34.4326,85.9587 34.7659,87.2921 35.5,88.5C 34.1675,76.0178 33.5008,63.1845 33.5,50C 33.6667,37.1667 33.8333,24.3333 34,11.5C 34.7172,10.9558 35.2172,10.2891 35.5,9.5C 35.5,8.83333 35.8333,8.5 36.5,8.5 Z"/></g>
<g><path style="opacity:1" fill="#ffc328" d="M 57.5,29.5 C 57.3653,31.5542 58.032,33.2209 59.5,34.5C 58.1667,34.5 57.5,35.1667 57.5,36.5C 56.2502,36.4226 55.4169,35.756 55,34.5C 54.6667,34.8333 54.3333,35.1667 54,35.5C 53.79,33.9419 53.29,32.6085 52.5,31.5C 52.915,28.632 51.915,26.4653 49.5,25C 51.506,22.9524 52.506,23.4524 52.5,26.5C 54.6636,26.7215 56.3303,27.7215 57.5,29.5 Z"/></g>
<g><path style="opacity:1" fill="#fe8a00" d="M 42.5,27.5 C 45.5623,25.8695 47.229,26.8695 47.5,30.5C 46.5041,30.5858 45.6708,30.2524 45,29.5C 44.6667,30.8333 44.3333,32.1667 44,33.5C 43.296,31.273 42.1294,30.9397 40.5,32.5C 40.5,31.8333 40.1667,31.5 39.5,31.5C 38.1224,27.9495 37.1224,24.2829 36.5,20.5C 36.3505,19.448 36.5172,18.448 37,17.5C 38.2023,20.7735 39.2023,24.1069 40,27.5C 42.3955,31.5158 43.2289,31.5158 42.5,27.5 Z"/></g>
<g><path style="opacity:1" fill="#ffb335" d="M 47.5,30.5 C 47.2291,32.3797 47.8958,33.713 49.5,34.5C 49.631,35.2389 49.4643,35.9056 49,36.5C 46.9786,33.7138 45.4786,34.0472 44.5,37.5C 42.5331,36.3184 41.1997,36.9851 40.5,39.5C 39.8933,39.3764 39.56,39.0431 39.5,38.5C 39.867,36.5445 40.2004,34.5445 40.5,32.5C 42.1294,30.9397 43.296,31.273 44,33.5C 44.3333,32.1667 44.6667,30.8333 45,29.5C 45.6708,30.2524 46.5041,30.5858 47.5,30.5 Z"/></g>
<g><path style="opacity:1" fill="#b08954" d="M 34.5,38.5 C 34.5,37.8333 34.5,37.1667 34.5,36.5C 35.601,35.2003 36.9343,34.7003 38.5,35C 37.2949,36.3756 35.9616,37.5423 34.5,38.5 Z"/></g>
<g><path style="opacity:1" fill="#f38a1f" d="M 34.5,27.5 C 34.8333,27.5 35.1667,27.5 35.5,27.5C 35.2471,29.8273 35.9137,31.8273 37.5,33.5C 38.5223,33.1445 39.189,32.4778 39.5,31.5C 40.1667,31.5 40.5,31.8333 40.5,32.5C 40.2004,34.5445 39.867,36.5445 39.5,38.5C 40.042,40.3825 39.3753,42.0492 37.5,43.5C 37.5,43.8333 37.5,44.1667 37.5,44.5C 36.8333,44.8333 36.1667,45.1667 35.5,45.5C 35.1667,45.5 34.8333,45.5 34.5,45.5C 34.5,43.1667 34.5,40.8333 34.5,38.5C 35.9616,37.5423 37.2949,36.3756 38.5,35C 36.9343,34.7003 35.601,35.2003 34.5,36.5C 34.5,33.5 34.5,30.5 34.5,27.5 Z"/></g>
<g><path style="opacity:1" fill="#e6cd92" d="M 52.5,31.5 C 53.29,32.6085 53.79,33.9419 54,35.5C 54.3333,35.1667 54.6667,34.8333 55,34.5C 55.4169,35.756 56.2502,36.4226 57.5,36.5C 56.5,37.1667 55.5,37.8333 54.5,38.5C 53.2652,38.2786 52.2652,37.6119 51.5,36.5C 50.1489,40.0129 47.8156,41.0129 44.5,39.5C 43.3044,39.8457 43.3044,40.3457 44.5,41C 41.9398,41.3838 39.6064,42.2171 37.5,43.5C 39.3753,42.0492 40.042,40.3825 39.5,38.5C 39.56,39.0431 39.8933,39.3764 40.5,39.5C 41.1997,36.9851 42.5331,36.3184 44.5,37.5C 45.4786,34.0472 46.9786,33.7138 49,36.5C 49.4643,35.9056 49.631,35.2389 49.5,34.5C 49.5,34.1667 49.5,33.8333 49.5,33.5C 51.5983,34.9143 52.5983,34.2476 52.5,31.5 Z"/></g>
<g><path style="opacity:1" fill="#70ab2d" d="M 54.5,38.5 C 55.675,38.281 56.675,38.6143 57.5,39.5C 57.3764,40.1067 57.0431,40.44 56.5,40.5C 54.3523,40.3894 54.019,41.056 55.5,42.5C 53.428,45.1537 51.7613,44.8204 50.5,41.5C 49.7189,42.7287 49.2189,44.062 49,45.5C 48.6667,45.1667 48.3333,44.8333 48,44.5C 47.6667,45.5 47.3333,46.5 47,47.5C 46.6667,47.1667 46.3333,46.8333 46,46.5C 45.6924,47.3081 45.1924,47.9747 44.5,48.5C 43.5905,46.6253 42.2572,45.292 40.5,44.5C 39.3478,45.625 38.3478,45.625 37.5,44.5C 37.5,44.1667 37.5,43.8333 37.5,43.5C 39.6064,42.2171 41.9398,41.3838 44.5,41C 43.3044,40.3457 43.3044,39.8457 44.5,39.5C 47.8156,41.0129 50.1489,40.0129 51.5,36.5C 52.2652,37.6119 53.2652,38.2786 54.5,38.5 Z"/></g>
<g><path style="opacity:1" fill="#779631" d="M 59.5,34.5 C 60.2223,35.5511 61.2223,36.2178 62.5,36.5C 62.5,36.8333 62.5,37.1667 62.5,37.5C 62.2116,40.1038 60.8783,41.7704 58.5,42.5C 57.2867,42.2528 56.62,41.5862 56.5,40.5C 57.0431,40.44 57.3764,40.1067 57.5,39.5C 56.675,38.6143 55.675,38.281 54.5,38.5C 55.5,37.8333 56.5,37.1667 57.5,36.5C 57.5,35.1667 58.1667,34.5 59.5,34.5 Z"/></g>
<g><path style="opacity:1" fill="#7c7f48" d="M 62.5,37.5 C 63.8434,39.6834 63.51,41.6834 61.5,43.5C 60.8333,43.5 60.1667,43.5 59.5,43.5C 56.911,43.461 54.911,44.461 53.5,46.5C 50.5923,47.2872 47.9256,48.6205 45.5,50.5C 43.5,51.1667 41.5,51.8333 39.5,52.5C 39.5,53.5 39.5,54.5 39.5,55.5C 38.1054,56.8146 37.1054,56.4812 36.5,54.5C 36.5,53.8333 36.5,53.1667 36.5,52.5C 37.2216,52.9175 37.7216,53.5842 38,54.5C 37.5618,51.8014 37.7284,49.1347 38.5,46.5C 39.1667,47.8333 39.8333,49.1667 40.5,50.5C 41.5192,48.5405 41.5192,46.5405 40.5,44.5C 42.2572,45.292 43.5905,46.6253 44.5,48.5C 45.1924,47.9747 45.6924,47.3081 46,46.5C 46.3333,46.8333 46.6667,47.1667 47,47.5C 47.3333,46.5 47.6667,45.5 48,44.5C 48.3333,44.8333 48.6667,45.1667 49,45.5C 49.2189,44.062 49.7189,42.7287 50.5,41.5C 51.7613,44.8204 53.428,45.1537 55.5,42.5C 54.019,41.056 54.3523,40.3894 56.5,40.5C 56.62,41.5862 57.2867,42.2528 58.5,42.5C 60.8783,41.7704 62.2116,40.1038 62.5,37.5 Z"/></g>
<g><path style="opacity:1" fill="#de9123" d="M 62.5,34.5 C 63.1667,34.8333 63.8333,35.1667 64.5,35.5C 64.5,40.5 64.5,45.5 64.5,50.5C 64.1667,50.5 63.8333,50.5 63.5,50.5C 63.6061,47.9214 62.9395,45.588 61.5,43.5C 63.51,41.6834 63.8434,39.6834 62.5,37.5C 62.5,37.1667 62.5,36.8333 62.5,36.5C 62.5,35.8333 62.5,35.1667 62.5,34.5 Z"/></g>
<g><path style="opacity:1" fill="#fb860f" d="M 59.5,43.5 C 59.8583,46.2666 60.525,48.9333 61.5,51.5C 59.9382,51.7329 58.6049,52.3995 57.5,53.5C 57.1583,52.6618 56.4916,52.3284 55.5,52.5C 53.2263,50.8554 53.2263,49.3554 55.5,48C 54.9558,47.2828 54.2891,46.7828 53.5,46.5C 54.911,44.461 56.911,43.461 59.5,43.5 Z"/></g>
<g><path style="opacity:0.675" fill="#feba80" d="M 62.5,8.5 C 63.1667,8.5 63.5,8.83333 63.5,9.5C 63.7828,10.2891 64.2828,10.9558 65,11.5C 65.83,37.0033 65.6634,62.3367 64.5,87.5C 64.5,86.5 64.5,85.5 64.5,84.5C 64.5,81.1667 64.5,77.8333 64.5,74.5C 64.8297,68.1318 64.4963,61.7985 63.5,55.5C 62.7348,56.6119 61.7348,57.2786 60.5,57.5C 60.4326,56.0413 60.7659,54.7079 61.5,53.5C 62.5,53.5 63.5,53.5 64.5,53.5C 64.5,52.5 64.5,51.5 64.5,50.5C 64.5,45.5 64.5,40.5 64.5,35.5C 64.6664,27.8261 64.4997,20.1594 64,12.5C 63.2828,11.9558 62.7828,11.2891 62.5,10.5C 62.5,9.83333 62.5,9.16667 62.5,8.5 Z"/></g>
<g><path style="opacity:1" fill="#eac085" d="M 59.5,43.5 C 60.1667,43.5 60.8333,43.5 61.5,43.5C 62.9395,45.588 63.6061,47.9214 63.5,50.5C 62.8333,50.8333 62.1667,51.1667 61.5,51.5C 60.525,48.9333 59.8583,46.2666 59.5,43.5 Z"/></g>
<g><path style="opacity:1" fill="#42710f" d="M 37.5,44.5 C 38.3478,45.625 39.3478,45.625 40.5,44.5C 41.5192,46.5405 41.5192,48.5405 40.5,50.5C 39.8333,49.1667 39.1667,47.8333 38.5,46.5C 37.7284,49.1347 37.5618,51.8014 38,54.5C 37.7216,53.5842 37.2216,52.9175 36.5,52.5C 36.552,50.0971 36.2186,47.7638 35.5,45.5C 36.1667,45.1667 36.8333,44.8333 37.5,44.5 Z"/></g>
<g><path style="opacity:1" fill="#ff9206" d="M 53.5,46.5 C 54.2891,46.7828 54.9558,47.2828 55.5,48C 53.2263,49.3554 53.2263,50.8554 55.5,52.5C 53.268,54.4012 50.768,54.7345 48,53.5C 46.9701,53.8361 46.4701,54.5028 46.5,55.5C 45.5084,55.6716 44.8417,55.3382 44.5,54.5C 44.4366,53.3395 44.7699,52.0062 45.5,50.5C 47.9256,48.6205 50.5923,47.2872 53.5,46.5 Z"/></g>
<g><path style="opacity:1" fill="#e1a247" d="M 34.5,45.5 C 34.8333,45.5 35.1667,45.5 35.5,45.5C 36.2186,47.7638 36.552,50.0971 36.5,52.5C 36.5,53.1667 36.5,53.8333 36.5,54.5C 35.8333,54.8333 35.1667,55.1667 34.5,55.5C 34.5,52.1667 34.5,48.8333 34.5,45.5 Z"/></g>
<g><path style="opacity:1" fill="#ffbf57" d="M 55.5,52.5 C 56.4916,52.3284 57.1583,52.6618 57.5,53.5C 54.1538,55.3236 50.4872,55.9903 46.5,55.5C 46.4701,54.5028 46.9701,53.8361 48,53.5C 50.768,54.7345 53.268,54.4012 55.5,52.5 Z"/></g>
<g><path style="opacity:1" fill="#ff770a" d="M 63.5,50.5 C 63.8333,50.5 64.1667,50.5 64.5,50.5C 64.5,51.5 64.5,52.5 64.5,53.5C 63.5,53.5 62.5,53.5 61.5,53.5C 57.9204,56.0197 54.2537,58.3531 50.5,60.5C 50.1667,60.5 49.8333,60.5 49.5,60.5C 47.5921,58.976 45.4254,57.6426 43,56.5C 42.1469,54.0524 42.6469,53.3857 44.5,54.5C 44.8417,55.3382 45.5084,55.6716 46.5,55.5C 50.4872,55.9903 54.1538,55.3236 57.5,53.5C 58.6049,52.3995 59.9382,51.7329 61.5,51.5C 62.1667,51.1667 62.8333,50.8333 63.5,50.5 Z"/></g>
<g><path style="opacity:1" fill="#fdd696" d="M 45.5,50.5 C 44.7699,52.0062 44.4366,53.3395 44.5,54.5C 42.6469,53.3857 42.1469,54.0524 43,56.5C 45.4254,57.6426 47.5921,58.976 49.5,60.5C 48.9965,64.3354 47.9965,64.3354 46.5,60.5C 45.8333,60.8333 45.1667,61.1667 44.5,61.5C 43.1454,59.1537 41.4787,57.1537 39.5,55.5C 39.5,54.5 39.5,53.5 39.5,52.5C 41.5,51.8333 43.5,51.1667 45.5,50.5 Z"/></g>
<g><path style="opacity:1" fill="#ff6d01" d="M 64.5,74.5 C 62.7629,77.008 61.9296,80.008 62,83.5C 60.687,84.2871 59.5203,83.9538 58.5,82.5C 58.6741,80.139 59.0074,77.8056 59.5,75.5C 60.5336,74.3129 61.867,73.4796 63.5,73C 61.9238,72.5604 60.5904,71.727 59.5,70.5C 58.8165,70.8627 58.1499,71.1961 57.5,71.5C 57.5,67.5 55.5,65.5 51.5,65.5C 51.5,64.5 51.5,63.5 51.5,62.5C 51.5,62.1667 51.5,61.8333 51.5,61.5C 52.1667,61.1667 52.8333,60.8333 53.5,60.5C 56.4231,61.7523 58.7564,63.7523 60.5,66.5C 63.0989,63.9065 62.7656,62.4065 59.5,62C 61.3588,61.3992 61.6921,60.5659 60.5,59.5C 60.5,58.8333 60.5,58.1667 60.5,57.5C 61.7348,57.2786 62.7348,56.6119 63.5,55.5C 64.4963,61.7985 64.8297,68.1318 64.5,74.5 Z"/></g>
<g><path style="opacity:1" fill="#fdd69a" d="M 61.5,53.5 C 60.7659,54.7079 60.4326,56.0413 60.5,57.5C 60.5,58.1667 60.5,58.8333 60.5,59.5C 57.9506,58.3504 55.6173,58.6838 53.5,60.5C 52.8333,60.8333 52.1667,61.1667 51.5,61.5C 50.8333,61.5 50.5,61.1667 50.5,60.5C 54.2537,58.3531 57.9204,56.0197 61.5,53.5 Z"/></g>
<g><path style="opacity:1" fill="#ffb72c" d="M 60.5,59.5 C 61.6921,60.5659 61.3588,61.3992 59.5,62C 62.7656,62.4065 63.0989,63.9065 60.5,66.5C 58.7564,63.7523 56.4231,61.7523 53.5,60.5C 55.6173,58.6838 57.9506,58.3504 60.5,59.5 Z"/></g>
<g><path style="opacity:1" fill="#ffc12a" d="M 36.5,54.5 C 37.1054,56.4812 38.1054,56.8146 39.5,55.5C 41.4787,57.1537 43.1454,59.1537 44.5,61.5C 45.1667,61.1667 45.8333,60.8333 46.5,60.5C 47.9965,64.3354 48.9965,64.3354 49.5,60.5C 49.8333,60.5 50.1667,60.5 50.5,60.5C 50.5,61.1667 50.8333,61.5 51.5,61.5C 51.5,61.8333 51.5,62.1667 51.5,62.5C 50.5489,63.9187 50.2155,65.5853 50.5,67.5C 48.8656,66.7934 47.5323,65.6268 46.5,64C 44.8659,63.5065 43.1992,63.3398 41.5,63.5C 40.8826,63.6107 40.3826,63.944 40,64.5C 38.4115,62.4095 36.5782,60.7429 34.5,59.5C 34.5,58.1667 34.5,56.8333 34.5,55.5C 35.1667,55.1667 35.8333,54.8333 36.5,54.5 Z"/></g>
<g><path style="opacity:1" fill="#ff9800" d="M 51.5,62.5 C 51.5,63.5 51.5,64.5 51.5,65.5C 55.5,65.5 57.5,67.5 57.5,71.5C 54.7255,70.9395 52.8922,69.2729 52,66.5C 51.6174,67.056 51.1174,67.3893 50.5,67.5C 50.2155,65.5853 50.5489,63.9187 51.5,62.5 Z"/></g>
<g><path style="opacity:1" fill="#ff8a16" d="M 34.5,59.5 C 36.5782,60.7429 38.4115,62.4095 40,64.5C 40.3826,63.944 40.8826,63.6107 41.5,63.5C 41.3924,66.3819 40.2257,68.7153 38,70.5C 37.0853,69.6721 36.4186,68.6721 36,67.5C 35.5045,69.4727 35.3379,71.4727 35.5,73.5C 35.1667,73.5 34.8333,73.5 34.5,73.5C 34.5,68.8333 34.5,64.1667 34.5,59.5 Z"/></g>
<g><path style="opacity:1" fill="#ff7900" d="M 41.5,63.5 C 43.1992,63.3398 44.8659,63.5065 46.5,64C 47.5323,65.6268 48.8656,66.7934 50.5,67.5C 49.1667,69.1667 49.1667,70.8333 50.5,72.5C 48.0065,72.8693 47.3398,72.2027 48.5,70.5C 47.7848,68.4404 46.4514,66.7737 44.5,65.5C 43.5481,67.0453 43.2148,68.712 43.5,70.5C 44.2625,71.2679 45.2625,71.7679 46.5,72C 43.8298,73.8359 42.1631,76.3359 41.5,79.5C 40.9569,79.44 40.6236,79.1067 40.5,78.5C 41.0736,76.9411 41.7402,75.4411 42.5,74C 41.8333,73.3333 41.1667,73.3333 40.5,74C 38.4494,79.8089 36.7827,79.6423 35.5,73.5C 35.3379,71.4727 35.5045,69.4727 36,67.5C 36.4186,68.6721 37.0853,69.6721 38,70.5C 40.2257,68.7153 41.3924,66.3819 41.5,63.5 Z"/></g>
<g><path style="opacity:1" fill="#ffbf00" d="M 48.5,70.5 C 46.8333,70.5 45.1667,70.5 43.5,70.5C 43.2148,68.712 43.5481,67.0453 44.5,65.5C 46.4514,66.7737 47.7848,68.4404 48.5,70.5 Z"/></g>
<g><path style="opacity:1" fill="#ff9600" d="M 43.5,70.5 C 45.1667,70.5 46.8333,70.5 48.5,70.5C 47.3398,72.2027 48.0065,72.8693 50.5,72.5C 50.2964,74.6854 49.6298,76.6854 48.5,78.5C 47.4988,80.6593 47.4988,82.9926 48.5,85.5C 46.7016,84.5371 45.3683,85.2038 44.5,87.5C 43.6143,86.675 43.281,85.675 43.5,84.5C 43.2786,83.2652 42.6119,82.2652 41.5,81.5C 43.9248,80.3507 43.9248,79.684 41.5,79.5C 42.1631,76.3359 43.8298,73.8359 46.5,72C 45.2625,71.7679 44.2625,71.2679 43.5,70.5 Z"/></g>
<g><path style="opacity:1" fill="#ff8400" d="M 59.5,75.5 C 57.9676,77.7815 56.3009,80.1149 54.5,82.5C 53.8333,82.8333 53.1667,83.1667 52.5,83.5C 51.9759,81.6943 51.3092,80.0276 50.5,78.5C 51.1171,76.3198 52.1171,74.3198 53.5,72.5C 55.444,73.8007 57.444,74.8007 59.5,75.5 Z"/></g>
<g><path style="opacity:1" fill="#ff6800" d="M 57.5,71.5 C 58.1499,71.1961 58.8165,70.8627 59.5,70.5C 60.5904,71.727 61.9238,72.5604 63.5,73C 61.867,73.4796 60.5336,74.3129 59.5,75.5C 57.444,74.8007 55.444,73.8007 53.5,72.5C 52.1171,74.3198 51.1171,76.3198 50.5,78.5C 49.8333,78.5 49.1667,78.5 48.5,78.5C 49.6298,76.6854 50.2964,74.6854 50.5,72.5C 49.1667,70.8333 49.1667,69.1667 50.5,67.5C 51.1174,67.3893 51.6174,67.056 52,66.5C 52.8922,69.2729 54.7255,70.9395 57.5,71.5 Z"/></g>
<g><path style="opacity:1" fill="#ffa90f" d="M 34.5,73.5 C 34.8333,73.5 35.1667,73.5 35.5,73.5C 36.7827,79.6423 38.4494,79.8089 40.5,74C 41.1667,73.3333 41.8333,73.3333 42.5,74C 41.7402,75.4411 41.0736,76.9411 40.5,78.5C 40.6236,79.1067 40.9569,79.44 41.5,79.5C 43.9248,79.684 43.9248,80.3507 41.5,81.5C 42.6119,82.2652 43.2786,83.2652 43.5,84.5C 40.9315,84.4057 39.4315,83.0724 39,80.5C 37.583,81.0779 36.7496,82.0779 36.5,83.5C 36.1583,84.3382 35.4916,84.6716 34.5,84.5C 34.5,80.8333 34.5,77.1667 34.5,73.5 Z"/></g>
<g><path style="opacity:1" fill="#ffb400" d="M 59.5,75.5 C 59.0074,77.8056 58.6741,80.139 58.5,82.5C 57.2876,83.2299 56.2876,84.2299 55.5,85.5C 54.6143,84.675 54.281,83.675 54.5,82.5C 56.3009,80.1149 57.9676,77.7815 59.5,75.5 Z"/></g>
<g><path style="opacity:1" fill="#ff9b00" d="M 64.5,74.5 C 64.5,77.8333 64.5,81.1667 64.5,84.5C 60.8038,87.092 56.8038,87.7586 52.5,86.5C 52.5,85.5 52.5,84.5 52.5,83.5C 53.1667,83.1667 53.8333,82.8333 54.5,82.5C 54.281,83.675 54.6143,84.675 55.5,85.5C 56.2876,84.2299 57.2876,83.2299 58.5,82.5C 59.5203,83.9538 60.687,84.2871 62,83.5C 61.9296,80.008 62.7629,77.008 64.5,74.5 Z"/></g>
<g><path style="opacity:1" fill="#ffc800" d="M 48.5,78.5 C 49.1667,78.5 49.8333,78.5 50.5,78.5C 51.3092,80.0276 51.9759,81.6943 52.5,83.5C 52.5,84.5 52.5,85.5 52.5,86.5C 51.0413,86.5674 49.7079,86.2341 48.5,85.5C 47.4988,82.9926 47.4988,80.6593 48.5,78.5 Z"/></g>
<g><path style="opacity:1" fill="#ff9751" d="M 36.5,83.5 C 38.472,84.451 40.472,85.451 42.5,86.5C 41.0777,87.5472 39.5777,87.5472 38,86.5C 36.3167,87.1765 36.1501,88.1765 37.5,89.5C 36.5084,89.6716 35.8417,89.3382 35.5,88.5C 34.7659,87.2921 34.4326,85.9587 34.5,84.5C 35.4916,84.6716 36.1583,84.3382 36.5,83.5 Z"/></g>
<g><path style="opacity:1" fill="#ff770d" d="M 43.5,84.5 C 43.281,85.675 43.6143,86.675 44.5,87.5C 45.3683,85.2038 46.7016,84.5371 48.5,85.5C 49.7079,86.2341 51.0413,86.5674 52.5,86.5C 56.8038,87.7586 60.8038,87.092 64.5,84.5C 64.5,85.5 64.5,86.5 64.5,87.5C 64.1667,88.5 63.5,89.1667 62.5,89.5C 54.1532,92.1209 45.8199,92.1209 37.5,89.5C 36.1501,88.1765 36.3167,87.1765 38,86.5C 39.5777,87.5472 41.0777,87.5472 42.5,86.5C 40.472,85.451 38.472,84.451 36.5,83.5C 36.7496,82.0779 37.583,81.0779 39,80.5C 39.4315,83.0724 40.9315,84.4057 43.5,84.5 Z"/></g>
<g><path style="opacity:0.008" fill="#dbc5b7" d="M 37.5,89.5 C 45.8199,92.1209 54.1532,92.1209 62.5,89.5C 61.7701,90.7124 60.7701,91.7124 59.5,92.5C 53.1928,93.6639 46.8595,93.8306 40.5,93C 39.2899,91.9609 38.2899,90.7942 37.5,89.5 Z"/></g>
</svg>
