<?xml version="1.0" encoding="UTF-8"?>
<!DOCTYPE svg PUBLIC "-//W3C//DTD SVG 1.1//EN" "http://www.w3.org/Graphics/SVG/1.1/DTD/svg11.dtd">
<svg xmlns="http://www.w3.org/2000/svg" version="1.1" width="100px" height="100px" style="shape-rendering:geometricPrecision; text-rendering:geometricPrecision; image-rendering:optimizeQuality; fill-rule:evenodd; clip-rule:evenodd" xmlns:xlink="http://www.w3.org/1999/xlink">
<g><path style="opacity:0.924" fill="#389541" d="M 56.5,1.5 C 57.8062,2.46739 58.4729,3.80072 58.5,5.5C 52.5,5.5 46.5,5.5 40.5,5.5C 40.5,4.5 40.5,3.5 40.5,2.5C 45.6405,1.51192 50.9738,1.17859 56.5,1.5 Z"/></g>
<g><path style="opacity:0.978" fill="#faf5e0" d="M 56.5,1.5 C 59.462,1.11673 60.462,2.11673 59.5,4.5C 61.7427,5.47423 64.076,5.80756 66.5,5.5C 66.5,9.16667 66.5,12.8333 66.5,16.5C 61.0033,15.534 55.67,15.534 50.5,16.5C 49.8333,16.5 49.1667,16.5 48.5,16.5C 44.8956,15.3485 41.229,14.3485 37.5,13.5C 36.5836,13.5427 35.9169,13.8761 35.5,14.5C 34.391,14.5569 33.391,14.8902 32.5,15.5C 32.5,12.1667 32.5,8.83333 32.5,5.5C 34.8333,5.5 37.1667,5.5 39.5,5.5C 39.2627,4.20895 39.596,3.20895 40.5,2.5C 40.5,3.5 40.5,4.5 40.5,5.5C 46.5,5.5 52.5,5.5 58.5,5.5C 58.4729,3.80072 57.8062,2.46739 56.5,1.5 Z"/></g>
<g><path style="opacity:1" fill="#f1e40f" d="M 35.5,14.5 C 35.9169,13.8761 36.5836,13.5427 37.5,13.5C 41.229,14.3485 44.8956,15.3485 48.5,16.5C 47.2196,17.9313 45.5529,18.5979 43.5,18.5C 41.5,18.5 39.5,18.5 37.5,18.5C 38.2341,17.2921 38.5674,15.9587 38.5,14.5C 37.5,14.5 36.5,14.5 35.5,14.5 Z"/></g>
<g><path style="opacity:1" fill="#9cc104" d="M 35.5,14.5 C 36.5,14.5 37.5,14.5 38.5,14.5C 38.5674,15.9587 38.2341,17.2921 37.5,18.5C 35.8333,18.5 34.1667,18.5 32.5,18.5C 32.5,17.5 32.5,16.5 32.5,15.5C 33.391,14.8902 34.391,14.5569 35.5,14.5 Z"/></g>
<g><path style="opacity:1" fill="#9ac400" d="M 48.5,16.5 C 49.1667,16.5 49.8333,16.5 50.5,16.5C 53.2469,16.1866 55.9135,16.52 58.5,17.5C 59.4669,18.984 60.8002,19.984 62.5,20.5C 57.4157,20.6309 52.0823,20.6309 46.5,20.5C 46.1667,20.5 45.8333,20.5 45.5,20.5C 44.8333,19.8333 44.1667,19.1667 43.5,18.5C 45.5529,18.5979 47.2196,17.9313 48.5,16.5 Z"/></g>
<g><path style="opacity:1" fill="#e6e22a" d="M 50.5,16.5 C 55.67,15.534 61.0033,15.534 66.5,16.5C 66.5,17.5 66.5,18.5 66.5,19.5C 65.1667,19.8333 63.8333,20.1667 62.5,20.5C 60.8002,19.984 59.4669,18.984 58.5,17.5C 55.9135,16.52 53.2469,16.1866 50.5,16.5 Z"/></g>
<g><path style="opacity:1" fill="#0ea00a" d="M 32.5,18.5 C 34.1667,18.5 35.8333,18.5 37.5,18.5C 39.5,18.5 41.5,18.5 43.5,18.5C 44.1667,19.1667 44.8333,19.8333 45.5,20.5C 40.6841,19.8392 36.3508,20.8392 32.5,23.5C 32.5,21.8333 32.5,20.1667 32.5,18.5 Z"/></g>
<g><path style="opacity:1" fill="#27a013" d="M 66.5,19.5 C 66.5,21.1667 66.5,22.8333 66.5,24.5C 64.6916,24.4914 63.0249,24.9914 61.5,26C 62.9423,26.3768 63.9423,27.2101 64.5,28.5C 61.1563,27.4925 57.8229,26.4925 54.5,25.5C 54.1583,24.6618 53.4916,24.3284 52.5,24.5C 46.9075,24.2566 41.5742,25.2566 36.5,27.5C 40.4465,25.0096 44.7798,23.1762 49.5,22C 48.2625,21.7679 47.2625,21.2679 46.5,20.5C 52.0823,20.6309 57.4157,20.6309 62.5,20.5C 63.8333,20.1667 65.1667,19.8333 66.5,19.5 Z"/></g>
<g><path style="opacity:1" fill="#046e31" d="M 45.5,20.5 C 45.8333,20.5 46.1667,20.5 46.5,20.5C 47.2625,21.2679 48.2625,21.7679 49.5,22C 44.7798,23.1762 40.4465,25.0096 36.5,27.5C 35.4863,28.6737 34.153,29.3404 32.5,29.5C 32.5,27.5 32.5,25.5 32.5,23.5C 36.3508,20.8392 40.6841,19.8392 45.5,20.5 Z"/></g>
<g><path style="opacity:1" fill="#046c32" d="M 66.5,24.5 C 66.5,26.1667 66.5,27.8333 66.5,29.5C 65.5084,29.6716 64.8417,29.3382 64.5,28.5C 63.9423,27.2101 62.9423,26.3768 61.5,26C 63.0249,24.9914 64.6916,24.4914 66.5,24.5 Z"/></g>
<g><path style="opacity:1" fill="#fade89" d="M 52.5,24.5 C 53.4916,24.3284 54.1583,24.6618 54.5,25.5C 52.0144,26.4616 52.0144,27.2949 54.5,28C 53.944,28.3826 53.6107,28.8826 53.5,29.5C 51.8086,31.0124 49.8086,32.0124 47.5,32.5C 46.791,31.596 45.791,31.2627 44.5,31.5C 44.3433,30.1266 44.51,28.7932 45,27.5C 45.3333,27.8333 45.6667,28.1667 46,28.5C 46.8333,27.5 47.6667,26.5 48.5,25.5C 50.3284,28.056 51.6618,27.7226 52.5,24.5 Z"/></g>
<g><path style="opacity:1" fill="#f9f4ef" d="M 52.5,24.5 C 51.6618,27.7226 50.3284,28.056 48.5,25.5C 47.6667,26.5 46.8333,27.5 46,28.5C 45.6667,28.1667 45.3333,27.8333 45,27.5C 44.51,28.7932 44.3433,30.1266 44.5,31.5C 43.209,31.2627 42.209,31.596 41.5,32.5C 40.596,31.791 40.2627,30.791 40.5,29.5C 36.3954,29.4962 34.8954,31.4962 36,35.5C 36.6667,34.1667 37.3333,32.8333 38,31.5C 38.2163,33.3839 38.883,35.0506 40,36.5C 41.7507,35.1912 43.2507,35.5245 44.5,37.5C 46.4268,36.1376 48.4268,35.1376 50.5,34.5C 54.0641,35.4227 57.7307,35.756 61.5,35.5C 65.0562,35.7251 65.3895,34.8918 62.5,33C 64.1466,30.4416 63.8133,29.6083 61.5,30.5C 60.5178,31.1408 59.5178,31.8075 58.5,32.5C 56.7988,31.4457 55.1321,30.4457 53.5,29.5C 53.6107,28.8826 53.944,28.3826 54.5,28C 52.0144,27.2949 52.0144,26.4616 54.5,25.5C 57.8229,26.4925 61.1563,27.4925 64.5,28.5C 64.8417,29.3382 65.5084,29.6716 66.5,29.5C 66.5,31.5 66.5,33.5 66.5,35.5C 58.0962,41.1887 49.0962,42.522 39.5,39.5C 37.3649,37.9291 35.0316,36.5957 32.5,35.5C 32.5,33.5 32.5,31.5 32.5,29.5C 34.153,29.3404 35.4863,28.6737 36.5,27.5C 41.5742,25.2566 46.9075,24.2566 52.5,24.5 Z"/></g>
<g><path style="opacity:1" fill="#f12435" d="M 41.5,32.5 C 41.7208,35.0972 42.2208,35.0972 43,32.5C 43.6667,35.1667 44.3333,35.1667 45,32.5C 45.3333,33.1667 45.6667,33.8333 46,34.5C 46.2784,33.5842 46.7784,32.9175 47.5,32.5C 47.9731,33.9063 48.9731,34.573 50.5,34.5C 48.4268,35.1376 46.4268,36.1376 44.5,37.5C 43.2507,35.5245 41.7507,35.1912 40,36.5C 38.883,35.0506 38.2163,33.3839 38,31.5C 37.3333,32.8333 36.6667,34.1667 36,35.5C 34.8954,31.4962 36.3954,29.4962 40.5,29.5C 40.2627,30.791 40.596,31.791 41.5,32.5 Z"/></g>
<g><path style="opacity:1" fill="#f6565c" d="M 53.5,29.5 C 55.1321,30.4457 56.7988,31.4457 58.5,32.5C 59.5178,31.8075 60.5178,31.1408 61.5,30.5C 61.5,32.1667 61.5,33.8333 61.5,35.5C 57.7307,35.756 54.0641,35.4227 50.5,34.5C 48.9731,34.573 47.9731,33.9063 47.5,32.5C 49.8086,32.0124 51.8086,31.0124 53.5,29.5 Z"/></g>
<g><path style="opacity:1" fill="#f99599" d="M 44.5,31.5 C 45.791,31.2627 46.791,31.596 47.5,32.5C 46.7784,32.9175 46.2784,33.5842 46,34.5C 45.6667,33.8333 45.3333,33.1667 45,32.5C 44.3333,35.1667 43.6667,35.1667 43,32.5C 42.2208,35.0972 41.7208,35.0972 41.5,32.5C 42.209,31.596 43.209,31.2627 44.5,31.5 Z"/></g>
<g><path style="opacity:1" fill="#f21322" d="M 61.5,35.5 C 61.5,33.8333 61.5,32.1667 61.5,30.5C 63.8133,29.6083 64.1466,30.4416 62.5,33C 65.3895,34.8918 65.0562,35.7251 61.5,35.5 Z"/></g>
<g><path style="opacity:1" fill="#fdf2df" d="M 39.5,39.5 C 42.3731,41.6771 45.7064,42.6771 49.5,42.5C 54.7299,41.9781 59.7299,40.6448 64.5,38.5C 64.1929,48.6762 62.6929,58.6762 60,68.5C 59.7216,67.5842 59.2216,66.9175 58.5,66.5C 58.5,65.8333 58.5,65.1667 58.5,64.5C 58.5,63.5 58.5,62.5 58.5,61.5C 58.5,61.1667 58.5,60.8333 58.5,60.5C 58.5386,59.2438 58.0386,58.2438 57,57.5C 54.3787,57.7036 51.5453,57.7036 48.5,57.5C 47.8333,58.5 47.1667,59.5 46.5,60.5C 46.5,59.5 46.5,58.5 46.5,57.5C 44.5,57.5 42.5,57.5 40.5,57.5C 40.5,58.5 40.5,59.5 40.5,60.5C 40.5,60.8333 40.5,61.1667 40.5,61.5C 40.5,63.5 40.5,65.5 40.5,67.5C 39.1667,67.5 37.8333,67.5 36.5,67.5C 34.4245,57.9101 34.0912,48.2435 35.5,38.5C 36.7362,39.2458 38.0695,39.5792 39.5,39.5 Z"/></g>
<g><path style="opacity:1" fill="#a1cc58" d="M 66.5,35.5 C 66.5,36.1667 66.5,36.8333 66.5,37.5C 65.5084,37.3284 64.8417,37.6618 64.5,38.5C 59.7299,40.6448 54.7299,41.9781 49.5,42.5C 45.7064,42.6771 42.3731,41.6771 39.5,39.5C 49.0962,42.522 58.0962,41.1887 66.5,35.5 Z"/></g>
<g><path style="opacity:1" fill="#f85261" d="M 44.5,48.5 C 45.7498,48.5774 46.5831,49.244 47,50.5C 47.3879,49.572 48.0546,48.9054 49,48.5C 52.0648,48.4537 55.2315,48.787 58.5,49.5C 57.9747,50.1924 57.3081,50.6924 56.5,51C 57.7111,52.1131 57.7111,53.2798 56.5,54.5C 59.1306,56.0046 58.7973,56.6713 55.5,56.5C 55.4733,48.6064 54.8066,48.6064 53.5,56.5C 52.6922,54.5767 52.1922,52.5767 52,50.5C 50.4412,52.2166 49.6079,54.2166 49.5,56.5C 46.6537,55.9054 43.6537,55.9054 40.5,56.5C 40.3367,54.1432 40.5034,51.8098 41,49.5C 41.4955,51.4727 41.6621,53.4727 41.5,55.5C 42.5,55.5 43.5,55.5 44.5,55.5C 44.5,53.1667 44.5,50.8333 44.5,48.5 Z"/></g>
<g><path style="opacity:1" fill="#f14f63" d="M 46.5,60.5 C 44.7033,60.0651 42.7033,60.0651 40.5,60.5C 40.5,59.5 40.5,58.5 40.5,57.5C 42.5,57.5 44.5,57.5 46.5,57.5C 46.5,58.5 46.5,59.5 46.5,60.5 Z"/></g>
<g><path style="opacity:1" fill="#f25c6b" d="M 48.5,57.5 C 51.5453,57.7036 54.3787,57.7036 57,57.5C 58.0386,58.2438 58.5386,59.2438 58.5,60.5C 55.1212,60.3218 51.9546,60.3218 49,60.5C 48.5172,59.552 48.3505,58.552 48.5,57.5 Z"/></g>
<g><path style="opacity:1" fill="#f6b9b0" d="M 48.5,57.5 C 48.3505,58.552 48.5172,59.552 49,60.5C 51.9546,60.3218 55.1212,60.3218 58.5,60.5C 58.5,60.8333 58.5,61.1667 58.5,61.5C 56.8762,61.3601 55.7096,62.0267 55,63.5C 53.6667,60.8333 52.3333,60.8333 51,63.5C 50,60.8333 49,60.8333 48,63.5C 45.8938,61.709 43.3938,61.0423 40.5,61.5C 40.5,61.1667 40.5,60.8333 40.5,60.5C 42.7033,60.0651 44.7033,60.0651 46.5,60.5C 47.1667,59.5 47.8333,58.5 48.5,57.5 Z"/></g>
<g><path style="opacity:1" fill="#faf1dd" d="M 66.5,37.5 C 66.5,45.5 66.5,53.5 66.5,61.5C 63.369,66.357 61.0357,71.6903 59.5,77.5C 59.0431,78.2975 58.3764,78.6309 57.5,78.5C 56.5727,74.4124 54.2394,71.9124 50.5,71C 51.6956,71.6543 51.6956,72.1543 50.5,72.5C 48.556,71.1993 46.556,70.1993 44.5,69.5C 49.3633,69.8195 54.03,69.4861 58.5,68.5C 58.5,67.8333 58.5,67.1667 58.5,66.5C 59.2216,66.9175 59.7216,67.5842 60,68.5C 62.6929,58.6762 64.1929,48.6762 64.5,38.5C 64.8417,37.6618 65.5084,37.3284 66.5,37.5 Z"/></g>
<g><path style="opacity:1" fill="#f58186" d="M 40.5,61.5 C 43.3938,61.0423 45.8938,61.709 48,63.5C 49,60.8333 50,60.8333 51,63.5C 52.3333,60.8333 53.6667,60.8333 55,63.5C 55.7096,62.0267 56.8762,61.3601 58.5,61.5C 58.5,62.5 58.5,63.5 58.5,64.5C 56.4727,64.3379 54.4727,64.5045 52.5,65C 57.2685,65.9094 57.4352,66.7427 53,67.5C 51.8333,67.1667 50.6667,66.8333 49.5,66.5C 50.0253,65.8076 50.6919,65.3076 51.5,65C 46.8849,63.6858 45.8849,64.6858 48.5,68C 51.8168,68.4983 55.1501,68.665 58.5,68.5C 54.03,69.4861 49.3633,69.8195 44.5,69.5C 42.901,69.7678 41.5676,69.4345 40.5,68.5C 40.5,68.1667 40.5,67.8333 40.5,67.5C 40.5,65.5 40.5,63.5 40.5,61.5 Z"/></g>
<g><path style="opacity:1" fill="#f11943" d="M 58.5,64.5 C 58.5,65.1667 58.5,65.8333 58.5,66.5C 58.5,67.1667 58.5,67.8333 58.5,68.5C 55.1501,68.665 51.8168,68.4983 48.5,68C 45.8849,64.6858 46.8849,63.6858 51.5,65C 50.6919,65.3076 50.0253,65.8076 49.5,66.5C 50.6667,66.8333 51.8333,67.1667 53,67.5C 57.4352,66.7427 57.2685,65.9094 52.5,65C 54.4727,64.5045 56.4727,64.3379 58.5,64.5 Z"/></g>
<g><path style="opacity:1" fill="#eee0c5" d="M 40.5,68.5 C 41.5676,69.4345 42.901,69.7678 44.5,69.5C 46.556,70.1993 48.556,71.1993 50.5,72.5C 51.6956,72.1543 51.6956,71.6543 50.5,71C 54.2394,71.9124 56.5727,74.4124 57.5,78.5C 59.6559,86.7142 56.9892,92.7142 49.5,96.5C 49.6107,95.8826 49.944,95.3826 50.5,95C 49.0494,95.2626 47.7161,95.0959 46.5,94.5C 47.9448,92.9373 49.6115,91.604 51.5,90.5C 52.7952,88.6721 53.7952,86.6721 54.5,84.5C 55.2508,85.376 55.7508,86.376 56,87.5C 56.8372,83.7054 56.5039,80.0387 55,76.5C 54.6667,77.5 54.3333,78.5 54,79.5C 52.627,76.4392 50.4603,74.6059 47.5,74C 49.3079,75.4934 49.3079,77.3267 47.5,79.5C 47.2854,83.0175 48.1187,83.3509 50,80.5C 50.7724,81.8491 51.9391,82.6824 53.5,83C 52.8333,84.3333 51.8333,85.3333 50.5,86C 51.9023,87.3425 51.5689,88.1758 49.5,88.5C 48.1331,87.7745 46.7997,87.1079 45.5,86.5C 44.2438,86.5386 43.2438,86.0386 42.5,85C 43.4239,84.15 43.4239,83.15 42.5,82C 43.0223,81.0497 43.689,80.2164 44.5,79.5C 43.8333,78.5 43.1667,77.5 42.5,76.5C 46.6164,73.9256 46.4497,73.259 42,74.5C 40.6898,75.1301 39.8565,76.1301 39.5,77.5C 38.7063,80.1519 38.0396,79.9852 37.5,77C 37.7549,75.6739 38.4216,74.6739 39.5,74C 38.8333,73.6667 38.1667,73.3333 37.5,73C 38.6226,71.9563 39.9559,71.2896 41.5,71C 39.6928,69.7637 37.6928,69.4303 35.5,70C 37.0249,68.9914 38.6916,68.4914 40.5,68.5 Z"/></g>
<g><path style="opacity:1" fill="#e9dfc7" d="M 32.5,35.5 C 35.0316,36.5957 37.3649,37.9291 39.5,39.5C 38.0695,39.5792 36.7362,39.2458 35.5,38.5C 34.0912,48.2435 34.4245,57.9101 36.5,67.5C 37.8333,67.5 39.1667,67.5 40.5,67.5C 40.5,67.8333 40.5,68.1667 40.5,68.5C 38.6916,68.4914 37.0249,68.9914 35.5,70C 37.6928,69.4303 39.6928,69.7637 41.5,71C 39.9559,71.2896 38.6226,71.9563 37.5,73C 38.1667,73.3333 38.8333,73.6667 39.5,74C 38.4216,74.6739 37.7549,75.6739 37.5,77C 38.0396,79.9852 38.7063,80.1519 39.5,77.5C 40.6225,79.2884 40.7891,81.2884 40,83.5C 39.586,83.9574 39.086,84.2907 38.5,84.5C 37.8869,83.0202 37.5536,81.6869 37.5,80.5C 36.2011,81.09 35.3678,82.09 35,83.5C 33.0845,80.9473 33.2511,78.4473 35.5,76C 34.3094,75.3021 33.3094,74.4687 32.5,73.5C 32.5,60.8333 32.5,48.1667 32.5,35.5 Z"/></g>
<g><path style="opacity:1" fill="#d9c3a5" d="M 32.5,73.5 C 33.3094,74.4687 34.3094,75.3021 35.5,76C 33.2511,78.4473 33.0845,80.9473 35,83.5C 35.3678,82.09 36.2011,81.09 37.5,80.5C 37.5536,81.6869 37.8869,83.0202 38.5,84.5C 39.086,84.2907 39.586,83.9574 40,83.5C 40.7891,81.2884 40.6225,79.2884 39.5,77.5C 39.8565,76.1301 40.6898,75.1301 42,74.5C 46.4497,73.259 46.6164,73.9256 42.5,76.5C 43.1667,77.5 43.8333,78.5 44.5,79.5C 43.689,80.2164 43.0223,81.0497 42.5,82C 43.4239,83.15 43.4239,84.15 42.5,85C 43.2438,86.0386 44.2438,86.5386 45.5,86.5C 45.5394,87.5832 45.8728,88.5832 46.5,89.5C 42.5,90.3333 38.5,91.1667 34.5,92C 37.6887,92.9808 38.022,94.3141 35.5,96C 36.056,96.3826 36.3893,96.8826 36.5,97.5C 35.1667,97.5 33.8333,97.5 32.5,97.5C 32.5,89.5 32.5,81.5 32.5,73.5 Z"/></g>
<g><path style="opacity:1" fill="#f1e6cc" d="M 49.5,96.5 C 49.5,96.8333 49.5,97.1667 49.5,97.5C 45.1667,97.5 40.8333,97.5 36.5,97.5C 36.3893,96.8826 36.056,96.3826 35.5,96C 38.022,94.3141 37.6887,92.9808 34.5,92C 38.5,91.1667 42.5,90.3333 46.5,89.5C 45.8728,88.5832 45.5394,87.5832 45.5,86.5C 46.7997,87.1079 48.1331,87.7745 49.5,88.5C 51.5689,88.1758 51.9023,87.3425 50.5,86C 51.8333,85.3333 52.8333,84.3333 53.5,83C 51.9391,82.6824 50.7724,81.8491 50,80.5C 48.1187,83.3509 47.2854,83.0175 47.5,79.5C 49.3079,77.3267 49.3079,75.4934 47.5,74C 50.4603,74.6059 52.627,76.4392 54,79.5C 54.3333,78.5 54.6667,77.5 55,76.5C 56.5039,80.0387 56.8372,83.7054 56,87.5C 55.7508,86.376 55.2508,85.376 54.5,84.5C 53.7952,86.6721 52.7952,88.6721 51.5,90.5C 49.6115,91.604 47.9448,92.9373 46.5,94.5C 47.7161,95.0959 49.0494,95.2626 50.5,95C 49.944,95.3826 49.6107,95.8826 49.5,96.5 Z"/></g>
<g><path style="opacity:1" fill="#eae0cc" d="M 66.5,61.5 C 66.5,73.5 66.5,85.5 66.5,97.5C 60.8333,97.5 55.1667,97.5 49.5,97.5C 49.5,97.1667 49.5,96.8333 49.5,96.5C 56.9892,92.7142 59.6559,86.7142 57.5,78.5C 58.3764,78.6309 59.0431,78.2975 59.5,77.5C 61.0357,71.6903 63.369,66.357 66.5,61.5 Z"/></g>
<g><path style="opacity:1" fill="#d77072" d="M 61.5,91.5 C 62.5,91.5 63.5,91.5 64.5,91.5C 64.33,92.8221 64.6634,93.9887 65.5,95C 64.2068,95.49 62.8734,95.6567 61.5,95.5C 61.5,94.1667 61.5,92.8333 61.5,91.5 Z"/></g>
</svg>
