<?xml version="1.0" encoding="UTF-8"?>
<!DOCTYPE svg PUBLIC "-//W3C//DTD SVG 1.1//EN" "http://www.w3.org/Graphics/SVG/1.1/DTD/svg11.dtd">
<svg xmlns="http://www.w3.org/2000/svg" version="1.1" width="512px" height="512px" style="shape-rendering:geometricPrecision; text-rendering:geometricPrecision; image-rendering:optimizeQuality; fill-rule:evenodd; clip-rule:evenodd" xmlns:xlink="http://www.w3.org/1999/xlink">
<g><path style="opacity:0.992" fill="#000000" d="M 124.5,-0.5 C 211.833,-0.5 299.167,-0.5 386.5,-0.5C 385.058,169.485 384.058,339.485 383.5,509.5C 351.5,509.5 319.5,509.5 287.5,509.5C 285.952,425.31 281.119,341.31 273,257.5C 269.934,226.102 264.6,195.102 257,164.5C 255.393,159.012 253.393,153.678 251,148.5C 235.919,245.903 225.585,343.903 220,442.5C 218.856,465.486 218.356,488.486 218.5,511.5C 188.167,511.5 157.833,511.5 127.5,511.5C 126.926,340.816 125.926,170.149 124.5,-0.5 Z"/></g>
</svg>
