<?xml version="1.0" encoding="UTF-8"?>
<!DOCTYPE svg PUBLIC "-//W3C//DTD SVG 1.1//EN" "http://www.w3.org/Graphics/SVG/1.1/DTD/svg11.dtd">
<svg xmlns="http://www.w3.org/2000/svg" version="1.1" width="512px" height="512px" style="shape-rendering:geometricPrecision; text-rendering:geometricPrecision; image-rendering:optimizeQuality; fill-rule:evenodd; clip-rule:evenodd" xmlns:xlink="http://www.w3.org/1999/xlink">
<g><path style="opacity:0.985" fill="#000000" d="M 511.5,220.5 C 511.5,221.5 511.5,222.5 511.5,223.5C 501.741,212.908 490.408,204.408 477.5,198C 474.519,196.836 471.519,196.169 468.5,196C 482.557,211.931 493.724,229.764 502,249.5C 506.459,259.837 507.792,270.503 506,281.5C 482.337,315.826 463.67,352.826 450,392.5C 446.307,413.965 441.974,435.298 437,456.5C 435.611,460.944 433.944,465.277 432,469.5C 430.261,471.741 428.094,473.408 425.5,474.5C 424.522,474.023 423.689,473.357 423,472.5C 421.528,468.277 420.528,463.943 420,459.5C 415.407,402.191 414.573,344.858 417.5,287.5C 416.184,282.35 413.184,278.517 408.5,276C 390.895,266.023 372.229,259.023 352.5,255C 365.712,263.878 376.545,275.045 385,288.5C 390.925,298.808 391.925,309.474 388,320.5C 382.936,305.459 374.103,293.293 361.5,284C 359.553,283.009 357.553,282.675 355.5,283C 365.371,302.612 372.871,323.112 378,344.5C 380.542,354.443 379.876,364.11 376,373.5C 374.649,375.019 373.149,376.352 371.5,377.5C 367.587,358.517 362.42,339.851 356,321.5C 338.286,279.471 306.786,254.971 261.5,248C 224.098,245.343 187.765,250.343 152.5,263C 129.621,268.453 106.621,268.953 83.5,264.5C 85.1148,275.241 87.1148,285.907 89.5,296.5C 88.21,297.408 86.8767,297.241 85.5,296C 81,292.167 76.5,288.333 72,284.5C 70.1287,291.218 68.6287,298.051 67.5,305C 74.1358,315.234 77.3024,326.401 77,338.5C 73.312,333.312 68.812,328.978 63.5,325.5C 63.1667,325.833 62.8333,326.167 62.5,326.5C 67.3481,333.681 68.5148,341.348 66,349.5C 63.1052,343.303 58.2719,340.636 51.5,341.5C 51.6666,370.502 51.5,399.502 51,428.5C 50.4861,436.18 49.8195,443.847 49,451.5C 48.4894,456.395 46.9894,460.895 44.5,465C 40.984,464.851 38.484,463.017 37,459.5C 28.7024,441.315 23.0357,422.315 20,402.5C 12.3506,351.796 5.51725,301.129 -0.5,250.5C -0.5,241.5 -0.5,232.5 -0.5,223.5C 8.85425,201.147 24.8542,185.48 47.5,176.5C 39.1729,163.619 40.5063,151.786 51.5,141C 58.2755,136.279 65.6089,132.612 73.5,130C 91.8914,115.796 111.891,104.13 133.5,95C 163.321,82.7266 193.988,73.0599 225.5,66C 221.557,63.1956 217.223,61.1956 212.5,60C 204.572,57.6847 196.572,55.6847 188.5,54C 189.5,52.3333 190.833,51 192.5,50C 197.5,49.3333 202.5,49.3333 207.5,50C 217.798,52.8353 227.798,56.1686 237.5,60C 227.261,50.6117 215.594,43.445 202.5,38.5C 203.688,37.16 205.188,36.4934 207,36.5C 211.275,37.2772 215.442,38.4438 219.5,40C 242.822,51.3268 266.822,60.9935 291.5,69C 314.43,74.9197 337.43,80.5863 360.5,86C 371.056,88.4466 380.723,92.7799 389.5,99C 397.622,106.684 401.455,116.184 401,127.5C 401.707,129.081 402.54,130.581 403.5,132C 445.027,141.236 477.527,163.402 501,198.5C 504.82,205.803 508.32,213.136 511.5,220.5 Z"/></g>
</svg>
