<?xml version="1.0" encoding="UTF-8"?>
<!DOCTYPE svg PUBLIC "-//W3C//DTD SVG 1.1//EN" "http://www.w3.org/Graphics/SVG/1.1/DTD/svg11.dtd">
<svg xmlns="http://www.w3.org/2000/svg" version="1.1" width="100px" height="100px" style="shape-rendering:geometricPrecision; text-rendering:geometricPrecision; image-rendering:optimizeQuality; fill-rule:evenodd; clip-rule:evenodd" xmlns:xlink="http://www.w3.org/1999/xlink">
<g><path style="opacity:1" fill="#5d201f" d="M 50.5,8.5 C 49.7784,8.91753 49.2784,9.5842 49,10.5C 48.6667,10.1667 48.3333,9.83333 48,9.5C 47.5172,10.448 47.3505,11.448 47.5,12.5C 46.6059,10.6915 45.6059,8.85817 44.5,7C 47.2956,3.54783 49.2956,4.04783 50.5,8.5 Z"/></g>
<g><path style="opacity:0.839" fill="#702812" d="M 50.5,8.5 C 51.339,9.64115 52.0057,10.9745 52.5,12.5C 52.3764,13.1067 52.0431,13.44 51.5,13.5C 51.0954,12.4502 50.4288,12.4502 49.5,13.5C 48.8302,15.2914 48.1635,16.9581 47.5,18.5C 47.5,16.5 47.5,14.5 47.5,12.5C 47.3505,11.448 47.5172,10.448 48,9.5C 48.3333,9.83333 48.6667,10.1667 49,10.5C 49.2784,9.5842 49.7784,8.91753 50.5,8.5 Z"/></g>
<g><path style="opacity:1" fill="#a84917" d="M 51.5,13.5 C 51.5,13.8333 51.5,14.1667 51.5,14.5C 50.5318,16.6074 50.1984,18.9407 50.5,21.5C 50.5,22.1667 50.1667,22.5 49.5,22.5C 49.1667,22.5 48.8333,22.5 48.5,22.5C 47.8973,21.3652 47.5639,20.3652 47.5,19.5C 47.5,19.1667 47.5,18.8333 47.5,18.5C 48.1635,16.9581 48.8302,15.2914 49.5,13.5C 50.4288,12.4502 51.0954,12.4502 51.5,13.5 Z"/></g>
<g><path style="opacity:1" fill="#c27d1b" d="M 51.5,14.5 C 52.038,16.1172 52.3713,17.7839 52.5,19.5C 51.6618,19.8417 51.3284,20.5084 51.5,21.5C 51.1667,21.5 50.8333,21.5 50.5,21.5C 50.1984,18.9407 50.5318,16.6074 51.5,14.5 Z"/></g>
<g><path style="opacity:1" fill="#efbf54" d="M 56.5,19.5 C 56.4431,20.609 56.1098,21.609 55.5,22.5C 54.2921,21.7659 52.9587,21.4326 51.5,21.5C 51.3284,20.5084 51.6618,19.8417 52.5,19.5C 53.8333,18.1667 55.1667,18.1667 56.5,19.5 Z"/></g>
<g><path style="opacity:1" fill="#fef2c5" d="M 56.5,19.5 C 58.1667,20.5 59.5,21.8333 60.5,23.5C 60.719,24.675 60.3857,25.675 59.5,26.5C 58.4787,24.812 57.1454,23.4787 55.5,22.5C 56.1098,21.609 56.4431,20.609 56.5,19.5 Z"/></g>
<g><path style="opacity:1" fill="#ebc125" d="M 50.5,21.5 C 50.8333,21.5 51.1667,21.5 51.5,21.5C 52.9587,21.4326 54.2921,21.7659 55.5,22.5C 55.7036,24.6854 56.3702,26.6854 57.5,28.5C 57.1583,29.3382 56.4916,29.6716 55.5,29.5C 55.5654,29.0618 55.3988,28.7284 55,28.5C 53.2228,30.7899 51.0562,32.4566 48.5,33.5C 46.8851,29.1147 48.2185,27.7813 52.5,29.5C 52.297,26.7671 51.297,24.4338 49.5,22.5C 50.1667,22.5 50.5,22.1667 50.5,21.5 Z"/></g>
<g><path style="opacity:1" fill="#ebce6f" d="M 55.5,22.5 C 57.1454,23.4787 58.4787,24.812 59.5,26.5C 60.3857,25.675 60.719,24.675 60.5,23.5C 63.3324,27.6578 64.999,32.3245 65.5,37.5C 64.5041,37.5858 63.6708,37.2524 63,36.5C 62.5291,34.7536 61.8624,33.087 61,31.5C 60.6174,32.056 60.1174,32.3893 59.5,32.5C 59.0113,31.0048 58.3446,29.6715 57.5,28.5C 56.3702,26.6854 55.7036,24.6854 55.5,22.5 Z"/></g>
<g><path style="opacity:1" fill="#efca1f" d="M 48.5,22.5 C 48.8333,22.5 49.1667,22.5 49.5,22.5C 51.297,24.4338 52.297,26.7671 52.5,29.5C 48.2185,27.7813 46.8851,29.1147 48.5,33.5C 47.0966,36.9085 46.4299,40.5752 46.5,44.5C 45.8333,44.5 45.5,44.1667 45.5,43.5C 44.1917,42.7677 42.8584,41.9344 41.5,41C 42.6898,38.8836 44.0231,36.8836 45.5,35C 45.454,32.5639 45.1207,30.0639 44.5,27.5C 42.1507,29.2038 41.1507,31.5371 41.5,34.5C 40.1779,34.33 39.0113,34.6634 38,35.5C 37.5357,34.9056 37.369,34.2389 37.5,33.5C 38.2984,26.865 41.9651,23.1983 48.5,22.5 Z"/></g>
<g><path style="opacity:1" fill="#eac14a" d="M 47.5,19.5 C 47.5639,20.3652 47.8973,21.3652 48.5,22.5C 41.9651,23.1983 38.2984,26.865 37.5,33.5C 35.6567,35.8531 34.3234,38.5198 33.5,41.5C 33.6621,43.5273 33.4955,45.5273 33,47.5C 32.1841,48.8228 31.0174,49.4894 29.5,49.5C 30.0283,48.2794 30.695,47.1127 31.5,46C 30.9056,45.5357 30.2389,45.369 29.5,45.5C 32.7135,38.0715 36.2135,30.7382 40,23.5C 41.883,20.9756 44.383,19.6423 47.5,19.5 Z"/></g>
<g><path style="opacity:1" fill="#f5d439" d="M 37.5,33.5 C 37.369,34.2389 37.5357,34.9056 38,35.5C 39.0113,34.6634 40.1779,34.33 41.5,34.5C 39.6469,37.2084 38.6469,40.2084 38.5,43.5C 37.8423,44.3984 37.1757,45.3984 36.5,46.5C 35.9986,44.3449 34.9986,42.6782 33.5,41.5C 34.3234,38.5198 35.6567,35.8531 37.5,33.5 Z"/></g>
<g><path style="opacity:1" fill="#e1b50e" d="M 55.5,29.5 C 55.8633,31.9115 54.8633,33.4115 52.5,34C 53.5,34.3333 54.5,34.6667 55.5,35C 52.0532,37.0282 49.3866,39.8616 47.5,43.5C 49.8781,46.076 52.8781,47.076 56.5,46.5C 56.5,46.8333 56.5,47.1667 56.5,47.5C 56.3893,48.1174 56.056,48.6174 55.5,49C 56.9561,49.4226 57.4561,50.2559 57,51.5C 55.1717,51.6897 53.3384,52.0231 51.5,52.5C 49.7499,51.5268 48.2499,50.1935 47,48.5C 46.6667,48.8333 46.3333,49.1667 46,49.5C 45.6886,48.2575 46.1886,47.2575 47.5,46.5C 47.1373,45.8165 46.8039,45.1499 46.5,44.5C 46.4299,40.5752 47.0966,36.9085 48.5,33.5C 51.0562,32.4566 53.2228,30.7899 55,28.5C 55.3988,28.7284 55.5654,29.0618 55.5,29.5 Z"/></g>
<g><path style="opacity:1" fill="#d3aa4c" d="M 65.5,37.5 C 66.404,38.209 66.7373,39.209 66.5,40.5C 65.5489,41.9187 65.2155,43.5853 65.5,45.5C 64.209,45.2627 63.209,45.596 62.5,46.5C 60.5853,46.2155 58.9187,46.5489 57.5,47.5C 57.1667,47.5 56.8333,47.5 56.5,47.5C 56.5,47.1667 56.5,46.8333 56.5,46.5C 57.9516,45.6981 59.6183,45.1981 61.5,45C 60.8333,44.6667 60.1667,44.3333 59.5,44C 61.2603,43.0347 61.5937,41.868 60.5,40.5C 57.005,42.8648 56.6717,42.1981 59.5,38.5C 58.3966,38.0024 57.3966,37.6691 56.5,37.5C 57.2599,35.6396 58.2599,33.973 59.5,32.5C 60.1174,32.3893 60.6174,32.056 61,31.5C 61.8624,33.087 62.5291,34.7536 63,36.5C 63.6708,37.2524 64.5041,37.5858 65.5,37.5 Z"/></g>
<g><path style="opacity:1" fill="#f8dd58" d="M 45.5,43.5 C 44.6618,43.8417 44.3284,44.5084 44.5,45.5C 43.5041,45.4142 42.6708,45.7476 42,46.5C 41.015,45.1859 39.8484,44.1859 38.5,43.5C 38.6469,40.2084 39.6469,37.2084 41.5,34.5C 41.1507,31.5371 42.1507,29.2038 44.5,27.5C 45.1207,30.0639 45.454,32.5639 45.5,35C 44.0231,36.8836 42.6898,38.8836 41.5,41C 42.8584,41.9344 44.1917,42.7677 45.5,43.5 Z"/></g>
<g><path style="opacity:1" fill="#d5a315" d="M 57.5,28.5 C 58.3446,29.6715 59.0113,31.0048 59.5,32.5C 58.2599,33.973 57.2599,35.6396 56.5,37.5C 57.3966,37.6691 58.3966,38.0024 59.5,38.5C 56.6717,42.1981 57.005,42.8648 60.5,40.5C 61.5937,41.868 61.2603,43.0347 59.5,44C 60.1667,44.3333 60.8333,44.6667 61.5,45C 59.6183,45.1981 57.9516,45.6981 56.5,46.5C 52.8781,47.076 49.8781,46.076 47.5,43.5C 49.3866,39.8616 52.0532,37.0282 55.5,35C 54.5,34.6667 53.5,34.3333 52.5,34C 54.8633,33.4115 55.8633,31.9115 55.5,29.5C 56.4916,29.6716 57.1583,29.3382 57.5,28.5 Z"/></g>
<g><path style="opacity:1" fill="#f0c815" d="M 33.5,41.5 C 34.9986,42.6782 35.9986,44.3449 36.5,46.5C 37.1757,45.3984 37.8423,44.3984 38.5,43.5C 39.8484,44.1859 41.015,45.1859 42,46.5C 42.6708,45.7476 43.5041,45.4142 44.5,45.5C 43.8519,47.0858 43.3519,48.7525 43,50.5C 41.927,49.7203 40.7604,49.887 39.5,51C 40.7932,51.49 42.1266,51.6567 43.5,51.5C 43.1667,52.1667 42.8333,52.8333 42.5,53.5C 40.5198,54.3676 38.8531,53.7009 37.5,51.5C 36.0815,52.0047 35.4148,53.0047 35.5,54.5C 34.2058,55.2899 33.0391,56.2899 32,57.5C 31.6667,56.8333 31.3333,56.1667 31,55.5C 29.9367,56.4378 28.7701,57.4378 27.5,58.5C 26.7492,57.624 26.2492,56.624 26,55.5C 25.6174,56.056 25.1174,56.3893 24.5,56.5C 25.4333,53.6298 27.1,51.2964 29.5,49.5C 31.0174,49.4894 32.1841,48.8228 33,47.5C 33.4955,45.5273 33.6621,43.5273 33.5,41.5 Z"/></g>
<g><path style="opacity:1" fill="#e6bb68" d="M 29.5,45.5 C 30.2389,45.369 30.9056,45.5357 31.5,46C 30.695,47.1127 30.0283,48.2794 29.5,49.5C 27.1,51.2964 25.4333,53.6298 24.5,56.5C 23.6618,56.8417 23.3284,57.5084 23.5,58.5C 22.6618,58.1583 22.3284,57.4916 22.5,56.5C 24.412,52.5833 26.7454,48.9166 29.5,45.5 Z"/></g>
<g><path style="opacity:1" fill="#f6e496" d="M 66.5,40.5 C 68.1011,43.1237 69.7678,45.7904 71.5,48.5C 72.4985,50.4505 72.3318,52.4505 71,54.5C 70.6667,53.5 70.3333,52.5 70,51.5C 65.2655,53.863 62.7655,52.1964 62.5,46.5C 63.209,45.596 64.209,45.2627 65.5,45.5C 65.2155,43.5853 65.5489,41.9187 66.5,40.5 Z"/></g>
<g><path style="opacity:1" fill="#fdf4ca" d="M 63.5,46.5 C 65.1667,46.5 66.8333,46.5 68.5,46.5C 68.8224,50.439 67.489,51.2723 64.5,49C 63.7476,48.3292 63.4142,47.4959 63.5,46.5 Z"/></g>
<g><path style="opacity:1" fill="#e9be04" d="M 45.5,43.5 C 45.5,44.1667 45.8333,44.5 46.5,44.5C 46.8039,45.1499 47.1373,45.8165 47.5,46.5C 46.1886,47.2575 45.6886,48.2575 46,49.5C 46.3333,49.1667 46.6667,48.8333 47,48.5C 48.2499,50.1935 49.7499,51.5268 51.5,52.5C 50.6618,52.8417 50.3284,53.5084 50.5,54.5C 48.9139,53.5868 47.4139,53.5868 46,54.5C 45.6232,53.0577 44.7899,52.0577 43.5,51.5C 42.1266,51.6567 40.7932,51.49 39.5,51C 40.7604,49.887 41.927,49.7203 43,50.5C 43.3519,48.7525 43.8519,47.0858 44.5,45.5C 44.3284,44.5084 44.6618,43.8417 45.5,43.5 Z"/></g>
<g><path style="opacity:1" fill="#efc804" d="M 43.5,51.5 C 44.7899,52.0577 45.6232,53.0577 46,54.5C 47.4139,53.5868 48.9139,53.5868 50.5,54.5C 50.5,54.8333 50.5,55.1667 50.5,55.5C 50.5,56.1667 50.5,56.8333 50.5,57.5C 48.8561,57.7135 47.3561,57.3802 46,56.5C 45.3828,57.4491 45.5494,58.2825 46.5,59C 43.6643,60.66 42.1643,63.16 42,66.5C 40.4361,66.0879 38.9361,65.7546 37.5,65.5C 37.1961,64.8501 36.8627,64.1835 36.5,63.5C 37.2624,63.0894 38.2624,62.9227 39.5,63C 38.2264,62.0228 38.2264,61.1894 39.5,60.5C 41.7583,60.2249 42.0916,59.2249 40.5,57.5C 41.8532,56.4763 42.5198,55.143 42.5,53.5C 42.8333,52.8333 43.1667,52.1667 43.5,51.5 Z"/></g>
<g><path style="opacity:1" fill="#e6bf24" d="M 56.5,47.5 C 56.8333,47.5 57.1667,47.5 57.5,47.5C 59.6477,47.3894 59.981,48.056 58.5,49.5C 60.2433,51.3211 61.7433,53.3211 63,55.5C 63.6708,56.2524 64.5041,56.5858 65.5,56.5C 65.6495,57.552 65.4828,58.552 65,59.5C 64.2904,58.0267 63.1238,57.3601 61.5,57.5C 61.5,58.8333 61.5,60.1667 61.5,61.5C 60.5,61.5 59.5,61.5 58.5,61.5C 59.7279,59.9902 59.7279,58.4902 58.5,57C 57.0692,56.5348 55.9025,55.7014 55,54.5C 53.6439,55.3802 52.1439,55.7135 50.5,55.5C 50.5,55.1667 50.5,54.8333 50.5,54.5C 50.3284,53.5084 50.6618,52.8417 51.5,52.5C 53.3384,52.0231 55.1717,51.6897 57,51.5C 57.4561,50.2559 56.9561,49.4226 55.5,49C 56.056,48.6174 56.3893,48.1174 56.5,47.5 Z"/></g>
<g><path style="opacity:1" fill="#efd273" d="M 57.5,47.5 C 58.9187,46.5489 60.5853,46.2155 62.5,46.5C 62.7655,52.1964 65.2655,53.863 70,51.5C 70.3333,52.5 70.6667,53.5 71,54.5C 72.3318,52.4505 72.4985,50.4505 71.5,48.5C 72.9063,48.9731 73.573,49.9731 73.5,51.5C 73.8678,54.0558 73.0345,56.0558 71,57.5C 69.3542,55.8592 68.3542,56.1925 68,58.5C 67.2917,57.6195 66.4584,56.9528 65.5,56.5C 64.5041,56.5858 63.6708,56.2524 63,55.5C 61.7433,53.3211 60.2433,51.3211 58.5,49.5C 59.981,48.056 59.6477,47.3894 57.5,47.5 Z"/></g>
<g><path style="opacity:1" fill="#feeb6e" d="M 34.5,58.5 C 35.4916,58.3284 36.1583,58.6618 36.5,59.5C 35.7934,61.1344 34.6268,62.4677 33,63.5C 32.5,63 32,62.5 31.5,62C 32.6364,60.8549 33.6364,59.6883 34.5,58.5 Z"/></g>
<g><path style="opacity:1" fill="#f5cf06" d="M 42.5,53.5 C 42.5198,55.143 41.8532,56.4763 40.5,57.5C 42.0916,59.2249 41.7583,60.2249 39.5,60.5C 38.791,59.596 37.791,59.2627 36.5,59.5C 36.1583,58.6618 35.4916,58.3284 34.5,58.5C 34.5106,56.9826 35.1772,55.8159 36.5,55C 36.2716,54.6012 35.9382,54.4346 35.5,54.5C 35.4148,53.0047 36.0815,52.0047 37.5,51.5C 38.8531,53.7009 40.5198,54.3676 42.5,53.5 Z"/></g>
<g><path style="opacity:1" fill="#e7be04" d="M 50.5,57.5 C 52.1207,57.7869 53.1207,58.7869 53.5,60.5C 52.1362,60.3784 50.8029,60.3784 49.5,60.5C 46.0029,60.995 45.0029,62.8283 46.5,66C 44.9194,66.7065 43.4194,67.5399 42,68.5C 42.1484,69.825 41.9817,70.9916 41.5,72C 39.7703,73.8524 38.6036,73.6857 38,71.5C 36.3775,72.0989 34.8775,72.7656 33.5,73.5C 31.3023,73.5912 30.9689,72.9245 32.5,71.5C 35.8144,70.8653 37.4811,69.1987 37.5,66.5C 37.5,66.1667 37.5,65.8333 37.5,65.5C 38.9361,65.7546 40.4361,66.0879 42,66.5C 42.1643,63.16 43.6643,60.66 46.5,59C 45.5494,58.2825 45.3828,57.4491 46,56.5C 47.3561,57.3802 48.8561,57.7135 50.5,57.5 Z"/></g>
<g><path style="opacity:1" fill="#e6c457" d="M 73.5,51.5 C 75.4725,54.0836 76.4725,57.0836 76.5,60.5C 75.7321,59.7375 75.2321,58.7375 75,57.5C 74.6481,59.2475 74.1481,60.9142 73.5,62.5C 71.8706,60.9397 70.704,61.273 70,63.5C 69,62.5 68,61.5 67,60.5C 65.5063,62.7184 63.673,63.385 61.5,62.5C 61.5,62.1667 61.5,61.8333 61.5,61.5C 61.5,60.1667 61.5,58.8333 61.5,57.5C 63.1238,57.3601 64.2904,58.0267 65,59.5C 65.4828,58.552 65.6495,57.552 65.5,56.5C 66.4584,56.9528 67.2917,57.6195 68,58.5C 68.3542,56.1925 69.3542,55.8592 71,57.5C 73.0345,56.0558 73.8678,54.0558 73.5,51.5 Z"/></g>
<g><path style="opacity:1" fill="#e4bc04" d="M 58.5,61.5 C 55.5929,62.8982 53.0929,64.8982 51,67.5C 50.3741,65.0087 49.5407,65.0087 48.5,67.5C 47.895,66.4126 48.2283,65.246 49.5,64C 48.3157,62.8545 48.3157,61.6879 49.5,60.5C 50.8029,60.3784 52.1362,60.3784 53.5,60.5C 53.1207,58.7869 52.1207,57.7869 50.5,57.5C 50.5,56.8333 50.5,56.1667 50.5,55.5C 52.1439,55.7135 53.6439,55.3802 55,54.5C 55.9025,55.7014 57.0692,56.5348 58.5,57C 59.7279,58.4902 59.7279,59.9902 58.5,61.5 Z"/></g>
<g><path style="opacity:1" fill="#f8d720" d="M 35.5,54.5 C 35.9382,54.4346 36.2716,54.6012 36.5,55C 35.1772,55.8159 34.5106,56.9826 34.5,58.5C 33.6364,59.6883 32.6364,60.8549 31.5,62C 32,62.5 32.5,63 33,63.5C 34.6268,62.4677 35.7934,61.1344 36.5,59.5C 37.791,59.2627 38.791,59.596 39.5,60.5C 38.2264,61.1894 38.2264,62.0228 39.5,63C 38.2624,62.9227 37.2624,63.0894 36.5,63.5C 36.8627,64.1835 37.1961,64.8501 37.5,65.5C 37.5,65.8333 37.5,66.1667 37.5,66.5C 35.1346,65.9916 32.8013,65.3249 30.5,64.5C 29.5224,64.9767 28.6891,65.6433 28,66.5C 27.6582,64.3808 26.8249,64.0474 25.5,65.5C 24.701,62.5701 24.3677,59.5701 24.5,56.5C 25.1174,56.3893 25.6174,56.056 26,55.5C 26.2492,56.624 26.7492,57.624 27.5,58.5C 28.7701,57.4378 29.9367,56.4378 31,55.5C 31.3333,56.1667 31.6667,56.8333 32,57.5C 33.0391,56.2899 34.2058,55.2899 35.5,54.5 Z"/></g>
<g><path style="opacity:1" fill="#deb100" d="M 49.5,60.5 C 48.3157,61.6879 48.3157,62.8545 49.5,64C 48.2283,65.246 47.895,66.4126 48.5,67.5C 49.5407,65.0087 50.3741,65.0087 51,67.5C 53.0929,64.8982 55.5929,62.8982 58.5,61.5C 59.5,61.5 60.5,61.5 61.5,61.5C 61.5,61.8333 61.5,62.1667 61.5,62.5C 59.1667,64.8333 56.8333,67.1667 54.5,69.5C 52.8706,67.9397 51.704,68.273 51,70.5C 48.5924,68.3763 46.0924,68.543 43.5,71C 44.9561,71.4226 45.4561,72.2559 45,73.5C 42.7348,74.5155 40.9015,75.6821 39.5,77C 40.7996,78.5788 40.4663,79.7455 38.5,80.5C 37.8826,78.6792 37.716,76.6792 38,74.5C 37.313,77.4256 35.4797,78.7589 32.5,78.5C 33.355,77.4693 34.0217,76.3026 34.5,75C 34.4301,74.2352 34.0967,73.7352 33.5,73.5C 34.8775,72.7656 36.3775,72.0989 38,71.5C 38.6036,73.6857 39.7703,73.8524 41.5,72C 41.9817,70.9916 42.1484,69.825 42,68.5C 43.4194,67.5399 44.9194,66.7065 46.5,66C 45.0029,62.8283 46.0029,60.995 49.5,60.5 Z"/></g>
<g><path style="opacity:1" fill="#bc8a00" d="M 70.5,66.5 C 70.3284,67.4916 70.6618,68.1583 71.5,68.5C 71.5,68.8333 71.5,69.1667 71.5,69.5C 68.8431,69.2526 66.5098,68.2526 64.5,66.5C 63.3875,68.4192 62.0542,70.0858 60.5,71.5C 57.7699,68.9493 58.4366,67.616 62.5,67.5C 62.4501,65.4099 63.4501,64.0766 65.5,63.5C 67.5092,64.0654 69.1759,65.0654 70.5,66.5 Z"/></g>
<g><path style="opacity:1" fill="#f0cd05" d="M 25.5,65.5 C 26.8249,64.0474 27.6582,64.3808 28,66.5C 28.6891,65.6433 29.5224,64.9767 30.5,64.5C 32.8013,65.3249 35.1346,65.9916 37.5,66.5C 37.4811,69.1987 35.8144,70.8653 32.5,71.5C 31.7387,70.6091 30.7387,69.9424 29.5,69.5C 27.9579,70.7468 26.4579,70.7468 25,69.5C 24.3333,70.1667 24.3333,70.8333 25,71.5C 25.9195,71.9302 26.7528,72.2635 27.5,72.5C 26.3112,73.4287 24.9778,73.762 23.5,73.5C 22.7197,70.2909 22.8863,67.2909 24,64.5C 24.3826,65.056 24.8826,65.3893 25.5,65.5 Z"/></g>
<g><path style="opacity:1" fill="#cc9c05" d="M 73.5,62.5 C 72.5,63.8333 71.5,65.1667 70.5,66.5C 69.1759,65.0654 67.5092,64.0654 65.5,63.5C 63.4501,64.0766 62.4501,65.4099 62.5,67.5C 58.4366,67.616 57.7699,68.9493 60.5,71.5C 58.4048,72.412 56.4048,73.5787 54.5,75C 57.3323,76.9076 56.999,77.741 53.5,77.5C 53.8333,74.8333 54.1667,72.1667 54.5,69.5C 56.8333,67.1667 59.1667,64.8333 61.5,62.5C 63.673,63.385 65.5063,62.7184 67,60.5C 68,61.5 69,62.5 70,63.5C 70.704,61.273 71.8706,60.9397 73.5,62.5 Z"/></g>
<g><path style="opacity:1" fill="#c79f3f" d="M 76.5,60.5 C 76.5,63.1667 76.5,65.8333 76.5,68.5C 75.2502,68.5774 74.4169,69.244 74,70.5C 73.5831,69.244 72.7498,68.5774 71.5,68.5C 70.6618,68.1583 70.3284,67.4916 70.5,66.5C 71.5,65.1667 72.5,63.8333 73.5,62.5C 74.1481,60.9142 74.6481,59.2475 75,57.5C 75.2321,58.7375 75.7321,59.7375 76.5,60.5 Z"/></g>
<g><path style="opacity:1" fill="#d5a901" d="M 54.5,69.5 C 54.1667,72.1667 53.8333,74.8333 53.5,77.5C 50.9375,77.0846 48.4375,77.7512 46,79.5C 44.9288,76.8875 44.0955,76.8875 43.5,79.5C 42.7658,80.9293 41.5991,81.9293 40,82.5C 38.9701,82.1639 38.4701,81.4972 38.5,80.5C 40.4663,79.7455 40.7996,78.5788 39.5,77C 40.9015,75.6821 42.7348,74.5155 45,73.5C 45.4561,72.2559 44.9561,71.4226 43.5,71C 46.0924,68.543 48.5924,68.3763 51,70.5C 51.704,68.273 52.8706,67.9397 54.5,69.5 Z"/></g>
<g><path style="opacity:1" fill="#e9c001" d="M 32.5,71.5 C 30.9689,72.9245 31.3023,73.5912 33.5,73.5C 34.0967,73.7352 34.4301,74.2352 34.5,75C 34.0217,76.3026 33.355,77.4693 32.5,78.5C 30.9064,78.0805 29.4064,77.4138 28,76.5C 27.5,76.6667 27,76.8333 26.5,77C 30.5149,79.1067 30.1816,79.7734 25.5,79C 23.8446,77.5557 23.178,75.7224 23.5,73.5C 24.9778,73.762 26.3112,73.4287 27.5,72.5C 26.7528,72.2635 25.9195,71.9302 25,71.5C 24.3333,70.8333 24.3333,70.1667 25,69.5C 26.4579,70.7468 27.9579,70.7468 29.5,69.5C 30.7387,69.9424 31.7387,70.6091 32.5,71.5 Z"/></g>
<g><path style="opacity:1" fill="#a87501" d="M 71.5,69.5 C 71.4386,71.5922 70.4386,73.0922 68.5,74C 71.3224,76.8554 70.9891,77.6887 67.5,76.5C 67.6882,74.8967 67.1882,73.5634 66,72.5C 63.095,73.5739 60.595,75.2406 58.5,77.5C 58.6036,75.2972 59.2702,73.2972 60.5,71.5C 62.0542,70.0858 63.3875,68.4192 64.5,66.5C 66.5098,68.2526 68.8431,69.2526 71.5,69.5 Z"/></g>
<g><path style="opacity:1" fill="#a67a23" d="M 71.5,68.5 C 72.7498,68.5774 73.5831,69.244 74,70.5C 74.4169,69.244 75.2502,68.5774 76.5,68.5C 76.1104,73.9369 74.1104,78.6036 70.5,82.5C 70.5,81.5 70.5,80.5 70.5,79.5C 69.5,79.5 68.5,79.5 67.5,79.5C 67.5,78.5 67.5,77.5 67.5,76.5C 70.9891,77.6887 71.3224,76.8554 68.5,74C 70.4386,73.0922 71.4386,71.5922 71.5,69.5C 71.5,69.1667 71.5,68.8333 71.5,68.5 Z"/></g>
<g><path style="opacity:1" fill="#d9a300" d="M 38.5,80.5 C 38.4701,81.4972 38.9701,82.1639 40,82.5C 41.5991,81.9293 42.7658,80.9293 43.5,79.5C 43.5,80.8333 43.5,82.1667 43.5,83.5C 41.7085,83.366 40.0418,83.6993 38.5,84.5C 37.7701,83.2876 36.7701,82.2876 35.5,81.5C 36.6085,79.7859 35.9418,79.1192 33.5,79.5C 34.1606,84.1679 32.1606,86.1679 27.5,85.5C 26.0256,84.5637 25.0256,83.2303 24.5,81.5C 26.5617,81.4382 28.7284,81.4382 31,81.5C 31.5133,80.4734 32.0133,79.4734 32.5,78.5C 35.4797,78.7589 37.313,77.4256 38,74.5C 37.716,76.6792 37.8826,78.6792 38.5,80.5 Z"/></g>
<g><path style="opacity:1" fill="#9e6904" d="M 67.5,76.5 C 67.5,77.5 67.5,78.5 67.5,79.5C 68.5,79.5 69.5,79.5 70.5,79.5C 70.5,80.5 70.5,81.5 70.5,82.5C 70.5,82.8333 70.5,83.1667 70.5,83.5C 65.4158,84.1168 60.4158,85.1168 55.5,86.5C 56.1275,83.3428 57.1275,80.3428 58.5,77.5C 60.595,75.2406 63.095,73.5739 66,72.5C 67.1882,73.5634 67.6882,74.8967 67.5,76.5 Z"/></g>
<g><path style="opacity:1" fill="#e6ba0f" d="M 24.5,56.5 C 24.3677,59.5701 24.701,62.5701 25.5,65.5C 24.8826,65.3893 24.3826,65.056 24,64.5C 22.8863,67.2909 22.7197,70.2909 23.5,73.5C 23.178,75.7224 23.8446,77.5557 25.5,79C 30.1816,79.7734 30.5149,79.1067 26.5,77C 27,76.8333 27.5,76.6667 28,76.5C 29.4064,77.4138 30.9064,78.0805 32.5,78.5C 32.0133,79.4734 31.5133,80.4734 31,81.5C 28.7284,81.4382 26.5617,81.4382 24.5,81.5C 21.0217,74.0564 20.6883,66.3897 23.5,58.5C 23.3284,57.5084 23.6618,56.8417 24.5,56.5 Z"/></g>
<g><path style="opacity:1" fill="#c49001" d="M 60.5,71.5 C 59.2702,73.2972 58.6036,75.2972 58.5,77.5C 55.7931,80.5428 52.7931,83.2094 49.5,85.5C 47.742,85.8769 46.0754,86.5435 44.5,87.5C 43.2888,86.7261 43.2888,85.8928 44.5,85C 41.7341,85.5924 39.7341,85.4257 38.5,84.5C 40.0418,83.6993 41.7085,83.366 43.5,83.5C 43.5,82.1667 43.5,80.8333 43.5,79.5C 44.0955,76.8875 44.9288,76.8875 46,79.5C 48.4375,77.7512 50.9375,77.0846 53.5,77.5C 56.999,77.741 57.3323,76.9076 54.5,75C 56.4048,73.5787 58.4048,72.412 60.5,71.5 Z"/></g>
<g><path style="opacity:0.651" fill="#dba334" d="M 22.5,56.5 C 22.3284,57.4916 22.6618,58.1583 23.5,58.5C 20.6883,66.3897 21.0217,74.0564 24.5,81.5C 25.0256,83.2303 26.0256,84.5637 27.5,85.5C 27.7822,86.7777 28.4489,87.7777 29.5,88.5C 28.8333,88.5 28.5,88.8333 28.5,89.5C 19.5478,79.7406 17.5478,68.7406 22.5,56.5 Z"/></g>
<g><path style="opacity:1" fill="#c98e06" d="M 38.5,84.5 C 39.7341,85.4257 41.7341,85.5924 44.5,85C 43.2888,85.8928 43.2888,86.7261 44.5,87.5C 46.0754,86.5435 47.742,85.8769 49.5,85.5C 49.1961,86.1499 48.8627,86.8165 48.5,87.5C 45.2145,88.0419 42.2145,89.0419 39.5,90.5C 37.9064,90.0805 36.4064,89.4138 35,88.5C 34.0497,89.0223 33.2164,89.689 32.5,90.5C 31.4822,89.8075 30.4822,89.1408 29.5,88.5C 28.4489,87.7777 27.7822,86.7777 27.5,85.5C 32.1606,86.1679 34.1606,84.1679 33.5,79.5C 35.9418,79.1192 36.6085,79.7859 35.5,81.5C 36.7701,82.2876 37.7701,83.2876 38.5,84.5 Z"/></g>
<g><path style="opacity:1" fill="#865116" d="M 70.5,83.5 C 69.8333,84.8333 68.8333,85.8333 67.5,86.5C 65.3193,86.2837 63.6526,87.117 62.5,89C 59.5682,89.9533 56.5682,90.4533 53.5,90.5C 53.9887,89.0048 54.6554,87.6715 55.5,86.5C 60.4158,85.1168 65.4158,84.1168 70.5,83.5 Z"/></g>
<g><path style="opacity:1" fill="#ae780c" d="M 58.5,77.5 C 57.1275,80.3428 56.1275,83.3428 55.5,86.5C 54.6554,87.6715 53.9887,89.0048 53.5,90.5C 48.5167,91.5762 43.8501,91.5762 39.5,90.5C 42.2145,89.0419 45.2145,88.0419 48.5,87.5C 48.8627,86.8165 49.1961,86.1499 49.5,85.5C 52.7931,83.2094 55.7931,80.5428 58.5,77.5 Z"/></g>
<g><path style="opacity:1" fill="#ae7122" d="M 28.5,89.5 C 28.5,88.8333 28.8333,88.5 29.5,88.5C 30.4822,89.1408 31.4822,89.8075 32.5,90.5C 33.2164,89.689 34.0497,89.0223 35,88.5C 36.4064,89.4138 37.9064,90.0805 39.5,90.5C 43.8501,91.5762 48.5167,91.5762 53.5,90.5C 51.7392,91.3127 50.0725,92.3127 48.5,93.5C 41.2619,94.4435 34.5952,93.1102 28.5,89.5 Z"/></g>
<g><path style="opacity:1" fill="#84563d" d="M 67.5,86.5 C 62.347,91.7162 56.0137,94.0496 48.5,93.5C 50.0725,92.3127 51.7392,91.3127 53.5,90.5C 56.5682,90.4533 59.5682,89.9533 62.5,89C 63.6526,87.117 65.3193,86.2837 67.5,86.5 Z"/></g>
</svg>
