<?xml version="1.0" encoding="UTF-8"?>
<!DOCTYPE svg PUBLIC "-//W3C//DTD SVG 1.1//EN" "http://www.w3.org/Graphics/SVG/1.1/DTD/svg11.dtd">
<svg xmlns="http://www.w3.org/2000/svg" version="1.1" width="100px" height="100px" style="shape-rendering:geometricPrecision; text-rendering:geometricPrecision; image-rendering:optimizeQuality; fill-rule:evenodd; clip-rule:evenodd" xmlns:xlink="http://www.w3.org/1999/xlink">
<g><path style="opacity:0.69" fill="#a6cd54" d="M 65.5,23.5 C 65.1667,23.5 64.8333,23.5 64.5,23.5C 61.7431,21.9143 58.7431,20.9143 55.5,20.5C 40.8506,17.3465 33.8506,23.3465 34.5,38.5C 33.5233,35.7131 33.19,32.7131 33.5,29.5C 33.5,28.8333 33.5,28.1667 33.5,27.5C 38.3035,18.833 45.6368,15.6663 55.5,18C 59.6065,18.6292 62.9399,20.4625 65.5,23.5 Z"/></g>
<g><path style="opacity:0.984" fill="#fbdcbe" d="M 55.5,20.5 C 41.2182,19.4483 34.5516,26.115 35.5,40.5C 34.6618,40.1583 34.3284,39.4916 34.5,38.5C 33.8506,23.3465 40.8506,17.3465 55.5,20.5 Z"/></g>
<g><path style="opacity:1" fill="#ff927c" d="M 55.5,20.5 C 58.7431,20.9143 61.7431,21.9143 64.5,23.5C 66.3603,24.9387 68.027,26.6053 69.5,28.5C 66.6398,27.6034 63.9732,27.27 61.5,27.5C 62.6527,26.6868 62.6527,25.6868 61.5,24.5C 56.6381,22.6805 51.6381,22.1805 46.5,23C 45.4293,23.8518 44.4293,24.6851 43.5,25.5C 40.3773,28.5175 38.3773,32.1842 37.5,36.5C 36.4489,39.3442 36.4489,42.3442 37.5,45.5C 36.0687,44.2196 35.4021,42.5529 35.5,40.5C 34.5516,26.115 41.2182,19.4483 55.5,20.5 Z"/></g>
<g><path style="opacity:0.776" fill="#d8d2a1" d="M 64.5,23.5 C 64.8333,23.5 65.1667,23.5 65.5,23.5C 68.0934,24.7536 70.4268,26.4202 72.5,28.5C 72.5,28.8333 72.5,29.1667 72.5,29.5C 71.6618,29.8417 71.3284,30.5084 71.5,31.5C 71.1667,31.5 70.8333,31.5 70.5,31.5C 70.7373,30.209 70.404,29.209 69.5,28.5C 68.027,26.6053 66.3603,24.9387 64.5,23.5 Z"/></g>
<g><path style="opacity:1" fill="#fd3227" d="M 61.5,27.5 C 58.3657,27.7066 57.3657,29.0399 58.5,31.5C 56.7846,31.4023 54.9513,31.4023 53,31.5C 49.6816,29.0942 50.1816,27.5942 54.5,27C 53.8333,26.8333 53.1667,26.6667 52.5,26.5C 49.5816,28.7363 46.2482,30.0697 42.5,30.5C 43.3007,28.9582 43.634,27.2915 43.5,25.5C 44.4293,24.6851 45.4293,23.8518 46.5,23C 51.6381,22.1805 56.6381,22.6805 61.5,24.5C 62.6527,25.6868 62.6527,26.6868 61.5,27.5 Z"/></g>
<g><path style="opacity:1" fill="#fa3a30" d="M 58.5,31.5 C 59.1174,31.3893 59.6174,31.056 60,30.5C 60.4482,32.2244 61.2815,32.891 62.5,32.5C 59.8809,32.9756 57.8809,34.3089 56.5,36.5C 56.8793,38.2131 57.8793,39.2131 59.5,39.5C 59.1583,40.3382 58.4916,40.6716 57.5,40.5C 55.8007,40.4729 54.4674,39.8062 53.5,38.5C 50.9407,38.8016 48.6074,38.4682 46.5,37.5C 45.7934,35.8656 44.6268,34.5323 43,33.5C 42.5172,32.552 42.3505,31.552 42.5,30.5C 46.2482,30.0697 49.5816,28.7363 52.5,26.5C 53.1667,26.6667 53.8333,26.8333 54.5,27C 50.1816,27.5942 49.6816,29.0942 53,31.5C 54.9513,31.4023 56.7846,31.4023 58.5,31.5 Z"/></g>
<g><path style="opacity:1" fill="#43b105" d="M 83.5,35.5 C 82.8333,36.1667 82.1667,36.8333 81.5,37.5C 80.548,36.548 79.548,35.548 78.5,34.5C 77.3132,33.3473 76.3132,33.3473 75.5,34.5C 74.5041,34.4142 73.6708,34.7476 73,35.5C 72.79,33.9419 72.29,32.6085 71.5,31.5C 71.3284,30.5084 71.6618,29.8417 72.5,29.5C 74.3307,28.9478 75.9974,28.9478 77.5,29.5C 78.1667,28.8333 78.8333,28.1667 79.5,27.5C 82.2057,29.5237 83.539,32.1903 83.5,35.5 Z"/></g>
<g><path style="opacity:1" fill="#fd2a1b" d="M 61.5,27.5 C 63.9732,27.27 66.6398,27.6034 69.5,28.5C 70.404,29.209 70.7373,30.209 70.5,31.5C 66.3316,33.4232 62.6649,36.0899 59.5,39.5C 57.8793,39.2131 56.8793,38.2131 56.5,36.5C 57.8809,34.3089 59.8809,32.9756 62.5,32.5C 61.2815,32.891 60.4482,32.2244 60,30.5C 59.6174,31.056 59.1174,31.3893 58.5,31.5C 57.3657,29.0399 58.3657,27.7066 61.5,27.5 Z"/></g>
<g><path style="opacity:1" fill="#70c83c" d="M 70.5,31.5 C 70.8333,31.5 71.1667,31.5 71.5,31.5C 72.29,32.6085 72.79,33.9419 73,35.5C 73.6708,34.7476 74.5041,34.4142 75.5,34.5C 76.1667,34.5 76.5,34.8333 76.5,35.5C 73.2716,38.1934 70.2716,40.5267 67.5,42.5C 67.6309,41.6236 67.2975,40.9569 66.5,40.5C 65.4305,41.9095 64.0972,42.9095 62.5,43.5C 60.5165,43.3832 58.8498,44.0499 57.5,45.5C 56.7084,44.3002 56.7084,42.9669 57.5,41.5C 57.5,41.1667 57.5,40.8333 57.5,40.5C 58.4916,40.6716 59.1583,40.3382 59.5,39.5C 62.6649,36.0899 66.3316,33.4232 70.5,31.5 Z"/></g>
<g><path style="opacity:1" fill="#ff4f43" d="M 43.5,25.5 C 43.634,27.2915 43.3007,28.9582 42.5,30.5C 42.3505,31.552 42.5172,32.552 43,33.5C 44.6268,34.5323 45.7934,35.8656 46.5,37.5C 44.8679,38.4457 43.2012,39.4457 41.5,40.5C 39.603,39.6319 38.2696,38.2986 37.5,36.5C 38.3773,32.1842 40.3773,28.5175 43.5,25.5 Z"/></g>
<g><path style="opacity:1" fill="#253021" d="M 75.5,34.5 C 76.3132,33.3473 77.3132,33.3473 78.5,34.5C 79.548,35.548 80.548,36.548 81.5,37.5C 80.2058,38.2899 79.0391,39.2899 78,40.5C 77.5078,39.451 77.6744,38.451 78.5,37.5C 78.1445,36.4777 77.4778,35.811 76.5,35.5C 76.5,34.8333 76.1667,34.5 75.5,34.5 Z"/></g>
<g><path style="opacity:1" fill="#fc1805" d="M 53.5,38.5 C 54.4674,39.8062 55.8007,40.4729 57.5,40.5C 57.5,40.8333 57.5,41.1667 57.5,41.5C 53.183,44.4864 49.183,47.8197 45.5,51.5C 44.8826,51.6107 44.3826,51.944 44,52.5C 43.5831,51.244 42.7498,50.5774 41.5,50.5C 41.9089,47.0085 42.9089,43.6752 44.5,40.5C 47.4936,40.3655 50.4936,39.6989 53.5,38.5 Z"/></g>
<g><path style="opacity:1" fill="#ff3d24" d="M 37.5,36.5 C 38.2696,38.2986 39.603,39.6319 41.5,40.5C 43.2012,39.4457 44.8679,38.4457 46.5,37.5C 48.6074,38.4682 50.9407,38.8016 53.5,38.5C 50.4936,39.6989 47.4936,40.3655 44.5,40.5C 42.9089,43.6752 41.9089,47.0085 41.5,50.5C 40.5,49.8333 39.5,49.1667 38.5,48.5C 38.7373,47.209 38.404,46.209 37.5,45.5C 36.4489,42.3442 36.4489,39.3442 37.5,36.5 Z"/></g>
<g><path style="opacity:1" fill="#58941a" d="M 33.5,29.5 C 33.19,32.7131 33.5233,35.7131 34.5,38.5C 34.3284,39.4916 34.6618,40.1583 35.5,40.5C 35.4021,42.5529 36.0687,44.2196 37.5,45.5C 38.404,46.209 38.7373,47.209 38.5,48.5C 37.1667,48.5 35.8333,48.5 34.5,48.5C 34.6602,46.8008 34.4935,45.1341 34,43.5C 33.6824,45.0609 32.8491,46.2276 31.5,47C 32.5,48 33.5,49 34.5,50C 32.5646,49.9421 30.8979,49.1088 29.5,47.5C 29.3285,45.5082 29.9951,43.8415 31.5,42.5C 29.8053,37.7026 30.472,33.3693 33.5,29.5 Z"/></g>
<g><path style="opacity:1" fill="#4ab401" d="M 76.5,35.5 C 77.4778,35.811 78.1445,36.4777 78.5,37.5C 77.6744,38.451 77.5078,39.451 78,40.5C 79.0391,39.2899 80.2058,38.2899 81.5,37.5C 82.1667,36.8333 82.8333,36.1667 83.5,35.5C 84.4682,37.6074 84.8016,39.9407 84.5,42.5C 83.5041,42.5858 82.6708,42.2524 82,41.5C 81.6758,43.5689 80.8425,43.9023 79.5,42.5C 78.5276,44.6365 76.8609,45.8032 74.5,46C 75.1667,46.6667 75.8333,47.3333 76.5,48C 74.3651,48.7589 73.0318,50.2589 72.5,52.5C 71.675,53.3857 70.675,53.719 69.5,53.5C 68.1667,53.5 67.5,52.8333 67.5,51.5C 68.3382,51.1583 68.6716,50.4916 68.5,49.5C 69.4959,49.4142 70.3292,49.7476 71,50.5C 70.84,47.4913 72.0067,45.3246 74.5,44C 73.5,43.3333 72.5,43.3333 71.5,44C 70.9152,45.3024 70.2485,46.469 69.5,47.5C 68.7611,47.631 68.0944,47.4643 67.5,47C 68.4132,45.5861 68.4132,44.0861 67.5,42.5C 70.2716,40.5267 73.2716,38.1934 76.5,35.5 Z"/></g>
<g><path style="opacity:0.82" fill="#93ac7e" d="M 84.5,51.5 C 83.8333,51.5 83.5,51.8333 83.5,52.5C 83.1667,52.5 82.8333,52.5 82.5,52.5C 82.7529,50.1727 82.0863,48.1727 80.5,46.5C 82.5199,46.498 83.8532,45.1647 84.5,42.5C 84.8016,39.9407 84.4682,37.6074 83.5,35.5C 83.539,32.1903 82.2057,29.5237 79.5,27.5C 78.8333,28.1667 78.1667,28.8333 77.5,29.5C 75.9974,28.9478 74.3307,28.9478 72.5,29.5C 72.5,29.1667 72.5,28.8333 72.5,28.5C 79.3394,22.4206 83.506,24.0872 85,33.5C 85.6971,39.5368 85.5304,45.5368 84.5,51.5 Z"/></g>
<g><path style="opacity:1" fill="#676765" d="M 67.5,42.5 C 66.1932,43.1534 64.8599,43.8201 63.5,44.5C 62.8933,44.3764 62.56,44.0431 62.5,43.5C 64.0972,42.9095 65.4305,41.9095 66.5,40.5C 67.2975,40.9569 67.6309,41.6236 67.5,42.5 Z"/></g>
<g><path style="opacity:1" fill="#8da37a" d="M 33.5,27.5 C 33.5,28.1667 33.5,28.8333 33.5,29.5C 30.472,33.3693 29.8053,37.7026 31.5,42.5C 29.9951,43.8415 29.3285,45.5082 29.5,47.5C 29.5,48.8333 29.5,50.1667 29.5,51.5C 29.1667,51.5 28.8333,51.5 28.5,51.5C 26.3948,42.6029 28.0615,34.6029 33.5,27.5 Z"/></g>
<g><path style="opacity:1" fill="#3f9206" d="M 57.5,41.5 C 56.7084,42.9669 56.7084,44.3002 57.5,45.5C 58.8498,44.0499 60.5165,43.3832 62.5,43.5C 62.56,44.0431 62.8933,44.3764 63.5,44.5C 64.8599,43.8201 66.1932,43.1534 67.5,42.5C 68.4132,44.0861 68.4132,45.5861 67.5,47C 68.0944,47.4643 68.7611,47.631 69.5,47.5C 69.1667,48.1667 68.8333,48.8333 68.5,49.5C 64.7769,49.3577 63.9436,50.691 66,53.5C 66.2784,52.5842 66.7784,51.9175 67.5,51.5C 67.5,52.8333 68.1667,53.5 69.5,53.5C 67.7354,54.4614 65.7354,54.7947 63.5,54.5C 60.4281,53.6822 60.0948,52.5155 62.5,51C 61.7877,49.575 61.621,48.075 62,46.5C 60.7353,48.3965 59.0687,49.7299 57,50.5C 56.1667,50.1667 55.3333,49.8333 54.5,49.5C 55.4686,44.2096 55.1353,44.2096 53.5,49.5C 52.8333,49.8333 52.1667,50.1667 51.5,50.5C 49.2776,50.178 47.4443,50.8446 46,52.5C 45.6012,52.2716 45.4346,51.9382 45.5,51.5C 49.183,47.8197 53.183,44.4864 57.5,41.5 Z"/></g>
<g><path style="opacity:1" fill="#313531" d="M 68.5,49.5 C 68.8333,48.8333 69.1667,48.1667 69.5,47.5C 70.2485,46.469 70.9152,45.3024 71.5,44C 72.5,43.3333 73.5,43.3333 74.5,44C 72.0067,45.3246 70.84,47.4913 71,50.5C 70.3292,49.7476 69.4959,49.4142 68.5,49.5 Z"/></g>
<g><path style="opacity:1" fill="#44601e" d="M 84.5,42.5 C 83.8532,45.1647 82.5199,46.498 80.5,46.5C 82.0863,48.1727 82.7529,50.1727 82.5,52.5C 82.1667,52.5 81.8333,52.5 81.5,52.5C 80.8333,52.5 80.1667,52.5 79.5,52.5C 80.2341,51.2921 80.5674,49.9587 80.5,48.5C 77.2429,48.7637 75.2429,50.4304 74.5,53.5C 75.5,53.5 76.5,53.5 77.5,53.5C 74.4651,54.3745 71.4651,55.3745 68.5,56.5C 66.7839,56.6287 65.1172,56.962 63.5,57.5C 64.8333,56.5 64.8333,55.5 63.5,54.5C 65.7354,54.7947 67.7354,54.4614 69.5,53.5C 70.675,53.719 71.675,53.3857 72.5,52.5C 73.0318,50.2589 74.3651,48.7589 76.5,48C 75.8333,47.3333 75.1667,46.6667 74.5,46C 76.8609,45.8032 78.5276,44.6365 79.5,42.5C 80.8425,43.9023 81.6758,43.5689 82,41.5C 82.6708,42.2524 83.5041,42.5858 84.5,42.5 Z"/></g>
<g><path style="opacity:1" fill="#544e11" d="M 38.5,48.5 C 39.075,50.4113 40.075,52.078 41.5,53.5C 40.8333,53.5 40.5,53.8333 40.5,54.5C 36.4661,54.4835 32.7994,53.4835 29.5,51.5C 29.5,50.1667 29.5,48.8333 29.5,47.5C 30.8979,49.1088 32.5646,49.9421 34.5,50C 33.5,49 32.5,48 31.5,47C 32.8491,46.2276 33.6824,45.0609 34,43.5C 34.4935,45.1341 34.6602,46.8008 34.5,48.5C 35.8333,48.5 37.1667,48.5 38.5,48.5 Z"/></g>
<g><path style="opacity:1" fill="#a3d43b" d="M 38.5,48.5 C 39.5,49.1667 40.5,49.8333 41.5,50.5C 42.1098,51.391 42.4431,52.391 42.5,53.5C 42.1667,53.5 41.8333,53.5 41.5,53.5C 40.075,52.078 39.075,50.4113 38.5,48.5 Z"/></g>
<g><path style="opacity:1" fill="#3a3b37" d="M 68.5,49.5 C 68.6716,50.4916 68.3382,51.1583 67.5,51.5C 66.7784,51.9175 66.2784,52.5842 66,53.5C 63.9436,50.691 64.7769,49.3577 68.5,49.5 Z"/></g>
<g><path style="opacity:1" fill="#61bc00" d="M 79.5,52.5 C 78.8333,52.8333 78.1667,53.1667 77.5,53.5C 76.5,53.5 75.5,53.5 74.5,53.5C 75.2429,50.4304 77.2429,48.7637 80.5,48.5C 80.5674,49.9587 80.2341,51.2921 79.5,52.5 Z"/></g>
<g><path style="opacity:1" fill="#fe0d07" d="M 11.5,48.5 C 11.5,49.5 11.5,50.5 11.5,51.5C 13.143,51.4802 14.4763,52.1468 15.5,53.5C 17.1929,51.7214 19.1929,51.2214 21.5,52C 18.4094,52.691 17.2428,54.5243 18,57.5C 18.3333,56.8333 18.6667,56.1667 19,55.5C 20.3988,56.2266 21.8988,56.7266 23.5,57C 21.1195,58.7261 18.6195,59.2261 16,58.5C 15.0053,59.0659 14.172,59.7326 13.5,60.5C 12.2438,60.5386 11.2438,60.0386 10.5,59C 11.8333,58.3333 11.8333,57.6667 10.5,57C 11.7441,56.5439 12.5774,57.0439 13,58.5C 13.5,58 14,57.5 14.5,57C 11.9036,54.4938 9.23697,52.3272 6.5,50.5C 6.5,49.5 6.5,48.5 6.5,47.5C 8.29152,47.366 9.95819,47.6993 11.5,48.5 Z"/></g>
<g><path style="opacity:1" fill="#1c1606" d="M 53.5,49.5 C 53.8807,50.9311 54.8807,51.7645 56.5,52C 54.3271,55.1235 51.9938,55.1235 49.5,52C 50.4158,51.7216 51.0825,51.2216 51.5,50.5C 52.1667,50.1667 52.8333,49.8333 53.5,49.5 Z"/></g>
<g><path style="opacity:1" fill="#384107" d="M 63.5,54.5 C 64.8333,55.5 64.8333,56.5 63.5,57.5C 61.4862,57.3915 59.8195,58.0582 58.5,59.5C 52.7798,58.4828 47.4465,56.4828 42.5,53.5C 42.4431,52.391 42.1098,51.391 41.5,50.5C 42.7498,50.5774 43.5831,51.244 44,52.5C 44.3826,51.944 44.8826,51.6107 45.5,51.5C 45.4346,51.9382 45.6012,52.2716 46,52.5C 47.4443,50.8446 49.2776,50.178 51.5,50.5C 51.0825,51.2216 50.4158,51.7216 49.5,52C 51.9938,55.1235 54.3271,55.1235 56.5,52C 54.8807,51.7645 53.8807,50.9311 53.5,49.5C 55.1353,44.2096 55.4686,44.2096 54.5,49.5C 55.3333,49.8333 56.1667,50.1667 57,50.5C 59.0687,49.7299 60.7353,48.3965 62,46.5C 61.621,48.075 61.7877,49.575 62.5,51C 60.0948,52.5155 60.4281,53.6822 63.5,54.5 Z"/></g>
<g><path style="opacity:1" fill="#f57b61" d="M 23.5,50.5 C 25.2161,50.6287 26.8828,50.962 28.5,51.5C 28.8333,51.5 29.1667,51.5 29.5,51.5C 32.7994,53.4835 36.4661,54.4835 40.5,54.5C 42.9462,55.6877 45.2795,57.021 47.5,58.5C 47.0113,59.9952 46.3446,61.3285 45.5,62.5C 45.5,61.1667 45.5,59.8333 45.5,58.5C 42.3061,57.2424 38.9728,56.5758 35.5,56.5C 32.7136,55.2261 29.8803,53.8928 27,52.5C 25.0466,53.754 23.8799,53.0874 23.5,50.5 Z"/></g>
<g><path style="opacity:1" fill="#fe281f" d="M 11.5,48.5 C 15.2527,50.1392 19.2527,50.8059 23.5,50.5C 23.8799,53.0874 25.0466,53.754 27,52.5C 29.8803,53.8928 32.7136,55.2261 35.5,56.5C 33.6309,57.1646 31.6309,57.8313 29.5,58.5C 29.9767,59.4776 30.6433,60.3109 31.5,61C 29.6316,61.0038 27.7983,60.5038 26,59.5C 25.5,59.8333 25,60.1667 24.5,60.5C 25.9492,61.1719 27.2825,61.8386 28.5,62.5C 25.9885,62.162 23.6552,62.162 21.5,62.5C 21.1667,61.8333 20.8333,61.1667 20.5,60.5C 19.8076,61.0253 19.3076,61.6919 19,62.5C 17.4157,61.1387 15.5824,60.472 13.5,60.5C 14.172,59.7326 15.0053,59.0659 16,58.5C 18.6195,59.2261 21.1195,58.7261 23.5,57C 21.8988,56.7266 20.3988,56.2266 19,55.5C 18.6667,56.1667 18.3333,56.8333 18,57.5C 17.2428,54.5243 18.4094,52.691 21.5,52C 19.1929,51.2214 17.1929,51.7214 15.5,53.5C 14.4763,52.1468 13.143,51.4802 11.5,51.5C 11.5,50.5 11.5,49.5 11.5,48.5 Z"/></g>
<g><path style="opacity:1" fill="#fd422d" d="M 35.5,56.5 C 38.9728,56.5758 42.3061,57.2424 45.5,58.5C 45.5,59.8333 45.5,61.1667 45.5,62.5C 42.8769,66.7908 39.5436,70.4575 35.5,73.5C 28.5762,75.2076 21.9095,74.541 15.5,71.5C 14.8902,70.609 14.5569,69.609 14.5,68.5C 16.2838,68.8925 17.9505,69.5592 19.5,70.5C 24.8796,72.3107 29.8796,71.644 34.5,68.5C 33.675,67.6143 32.675,67.281 31.5,67.5C 31.33,66.1779 31.6634,65.0113 32.5,64C 31.255,63.2086 29.9217,62.7086 28.5,62.5C 27.2825,61.8386 25.9492,61.1719 24.5,60.5C 25,60.1667 25.5,59.8333 26,59.5C 27.7983,60.5038 29.6316,61.0038 31.5,61C 30.6433,60.3109 29.9767,59.4776 29.5,58.5C 31.6309,57.8313 33.6309,57.1646 35.5,56.5 Z"/></g>
<g><path style="opacity:1" fill="#1b1206" d="M 41.5,53.5 C 41.8333,53.5 42.1667,53.5 42.5,53.5C 47.4465,56.4828 52.7798,58.4828 58.5,59.5C 55.3135,60.5969 52.3135,61.9303 49.5,63.5C 48.5,63.8333 47.8333,64.5 47.5,65.5C 47.1667,65.5 46.8333,65.5 46.5,65.5C 46.5,65.1667 46.5,64.8333 46.5,64.5C 48.1881,62.5233 48.5214,60.5233 47.5,58.5C 45.2795,57.021 42.9462,55.6877 40.5,54.5C 40.5,53.8333 40.8333,53.5 41.5,53.5 Z"/></g>
<g><path style="opacity:1" fill="#ff4740" d="M 81.5,52.5 C 81.8333,52.5 82.1667,52.5 82.5,52.5C 82.8333,52.5 83.1667,52.5 83.5,52.5C 83.8333,52.5 84.1667,52.5 84.5,52.5C 83.537,53.3635 83.537,54.0302 84.5,54.5C 85.7362,53.7542 87.0695,53.4208 88.5,53.5C 87.2964,55.7338 86.1297,58.0671 85,60.5C 83.1222,61.0527 81.6222,62.0527 80.5,63.5C 80.1667,63.5 79.8333,63.5 79.5,63.5C 79.0749,60.8864 77.7416,58.8864 75.5,57.5C 78.6908,57.8431 80.6908,56.1764 81.5,52.5 Z"/></g>
<g><path style="opacity:0.973" fill="#cad87f" d="M 7.5,46.5 C 6.16667,46.5 4.83333,46.5 3.5,46.5C 3.64788,53.7659 5.64788,60.4326 9.5,66.5C 8.83333,66.5 8.5,66.8333 8.5,67.5C 3.41087,61.1558 1.41087,53.8225 2.5,45.5C 4.41467,45.2155 6.08134,45.5489 7.5,46.5 Z"/></g>
<g><path style="opacity:1" fill="#fd9175" d="M 7.5,46.5 C 13.2255,46.7066 18.5588,48.0399 23.5,50.5C 19.2527,50.8059 15.2527,50.1392 11.5,48.5C 9.95819,47.6993 8.29152,47.366 6.5,47.5C 6.5,48.5 6.5,49.5 6.5,50.5C 6.36028,57.5697 9.02695,63.5697 14.5,68.5C 14.5569,69.609 14.8902,70.609 15.5,71.5C 12.9108,70.5806 10.9108,68.914 9.5,66.5C 5.64788,60.4326 3.64788,53.7659 3.5,46.5C 4.83333,46.5 6.16667,46.5 7.5,46.5 Z"/></g>
<g><path style="opacity:1" fill="#fd5547" d="M 79.5,52.5 C 80.1667,52.5 80.8333,52.5 81.5,52.5C 80.6908,56.1764 78.6908,57.8431 75.5,57.5C 77.7416,58.8864 79.0749,60.8864 79.5,63.5C 78.7784,63.9175 78.2784,64.5842 78,65.5C 77.51,64.2068 77.3433,62.8734 77.5,61.5C 75.7988,61.9662 74.2988,61.9662 73,61.5C 72.6924,62.3081 72.1924,62.9747 71.5,63.5C 68.0758,63.4875 64.9091,62.8208 62,61.5C 61.4209,62.9285 61.5876,64.2618 62.5,65.5C 59.9394,65.5531 57.9394,64.5531 56.5,62.5C 60.0629,59.4175 64.0629,58.4175 68.5,59.5C 72.3389,58.05 72.3389,57.05 68.5,56.5C 71.4651,55.3745 74.4651,54.3745 77.5,53.5C 78.1667,53.1667 78.8333,52.8333 79.5,52.5 Z"/></g>
<g><path style="opacity:1" fill="#fd0e04" d="M 13.5,60.5 C 15.5824,60.472 17.4157,61.1387 19,62.5C 19.3076,61.6919 19.8076,61.0253 20.5,60.5C 20.8333,61.1667 21.1667,61.8333 21.5,62.5C 23.6552,62.162 25.9885,62.162 28.5,62.5C 29.9217,62.7086 31.255,63.2086 32.5,64C 31.6634,65.0113 31.33,66.1779 31.5,67.5C 32.675,67.281 33.675,67.6143 34.5,68.5C 29.8796,71.644 24.8796,72.3107 19.5,70.5C 21.1897,69.8969 22.6897,68.8969 24,67.5C 25.4178,69.3632 27.2511,69.8632 29.5,69C 28.5,68.6667 27.5,68.3333 26.5,68C 26.0698,67.0805 25.7365,66.2472 25.5,65.5C 22.2326,65.89 18.8993,65.39 15.5,64C 14.1772,63.1841 13.5106,62.0174 13.5,60.5 Z"/></g>
<g><path style="opacity:1" fill="#fc2519" d="M 84.5,51.5 C 85.5,51.5 86.5,51.5 87.5,51.5C 88.5,51.5 89.5,51.5 90.5,51.5C 90.7521,54.2438 90.0855,56.7438 88.5,59C 88.9054,59.9454 89.572,60.6121 90.5,61C 89.5,61.8333 88.5,62.6667 87.5,63.5C 88.8549,64.6753 88.6883,65.6753 87,66.5C 85.0875,64.0444 83.4208,64.3778 82,67.5C 81.6667,67.1667 81.3333,66.8333 81,66.5C 80.3187,68.8947 79.4853,71.228 78.5,73.5C 77.0153,72.5672 75.6819,72.9005 74.5,74.5C 73.6993,72.9582 73.366,71.2915 73.5,69.5C 75.9115,69.8633 77.4115,68.8633 78,66.5C 78.3333,66.8333 78.6667,67.1667 79,67.5C 79.4101,66.0993 79.9101,64.766 80.5,63.5C 81.6222,62.0527 83.1222,61.0527 85,60.5C 86.1297,58.0671 87.2964,55.7338 88.5,53.5C 87.0695,53.4208 85.7362,53.7542 84.5,54.5C 83.537,54.0302 83.537,53.3635 84.5,52.5C 84.5,52.1667 84.5,51.8333 84.5,51.5 Z"/></g>
<g><path style="opacity:1" fill="#fe2f22" d="M 6.5,50.5 C 9.23697,52.3272 11.9036,54.4938 14.5,57C 14,57.5 13.5,58 13,58.5C 12.5774,57.0439 11.7441,56.5439 10.5,57C 11.8333,57.6667 11.8333,58.3333 10.5,59C 11.2438,60.0386 12.2438,60.5386 13.5,60.5C 13.5106,62.0174 14.1772,63.1841 15.5,64C 18.8993,65.39 22.2326,65.89 25.5,65.5C 25.7365,66.2472 26.0698,67.0805 26.5,68C 27.5,68.3333 28.5,68.6667 29.5,69C 27.2511,69.8632 25.4178,69.3632 24,67.5C 22.6897,68.8969 21.1897,69.8969 19.5,70.5C 17.9505,69.5592 16.2838,68.8925 14.5,68.5C 9.02695,63.5697 6.36028,57.5697 6.5,50.5 Z"/></g>
<g><path style="opacity:1" fill="#fc3a2f" d="M 79.5,63.5 C 79.8333,63.5 80.1667,63.5 80.5,63.5C 79.9101,64.766 79.4101,66.0993 79,67.5C 78.6667,67.1667 78.3333,66.8333 78,66.5C 77.4115,68.8633 75.9115,69.8633 73.5,69.5C 73.366,71.2915 73.6993,72.9582 74.5,74.5C 73.5084,74.3284 72.8417,74.6618 72.5,75.5C 70.8514,74.286 69.1848,72.9527 67.5,71.5C 68.6446,70.109 68.6446,68.7757 67.5,67.5C 66.1166,70.0756 65.2833,69.7423 65,66.5C 64.3292,65.7476 63.4959,65.4142 62.5,65.5C 61.5876,64.2618 61.4209,62.9285 62,61.5C 64.9091,62.8208 68.0758,63.4875 71.5,63.5C 72.1924,62.9747 72.6924,62.3081 73,61.5C 74.2988,61.9662 75.7988,61.9662 77.5,61.5C 77.3433,62.8734 77.51,64.2068 78,65.5C 78.2784,64.5842 78.7784,63.9175 79.5,63.5 Z"/></g>
<g><path style="opacity:1" fill="#9acc43" d="M 47.5,58.5 C 48.5214,60.5233 48.1881,62.5233 46.5,64.5C 43.9985,70.2615 39.6652,73.9281 33.5,75.5C 34.1667,74.8333 34.8333,74.1667 35.5,73.5C 39.5436,70.4575 42.8769,66.7908 45.5,62.5C 46.3446,61.3285 47.0113,59.9952 47.5,58.5 Z"/></g>
<g><path style="opacity:1" fill="#fb7566" d="M 68.5,56.5 C 72.3389,57.05 72.3389,58.05 68.5,59.5C 64.0629,58.4175 60.0629,59.4175 56.5,62.5C 57.9394,64.5531 59.9394,65.5531 62.5,65.5C 62.8333,68.5 61.5,69.8333 58.5,69.5C 58.5875,66.4017 58.0875,66.0684 57,68.5C 55.9805,67.3128 54.8139,66.3128 53.5,65.5C 52.6143,66.325 52.281,67.325 52.5,68.5C 50.4178,67.4151 50.0844,65.9151 51.5,64C 50.9056,63.5357 50.2389,63.369 49.5,63.5C 52.3135,61.9303 55.3135,60.5969 58.5,59.5C 59.8195,58.0582 61.4862,57.3915 63.5,57.5C 65.1172,56.962 66.7839,56.6287 68.5,56.5 Z"/></g>
<g><path style="opacity:1" fill="#ff765f" d="M 87.5,51.5 C 88.5676,50.5655 89.901,50.2322 91.5,50.5C 94.0564,61.7101 90.3897,70.0434 80.5,75.5C 77.8728,76.0916 75.2062,76.4249 72.5,76.5C 72.5,76.1667 72.5,75.8333 72.5,75.5C 72.8417,74.6618 73.5084,74.3284 74.5,74.5C 75.6819,72.9005 77.0153,72.5672 78.5,73.5C 79.4853,71.228 80.3187,68.8947 81,66.5C 81.3333,66.8333 81.6667,67.1667 82,67.5C 83.4208,64.3778 85.0875,64.0444 87,66.5C 88.6883,65.6753 88.8549,64.6753 87.5,63.5C 88.5,62.6667 89.5,61.8333 90.5,61C 89.572,60.6121 88.9054,59.9454 88.5,59C 90.0855,56.7438 90.7521,54.2438 90.5,51.5C 89.5,51.5 88.5,51.5 87.5,51.5 Z"/></g>
<g><path style="opacity:1" fill="#87b831" d="M 9.5,66.5 C 10.9108,68.914 12.9108,70.5806 15.5,71.5C 16.7489,73.1361 18.4156,74.3028 20.5,75C 24.4862,75.4988 28.4862,75.6655 32.5,75.5C 31.8333,76.1667 31.1667,76.8333 30.5,77.5C 21.0829,78.454 13.7496,75.1207 8.5,67.5C 8.5,66.8333 8.83333,66.5 9.5,66.5 Z"/></g>
<g><path style="opacity:1" fill="#ffa891" d="M 49.5,63.5 C 50.2389,63.369 50.9056,63.5357 51.5,64C 50.0844,65.9151 50.4178,67.4151 52.5,68.5C 57.4677,71.1403 62.4677,73.807 67.5,76.5C 69.0026,75.9478 70.6693,75.9478 72.5,76.5C 69.6965,77.6378 66.6965,77.8045 63.5,77C 59.7713,75.7451 56.438,73.9118 53.5,71.5C 51.1394,69.8061 49.1394,67.8061 47.5,65.5C 47.8333,64.5 48.5,63.8333 49.5,63.5 Z"/></g>
<g><path style="opacity:1" fill="#e6d593" d="M 15.5,71.5 C 21.9095,74.541 28.5762,75.2076 35.5,73.5C 34.8333,74.1667 34.1667,74.8333 33.5,75.5C 33.1667,75.5 32.8333,75.5 32.5,75.5C 28.4862,75.6655 24.4862,75.4988 20.5,75C 18.4156,74.3028 16.7489,73.1361 15.5,71.5 Z"/></g>
<g><path style="opacity:0.749" fill="#425928" d="M 46.5,64.5 C 46.5,64.8333 46.5,65.1667 46.5,65.5C 46.5,67.5 46.5,69.5 46.5,71.5C 41.5891,74.6219 36.2558,76.6219 30.5,77.5C 31.1667,76.8333 31.8333,76.1667 32.5,75.5C 32.8333,75.5 33.1667,75.5 33.5,75.5C 39.6652,73.9281 43.9985,70.2615 46.5,64.5 Z"/></g>
<g><path style="opacity:0.616" fill="#87c13a" d="M 91.5,50.5 C 95.8032,63.1022 91.8032,72.6022 79.5,79C 68.5785,82.6927 58.2451,81.3594 48.5,75C 47.1772,74.1841 46.5106,73.0174 46.5,71.5C 46.5,69.5 46.5,67.5 46.5,65.5C 46.8333,65.5 47.1667,65.5 47.5,65.5C 49.1394,67.8061 51.1394,69.8061 53.5,71.5C 55.5004,74.9936 58.5004,77.1603 62.5,78C 67.1667,78.6667 71.8333,78.6667 76.5,78C 78.3197,77.7996 79.653,76.9663 80.5,75.5C 90.3897,70.0434 94.0564,61.7101 91.5,50.5 Z"/></g>
<g><path style="opacity:1" fill="#ff4f42" d="M 62.5,65.5 C 63.4959,65.4142 64.3292,65.7476 65,66.5C 65.2833,69.7423 66.1166,70.0756 67.5,67.5C 68.6446,68.7757 68.6446,70.109 67.5,71.5C 69.1848,72.9527 70.8514,74.286 72.5,75.5C 72.5,75.8333 72.5,76.1667 72.5,76.5C 70.6693,75.9478 69.0026,75.9478 67.5,76.5C 62.4677,73.807 57.4677,71.1403 52.5,68.5C 52.281,67.325 52.6143,66.325 53.5,65.5C 54.8139,66.3128 55.9805,67.3128 57,68.5C 58.0875,66.0684 58.5875,66.4017 58.5,69.5C 61.5,69.8333 62.8333,68.5 62.5,65.5 Z"/></g>
<g><path style="opacity:1" fill="#f9d5ae" d="M 53.5,71.5 C 56.438,73.9118 59.7713,75.7451 63.5,77C 66.6965,77.8045 69.6965,77.6378 72.5,76.5C 75.2062,76.4249 77.8728,76.0916 80.5,75.5C 79.653,76.9663 78.3197,77.7996 76.5,78C 71.8333,78.6667 67.1667,78.6667 62.5,78C 58.5004,77.1603 55.5004,74.9936 53.5,71.5 Z"/></g>
</svg>
