<?xml version="1.0" encoding="UTF-8"?>
<!DOCTYPE svg PUBLIC "-//W3C//DTD SVG 1.1//EN" "http://www.w3.org/Graphics/SVG/1.1/DTD/svg11.dtd">
<svg xmlns="http://www.w3.org/2000/svg" version="1.1" width="100px" height="100px" style="shape-rendering:geometricPrecision; text-rendering:geometricPrecision; image-rendering:optimizeQuality; fill-rule:evenodd; clip-rule:evenodd" xmlns:xlink="http://www.w3.org/1999/xlink">
<g><path style="opacity:1" fill="#a3abd6" d="M 35.5,25.5 C 43.6841,25.1743 51.6841,25.5076 59.5,26.5C 53.4018,25.8833 47.7351,26.55 42.5,28.5C 39.8333,28.5 37.1667,28.5 34.5,28.5C 33.1148,27.0527 33.4482,26.0527 35.5,25.5 Z"/></g>
<g><path style="opacity:1" fill="#d6d0e7" d="M 35.5,25.5 C 35.5,25.1667 35.5,24.8333 35.5,24.5C 45.8333,24.5 56.1667,24.5 66.5,24.5C 66.5,25.1667 66.8333,25.5 67.5,25.5C 67.8333,26.8333 68.1667,28.1667 68.5,29.5C 67.2264,30.1894 67.2264,31.0228 68.5,32C 67.9558,32.7172 67.2891,33.2172 66.5,33.5C 66.5,31.8333 66.5,30.1667 66.5,28.5C 64.7085,28.366 63.0418,28.6993 61.5,29.5C 60.5084,29.6716 59.8417,29.3382 59.5,28.5C 59.5,27.8333 59.5,27.1667 59.5,26.5C 51.6841,25.5076 43.6841,25.1743 35.5,25.5 Z"/></g>
<g><path style="opacity:1" fill="#dcc0d9" d="M 67.5,25.5 C 73.1667,25.5 78.8333,25.5 84.5,25.5C 84.5,25.8333 84.5,26.1667 84.5,26.5C 80.0293,25.9106 76.0293,26.5772 72.5,28.5C 71.4324,29.4345 70.099,29.7678 68.5,29.5C 68.1667,28.1667 67.8333,26.8333 67.5,25.5 Z"/></g>
<g><path style="opacity:1" fill="#a8aac1" d="M 87.5,23.5 C 80.6866,24.4912 73.6866,24.8245 66.5,24.5C 56.1667,24.5 45.8333,24.5 35.5,24.5C 34.0413,24.4326 32.7079,24.7659 31.5,25.5C 24.9779,25.1765 18.6446,25.5098 12.5,26.5C 12.5,29.8333 12.5,33.1667 12.5,36.5C 11.8999,35.0998 10.8999,34.0998 9.5,33.5C 9.5,30.1667 9.5,26.8333 9.5,23.5C 35.5,23.5 61.5,23.5 87.5,23.5 Z"/></g>
<g><path style="opacity:1" fill="#8c9bc9" d="M 59.5,26.5 C 59.5,27.1667 59.5,27.8333 59.5,28.5C 54.8333,28.5 50.1667,28.5 45.5,28.5C 45.1667,28.5 44.8333,28.5 44.5,28.5C 43.8333,28.5 43.1667,28.5 42.5,28.5C 47.7351,26.55 53.4018,25.8833 59.5,26.5 Z"/></g>
<g><path style="opacity:1" fill="#9c8abe" d="M 84.5,26.5 C 82.7211,28.3435 80.3878,29.0102 77.5,28.5C 75.8333,28.5 74.1667,28.5 72.5,28.5C 76.0293,26.5772 80.0293,25.9106 84.5,26.5 Z"/></g>
<g><path style="opacity:1" fill="#1c51a9" d="M 12.5,26.5 C 16.5,26.5 20.5,26.5 24.5,26.5C 24.5,26.8333 24.5,27.1667 24.5,27.5C 17.4992,26.8864 15.4992,29.5531 18.5,35.5C 18.5,35.8333 18.5,36.1667 18.5,36.5C 16.5,36.5 14.5,36.5 12.5,36.5C 12.5,33.1667 12.5,29.8333 12.5,26.5 Z"/></g>
<g><path style="opacity:1" fill="#2a58a8" d="M 24.5,28.5 C 26.9257,31.7161 26.2591,34.3828 22.5,36.5C 21.1667,36.5 19.8333,36.5 18.5,36.5C 18.5,36.1667 18.5,35.8333 18.5,35.5C 20.8418,35.2252 20.8418,34.3919 18.5,33C 20.1124,32.2797 21.6124,32.4464 23,33.5C 23.49,32.2068 23.6567,30.8734 23.5,29.5C 18.5,28.9969 18.8333,28.6636 24.5,28.5 Z"/></g>
<g><path style="opacity:1" fill="#cac9e7" d="M 35.5,24.5 C 35.5,24.8333 35.5,25.1667 35.5,25.5C 33.4482,26.0527 33.1148,27.0527 34.5,28.5C 35.3007,30.0418 35.634,31.7085 35.5,33.5C 34.1667,33.5 32.8333,33.5 31.5,33.5C 31.5,30.8333 31.5,28.1667 31.5,25.5C 32.7079,24.7659 34.0413,24.4326 35.5,24.5 Z"/></g>
<g><path style="opacity:1" fill="#d1cfe7" d="M 45.5,28.5 C 50.1667,28.5 54.8333,28.5 59.5,28.5C 59.8417,29.3382 60.5084,29.6716 61.5,29.5C 61.6347,31.5542 60.968,33.2209 59.5,34.5C 55.1311,31.707 50.4644,29.707 45.5,28.5 Z"/></g>
<g><path style="opacity:1" fill="#edb4d1" d="M 84.5,25.5 C 85.8333,25.5 87.1667,25.5 88.5,25.5C 88.5,27.8333 88.5,30.1667 88.5,32.5C 87.8333,32.1667 87.1667,31.8333 86.5,31.5C 86.0831,30.8761 85.4164,30.5427 84.5,30.5C 82.3768,31.3118 80.2101,31.9785 78,32.5C 74.9925,32.0012 74.8259,31.0012 77.5,29.5C 77.5,29.1667 77.5,28.8333 77.5,28.5C 80.3878,29.0102 82.7211,28.3435 84.5,26.5C 84.5,26.1667 84.5,25.8333 84.5,25.5 Z"/></g>
<g><path style="opacity:1" fill="#d3ccde" d="M 34.5,28.5 C 37.1667,28.5 39.8333,28.5 42.5,28.5C 43.1667,28.5 43.8333,28.5 44.5,28.5C 44.1667,29.1667 43.8333,29.8333 43.5,30.5C 36.8593,29.9366 36.1926,30.9366 41.5,33.5C 40.0222,33.238 38.6888,33.5713 37.5,34.5C 40.0865,35.48 42.7531,35.8134 45.5,35.5C 45.5,35.8333 45.5,36.1667 45.5,36.5C 43.3792,36.3253 41.3792,36.6586 39.5,37.5C 38.791,36.596 37.791,36.2627 36.5,36.5C 36.4431,35.391 36.1098,34.391 35.5,33.5C 35.634,31.7085 35.3007,30.0418 34.5,28.5 Z"/></g>
<g><path style="opacity:1" fill="#4068af" d="M 24.5,27.5 C 24.5,27.8333 24.5,28.1667 24.5,28.5C 18.8333,28.6636 18.5,28.9969 23.5,29.5C 23.6567,30.8734 23.49,32.2068 23,33.5C 21.6124,32.4464 20.1124,32.2797 18.5,33C 20.8418,34.3919 20.8418,35.2252 18.5,35.5C 15.4992,29.5531 17.4992,26.8864 24.5,27.5 Z"/></g>
<g><path style="opacity:1" fill="#134baa" d="M 24.5,26.5 C 26.5,26.5 28.5,26.5 30.5,26.5C 30.5,29.8333 30.5,33.1667 30.5,36.5C 27.8333,36.5 25.1667,36.5 22.5,36.5C 26.2591,34.3828 26.9257,31.7161 24.5,28.5C 24.5,28.1667 24.5,27.8333 24.5,27.5C 24.5,27.1667 24.5,26.8333 24.5,26.5 Z"/></g>
<g><path style="opacity:1" fill="#edbed8" d="M 77.5,29.5 C 74.8259,31.0012 74.9925,32.0012 78,32.5C 80.2101,31.9785 82.3768,31.3118 84.5,30.5C 85.4164,30.5427 86.0831,30.8761 86.5,31.5C 83.8753,32.4577 83.8753,33.6243 86.5,35C 85.2068,35.49 83.8734,35.6567 82.5,35.5C 80.5055,33.2893 78.1721,32.9559 75.5,34.5C 73.396,34.7989 71.396,34.4656 69.5,33.5C 71.4438,30.8446 74.1105,29.5113 77.5,29.5 Z"/></g>
<g><path style="opacity:1" fill="#c5b8c9" d="M 43.5,30.5 C 45.0109,31.5025 46.6776,32.1692 48.5,32.5C 48.5,33.8333 48.5,35.1667 48.5,36.5C 47.5,36.5 46.5,36.5 45.5,36.5C 45.5,36.1667 45.5,35.8333 45.5,35.5C 46.3764,35.6309 47.0431,35.2975 47.5,34.5C 45.604,33.5344 43.604,33.2011 41.5,33.5C 36.1926,30.9366 36.8593,29.9366 43.5,30.5 Z"/></g>
<g><path style="opacity:1" fill="#dbd7e9" d="M 66.5,33.5 C 66.5,34.5 66.5,35.5 66.5,36.5C 67.9516,37.3019 69.6183,37.8019 71.5,38C 70.7562,39.0386 69.7562,39.5386 68.5,39.5C 65.9407,39.8016 63.6074,39.4682 61.5,38.5C 61.4729,36.8007 60.8062,35.4674 59.5,34.5C 60.968,33.2209 61.6347,31.5542 61.5,29.5C 63.0418,28.6993 64.7085,28.366 66.5,28.5C 66.5,30.1667 66.5,31.8333 66.5,33.5 Z"/></g>
<g><path style="opacity:1" fill="#cec5df" d="M 44.5,28.5 C 44.8333,28.5 45.1667,28.5 45.5,28.5C 50.4644,29.707 55.1311,31.707 59.5,34.5C 60.8062,35.4674 61.4729,36.8007 61.5,38.5C 60.609,37.8902 59.609,37.5569 58.5,37.5C 55.2139,36.7929 51.8806,36.4595 48.5,36.5C 48.5,35.1667 48.5,33.8333 48.5,32.5C 46.6776,32.1692 45.0109,31.5025 43.5,30.5C 43.8333,29.8333 44.1667,29.1667 44.5,28.5 Z"/></g>
<g><path style="opacity:1" fill="#97949e" d="M 41.5,33.5 C 43.604,33.2011 45.604,33.5344 47.5,34.5C 47.0431,35.2975 46.3764,35.6309 45.5,35.5C 42.7531,35.8134 40.0865,35.48 37.5,34.5C 38.6888,33.5713 40.0222,33.238 41.5,33.5 Z"/></g>
<g><path style="opacity:1" fill="#e3cade" d="M 72.5,28.5 C 74.1667,28.5 75.8333,28.5 77.5,28.5C 77.5,28.8333 77.5,29.1667 77.5,29.5C 74.1105,29.5113 71.4438,30.8446 69.5,33.5C 71.396,34.4656 73.396,34.7989 75.5,34.5C 72.7814,35.913 69.7814,36.5797 66.5,36.5C 66.5,35.5 66.5,34.5 66.5,33.5C 67.2891,33.2172 67.9558,32.7172 68.5,32C 67.2264,31.0228 67.2264,30.1894 68.5,29.5C 70.099,29.7678 71.4324,29.4345 72.5,28.5 Z"/></g>
<g><path style="opacity:1" fill="#ead0e3" d="M 82.5,35.5 C 83.209,36.404 84.209,36.7373 85.5,36.5C 85.5,37.8333 85.5,39.1667 85.5,40.5C 83.7956,41.2664 81.7956,41.2664 79.5,40.5C 79.2089,39.3509 78.3756,38.6842 77,38.5C 74.5284,39.3219 72.0284,39.9886 69.5,40.5C 68.8333,40.5 68.5,40.1667 68.5,39.5C 69.7562,39.5386 70.7562,39.0386 71.5,38C 69.6183,37.8019 67.9516,37.3019 66.5,36.5C 69.7814,36.5797 72.7814,35.913 75.5,34.5C 78.1721,32.9559 80.5055,33.2893 82.5,35.5 Z"/></g>
<g><path style="opacity:1" fill="#7785c2" d="M 12.5,26.5 C 18.6446,25.5098 24.9779,25.1765 31.5,25.5C 31.5,28.1667 31.5,30.8333 31.5,33.5C 31.8432,35.4832 31.1765,36.8166 29.5,37.5C 28.8333,37.5 28.1667,37.5 27.5,37.5C 22.5,37.5 17.5,37.5 12.5,37.5C 12.5,37.1667 12.5,36.8333 12.5,36.5C 14.5,36.5 16.5,36.5 18.5,36.5C 19.8333,36.5 21.1667,36.5 22.5,36.5C 25.1667,36.5 27.8333,36.5 30.5,36.5C 30.5,33.1667 30.5,29.8333 30.5,26.5C 28.5,26.5 26.5,26.5 24.5,26.5C 20.5,26.5 16.5,26.5 12.5,26.5 Z"/></g>
<g><path style="opacity:1" fill="#ddbfd3" d="M 31.5,33.5 C 32.8333,33.5 34.1667,33.5 35.5,33.5C 36.1098,34.391 36.4431,35.391 36.5,36.5C 34.9261,38.1016 34.2594,40.1016 34.5,42.5C 33.6981,41.0484 33.1981,39.3817 33,37.5C 31.7083,38.7911 30.5417,38.7911 29.5,37.5C 31.1765,36.8166 31.8432,35.4832 31.5,33.5 Z"/></g>
<g><path style="opacity:1" fill="#a399a8" d="M 45.5,36.5 C 46.5,36.5 47.5,36.5 48.5,36.5C 51.8806,36.4595 55.2139,36.7929 58.5,37.5C 58.5,38.1667 58.1667,38.5 57.5,38.5C 50.0971,38.8472 44.0971,38.5139 39.5,37.5C 41.3792,36.6586 43.3792,36.3253 45.5,36.5 Z"/></g>
<g><path style="opacity:1" fill="#ecd1e4" d="M 12.5,37.5 C 17.5,37.5 22.5,37.5 27.5,37.5C 28.0577,38.7899 29.0577,39.6232 30.5,40C 29.7476,40.6708 29.4142,41.5041 29.5,42.5C 28.1667,42.5 26.8333,42.5 25.5,42.5C 23.1621,39.1591 20.4954,38.8258 17.5,41.5C 16.8333,41.8333 16.1667,42.1667 15.5,42.5C 14.5272,40.8506 13.5272,39.184 12.5,37.5 Z"/></g>
<g><path style="opacity:1" fill="#efc0d7" d="M 86.5,31.5 C 87.1667,31.8333 87.8333,32.1667 88.5,32.5C 88.5,35.8333 88.5,39.1667 88.5,42.5C 87.5,42.5 86.5,42.5 85.5,42.5C 85.5,41.8333 85.5,41.1667 85.5,40.5C 85.5,39.1667 85.5,37.8333 85.5,36.5C 84.209,36.7373 83.209,36.404 82.5,35.5C 83.8734,35.6567 85.2068,35.49 86.5,35C 83.8753,33.6243 83.8753,32.4577 86.5,31.5 Z"/></g>
<g><path style="opacity:1" fill="#d3becf" d="M 36.5,36.5 C 37.791,36.2627 38.791,36.596 39.5,37.5C 44.0971,38.5139 50.0971,38.8472 57.5,38.5C 57.5,39.1667 57.5,39.8333 57.5,40.5C 54.8333,40.5 52.1667,40.5 49.5,40.5C 49.1667,40.5 48.8333,40.5 48.5,40.5C 44.8183,40.3347 41.1516,40.5014 37.5,41C 39.3817,41.1981 41.0484,41.6981 42.5,42.5C 39.8333,42.5 37.1667,42.5 34.5,42.5C 34.2594,40.1016 34.9261,38.1016 36.5,36.5 Z"/></g>
<g><path style="opacity:1" fill="#c2c0ce" d="M 58.5,37.5 C 59.609,37.5569 60.609,37.8902 61.5,38.5C 63.6074,39.4682 65.9407,39.8016 68.5,39.5C 68.5,40.1667 68.8333,40.5 69.5,40.5C 69.4431,41.609 69.1098,42.609 68.5,43.5C 64.1667,43.5 59.8333,43.5 55.5,43.5C 55.5,42.8333 55.1667,42.5 54.5,42.5C 55.9516,41.6981 57.6183,41.1981 59.5,41C 58.9056,40.5357 58.2389,40.369 57.5,40.5C 57.5,39.8333 57.5,39.1667 57.5,38.5C 58.1667,38.5 58.5,38.1667 58.5,37.5 Z"/></g>
<g><path style="opacity:1" fill="#e7c6d7" d="M 87.5,23.5 C 89.4651,30.7605 90.1318,38.4271 89.5,46.5C 88.1667,45.8333 86.8333,45.1667 85.5,44.5C 85.5,44.1667 85.5,43.8333 85.5,43.5C 85.5,43.1667 85.5,42.8333 85.5,42.5C 86.5,42.5 87.5,42.5 88.5,42.5C 88.5,39.1667 88.5,35.8333 88.5,32.5C 88.5,30.1667 88.5,27.8333 88.5,25.5C 87.1667,25.5 85.8333,25.5 84.5,25.5C 78.8333,25.5 73.1667,25.5 67.5,25.5C 66.8333,25.5 66.5,25.1667 66.5,24.5C 73.6866,24.8245 80.6866,24.4912 87.5,23.5 Z"/></g>
<g><path style="opacity:1" fill="#e8c5db" d="M 79.5,40.5 C 77.5,41.1667 75.5,41.8333 73.5,42.5C 71.8828,43.038 70.2161,43.3713 68.5,43.5C 69.1098,42.609 69.4431,41.609 69.5,40.5C 72.0284,39.9886 74.5284,39.3219 77,38.5C 78.3756,38.6842 79.2089,39.3509 79.5,40.5 Z"/></g>
<g><path style="opacity:1" fill="#a79ea9" d="M 48.5,40.5 C 47.0821,42.3079 45.0821,42.9746 42.5,42.5C 41.0484,41.6981 39.3817,41.1981 37.5,41C 41.1516,40.5014 44.8183,40.3347 48.5,40.5 Z"/></g>
<g><path style="opacity:1" fill="#a9a4b4" d="M 49.5,40.5 C 52.1667,40.5 54.8333,40.5 57.5,40.5C 58.2389,40.369 58.9056,40.5357 59.5,41C 57.6183,41.1981 55.9516,41.6981 54.5,42.5C 52.2188,42.9227 50.5521,42.256 49.5,40.5 Z"/></g>
<g><path style="opacity:1" fill="#e7d5e7" d="M 85.5,40.5 C 85.5,41.1667 85.5,41.8333 85.5,42.5C 85.5,42.8333 85.5,43.1667 85.5,43.5C 82.6029,43.6813 79.7695,43.3479 77,42.5C 75.699,42.6387 74.8656,43.3054 74.5,44.5C 73.8333,44.5 73.1667,44.5 72.5,44.5C 72.8333,43.8333 73.1667,43.1667 73.5,42.5C 75.5,41.8333 77.5,41.1667 79.5,40.5C 81.7956,41.2664 83.7956,41.2664 85.5,40.5 Z"/></g>
<g><path style="opacity:1" fill="#e6e7f2" d="M 25.5,42.5 C 26.8333,42.5 28.1667,42.5 29.5,42.5C 29.8128,46.0419 29.4794,49.3752 28.5,52.5C 28.1667,52.5 27.8333,52.5 27.5,52.5C 27.5,51.8333 27.1667,51.5 26.5,51.5C 25.5975,48.6085 25.2641,45.6085 25.5,42.5 Z"/></g>
<g><path style="opacity:1" fill="#eecfe3" d="M 27.5,37.5 C 28.1667,37.5 28.8333,37.5 29.5,37.5C 30.5417,38.7911 31.7083,38.7911 33,37.5C 33.1981,39.3817 33.6981,41.0484 34.5,42.5C 34.5,42.8333 34.5,43.1667 34.5,43.5C 33.6851,44.4293 32.8518,45.4293 32,46.5C 31.5012,50.4862 31.3345,54.4862 31.5,58.5C 30.8333,58.5 30.5,58.1667 30.5,57.5C 30.6347,55.4458 29.968,53.7791 28.5,52.5C 29.4794,49.3752 29.8128,46.0419 29.5,42.5C 29.4142,41.5041 29.7476,40.6708 30.5,40C 29.0577,39.6232 28.0577,38.7899 27.5,37.5 Z"/></g>
<g><path style="opacity:1" fill="#dedddd" d="M 85.5,43.5 C 85.5,43.8333 85.5,44.1667 85.5,44.5C 85.5,47.8333 85.5,51.1667 85.5,54.5C 84.1667,54.5 82.8333,54.5 81.5,54.5C 82.4293,53.6851 83.4293,52.8518 84.5,52C 83.9056,51.5357 83.2389,51.369 82.5,51.5C 82.1667,50.5 81.5,49.8333 80.5,49.5C 81.2634,45.5911 79.9301,44.2578 76.5,45.5C 75.5713,46.6888 75.238,48.0222 75.5,49.5C 74.5,49.5 73.5,49.5 72.5,49.5C 72.3915,47.4862 73.0582,45.8195 74.5,44.5C 74.8656,43.3054 75.699,42.6387 77,42.5C 79.7695,43.3479 82.6029,43.6813 85.5,43.5 Z"/></g>
<g><path style="opacity:1" fill="#a2a1ab" d="M 55.5,43.5 C 59.8333,43.5 64.1667,43.5 68.5,43.5C 68.5,44.1667 68.5,44.8333 68.5,45.5C 64.1667,45.5 59.8333,45.5 55.5,45.5C 53.6112,44.6201 51.6112,44.6201 49.5,45.5C 50.9179,43.6921 52.9179,43.0254 55.5,43.5 Z"/></g>
<g><path style="opacity:1" fill="#d0c8df" d="M 48.5,40.5 C 48.8333,40.5 49.1667,40.5 49.5,40.5C 50.5521,42.256 52.2188,42.9227 54.5,42.5C 55.1667,42.5 55.5,42.8333 55.5,43.5C 52.9179,43.0254 50.9179,43.6921 49.5,45.5C 49.1667,45.5 48.8333,45.5 48.5,45.5C 48.5,46.1667 48.1667,46.5 47.5,46.5C 43.8333,46.5 40.1667,46.5 36.5,46.5C 36.7148,44.8212 36.0481,43.8212 34.5,43.5C 34.5,43.1667 34.5,42.8333 34.5,42.5C 37.1667,42.5 39.8333,42.5 42.5,42.5C 45.0821,42.9746 47.0821,42.3079 48.5,40.5 Z"/></g>
<g><path style="opacity:1" fill="#a09dac" d="M 48.5,45.5 C 44.6249,45.9155 40.9582,45.4155 37.5,44C 39.3333,43.8333 41.1667,43.6667 43,43.5C 45.2953,43.5465 47.1286,44.2132 48.5,45.5 Z"/></g>
<g><path style="opacity:1" fill="#e1deea" d="M 17.5,41.5 C 17.5,44.8333 17.5,48.1667 17.5,51.5C 16.8333,51.5 16.1667,51.5 15.5,51.5C 12.9749,48.6912 12.9749,45.6912 15.5,42.5C 16.1667,42.1667 16.8333,41.8333 17.5,41.5 Z"/></g>
<g><path style="opacity:1" fill="#e3d2e4" d="M 73.5,42.5 C 73.1667,43.1667 72.8333,43.8333 72.5,44.5C 72.02,47.1656 71.02,49.6656 69.5,52C 70.056,52.3826 70.3893,52.8826 70.5,53.5C 68.3364,53.7215 66.6697,54.7215 65.5,56.5C 65.5,56.1667 65.5,55.8333 65.5,55.5C 66.752,52.2379 67.752,48.9046 68.5,45.5C 68.5,44.8333 68.5,44.1667 68.5,43.5C 70.2161,43.3713 71.8828,43.038 73.5,42.5 Z"/></g>
<g><path style="opacity:1" fill="#b2a8ba" d="M 34.5,43.5 C 36.0481,43.8212 36.7148,44.8212 36.5,46.5C 40.1667,46.5 43.8333,46.5 47.5,46.5C 47.5,47.1667 47.8333,47.5 48.5,47.5C 48.5,47.8333 48.5,48.1667 48.5,48.5C 44.5,48.5 40.5,48.5 36.5,48.5C 36.5,49.5 36.5,50.5 36.5,51.5C 35.6937,50.1325 34.6937,48.7992 33.5,47.5C 34.2458,46.2638 34.5792,44.9305 34.5,43.5 Z"/></g>
<g><path style="opacity:1" fill="#bcc2e8" d="M 52.5,54.5 C 50.8561,54.2865 49.3561,54.6198 48,55.5C 47.1482,54.4293 46.3149,53.4293 45.5,52.5C 44.1917,51.7677 42.8584,50.9344 41.5,50C 44.0356,49.8138 46.369,49.3138 48.5,48.5C 48.5,48.1667 48.5,47.8333 48.5,47.5C 49.7079,46.7659 51.0413,46.4326 52.5,46.5C 51.3697,49.1967 51.3697,51.8633 52.5,54.5 Z"/></g>
<g><path style="opacity:1" fill="#e9d0e3" d="M 85.5,44.5 C 86.8333,45.1667 88.1667,45.8333 89.5,46.5C 89.5,50.1667 89.5,53.8333 89.5,57.5C 88.1667,58.8333 86.8333,58.8333 85.5,57.5C 85.5,56.5 85.5,55.5 85.5,54.5C 85.5,51.1667 85.5,47.8333 85.5,44.5 Z"/></g>
<g><path style="opacity:0.009" fill="#e0c9da" d="M 9.5,35.5 C 10.4916,42.6476 10.825,49.9809 10.5,57.5C 10.1667,57.5 9.83333,57.5 9.5,57.5C 9.01037,50.349 9.01037,43.0157 9.5,35.5 Z"/></g>
<g><path style="opacity:1" fill="#b6b6b7" d="M 25.5,42.5 C 25.2641,45.6085 25.5975,48.6085 26.5,51.5C 24.983,49.8504 23.1496,48.5171 21,47.5C 19.2294,48.3471 18.0627,49.6805 17.5,51.5C 17.5,48.1667 17.5,44.8333 17.5,41.5C 20.4954,38.8258 23.1621,39.1591 25.5,42.5 Z"/></g>
<g><path style="opacity:1" fill="#c6c8e9" d="M 55.5,45.5 C 55.5,45.8333 55.5,46.1667 55.5,46.5C 54.3697,49.1367 54.3697,51.8033 55.5,54.5C 54.391,54.5569 53.391,54.8902 52.5,55.5C 52.5,55.1667 52.5,54.8333 52.5,54.5C 51.3697,51.8633 51.3697,49.1967 52.5,46.5C 51.0413,46.4326 49.7079,46.7659 48.5,47.5C 47.8333,47.5 47.5,47.1667 47.5,46.5C 48.1667,46.5 48.5,46.1667 48.5,45.5C 48.8333,45.5 49.1667,45.5 49.5,45.5C 51.6112,44.6201 53.6112,44.6201 55.5,45.5 Z"/></g>
<g><path style="opacity:1" fill="#dbd8eb" d="M 55.5,46.5 C 55.5,46.1667 55.5,45.8333 55.5,45.5C 59.8333,45.5 64.1667,45.5 68.5,45.5C 67.752,48.9046 66.752,52.2379 65.5,55.5C 65.1667,55.5 64.8333,55.5 64.5,55.5C 64.6309,54.6236 64.2975,53.9569 63.5,53.5C 58.3345,55.3263 56.3345,53.6596 57.5,48.5C 57.2528,47.2867 56.5862,46.62 55.5,46.5 Z"/></g>
<g><path style="opacity:1" fill="#c0c1bd" d="M 80.5,49.5 C 78.1985,48.1402 76.5318,48.8068 75.5,51.5C 77.9732,52.7969 80.3066,52.7969 82.5,51.5C 83.2389,51.369 83.9056,51.5357 84.5,52C 83.4293,52.8518 82.4293,53.6851 81.5,54.5C 78.6802,54.7525 76.0135,54.2525 73.5,53C 72.6634,51.9887 72.33,50.8221 72.5,49.5C 73.5,49.5 74.5,49.5 75.5,49.5C 75.238,48.0222 75.5713,46.6888 76.5,45.5C 79.9301,44.2578 81.2634,45.5911 80.5,49.5 Z"/></g>
<g><path style="opacity:1" fill="#dfc1d3" d="M 9.5,33.5 C 10.8999,34.0998 11.8999,35.0998 12.5,36.5C 12.5,36.8333 12.5,37.1667 12.5,37.5C 13.5272,39.184 14.5272,40.8506 15.5,42.5C 12.9749,45.6912 12.9749,48.6912 15.5,51.5C 15.1667,52.1667 14.8333,52.8333 14.5,53.5C 12.8958,54.287 12.2291,55.6203 12.5,57.5C 18.5,57.5 24.5,57.5 30.5,57.5C 30.5,58.1667 30.8333,58.5 31.5,58.5C 28.8357,59.3966 26.5024,60.73 24.5,62.5C 20.3676,62.2586 16.5343,61.2586 13,59.5C 12.3292,60.2524 11.4959,60.5858 10.5,60.5C 10.5,59.5 10.5,58.5 10.5,57.5C 10.825,49.9809 10.4916,42.6476 9.5,35.5C 9.5,34.8333 9.5,34.1667 9.5,33.5 Z"/></g>
<g><path style="opacity:1" fill="#949792" d="M 26.5,51.5 C 27.1667,51.5 27.5,51.8333 27.5,52.5C 25.2532,52.9153 23.0865,53.5819 21,54.5C 18.863,53.9233 16.6963,53.59 14.5,53.5C 14.8333,52.8333 15.1667,52.1667 15.5,51.5C 16.1667,51.5 16.8333,51.5 17.5,51.5C 18.0627,49.6805 19.2294,48.3471 21,47.5C 23.1496,48.5171 24.983,49.8504 26.5,51.5 Z"/></g>
<g><path style="opacity:1" fill="#5e5f52" d="M 80.5,49.5 C 81.5,49.8333 82.1667,50.5 82.5,51.5C 80.3066,52.7969 77.9732,52.7969 75.5,51.5C 76.5318,48.8068 78.1985,48.1402 80.5,49.5 Z"/></g>
<g><path style="opacity:1" fill="#707278" d="M 45.5,52.5 C 45.2671,54.0618 44.6005,55.3951 43.5,56.5C 42.8333,56.8333 42.1667,57.1667 41.5,57.5C 36.6155,57.1036 36.2822,55.6036 40.5,53C 42.1341,52.5065 43.8008,52.3398 45.5,52.5 Z"/></g>
<g><path style="opacity:1" fill="#c8bed4" d="M 48.5,48.5 C 46.369,49.3138 44.0356,49.8138 41.5,50C 42.8584,50.9344 44.1917,51.7677 45.5,52.5C 43.8008,52.3398 42.1341,52.5065 40.5,53C 36.2822,55.6036 36.6155,57.1036 41.5,57.5C 40.0998,58.1001 39.0998,59.1001 38.5,60.5C 36.847,60.3404 35.5137,59.6737 34.5,58.5C 36.1628,56.5615 36.8294,54.2282 36.5,51.5C 36.5,50.5 36.5,49.5 36.5,48.5C 40.5,48.5 44.5,48.5 48.5,48.5 Z"/></g>
<g><path style="opacity:1" fill="#4e4e44" d="M 27.5,52.5 C 27.8333,52.5 28.1667,52.5 28.5,52.5C 29.968,53.7791 30.6347,55.4458 30.5,57.5C 24.5,57.5 18.5,57.5 12.5,57.5C 12.2291,55.6203 12.8958,54.287 14.5,53.5C 16.6963,53.59 18.863,53.9233 21,54.5C 23.0865,53.5819 25.2532,52.9153 27.5,52.5 Z"/></g>
<g><path style="opacity:1" fill="#dec2d7" d="M 34.5,43.5 C 34.5792,44.9305 34.2458,46.2638 33.5,47.5C 34.6937,48.7992 35.6937,50.1325 36.5,51.5C 36.8294,54.2282 36.1628,56.5615 34.5,58.5C 33.5,58.5 32.5,58.5 31.5,58.5C 31.3345,54.4862 31.5012,50.4862 32,46.5C 32.8518,45.4293 33.6851,44.4293 34.5,43.5 Z"/></g>
<g><path style="opacity:1" fill="#c0c3eb" d="M 55.5,54.5 C 58.5902,55.665 59.9236,57.9983 59.5,61.5C 56.5,61.5 53.5,61.5 50.5,61.5C 48.5,60.1667 46.5,58.8333 44.5,57.5C 45.791,57.7373 46.791,57.404 47.5,56.5C 49.4147,56.7845 51.0813,56.4511 52.5,55.5C 53.391,54.8902 54.391,54.5569 55.5,54.5 Z"/></g>
<g><path style="opacity:1" fill="#d1cde8" d="M 55.5,46.5 C 56.5862,46.62 57.2528,47.2867 57.5,48.5C 56.3345,53.6596 58.3345,55.3263 63.5,53.5C 64.2975,53.9569 64.6309,54.6236 64.5,55.5C 63.2869,56.9524 63.6203,58.2857 65.5,59.5C 63.8554,60.6963 62.1887,61.6963 60.5,62.5C 58.1667,62.5 55.8333,62.5 53.5,62.5C 51.3523,62.3894 51.019,63.056 52.5,64.5C 52.0431,65.2975 51.3764,65.6309 50.5,65.5C 50.5,64.1667 50.5,62.8333 50.5,61.5C 53.5,61.5 56.5,61.5 59.5,61.5C 59.9236,57.9983 58.5902,55.665 55.5,54.5C 54.3697,51.8033 54.3697,49.1367 55.5,46.5 Z"/></g>
<g><path style="opacity:1" fill="#e5cbe0" d="M 70.5,53.5 C 72.9118,53.6941 73.9118,55.0274 73.5,57.5C 71.2341,57.1412 69.4007,57.8078 68,59.5C 66.955,58.6266 66.1217,57.6266 65.5,56.5C 66.6697,54.7215 68.3364,53.7215 70.5,53.5 Z"/></g>
<g><path style="opacity:1" fill="#9197b0" d="M 45.5,52.5 C 46.3149,53.4293 47.1482,54.4293 48,55.5C 49.3561,54.6198 50.8561,54.2865 52.5,54.5C 52.5,54.8333 52.5,55.1667 52.5,55.5C 51.0813,56.4511 49.4147,56.7845 47.5,56.5C 46.1667,56.5 44.8333,56.5 43.5,56.5C 44.6005,55.3951 45.2671,54.0618 45.5,52.5 Z"/></g>
<g><path style="opacity:1" fill="#e5dde9" d="M 72.5,44.5 C 73.1667,44.5 73.8333,44.5 74.5,44.5C 73.0582,45.8195 72.3915,47.4862 72.5,49.5C 72.33,50.8221 72.6634,51.9887 73.5,53C 76.0135,54.2525 78.6802,54.7525 81.5,54.5C 82.8333,54.5 84.1667,54.5 85.5,54.5C 85.5,55.5 85.5,56.5 85.5,57.5C 85.5,57.8333 85.5,58.1667 85.5,58.5C 81.5662,57.6403 77.5662,57.307 73.5,57.5C 73.9118,55.0274 72.9118,53.6941 70.5,53.5C 70.3893,52.8826 70.056,52.3826 69.5,52C 71.02,49.6656 72.02,47.1656 72.5,44.5 Z"/></g>
<g><path style="opacity:1" fill="#d8cce5" d="M 64.5,55.5 C 64.8333,55.5 65.1667,55.5 65.5,55.5C 65.5,55.8333 65.5,56.1667 65.5,56.5C 66.1217,57.6266 66.955,58.6266 68,59.5C 69.4007,57.8078 71.2341,57.1412 73.5,57.5C 72.5975,60.3915 72.2641,63.3915 72.5,66.5C 72.1667,66.5 71.8333,66.5 71.5,66.5C 68.3107,65.8339 64.9773,65.1672 61.5,64.5C 61.1373,63.8165 60.8039,63.1499 60.5,62.5C 62.1887,61.6963 63.8554,60.6963 65.5,59.5C 63.6203,58.2857 63.2869,56.9524 64.5,55.5 Z"/></g>
<g><path style="opacity:1" fill="#a28f99" d="M 31.5,58.5 C 32.5,58.5 33.5,58.5 34.5,58.5C 35.5137,59.6737 36.847,60.3404 38.5,60.5C 45.1667,60.8333 45.1667,61.1667 38.5,61.5C 35.6717,60.5033 33.005,60.5033 30.5,61.5C 28.5,61.8333 26.5,62.1667 24.5,62.5C 26.5024,60.73 28.8357,59.3966 31.5,58.5 Z"/></g>
<g><path style="opacity:1" fill="#c4c0e3" d="M 44.5,57.5 C 46.5,58.8333 48.5,60.1667 50.5,61.5C 50.5,62.8333 50.5,64.1667 50.5,65.5C 48.1667,65.5 45.8333,65.5 43.5,65.5C 43.9195,63.9064 44.5862,62.4064 45.5,61C 44.9777,60.0497 44.311,59.2164 43.5,58.5C 43.6236,57.8933 43.9569,57.56 44.5,57.5 Z"/></g>
<g><path style="opacity:1" fill="#d7cee3" d="M 85.5,57.5 C 86.8333,58.8333 88.1667,58.8333 89.5,57.5C 89.5,60.5 89.5,63.5 89.5,66.5C 88.1667,66.5 86.8333,66.5 85.5,66.5C 85.5,63.8333 85.5,61.1667 85.5,58.5C 85.5,58.1667 85.5,57.8333 85.5,57.5 Z"/></g>
<g><path style="opacity:1" fill="#babbbe" d="M 73.5,57.5 C 77.5662,57.307 81.5662,57.6403 85.5,58.5C 85.5,61.1667 85.5,63.8333 85.5,66.5C 85.5,67.1667 85.5,67.8333 85.5,68.5C 83.9522,69.7943 81.9522,70.4609 79.5,70.5C 77.5,70.3333 75.5,70.1667 73.5,70C 72.6634,68.9887 72.33,67.8221 72.5,66.5C 72.2641,63.3915 72.5975,60.3915 73.5,57.5 Z"/></g>
<g><path style="opacity:1" fill="#739fa3" d="M 83.5,66.5 C 83.631,65.7611 83.4643,65.0944 83,64.5C 82.7216,65.4158 82.2216,66.0825 81.5,66.5C 81.5,64.8333 81.5,63.1667 81.5,61.5C 79.3792,61.3253 77.3792,61.6586 75.5,62.5C 74.8333,62.8333 74.1667,63.1667 73.5,63.5C 74.5882,59.2522 77.2548,57.7522 81.5,59C 84.1701,61.1828 84.8368,63.6828 83.5,66.5 Z"/></g>
<g><path style="opacity:1" fill="#edc9de" d="M 24.5,62.5 C 26.5,62.1667 28.5,61.8333 30.5,61.5C 31.8333,61.5 33.1667,61.5 34.5,61.5C 34.5,63.1667 34.5,64.8333 34.5,66.5C 32.323,66.4139 30.323,65.7472 28.5,64.5C 27.6143,65.325 27.281,66.325 27.5,67.5C 26.8333,67.5 26.1667,67.5 25.5,67.5C 25.5,66.1667 25.5,64.8333 25.5,63.5C 21.5,63.5 17.5,63.5 13.5,63.5C 13.5,64.8333 13.5,66.1667 13.5,67.5C 13.44,68.0431 13.1067,68.3764 12.5,68.5C 11.8243,67.3984 11.1577,66.3984 10.5,65.5C 10.5,63.8333 10.5,62.1667 10.5,60.5C 11.4959,60.5858 12.3292,60.2524 13,59.5C 16.5343,61.2586 20.3676,62.2586 24.5,62.5 Z"/></g>
<g><path style="opacity:1" fill="#c9c7e1" d="M 43.5,56.5 C 44.8333,56.5 46.1667,56.5 47.5,56.5C 46.791,57.404 45.791,57.7373 44.5,57.5C 43.9569,57.56 43.6236,57.8933 43.5,58.5C 44.311,59.2164 44.9777,60.0497 45.5,61C 44.5862,62.4064 43.9195,63.9064 43.5,65.5C 42.5,65.5 41.5,65.5 40.5,65.5C 38.8235,64.8166 38.1568,63.4832 38.5,61.5C 45.1667,61.1667 45.1667,60.8333 38.5,60.5C 39.0998,59.1001 40.0998,58.1001 41.5,57.5C 42.1667,57.1667 42.8333,56.8333 43.5,56.5 Z"/></g>
<g><path style="opacity:1" fill="#868281" d="M 81.5,66.5 C 79.5,66.5 77.5,66.5 75.5,66.5C 75.5,65.1667 75.5,63.8333 75.5,62.5C 77.3792,61.6586 79.3792,61.3253 81.5,61.5C 81.5,63.1667 81.5,64.8333 81.5,66.5 Z"/></g>
<g><path style="opacity:1" fill="#d2afbe" d="M 25.5,67.5 C 21.3204,67.2378 17.3204,67.2378 13.5,67.5C 13.5,66.1667 13.5,64.8333 13.5,63.5C 17.5,63.5 21.5,63.5 25.5,63.5C 25.5,64.8333 25.5,66.1667 25.5,67.5 Z"/></g>
<g><path style="opacity:1" fill="#dac6df" d="M 53.5,62.5 C 53.3691,63.3764 53.7025,64.0431 54.5,64.5C 56.198,63.3192 57.8647,63.3192 59.5,64.5C 57.7086,65.1698 56.0419,65.8365 54.5,66.5C 49.8333,66.5 45.1667,66.5 40.5,66.5C 40.5,66.1667 40.5,65.8333 40.5,65.5C 41.5,65.5 42.5,65.5 43.5,65.5C 45.8333,65.5 48.1667,65.5 50.5,65.5C 51.3764,65.6309 52.0431,65.2975 52.5,64.5C 51.019,63.056 51.3523,62.3894 53.5,62.5 Z"/></g>
<g><path style="opacity:1" fill="#dec7dd" d="M 30.5,61.5 C 33.005,60.5033 35.6717,60.5033 38.5,61.5C 38.1568,63.4832 38.8235,64.8166 40.5,65.5C 40.5,65.8333 40.5,66.1667 40.5,66.5C 40.1667,66.5 39.8333,66.5 39.5,66.5C 37.8333,66.5 36.1667,66.5 34.5,66.5C 34.5,64.8333 34.5,63.1667 34.5,61.5C 33.1667,61.5 31.8333,61.5 30.5,61.5 Z"/></g>
<g><path style="opacity:1" fill="#e0cde2" d="M 53.5,62.5 C 55.8333,62.5 58.1667,62.5 60.5,62.5C 60.8039,63.1499 61.1373,63.8165 61.5,64.5C 64.9773,65.1672 68.3107,65.8339 71.5,66.5C 70.8333,66.5 70.1667,66.5 69.5,66.5C 64.5,66.5 59.5,66.5 54.5,66.5C 56.0419,65.8365 57.7086,65.1698 59.5,64.5C 57.8647,63.3192 56.198,63.3192 54.5,64.5C 53.7025,64.0431 53.3691,63.3764 53.5,62.5 Z"/></g>
<g><path style="opacity:1" fill="#70a2a4" d="M 75.5,62.5 C 75.5,63.8333 75.5,65.1667 75.5,66.5C 77.5,66.5 79.5,66.5 81.5,66.5C 82.2216,66.0825 82.7216,65.4158 83,64.5C 83.4643,65.0944 83.631,65.7611 83.5,66.5C 80.8648,69.9067 77.8648,70.2401 74.5,67.5C 73.7542,66.2638 73.4208,64.9305 73.5,63.5C 74.1667,63.1667 74.8333,62.8333 75.5,62.5 Z"/></g>
<g><path style="opacity:1" fill="#f1ccdd" d="M 39.5,66.5 C 39.8333,66.5 40.1667,66.5 40.5,66.5C 45.1667,66.5 49.8333,66.5 54.5,66.5C 59.5,66.5 64.5,66.5 69.5,66.5C 68.791,67.404 67.791,67.7373 66.5,67.5C 63.5181,68.4963 60.5181,68.663 57.5,68C 56.0267,68.7096 55.3601,69.8762 55.5,71.5C 53.8333,71.5 52.1667,71.5 50.5,71.5C 50.5,70.8333 50.5,70.1667 50.5,69.5C 47.5,68.1667 44.5,68.1667 41.5,69.5C 38.7524,69.5983 38.0857,68.5983 39.5,66.5 Z"/></g>
<g><path style="opacity:1" fill="#f2cbde" d="M 34.5,66.5 C 36.1667,66.5 37.8333,66.5 39.5,66.5C 38.0857,68.5983 38.7524,69.5983 41.5,69.5C 41.5271,71.1993 42.1938,72.5326 43.5,73.5C 38.9677,73.1818 34.6344,73.5151 30.5,74.5C 29.5,74.5 28.5,74.5 27.5,74.5C 27.5,74.1667 27.5,73.8333 27.5,73.5C 27.5,71.5 27.5,69.5 27.5,67.5C 27.281,66.325 27.6143,65.325 28.5,64.5C 30.323,65.7472 32.323,66.4139 34.5,66.5 Z"/></g>
<g><path style="opacity:1" fill="#f0cdde" d="M 10.5,65.5 C 11.1577,66.3984 11.8243,67.3984 12.5,68.5C 13.1067,68.3764 13.44,68.0431 13.5,67.5C 17.3204,67.2378 21.3204,67.2378 25.5,67.5C 21.8747,69.228 18.2081,69.8947 14.5,69.5C 13.7611,69.369 13.0944,69.5357 12.5,70C 13.8398,72.1489 13.1731,73.3155 10.5,73.5C 10.5,70.8333 10.5,68.1667 10.5,65.5 Z"/></g>
<g><path style="opacity:1" fill="#f3cce3" d="M 25.5,67.5 C 26.1667,67.5 26.8333,67.5 27.5,67.5C 27.5,69.5 27.5,71.5 27.5,73.5C 22.3172,74.4653 17.9839,73.132 14.5,69.5C 18.2081,69.8947 21.8747,69.228 25.5,67.5 Z"/></g>
<g><path style="opacity:1" fill="#f2cade" d="M 50.5,69.5 C 48.8235,70.1834 48.1568,71.5168 48.5,73.5C 46.8333,73.5 45.1667,73.5 43.5,73.5C 42.1938,72.5326 41.5271,71.1993 41.5,69.5C 44.5,68.1667 47.5,68.1667 50.5,69.5 Z"/></g>
<g><path style="opacity:1" fill="#f0cddf" d="M 71.5,66.5 C 71.8333,66.5 72.1667,66.5 72.5,66.5C 72.33,67.8221 72.6634,68.9887 73.5,70C 75.5,70.1667 77.5,70.3333 79.5,70.5C 81.9522,70.4609 83.9522,69.7943 85.5,68.5C 86.6477,67.105 87.6477,67.2716 88.5,69C 86.9632,70.1096 86.2965,71.6096 86.5,73.5C 81.977,72.3592 77.6437,72.6926 73.5,74.5C 66.8333,74.5 60.1667,74.5 53.5,74.5C 56.6248,73.5206 59.9581,73.1872 63.5,73.5C 65.8568,73.6633 68.1902,73.4966 70.5,73C 69.8333,72.6667 69.1667,72.3333 68.5,72C 70.1742,70.4941 71.1742,68.6607 71.5,66.5 Z"/></g>
<g><path style="opacity:1" fill="#efd1e4" d="M 14.5,69.5 C 17.9839,73.132 22.3172,74.4653 27.5,73.5C 27.5,73.8333 27.5,74.1667 27.5,74.5C 21.642,74.8222 15.9753,74.4889 10.5,73.5C 13.1731,73.3155 13.8398,72.1489 12.5,70C 13.0944,69.5357 13.7611,69.369 14.5,69.5 Z"/></g>
<g><path style="opacity:1" fill="#f3cddf" d="M 66.5,67.5 C 66.5,69.1667 66.5,70.8333 66.5,72.5C 65.209,72.2627 64.209,72.596 63.5,73.5C 59.9581,73.1872 56.6248,73.5206 53.5,74.5C 53.1667,74.5 52.8333,74.5 52.5,74.5C 51.4489,73.7777 50.7822,72.7777 50.5,71.5C 52.1667,71.5 53.8333,71.5 55.5,71.5C 55.3601,69.8762 56.0267,68.7096 57.5,68C 60.5181,68.663 63.5181,68.4963 66.5,67.5 Z"/></g>
<g><path style="opacity:1" fill="#f5cee0" d="M 69.5,66.5 C 70.1667,66.5 70.8333,66.5 71.5,66.5C 71.1742,68.6607 70.1742,70.4941 68.5,72C 69.1667,72.3333 69.8333,72.6667 70.5,73C 68.1902,73.4966 65.8568,73.6633 63.5,73.5C 64.209,72.596 65.209,72.2627 66.5,72.5C 66.5,70.8333 66.5,69.1667 66.5,67.5C 67.791,67.7373 68.791,67.404 69.5,66.5 Z"/></g>
<g><path style="opacity:1" fill="#edccde" d="M 50.5,69.5 C 50.5,70.1667 50.5,70.8333 50.5,71.5C 50.7822,72.7777 51.4489,73.7777 52.5,74.5C 50.1667,74.5 47.8333,74.5 45.5,74.5C 40.5,74.5 35.5,74.5 30.5,74.5C 34.6344,73.5151 38.9677,73.1818 43.5,73.5C 45.1667,73.5 46.8333,73.5 48.5,73.5C 48.1568,71.5168 48.8235,70.1834 50.5,69.5 Z"/></g>
<g><path style="opacity:1" fill="#e9d0df" d="M 85.5,66.5 C 86.8333,66.5 88.1667,66.5 89.5,66.5C 89.5,68.8333 89.5,71.1667 89.5,73.5C 84.2599,74.4491 78.9265,74.7825 73.5,74.5C 77.6437,72.6926 81.977,72.3592 86.5,73.5C 86.2965,71.6096 86.9632,70.1096 88.5,69C 87.6477,67.2716 86.6477,67.105 85.5,68.5C 85.5,67.8333 85.5,67.1667 85.5,66.5 Z"/></g>
<g><path style="opacity:0.761" fill="#e4d3e1" d="M 9.5,57.5 C 9.83333,57.5 10.1667,57.5 10.5,57.5C 10.5,58.5 10.5,59.5 10.5,60.5C 10.5,62.1667 10.5,63.8333 10.5,65.5C 10.5,68.1667 10.5,70.8333 10.5,73.5C 15.9753,74.4889 21.642,74.8222 27.5,74.5C 28.5,74.5 29.5,74.5 30.5,74.5C 35.5,74.5 40.5,74.5 45.5,74.5C 45.5,74.8333 45.5,75.1667 45.5,75.5C 33.5,75.5 21.5,75.5 9.5,75.5C 9.39031,69.2894 9.39031,63.2894 9.5,57.5 Z"/></g>
<g><path style="opacity:0.761" fill="#f9ecf6" d="M 89.5,73.5 C 75.2048,75.4833 60.5381,76.1499 45.5,75.5C 45.5,75.1667 45.5,74.8333 45.5,74.5C 47.8333,74.5 50.1667,74.5 52.5,74.5C 52.8333,74.5 53.1667,74.5 53.5,74.5C 60.1667,74.5 66.8333,74.5 73.5,74.5C 78.9265,74.7825 84.2599,74.4491 89.5,73.5 Z"/></g>
</svg>
