<?xml version="1.0" encoding="UTF-8"?>
<!DOCTYPE svg PUBLIC "-//W3C//DTD SVG 1.1//EN" "http://www.w3.org/Graphics/SVG/1.1/DTD/svg11.dtd">
<svg xmlns="http://www.w3.org/2000/svg" version="1.1" width="100px" height="100px" style="shape-rendering:geometricPrecision; text-rendering:geometricPrecision; image-rendering:optimizeQuality; fill-rule:evenodd; clip-rule:evenodd" xmlns:xlink="http://www.w3.org/1999/xlink">
<g><path style="opacity:1" fill="#fba000" d="M 40.5,28.5 C 39.1667,28.5 37.8333,28.5 36.5,28.5C 32.2984,28.1832 28.2984,28.5166 24.5,29.5C 20.4023,30.2719 17.069,32.2719 14.5,35.5C 12.9519,35.8212 12.2852,36.8212 12.5,38.5C 11.5,38.5 10.5,38.5 9.5,38.5C 15.6956,28.5873 24.6956,24.754 36.5,27C 38.0581,27.21 39.3915,27.71 40.5,28.5 Z"/></g>
<g><path style="opacity:1" fill="#488f0e" d="M 74.5,27.5 C 74.5,28.1667 74.5,28.8333 74.5,29.5C 67.9788,28.2276 67.9788,27.5609 74.5,27.5 Z"/></g>
<g><path style="opacity:1" fill="#fef2a1" d="M 24.5,29.5 C 28.2984,28.5166 32.2984,28.1832 36.5,28.5C 41.3023,30.4013 45.6357,33.068 49.5,36.5C 49.5,37.1667 49.5,37.8333 49.5,38.5C 49.1667,38.5 48.8333,38.5 48.5,38.5C 46.2253,34.6927 42.8919,32.3593 38.5,31.5C 37.1667,31.1667 35.8333,30.8333 34.5,30.5C 32.3926,29.5318 30.0593,29.1984 27.5,29.5C 26.5,29.5 25.5,29.5 24.5,29.5 Z"/></g>
<g><path style="opacity:1" fill="#feaf00" d="M 36.5,28.5 C 37.8333,28.5 39.1667,28.5 40.5,28.5C 44.3577,29.932 48.0244,31.5987 51.5,33.5C 53.1059,34.3591 54.7725,34.5258 56.5,34C 55.3636,35.1451 54.3636,36.3117 53.5,37.5C 52.5178,36.8592 51.5178,36.1925 50.5,35.5C 49.8933,35.6236 49.56,35.9569 49.5,36.5C 45.6357,33.068 41.3023,30.4013 36.5,28.5 Z"/></g>
<g><path style="opacity:1" fill="#f9be01" d="M 79.5,27.5 C 77.8333,27.5 76.1667,27.5 74.5,27.5C 67.9788,27.5609 67.9788,28.2276 74.5,29.5C 74.5,29.8333 74.5,30.1667 74.5,30.5C 71.4212,30.7399 68.4212,30.4066 65.5,29.5C 63.1507,31.2038 62.1507,33.5371 62.5,36.5C 62.2865,38.1439 62.6198,39.6439 63.5,41C 62.1807,41.195 60.8474,41.0283 59.5,40.5C 58.2335,38.3057 58.2335,35.9724 59.5,33.5C 58.4688,32.2997 57.6355,30.9663 57,29.5C 56.3292,30.2524 55.4959,30.5858 54.5,30.5C 56.6489,28.2542 59.3156,26.7542 62.5,26C 68.4363,25.0574 74.103,25.5574 79.5,27.5 Z"/></g>
<g><path style="opacity:1" fill="#ffe176" d="M 24.5,29.5 C 21.211,31.7713 17.8777,34.1046 14.5,36.5C 14.5,36.1667 14.5,35.8333 14.5,35.5C 17.069,32.2719 20.4023,30.2719 24.5,29.5 Z"/></g>
<g><path style="opacity:1" fill="#ff9002" d="M 27.5,29.5 C 30.0593,29.1984 32.3926,29.5318 34.5,30.5C 33.6676,31.3285 34.001,32.1618 35.5,33C 34.0931,35.8261 32.4265,38.3261 30.5,40.5C 31.7951,37.7451 30.7951,36.0784 27.5,35.5C 25.6064,31.7737 25.273,32.107 26.5,36.5C 25.3128,37.5195 24.3128,38.6861 23.5,40C 21.9343,40.2997 20.601,39.7997 19.5,38.5C 21.1918,35.2374 23.8585,32.2374 27.5,29.5 Z"/></g>
<g><path style="opacity:1" fill="#ff7d00" d="M 38.5,31.5 C 42.8919,32.3593 46.2253,34.6927 48.5,38.5C 47.8288,39.8471 47.8288,41.0138 48.5,42C 44.6221,42.9486 44.6221,44.1153 48.5,45.5C 48.3764,46.1067 48.0431,46.44 47.5,46.5C 45.0845,46.4442 42.7512,46.1108 40.5,45.5C 39.6919,45.8076 39.0253,46.3076 38.5,47C 39.4506,47.7175 39.6172,48.5509 39,49.5C 37.9614,48.7562 37.4614,47.7562 37.5,46.5C 41.4489,44.9855 44.7822,42.4855 47.5,39C 45.892,38.342 44.7253,38.842 44,40.5C 43.1389,39.2524 42.6389,37.9191 42.5,36.5C 41.5449,34.2901 40.0449,33.9568 38,35.5C 37.4209,34.0715 37.5876,32.7382 38.5,31.5 Z"/></g>
<g><path style="opacity:1" fill="#fea500" d="M 74.5,27.5 C 76.1667,27.5 77.8333,27.5 79.5,27.5C 82.6743,28.0102 85.0077,29.6769 86.5,32.5C 85.9569,32.56 85.6236,32.8933 85.5,33.5C 86.1667,34.5 86.8333,35.5 87.5,36.5C 85.4558,38.0683 85.1224,39.9017 86.5,42C 86.2413,46.3964 84.2413,49.563 80.5,51.5C 80.0618,51.5654 79.7284,51.3988 79.5,51C 81.1922,49.5993 81.8588,47.7659 81.5,45.5C 82.547,44.9222 82.3803,44.2555 81,43.5C 80.2825,44.4506 79.4491,44.6172 78.5,44C 79.2524,43.3292 79.5858,42.4959 79.5,41.5C 80.7566,38.4959 82.4233,35.6625 84.5,33C 83.3474,31.117 81.6807,30.2837 79.5,30.5C 77.9582,29.6993 76.2915,29.366 74.5,29.5C 74.5,28.8333 74.5,28.1667 74.5,27.5 Z"/></g>
<g><path style="opacity:1" fill="#feb300" d="M 59.5,40.5 C 60.8333,41.5 60.8333,42.5 59.5,43.5C 58.1751,42.0474 57.3418,42.3808 57,44.5C 55.295,42.4234 54.1283,40.09 53.5,37.5C 54.3636,36.3117 55.3636,35.1451 56.5,34C 54.7725,34.5258 53.1059,34.3591 51.5,33.5C 52.1667,32.1667 53.1667,31.1667 54.5,30.5C 55.4959,30.5858 56.3292,30.2524 57,29.5C 57.6355,30.9663 58.4688,32.2997 59.5,33.5C 58.2335,35.9724 58.2335,38.3057 59.5,40.5 Z"/></g>
<g><path style="opacity:1" fill="#ff9507" d="M 24.5,29.5 C 25.5,29.5 26.5,29.5 27.5,29.5C 23.8585,32.2374 21.1918,35.2374 19.5,38.5C 19.5,38.8333 19.5,39.1667 19.5,39.5C 18.2223,39.7822 17.2223,40.4489 16.5,41.5C 13.297,41.6815 11.4637,43.3482 11,46.5C 10.5357,45.9056 10.369,45.2389 10.5,44.5C 10.5569,43.391 10.8902,42.391 11.5,41.5C 13.047,40.2318 14.047,38.5652 14.5,36.5C 17.8777,34.1046 21.211,31.7713 24.5,29.5 Z"/></g>
<g><path style="opacity:1" fill="#fee794" d="M 76.5,33.5 C 77.0431,33.56 77.3764,33.8933 77.5,34.5C 76.7261,35.7112 75.8928,35.7112 75,34.5C 74.5899,35.9007 74.0899,37.234 73.5,38.5C 71.8333,37.8333 70.1667,37.1667 68.5,36.5C 68.0472,35.5416 67.3805,34.7083 66.5,34C 68.0441,33.7104 69.3774,33.0437 70.5,32C 72.7163,31.6066 74.7163,32.1066 76.5,33.5 Z"/></g>
<g><path style="opacity:1" fill="#ffc308" d="M 74.5,30.5 C 74.5,30.1667 74.5,29.8333 74.5,29.5C 76.2915,29.366 77.9582,29.6993 79.5,30.5C 79.7135,32.1439 79.3802,33.6439 78.5,35C 79.1667,35.6667 79.8333,36.3333 80.5,37C 79.062,37.2189 77.7287,37.7189 76.5,38.5C 78.9248,39.6493 78.9248,40.316 76.5,40.5C 74.4884,41.0138 72.4884,41.1805 70.5,41C 71.9423,40.6232 72.9423,39.7899 73.5,38.5C 74.0899,37.234 74.5899,35.9007 75,34.5C 75.8928,35.7112 76.7261,35.7112 77.5,34.5C 77.3764,33.8933 77.0431,33.56 76.5,33.5C 77.4908,31.8773 76.8241,30.8773 74.5,30.5 Z"/></g>
<g><path style="opacity:1" fill="#ff8700" d="M 34.5,30.5 C 35.8333,30.8333 37.1667,31.1667 38.5,31.5C 37.5876,32.7382 37.4209,34.0715 38,35.5C 40.0449,33.9568 41.5449,34.2901 42.5,36.5C 40.8839,37.9892 38.8839,38.9892 36.5,39.5C 36.0814,40.6721 35.4147,41.6721 34.5,42.5C 33.5712,41.4502 32.9046,41.4502 32.5,42.5C 31.5489,43.9187 31.2155,45.5853 31.5,47.5C 31.1667,47.5 30.8333,47.5 30.5,47.5C 29.9329,45.302 29.9329,42.9686 30.5,40.5C 32.4265,38.3261 34.0931,35.8261 35.5,33C 34.001,32.1618 33.6676,31.3285 34.5,30.5 Z"/></g>
<g><path style="opacity:1" fill="#ffd328" d="M 74.5,30.5 C 76.8241,30.8773 77.4908,31.8773 76.5,33.5C 74.7163,32.1066 72.7163,31.6066 70.5,32C 69.3774,33.0437 68.0441,33.7104 66.5,34C 67.3805,34.7083 68.0472,35.5416 68.5,36.5C 68.6716,37.4916 68.3382,38.1583 67.5,38.5C 66.2502,38.5774 65.4169,39.244 65,40.5C 64.0656,39.1416 63.2323,37.8083 62.5,36.5C 62.1507,33.5371 63.1507,31.2038 65.5,29.5C 68.4212,30.4066 71.4212,30.7399 74.5,30.5 Z"/></g>
<g><path style="opacity:1" fill="#ffb600" d="M 79.5,30.5 C 81.6807,30.2837 83.3474,31.117 84.5,33C 82.4233,35.6625 80.7566,38.4959 79.5,41.5C 78.391,41.5569 77.391,41.8902 76.5,42.5C 76.5,41.8333 76.5,41.1667 76.5,40.5C 78.9248,40.316 78.9248,39.6493 76.5,38.5C 77.7287,37.7189 79.062,37.2189 80.5,37C 79.8333,36.3333 79.1667,35.6667 78.5,35C 79.3802,33.6439 79.7135,32.1439 79.5,30.5 Z"/></g>
<g><path style="opacity:1" fill="#ff9b02" d="M 30.5,40.5 C 29.9329,42.9686 29.9329,45.302 30.5,47.5C 29.8333,47.5 29.1667,47.5 28.5,47.5C 27.7706,42.2963 25.4372,41.2963 21.5,44.5C 21.6085,42.4862 20.9418,40.8195 19.5,39.5C 19.5,39.1667 19.5,38.8333 19.5,38.5C 20.601,39.7997 21.9343,40.2997 23.5,40C 24.3128,38.6861 25.3128,37.5195 26.5,36.5C 25.273,32.107 25.6064,31.7737 27.5,35.5C 30.7951,36.0784 31.7951,37.7451 30.5,40.5 Z"/></g>
<g><path style="opacity:1" fill="#ffca01" d="M 68.5,36.5 C 70.1667,37.1667 71.8333,37.8333 73.5,38.5C 72.9423,39.7899 71.9423,40.6232 70.5,41C 72.4884,41.1805 74.4884,41.0138 76.5,40.5C 76.5,41.1667 76.5,41.8333 76.5,42.5C 72.7127,42.9154 69.0461,42.9154 65.5,42.5C 66.8062,41.5326 67.4729,40.1993 67.5,38.5C 68.3382,38.1583 68.6716,37.4916 68.5,36.5 Z"/></g>
<g><path style="opacity:1" fill="#fe9300" d="M 86.5,32.5 C 87.8333,33.1667 88.8333,34.1667 89.5,35.5C 88.9569,35.56 88.6236,35.8933 88.5,36.5C 89.1799,37.8599 89.8466,39.1932 90.5,40.5C 88.3553,44.2193 86.0219,47.886 83.5,51.5C 84.8114,52.2575 85.3114,53.2575 85,54.5C 84.2588,55.6405 83.4255,55.6405 82.5,54.5C 81.8182,55.2427 81.1515,55.9094 80.5,56.5C 80.4226,55.2502 79.756,54.4169 78.5,54C 79.4158,53.7216 80.0825,53.2216 80.5,52.5C 80.5,52.1667 80.5,51.8333 80.5,51.5C 84.2413,49.563 86.2413,46.3964 86.5,42C 85.1224,39.9017 85.4558,38.0683 87.5,36.5C 86.8333,35.5 86.1667,34.5 85.5,33.5C 85.6236,32.8933 85.9569,32.56 86.5,32.5 Z"/></g>
<g><path style="opacity:1" fill="#ff9b06" d="M 42.5,36.5 C 42.6389,37.9191 43.1389,39.2524 44,40.5C 44.7253,38.842 45.892,38.342 47.5,39C 44.7822,42.4855 41.4489,44.9855 37.5,46.5C 36.316,44.5901 34.816,44.2568 33,45.5C 32.5172,44.552 32.3505,43.552 32.5,42.5C 32.9046,41.4502 33.5712,41.4502 34.5,42.5C 35.4147,41.6721 36.0814,40.6721 36.5,39.5C 38.8839,38.9892 40.8839,37.9892 42.5,36.5 Z"/></g>
<g><path style="opacity:1" fill="#ff7c00" d="M 19.5,39.5 C 20.9418,40.8195 21.6085,42.4862 21.5,44.5C 25.4372,41.2963 27.7706,42.2963 28.5,47.5C 25.7529,45.975 22.7529,44.975 19.5,44.5C 18.9478,46.0026 18.9478,47.6693 19.5,49.5C 20.5,49.5 21.5,49.5 22.5,49.5C 20.4402,50.8112 18.2735,50.8112 16,49.5C 15.5,50 15,50.5 14.5,51C 15.756,51.4169 16.4226,52.2502 16.5,53.5C 14.5,53.5 12.5,53.5 10.5,53.5C 10.7373,54.791 10.404,55.791 9.5,56.5C 9.5,53.5 9.5,50.5 9.5,47.5C 10.404,48.209 10.7373,49.209 10.5,50.5C 12.8669,49.8363 14.8669,48.503 16.5,46.5C 16.0233,45.5224 15.3567,44.6891 14.5,44C 15.756,43.5831 16.4226,42.7498 16.5,41.5C 17.2223,40.4489 18.2223,39.7822 19.5,39.5 Z"/></g>
<g><path style="opacity:1" fill="#ffaa00" d="M 53.5,37.5 C 54.1283,40.09 55.295,42.4234 57,44.5C 57.3418,42.3808 58.1751,42.0474 59.5,43.5C 59.3893,44.1174 59.056,44.6174 58.5,45C 60.6115,45.8447 62.6115,46.678 64.5,47.5C 63.8843,48.7978 63.8843,49.7978 64.5,50.5C 64.0919,51.6431 63.4252,52.6431 62.5,53.5C 62.4964,52.133 61.8297,50.633 60.5,49C 59.212,48.7613 58.212,49.2613 57.5,50.5C 57.6882,48.8967 57.1882,47.5634 56,46.5C 55.5357,47.0944 55.369,47.7611 55.5,48.5C 55.1667,48.5 54.8333,48.5 54.5,48.5C 54.7212,44.1316 53.0545,40.7983 49.5,38.5C 49.5,37.8333 49.5,37.1667 49.5,36.5C 49.56,35.9569 49.8933,35.6236 50.5,35.5C 51.5178,36.1925 52.5178,36.8592 53.5,37.5 Z"/></g>
<g><path style="opacity:1" fill="#ffb800" d="M 62.5,36.5 C 63.2323,37.8083 64.0656,39.1416 65,40.5C 65.4169,39.244 66.2502,38.5774 67.5,38.5C 67.4729,40.1993 66.8062,41.5326 65.5,42.5C 65.5271,44.1993 66.1938,45.5326 67.5,46.5C 66.391,46.5569 65.391,46.8902 64.5,47.5C 62.6115,46.678 60.6115,45.8447 58.5,45C 59.056,44.6174 59.3893,44.1174 59.5,43.5C 60.8333,42.5 60.8333,41.5 59.5,40.5C 60.8474,41.0283 62.1807,41.195 63.5,41C 62.6198,39.6439 62.2865,38.1439 62.5,36.5 Z"/></g>
<g><path style="opacity:1" fill="#ffb300" d="M 79.5,41.5 C 79.5858,42.4959 79.2524,43.3292 78.5,44C 79.4491,44.6172 80.2825,44.4506 81,43.5C 82.3803,44.2555 82.547,44.9222 81.5,45.5C 79.5201,46.4839 77.8534,47.8173 76.5,49.5C 75.8333,49.1667 75.1667,48.8333 74.5,48.5C 74.9175,47.7784 75.5842,47.2784 76.5,47C 74.5665,46.2174 73.0665,46.7174 72,48.5C 69.7639,46.3239 70.2639,44.9906 73.5,44.5C 74.8123,45.4604 76.1456,45.2937 77.5,44C 76.944,43.6174 76.6107,43.1174 76.5,42.5C 77.391,41.8902 78.391,41.5569 79.5,41.5 Z"/></g>
<g><path style="opacity:1" fill="#fe7f00" d="M 89.5,35.5 C 91.588,37.3356 92.9213,39.6689 93.5,42.5C 92.8826,42.3893 92.3826,42.056 92,41.5C 91.6116,45.2192 90.9449,48.8859 90,52.5C 89.7996,54.3197 88.9663,55.653 87.5,56.5C 87.1043,53.9556 87.771,51.7889 89.5,50C 88.0267,49.2904 87.3601,48.1238 87.5,46.5C 88.675,46.719 89.675,46.3857 90.5,45.5C 89.9478,43.9974 89.9478,42.3307 90.5,40.5C 89.8466,39.1932 89.1799,37.8599 88.5,36.5C 88.6236,35.8933 88.9569,35.56 89.5,35.5 Z"/></g>
<g><path style="opacity:1" fill="#ffbb00" d="M 65.5,42.5 C 69.0461,42.9154 72.7127,42.9154 76.5,42.5C 76.6107,43.1174 76.944,43.6174 77.5,44C 76.1456,45.2937 74.8123,45.4604 73.5,44.5C 70.2639,44.9906 69.7639,46.3239 72,48.5C 73.0665,46.7174 74.5665,46.2174 76.5,47C 75.5842,47.2784 74.9175,47.7784 74.5,48.5C 73.7387,49.3909 72.7387,50.0576 71.5,50.5C 70.3331,48.9208 68.9998,47.5875 67.5,46.5C 66.1938,45.5326 65.5271,44.1993 65.5,42.5 Z"/></g>
<g><path style="opacity:1" fill="#ffa10e" d="M 16.5,41.5 C 16.4226,42.7498 15.756,43.5831 14.5,44C 15.3567,44.6891 16.0233,45.5224 16.5,46.5C 14.8669,48.503 12.8669,49.8363 10.5,50.5C 10.7373,49.209 10.404,48.209 9.5,47.5C 9.26269,46.209 9.59603,45.209 10.5,44.5C 10.369,45.2389 10.5357,45.9056 11,46.5C 11.4637,43.3482 13.297,41.6815 16.5,41.5 Z"/></g>
<g><path style="opacity:1" fill="#ff9800" d="M 32.5,42.5 C 32.3505,43.552 32.5172,44.552 33,45.5C 34.816,44.2568 36.316,44.5901 37.5,46.5C 37.4614,47.7562 37.9614,48.7562 39,49.5C 39.6172,48.5509 39.4506,47.7175 38.5,47C 39.0253,46.3076 39.6919,45.8076 40.5,45.5C 42.7512,46.1108 45.0845,46.4442 47.5,46.5C 47.1667,47.1667 46.8333,47.8333 46.5,48.5C 42.8274,50.3177 38.8274,50.9843 34.5,50.5C 33.8333,49.8333 33.1667,49.1667 32.5,48.5C 32.5,47.8333 32.1667,47.5 31.5,47.5C 31.2155,45.5853 31.5489,43.9187 32.5,42.5 Z"/></g>
<g><path style="opacity:1" fill="#ffe37f" d="M 11.5,41.5 C 10.8902,42.391 10.5569,43.391 10.5,44.5C 9.59603,45.209 9.26269,46.209 9.5,47.5C 9.5,50.5 9.5,53.5 9.5,56.5C 10.7866,59.4061 11.7866,62.4061 12.5,65.5C 8.89256,61.5257 7.22589,56.6924 7.5,51C 7.47438,47.0768 8.64105,43.5768 11,40.5C 11.3988,40.7284 11.5654,41.0618 11.5,41.5 Z"/></g>
<g><path style="opacity:1" fill="#ffa41a" d="M 28.5,47.5 C 29.1667,47.5 29.8333,47.5 30.5,47.5C 30.8333,47.5 31.1667,47.5 31.5,47.5C 32.1667,47.5 32.5,47.8333 32.5,48.5C 31.6618,48.8417 31.3284,49.5084 31.5,50.5C 30.8333,50.5 30.1667,50.5 29.5,50.5C 29.1407,48.1688 28.474,48.3355 27.5,51C 28.3805,51.7083 29.0472,52.5416 29.5,53.5C 28.391,53.5569 27.391,53.8902 26.5,54.5C 26.4257,52.5891 25.4257,51.4224 23.5,51C 25.9316,49.9125 25.5983,49.4125 22.5,49.5C 21.5,49.5 20.5,49.5 19.5,49.5C 18.9478,47.6693 18.9478,46.0026 19.5,44.5C 22.7529,44.975 25.7529,45.975 28.5,47.5 Z"/></g>
<g><path style="opacity:1" fill="#ffa30b" d="M 48.5,38.5 C 48.8333,38.5 49.1667,38.5 49.5,38.5C 49.7329,40.0618 50.3995,41.3951 51.5,42.5C 50.2947,43.6719 50.2947,45.0052 51.5,46.5C 50.5585,46.4895 49.8919,46.9895 49.5,48C 50.7883,47.9733 51.7883,48.9733 52.5,51C 50.0699,51.2444 48.0699,50.411 46.5,48.5C 46.8333,47.8333 47.1667,47.1667 47.5,46.5C 48.0431,46.44 48.3764,46.1067 48.5,45.5C 44.6221,44.1153 44.6221,42.9486 48.5,42C 47.8288,41.0138 47.8288,39.8471 48.5,38.5 Z"/></g>
<g><path style="opacity:1" fill="#ff9104" d="M 22.5,49.5 C 25.5983,49.4125 25.9316,49.9125 23.5,51C 25.4257,51.4224 26.4257,52.5891 26.5,54.5C 25.6348,54.5639 24.6348,54.8973 23.5,55.5C 21.2489,54.9322 20.0822,53.9322 20,52.5C 18.8615,52.9891 17.6948,53.3225 16.5,53.5C 16.4226,52.2502 15.756,51.4169 14.5,51C 15,50.5 15.5,50 16,49.5C 18.2735,50.8112 20.4402,50.8112 22.5,49.5 Z"/></g>
<g><path style="opacity:1" fill="#ffa300" d="M 64.5,50.5 C 65.1667,50.5 65.5,50.8333 65.5,51.5C 66.0998,52.8999 67.0998,53.8999 68.5,54.5C 67.448,54.3505 66.448,54.5172 65.5,55C 66.7375,55.2321 67.7375,55.7321 68.5,56.5C 66.8621,57.1589 65.1955,57.8256 63.5,58.5C 62.8076,57.9747 62.3076,57.3081 62,56.5C 61.2825,57.4506 60.4491,57.6172 59.5,57C 58.7699,54.846 58.1032,52.6794 57.5,50.5C 58.212,49.2613 59.212,48.7613 60.5,49C 61.8297,50.633 62.4964,52.133 62.5,53.5C 63.4252,52.6431 64.0919,51.6431 64.5,50.5 Z"/></g>
<g><path style="opacity:1" fill="#ffb000" d="M 67.5,46.5 C 68.9998,47.5875 70.3331,48.9208 71.5,50.5C 72.7387,50.0576 73.7387,49.3909 74.5,48.5C 75.1667,48.8333 75.8333,49.1667 76.5,49.5C 73.928,53.9115 71.0946,54.2449 68,50.5C 67.0979,50.7432 66.2646,51.0766 65.5,51.5C 65.5,50.8333 65.1667,50.5 64.5,50.5C 63.8843,49.7978 63.8843,48.7978 64.5,47.5C 65.391,46.8902 66.391,46.5569 67.5,46.5 Z"/></g>
<g><path style="opacity:1" fill="#ffa700" d="M 81.5,45.5 C 81.8588,47.7659 81.1922,49.5993 79.5,51C 79.7284,51.3988 80.0618,51.5654 80.5,51.5C 80.5,51.8333 80.5,52.1667 80.5,52.5C 79.5,52.5 78.5,52.5 77.5,52.5C 77.5875,55.5983 77.0875,55.9316 76,53.5C 73.461,56.2342 70.961,56.5676 68.5,54.5C 67.0998,53.8999 66.0998,52.8999 65.5,51.5C 66.2646,51.0766 67.0979,50.7432 68,50.5C 71.0946,54.2449 73.928,53.9115 76.5,49.5C 77.8534,47.8173 79.5201,46.4839 81.5,45.5 Z"/></g>
<g><path style="opacity:1" fill="#ff9406" d="M 34.5,51.5 C 36.1667,51.5 37.8333,51.5 39.5,51.5C 39.3601,53.1238 40.0267,54.2904 41.5,55C 40.9683,57.0048 41.9683,58.1714 44.5,58.5C 46.7224,58.178 48.5557,58.8446 50,60.5C 50.6253,58.2929 51.4586,56.9596 52.5,56.5C 52.4484,59.3462 51.4484,61.6796 49.5,63.5C 47.2889,63.1023 44.9556,62.9357 42.5,63C 44.3963,61.9354 44.563,61.1021 43,60.5C 40.0615,64.5111 38.7282,64.1777 39,59.5C 37.9805,58.3128 36.8139,57.3128 35.5,56.5C 34.8933,56.6236 34.56,56.9569 34.5,57.5C 33.1667,57.5 32.5,56.8333 32.5,55.5C 34.1042,54.713 34.7709,53.3797 34.5,51.5 Z"/></g>
<g><path style="opacity:1" fill="#ff8203" d="M 51.5,42.5 C 53.485,46.059 53.8183,49.7256 52.5,53.5C 51.9222,54.547 51.2555,54.3803 50.5,53C 47.1994,52.0033 43.866,51.6699 40.5,52C 42.5,53 44.5,54 46.5,55C 43.8101,55.3345 43.1435,56.5012 44.5,58.5C 41.9683,58.1714 40.9683,57.0048 41.5,55C 40.0267,54.2904 39.3601,53.1238 39.5,51.5C 37.8333,51.5 36.1667,51.5 34.5,51.5C 34.5,51.1667 34.5,50.8333 34.5,50.5C 38.8274,50.9843 42.8274,50.3177 46.5,48.5C 48.0699,50.411 50.0699,51.2444 52.5,51C 51.7883,48.9733 50.7883,47.9733 49.5,48C 49.8919,46.9895 50.5585,46.4895 51.5,46.5C 50.2947,45.0052 50.2947,43.6719 51.5,42.5 Z"/></g>
<g><path style="opacity:1" fill="#fdf3ca" d="M 29.5,50.5 C 30.4376,53.0454 31.7709,53.5454 33.5,52C 32.9558,51.2828 32.2891,50.7828 31.5,50.5C 31.3284,49.5084 31.6618,48.8417 32.5,48.5C 33.1667,49.1667 33.8333,49.8333 34.5,50.5C 34.5,50.8333 34.5,51.1667 34.5,51.5C 34.7709,53.3797 34.1042,54.713 32.5,55.5C 31.2223,55.2178 30.2223,54.5511 29.5,53.5C 29.0472,52.5416 28.3805,51.7083 27.5,51C 28.474,48.3355 29.1407,48.1688 29.5,50.5 Z"/></g>
<g><path style="opacity:1" fill="#fd7102" d="M 29.5,50.5 C 30.1667,50.5 30.8333,50.5 31.5,50.5C 32.2891,50.7828 32.9558,51.2828 33.5,52C 31.7709,53.5454 30.4376,53.0454 29.5,50.5 Z"/></g>
<g><path style="opacity:1" fill="#ff9906" d="M 52.5,53.5 C 53.8333,54.5 53.8333,55.5 52.5,56.5C 51.4586,56.9596 50.6253,58.2929 50,60.5C 48.5557,58.8446 46.7224,58.178 44.5,58.5C 43.1435,56.5012 43.8101,55.3345 46.5,55C 44.5,54 42.5,53 40.5,52C 43.866,51.6699 47.1994,52.0033 50.5,53C 51.2555,54.3803 51.9222,54.547 52.5,53.5 Z"/></g>
<g><path style="opacity:1" fill="#ff9105" d="M 23.5,55.5 C 21.258,57.2054 21.258,59.2054 23.5,61.5C 21.4823,62.5088 19.4823,63.5088 17.5,64.5C 17.9195,62.9064 18.5862,61.4064 19.5,60C 18.2348,56.1912 16.2348,55.6912 13.5,58.5C 14.1667,59.1667 14.8333,59.8333 15.5,60.5C 14.0499,61.8498 13.3832,63.5165 13.5,65.5C 13.1667,65.5 12.8333,65.5 12.5,65.5C 11.7866,62.4061 10.7866,59.4061 9.5,56.5C 10.404,55.791 10.7373,54.791 10.5,53.5C 12.5,53.5 14.5,53.5 16.5,53.5C 17.6948,53.3225 18.8615,52.9891 20,52.5C 20.0822,53.9322 21.2489,54.9322 23.5,55.5 Z"/></g>
<g><path style="opacity:1" fill="#fe9000" d="M 57.5,50.5 C 58.1032,52.6794 58.7699,54.846 59.5,57C 60.4491,57.6172 61.2825,57.4506 62,56.5C 62.3076,57.3081 62.8076,57.9747 63.5,58.5C 65.1955,57.8256 66.8621,57.1589 68.5,56.5C 70.4478,57.1312 72.2811,58.1312 74,59.5C 75.0616,57.2054 76.5616,56.5388 78.5,57.5C 78.5,57.8333 78.5,58.1667 78.5,58.5C 77.0268,60.7715 74.8602,62.1048 72,62.5C 71.2828,61.9558 70.7828,61.2891 70.5,60.5C 68.2598,59.9527 65.9264,59.6194 63.5,59.5C 62.1667,60.1667 60.8333,60.8333 59.5,61.5C 58.8243,60.3984 58.1577,59.3984 57.5,58.5C 57.5,57.1667 56.8333,56.5 55.5,56.5C 55.5,53.8333 55.5,51.1667 55.5,48.5C 55.369,47.7611 55.5357,47.0944 56,46.5C 57.1882,47.5634 57.6882,48.8967 57.5,50.5 Z"/></g>
<g><path style="opacity:1" fill="#ff9c00" d="M 80.5,52.5 C 80.0825,53.2216 79.4158,53.7216 78.5,54C 79.756,54.4169 80.4226,55.2502 80.5,56.5C 79.5084,56.3284 78.8417,56.6618 78.5,57.5C 76.5616,56.5388 75.0616,57.2054 74,59.5C 72.2811,58.1312 70.4478,57.1312 68.5,56.5C 67.7375,55.7321 66.7375,55.2321 65.5,55C 66.448,54.5172 67.448,54.3505 68.5,54.5C 70.961,56.5676 73.461,56.2342 76,53.5C 77.0875,55.9316 77.5875,55.5983 77.5,52.5C 78.5,52.5 79.5,52.5 80.5,52.5 Z"/></g>
<g><path style="opacity:1" fill="#fd6c00" d="M 93.5,42.5 C 95.1428,46.2953 95.8094,50.2953 95.5,54.5C 94.6618,54.1583 94.3284,53.4916 94.5,52.5C 94.6602,50.8008 94.4935,49.1341 94,47.5C 92.3823,52.4193 90.2157,57.086 87.5,61.5C 83.3533,64.9067 78.6866,67.24 73.5,68.5C 75.751,67.1825 77.751,65.5158 79.5,63.5C 83.425,62.5733 86.0917,60.2399 87.5,56.5C 88.9663,55.653 89.7996,54.3197 90,52.5C 90.9449,48.8859 91.6116,45.2192 92,41.5C 92.3826,42.056 92.8826,42.3893 93.5,42.5 Z"/></g>
<g><path style="opacity:1" fill="#ff8100" d="M 29.5,53.5 C 27.0397,56.0842 25.873,59.0842 26,62.5C 26.5611,60.2746 27.5611,58.2746 29,56.5C 29.0422,59.2963 29.2088,61.963 29.5,64.5C 28.1667,64.5 27.5,65.1667 27.5,66.5C 27.5654,66.9382 27.3988,67.2716 27,67.5C 26.8413,65.6573 26.3413,64.9907 25.5,65.5C 24.5595,62.8749 23.3928,62.8749 22,65.5C 20.3967,65.1286 18.8967,64.7952 17.5,64.5C 19.4823,63.5088 21.4823,62.5088 23.5,61.5C 21.258,59.2054 21.258,57.2054 23.5,55.5C 24.6348,54.8973 25.6348,54.5639 26.5,54.5C 27.391,53.8902 28.391,53.5569 29.5,53.5 Z"/></g>
<g><path style="opacity:1" fill="#ff7f00" d="M 87.5,56.5 C 86.0917,60.2399 83.425,62.5733 79.5,63.5C 79.44,62.9569 79.1067,62.6236 78.5,62.5C 77.1255,63.7113 75.6255,64.7113 74,65.5C 71.0026,65.4233 68.0026,65.09 65,64.5C 63.0973,66.8206 61.5973,66.4873 60.5,63.5C 63.0215,62.2282 65.5215,61.8948 68,62.5C 69.0111,61.9444 69.8444,61.2778 70.5,60.5C 70.7828,61.2891 71.2828,61.9558 72,62.5C 74.8602,62.1048 77.0268,60.7715 78.5,58.5C 81.6641,58.1268 84.6641,57.4601 87.5,56.5 Z"/></g>
<g><path style="opacity:1" fill="#ff8700" d="M 90.5,40.5 C 89.9478,42.3307 89.9478,43.9974 90.5,45.5C 89.675,46.3857 88.675,46.719 87.5,46.5C 87.3601,48.1238 88.0267,49.2904 89.5,50C 87.771,51.7889 87.1043,53.9556 87.5,56.5C 84.6641,57.4601 81.6641,58.1268 78.5,58.5C 78.5,58.1667 78.5,57.8333 78.5,57.5C 78.8417,56.6618 79.5084,56.3284 80.5,56.5C 81.1515,55.9094 81.8182,55.2427 82.5,54.5C 83.4255,55.6405 84.2588,55.6405 85,54.5C 85.3114,53.2575 84.8114,52.2575 83.5,51.5C 86.0219,47.886 88.3553,44.2193 90.5,40.5 Z"/></g>
<g><path style="opacity:1" fill="#ff7b00" d="M 17.5,64.5 C 15.5188,65.1054 15.1854,66.1054 16.5,67.5C 16.5,67.8333 16.5,68.1667 16.5,68.5C 15.1667,67.8333 14.1667,66.8333 13.5,65.5C 13.3832,63.5165 14.0499,61.8498 15.5,60.5C 14.8333,59.8333 14.1667,59.1667 13.5,58.5C 16.2348,55.6912 18.2348,56.1912 19.5,60C 18.5862,61.4064 17.9195,62.9064 17.5,64.5 Z"/></g>
<g><path style="opacity:1" fill="#ff9300" d="M 29.5,53.5 C 30.2223,54.5511 31.2223,55.2178 32.5,55.5C 32.5,56.8333 33.1667,57.5 34.5,57.5C 34.5,58.1667 34.5,58.8333 34.5,59.5C 34.6716,60.4916 34.3382,61.1583 33.5,61.5C 31.9699,62.2112 30.6366,63.2112 29.5,64.5C 29.2088,61.963 29.0422,59.2963 29,56.5C 27.5611,58.2746 26.5611,60.2746 26,62.5C 25.873,59.0842 27.0397,56.0842 29.5,53.5 Z"/></g>
<g><path style="opacity:1" fill="#feee76" d="M 49.5,38.5 C 53.0545,40.7983 54.7212,44.1316 54.5,48.5C 54.6946,52.9152 54.1946,57.2486 53,61.5C 52.34,63.3237 51.1733,64.657 49.5,65.5C 49.5,65.1667 49.5,64.8333 49.5,64.5C 49.5,64.1667 49.5,63.8333 49.5,63.5C 51.4484,61.6796 52.4484,59.3462 52.5,56.5C 53.8333,55.5 53.8333,54.5 52.5,53.5C 53.8183,49.7256 53.485,46.059 51.5,42.5C 50.3995,41.3951 49.7329,40.0618 49.5,38.5 Z"/></g>
<g><path style="opacity:1" fill="#fea508" d="M 14.5,35.5 C 14.5,35.8333 14.5,36.1667 14.5,36.5C 14.047,38.5652 13.047,40.2318 11.5,41.5C 11.5654,41.0618 11.3988,40.7284 11,40.5C 8.64105,43.5768 7.47438,47.0768 7.5,51C 7.22589,56.6924 8.89256,61.5257 12.5,65.5C 14.2104,69.155 16.877,71.9884 20.5,74C 20.2716,74.3988 19.9382,74.5654 19.5,74.5C 16.5534,73.3559 13.8867,71.6893 11.5,69.5C 9.74808,66.328 7.74808,63.328 5.5,60.5C 5.45913,55.3388 5.62579,50.0055 6,44.5C 6.71618,42.1209 7.88284,40.1209 9.5,38.5C 10.5,38.5 11.5,38.5 12.5,38.5C 12.2852,36.8212 12.9519,35.8212 14.5,35.5 Z"/></g>
<g><path style="opacity:1" fill="#ff8f09" d="M 34.5,66.5 C 30.9044,68.3122 30.0711,67.6455 32,64.5C 32.8928,65.7112 33.7261,65.7112 34.5,64.5C 33.8728,63.5832 33.5394,62.5832 33.5,61.5C 34.3382,61.1583 34.6716,60.4916 34.5,59.5C 35.9498,58.3424 36.9498,58.8424 37.5,61C 37.0426,61.414 36.7093,61.914 36.5,62.5C 38.5,64.1667 40.5,65.8333 42.5,67.5C 42.1667,67.8333 41.8333,68.1667 41.5,68.5C 39.5201,67.5161 37.8534,66.1827 36.5,64.5C 35.8182,65.2427 35.1515,65.9094 34.5,66.5 Z"/></g>
<g><path style="opacity:1" fill="#fe8600" d="M 57.5,58.5 C 58.1577,59.3984 58.8243,60.3984 59.5,61.5C 60.8333,60.8333 62.1667,60.1667 63.5,59.5C 65.9264,59.6194 68.2598,59.9527 70.5,60.5C 69.8444,61.2778 69.0111,61.9444 68,62.5C 65.5215,61.8948 63.0215,62.2282 60.5,63.5C 59.5,63.5 58.5,63.5 57.5,63.5C 57.5,62.5 57.5,61.5 57.5,60.5C 57.5,59.8333 57.5,59.1667 57.5,58.5 Z"/></g>
<g><path style="opacity:1" fill="#fb5300" d="M 94.5,52.5 C 93.3406,56.3481 91.6739,60.0148 89.5,63.5C 88.8333,63.5 88.1667,63.5 87.5,63.5C 87.5,62.8333 87.5,62.1667 87.5,61.5C 90.2157,57.086 92.3823,52.4193 94,47.5C 94.4935,49.1341 94.6602,50.8008 94.5,52.5 Z"/></g>
<g><path style="opacity:1" fill="#ff7b05" d="M 49.5,63.5 C 49.5,63.8333 49.5,64.1667 49.5,64.5C 47.9519,64.8212 47.2852,65.8212 47.5,67.5C 45.5956,67.7376 44.2623,68.7376 43.5,70.5C 41.3024,70.8751 39.3024,71.5418 37.5,72.5C 36.325,72.719 35.325,72.3857 34.5,71.5C 35.5353,69.8716 35.5353,68.205 34.5,66.5C 35.1515,65.9094 35.8182,65.2427 36.5,64.5C 37.8534,66.1827 39.5201,67.5161 41.5,68.5C 41.8333,68.1667 42.1667,67.8333 42.5,67.5C 40.5,65.8333 38.5,64.1667 36.5,62.5C 36.7093,61.914 37.0426,61.414 37.5,61C 36.9498,58.8424 35.9498,58.3424 34.5,59.5C 34.5,58.8333 34.5,58.1667 34.5,57.5C 34.56,56.9569 34.8933,56.6236 35.5,56.5C 36.8139,57.3128 37.9805,58.3128 39,59.5C 38.7282,64.1777 40.0615,64.5111 43,60.5C 44.563,61.1021 44.3963,61.9354 42.5,63C 44.9556,62.9357 47.2889,63.1023 49.5,63.5 Z"/></g>
<g><path style="opacity:1" fill="#560b01" d="M 54.5,62.5 C 55.0431,62.56 55.3764,62.8933 55.5,63.5C 54.7401,65.3604 53.7401,67.027 52.5,68.5C 51.8333,68.5 51.5,68.1667 51.5,67.5C 52.7515,65.9991 53.7515,64.3325 54.5,62.5 Z"/></g>
<g><path style="opacity:1" fill="#b92501" d="M 94.5,52.5 C 94.3284,53.4916 94.6618,54.1583 95.5,54.5C 94.9787,59.0868 93.312,63.0868 90.5,66.5C 89.7611,66.631 89.0944,66.4643 88.5,66C 89.2524,65.3292 89.5858,64.4959 89.5,63.5C 91.6739,60.0148 93.3406,56.3481 94.5,52.5 Z"/></g>
<g><path style="opacity:1" fill="#a23701" d="M 55.5,56.5 C 56.8333,56.5 57.5,57.1667 57.5,58.5C 57.5,59.1667 57.5,59.8333 57.5,60.5C 56.7356,62.7397 55.9023,65.0731 55,67.5C 54.3292,68.2524 53.4959,68.5858 52.5,68.5C 53.7401,67.027 54.7401,65.3604 55.5,63.5C 55.3764,62.8933 55.0431,62.56 54.5,62.5C 54.8333,60.5 55.1667,58.5 55.5,56.5 Z"/></g>
<g><path style="opacity:1" fill="#ff9c04" d="M 33.5,61.5 C 33.5394,62.5832 33.8728,63.5832 34.5,64.5C 33.7261,65.7112 32.8928,65.7112 32,64.5C 30.0711,67.6455 30.9044,68.3122 34.5,66.5C 35.5353,68.205 35.5353,69.8716 34.5,71.5C 35.325,72.3857 36.325,72.719 37.5,72.5C 37.5,73.1667 37.1667,73.5 36.5,73.5C 35.1667,73.5 33.8333,73.5 32.5,73.5C 29.9407,73.8016 27.6074,73.4682 25.5,72.5C 31.3239,72.6534 31.6572,71.9867 26.5,70.5C 26.8076,69.6919 27.3076,69.0253 28,68.5C 30.9885,69.1828 30.8218,68.5161 27.5,66.5C 27.5,65.1667 28.1667,64.5 29.5,64.5C 30.6366,63.2112 31.9699,62.2112 33.5,61.5 Z"/></g>
<g><path style="opacity:1" fill="#feebd2" d="M 49.5,64.5 C 49.5,64.8333 49.5,65.1667 49.5,65.5C 49.1667,66.5 48.5,67.1667 47.5,67.5C 47.2852,65.8212 47.9519,64.8212 49.5,64.5 Z"/></g>
<g><path style="opacity:1" fill="#fdb704" d="M 54.5,48.5 C 54.8333,48.5 55.1667,48.5 55.5,48.5C 55.5,51.1667 55.5,53.8333 55.5,56.5C 55.1667,58.5 54.8333,60.5 54.5,62.5C 53.7515,64.3325 52.7515,65.9991 51.5,67.5C 50.8333,67.8333 50.1667,68.1667 49.5,68.5C 47.9468,70.385 45.9468,71.385 43.5,71.5C 43.5,71.1667 43.5,70.8333 43.5,70.5C 45.4044,70.2624 46.7377,69.2624 47.5,67.5C 48.5,67.1667 49.1667,66.5 49.5,65.5C 51.1733,64.657 52.34,63.3237 53,61.5C 54.1946,57.2486 54.6946,52.9152 54.5,48.5 Z"/></g>
<g><path style="opacity:1" fill="#ff7400" d="M 79.5,63.5 C 77.751,65.5158 75.751,67.1825 73.5,68.5C 73.5824,70.2517 72.7491,71.2517 71,71.5C 69.5603,70.8524 68.0603,70.5191 66.5,70.5C 64.0199,68.0887 61.0199,66.4221 57.5,65.5C 57.5,64.8333 57.5,64.1667 57.5,63.5C 58.5,63.5 59.5,63.5 60.5,63.5C 61.5973,66.4873 63.0973,66.8206 65,64.5C 68.0026,65.09 71.0026,65.4233 74,65.5C 75.6255,64.7113 77.1255,63.7113 78.5,62.5C 79.1067,62.6236 79.44,62.9569 79.5,63.5 Z"/></g>
<g><path style="opacity:1" fill="#ff6300" d="M 87.5,61.5 C 87.5,62.1667 87.5,62.8333 87.5,63.5C 84.3265,66.5057 80.9932,69.339 77.5,72C 78.448,72.4828 79.448,72.6495 80.5,72.5C 78.6039,73.6591 75.2706,73.8257 70.5,73C 68.9336,72.3918 67.6002,71.5585 66.5,70.5C 68.0603,70.5191 69.5603,70.8524 71,71.5C 72.7491,71.2517 73.5824,70.2517 73.5,68.5C 78.6866,67.24 83.3533,64.9067 87.5,61.5 Z"/></g>
<g><path style="opacity:1" fill="#f44800" d="M 87.5,63.5 C 88.1667,63.5 88.8333,63.5 89.5,63.5C 89.5858,64.4959 89.2524,65.3292 88.5,66C 89.0944,66.4643 89.7611,66.631 90.5,66.5C 89.8763,68.754 88.543,70.4206 86.5,71.5C 84.2646,71.2053 82.2646,71.5386 80.5,72.5C 79.448,72.6495 78.448,72.4828 77.5,72C 80.9932,69.339 84.3265,66.5057 87.5,63.5 Z"/></g>
<g><path style="opacity:1" fill="#ff9501" d="M 25.5,65.5 C 24.7629,67.3046 23.7629,68.9713 22.5,70.5C 20.4664,69.4412 18.4664,68.4412 16.5,67.5C 15.1854,66.1054 15.5188,65.1054 17.5,64.5C 18.8967,64.7952 20.3967,65.1286 22,65.5C 23.3928,62.8749 24.5595,62.8749 25.5,65.5 Z"/></g>
<g><path style="opacity:1" fill="#ff7400" d="M 27.5,66.5 C 30.8218,68.5161 30.9885,69.1828 28,68.5C 27.3076,69.0253 26.8076,69.6919 26.5,70.5C 31.6572,71.9867 31.3239,72.6534 25.5,72.5C 24.8333,72.1667 24.1667,71.8333 23.5,71.5C 20.7939,71.3122 18.4605,70.3122 16.5,68.5C 16.5,68.1667 16.5,67.8333 16.5,67.5C 18.4664,68.4412 20.4664,69.4412 22.5,70.5C 23.7629,68.9713 24.7629,67.3046 25.5,65.5C 26.3413,64.9907 26.8413,65.6573 27,67.5C 27.3988,67.2716 27.5654,66.9382 27.5,66.5 Z"/></g>
<g><path style="opacity:1" fill="#feefc7" d="M 47.5,67.5 C 46.7377,69.2624 45.4044,70.2624 43.5,70.5C 44.2623,68.7376 45.5956,67.7376 47.5,67.5 Z"/></g>
<g><path style="opacity:1" fill="#f25d00" d="M 57.5,60.5 C 57.5,61.5 57.5,62.5 57.5,63.5C 57.5,64.1667 57.5,64.8333 57.5,65.5C 57.281,66.675 57.6143,67.675 58.5,68.5C 62.8081,69.6794 63.1415,71.0127 59.5,72.5C 58.5832,71.8728 57.5832,71.5394 56.5,71.5C 55.5,71.5 54.5,71.5 53.5,71.5C 52.3951,70.3995 51.0618,69.7329 49.5,69.5C 49.5,69.1667 49.5,68.8333 49.5,68.5C 50.1667,68.1667 50.8333,67.8333 51.5,67.5C 51.5,68.1667 51.8333,68.5 52.5,68.5C 53.4959,68.5858 54.3292,68.2524 55,67.5C 55.9023,65.0731 56.7356,62.7397 57.5,60.5 Z"/></g>
<g><path style="opacity:1" fill="#fe7000" d="M 57.5,65.5 C 61.0199,66.4221 64.0199,68.0887 66.5,70.5C 67.6002,71.5585 68.9336,72.3918 70.5,73C 75.2706,73.8257 78.6039,73.6591 80.5,72.5C 82.2646,71.5386 84.2646,71.2053 86.5,71.5C 85.1007,72.8897 83.4341,73.8897 81.5,74.5C 74.4921,74.6663 67.4921,74.4996 60.5,74C 58.6803,73.7996 57.347,72.9663 56.5,71.5C 57.5832,71.5394 58.5832,71.8728 59.5,72.5C 63.1415,71.0127 62.8081,69.6794 58.5,68.5C 57.6143,67.675 57.281,66.675 57.5,65.5 Z"/></g>
<g><path style="opacity:0.455" fill="#fc9500" d="M 49.5,68.5 C 49.5,68.8333 49.5,69.1667 49.5,69.5C 45.2959,74.2688 39.9626,76.9354 33.5,77.5C 34.4475,76.0221 35.7809,75.0221 37.5,74.5C 39.5,73.5 41.5,72.5 43.5,71.5C 45.9468,71.385 47.9468,70.385 49.5,68.5 Z"/></g>
<g><path style="opacity:1" fill="#feefc2" d="M 43.5,70.5 C 43.5,70.8333 43.5,71.1667 43.5,71.5C 41.5,72.5 39.5,73.5 37.5,74.5C 36.8333,74.5 36.5,74.1667 36.5,73.5C 37.1667,73.5 37.5,73.1667 37.5,72.5C 39.3024,71.5418 41.3024,70.8751 43.5,70.5 Z"/></g>
<g><path style="opacity:1" fill="#fcfad6" d="M 23.5,71.5 C 24.1667,71.8333 24.8333,72.1667 25.5,72.5C 27.6074,73.4682 29.9407,73.8016 32.5,73.5C 32.189,74.4778 31.5223,75.1445 30.5,75.5C 27.7717,74.8546 25.1051,74.0213 22.5,73C 23.056,72.6174 23.3893,72.1174 23.5,71.5 Z"/></g>
<g><path style="opacity:1" fill="#fc8e00" d="M 53.5,71.5 C 54.5,71.5 55.5,71.5 56.5,71.5C 57.347,72.9663 58.6803,73.7996 60.5,74C 67.4921,74.4996 74.4921,74.6663 81.5,74.5C 79.7857,75.7384 77.7857,76.405 75.5,76.5C 70.4932,76.2491 65.4932,75.9157 60.5,75.5C 57.6689,74.9213 55.3356,73.588 53.5,71.5 Z"/></g>
<g><path style="opacity:1" fill="#feba29" d="M 12.5,65.5 C 12.8333,65.5 13.1667,65.5 13.5,65.5C 14.1667,66.8333 15.1667,67.8333 16.5,68.5C 18.4605,70.3122 20.7939,71.3122 23.5,71.5C 23.3893,72.1174 23.056,72.6174 22.5,73C 25.1051,74.0213 27.7717,74.8546 30.5,75.5C 31.5223,75.1445 32.189,74.4778 32.5,73.5C 33.8333,73.5 35.1667,73.5 36.5,73.5C 36.5,74.1667 36.8333,74.5 37.5,74.5C 35.7809,75.0221 34.4475,76.0221 33.5,77.5C 29.8321,77.2496 26.3321,77.2496 23,77.5C 21.6362,76.6293 20.4695,75.6293 19.5,74.5C 19.9382,74.5654 20.2716,74.3988 20.5,74C 16.877,71.9884 14.2104,69.155 12.5,65.5 Z"/></g>
<g><path style="opacity:0.329" fill="#f2b000" d="M 60.5,75.5 C 65.4932,75.9157 70.4932,76.2491 75.5,76.5C 73.6965,77.162 71.6965,77.4954 69.5,77.5C 66.1864,77.6575 63.1864,76.9908 60.5,75.5 Z"/></g>
</svg>
