<?xml version="1.0" encoding="UTF-8"?>
<!DOCTYPE svg PUBLIC "-//W3C//DTD SVG 1.1//EN" "http://www.w3.org/Graphics/SVG/1.1/DTD/svg11.dtd">
<svg xmlns="http://www.w3.org/2000/svg" version="1.1" width="100px" height="100px" style="shape-rendering:geometricPrecision; text-rendering:geometricPrecision; image-rendering:optimizeQuality; fill-rule:evenodd; clip-rule:evenodd" xmlns:xlink="http://www.w3.org/1999/xlink">
<g><path style="opacity:1" fill="#9b9b9b" d="M 65.5,11.5 C 65.1667,11.5 64.8333,11.5 64.5,11.5C 64.1667,9.5 63.8333,7.5 63.5,5.5C 62.0413,5.56745 60.7079,5.23411 59.5,4.5C 57.6208,3.65859 55.6208,3.32526 53.5,3.5C 50.5,3.5 47.5,3.5 44.5,3.5C 42.5853,3.21552 40.9187,3.54885 39.5,4.5C 37.5853,4.78448 35.9187,4.45115 34.5,3.5C 43.7495,1.1035 53.0829,0.936836 62.5,3C 64.637,5.35447 65.637,8.1878 65.5,11.5 Z"/></g>
<g><path style="opacity:1" fill="#004495" d="M 41.5,5.5 C 41.5,14.8333 41.5,24.1667 41.5,33.5C 40.5272,32.2086 39.5272,32.2086 38.5,33.5C 37.5017,24.1904 37.1684,14.8571 37.5,5.5C 38.8333,5.5 40.1667,5.5 41.5,5.5 Z"/></g>
<g><path style="opacity:1" fill="#0a3987" d="M 39.5,4.5 C 40.9187,3.54885 42.5853,3.21552 44.5,3.5C 46.0419,4.16348 47.7086,4.83015 49.5,5.5C 48.1804,7.27011 46.6804,7.60344 45,6.5C 44.8302,16.6751 44.3302,26.6751 43.5,36.5C 42.8333,36.5 42.1667,36.5 41.5,36.5C 41.5,35.5 41.5,34.5 41.5,33.5C 41.5,24.1667 41.5,14.8333 41.5,5.5C 42.0674,4.57982 41.4008,4.24649 39.5,4.5 Z"/></g>
<g><path style="opacity:1" fill="#111667" d="M 44.5,3.5 C 47.5,3.5 50.5,3.5 53.5,3.5C 53.334,8.84372 53.5006,14.1771 54,19.5C 54.2784,18.5842 54.7784,17.9175 55.5,17.5C 54.7504,22.9126 53.7504,28.2459 52.5,33.5C 51.8826,33.6107 51.3826,33.944 51,34.5C 50.5045,36.4727 50.3379,38.4727 50.5,40.5C 50.5,40.8333 50.5,41.1667 50.5,41.5C 48.9731,41.427 47.9731,42.0937 47.5,43.5C 46.1667,43.8333 44.8333,44.1667 43.5,44.5C 44.0806,43.4119 44.0806,42.0786 43.5,40.5C 42.537,39.6365 42.537,38.9698 43.5,38.5C 45.1727,40.0863 47.1727,40.7529 49.5,40.5C 49.5,38.1667 49.5,35.8333 49.5,33.5C 49.5,25.1667 49.5,16.8333 49.5,8.5C 48.1667,8.5 46.8333,8.5 45.5,8.5C 45.5,17.8333 45.5,27.1667 45.5,36.5C 44.8333,37.8333 44.1667,37.8333 43.5,36.5C 44.3302,26.6751 44.8302,16.6751 45,6.5C 46.6804,7.60344 48.1804,7.27011 49.5,5.5C 47.7086,4.83015 46.0419,4.16348 44.5,3.5 Z"/></g>
<g><path style="opacity:1" fill="#103382" d="M 34.5,3.5 C 35.9187,4.45115 37.5853,4.78448 39.5,4.5C 41.4008,4.24649 42.0674,4.57982 41.5,5.5C 40.1667,5.5 38.8333,5.5 37.5,5.5C 37.1684,14.8571 37.5017,24.1904 38.5,33.5C 39.5272,32.2086 40.5272,32.2086 41.5,33.5C 41.5,34.5 41.5,35.5 41.5,36.5C 40.5798,37.0674 40.2465,36.4008 40.5,34.5C 39.1667,34.5 37.8333,34.5 36.5,34.5C 36.5,36.5 36.5,38.5 36.5,40.5C 38.8333,40.5 41.1667,40.5 43.5,40.5C 44.0806,42.0786 44.0806,43.4119 43.5,44.5C 43.5,44.8333 43.5,45.1667 43.5,45.5C 41.1667,45.5 38.8333,45.5 36.5,45.5C 36.1667,45.5 35.8333,45.5 35.5,45.5C 34.7057,33.2117 34.2057,20.8784 34,8.5C 33.7679,9.73747 33.2679,10.7375 32.5,11.5C 32.5651,8.57184 33.2318,5.90517 34.5,3.5 Z"/></g>
<g><path style="opacity:1" fill="#043182" d="M 53.5,3.5 C 55.6208,3.32526 57.6208,3.65859 59.5,4.5C 58.7659,5.70792 58.4326,7.04125 58.5,8.5C 57.0721,11.3033 56.4054,14.3033 56.5,17.5C 56.1667,17.5 55.8333,17.5 55.5,17.5C 54.7784,17.9175 54.2784,18.5842 54,19.5C 53.5006,14.1771 53.334,8.84372 53.5,3.5 Z"/></g>
<g><path style="opacity:1" fill="#07085e" d="M 49.5,33.5 C 48.1667,34.5 46.8333,35.5 45.5,36.5C 45.5,27.1667 45.5,17.8333 45.5,8.5C 46.8333,8.5 48.1667,8.5 49.5,8.5C 49.5,16.8333 49.5,25.1667 49.5,33.5 Z"/></g>
<g><path style="opacity:1" fill="#dadbdd" d="M 59.5,4.5 C 60.7079,5.23411 62.0413,5.56745 63.5,5.5C 63.8333,7.5 64.1667,9.5 64.5,11.5C 63.8333,18.8333 63.1667,26.1667 62.5,33.5C 61.791,32.596 60.791,32.2627 59.5,32.5C 59.7639,24.8177 59.9306,17.151 60,9.5C 59.6174,8.94404 59.1174,8.61071 58.5,8.5C 58.4326,7.04125 58.7659,5.70792 59.5,4.5 Z"/></g>
<g><path style="opacity:0.694" fill="#071a6b" d="M 35.5,45.5 C 34.8333,45.5 34.1667,45.5 33.5,45.5C 33.1667,45.5 32.8333,45.5 32.5,45.5C 32.5,34.1667 32.5,22.8333 32.5,11.5C 33.2679,10.7375 33.7679,9.73747 34,8.5C 34.2057,20.8784 34.7057,33.2117 35.5,45.5 Z"/></g>
<g><path style="opacity:1" fill="#e7e9ec" d="M 58.5,8.5 C 59.1174,8.61071 59.6174,8.94404 60,9.5C 59.9306,17.151 59.7639,24.8177 59.5,32.5C 60.791,32.2627 61.791,32.596 62.5,33.5C 61.5,33.5 60.5,33.5 59.5,33.5C 59.7148,35.1788 59.0481,36.1788 57.5,36.5C 57.653,30.1308 57.3197,23.7974 56.5,17.5C 56.4054,14.3033 57.0721,11.3033 58.5,8.5 Z"/></g>
<g><path style="opacity:1" fill="#d6d8da" d="M 55.5,17.5 C 55.8333,17.5 56.1667,17.5 56.5,17.5C 57.3197,23.7974 57.653,30.1308 57.5,36.5C 57.6495,37.552 57.4828,38.552 57,39.5C 55.4419,38.1422 53.9419,36.1422 52.5,33.5C 53.7504,28.2459 54.7504,22.9126 55.5,17.5 Z"/></g>
<g><path style="opacity:1" fill="#ce0a7c" d="M 49.5,33.5 C 49.5,35.8333 49.5,38.1667 49.5,40.5C 47.1727,40.7529 45.1727,40.0863 43.5,38.5C 42.537,38.9698 42.537,39.6365 43.5,40.5C 41.1667,40.5 38.8333,40.5 36.5,40.5C 36.5,38.5 36.5,36.5 36.5,34.5C 37.8333,34.5 39.1667,34.5 40.5,34.5C 40.2465,36.4008 40.5798,37.0674 41.5,36.5C 42.1667,36.5 42.8333,36.5 43.5,36.5C 44.1667,37.8333 44.8333,37.8333 45.5,36.5C 46.8333,35.5 48.1667,34.5 49.5,33.5 Z"/></g>
<g><path style="opacity:1" fill="#f53b8f" d="M 52.5,33.5 C 53.9419,36.1422 55.4419,38.1422 57,39.5C 57.4828,38.552 57.6495,37.552 57.5,36.5C 59.0481,36.1788 59.7148,35.1788 59.5,33.5C 60.5,33.5 61.5,33.5 62.5,33.5C 62.5,35.8333 62.5,38.1667 62.5,40.5C 58.3992,40.9658 54.3992,40.9658 50.5,40.5C 50.3379,38.4727 50.5045,36.4727 51,34.5C 51.3826,33.944 51.8826,33.6107 52.5,33.5 Z"/></g>
<g><path style="opacity:0.864" fill="#c9c5ca" d="M 64.5,11.5 C 64.8333,11.5 65.1667,11.5 65.5,11.5C 65.5,22.8333 65.5,34.1667 65.5,45.5C 63.5,45.5 61.5,45.5 59.5,45.5C 58.5,45.5 57.5,45.5 56.5,45.5C 56.631,44.7611 56.4643,44.0944 56,43.5C 54.7012,43.9662 53.2012,43.9662 51.5,43.5C 51.6716,42.5084 51.3382,41.8417 50.5,41.5C 50.5,41.1667 50.5,40.8333 50.5,40.5C 54.3992,40.9658 58.3992,40.9658 62.5,40.5C 62.5,38.1667 62.5,35.8333 62.5,33.5C 63.1667,26.1667 63.8333,18.8333 64.5,11.5 Z"/></g>
<g><path style="opacity:1" fill="#fa1975" d="M 47.5,43.5 C 49.8362,45.0728 49.8362,46.4061 47.5,47.5C 46.1984,46.1931 44.865,46.1931 43.5,47.5C 42.537,47.0302 42.537,46.3635 43.5,45.5C 43.5,45.1667 43.5,44.8333 43.5,44.5C 44.8333,44.1667 46.1667,43.8333 47.5,43.5 Z"/></g>
<g><path style="opacity:1" fill="#f22e70" d="M 51.5,43.5 C 53.2012,43.9662 54.7012,43.9662 56,43.5C 56.4643,44.0944 56.631,44.7611 56.5,45.5C 56.631,46.2389 56.4643,46.9056 56,47.5C 55.0228,46.2264 54.1894,46.2264 53.5,47.5C 52.8333,47.5 52.1667,47.5 51.5,47.5C 50.1667,46.1667 50.1667,44.8333 51.5,43.5 Z"/></g>
<g><path style="opacity:1" fill="#eeb708" d="M 50.5,41.5 C 51.3382,41.8417 51.6716,42.5084 51.5,43.5C 50.1667,44.8333 50.1667,46.1667 51.5,47.5C 50.791,48.404 49.791,48.7373 48.5,48.5C 48.5,47.8333 48.1667,47.5 47.5,47.5C 49.8362,46.4061 49.8362,45.0728 47.5,43.5C 47.9731,42.0937 48.9731,41.427 50.5,41.5 Z"/></g>
<g><path style="opacity:1" fill="#041164" d="M 52.5,52.5 C 52.5,62.5 52.5,72.5 52.5,82.5C 51.5,82.5 50.5,82.5 49.5,82.5C 49.1681,72.1452 49.5014,61.8119 50.5,51.5C 51.1835,51.8627 51.8501,52.1961 52.5,52.5 Z"/></g>
<g><path style="opacity:1" fill="#00479a" d="M 57.5,51.5 C 58.1667,51.5 58.8333,51.5 59.5,51.5C 59.5,61.8333 59.5,72.1667 59.5,82.5C 58.5,82.5 57.5,82.5 56.5,82.5C 56.1917,72.0846 56.525,61.7513 57.5,51.5 Z"/></g>
<g><path style="opacity:1" fill="#dedfdf" d="M 36.5,45.5 C 38.8333,45.5 41.1667,45.5 43.5,45.5C 42.537,46.3635 42.537,47.0302 43.5,47.5C 44.865,46.1931 46.1984,46.1931 47.5,47.5C 48.1667,47.5 48.5,47.8333 48.5,48.5C 45.5308,49.825 42.5308,49.825 39.5,48.5C 38.2021,50.0517 38.5354,51.0517 40.5,51.5C 39.2177,56.5882 38.551,61.9215 38.5,67.5C 38.6667,72.5 38.8333,77.5 39,82.5C 39.8068,78.551 40.3068,78.551 40.5,82.5C 40.5,82.8333 40.5,83.1667 40.5,83.5C 39.1667,83.5 37.8333,83.5 36.5,83.5C 36.5,70.8333 36.5,58.1667 36.5,45.5 Z"/></g>
<g><path style="opacity:1" fill="#013383" d="M 54.5,51.5 C 55.5,51.5 56.5,51.5 57.5,51.5C 56.525,61.7513 56.1917,72.0846 56.5,82.5C 55.8333,82.5 55.1667,82.5 54.5,82.5C 54.5,72.1667 54.5,61.8333 54.5,51.5 Z"/></g>
<g><path style="opacity:1" fill="#062775" d="M 59.5,45.5 C 61.5,45.5 63.5,45.5 65.5,45.5C 65.5,58.1667 65.5,70.8333 65.5,83.5C 64.1667,83.5 62.8333,83.5 61.5,83.5C 61.5,83.1667 61.5,82.8333 61.5,82.5C 61.2787,70.8071 61.612,59.1404 62.5,47.5C 60.8212,47.7148 59.8212,47.0481 59.5,45.5 Z"/></g>
<g><path style="opacity:1" fill="#d0c7cf" d="M 48.5,48.5 C 48.4828,50.5648 48.1495,52.5648 47.5,54.5C 46.6274,58.8631 45.6274,63.1965 44.5,67.5C 43.8333,69.5 43.1667,71.5 42.5,73.5C 42.3068,69.551 41.8068,69.551 41,73.5C 40.5966,65.925 40.43,58.5917 40.5,51.5C 38.5354,51.0517 38.2021,50.0517 39.5,48.5C 42.5308,49.825 45.5308,49.825 48.5,48.5 Z"/></g>
<g><path style="opacity:1" fill="#002775" d="M 54.5,51.5 C 54.5,61.8333 54.5,72.1667 54.5,82.5C 53.8333,82.5 53.1667,82.5 52.5,82.5C 52.5,72.5 52.5,62.5 52.5,52.5C 53.1667,52.1667 53.8333,51.8333 54.5,51.5 Z"/></g>
<g><path style="opacity:1" fill="#063787" d="M 56.5,45.5 C 57.5,45.5 58.5,45.5 59.5,45.5C 59.8212,47.0481 60.8212,47.7148 62.5,47.5C 61.612,59.1404 61.2787,70.8071 61.5,82.5C 60.8333,82.5 60.1667,82.5 59.5,82.5C 59.5,72.1667 59.5,61.8333 59.5,51.5C 60.3764,51.6309 61.0431,51.2975 61.5,50.5C 58.8929,49.6816 56.2263,49.1816 53.5,49C 54.7383,48.31 54.7383,47.81 53.5,47.5C 54.1894,46.2264 55.0228,46.2264 56,47.5C 56.4643,46.9056 56.631,46.2389 56.5,45.5 Z"/></g>
<g><path style="opacity:1" fill="#29106a" d="M 51.5,47.5 C 52.1667,47.5 52.8333,47.5 53.5,47.5C 54.7383,47.81 54.7383,48.31 53.5,49C 56.2263,49.1816 58.8929,49.6816 61.5,50.5C 61.0431,51.2975 60.3764,51.6309 59.5,51.5C 58.8333,51.5 58.1667,51.5 57.5,51.5C 56.5,51.5 55.5,51.5 54.5,51.5C 53.8333,51.8333 53.1667,52.1667 52.5,52.5C 51.8501,52.1961 51.1835,51.8627 50.5,51.5C 49.5014,61.8119 49.1681,72.1452 49.5,82.5C 49.1667,82.5 48.8333,82.5 48.5,82.5C 48.8269,72.985 48.4936,63.6517 47.5,54.5C 48.1495,52.5648 48.4828,50.5648 48.5,48.5C 49.791,48.7373 50.791,48.404 51.5,47.5 Z"/></g>
<g><path style="opacity:1" fill="#07095d" d="M 47.5,54.5 C 48.4936,63.6517 48.8269,72.985 48.5,82.5C 47.1667,77.5 45.8333,72.5 44.5,67.5C 45.6274,63.1965 46.6274,58.8631 47.5,54.5 Z"/></g>
<g><path style="opacity:1" fill="#c4c5c9" d="M 33.5,45.5 C 34.1667,45.5 34.8333,45.5 35.5,45.5C 35.8333,45.5 36.1667,45.5 36.5,45.5C 36.5,58.1667 36.5,70.8333 36.5,83.5C 35.5,83.5 34.5,83.5 33.5,83.5C 33.5,70.8333 33.5,58.1667 33.5,45.5 Z"/></g>
<g><path style="opacity:1" fill="#e0e1e3" d="M 40.5,51.5 C 40.43,58.5917 40.5966,65.925 41,73.5C 41.8068,69.551 42.3068,69.551 42.5,73.5C 42.0104,76.6553 41.3438,79.6553 40.5,82.5C 40.3068,78.551 39.8068,78.551 39,82.5C 38.8333,77.5 38.6667,72.5 38.5,67.5C 38.551,61.9215 39.2177,56.5882 40.5,51.5 Z"/></g>
<g><path style="opacity:1" fill="#0d1b6e" d="M 44.5,67.5 C 45.8333,72.5 47.1667,77.5 48.5,82.5C 48.8333,82.5 49.1667,82.5 49.5,82.5C 50.5,82.5 51.5,82.5 52.5,82.5C 53.1667,82.5 53.8333,82.5 54.5,82.5C 55.1667,82.5 55.8333,82.5 56.5,82.5C 57.5,82.5 58.5,82.5 59.5,82.5C 60.1667,82.5 60.8333,82.5 61.5,82.5C 61.5,82.8333 61.5,83.1667 61.5,83.5C 55.8387,83.9068 50.172,84.2401 44.5,84.5C 43.4324,83.5655 42.099,83.2322 40.5,83.5C 40.5,83.1667 40.5,82.8333 40.5,82.5C 41.3438,79.6553 42.0104,76.6553 42.5,73.5C 43.1667,71.5 43.8333,69.5 44.5,67.5 Z"/></g>
<g><path style="opacity:1" fill="#93a0b4" d="M 61.5,83.5 C 62.8333,83.5 64.1667,83.5 65.5,83.5C 65.5,84.5 65.5,85.5 65.5,86.5C 60.213,87.3424 54.8797,87.6757 49.5,87.5C 48.6661,86.2521 47.3328,85.5854 45.5,85.5C 43.4341,85.845 41.4341,86.0116 39.5,86C 40.9047,84.7308 42.5714,84.2308 44.5,84.5C 50.172,84.2401 55.8387,83.9068 61.5,83.5 Z"/></g>
<g><path style="opacity:1" fill="#667792" d="M 32.5,45.5 C 32.8333,45.5 33.1667,45.5 33.5,45.5C 33.5,58.1667 33.5,70.8333 33.5,83.5C 34.5,83.5 35.5,83.5 36.5,83.5C 37.8333,83.5 39.1667,83.5 40.5,83.5C 42.099,83.2322 43.4324,83.5655 44.5,84.5C 42.5714,84.2308 40.9047,84.7308 39.5,86C 41.4341,86.0116 43.4341,85.845 45.5,85.5C 47.3328,85.5854 48.6661,86.2521 49.5,87.5C 46.1667,87.5 42.8333,87.5 39.5,87.5C 37.0971,87.552 34.7638,87.2186 32.5,86.5C 32.5,72.8333 32.5,59.1667 32.5,45.5 Z"/></g>
<g><path style="opacity:1" fill="#102979" d="M 65.5,86.5 C 65.5,87.8333 65.5,89.1667 65.5,90.5C 56.6037,92.8256 47.6037,93.1589 38.5,91.5C 38.4326,90.0413 38.7659,88.7079 39.5,87.5C 42.8333,87.5 46.1667,87.5 49.5,87.5C 54.8797,87.6757 60.213,87.3424 65.5,86.5 Z"/></g>
<g><path style="opacity:1" fill="#94969b" d="M 32.5,86.5 C 34.7638,87.2186 37.0971,87.552 39.5,87.5C 38.7659,88.7079 38.4326,90.0413 38.5,91.5C 47.6037,93.1589 56.6037,92.8256 65.5,90.5C 64.2287,92.9339 62.2287,94.4339 59.5,95C 52.5,95.6667 45.5,95.6667 38.5,95C 34.1768,93.8659 32.1768,91.0326 32.5,86.5 Z"/></g>
</svg>
