<?xml version="1.0" standalone="no"?>
<!DOCTYPE svg PUBLIC "-//W3C//DTD SVG 20010904//EN"
 "http://www.w3.org/TR/2001/REC-SVG-20010904/DTD/svg10.dtd">
<svg version="1.0" xmlns="http://www.w3.org/2000/svg"
 width="512.000000pt" height="512.000000pt" viewBox="0 0 512.000000 512.000000"
 preserveAspectRatio="xMidYMid meet">
<metadata>
Created by potrace 1.16, written by Peter Selinger 2001-2019
</metadata>
<g transform="translate(0.000000,512.000000) scale(0.100000,-0.100000)"
fill="#000000" stroke="none">
<path d="M0 2560 l0 -2560 1203 1 c1069 1 1193 2 1122 15 -385 68 -732 313
-926 653 -90 155 -148 338 -168 523 -15 132 -15 1818 0 1925 30 226 159 433
360 583 164 122 406 221 639 261 69 11 135 23 148 25 19 4 22 11 22 47 0 92
76 197 223 309 126 96 181 181 163 253 -8 32 -102 132 -212 226 -98 84 -129
133 -119 187 8 45 31 79 64 97 23 12 -143 14 -1246 15 l-1273 0 0 -2560z"/>
<path d="M2712 5053 c283 -259 343 -345 343 -484 -1 -71 -4 -84 -48 -172 -56
-113 -118 -185 -231 -266 -44 -32 -89 -68 -98 -78 -17 -19 -17 -20 5 -40 16
-15 42 -22 102 -27 184 -16 411 -78 567 -157 273 -137 445 -337 520 -604 l23
-80 0 -980 c0 -899 -1 -987 -18 -1070 -83 -419 -341 -766 -710 -954 -108 -55
-255 -104 -372 -125 -71 -13 53 -14 1123 -15 l1202 -1 0 2560 0 2560 -1240 0
-1240 0 72 -67z"/>
<path d="M2335 3714 c-181 -28 -379 -97 -513 -180 -98 -60 -227 -190 -269
-269 -65 -124 -66 -135 -71 -527 l-4 -357 84 -25 c201 -63 550 -127 781 -144
l107 -8 0 763 c0 604 -3 763 -12 762 -7 -1 -53 -7 -103 -15z"/>
<path d="M2710 2964 l0 -767 103 7 c250 17 478 59 695 128 l132 41 0 331 c-1
388 -8 448 -70 573 -111 225 -358 377 -709 437 -52 9 -107 16 -123 16 l-28 0
0 -766z m205 626 c267 -61 430 -155 532 -308 48 -73 99 -222 113 -333 12 -89
10 -472 -2 -484 -11 -11 -262 -72 -413 -100 -77 -15 -191 -29 -252 -32 l-113
-6 0 647 0 646 23 -5 c12 -2 63 -14 112 -25z"/>
<path d="M1480 1703 c0 -229 5 -436 11 -488 54 -443 363 -802 794 -922 92 -26
114 -28 275 -28 161 0 183 2 275 28 431 120 740 478 794 922 6 52 11 259 11
487 l0 397 -57 -20 c-95 -33 -328 -86 -483 -111 -128 -20 -183 -22 -475 -23
-265 0 -357 4 -465 18 -193 26 -377 61 -534 102 -75 19 -138 35 -141 35 -3 0
-5 -179 -5 -397z"/>
</g>
</svg>
