<?xml version="1.0" encoding="UTF-8"?>
<!DOCTYPE svg PUBLIC "-//W3C//DTD SVG 1.1//EN" "http://www.w3.org/Graphics/SVG/1.1/DTD/svg11.dtd">
<svg xmlns="http://www.w3.org/2000/svg" version="1.1" width="100px" height="100px" style="shape-rendering:geometricPrecision; text-rendering:geometricPrecision; image-rendering:optimizeQuality; fill-rule:evenodd; clip-rule:evenodd" xmlns:xlink="http://www.w3.org/1999/xlink">
<g><path style="opacity:1" fill="#191817" d="M 53.5,22.5 C 53.6646,25.5184 53.498,28.5184 53,31.5C 52.07,26.2007 51.4034,20.8673 51,15.5C 48.5943,13.9134 46.4276,12.2467 44.5,10.5C 44.2606,8.5328 44.5939,6.69946 45.5,5C 48.4294,4.22284 51.2628,4.38951 54,5.5C 54.4686,11.1815 54.3019,16.8482 53.5,22.5 Z"/></g>
<g><path style="opacity:1" fill="#262521" d="M 44.5,10.5 C 46.4276,12.2467 48.5943,13.9134 51,15.5C 51.4034,20.8673 52.07,26.2007 53,31.5C 53.498,28.5184 53.6646,25.5184 53.5,22.5C 54.4824,26.3164 55.1491,30.3164 55.5,34.5C 54.7784,34.0825 54.2784,33.4158 54,32.5C 53.6664,34.8473 53.833,37.1806 54.5,39.5C 53.0735,37.8516 52.2401,35.8516 52,33.5C 50.9326,32.8095 49.7659,32.3095 48.5,32C 49.448,31.5172 50.448,31.3505 51.5,31.5C 51.0445,28.7965 50.3779,26.1298 49.5,23.5C 50.3311,21.5269 50.4978,19.5269 50,17.5C 48.5199,21.9765 47.6866,26.6431 47.5,31.5C 45.631,29.3647 44.9644,26.6981 45.5,23.5C 45.3454,19.6257 44.6788,15.959 43.5,12.5C 43.5427,11.5836 43.8761,10.9169 44.5,10.5 Z"/></g>
<g><path style="opacity:1" fill="#0f0b05" d="M 54.5,39.5 C 55.9238,41.5145 56.5905,43.8478 56.5,46.5C 55.5655,47.5676 55.2322,48.901 55.5,50.5C 54.8335,55.3489 54.1668,60.3489 53.5,65.5C 52.1667,64.8333 50.8333,64.1667 49.5,63.5C 48.3777,64.6302 47.0443,65.2969 45.5,65.5C 45.9085,60.3026 45.2419,55.3026 43.5,50.5C 43.7208,47.9028 44.2208,47.9028 45,50.5C 46.4301,53.3527 47.2634,56.3527 47.5,59.5C 50.5319,59.8224 52.1986,58.489 52.5,55.5C 54.3015,49.8522 53.8015,44.5189 51,39.5C 47.9474,41.4301 45.4474,43.9301 43.5,47C 42.4232,47.4696 41.4232,47.3029 40.5,46.5C 40.5,45.5 40.5,44.5 40.5,43.5C 40.7959,41.597 41.4625,39.9303 42.5,38.5C 44.0739,36.8984 44.7406,34.8984 44.5,32.5C 45.791,32.7373 46.791,32.404 47.5,31.5C 47.6866,26.6431 48.5199,21.9765 50,17.5C 50.4978,19.5269 50.3311,21.5269 49.5,23.5C 50.3779,26.1298 51.0445,28.7965 51.5,31.5C 50.448,31.3505 49.448,31.5172 48.5,32C 49.7659,32.3095 50.9326,32.8095 52,33.5C 52.2401,35.8516 53.0735,37.8516 54.5,39.5 Z"/></g>
<g><path style="opacity:0.957" fill="#696765" d="M 45.5,23.5 C 44.9644,26.6981 45.631,29.3647 47.5,31.5C 46.791,32.404 45.791,32.7373 44.5,32.5C 44.7406,34.8984 44.0739,36.8984 42.5,38.5C 43.5879,33.3905 44.5879,28.3905 45.5,23.5 Z"/></g>
<g><path style="opacity:1" fill="#151414" d="M 55.5,34.5 C 57.1472,38.4237 58.8139,42.4237 60.5,46.5C 60.7234,50.1621 61.7234,53.4954 63.5,56.5C 63.8286,69.0113 63.4952,81.3446 62.5,93.5C 62.5,92.5 62.5,91.5 62.5,90.5C 55.8333,90.1667 55.8333,89.8333 62.5,89.5C 62.8956,86.5178 62.2289,83.8511 60.5,81.5C 61.1081,83.6841 60.4414,85.6841 58.5,87.5C 55.1101,89.1966 51.7767,89.5299 48.5,88.5C 53.2993,87.7039 56.6327,85.0372 58.5,80.5C 58.5569,79.391 58.8902,78.391 59.5,77.5C 60.6552,70.3451 60.8218,63.0118 60,55.5C 59.3392,52.198 58.1725,49.198 56.5,46.5C 56.5905,43.8478 55.9238,41.5145 54.5,39.5C 53.833,37.1806 53.6664,34.8473 54,32.5C 54.2784,33.4158 54.7784,34.0825 55.5,34.5 Z"/></g>
<g><path style="opacity:1" fill="#1a1610" d="M 43.5,50.5 C 42.603,49.4019 41.7697,49.4019 41,50.5C 40.51,51.7932 40.3433,53.1266 40.5,54.5C 39.5546,59.4053 39.2213,64.4053 39.5,69.5C 39.5,70.8333 39.5,72.1667 39.5,73.5C 38.6862,71.369 38.1862,69.0356 38,66.5C 37.6667,66.8333 37.3333,67.1667 37,67.5C 36.5003,75.8267 36.3336,84.16 36.5,92.5C 35.1667,79.8333 35.1667,67.1667 36.5,54.5C 38.0114,51.9949 39.3447,49.3283 40.5,46.5C 41.4232,47.3029 42.4232,47.4696 43.5,47C 45.4474,43.9301 47.9474,41.4301 51,39.5C 53.8015,44.5189 54.3015,49.8522 52.5,55.5C 52.1986,58.489 50.5319,59.8224 47.5,59.5C 47.2634,56.3527 46.4301,53.3527 45,50.5C 44.2208,47.9028 43.7208,47.9028 43.5,50.5 Z"/></g>
<g><path style="opacity:1" fill="#5a5a57" d="M 40.5,43.5 C 40.5,44.5 40.5,45.5 40.5,46.5C 39.3447,49.3283 38.0114,51.9949 36.5,54.5C 37.0249,50.467 38.3582,46.8004 40.5,43.5 Z"/></g>
<g><path style="opacity:1" fill="#737371" d="M 60.5,46.5 C 62.2766,49.5046 63.2766,52.8379 63.5,56.5C 61.7234,53.4954 60.7234,50.1621 60.5,46.5 Z"/></g>
<g><path style="opacity:1" fill="#434230" d="M 43.5,50.5 C 45.2419,55.3026 45.9085,60.3026 45.5,65.5C 44.8333,65.5 44.5,65.1667 44.5,64.5C 44.7471,61.0613 44.4137,57.728 43.5,54.5C 42.4587,50.6385 41.4587,50.6385 40.5,54.5C 40.3433,53.1266 40.51,51.7932 41,50.5C 41.7697,49.4019 42.603,49.4019 43.5,50.5 Z"/></g>
<g><path style="opacity:1" fill="#686757" d="M 43.5,54.5 C 41.9976,57.4129 40.9976,60.5796 40.5,64C 41.4061,65.6995 41.7394,67.5328 41.5,69.5C 40.8333,69.5 40.1667,69.5 39.5,69.5C 39.2213,64.4053 39.5546,59.4053 40.5,54.5C 41.4587,50.6385 42.4587,50.6385 43.5,54.5 Z"/></g>
<g><path style="opacity:1" fill="#4e4d3b" d="M 56.5,46.5 C 58.1725,49.198 59.3392,52.198 60,55.5C 60.8218,63.0118 60.6552,70.3451 59.5,77.5C 59.5,75.1667 59.5,72.8333 59.5,70.5C 59.0472,69.5416 58.3805,68.7083 57.5,68C 58.6405,67.2588 58.6405,66.4255 57.5,65.5C 58.0253,64.8076 58.6919,64.3076 59.5,64C 57.8052,59.6016 56.4719,55.1016 55.5,50.5C 55.2322,48.901 55.5655,47.5676 56.5,46.5 Z"/></g>
<g><path style="opacity:1" fill="#4b4a44" d="M 55.5,50.5 C 55.6643,57.2022 55.331,63.8689 54.5,70.5C 52.8484,69.1933 51.1818,69.1933 49.5,70.5C 47.9271,70.2483 46.5938,69.5817 45.5,68.5C 44.8592,67.5178 44.1925,66.5178 43.5,65.5C 43.6236,64.8933 43.9569,64.56 44.5,64.5C 44.5,65.1667 44.8333,65.5 45.5,65.5C 47.0443,65.2969 48.3777,64.6302 49.5,63.5C 50.8333,64.1667 52.1667,64.8333 53.5,65.5C 54.1668,60.3489 54.8335,55.3489 55.5,50.5 Z"/></g>
<g><path style="opacity:1" fill="#90908c" d="M 43.5,54.5 C 44.4137,57.728 44.7471,61.0613 44.5,64.5C 43.9569,64.56 43.6236,64.8933 43.5,65.5C 44.1925,66.5178 44.8592,67.5178 45.5,68.5C 44.7893,70.8418 43.456,71.1751 41.5,69.5C 41.7394,67.5328 41.4061,65.6995 40.5,64C 40.9976,60.5796 41.9976,57.4129 43.5,54.5 Z"/></g>
<g><path style="opacity:1" fill="#807e76" d="M 55.5,50.5 C 56.4719,55.1016 57.8052,59.6016 59.5,64C 58.6919,64.3076 58.0253,64.8076 57.5,65.5C 58.6405,66.4255 58.6405,67.2588 57.5,68C 58.3805,68.7083 59.0472,69.5416 59.5,70.5C 58.8333,70.8333 58.1667,71.1667 57.5,71.5C 56.791,70.596 55.791,70.2627 54.5,70.5C 55.331,63.8689 55.6643,57.2022 55.5,50.5 Z"/></g>
<g><path style="opacity:1" fill="#c2beb6" d="M 39.5,69.5 C 40.1667,69.5 40.8333,69.5 41.5,69.5C 42.1495,71.4352 42.4828,73.4352 42.5,75.5C 42.6596,77.153 43.3263,78.4863 44.5,79.5C 44.8333,80.1667 45.1667,80.8333 45.5,81.5C 45.573,83.0269 44.9063,84.0269 43.5,84.5C 41.1752,81.2462 39.8419,77.5796 39.5,73.5C 39.5,72.1667 39.5,70.8333 39.5,69.5 Z"/></g>
<g><path style="opacity:1" fill="#615d5e" d="M 50.5,73.5 C 51.6719,74.7053 53.0052,74.7053 54.5,73.5C 55.5896,74.3914 55.5896,75.3914 54.5,76.5C 51.2317,77.487 47.8984,77.8204 44.5,77.5C 44.1794,74.1198 45.1794,73.2865 47.5,75C 47.1667,75.3333 46.8333,75.6667 46.5,76C 51.4749,76.9706 52.1416,76.3039 48.5,74C 49.0944,73.5357 49.7611,73.369 50.5,73.5 Z"/></g>
<g><path style="opacity:1" fill="#bcb8ac" d="M 59.5,70.5 C 59.5,72.8333 59.5,75.1667 59.5,77.5C 58.8902,78.391 58.5569,79.391 58.5,80.5C 57.5041,80.4142 56.6708,80.7476 56,81.5C 55.5357,80.9056 55.369,80.2389 55.5,79.5C 56.475,76.9333 57.1417,74.2666 57.5,71.5C 58.1667,71.1667 58.8333,70.8333 59.5,70.5 Z"/></g>
<g><path style="opacity:1" fill="#161616" d="M 45.5,68.5 C 46.5938,69.5817 47.9271,70.2483 49.5,70.5C 51.1818,69.1933 52.8484,69.1933 54.5,70.5C 55.791,70.2627 56.791,70.596 57.5,71.5C 57.1417,74.2666 56.475,76.9333 55.5,79.5C 53.9458,80.9142 52.6125,82.5808 51.5,84.5C 52.4908,86.1227 51.8241,87.1227 49.5,87.5C 49.0248,84.8453 47.6915,82.8453 45.5,81.5C 45.1667,80.8333 44.8333,80.1667 44.5,79.5C 44.5,78.8333 44.5,78.1667 44.5,77.5C 47.8984,77.8204 51.2317,77.487 54.5,76.5C 55.5896,75.3914 55.5896,74.3914 54.5,73.5C 53.0052,74.7053 51.6719,74.7053 50.5,73.5C 51.4982,73.6563 52.4982,73.1563 53.5,72C 50.8333,71.3333 48.1667,71.3333 45.5,72C 44.1859,72.985 43.1859,74.1516 42.5,75.5C 42.4828,73.4352 42.1495,71.4352 41.5,69.5C 43.456,71.1751 44.7893,70.8418 45.5,68.5 Z"/></g>
<g><path style="opacity:1" fill="#393738" d="M 50.5,73.5 C 49.7611,73.369 49.0944,73.5357 48.5,74C 52.1416,76.3039 51.4749,76.9706 46.5,76C 46.8333,75.6667 47.1667,75.3333 47.5,75C 45.1794,73.2865 44.1794,74.1198 44.5,77.5C 44.5,78.1667 44.5,78.8333 44.5,79.5C 43.3263,78.4863 42.6596,77.153 42.5,75.5C 43.1859,74.1516 44.1859,72.985 45.5,72C 48.1667,71.3333 50.8333,71.3333 53.5,72C 52.4982,73.1563 51.4982,73.6563 50.5,73.5 Z"/></g>
<g><path style="opacity:1" fill="#b1adac" d="M 48.5,79.5 C 50.337,79.6395 50.6704,80.3061 49.5,81.5C 48.7025,81.0431 48.3691,80.3764 48.5,79.5 Z"/></g>
<g><path style="opacity:1" fill="#767570" d="M 55.5,79.5 C 55.369,80.2389 55.5357,80.9056 56,81.5C 56.6708,80.7476 57.5041,80.4142 58.5,80.5C 56.6327,85.0372 53.2993,87.7039 48.5,88.5C 46.246,87.8763 44.5794,86.543 43.5,84.5C 44.9063,84.0269 45.573,83.0269 45.5,81.5C 47.6915,82.8453 49.0248,84.8453 49.5,87.5C 51.8241,87.1227 52.4908,86.1227 51.5,84.5C 52.6125,82.5808 53.9458,80.9142 55.5,79.5 Z"/></g>
<g><path style="opacity:1" fill="#0d0c0d" d="M 39.5,73.5 C 39.8419,77.5796 41.1752,81.2462 43.5,84.5C 44.5794,86.543 46.246,87.8763 48.5,88.5C 51.7767,89.5299 55.1101,89.1966 58.5,87.5C 60.4414,85.6841 61.1081,83.6841 60.5,81.5C 62.2289,83.8511 62.8956,86.5178 62.5,89.5C 55.8333,89.8333 55.8333,90.1667 62.5,90.5C 62.5,91.5 62.5,92.5 62.5,93.5C 58.6089,95.0074 54.4422,95.6741 50,95.5C 47.1667,95.3333 44.3333,95.1667 41.5,95C 39.5087,94.6264 37.842,93.793 36.5,92.5C 36.3336,84.16 36.5003,75.8267 37,67.5C 37.3333,67.1667 37.6667,66.8333 38,66.5C 38.1862,69.0356 38.6862,71.369 39.5,73.5 Z"/></g>
</svg>
