<?xml version="1.0" encoding="UTF-8"?>
<!DOCTYPE svg PUBLIC "-//W3C//DTD SVG 1.1//EN" "http://www.w3.org/Graphics/SVG/1.1/DTD/svg11.dtd">
<svg xmlns="http://www.w3.org/2000/svg" version="1.1" width="100px" height="100px" style="shape-rendering:geometricPrecision; text-rendering:geometricPrecision; image-rendering:optimizeQuality; fill-rule:evenodd; clip-rule:evenodd" xmlns:xlink="http://www.w3.org/1999/xlink">
<g><path style="opacity:1" fill="#db9b51" d="M 67.5,24.5 C 67.0919,25.6431 66.4252,26.6431 65.5,27.5C 63.6837,26.2651 62.017,26.2651 60.5,27.5C 58.8946,28.0059 58.5613,28.6726 59.5,29.5C 60.1667,30.1667 60.8333,30.8333 61.5,31.5C 60.5,31.5 59.5,31.5 58.5,31.5C 57.9717,30.2794 57.305,29.1127 56.5,28C 52.5,27.6667 48.5,27.3333 44.5,27C 45.7375,26.7679 46.7375,26.2679 47.5,25.5C 54.109,24.5774 60.7756,24.2441 67.5,24.5 Z"/></g>
<g><path style="opacity:1" fill="#d9b695" d="M 39.5,26.5 C 35.0511,26.1641 31.3845,26.4974 28.5,27.5C 29.1667,28.1667 29.8333,28.8333 30.5,29.5C 29.8333,29.5 29.1667,29.5 28.5,29.5C 24.8333,28.8333 21.1667,28.1667 17.5,27.5C 17.1667,27.5 16.8333,27.5 16.5,27.5C 18.5097,26.3068 20.6763,26.3068 23,27.5C 26.642,25.9754 30.4753,24.9754 34.5,24.5C 36.3361,25.0276 38.0028,25.6942 39.5,26.5 Z"/></g>
<g><path style="opacity:1" fill="#d28c3b" d="M 47.5,25.5 C 46.7375,26.2679 45.7375,26.7679 44.5,27C 48.5,27.3333 52.5,27.6667 56.5,28C 57.305,29.1127 57.9717,30.2794 58.5,31.5C 53.1275,29.1041 47.4608,28.1041 41.5,28.5C 37.1311,28.5328 32.7978,28.1995 28.5,27.5C 31.3845,26.4974 35.0511,26.1641 39.5,26.5C 42.1667,26.1667 44.8333,25.8333 47.5,25.5 Z"/></g>
<g><path style="opacity:1" fill="#b5621b" d="M 78.5,26.5 C 78.5,27.5 78.5,28.5 78.5,29.5C 72.316,29.9653 66.316,29.2986 60.5,27.5C 62.017,26.2651 63.6837,26.2651 65.5,27.5C 66.4252,26.6431 67.0919,25.6431 67.5,24.5C 71.3335,23.7021 75.0002,24.3687 78.5,26.5 Z"/></g>
<g><path style="opacity:1" fill="#c8731a" d="M 78.5,26.5 C 79.5,26.8333 80.1667,27.5 80.5,28.5C 80.7148,30.1788 80.0481,31.1788 78.5,31.5C 75.3322,30.5565 71.9988,30.5565 68.5,31.5C 65.5,30.8333 62.5,30.1667 59.5,29.5C 58.5613,28.6726 58.8946,28.0059 60.5,27.5C 66.316,29.2986 72.316,29.9653 78.5,29.5C 78.5,28.5 78.5,27.5 78.5,26.5 Z"/></g>
<g><path style="opacity:1" fill="#e2a450" d="M 41.5,28.5 C 47.4608,28.1041 53.1275,29.1041 58.5,31.5C 59.5,31.5 60.5,31.5 61.5,31.5C 60.7886,33.2014 59.4553,34.2014 57.5,34.5C 56.0813,33.5489 54.4147,33.2155 52.5,33.5C 51.3872,31.2431 49.7205,30.5764 47.5,31.5C 44.9527,31.229 42.9527,30.229 41.5,28.5 Z"/></g>
<g><path style="opacity:1" fill="#d9a45b" d="M 80.5,28.5 C 82.7488,29.0798 84.4154,30.4131 85.5,32.5C 84.3285,33.3446 82.9952,34.0113 81.5,34.5C 81.631,33.7611 81.4643,33.0944 81,32.5C 79.2942,33.3079 78.4609,34.6412 78.5,36.5C 77.2801,34.9504 77.2801,33.2837 78.5,31.5C 80.0481,31.1788 80.7148,30.1788 80.5,28.5 Z"/></g>
<g><path style="opacity:1" fill="#dd9f57" d="M 17.5,27.5 C 21.1667,28.1667 24.8333,28.8333 28.5,29.5C 28.1257,31.9497 26.6257,32.9497 24,32.5C 21.0311,31.9173 18.8644,30.2506 17.5,27.5 Z"/></g>
<g><path style="opacity:1" fill="#e6ad5f" d="M 28.5,27.5 C 32.7978,28.1995 37.1311,28.5328 41.5,28.5C 42.9527,30.229 44.9527,31.229 47.5,31.5C 49.7205,30.5764 51.3872,31.2431 52.5,33.5C 47.8846,33.5804 43.2179,32.9138 38.5,31.5C 35.8333,30.8333 33.1667,30.1667 30.5,29.5C 29.8333,28.8333 29.1667,28.1667 28.5,27.5 Z"/></g>
<g><path style="opacity:1" fill="#f2bd7d" d="M 15.5,27.5 C 15.8333,27.5 16.1667,27.5 16.5,27.5C 16.8333,27.5 17.1667,27.5 17.5,27.5C 18.8644,30.2506 21.0311,31.9173 24,32.5C 26.6257,32.9497 28.1257,31.9497 28.5,29.5C 29.1667,29.5 29.8333,29.5 30.5,29.5C 33.1667,30.1667 35.8333,30.8333 38.5,31.5C 35.1934,31.0632 32.1934,31.7298 29.5,33.5C 31.9688,34.1681 34.3021,34.8347 36.5,35.5C 33.5,35.5 30.5,35.5 27.5,35.5C 25.0521,34.5269 22.3854,34.1936 19.5,34.5C 17.7354,33.5386 15.7354,33.2053 13.5,33.5C 13.6036,31.2972 14.2702,29.2972 15.5,27.5 Z"/></g>
<g><path style="opacity:1" fill="#f2c27a" d="M 38.5,31.5 C 43.2179,32.9138 47.8846,33.5804 52.5,33.5C 54.4147,33.2155 56.0813,33.5489 57.5,34.5C 55.5853,34.2155 53.9187,34.5489 52.5,35.5C 49.6122,34.9898 47.2789,35.6565 45.5,37.5C 42.5701,36.701 39.5701,36.3677 36.5,36.5C 36.5,36.1667 36.5,35.8333 36.5,35.5C 34.3021,34.8347 31.9688,34.1681 29.5,33.5C 32.1934,31.7298 35.1934,31.0632 38.5,31.5 Z"/></g>
<g><path style="opacity:1" fill="#e29834" d="M 59.5,29.5 C 62.5,30.1667 65.5,30.8333 68.5,31.5C 69.8083,32.2323 71.1416,33.0656 72.5,34C 72,34.5 71.5,35 71,35.5C 67.4522,33.1049 63.9522,33.1049 60.5,35.5C 59.1667,35.5 57.8333,35.5 56.5,35.5C 55.1667,35.5 53.8333,35.5 52.5,35.5C 53.9187,34.5489 55.5853,34.2155 57.5,34.5C 59.4553,34.2014 60.7886,33.2014 61.5,31.5C 60.8333,30.8333 60.1667,30.1667 59.5,29.5 Z"/></g>
<g><path style="opacity:1" fill="#ec982d" d="M 78.5,31.5 C 77.2801,33.2837 77.2801,34.9504 78.5,36.5C 78.6107,37.1174 78.944,37.6174 79.5,38C 78.2068,38.49 76.8734,38.6567 75.5,38.5C 75.3893,37.8826 75.056,37.3826 74.5,37C 71.8121,36.6076 69.1454,36.1076 66.5,35.5C 65.5836,35.5427 64.9169,35.8761 64.5,36.5C 63.0413,36.5674 61.7079,36.2341 60.5,35.5C 63.9522,33.1049 67.4522,33.1049 71,35.5C 71.5,35 72,34.5 72.5,34C 71.1416,33.0656 69.8083,32.2323 68.5,31.5C 71.9988,30.5565 75.3322,30.5565 78.5,31.5 Z"/></g>
<g><path style="opacity:1" fill="#fbdcb2" d="M 15.5,27.5 C 14.2702,29.2972 13.6036,31.2972 13.5,33.5C 15.7354,33.2053 17.7354,33.5386 19.5,34.5C 22.1247,35.802 22.1247,37.1353 19.5,38.5C 18.6143,37.675 18.281,36.675 18.5,35.5C 15.6146,35.1936 12.9479,35.5269 10.5,36.5C 9.02218,36.762 7.68884,36.4287 6.5,35.5C 8.2749,31.3884 11.2749,28.7217 15.5,27.5 Z"/></g>
<g><path style="opacity:1" fill="#b36d08" d="M 27.5,35.5 C 30.5,35.5 33.5,35.5 36.5,35.5C 36.5,35.8333 36.5,36.1667 36.5,36.5C 32.7983,36.421 29.1317,36.7543 25.5,37.5C 24.5,37.1667 23.5,36.8333 22.5,36.5C 24.0453,35.5481 25.712,35.2148 27.5,35.5 Z"/></g>
<g><path style="opacity:1" fill="#9c5507" d="M 52.5,35.5 C 53.8333,35.5 55.1667,35.5 56.5,35.5C 54.5718,37.2939 52.2384,38.2939 49.5,38.5C 48.2921,37.7659 46.9587,37.4326 45.5,37.5C 47.2789,35.6565 49.6122,34.9898 52.5,35.5 Z"/></g>
<g><path style="opacity:1" fill="#ebbc6b" d="M 19.5,34.5 C 22.3854,34.1936 25.0521,34.5269 27.5,35.5C 25.712,35.2148 24.0453,35.5481 22.5,36.5C 23.5,36.8333 24.5,37.1667 25.5,37.5C 29.1317,36.7543 32.7983,36.421 36.5,36.5C 34.7078,37.3091 32.7078,37.8091 30.5,38C 31.056,38.3826 31.3893,38.8826 31.5,39.5C 29.6032,40.6496 27.6032,41.6496 25.5,42.5C 24.8288,41.1529 24.8288,39.9862 25.5,39C 23.5116,38.8195 21.5116,38.9862 19.5,39.5C 17.0445,37.8617 15.0445,38.195 13.5,40.5C 12.5041,40.4142 11.6708,40.7476 11,41.5C 10.7216,40.5842 10.2216,39.9175 9.5,39.5C 9.55688,38.391 9.89022,37.391 10.5,36.5C 12.9479,35.5269 15.6146,35.1936 18.5,35.5C 18.281,36.675 18.6143,37.675 19.5,38.5C 22.1247,37.1353 22.1247,35.802 19.5,34.5 Z"/></g>
<g><path style="opacity:1" fill="#e9cb8e" d="M 56.5,35.5 C 57.8333,35.5 59.1667,35.5 60.5,35.5C 61.7079,36.2341 63.0413,36.5674 64.5,36.5C 65.391,37.1098 66.391,37.4431 67.5,37.5C 64.4764,38.5328 61.1431,38.5328 57.5,37.5C 57.33,38.8221 57.6634,39.9887 58.5,41C 60.6792,40.716 62.6792,40.8826 64.5,41.5C 62.847,41.6596 61.5137,42.3263 60.5,43.5C 58.7085,43.634 57.0418,43.3007 55.5,42.5C 54.4324,41.5655 53.099,41.2322 51.5,41.5C 53.3864,40.9348 55.0531,39.9348 56.5,38.5C 54.2672,39.2217 51.9339,39.2217 49.5,38.5C 52.2384,38.2939 54.5718,37.2939 56.5,35.5 Z"/></g>
<g><path style="opacity:1" fill="#864215" d="M 64.5,36.5 C 64.9169,35.8761 65.5836,35.5427 66.5,35.5C 69.1454,36.1076 71.8121,36.6076 74.5,37C 75.056,37.3826 75.3893,37.8826 75.5,38.5C 75.1667,38.5 74.8333,38.5 74.5,38.5C 72.8333,38.5 71.1667,38.5 69.5,38.5C 69.1583,37.6618 68.4916,37.3284 67.5,37.5C 66.391,37.4431 65.391,37.1098 64.5,36.5 Z"/></g>
<g><path style="opacity:1" fill="#e9c676" d="M 67.5,37.5 C 68.4916,37.3284 69.1583,37.6618 69.5,38.5C 67.7697,39.0256 66.4363,40.0256 65.5,41.5C 65.1667,41.5 64.8333,41.5 64.5,41.5C 62.6792,40.8826 60.6792,40.716 58.5,41C 57.6634,39.9887 57.33,38.8221 57.5,37.5C 61.1431,38.5328 64.4764,38.5328 67.5,37.5 Z"/></g>
<g><path style="opacity:1" fill="#fcf0d9" d="M 85.5,32.5 C 88.1413,34.7728 89.1413,37.4395 88.5,40.5C 87.791,39.596 86.791,39.2627 85.5,39.5C 83.4446,38.4412 82.1112,36.7746 81.5,34.5C 82.9952,34.0113 84.3285,33.3446 85.5,32.5 Z"/></g>
<g><path style="opacity:1" fill="#fcf0cb" d="M 25.5,42.5 C 24.2652,42.2786 23.2652,41.6119 22.5,40.5C 20.7751,42.0916 19.7751,41.7583 19.5,39.5C 21.5116,38.9862 23.5116,38.8195 25.5,39C 24.8288,39.9862 24.8288,41.1529 25.5,42.5 Z"/></g>
<g><path style="opacity:1" fill="#f4d07e" d="M 47.5,41.5 C 45.847,41.6596 44.5137,42.3263 43.5,43.5C 42.8333,43.5 42.1667,43.5 41.5,43.5C 39.5165,43.3832 37.8498,44.0499 36.5,45.5C 35.8165,45.1373 35.1499,44.8039 34.5,44.5C 33.5592,42.9505 32.8925,41.2838 32.5,39.5C 35.8333,38.8333 39.1667,38.1667 42.5,37.5C 42.2864,41.2571 43.2864,41.9238 45.5,39.5C 46.5223,39.8555 47.189,40.5222 47.5,41.5 Z"/></g>
<g><path style="opacity:1" fill="#fcebbb" d="M 36.5,36.5 C 39.5701,36.3677 42.5701,36.701 45.5,37.5C 46.9587,37.4326 48.2921,37.7659 49.5,38.5C 51.9339,39.2217 54.2672,39.2217 56.5,38.5C 55.0531,39.9348 53.3864,40.9348 51.5,41.5C 50.1667,41.5 48.8333,41.5 47.5,41.5C 47.189,40.5222 46.5223,39.8555 45.5,39.5C 43.2864,41.9238 42.2864,41.2571 42.5,37.5C 39.1667,38.1667 35.8333,38.8333 32.5,39.5C 32.1667,39.5 31.8333,39.5 31.5,39.5C 31.3893,38.8826 31.056,38.3826 30.5,38C 32.7078,37.8091 34.7078,37.3091 36.5,36.5 Z"/></g>
<g><path style="opacity:1" fill="#faeecd" d="M 69.5,38.5 C 71.1667,38.5 72.8333,38.5 74.5,38.5C 75.0906,39.1515 75.7573,39.8182 76.5,40.5C 75.2086,41.5272 75.2086,42.5272 76.5,43.5C 74.8002,43.3739 73.3002,42.7073 72,41.5C 71.0497,42.0223 70.2164,42.689 69.5,43.5C 68.3777,42.3698 67.0443,41.7031 65.5,41.5C 66.4363,40.0256 67.7697,39.0256 69.5,38.5 Z"/></g>
<g><path style="opacity:1" fill="#f9e1af" d="M 81.5,34.5 C 82.1112,36.7746 83.4446,38.4412 85.5,39.5C 81.7774,40.0634 81.1107,41.3967 83.5,43.5C 81.1667,43.5 78.8333,43.5 76.5,43.5C 75.2086,42.5272 75.2086,41.5272 76.5,40.5C 75.7573,39.8182 75.0906,39.1515 74.5,38.5C 74.8333,38.5 75.1667,38.5 75.5,38.5C 76.8734,38.6567 78.2068,38.49 79.5,38C 78.944,37.6174 78.6107,37.1174 78.5,36.5C 78.4609,34.6412 79.2942,33.3079 81,32.5C 81.4643,33.0944 81.631,33.7611 81.5,34.5 Z"/></g>
<g><path style="opacity:1" fill="#4f0b00" d="M 13.5,40.5 C 15.7929,41.3013 15.4596,41.968 12.5,42.5C 12.8333,41.8333 13.1667,41.1667 13.5,40.5 Z"/></g>
<g><path style="opacity:1" fill="#d9953f" d="M 19.5,39.5 C 19.7751,41.7583 20.7751,42.0916 22.5,40.5C 23.2652,41.6119 24.2652,42.2786 25.5,42.5C 25.1667,43.1667 24.8333,43.8333 24.5,44.5C 22.8333,43.8333 21.1667,43.1667 19.5,42.5C 17.6854,43.6298 15.6854,44.2964 13.5,44.5C 11.5759,44.2893 11.2426,43.6226 12.5,42.5C 15.4596,41.968 15.7929,41.3013 13.5,40.5C 15.0445,38.195 17.0445,37.8617 19.5,39.5 Z"/></g>
<g><path style="opacity:1" fill="#fce3aa" d="M 85.5,39.5 C 86.791,39.2627 87.791,39.596 88.5,40.5C 87.7611,40.369 87.0944,40.5357 86.5,41C 88.7418,43.7752 91.0752,46.6085 93.5,49.5C 92.7222,51.3835 92.3889,53.0502 92.5,54.5C 91.8333,54.1667 91.1667,53.8333 90.5,53.5C 90.5,51.5 89.5,50.5 87.5,50.5C 87.9746,47.9179 87.3079,45.9179 85.5,44.5C 85.1583,43.6618 84.4916,43.3284 83.5,43.5C 81.1107,41.3967 81.7774,40.0634 85.5,39.5 Z"/></g>
<g><path style="opacity:1" fill="#e38c20" d="M 31.5,39.5 C 31.8333,39.5 32.1667,39.5 32.5,39.5C 32.8925,41.2838 33.5592,42.9505 34.5,44.5C 32.742,44.1231 31.0754,43.4565 29.5,42.5C 28.0499,43.8498 27.3832,45.5165 27.5,47.5C 27.5,47.8333 27.5,48.1667 27.5,48.5C 26.8826,48.3893 26.3826,48.056 26,47.5C 25.7216,48.4158 25.2216,49.0825 24.5,49.5C 24.38,48.4138 23.7133,47.7472 22.5,47.5C 21.2613,47.9424 20.2613,48.6091 19.5,49.5C 19.4326,48.0413 19.7659,46.7079 20.5,45.5C 22.456,47.1751 23.7893,46.8418 24.5,44.5C 24.8333,43.8333 25.1667,43.1667 25.5,42.5C 27.6032,41.6496 29.6032,40.6496 31.5,39.5 Z"/></g>
<g><path style="opacity:1" fill="#a64e13" d="M 47.5,41.5 C 48.8333,41.5 50.1667,41.5 51.5,41.5C 53.099,41.2322 54.4324,41.5655 55.5,42.5C 53.5853,42.2155 51.9187,42.5489 50.5,43.5C 50.5,44.1667 50.5,44.8333 50.5,45.5C 50.5,46.1667 50.1667,46.5 49.5,46.5C 49.5,45.5 49.5,44.5 49.5,43.5C 47.1902,43.7583 45.1902,43.7583 43.5,43.5C 44.5137,42.3263 45.847,41.6596 47.5,41.5 Z"/></g>
<g><path style="opacity:1" fill="#090000" d="M 50.5,43.5 C 53.925,43.3668 54.2583,44.0335 51.5,45.5C 51.1667,45.5 50.8333,45.5 50.5,45.5C 50.5,44.8333 50.5,44.1667 50.5,43.5 Z"/></g>
<g><path style="opacity:1" fill="#5a5a17" d="M 19.5,42.5 C 21.1667,43.1667 22.8333,43.8333 24.5,44.5C 23.7893,46.8418 22.456,47.1751 20.5,45.5C 20.5,44.8333 20.1667,44.5 19.5,44.5C 19.5,43.8333 19.5,43.1667 19.5,42.5 Z"/></g>
<g><path style="opacity:1" fill="#f3dca4" d="M 64.5,41.5 C 64.8333,41.5 65.1667,41.5 65.5,41.5C 67.0443,41.7031 68.3777,42.3698 69.5,43.5C 70.2164,42.689 71.0497,42.0223 72,41.5C 73.3002,42.7073 74.8002,43.3739 76.5,43.5C 78.8333,43.5 81.1667,43.5 83.5,43.5C 80.3533,44.0456 77.3533,45.0456 74.5,46.5C 73.8333,46.8333 73.1667,47.1667 72.5,47.5C 71.596,46.791 71.2627,45.791 71.5,44.5C 69.3792,44.3253 67.3792,44.6586 65.5,45.5C 63.8333,44.8333 62.1667,44.1667 60.5,43.5C 61.5137,42.3263 62.847,41.6596 64.5,41.5 Z"/></g>
<g><path style="opacity:1" fill="#270e00" d="M 19.5,42.5 C 19.5,43.1667 19.5,43.8333 19.5,44.5C 18.2003,45.1079 16.8669,45.7745 15.5,46.5C 14.2867,46.2528 13.62,45.5862 13.5,44.5C 15.6854,44.2964 17.6854,43.6298 19.5,42.5 Z"/></g>
<g><path style="opacity:1" fill="#f7c984" d="M 41.5,43.5 C 42.1667,43.5 42.8333,43.5 43.5,43.5C 45.1902,43.7583 47.1902,43.7583 49.5,43.5C 49.5,44.5 49.5,45.5 49.5,46.5C 49.5,47.1667 49.5,47.8333 49.5,48.5C 48.6043,49.5063 47.9377,49.5063 47.5,48.5C 47.6716,47.5084 47.3382,46.8417 46.5,46.5C 44.8561,46.7135 43.3561,46.3802 42,45.5C 40.907,47.3492 39.5737,49.0158 38,50.5C 37.5172,49.552 37.3505,48.552 37.5,47.5C 38.8333,46.1667 40.1667,44.8333 41.5,43.5 Z"/></g>
<g><path style="opacity:1" fill="#56600e" d="M 50.5,43.5 C 51.9187,42.5489 53.5853,42.2155 55.5,42.5C 57.0418,43.3007 58.7085,43.634 60.5,43.5C 62.1667,44.1667 63.8333,44.8333 65.5,45.5C 65.5,45.8333 65.5,46.1667 65.5,46.5C 62.5,46.5 59.5,46.5 56.5,46.5C 54.9582,45.6993 53.2915,45.366 51.5,45.5C 54.2583,44.0335 53.925,43.3668 50.5,43.5 Z"/></g>
<g><path style="opacity:1" fill="#82320f" d="M 34.5,44.5 C 35.1499,44.8039 35.8165,45.1373 36.5,45.5C 37.8498,44.0499 39.5165,43.3832 41.5,43.5C 40.1667,44.8333 38.8333,46.1667 37.5,47.5C 36.9348,49.42 35.9348,51.0867 34.5,52.5C 34.4142,51.5041 34.7476,50.6708 35.5,50C 34.9056,49.5357 34.2389,49.369 33.5,49.5C 32.8444,48.7222 32.0111,48.0556 31,47.5C 29.7393,48.6579 28.5726,48.6579 27.5,47.5C 27.3832,45.5165 28.0499,43.8498 29.5,42.5C 31.0754,43.4565 32.742,44.1231 34.5,44.5 Z"/></g>
<g><path style="opacity:1" fill="#c9802f" d="M 9.5,39.5 C 10.2216,39.9175 10.7216,40.5842 11,41.5C 11.6708,40.7476 12.5041,40.4142 13.5,40.5C 13.1667,41.1667 12.8333,41.8333 12.5,42.5C 11.2426,43.6226 11.5759,44.2893 13.5,44.5C 13.62,45.5862 14.2867,46.2528 15.5,46.5C 16.8669,45.7745 18.2003,45.1079 19.5,44.5C 20.1667,44.5 20.5,44.8333 20.5,45.5C 19.7659,46.7079 19.4326,48.0413 19.5,49.5C 16.2722,47.9736 13.6055,48.6403 11.5,51.5C 10.8999,50.0998 9.89992,49.0998 8.5,48.5C 9.01925,45.4647 9.35259,42.4647 9.5,39.5 Z"/></g>
<g><path style="opacity:1" fill="#220300" d="M 46.5,46.5 C 47.3382,46.8417 47.6716,47.5084 47.5,48.5C 46.0755,50.0311 45.4088,49.6977 45.5,47.5C 46.1667,47.5 46.5,47.1667 46.5,46.5 Z"/></g>
<g><path style="opacity:1" fill="#7f3903" d="M 56.5,46.5 C 59.5,46.5 62.5,46.5 65.5,46.5C 66.1667,46.5 66.5,46.8333 66.5,47.5C 66.7678,49.099 66.4345,50.4324 65.5,51.5C 65.5,50.5 65.5,49.5 65.5,48.5C 62.8127,48.6641 60.146,48.4974 57.5,48C 56.944,47.6174 56.6107,47.1174 56.5,46.5 Z"/></g>
<g><path style="opacity:1" fill="#eecf8d" d="M 72.5,47.5 C 72.5,48.1667 72.1667,48.5 71.5,48.5C 70.8423,49.3984 70.1757,50.3984 69.5,51.5C 68.8182,50.7573 68.1515,50.0906 67.5,49.5C 67.6716,48.5084 67.3382,47.8417 66.5,47.5C 66.5,46.8333 66.1667,46.5 65.5,46.5C 65.5,46.1667 65.5,45.8333 65.5,45.5C 67.3792,44.6586 69.3792,44.3253 71.5,44.5C 71.2627,45.791 71.596,46.791 72.5,47.5 Z"/></g>
<g><path style="opacity:1" fill="#d27413" d="M 85.5,44.5 C 87.3079,45.9179 87.9746,47.9179 87.5,50.5C 85.5138,51.7612 83.6805,51.4278 82,49.5C 81.5357,50.0944 81.369,50.7611 81.5,51.5C 77.6288,47.693 78.6288,46.3597 84.5,47.5C 85.3857,46.675 85.719,45.675 85.5,44.5 Z"/></g>
<g><path style="opacity:1" fill="#b84e00" d="M 74.5,46.5 C 74.9418,47.2312 75.1085,48.2312 75,49.5C 75.6708,50.2524 76.5041,50.5858 77.5,50.5C 76.4324,51.4345 75.099,51.7678 73.5,51.5C 72.8333,50.5 72.1667,49.5 71.5,48.5C 72.1667,48.5 72.5,48.1667 72.5,47.5C 73.1667,47.1667 73.8333,46.8333 74.5,46.5 Z"/></g>
<g><path style="opacity:1" fill="#f9ca7a" d="M 83.5,43.5 C 84.4916,43.3284 85.1583,43.6618 85.5,44.5C 85.719,45.675 85.3857,46.675 84.5,47.5C 78.6288,46.3597 77.6288,47.693 81.5,51.5C 82.3382,51.8417 82.6716,52.5084 82.5,53.5C 81.3951,54.6005 80.0618,55.2671 78.5,55.5C 77.9094,54.8485 77.2427,54.1818 76.5,53.5C 77.5,52.8333 78.5,52.1667 79.5,51.5C 79.0431,50.7025 78.3764,50.3691 77.5,50.5C 76.5041,50.5858 75.6708,50.2524 75,49.5C 75.1085,48.2312 74.9418,47.2312 74.5,46.5C 77.3533,45.0456 80.3533,44.0456 83.5,43.5 Z"/></g>
<g><path style="opacity:1" fill="#e1a060" d="M 27.5,47.5 C 28.5726,48.6579 29.7393,48.6579 31,47.5C 32.0111,48.0556 32.8444,48.7222 33.5,49.5C 31.3718,50.6291 29.0385,50.7958 26.5,50C 27.056,49.6174 27.3893,49.1174 27.5,48.5C 27.5,48.1667 27.5,47.8333 27.5,47.5 Z"/></g>
<g><path style="opacity:1" fill="#6b2002" d="M 50.5,45.5 C 50.8333,45.5 51.1667,45.5 51.5,45.5C 52.0065,46.8589 53.0065,47.8589 54.5,48.5C 53.8728,49.4168 53.5394,50.4168 53.5,51.5C 50.592,52.5691 47.592,52.7358 44.5,52C 46.8782,51.4888 49.2115,50.8221 51.5,50C 50.5842,49.7216 49.9175,49.2216 49.5,48.5C 49.5,47.8333 49.5,47.1667 49.5,46.5C 50.1667,46.5 50.5,46.1667 50.5,45.5 Z"/></g>
<g><path style="opacity:1" fill="#8b850e" d="M 8.5,48.5 C 9.89992,49.0998 10.8999,50.0998 11.5,51.5C 13.8333,52.8333 16.1667,52.8333 18.5,51.5C 19.1667,51.8333 19.8333,52.1667 20.5,52.5C 21.1135,54.2825 22.2802,55.6159 24,56.5C 24.4643,55.9056 24.631,55.2389 24.5,54.5C 25.8333,54.5 27.1667,54.5 28.5,54.5C 28.0825,55.2216 27.4158,55.7216 26.5,56C 27.7375,56.2321 28.7375,56.7321 29.5,57.5C 28.391,57.5569 27.391,57.8902 26.5,58.5C 20.631,55.8879 14.631,53.8879 8.5,52.5C 7.60908,51.7387 6.94242,50.7387 6.5,49.5C 6.95689,48.7025 7.62356,48.3691 8.5,48.5 Z"/></g>
<g><path style="opacity:1" fill="#9d1e01" d="M 19.5,49.5 C 19.1667,50.1667 18.8333,50.8333 18.5,51.5C 16.1667,52.8333 13.8333,52.8333 11.5,51.5C 13.6055,48.6403 16.2722,47.9736 19.5,49.5 Z"/></g>
<g><path style="opacity:1" fill="#eca74e" d="M 51.5,45.5 C 53.2915,45.366 54.9582,45.6993 56.5,46.5C 56.6107,47.1174 56.944,47.6174 57.5,48C 60.146,48.4974 62.8127,48.6641 65.5,48.5C 65.5,49.5 65.5,50.5 65.5,51.5C 61.65,51.7556 57.65,51.7556 53.5,51.5C 53.5394,50.4168 53.8728,49.4168 54.5,48.5C 53.0065,47.8589 52.0065,46.8589 51.5,45.5 Z"/></g>
<g><path style="opacity:1" fill="#f4bc64" d="M 71.5,48.5 C 72.1667,49.5 72.8333,50.5 73.5,51.5C 71.7809,52.0221 70.4475,53.0221 69.5,54.5C 68.209,54.2627 67.209,54.596 66.5,55.5C 65.8333,55.5 65.1667,55.5 64.5,55.5C 61.6802,55.7525 59.0135,55.2525 56.5,54C 59.4601,54.3201 62.4601,54.3201 65.5,54C 67.0368,52.8904 67.7035,51.3904 67.5,49.5C 68.1515,50.0906 68.8182,50.7573 69.5,51.5C 70.1757,50.3984 70.8423,49.3984 71.5,48.5 Z"/></g>
<g><path style="opacity:1" fill="#e2a653" d="M 24.5,49.5 C 23.325,49.281 22.325,49.6143 21.5,50.5C 23.6317,51.5984 25.7984,52.5984 28,53.5C 30.0846,52.3531 31.5846,53.0197 32.5,55.5C 33.1067,55.3764 33.44,55.0431 33.5,54.5C 34.3764,54.3691 35.0431,54.7025 35.5,55.5C 34.3881,56.2652 33.7214,57.2652 33.5,58.5C 31.8333,57.1667 30.1667,55.8333 28.5,54.5C 27.1667,54.5 25.8333,54.5 24.5,54.5C 23.3951,53.3995 22.0618,52.7329 20.5,52.5C 19.8333,52.1667 19.1667,51.8333 18.5,51.5C 18.8333,50.8333 19.1667,50.1667 19.5,49.5C 20.2613,48.6091 21.2613,47.9424 22.5,47.5C 23.7133,47.7472 24.38,48.4138 24.5,49.5 Z"/></g>
<g><path style="opacity:1" fill="#b0560a" d="M 27.5,48.5 C 27.3893,49.1174 27.056,49.6174 26.5,50C 29.0385,50.7958 31.3718,50.6291 33.5,49.5C 34.2389,49.369 34.9056,49.5357 35.5,50C 34.7476,50.6708 34.4142,51.5041 34.5,52.5C 33.6618,52.8417 33.3284,53.5084 33.5,54.5C 33.44,55.0431 33.1067,55.3764 32.5,55.5C 31.5846,53.0197 30.0846,52.3531 28,53.5C 25.7984,52.5984 23.6317,51.5984 21.5,50.5C 22.325,49.6143 23.325,49.281 24.5,49.5C 25.2216,49.0825 25.7216,48.4158 26,47.5C 26.3826,48.056 26.8826,48.3893 27.5,48.5 Z"/></g>
<g><path style="opacity:1" fill="#f2a02a" d="M 77.5,50.5 C 78.3764,50.3691 79.0431,50.7025 79.5,51.5C 78.5,52.1667 77.5,52.8333 76.5,53.5C 77.2427,54.1818 77.9094,54.8485 78.5,55.5C 75.4824,55.2962 72.4824,54.9629 69.5,54.5C 70.4475,53.0221 71.7809,52.0221 73.5,51.5C 75.099,51.7678 76.4324,51.4345 77.5,50.5 Z"/></g>
<g><path style="opacity:1" fill="#e9a047" d="M 46.5,46.5 C 46.5,47.1667 46.1667,47.5 45.5,47.5C 42.6097,47.5268 41.6097,48.6935 42.5,51C 41.4281,52.2837 40.0948,52.6171 38.5,52C 37.2395,54.2555 35.9061,56.4221 34.5,58.5C 34.1667,58.5 33.8333,58.5 33.5,58.5C 33.7214,57.2652 34.3881,56.2652 35.5,55.5C 35.0431,54.7025 34.3764,54.3691 33.5,54.5C 33.3284,53.5084 33.6618,52.8417 34.5,52.5C 35.9348,51.0867 36.9348,49.42 37.5,47.5C 37.3505,48.552 37.5172,49.552 38,50.5C 39.5737,49.0158 40.907,47.3492 42,45.5C 43.3561,46.3802 44.8561,46.7135 46.5,46.5 Z"/></g>
<g><path style="opacity:1" fill="#d17d1f" d="M 45.5,47.5 C 45.4088,49.6977 46.0755,50.0311 47.5,48.5C 47.9377,49.5063 48.6043,49.5063 49.5,48.5C 49.9175,49.2216 50.5842,49.7216 51.5,50C 49.2115,50.8221 46.8782,51.4888 44.5,52C 47.592,52.7358 50.592,52.5691 53.5,51.5C 53.9175,52.2216 54.5842,52.7216 55.5,53C 54.0993,53.4101 52.766,53.9101 51.5,54.5C 48.2286,55.6 44.8952,56.6 41.5,57.5C 39.8634,56.5561 38.8634,57.2227 38.5,59.5C 37.8333,59.5 37.5,59.8333 37.5,60.5C 36.5,59.8333 35.5,59.1667 34.5,58.5C 35.9061,56.4221 37.2395,54.2555 38.5,52C 40.0948,52.6171 41.4281,52.2837 42.5,51C 41.6097,48.6935 42.6097,47.5268 45.5,47.5 Z"/></g>
<g><path style="opacity:1" fill="#812d08" d="M 87.5,50.5 C 89.5,50.5 90.5,51.5 90.5,53.5C 89.399,52.2003 88.0657,51.7003 86.5,52C 87.5814,53.7106 87.248,55.2106 85.5,56.5C 85.1667,56.5 84.8333,56.5 84.5,56.5C 83.8333,55.5 83.1667,54.5 82.5,53.5C 82.6716,52.5084 82.3382,51.8417 81.5,51.5C 81.369,50.7611 81.5357,50.0944 82,49.5C 83.6805,51.4278 85.5138,51.7612 87.5,50.5 Z"/></g>
<g><path style="opacity:1" fill="#3a1505" d="M 90.5,53.5 C 90.4226,54.7498 89.756,55.5831 88.5,56C 89.056,56.3826 89.3893,56.8826 89.5,57.5C 89.5654,57.9382 89.3988,58.2716 89,58.5C 88.1841,57.1772 87.0174,56.5106 85.5,56.5C 87.248,55.2106 87.5814,53.7106 86.5,52C 88.0657,51.7003 89.399,52.2003 90.5,53.5 Z"/></g>
<g><path style="opacity:1" fill="#393b08" d="M 20.5,52.5 C 22.0618,52.7329 23.3951,53.3995 24.5,54.5C 24.631,55.2389 24.4643,55.9056 24,56.5C 22.2802,55.6159 21.1135,54.2825 20.5,52.5 Z"/></g>
<g><path style="opacity:1" fill="#e9ab56" d="M 8.5,52.5 C 14.631,53.8879 20.631,55.8879 26.5,58.5C 28.0311,59.9245 27.6977,60.5912 25.5,60.5C 22.1552,58.783 18.4885,58.1164 14.5,58.5C 12.6675,57.7515 11.0009,56.7515 9.5,55.5C 8.89022,54.609 8.55688,53.609 8.5,52.5 Z"/></g>
<g><path style="opacity:1" fill="#555008" d="M 51.5,54.5 C 52.2112,56.0301 53.2112,57.3634 54.5,58.5C 54.5,59.1667 54.8333,59.5 55.5,59.5C 55.5,60.1667 55.8333,60.5 56.5,60.5C 55.6868,61.6527 54.6868,61.6527 53.5,60.5C 52.8182,61.2427 52.1515,61.9094 51.5,62.5C 51.5,61.5 51.5,60.5 51.5,59.5C 46.7428,58.7732 42.4094,58.7732 38.5,59.5C 38.8634,57.2227 39.8634,56.5561 41.5,57.5C 44.8952,56.6 48.2286,55.6 51.5,54.5 Z"/></g>
<g><path style="opacity:1" fill="#ad4113" d="M 66.5,47.5 C 67.3382,47.8417 67.6716,48.5084 67.5,49.5C 67.7035,51.3904 67.0368,52.8904 65.5,54C 62.4601,54.3201 59.4601,54.3201 56.5,54C 59.0135,55.2525 61.6802,55.7525 64.5,55.5C 61.6576,57.7898 58.3243,58.7898 54.5,58.5C 53.2112,57.3634 52.2112,56.0301 51.5,54.5C 52.766,53.9101 54.0993,53.4101 55.5,53C 54.5842,52.7216 53.9175,52.2216 53.5,51.5C 57.65,51.7556 61.65,51.7556 65.5,51.5C 66.4345,50.4324 66.7678,49.099 66.5,47.5 Z"/></g>
<g><path style="opacity:1" fill="#7b0500" d="M 64.5,55.5 C 65.1667,55.5 65.8333,55.5 66.5,55.5C 67.8333,55.5 69.1667,55.5 70.5,55.5C 70.5,56.5 70.5,57.5 70.5,58.5C 72.4147,58.2155 74.0813,58.5489 75.5,59.5C 74.1667,59.5 72.8333,59.5 71.5,59.5C 66.1667,59.5 60.8333,59.5 55.5,59.5C 54.8333,59.5 54.5,59.1667 54.5,58.5C 58.3243,58.7898 61.6576,57.7898 64.5,55.5 Z"/></g>
<g><path style="opacity:1" fill="#af1b02" d="M 82.5,53.5 C 83.1667,54.5 83.8333,55.5 84.5,56.5C 83.6618,56.8417 83.3284,57.5084 83.5,58.5C 82.1667,58.8333 80.8333,59.1667 79.5,59.5C 78.1667,59.5 76.8333,59.5 75.5,59.5C 74.0813,58.5489 72.4147,58.2155 70.5,58.5C 70.5,57.5 70.5,56.5 70.5,55.5C 69.1667,55.5 67.8333,55.5 66.5,55.5C 67.209,54.596 68.209,54.2627 69.5,54.5C 72.4824,54.9629 75.4824,55.2962 78.5,55.5C 80.0618,55.2671 81.3951,54.6005 82.5,53.5 Z"/></g>
<g><path style="opacity:0.749" fill="#c8723e" d="M 90.5,53.5 C 91.1667,53.8333 91.8333,54.1667 92.5,54.5C 93.9143,56.5983 93.2476,57.5983 90.5,57.5C 90.1667,57.5 89.8333,57.5 89.5,57.5C 89.3893,56.8826 89.056,56.3826 88.5,56C 89.756,55.5831 90.4226,54.7498 90.5,53.5 Z"/></g>
<g><path style="opacity:1" fill="#3f4708" d="M 28.5,54.5 C 30.1667,55.8333 31.8333,57.1667 33.5,58.5C 33.8333,58.5 34.1667,58.5 34.5,58.5C 34.6309,59.3764 34.2975,60.0431 33.5,60.5C 32.1482,59.4756 30.8149,58.4756 29.5,57.5C 28.7375,56.7321 27.7375,56.2321 26.5,56C 27.4158,55.7216 28.0825,55.2216 28.5,54.5 Z"/></g>
<g><path style="opacity:0.122" fill="#ddc3ae" d="M 9.5,39.5 C 9.35259,42.4647 9.01925,45.4647 8.5,48.5C 7.62356,48.3691 6.95689,48.7025 6.5,49.5C 6.94242,50.7387 7.60908,51.7387 8.5,52.5C 8.55688,53.609 8.89022,54.609 9.5,55.5C 9.63466,57.5542 8.96799,59.2209 7.5,60.5C 6.83333,60.5 6.16667,60.5 5.5,60.5C 6.76274,56.8855 6.76274,53.2188 5.5,49.5C 5.81777,48.3527 6.48444,47.5194 7.5,47C 6.69194,46.6924 6.02527,46.1924 5.5,45.5C 7.5314,43.7508 7.86474,41.7508 6.5,39.5C 7.23338,38.913 8.23338,38.913 9.5,39.5 Z"/></g>
<g><path style="opacity:0.456" fill="#b8a099" d="M 9.5,55.5 C 11.0009,56.7515 12.6675,57.7515 14.5,58.5C 16.7791,59.6515 19.1124,60.6515 21.5,61.5C 18.5,61.5 15.5,61.5 12.5,61.5C 10.7839,61.3713 9.11723,61.038 7.5,60.5C 8.96799,59.2209 9.63466,57.5542 9.5,55.5 Z"/></g>
<g><path style="opacity:1" fill="#221f05" d="M 55.5,59.5 C 60.8333,59.5 66.1667,59.5 71.5,59.5C 70.8333,60.1667 70.1667,60.8333 69.5,61.5C 67.9194,62.5791 66.2527,62.5791 64.5,61.5C 62.9623,61.4534 61.9623,62.1201 61.5,63.5C 60.8333,63.5 60.5,63.8333 60.5,64.5C 58.0272,64.3957 57.3606,63.3957 58.5,61.5C 58.0431,60.7025 57.3764,60.3691 56.5,60.5C 55.8333,60.5 55.5,60.1667 55.5,59.5 Z"/></g>
<g><path style="opacity:1" fill="#121201" d="M 71.5,59.5 C 72.8333,59.5 74.1667,59.5 75.5,59.5C 76.8333,59.5 78.1667,59.5 79.5,59.5C 79.7373,60.791 79.404,61.791 78.5,62.5C 76.4086,62.6816 74.4086,62.3482 72.5,61.5C 71.4657,64.1247 70.4657,64.1247 69.5,61.5C 70.1667,60.8333 70.8333,60.1667 71.5,59.5 Z"/></g>
<g><path style="opacity:1" fill="#a1a038" d="M 84.5,56.5 C 84.8333,56.5 85.1667,56.5 85.5,56.5C 87.0174,56.5106 88.1841,57.1772 89,58.5C 89.3988,58.2716 89.5654,57.9382 89.5,57.5C 89.8333,57.5 90.1667,57.5 90.5,57.5C 90.3671,60.3662 89.0338,62.3662 86.5,63.5C 85.1667,63.5 83.8333,63.5 82.5,63.5C 84.6798,62.8981 86.3464,61.5648 87.5,59.5C 85.9884,58.9117 84.6551,58.5784 83.5,58.5C 83.3284,57.5084 83.6618,56.8417 84.5,56.5 Z"/></g>
<g><path style="opacity:1" fill="#aa5b15" d="M 14.5,58.5 C 18.4885,58.1164 22.1552,58.783 25.5,60.5C 26.209,61.404 27.209,61.7373 28.5,61.5C 33.4735,62.914 38.4735,64.2473 43.5,65.5C 41.8333,65.5 40.1667,65.5 38.5,65.5C 32.8491,64.6279 27.1824,63.2946 21.5,61.5C 19.1124,60.6515 16.7791,59.6515 14.5,58.5 Z"/></g>
<g><path style="opacity:1" fill="#505708" d="M 83.5,58.5 C 84.6551,58.5784 85.9884,58.9117 87.5,59.5C 86.3464,61.5648 84.6798,62.8981 82.5,63.5C 81.209,63.2627 80.209,63.596 79.5,64.5C 78.6618,64.1583 78.3284,63.4916 78.5,62.5C 79.404,61.791 79.7373,60.791 79.5,59.5C 80.8333,59.1667 82.1667,58.8333 83.5,58.5 Z"/></g>
<g><path style="opacity:1" fill="#d18b10" d="M 29.5,57.5 C 30.8149,58.4756 32.1482,59.4756 33.5,60.5C 34.2975,60.0431 34.6309,59.3764 34.5,58.5C 35.5,59.1667 36.5,59.8333 37.5,60.5C 40.9131,59.9019 44.2465,60.5686 47.5,62.5C 47.8333,63.1667 48.1667,63.8333 48.5,64.5C 41.9621,62.9034 35.2954,61.9034 28.5,61.5C 27.209,61.7373 26.209,61.404 25.5,60.5C 27.6977,60.5912 28.0311,59.9245 26.5,58.5C 27.391,57.8902 28.391,57.5569 29.5,57.5 Z"/></g>
<g><path style="opacity:1" fill="#c28d07" d="M 51.5,62.5 C 50.1667,62.5 48.8333,62.5 47.5,62.5C 44.2465,60.5686 40.9131,59.9019 37.5,60.5C 37.5,59.8333 37.8333,59.5 38.5,59.5C 42.4094,58.7732 46.7428,58.7732 51.5,59.5C 51.5,60.5 51.5,61.5 51.5,62.5 Z"/></g>
<g><path style="opacity:0.251" fill="#d4c3bb" d="M 5.5,60.5 C 6.16667,60.5 6.83333,60.5 7.5,60.5C 9.11723,61.038 10.7839,61.3713 12.5,61.5C 15.8257,62.0986 18.8257,63.432 21.5,65.5C 18.248,65.2895 15.248,65.9562 12.5,67.5C 9.83333,65.5 7.5,63.1667 5.5,60.5 Z"/></g>
<g><path style="opacity:0.833" fill="#c1aaa3" d="M 12.5,61.5 C 15.5,61.5 18.5,61.5 21.5,61.5C 27.1824,63.2946 32.8491,64.6279 38.5,65.5C 38.5,65.8333 38.5,66.1667 38.5,66.5C 38.631,67.2389 38.4643,67.9056 38,68.5C 37.2798,66.9443 36.1132,65.9443 34.5,65.5C 30.1667,65.5 25.8333,65.5 21.5,65.5C 18.8257,63.432 15.8257,62.0986 12.5,61.5 Z"/></g>
<g><path style="opacity:1" fill="#986b01" d="M 69.5,61.5 C 70.4657,64.1247 71.4657,64.1247 72.5,61.5C 74.4086,62.3482 76.4086,62.6816 78.5,62.5C 78.3284,63.4916 78.6618,64.1583 79.5,64.5C 79.5,64.8333 79.5,65.1667 79.5,65.5C 77.8002,65.3739 76.3002,64.7073 75,63.5C 72.5675,63.7628 70.5675,64.7628 69,66.5C 66.8156,64.8249 64.3156,63.8249 61.5,63.5C 61.9623,62.1201 62.9623,61.4534 64.5,61.5C 66.2527,62.5791 67.9194,62.5791 69.5,61.5 Z"/></g>
<g><path style="opacity:1" fill="#f3b960" d="M 82.5,63.5 C 83.8333,63.5 85.1667,63.5 86.5,63.5C 84.614,64.9301 82.9473,66.5968 81.5,68.5C 80.5,68.5 79.5,68.5 78.5,68.5C 77.9569,68.44 77.6236,68.1067 77.5,67.5C 78.2427,66.8182 78.9094,66.1515 79.5,65.5C 79.5,65.1667 79.5,64.8333 79.5,64.5C 80.209,63.596 81.209,63.2627 82.5,63.5 Z"/></g>
<g><path style="opacity:1" fill="#c17516" d="M 28.5,61.5 C 35.2954,61.9034 41.9621,62.9034 48.5,64.5C 51.7804,65.8653 55.1138,66.8653 58.5,67.5C 56.5,67.5 54.5,67.5 52.5,67.5C 49.2727,67.3239 46.2727,66.6572 43.5,65.5C 38.4735,64.2473 33.4735,62.914 28.5,61.5 Z"/></g>
<g><path style="opacity:1" fill="#c88a06" d="M 56.5,60.5 C 57.3764,60.3691 58.0431,60.7025 58.5,61.5C 57.3606,63.3957 58.0272,64.3957 60.5,64.5C 61.0906,65.1515 61.7573,65.8182 62.5,66.5C 62.0431,67.2975 61.3764,67.6309 60.5,67.5C 59.8333,67.5 59.1667,67.5 58.5,67.5C 55.1138,66.8653 51.7804,65.8653 48.5,64.5C 48.1667,63.8333 47.8333,63.1667 47.5,62.5C 48.8333,62.5 50.1667,62.5 51.5,62.5C 52.1515,61.9094 52.8182,61.2427 53.5,60.5C 54.6868,61.6527 55.6868,61.6527 56.5,60.5 Z"/></g>
<g><path style="opacity:1" fill="#cb7e04" d="M 61.5,63.5 C 64.3156,63.8249 66.8156,64.8249 69,66.5C 70.5675,64.7628 72.5675,63.7628 75,63.5C 76.3002,64.7073 77.8002,65.3739 79.5,65.5C 78.9094,66.1515 78.2427,66.8182 77.5,67.5C 77.6236,68.1067 77.9569,68.44 78.5,68.5C 78.5,69.1667 78.1667,69.5 77.5,69.5C 71.5958,69.6787 65.9291,69.0121 60.5,67.5C 61.3764,67.6309 62.0431,67.2975 62.5,66.5C 61.7573,65.8182 61.0906,65.1515 60.5,64.5C 60.5,63.8333 60.8333,63.5 61.5,63.5 Z"/></g>
<g><path style="opacity:0.18" fill="#d9c9c2" d="M 21.5,65.5 C 25.8333,65.5 30.1667,65.5 34.5,65.5C 34.5,66.5 34.5,67.5 34.5,68.5C 31.1825,67.7791 27.8492,67.6124 24.5,68C 23.7476,68.6708 23.4142,69.5041 23.5,70.5C 19.4296,70.5682 15.763,69.5682 12.5,67.5C 15.248,65.9562 18.248,65.2895 21.5,65.5 Z"/></g>
<g><path style="opacity:1" fill="#9c5210" d="M 52.5,68.5 C 52.5,68.1667 52.5,67.8333 52.5,67.5C 54.5,67.5 56.5,67.5 58.5,67.5C 59.1667,67.5 59.8333,67.5 60.5,67.5C 65.9291,69.0121 71.5958,69.6787 77.5,69.5C 77.5,70.1667 77.1667,70.5 76.5,70.5C 68.4747,70.1153 60.4747,69.4487 52.5,68.5 Z"/></g>
<g><path style="opacity:0.165" fill="#ddcec7" d="M 34.5,68.5 C 37.5565,69.6326 40.5565,70.6326 43.5,71.5C 40.4682,71.495 37.4682,71.1616 34.5,70.5C 32.9704,70.6399 31.9704,71.3065 31.5,72.5C 28.7196,71.9216 26.0529,71.2549 23.5,70.5C 23.4142,69.5041 23.7476,68.6708 24.5,68C 27.8492,67.6124 31.1825,67.7791 34.5,68.5 Z"/></g>
<g><path style="opacity:0.518" fill="#c6aca0" d="M 34.5,65.5 C 36.1132,65.9443 37.2798,66.9443 38,68.5C 38.4643,67.9056 38.631,67.2389 38.5,66.5C 42.5272,67.1389 46.5272,67.9722 50.5,69C 51.3805,69.7083 52.0472,70.5416 52.5,71.5C 51.1667,71.5 49.8333,71.5 48.5,71.5C 46.8333,71.5 45.1667,71.5 43.5,71.5C 40.5565,70.6326 37.5565,69.6326 34.5,68.5C 34.5,67.5 34.5,66.5 34.5,65.5 Z"/></g>
<g><path style="opacity:0.043" fill="#e2d4cd" d="M 43.5,71.5 C 45.1667,71.5 46.8333,71.5 48.5,71.5C 52.902,73.1444 57.5687,74.1444 62.5,74.5C 61.5514,75.1524 60.3847,75.4857 59,75.5C 49.896,73.9219 40.7294,72.9219 31.5,72.5C 31.9704,71.3065 32.9704,70.6399 34.5,70.5C 37.4682,71.1616 40.4682,71.495 43.5,71.5 Z"/></g>
<g><path style="opacity:0.814" fill="#9c776a" d="M 38.5,66.5 C 38.5,66.1667 38.5,65.8333 38.5,65.5C 40.1667,65.5 41.8333,65.5 43.5,65.5C 46.2727,66.6572 49.2727,67.3239 52.5,67.5C 52.5,67.8333 52.5,68.1667 52.5,68.5C 55.4651,69.6255 58.4651,70.6255 61.5,71.5C 58.5,71.5 55.5,71.5 52.5,71.5C 52.0472,70.5416 51.3805,69.7083 50.5,69C 46.5272,67.9722 42.5272,67.1389 38.5,66.5 Z"/></g>
<g><path style="opacity:0.882" fill="#815f5a" d="M 52.5,68.5 C 60.4747,69.4487 68.4747,70.1153 76.5,70.5C 76.1583,71.3382 75.4916,71.6716 74.5,71.5C 70.1667,71.5 65.8333,71.5 61.5,71.5C 58.4651,70.6255 55.4651,69.6255 52.5,68.5 Z"/></g>
<g><path style="opacity:0.015" fill="#ede4e1" d="M 78.5,68.5 C 79.5,68.5 80.5,68.5 81.5,68.5C 81.8928,70.1246 81.8928,71.9579 81.5,74C 77.5856,75.5293 73.5856,75.696 69.5,74.5C 71.0725,73.3127 72.7392,72.3127 74.5,71.5C 75.4916,71.6716 76.1583,71.3382 76.5,70.5C 77.1667,70.5 77.5,70.1667 77.5,69.5C 78.1667,69.5 78.5,69.1667 78.5,68.5 Z"/></g>
<g><path style="opacity:0.235" fill="#d2bcb2" d="M 48.5,71.5 C 49.8333,71.5 51.1667,71.5 52.5,71.5C 55.5,71.5 58.5,71.5 61.5,71.5C 65.8333,71.5 70.1667,71.5 74.5,71.5C 72.7392,72.3127 71.0725,73.3127 69.5,74.5C 67.1667,74.5 64.8333,74.5 62.5,74.5C 57.5687,74.1444 52.902,73.1444 48.5,71.5 Z"/></g>
</svg>
