<?xml version="1.0" encoding="UTF-8"?>
<!DOCTYPE svg PUBLIC "-//W3C//DTD SVG 1.1//EN" "http://www.w3.org/Graphics/SVG/1.1/DTD/svg11.dtd">
<svg xmlns="http://www.w3.org/2000/svg" version="1.1" width="100px" height="100px" style="shape-rendering:geometricPrecision; text-rendering:geometricPrecision; image-rendering:optimizeQuality; fill-rule:evenodd; clip-rule:evenodd" xmlns:xlink="http://www.w3.org/1999/xlink">
<g><path style="opacity:1" fill="#494681" d="M 60.5,6.5 C 56.2745,4.2972 51.9411,3.96386 47.5,5.5C 46.6909,7.29221 46.1909,9.29221 46,11.5C 45.5,11 45,10.5 44.5,10C 45.3802,8.64387 45.7135,7.14387 45.5,5.5C 44.1667,5.5 42.8333,5.5 41.5,5.5C 41.6646,8.51838 41.498,11.5184 41,14.5C 40.7645,12.8807 39.9311,11.8807 38.5,11.5C 38.5,9.16667 38.5,6.83333 38.5,4.5C 45.3209,3.3454 52.3209,3.17874 59.5,4C 60.2524,4.67076 60.5858,5.5041 60.5,6.5 Z"/></g>
<g><path style="opacity:1" fill="#17094c" d="M 47.5,5.5 C 51.9411,3.96386 56.2745,4.2972 60.5,6.5C 60.5,6.83333 60.5,7.16667 60.5,7.5C 60.2962,10.5176 59.9629,13.5176 59.5,16.5C 57.8333,16.5 56.1667,16.5 54.5,16.5C 51.8333,16.5 49.1667,16.5 46.5,16.5C 46.1961,15.8501 45.8627,15.1835 45.5,14.5C 48.4337,11.8678 49.1004,8.86784 47.5,5.5 Z"/></g>
<g><path style="opacity:1" fill="#302b76" d="M 47.5,5.5 C 49.1004,8.86784 48.4337,11.8678 45.5,14.5C 45.8627,15.1835 46.1961,15.8501 46.5,16.5C 43.8333,16.5 41.1667,16.5 38.5,16.5C 38.5,14.8333 38.5,13.1667 38.5,11.5C 39.9311,11.8807 40.7645,12.8807 41,14.5C 41.498,11.5184 41.6646,8.51838 41.5,5.5C 42.8333,5.5 44.1667,5.5 45.5,5.5C 45.7135,7.14387 45.3802,8.64387 44.5,10C 45,10.5 45.5,11 46,11.5C 46.1909,9.29221 46.6909,7.29221 47.5,5.5 Z"/></g>
<g><path style="opacity:0.451" fill="#7d7c94" d="M 38.5,4.5 C 38.5,6.83333 38.5,9.16667 38.5,11.5C 38.5,13.1667 38.5,14.8333 38.5,16.5C 41.1667,16.5 43.8333,16.5 46.5,16.5C 49.1667,16.5 51.8333,16.5 54.5,16.5C 49.3595,17.4881 44.0262,17.8214 38.5,17.5C 37.6236,17.6309 36.9569,17.2975 36.5,16.5C 37.1091,12.3653 37.7757,8.36533 38.5,4.5 Z"/></g>
<g><path style="opacity:1" fill="#bfb4b8" d="M 60.5,7.5 C 61.1918,10.4181 61.5251,13.4181 61.5,16.5C 59.8955,18.1789 59.2289,20.1789 59.5,22.5C 58.596,21.791 58.2627,20.791 58.5,19.5C 51.8333,19.5 45.1667,19.5 38.5,19.5C 38.5,18.8333 38.5,18.1667 38.5,17.5C 44.0262,17.8214 49.3595,17.4881 54.5,16.5C 56.1667,16.5 57.8333,16.5 59.5,16.5C 59.9629,13.5176 60.2962,10.5176 60.5,7.5 Z"/></g>
<g><path style="opacity:1" fill="#ff770b" d="M 38.5,19.5 C 45.1667,19.5 51.8333,19.5 58.5,19.5C 58.2627,20.791 58.596,21.791 59.5,22.5C 60.9063,22.9731 61.573,23.9731 61.5,25.5C 58.9557,22.6935 57.9557,23.3601 58.5,27.5C 57.1805,26.0582 55.5138,25.3915 53.5,25.5C 53.5,27.1667 53.5,28.8333 53.5,30.5C 49.5685,32.445 46.7352,35.445 45,39.5C 44.5831,38.244 43.7498,37.5774 42.5,37.5C 42.5,36.5 42.5,35.5 42.5,34.5C 42.9321,33.2905 43.5987,32.2905 44.5,31.5C 46.522,30.493 47.8553,28.8263 48.5,26.5C 49.8596,28.9812 50.8596,28.6478 51.5,25.5C 51.1924,24.6919 50.6924,24.0253 50,23.5C 47.9031,24.991 45.5697,25.991 43,26.5C 42.6121,25.572 41.9454,24.9054 41,24.5C 39.8615,24.9891 38.6948,25.3225 37.5,25.5C 38.3414,23.6208 38.6747,21.6208 38.5,19.5 Z"/></g>
<g><path style="opacity:0.471" fill="#ffc4a1" d="M 38.5,19.5 C 38.6747,21.6208 38.3414,23.6208 37.5,25.5C 36.8333,25.8333 36.1667,26.1667 35.5,26.5C 36.6557,24.1761 37.6557,21.8428 38.5,19.5 Z"/></g>
<g><path style="opacity:1" fill="#ff6e23" d="M 61.5,25.5 C 61.6596,27.153 62.3263,28.4863 63.5,29.5C 64.2679,30.2625 64.7679,31.2625 65,32.5C 65.4995,38.4908 65.6662,44.4908 65.5,50.5C 63.8333,50.5 62.1667,50.5 60.5,50.5C 60.6663,43.825 60.4996,37.1583 60,30.5C 59.4867,29.4734 58.9867,28.4734 58.5,27.5C 57.9557,23.3601 58.9557,22.6935 61.5,25.5 Z"/></g>
<g><path style="opacity:0.137" fill="#ffcda4" d="M 61.5,25.5 C 63.1042,26.287 63.7709,27.6203 63.5,29.5C 62.3263,28.4863 61.6596,27.153 61.5,25.5 Z"/></g>
<g><path style="opacity:1" fill="#ffc799" d="M 44.5,31.5 C 43.5987,32.2905 42.9321,33.2905 42.5,34.5C 40.041,32.2415 40.2077,29.9082 43,27.5C 43.7914,28.745 44.2914,30.0783 44.5,31.5 Z"/></g>
<g><path style="opacity:1" fill="#fe7105" d="M 53.5,30.5 C 54.4907,36.979 54.824,43.6457 54.5,50.5C 54.1667,50.5 53.8333,50.5 53.5,50.5C 52.5,50.5 51.5,50.5 50.5,50.5C 48.1667,50.5 45.8333,50.5 43.5,50.5C 42.564,46.2648 42.2307,41.9315 42.5,37.5C 43.7498,37.5774 44.5831,38.244 45,39.5C 46.7352,35.445 49.5685,32.445 53.5,30.5 Z"/></g>
<g><path style="opacity:1" fill="#ff840f" d="M 44.5,31.5 C 44.2914,30.0783 43.7914,28.745 43,27.5C 40.2077,29.9082 40.041,32.2415 42.5,34.5C 42.5,35.5 42.5,36.5 42.5,37.5C 42.2307,41.9315 42.564,46.2648 43.5,50.5C 42.1667,50.5 40.8333,50.5 39.5,50.5C 37.1667,50.5 34.8333,50.5 32.5,50.5C 32.5,45.5 32.5,40.5 32.5,35.5C 32.5275,32.0836 33.5275,29.0836 35.5,26.5C 36.1667,26.1667 36.8333,25.8333 37.5,25.5C 38.6948,25.3225 39.8615,24.9891 41,24.5C 41.9454,24.9054 42.6121,25.572 43,26.5C 45.5697,25.991 47.9031,24.991 50,23.5C 50.6924,24.0253 51.1924,24.6919 51.5,25.5C 50.8596,28.6478 49.8596,28.9812 48.5,26.5C 47.8553,28.8263 46.522,30.493 44.5,31.5 Z"/></g>
<g><path style="opacity:1" fill="#ffcdb4" d="M 58.5,27.5 C 58.9867,28.4734 59.4867,29.4734 60,30.5C 60.4996,37.1583 60.6663,43.825 60.5,50.5C 59.5,50.5 58.5,50.5 57.5,50.5C 56.5,50.5 55.5,50.5 54.5,50.5C 54.824,43.6457 54.4907,36.979 53.5,30.5C 53.5,28.8333 53.5,27.1667 53.5,25.5C 55.5138,25.3915 57.1805,26.0582 58.5,27.5 Z"/></g>
<g><path style="opacity:0.87" fill="#d7d2c8" d="M 32.5,35.5 C 32.5,40.5 32.5,45.5 32.5,50.5C 34.3598,55.193 35.0265,60.193 34.5,65.5C 35.8333,65.5 37.1667,65.5 38.5,65.5C 33.7538,66.0892 31.9205,68.7559 33,73.5C 33.8159,72.1772 34.9826,71.5106 36.5,71.5C 35.5773,75.0641 35.244,78.7307 35.5,82.5C 34.5,82.5 33.5,82.5 32.5,82.5C 32.5,84.5 32.5,86.5 32.5,88.5C 31.1667,70.8333 31.1667,53.1667 32.5,35.5 Z"/></g>
<g><path style="opacity:1" fill="#f7f8f5" d="M 32.5,50.5 C 34.8333,50.5 37.1667,50.5 39.5,50.5C 37.7587,55.2877 38.7587,59.4544 42.5,63C 43.5768,63.4696 44.5768,63.3029 45.5,62.5C 47.7411,62.0461 49.7411,62.0461 51.5,62.5C 50.7659,63.7079 50.4326,65.0413 50.5,66.5C 48.1417,66.2525 46.1417,66.9192 44.5,68.5C 44.3059,66.0882 42.9726,65.0882 40.5,65.5C 40.0623,64.4937 39.3957,64.4937 38.5,65.5C 37.1667,65.5 35.8333,65.5 34.5,65.5C 35.0265,60.193 34.3598,55.193 32.5,50.5 Z"/></g>
<g><path style="opacity:1" fill="#eff4ee" d="M 57.5,50.5 C 58.5,50.5 59.5,50.5 60.5,50.5C 61.4299,54.3998 61.7633,58.3998 61.5,62.5C 59.7988,62.9662 58.2988,62.9662 57,62.5C 55.8118,63.5634 55.3118,64.8967 55.5,66.5C 58.0821,66.0254 60.0821,66.6921 61.5,68.5C 59.5853,68.2155 57.9187,68.5489 56.5,69.5C 55.1667,69.5 53.8333,69.5 52.5,69.5C 52.2178,68.2223 51.5511,67.2223 50.5,66.5C 52.7012,66.1416 54.0345,64.8083 54.5,62.5C 53.5754,61.4376 52.5754,61.4376 51.5,62.5C 49.7411,62.0461 47.7411,62.0461 45.5,62.5C 48.5832,61.0073 51.9165,60.0073 55.5,59.5C 56.5,59.1667 57.1667,58.5 57.5,57.5C 58.8333,55.1667 58.8333,52.8333 57.5,50.5 Z"/></g>
<g><path style="opacity:0.925" fill="#c6c8ca" d="M 60.5,50.5 C 62.1667,50.5 63.8333,50.5 65.5,50.5C 65.5,59.1667 65.5,67.8333 65.5,76.5C 64.1685,73.8742 62.8352,71.2075 61.5,68.5C 60.0821,66.6921 58.0821,66.0254 55.5,66.5C 55.3118,64.8967 55.8118,63.5634 57,62.5C 58.2988,62.9662 59.7988,62.9662 61.5,62.5C 61.7633,58.3998 61.4299,54.3998 60.5,50.5 Z"/></g>
<g><path style="opacity:1" fill="#244778" d="M 39.5,50.5 C 40.8333,50.5 42.1667,50.5 43.5,50.5C 45.8333,50.5 48.1667,50.5 50.5,50.5C 49.4331,52.8795 50.4331,53.8795 53.5,53.5C 53.5,52.5 53.5,51.5 53.5,50.5C 53.8333,50.5 54.1667,50.5 54.5,50.5C 55.5,50.5 56.5,50.5 57.5,50.5C 58.8333,52.8333 58.8333,55.1667 57.5,57.5C 56.1411,56.9935 55.1411,55.9935 54.5,54.5C 52.9579,55.7468 51.4579,55.7468 50,54.5C 48.3123,56.0449 46.3123,57.0449 44,57.5C 43.6667,56.8333 43.3333,56.1667 43,55.5C 41.7592,56.9375 41.2592,58.4375 41.5,60C 45.5519,60.2258 49.5519,59.7258 53.5,58.5C 54.4164,58.5427 55.0831,58.8761 55.5,59.5C 51.9165,60.0073 48.5832,61.0073 45.5,62.5C 44.5768,63.3029 43.5768,63.4696 42.5,63C 38.7587,59.4544 37.7587,55.2877 39.5,50.5 Z"/></g>
<g><path style="opacity:1" fill="#3aa13e" d="M 50.5,50.5 C 51.5,50.5 52.5,50.5 53.5,50.5C 53.5,51.5 53.5,52.5 53.5,53.5C 50.4331,53.8795 49.4331,52.8795 50.5,50.5 Z"/></g>
<g><path style="opacity:1" fill="#a9afbc" d="M 57.5,57.5 C 57.1667,58.5 56.5,59.1667 55.5,59.5C 55.0831,58.8761 54.4164,58.5427 53.5,58.5C 49.5519,59.7258 45.5519,60.2258 41.5,60C 41.2592,58.4375 41.7592,56.9375 43,55.5C 43.3333,56.1667 43.6667,56.8333 44,57.5C 46.3123,57.0449 48.3123,56.0449 50,54.5C 51.4579,55.7468 52.9579,55.7468 54.5,54.5C 55.1411,55.9935 56.1411,56.9935 57.5,57.5 Z"/></g>
<g><path style="opacity:1" fill="#7db140" d="M 50.5,66.5 C 50.4326,65.0413 50.7659,63.7079 51.5,62.5C 52.5754,61.4376 53.5754,61.4376 54.5,62.5C 54.0345,64.8083 52.7012,66.1416 50.5,66.5 Z"/></g>
<g><path style="opacity:1" fill="#239e48" d="M 40.5,65.5 C 40.6816,67.5914 40.3482,69.5914 39.5,71.5C 38.5754,72.5624 37.5754,72.5624 36.5,71.5C 34.9826,71.5106 33.8159,72.1772 33,73.5C 31.9205,68.7559 33.7538,66.0892 38.5,65.5C 39.3957,64.4937 40.0623,64.4937 40.5,65.5 Z"/></g>
<g><path style="opacity:1" fill="#fe9230" d="M 50.5,66.5 C 51.5511,67.2223 52.2178,68.2223 52.5,69.5C 49.5962,71.0551 46.9295,73.0551 44.5,75.5C 45.0671,73.0314 45.0671,70.698 44.5,68.5C 46.1417,66.9192 48.1417,66.2525 50.5,66.5 Z"/></g>
<g><path style="opacity:1" fill="#fac617" d="M 40.5,65.5 C 42.9726,65.0882 44.3059,66.0882 44.5,68.5C 45.0671,70.698 45.0671,73.0314 44.5,75.5C 43.962,77.1172 43.6287,78.7839 43.5,80.5C 41.1998,82.2018 38.5331,82.8685 35.5,82.5C 35.244,78.7307 35.5773,75.0641 36.5,71.5C 37.5754,72.5624 38.5754,72.5624 39.5,71.5C 40.3482,69.5914 40.6816,67.5914 40.5,65.5 Z"/></g>
<g><path style="opacity:1" fill="#b79869" d="M 61.5,68.5 C 62.8352,71.2075 64.1685,73.8742 65.5,76.5C 65.8182,81.0323 65.4849,85.3656 64.5,89.5C 64.5153,85.4402 64.0153,81.4402 63,77.5C 61.8545,76.3157 60.6879,76.3157 59.5,77.5C 56.2244,76.8784 54.8911,74.8784 55.5,71.5C 55.8333,70.8333 56.1667,70.1667 56.5,69.5C 57.9187,68.5489 59.5853,68.2155 61.5,68.5 Z"/></g>
<g><path style="opacity:1" fill="#fec78f" d="M 52.5,69.5 C 53.8333,69.5 55.1667,69.5 56.5,69.5C 56.1667,70.1667 55.8333,70.8333 55.5,71.5C 48.2092,72.1288 44.8759,76.1288 45.5,83.5C 43.9519,83.1788 43.2852,82.1788 43.5,80.5C 43.6287,78.7839 43.962,77.1172 44.5,75.5C 46.9295,73.0551 49.5962,71.0551 52.5,69.5 Z"/></g>
<g><path style="opacity:1" fill="#fea530" d="M 55.5,71.5 C 54.8911,74.8784 56.2244,76.8784 59.5,77.5C 58.8466,78.8068 58.1799,80.1401 57.5,81.5C 58.9935,82.1411 59.9935,83.1411 60.5,84.5C 58.9142,83.8519 57.2475,83.3519 55.5,83C 56.8213,81.4555 56.4879,80.2888 54.5,79.5C 52.8888,80.3202 52.2222,81.6536 52.5,83.5C 50.1667,83.5 47.8333,83.5 45.5,83.5C 44.8759,76.1288 48.2092,72.1288 55.5,71.5 Z"/></g>
<g><path style="opacity:1" fill="#fd7904" d="M 64.5,89.5 C 63.0413,89.5674 61.7079,89.2341 60.5,88.5C 60.5,87.1667 60.5,85.8333 60.5,84.5C 59.9935,83.1411 58.9935,82.1411 57.5,81.5C 58.1799,80.1401 58.8466,78.8068 59.5,77.5C 60.6879,76.3157 61.8545,76.3157 63,77.5C 64.0153,81.4402 64.5153,85.4402 64.5,89.5 Z"/></g>
<g><path style="opacity:1" fill="#febd95" d="M 60.5,84.5 C 60.5,85.8333 60.5,87.1667 60.5,88.5C 60.189,89.4778 59.5223,90.1445 58.5,90.5C 57.5713,89.3112 57.238,87.9778 57.5,86.5C 56.5,86.5 55.5,86.5 54.5,86.5C 54.7373,85.209 54.404,84.209 53.5,83.5C 53.1667,83.5 52.8333,83.5 52.5,83.5C 52.2222,81.6536 52.8888,80.3202 54.5,79.5C 56.4879,80.2888 56.8213,81.4555 55.5,83C 57.2475,83.3519 58.9142,83.8519 60.5,84.5 Z"/></g>
<g><path style="opacity:1" fill="#ff7824" d="M 43.5,80.5 C 43.2852,82.1788 43.9519,83.1788 45.5,83.5C 47.8333,83.5 50.1667,83.5 52.5,83.5C 52.8333,83.5 53.1667,83.5 53.5,83.5C 53.4576,87.0087 54.1242,90.342 55.5,93.5C 48.1488,95.3724 41.1488,94.7058 34.5,91.5C 33.5987,90.7095 32.9321,89.7095 32.5,88.5C 32.5,86.5 32.5,84.5 32.5,82.5C 33.5,82.5 34.5,82.5 35.5,82.5C 38.5331,82.8685 41.1998,82.2018 43.5,80.5 Z"/></g>
<g><path style="opacity:1" fill="#ff9561" d="M 53.5,83.5 C 54.404,84.209 54.7373,85.209 54.5,86.5C 55.5,86.5 56.5,86.5 57.5,86.5C 57.238,87.9778 57.5713,89.3112 58.5,90.5C 59.5223,90.1445 60.189,89.4778 60.5,88.5C 61.7079,89.2341 63.0413,89.5674 64.5,89.5C 64.1667,90.5 63.5,91.1667 62.5,91.5C 60.4418,92.9331 58.1085,93.5997 55.5,93.5C 54.1242,90.342 53.4576,87.0087 53.5,83.5 Z"/></g>
<g><path style="opacity:0.843" fill="#e9c2b5" d="M 34.5,91.5 C 41.1488,94.7058 48.1488,95.3724 55.5,93.5C 58.1085,93.5997 60.4418,92.9331 62.5,91.5C 61.5475,93.61 59.8808,94.7767 57.5,95C 51.1667,95.6667 44.8333,95.6667 38.5,95C 36.4497,94.5838 35.1164,93.4171 34.5,91.5 Z"/></g>
</svg>
