<?xml version="1.0" encoding="UTF-8"?>
<!DOCTYPE svg PUBLIC "-//W3C//DTD SVG 1.1//EN" "http://www.w3.org/Graphics/SVG/1.1/DTD/svg11.dtd">
<svg xmlns="http://www.w3.org/2000/svg" version="1.1" width="512px" height="512px" style="shape-rendering:geometricPrecision; text-rendering:geometricPrecision; image-rendering:optimizeQuality; fill-rule:evenodd; clip-rule:evenodd" xmlns:xlink="http://www.w3.org/1999/xlink">
<g><path style="opacity:0.985" fill="#000000" d="M -0.5,310.5 C -0.5,286.5 -0.5,262.5 -0.5,238.5C 1.23715,218.332 5.73715,198.665 13,179.5C 19.0442,164.55 28.5442,152.383 41.5,143C 46.3556,140.504 50.5223,141.338 54,145.5C 58.6667,154.833 63.3333,164.167 68,173.5C 75.2409,181.872 84.4075,186.705 95.5,188C 111.728,191.198 127.394,189.531 142.5,183C 143.167,182.333 143.833,181.667 144.5,181C 137.202,175.759 130.368,169.926 124,163.5C 120.43,156.635 120.763,149.968 125,143.5C 133.453,132.046 142.286,120.879 151.5,110C 153.278,109.296 155.112,108.796 157,108.5C 183.79,120.311 210.29,132.811 236.5,146C 238,146.5 239.5,147 241,147.5C 254.884,138.914 265.884,141.581 274,155.5C 274.711,158.734 275.545,161.901 276.5,165C 280.167,166.833 283.833,168.667 287.5,170.5C 303.934,163.549 314.6,168.716 319.5,186C 323.745,188.039 327.912,190.206 332,192.5C 339.46,186.564 347.293,186.064 355.5,191C 361.681,195.358 365.014,201.358 365.5,209C 378.833,215.667 392.167,222.333 405.5,229C 428.428,236.531 451.428,243.865 474.5,251C 506.551,263.152 513.384,283.652 495,312.5C 478.862,329.157 459.362,339.991 436.5,345C 422.878,348.409 409.045,350.242 395,350.5C 271.492,347.385 147.992,343.885 24.5,340C 8.00055,337.006 -0.332783,327.173 -0.5,310.5 Z M 236.5,204.5 C 244.266,205.858 251.932,207.691 259.5,210C 260.517,211.049 260.684,212.216 260,213.5C 229.167,241.667 198.333,269.833 167.5,298C 164.671,300.827 161.337,302.827 157.5,304C 146.167,304.667 134.833,304.667 123.5,304C 124.79,301.708 126.457,299.708 128.5,298C 161.131,269.705 193.464,241.038 225.5,212C 228.818,208.825 232.485,206.325 236.5,204.5 Z M 291.5,222.5 C 300.365,223.628 308.699,226.128 316.5,230C 316.333,230.5 316.167,231 316,231.5C 289.639,256.252 262.805,280.419 235.5,304C 224.152,304.832 212.819,304.666 201.5,303.5C 230.923,275.738 260.923,248.738 291.5,222.5 Z"/></g>
<g><path style="opacity:0.971" fill="#000000" d="M 511.5,329.5 C 511.5,334.833 511.5,340.167 511.5,345.5C 506.141,361.708 495.807,373.874 480.5,382C 455.072,395.649 427.905,402.482 399,402.5C 274.772,399.55 150.605,396.05 26.5,392C 14.108,389.941 6.60802,382.774 4,370.5C 3.35961,366.517 2.85961,362.517 2.5,358.5C 1.8764,352.027 4.70973,348.694 11,348.5C 18.5051,350.251 26.0051,352.085 33.5,354C 106.44,356.423 179.44,358.756 252.5,361C 305.158,362.773 357.825,363.773 410.5,364C 439.166,362.335 465.166,353.335 488.5,337C 494.442,330.92 499.775,324.42 504.5,317.5C 507.378,321.267 509.712,325.267 511.5,329.5 Z"/></g>
</svg>
