<?xml version="1.0" encoding="UTF-8"?>
<!DOCTYPE svg PUBLIC "-//W3C//DTD SVG 1.1//EN" "http://www.w3.org/Graphics/SVG/1.1/DTD/svg11.dtd">
<svg xmlns="http://www.w3.org/2000/svg" version="1.1" width="512px" height="512px" style="shape-rendering:geometricPrecision; text-rendering:geometricPrecision; image-rendering:optimizeQuality; fill-rule:evenodd; clip-rule:evenodd" xmlns:xlink="http://www.w3.org/1999/xlink">
<g><path style="opacity:0.919" fill="#000000" d="M 161.5,114.5 C 165.846,114.334 170.179,114.501 174.5,115C 176.587,115.792 178.421,116.959 180,118.5C 180.591,119.483 180.257,120.15 179,120.5C 135.029,133.718 90.8623,145.884 46.5,157C 48.5232,149.241 50.8565,141.574 53.5,134C 89.6939,127.803 125.694,121.303 161.5,114.5 Z"/></g>
<g><path style="opacity:0.955" fill="#000000" d="M 186.5,133.5 C 188.286,135.633 189.619,138.133 190.5,141C 163.96,163.532 136.794,185.365 109,206.5C 86.6396,201.785 64.8063,195.285 43.5,187C 42.09,186.632 41.09,185.799 40.5,184.5C 41.5514,181.243 42.2181,177.91 42.5,174.5C 90.7774,161.434 138.777,147.767 186.5,133.5 Z"/></g>
<g><path style="opacity:0.889" fill="#000000" d="M 195.5,156.5 C 198.91,161.687 201.577,167.354 203.5,173.5C 183.313,189.593 160.647,200.927 135.5,207.5C 134.833,207.167 134.167,206.833 133.5,206.5C 154.499,190.159 175.166,173.492 195.5,156.5 Z"/></g>
<g><path style="opacity:0.934" fill="#000000" d="M 207.5,188.5 C 213.212,190.524 218.545,193.357 223.5,197C 219.167,201.333 214.833,205.667 210.5,210C 214,213.5 217.5,217 221,220.5C 226.044,215.121 231.377,210.121 237,205.5C 242.748,208.251 248.248,211.418 253.5,215C 249.833,218.667 246.167,222.333 242.5,226C 246,229.5 249.5,233 253,236.5C 257.711,231.454 262.711,226.787 268,222.5C 274.727,225.78 281.227,229.446 287.5,233.5C 286.36,243.676 284.36,253.676 281.5,263.5C 249.99,253.745 220.99,239.245 194.5,220C 189.715,216.182 185.215,212.015 181,207.5C 180.911,205.887 181.745,204.72 183.5,204C 192.075,199.557 200.075,194.39 207.5,188.5 Z"/></g>
<g><path style="opacity:0.973" fill="#000000" d="M 37.5,200.5 C 66.3412,212.172 96.1746,219.839 127,223.5C 140.376,222.447 153.209,219.114 165.5,213.5C 187.86,236 213.86,253.166 243.5,265C 254.534,269.343 265.534,273.676 276.5,278C 267.859,292.599 257.526,305.932 245.5,318C 210.753,317.755 176.086,315.921 141.5,312.5C 133.569,294.139 125.236,275.972 116.5,258C 89.4253,244.814 62.0919,232.314 34.5,220.5C 34.9844,213.747 35.9844,207.08 37.5,200.5 Z"/></g>
<g><path style="opacity:0.965" fill="#000000" d="M 31.5,235.5 C 56.4241,245.98 81.0907,257.147 105.5,269C 111.962,282.758 118.295,296.592 124.5,310.5C 122.167,310.833 119.833,311.167 117.5,311.5C 88.4696,309.442 59.4696,307.109 30.5,304.5C 28.9583,281.463 29.2916,258.463 31.5,235.5 Z"/></g>
<g><path style="opacity:0.945" fill="#000000" d="M 301.5,240.5 C 308.054,243.36 314.554,246.36 321,249.5C 319.763,252.776 317.597,255.609 314.5,258C 318,261.5 321.5,265 325,268.5C 329.045,264.119 333.378,260.119 338,256.5C 342.878,258.346 347.711,260.18 352.5,262C 335.536,281.299 318.202,300.299 300.5,319C 288.5,319.667 276.5,319.667 264.5,319C 276.681,306.142 286.514,291.642 294,275.5C 297.61,264.063 300.11,252.396 301.5,240.5 Z"/></g>
<g><path style="opacity:0.895" fill="#000000" d="M 369.5,265.5 C 386.941,267.796 404.275,270.629 421.5,274C 413.246,277.861 404.58,280.528 395.5,282C 381.528,283.457 367.528,283.791 353.5,283C 358.671,276.997 364.004,271.163 369.5,265.5 Z"/></g>
<g><path style="opacity:0.935" fill="#000000" d="M 449.5,278.5 C 459.521,282.19 466.188,289.19 469.5,299.5C 455.091,305.686 440.091,309.853 424.5,312C 390.026,317.272 355.359,319.605 320.5,319C 326.5,312.333 332.5,305.667 338.5,299C 377.717,303.134 414.717,296.3 449.5,278.5 Z"/></g>
<g><path style="opacity:0.967" fill="#000000" d="M 471.5,314.5 C 472.978,314.238 474.311,314.571 475.5,315.5C 476.407,318.057 477.407,320.557 478.5,323C 430.033,348.702 378.366,363.369 323.5,367C 231.448,367.623 139.448,365.623 47.5,361C 40.0285,360.851 34.8619,357.351 32,350.5C 31.5002,340.172 31.3335,329.839 31.5,319.5C 120.138,327.909 208.971,333.242 298,335.5C 333.249,335.246 368.416,333.413 403.5,330C 417.646,328.531 431.646,326.198 445.5,323C 454.584,321.071 463.251,318.237 471.5,314.5 Z"/></g>
</svg>
