<?xml version="1.0" encoding="UTF-8"?>
<!DOCTYPE svg PUBLIC "-//W3C//DTD SVG 1.1//EN" "http://www.w3.org/Graphics/SVG/1.1/DTD/svg11.dtd">
<svg xmlns="http://www.w3.org/2000/svg" version="1.1" width="100px" height="100px" style="shape-rendering:geometricPrecision; text-rendering:geometricPrecision; image-rendering:optimizeQuality; fill-rule:evenodd; clip-rule:evenodd" xmlns:xlink="http://www.w3.org/1999/xlink">
<g><path style="opacity:0.455" fill="#babcbe" d="M 65.5,10.5 C 64.596,9.79105 64.2627,8.79105 64.5,7.5C 63.5,7.5 62.5,7.5 61.5,7.5C 57.7016,6.51658 53.7016,6.18325 49.5,6.5C 44.8215,6.33418 40.1548,6.50085 35.5,7C 34.944,7.38258 34.6107,7.88258 34.5,8.5C 34.1667,8.5 33.8333,8.5 33.5,8.5C 33.4142,7.5041 33.7476,6.67076 34.5,6C 44.5,5.33333 54.5,5.33333 64.5,6C 65.3802,7.35613 65.7135,8.85613 65.5,10.5 Z"/></g>
<g><path style="opacity:1" fill="#21a433" d="M 49.5,6.5 C 46.1354,11.9288 41.4688,14.2621 35.5,13.5C 35.9382,13.5654 36.2716,13.3988 36.5,13C 34.9632,11.8904 34.2965,10.3904 34.5,8.5C 34.6107,7.88258 34.944,7.38258 35.5,7C 40.1548,6.50085 44.8215,6.33418 49.5,6.5 Z"/></g>
<g><path style="opacity:1" fill="#f1f719" d="M 49.5,6.5 C 53.7016,6.18325 57.7016,6.51658 61.5,7.5C 60.2001,11.008 60.8668,14.3413 63.5,17.5C 60.2145,18.0419 57.2145,19.0419 54.5,20.5C 50.139,22.861 46.8057,26.1943 44.5,30.5C 44.8337,28.0007 44.8337,25.334 44.5,22.5C 44.9528,21.5416 45.6195,20.7083 46.5,20C 46.1667,19.6667 45.8333,19.3333 45.5,19C 47.8098,18.5034 50.1432,18.3367 52.5,18.5C 52.5,17.5 52.5,16.5 52.5,15.5C 47.4889,15.3341 42.4889,15.5007 37.5,16C 36.5939,17.6995 36.2606,19.5328 36.5,21.5C 38.7354,21.2053 40.7354,21.5386 42.5,22.5C 41.8333,22.5 41.5,22.8333 41.5,23.5C 40.5041,23.4142 39.6708,23.7476 39,24.5C 38.3434,27.908 37.1767,30.908 35.5,33.5C 34.5,33.5 33.5,33.5 32.5,33.5C 32.5,33.1667 32.5,32.8333 32.5,32.5C 36.0027,26.7712 36.336,20.7712 33.5,14.5C 33.9569,13.7025 34.6236,13.3691 35.5,13.5C 41.4688,14.2621 46.1354,11.9288 49.5,6.5 Z"/></g>
<g><path style="opacity:1" fill="#b6db04" d="M 44.5,22.5 C 43.8333,22.5 43.1667,22.5 42.5,22.5C 40.7354,21.5386 38.7354,21.2053 36.5,21.5C 36.2606,19.5328 36.5939,17.6995 37.5,16C 42.4889,15.5007 47.4889,15.3341 52.5,15.5C 52.5,16.5 52.5,17.5 52.5,18.5C 50.1432,18.3367 47.8098,18.5034 45.5,19C 45.8333,19.3333 46.1667,19.6667 46.5,20C 45.6195,20.7083 44.9528,21.5416 44.5,22.5 Z"/></g>
<g><path style="opacity:1" fill="#129d14" d="M 61.5,7.5 C 62.5,7.5 63.5,7.5 64.5,7.5C 64.2627,8.79105 64.596,9.79105 65.5,10.5C 66.0531,16.7921 65.3864,22.7921 63.5,28.5C 62.5207,29.7653 61.5207,31.0986 60.5,32.5C 59.8333,31.1667 59.1667,29.8333 58.5,28.5C 57.8281,29.9492 57.1614,31.2825 56.5,32.5C 56.9118,30.0274 55.9118,28.6941 53.5,28.5C 54.209,27.596 55.209,27.2627 56.5,27.5C 57.0102,24.6122 56.3435,22.2789 54.5,20.5C 57.2145,19.0419 60.2145,18.0419 63.5,17.5C 60.8668,14.3413 60.2001,11.008 61.5,7.5 Z"/></g>
<g><path style="opacity:0.812" fill="#368e36" d="M 33.5,8.5 C 33.8333,8.5 34.1667,8.5 34.5,8.5C 34.2965,10.3904 34.9632,11.8904 36.5,13C 36.2716,13.3988 35.9382,13.5654 35.5,13.5C 34.6236,13.3691 33.9569,13.7025 33.5,14.5C 36.336,20.7712 36.0027,26.7712 32.5,32.5C 32.5,25.5 32.5,18.5 32.5,11.5C 33.1098,10.609 33.4431,9.60895 33.5,8.5 Z"/></g>
<g><path style="opacity:0.02" fill="#77ba80" d="M 65.5,10.5 C 66.1174,10.6107 66.6174,10.944 67,11.5C 67.4994,17.1569 67.6661,22.8236 67.5,28.5C 66.1667,28.5 64.8333,28.5 63.5,28.5C 65.3864,22.7921 66.0531,16.7921 65.5,10.5 Z"/></g>
<g><path style="opacity:1" fill="#71c904" d="M 42.5,22.5 C 43.1667,22.5 43.8333,22.5 44.5,22.5C 44.8337,25.334 44.8337,28.0007 44.5,30.5C 43.9332,32.0295 43.2666,33.5295 42.5,35C 41.365,35.7494 40.365,35.5827 39.5,34.5C 42.4462,32.5332 42.9462,30.1999 41,27.5C 40.7104,29.0441 40.0437,30.3774 39,31.5C 38.9335,28.6131 39.7668,25.9465 41.5,23.5C 41.5,22.8333 41.8333,22.5 42.5,22.5 Z"/></g>
<g><path style="opacity:1" fill="#e2f300" d="M 53.5,28.5 C 55.9118,28.6941 56.9118,30.0274 56.5,32.5C 56.5,32.8333 56.5,33.1667 56.5,33.5C 52.4186,35.2559 50.9186,33.9226 52,29.5C 52.3826,28.944 52.8826,28.6107 53.5,28.5 Z"/></g>
<g><path style="opacity:1" fill="#13a626" d="M 54.5,20.5 C 56.3435,22.2789 57.0102,24.6122 56.5,27.5C 55.209,27.2627 54.209,27.596 53.5,28.5C 52.8826,28.6107 52.3826,28.944 52,29.5C 50.9186,33.9226 52.4186,35.2559 56.5,33.5C 56.631,34.2389 56.4643,34.9056 56,35.5C 53.9847,36.6966 52.1513,38.0299 50.5,39.5C 48.1738,40.6901 47.0072,42.6901 47,45.5C 44.5859,44.1443 42.4193,44.4776 40.5,46.5C 39.8333,47.8333 39.1667,49.1667 38.5,50.5C 36.9192,48.8583 36.2525,46.8583 36.5,44.5C 37.8333,44.5 39.1667,44.5 40.5,44.5C 40.5,43.5 40.5,42.5 40.5,41.5C 39.1667,41.5 37.8333,41.5 36.5,41.5C 36.7214,38.7212 36.388,36.0545 35.5,33.5C 37.1767,30.908 38.3434,27.908 39,24.5C 39.6708,23.7476 40.5041,23.4142 41.5,23.5C 39.7668,25.9465 38.9335,28.6131 39,31.5C 40.0437,30.3774 40.7104,29.0441 41,27.5C 42.9462,30.1999 42.4462,32.5332 39.5,34.5C 40.365,35.5827 41.365,35.7494 42.5,35C 43.2666,33.5295 43.9332,32.0295 44.5,30.5C 46.8057,26.1943 50.139,22.861 54.5,20.5 Z"/></g>
<g><path style="opacity:1" fill="#6eb473" d="M 67.5,34.5 C 67.5,34.8333 67.5,35.1667 67.5,35.5C 65.9755,36.1738 64.6422,37.1738 63.5,38.5C 62.1205,35.6821 62.2871,33.0155 64,30.5C 64.3333,31.5 64.6667,32.5 65,33.5C 65.3333,33.1667 65.6667,32.8333 66,32.5C 66.2784,33.4158 66.7784,34.0825 67.5,34.5 Z"/></g>
<g><path style="opacity:0.835" fill="#1a8432" d="M 32.5,33.5 C 33.5,33.5 34.5,33.5 35.5,33.5C 36.388,36.0545 36.7214,38.7212 36.5,41.5C 32.7902,45.3185 32.6236,49.3185 36,53.5C 36.6667,55.1667 36.6667,56.8333 36,58.5C 35,59.8333 34,59.8333 33,58.5C 32.5003,50.1733 32.3336,41.84 32.5,33.5 Z"/></g>
<g><path style="opacity:1" fill="#cfe9d5" d="M 63.5,28.5 C 64.8333,28.5 66.1667,28.5 67.5,28.5C 67.5,30.5 67.5,32.5 67.5,34.5C 66.7784,34.0825 66.2784,33.4158 66,32.5C 65.6667,32.8333 65.3333,33.1667 65,33.5C 64.6667,32.5 64.3333,31.5 64,30.5C 62.2871,33.0155 62.1205,35.6821 63.5,38.5C 64.6422,37.1738 65.9755,36.1738 67.5,35.5C 67.5,36.5 67.5,37.5 67.5,38.5C 65.9731,38.427 64.9731,39.0937 64.5,40.5C 64.0269,41.9063 63.0269,42.573 61.5,42.5C 60.7724,39.9205 60.2724,37.2538 60,34.5C 59.797,38.4213 59.297,42.2546 58.5,46C 58.1667,46.1667 57.8333,46.3333 57.5,46.5C 56.6786,43.5535 56.1786,40.5535 56,37.5C 55.8002,41.7533 55.3002,45.92 54.5,50C 54.1667,50.1667 53.8333,50.3333 53.5,50.5C 52.8324,47.6944 52.1657,45.0277 51.5,42.5C 53.129,40.8041 52.7957,39.8041 50.5,39.5C 52.1513,38.0299 53.9847,36.6966 56,35.5C 56.4643,34.9056 56.631,34.2389 56.5,33.5C 56.5,33.1667 56.5,32.8333 56.5,32.5C 57.1614,31.2825 57.8281,29.9492 58.5,28.5C 59.1667,29.8333 59.8333,31.1667 60.5,32.5C 61.5207,31.0986 62.5207,29.7653 63.5,28.5 Z"/></g>
<g><path style="opacity:1" fill="#029216" d="M 64.5,40.5 C 65.4907,46.979 65.824,53.6457 65.5,60.5C 64.1667,60.5 62.8333,60.5 61.5,60.5C 61.5,54.5 61.5,48.5 61.5,42.5C 63.0269,42.573 64.0269,41.9063 64.5,40.5 Z"/></g>
<g><path style="opacity:1" fill="#eaf6ed" d="M 50.5,39.5 C 52.7957,39.8041 53.129,40.8041 51.5,42.5C 50.6787,45.6414 50.1787,48.9748 50,52.5C 48.6054,53.8146 47.6054,53.4812 47,51.5C 46.3923,53.1545 45.8923,54.8211 45.5,56.5C 42.9078,58.0361 41.9078,60.3695 42.5,63.5C 42.1667,63.5 41.8333,63.5 41.5,63.5C 40.5111,58.0247 40.1778,52.358 40.5,46.5C 42.4193,44.4776 44.5859,44.1443 47,45.5C 47.0072,42.6901 48.1738,40.6901 50.5,39.5 Z"/></g>
<g><path style="opacity:0.024" fill="#5aac6a" d="M 67.5,38.5 C 67.5,54.5 67.5,70.5 67.5,86.5C 66.8333,86.5 66.1667,86.5 65.5,86.5C 65.8257,78.3159 65.4924,70.3159 64.5,62.5C 62.8008,62.6602 61.1341,62.4935 59.5,62C 60.0442,61.2828 60.7109,60.7828 61.5,60.5C 62.8333,60.5 64.1667,60.5 65.5,60.5C 65.824,53.6457 65.4907,46.979 64.5,40.5C 64.9731,39.0937 65.9731,38.427 67.5,38.5 Z"/></g>
<g><path style="opacity:1" fill="#31af46" d="M 42.5,47.5 C 43.7251,48.1522 44.3917,49.3189 44.5,51C 44.5463,52.728 44.0463,54.228 43,55.5C 42.5026,52.854 42.3359,50.1873 42.5,47.5 Z"/></g>
<g><path style="opacity:1" fill="#0ea937" d="M 61.5,42.5 C 61.5,48.5 61.5,54.5 61.5,60.5C 60.7109,60.7828 60.0442,61.2828 59.5,62C 61.1341,62.4935 62.8008,62.6602 64.5,62.5C 63.8333,63.1667 63.1667,63.8333 62.5,64.5C 61.1667,64.5 59.8333,64.5 58.5,64.5C 58.5,63.5 58.5,62.5 58.5,61.5C 55.0075,61.0025 51.6741,61.0025 48.5,61.5C 50.6281,60.7195 50.7947,59.7195 49,58.5C 47.9505,59.5171 46.7839,59.6838 45.5,59C 46.6853,57.647 48.0186,56.4803 49.5,55.5C 49.1667,55.1667 48.8333,54.8333 48.5,54.5C 47.4822,55.1925 46.4822,55.8592 45.5,56.5C 45.8923,54.8211 46.3923,53.1545 47,51.5C 47.6054,53.4812 48.6054,53.8146 50,52.5C 50.1787,48.9748 50.6787,45.6414 51.5,42.5C 52.1657,45.0277 52.8324,47.6944 53.5,50.5C 53.8333,50.3333 54.1667,50.1667 54.5,50C 55.3002,45.92 55.8002,41.7533 56,37.5C 56.1786,40.5535 56.6786,43.5535 57.5,46.5C 57.8333,46.3333 58.1667,46.1667 58.5,46C 59.297,42.2546 59.797,38.4213 60,34.5C 60.2724,37.2538 60.7724,39.9205 61.5,42.5 Z"/></g>
<g><path style="opacity:0.964" fill="#e2ede5" d="M 32.5,11.5 C 32.5,18.5 32.5,25.5 32.5,32.5C 32.5,32.8333 32.5,33.1667 32.5,33.5C 32.3336,41.84 32.5003,50.1733 33,58.5C 34,59.8333 35,59.8333 36,58.5C 36.6667,56.8333 36.6667,55.1667 36,53.5C 32.6236,49.3185 32.7902,45.3185 36.5,41.5C 37.8333,41.5 39.1667,41.5 40.5,41.5C 40.5,42.5 40.5,43.5 40.5,44.5C 39.1667,44.5 37.8333,44.5 36.5,44.5C 36.2525,46.8583 36.9192,48.8583 38.5,50.5C 39.8333,53.5 39.8333,56.5 38.5,59.5C 38.1667,60.1667 37.8333,60.8333 37.5,61.5C 36.5,62.1667 35.5,62.8333 34.5,63.5C 32.5332,71.0968 31.8665,79.0968 32.5,87.5C 31.1667,62.1667 31.1667,36.8333 32.5,11.5 Z"/></g>
<g><path style="opacity:1" fill="#90ce99" d="M 40.5,46.5 C 40.1778,52.358 40.5111,58.0247 41.5,63.5C 41.44,64.0431 41.1067,64.3764 40.5,64.5C 39.8302,62.7086 39.1635,61.0419 38.5,59.5C 39.8333,56.5 39.8333,53.5 38.5,50.5C 39.1667,49.1667 39.8333,47.8333 40.5,46.5 Z"/></g>
<g><path style="opacity:1" fill="#62c179" d="M 62.5,64.5 C 61.9002,65.8999 60.9002,66.8999 59.5,67.5C 59.1667,67.5 58.8333,67.5 58.5,67.5C 56.8333,67.5 55.1667,67.5 53.5,67.5C 53.6567,66.1266 53.49,64.7932 53,63.5C 51.2245,64.5361 49.3911,64.5361 47.5,63.5C 47.3284,62.5084 47.6618,61.8417 48.5,61.5C 51.6741,61.0025 55.0075,61.0025 58.5,61.5C 58.5,62.5 58.5,63.5 58.5,64.5C 59.8333,64.5 61.1667,64.5 62.5,64.5 Z"/></g>
<g><path style="opacity:1" fill="#7dc78d" d="M 47.5,65.5 C 52.8333,66.1667 52.8333,66.8333 47.5,67.5C 47.5,66.8333 47.5,66.1667 47.5,65.5 Z"/></g>
<g><path style="opacity:0.936" fill="#1b7f3d" d="M 34.5,63.5 C 33.865,72.2337 34.5316,80.5671 36.5,88.5C 36.5,88.8333 36.5,89.1667 36.5,89.5C 35.8333,89.5 35.1667,89.5 34.5,89.5C 33.5,89.1667 32.8333,88.5 32.5,87.5C 31.8665,79.0968 32.5332,71.0968 34.5,63.5 Z"/></g>
<g><path style="opacity:1" fill="#029f0f" d="M 48.5,61.5 C 47.6618,61.8417 47.3284,62.5084 47.5,63.5C 47.5,64.1667 47.5,64.8333 47.5,65.5C 47.5,66.1667 47.5,66.8333 47.5,67.5C 48.7175,68.1614 50.0508,68.8281 51.5,69.5C 50.1268,71.4899 49.1268,73.6566 48.5,76C 50.9288,76.4512 51.0955,77.2845 49,78.5C 47.6914,76.1088 46.6914,76.1088 46,78.5C 45.5034,80.8098 45.3367,83.1432 45.5,85.5C 44.5,85.5 43.5,85.5 42.5,85.5C 42.1233,78.7482 42.1233,71.4149 42.5,63.5C 41.9078,60.3695 42.9078,58.0361 45.5,56.5C 46.4822,55.8592 47.4822,55.1925 48.5,54.5C 48.8333,54.8333 49.1667,55.1667 49.5,55.5C 48.0186,56.4803 46.6853,57.647 45.5,59C 46.7839,59.6838 47.9505,59.5171 49,58.5C 50.7947,59.7195 50.6281,60.7195 48.5,61.5 Z"/></g>
<g><path style="opacity:1" fill="#02810f" d="M 37.5,61.5 C 36.5556,70.4465 36.2222,79.4465 36.5,88.5C 34.5316,80.5671 33.865,72.2337 34.5,63.5C 35.5,62.8333 36.5,62.1667 37.5,61.5 Z"/></g>
<g><path style="opacity:1" fill="#009c04" d="M 58.5,67.5 C 58.8333,67.5 59.1667,67.5 59.5,67.5C 61.8323,70.1481 61.8323,72.9815 59.5,76C 60.1667,78.6667 60.8333,81.3333 61.5,84C 59.1695,85.4875 58.8362,87.3209 60.5,89.5C 60.1667,89.5 59.8333,89.5 59.5,89.5C 57.597,89.2041 55.9303,88.5375 54.5,87.5C 55.9778,87.762 57.3112,87.4287 58.5,86.5C 58.0431,85.7025 57.3764,85.3691 56.5,85.5C 53.4816,85.6646 50.4816,85.498 47.5,85C 48.3802,83.6439 48.7135,82.1439 48.5,80.5C 50.5,80.5 52.5,80.5 54.5,80.5C 54.3433,81.8734 54.51,83.2068 55,84.5C 55.3333,84.1667 55.6667,83.8333 56,83.5C 55.9572,77.8776 56.7906,72.5443 58.5,67.5 Z"/></g>
<g><path style="opacity:1" fill="#008c03" d="M 64.5,62.5 C 65.4924,70.3159 65.8257,78.3159 65.5,86.5C 64.2318,88.047 62.5652,89.047 60.5,89.5C 58.8362,87.3209 59.1695,85.4875 61.5,84C 60.8333,81.3333 60.1667,78.6667 59.5,76C 61.8323,72.9815 61.8323,70.1481 59.5,67.5C 60.9002,66.8999 61.9002,65.8999 62.5,64.5C 63.1667,63.8333 63.8333,63.1667 64.5,62.5 Z"/></g>
<g><path style="opacity:1" fill="#089f16" d="M 38.5,59.5 C 39.1635,61.0419 39.8302,62.7086 40.5,64.5C 41.1067,64.3764 41.44,64.0431 41.5,63.5C 41.8333,63.5 42.1667,63.5 42.5,63.5C 42.1233,71.4149 42.1233,78.7482 42.5,85.5C 41.6236,85.3691 40.9569,85.7025 40.5,86.5C 45.1196,87.4933 49.7863,87.8266 54.5,87.5C 55.9303,88.5375 57.597,89.2041 59.5,89.5C 53.69,90.4896 47.69,90.8229 41.5,90.5C 39.7839,90.3713 38.1172,90.038 36.5,89.5C 36.5,89.1667 36.5,88.8333 36.5,88.5C 36.2222,79.4465 36.5556,70.4465 37.5,61.5C 37.8333,60.8333 38.1667,60.1667 38.5,59.5 Z"/></g>
<g><path style="opacity:1" fill="#08a52c" d="M 47.5,63.5 C 49.3911,64.5361 51.2245,64.5361 53,63.5C 53.49,64.7932 53.6567,66.1266 53.5,67.5C 55.1667,67.5 56.8333,67.5 58.5,67.5C 56.7906,72.5443 55.9572,77.8776 56,83.5C 55.6667,83.8333 55.3333,84.1667 55,84.5C 54.51,83.2068 54.3433,81.8734 54.5,80.5C 52.5,80.5 50.5,80.5 48.5,80.5C 48.7135,82.1439 48.3802,83.6439 47.5,85C 50.4816,85.498 53.4816,85.6646 56.5,85.5C 51.8333,86.8333 47.1667,86.8333 42.5,85.5C 43.5,85.5 44.5,85.5 45.5,85.5C 45.3367,83.1432 45.5034,80.8098 46,78.5C 46.6914,76.1088 47.6914,76.1088 49,78.5C 51.0955,77.2845 50.9288,76.4512 48.5,76C 49.1268,73.6566 50.1268,71.4899 51.5,69.5C 50.0508,68.8281 48.7175,68.1614 47.5,67.5C 52.8333,66.8333 52.8333,66.1667 47.5,65.5C 47.5,64.8333 47.5,64.1667 47.5,63.5 Z"/></g>
<g><path style="opacity:1" fill="#68cc88" d="M 42.5,85.5 C 47.1667,86.8333 51.8333,86.8333 56.5,85.5C 57.3764,85.3691 58.0431,85.7025 58.5,86.5C 57.3112,87.4287 55.9778,87.762 54.5,87.5C 49.7863,87.8266 45.1196,87.4933 40.5,86.5C 40.9569,85.7025 41.6236,85.3691 42.5,85.5 Z"/></g>
<g><path style="opacity:1" fill="#79747a" d="M 34.5,89.5 C 35.1667,89.5 35.8333,89.5 36.5,89.5C 38.1172,90.038 39.7839,90.3713 41.5,90.5C 46.6509,91.3267 51.9842,91.8267 57.5,92C 50.4639,92.7197 43.4639,92.5531 36.5,91.5C 35.1667,91.5 34.5,90.8333 34.5,89.5 Z"/></g>
<g><path style="opacity:0.735" fill="#9ea39e" d="M 65.5,86.5 C 66.1667,86.5 66.8333,86.5 67.5,86.5C 65.6645,89.1676 63.3312,91.3343 60.5,93C 53.1667,93.6667 45.8333,93.6667 38.5,93C 37.5842,92.7216 36.9175,92.2216 36.5,91.5C 43.4639,92.5531 50.4639,92.7197 57.5,92C 51.9842,91.8267 46.6509,91.3267 41.5,90.5C 47.69,90.8229 53.69,90.4896 59.5,89.5C 59.8333,89.5 60.1667,89.5 60.5,89.5C 62.5652,89.047 64.2318,88.047 65.5,86.5 Z"/></g>
</svg>
