<?xml version="1.0" encoding="UTF-8"?>
<!DOCTYPE svg PUBLIC "-//W3C//DTD SVG 1.1//EN" "http://www.w3.org/Graphics/SVG/1.1/DTD/svg11.dtd">
<svg xmlns="http://www.w3.org/2000/svg" version="1.1" width="512px" height="512px" style="shape-rendering:geometricPrecision; text-rendering:geometricPrecision; image-rendering:optimizeQuality; fill-rule:evenodd; clip-rule:evenodd" xmlns:xlink="http://www.w3.org/1999/xlink">
<g><path style="opacity:0.987" fill="#000000" d="M 105.5,-0.5 C 122.167,-0.5 138.833,-0.5 155.5,-0.5C 183.358,84.5754 211.525,169.575 240,254.5C 240.5,266.162 240.667,277.829 240.5,289.5C 170.833,289.5 101.167,289.5 31.5,289.5C 31.0288,264.768 31.5288,240.102 33,215.5C 34.7648,212.527 37.2648,210.36 40.5,209C 67.6041,208.725 85.4374,195.892 94,170.5C 95.3073,117.198 95.974,63.8649 96,10.5C 97.5992,5.40601 100.766,1.73934 105.5,-0.5 Z"/></g>
<g><path style="opacity:0.987" fill="#000000" d="M 355.5,-0.5 C 372.167,-0.5 388.833,-0.5 405.5,-0.5C 410.234,1.73934 413.401,5.40601 415,10.5C 415.026,63.8649 415.693,117.198 417,170.5C 425.6,195.905 443.433,208.738 470.5,209C 473.735,210.36 476.235,212.527 478,215.5C 479.471,240.102 479.971,264.768 479.5,289.5C 409.833,289.5 340.167,289.5 270.5,289.5C 270.333,277.829 270.5,266.162 271,254.5C 299.475,169.575 327.642,84.5754 355.5,-0.5 Z"/></g>
<g><path style="opacity:0.964" fill="#000000" d="M 189.5,10.5 C 202.731,37.9921 224.731,50.3254 255.5,47.5C 286.235,50.542 308.068,38.2087 321,10.5C 300.094,76.7191 278.26,142.719 255.5,208.5C 232.899,142.696 210.899,76.6957 189.5,10.5 Z"/></g>
<g><path style="opacity:0.991" fill="#000000" d="M 31.5,318.5 C 101.167,318.5 170.833,318.5 240.5,318.5C 240.5,340.833 240.5,363.167 240.5,385.5C 170.833,385.5 101.167,385.5 31.5,385.5C 31.5,363.167 31.5,340.833 31.5,318.5 Z"/></g>
<g><path style="opacity:0.991" fill="#000000" d="M 270.5,318.5 C 340.167,318.5 409.833,318.5 479.5,318.5C 479.5,340.833 479.5,363.167 479.5,385.5C 409.833,385.5 340.167,385.5 270.5,385.5C 270.5,363.167 270.5,340.833 270.5,318.5 Z"/></g>
<g><path style="opacity:0.993" fill="#000000" d="M 240.5,511.5 C 174.167,511.5 107.833,511.5 41.5,511.5C 37.2149,509.378 34.0482,506.045 32,501.5C 31.5,472.502 31.3334,443.502 31.5,414.5C 101.167,414.5 170.833,414.5 240.5,414.5C 240.5,446.833 240.5,479.167 240.5,511.5 Z"/></g>
<g><path style="opacity:0.993" fill="#000000" d="M 469.5,511.5 C 403.167,511.5 336.833,511.5 270.5,511.5C 270.5,479.167 270.5,446.833 270.5,414.5C 340.167,414.5 409.833,414.5 479.5,414.5C 479.667,443.502 479.5,472.502 479,501.5C 476.978,506.02 473.811,509.353 469.5,511.5 Z"/></g>
</svg>
