<?xml version="1.0" encoding="UTF-8"?>
<!DOCTYPE svg PUBLIC "-//W3C//DTD SVG 1.1//EN" "http://www.w3.org/Graphics/SVG/1.1/DTD/svg11.dtd">
<svg xmlns="http://www.w3.org/2000/svg" version="1.1" width="100px" height="100px" style="shape-rendering:geometricPrecision; text-rendering:geometricPrecision; image-rendering:optimizeQuality; fill-rule:evenodd; clip-rule:evenodd" xmlns:xlink="http://www.w3.org/1999/xlink">
<g><path style="opacity:1" fill="#2c2c2d" d="M 44.5,4.5 C 44.8333,4.5 45.1667,4.5 45.5,4.5C 46.7653,5.47934 48.0986,6.47934 49.5,7.5C 48.9747,8.19238 48.3081,8.69238 47.5,9C 48.4667,13.4014 48.8,17.9014 48.5,22.5C 48.5,24.5 48.5,26.5 48.5,28.5C 47.5,28.5 46.5,28.5 45.5,28.5C 45.7845,26.5853 45.4511,24.9187 44.5,23.5C 44.5,17.1667 44.5,10.8333 44.5,4.5 Z"/></g>
<g><path style="opacity:1" fill="#252525" d="M 45.5,4.5 C 47.8333,4.5 50.1667,4.5 52.5,4.5C 52.5,10.5 52.5,16.5 52.5,22.5C 51.8354,24.3691 51.1687,26.3691 50.5,28.5C 49.8313,26.3691 49.1646,24.3691 48.5,22.5C 48.8,17.9014 48.4667,13.4014 47.5,9C 48.3081,8.69238 48.9747,8.19238 49.5,7.5C 48.0986,6.47934 46.7653,5.47934 45.5,4.5 Z"/></g>
<g><path style="opacity:0.247" fill="#b3b3b3" d="M 52.5,4.5 C 53.3292,12.3228 53.8292,20.3228 54,28.5C 56.4226,30.4166 58.2559,32.7499 59.5,35.5C 58.1667,34.5 56.8333,33.5 55.5,32.5C 54.2825,31.8386 52.9492,31.1719 51.5,30.5C 52.3928,27.9159 52.7261,25.2492 52.5,22.5C 52.5,16.5 52.5,10.5 52.5,4.5 Z"/></g>
<g><path style="opacity:0.208" fill="#b0b0b0" d="M 44.5,4.5 C 44.5,10.8333 44.5,17.1667 44.5,23.5C 45.0102,26.3878 44.3435,28.7211 42.5,30.5C 43.1121,21.7031 43.7788,13.0364 44.5,4.5 Z"/></g>
<g><path style="opacity:0.745" fill="#c0c0c0" d="M 42.5,30.5 C 42.5,30.8333 42.5,31.1667 42.5,31.5C 40.8333,32.8333 39.1667,34.1667 37.5,35.5C 38.1667,32.8333 39.8333,31.1667 42.5,30.5 Z"/></g>
<g><path style="opacity:1" fill="#1b1b1b" d="M 48.5,22.5 C 49.1646,24.3691 49.8313,26.3691 50.5,28.5C 51.1687,26.3691 51.8354,24.3691 52.5,22.5C 52.7261,25.2492 52.3928,27.9159 51.5,30.5C 52.9492,31.1719 54.2825,31.8386 55.5,32.5C 54.391,32.5569 53.391,32.8902 52.5,33.5C 49.248,33.7105 46.248,33.0438 43.5,31.5C 43.1667,31.5 42.8333,31.5 42.5,31.5C 42.5,31.1667 42.5,30.8333 42.5,30.5C 44.3435,28.7211 45.0102,26.3878 44.5,23.5C 45.4511,24.9187 45.7845,26.5853 45.5,28.5C 46.5,28.5 47.5,28.5 48.5,28.5C 48.5,26.5 48.5,24.5 48.5,22.5 Z"/></g>
<g><path style="opacity:1" fill="#191a1a" d="M 55.5,32.5 C 56.8333,33.5 58.1667,34.5 59.5,35.5C 60.4767,38.2869 60.81,41.2869 60.5,44.5C 58.5,44.5 56.5,44.5 54.5,44.5C 54.5,41.8333 54.5,39.1667 54.5,36.5C 53.5,36.5 52.5,36.5 51.5,36.5C 52.1098,35.609 52.4431,34.609 52.5,33.5C 53.391,32.8902 54.391,32.5569 55.5,32.5 Z"/></g>
<g><path style="opacity:1" fill="#0f0f0f" d="M 43.5,31.5 C 46.248,33.0438 49.248,33.7105 52.5,33.5C 52.4431,34.609 52.1098,35.609 51.5,36.5C 51.5,39.1667 51.5,41.8333 51.5,44.5C 50.1667,44.5 48.8333,44.5 47.5,44.5C 47.2229,41.5525 47.5562,38.7191 48.5,36C 46.2331,35.1065 44.5664,33.6065 43.5,31.5 Z"/></g>
<g><path style="opacity:1" fill="#131314" d="M 42.5,31.5 C 42.8333,31.5 43.1667,31.5 43.5,31.5C 44.5664,33.6065 46.2331,35.1065 48.5,36C 47.5562,38.7191 47.2229,41.5525 47.5,44.5C 47.1667,44.5 46.8333,44.5 46.5,44.5C 46.5,41.5 46.5,38.5 46.5,35.5C 45.1779,35.33 44.0113,35.6634 43,36.5C 42.5026,39.146 42.3359,41.8127 42.5,44.5C 40.8333,44.5 39.1667,44.5 37.5,44.5C 37.5,41.5 37.5,38.5 37.5,35.5C 39.1667,34.1667 40.8333,32.8333 42.5,31.5 Z"/></g>
<g><path style="opacity:1" fill="#7e8991" d="M 46.5,44.5 C 45.1667,44.5 43.8333,44.5 42.5,44.5C 42.3359,41.8127 42.5026,39.146 43,36.5C 44.0113,35.6634 45.1779,35.33 46.5,35.5C 46.5,38.5 46.5,41.5 46.5,44.5 Z"/></g>
<g><path style="opacity:1" fill="#8893a1" d="M 51.5,36.5 C 52.5,36.5 53.5,36.5 54.5,36.5C 54.5,39.1667 54.5,41.8333 54.5,44.5C 53.5,44.5 52.5,44.5 51.5,44.5C 51.5,41.8333 51.5,39.1667 51.5,36.5 Z"/></g>
<g><path style="opacity:0.993" fill="#d8d5c3" d="M 37.5,45.5 C 37.5,45.1667 37.5,44.8333 37.5,44.5C 39.1667,44.5 40.8333,44.5 42.5,44.5C 43.8333,44.5 45.1667,44.5 46.5,44.5C 46.8333,44.5 47.1667,44.5 47.5,44.5C 48.8333,44.5 50.1667,44.5 51.5,44.5C 52.5,44.5 53.5,44.5 54.5,44.5C 56.5,44.5 58.5,44.5 60.5,44.5C 60.5,49.1667 60.5,53.8333 60.5,58.5C 59.6981,59.9516 59.1981,61.6183 59,63.5C 58.5006,57.8431 58.3339,52.1764 58.5,46.5C 58.1583,45.6618 57.4916,45.3284 56.5,45.5C 50.8333,45.5 45.1667,45.5 39.5,45.5C 38.8333,45.5 38.1667,45.5 37.5,45.5 Z"/></g>
<g><path style="opacity:1" fill="#e7e2d0" d="M 57.5,49.5 C 57.1858,57.0871 57.5192,64.5871 58.5,72C 57.6919,72.3076 57.0253,72.8076 56.5,73.5C 58.0666,75.8961 58.8999,78.5628 59,81.5C 59.1753,76.9805 59.6753,72.6472 60.5,68.5C 60.8261,77.0168 60.4927,85.3501 59.5,93.5C 59.8128,89.9581 59.4794,86.6248 58.5,83.5C 57.828,82.7326 56.9947,82.0659 56,81.5C 55.0642,77.8865 54.5642,74.2198 54.5,70.5C 56.1514,63.7259 57.1514,56.7259 57.5,49.5 Z"/></g>
<g><path style="opacity:1" fill="#f2f4e8" d="M 39.5,45.5 C 45.1667,45.5 50.8333,45.5 56.5,45.5C 55.2702,47.2972 54.6036,49.2972 54.5,51.5C 54.1667,51.5 53.8333,51.5 53.5,51.5C 52.248,49.467 50.5813,47.8003 48.5,46.5C 47.7515,48.3325 46.7515,49.9991 45.5,51.5C 47.686,52.2208 49.8526,52.8875 52,53.5C 52.0771,56.7576 52.2438,59.9243 52.5,63C 52.3166,64.6836 51.6499,64.8502 50.5,63.5C 50.2229,60.5525 50.5562,57.7191 51.5,55C 50.8333,54.3333 50.1667,54.3333 49.5,55C 48.2842,56.7398 46.6175,57.7398 44.5,58C 45.0126,60.7181 45.0126,63.5515 44.5,66.5C 44.5,67.8333 43.8333,68.5 42.5,68.5C 41.9268,60.8954 40.9268,53.2287 39.5,45.5 Z"/></g>
<g><path style="opacity:1" fill="#e3e5d9" d="M 53.5,51.5 C 53.6659,56.5111 53.4993,61.5111 53,66.5C 52.6174,67.056 52.1174,67.3893 51.5,67.5C 51.1667,66.1667 50.8333,64.8333 50.5,63.5C 51.6499,64.8502 52.3166,64.6836 52.5,63C 52.2438,59.9243 52.0771,56.7576 52,53.5C 49.8526,52.8875 47.686,52.2208 45.5,51.5C 46.7515,49.9991 47.7515,48.3325 48.5,46.5C 50.5813,47.8003 52.248,49.467 53.5,51.5 Z"/></g>
<g><path style="opacity:1" fill="#e7e6d0" d="M 56.5,45.5 C 57.4916,45.3284 58.1583,45.6618 58.5,46.5C 57.596,47.209 57.2627,48.209 57.5,49.5C 57.1514,56.7259 56.1514,63.7259 54.5,70.5C 54.3923,64.4154 54.3923,58.082 54.5,51.5C 54.6036,49.2972 55.2702,47.2972 56.5,45.5 Z"/></g>
<g><path style="opacity:1" fill="#e9e8d3" d="M 37.5,45.5 C 38.1667,45.5 38.8333,45.5 39.5,45.5C 40.9268,53.2287 41.9268,60.8954 42.5,68.5C 42.6063,73.2191 41.4397,77.5524 39,81.5C 38.6667,81.1667 38.3333,80.8333 38,80.5C 37.5001,68.8381 37.3335,57.1714 37.5,45.5 Z"/></g>
<g><path style="opacity:1" fill="#d3d1c3" d="M 50.5,63.5 C 48.8773,62.5092 47.8773,63.1759 47.5,65.5C 46.391,65.5569 45.391,65.8902 44.5,66.5C 45.0126,63.5515 45.0126,60.7181 44.5,58C 46.6175,57.7398 48.2842,56.7398 49.5,55C 50.1667,54.3333 50.8333,54.3333 51.5,55C 50.5562,57.7191 50.2229,60.5525 50.5,63.5 Z"/></g>
<g><path style="opacity:1" fill="#e1dcc6" d="M 58.5,46.5 C 58.3339,52.1764 58.5006,57.8431 59,63.5C 59.1981,61.6183 59.6981,59.9516 60.5,58.5C 60.5,61.8333 60.5,65.1667 60.5,68.5C 59.6753,72.6472 59.1753,76.9805 59,81.5C 58.8999,78.5628 58.0666,75.8961 56.5,73.5C 57.0253,72.8076 57.6919,72.3076 58.5,72C 57.5192,64.5871 57.1858,57.0871 57.5,49.5C 57.2627,48.209 57.596,47.209 58.5,46.5 Z"/></g>
<g><path style="opacity:1" fill="#e6e7dc" d="M 37.5,35.5 C 37.5,38.5 37.5,41.5 37.5,44.5C 37.5,44.8333 37.5,45.1667 37.5,45.5C 37.3335,57.1714 37.5001,68.8381 38,80.5C 38.3333,80.8333 38.6667,81.1667 39,81.5C 41.4397,77.5524 42.6063,73.2191 42.5,68.5C 43.8333,68.5 44.5,67.8333 44.5,66.5C 45.391,65.8902 46.391,65.5569 47.5,65.5C 47.9382,65.4346 48.2716,65.6012 48.5,66C 46.0958,66.5079 45.4291,67.6745 46.5,69.5C 44.3782,73.1381 42.7115,76.9715 41.5,81C 43.0664,81.6082 44.3998,82.4415 45.5,83.5C 42.8333,83.5 40.1667,83.5 37.5,83.5C 37.5,85.1667 37.5,86.8333 37.5,88.5C 36.1667,70.8333 36.1667,53.1667 37.5,35.5 Z"/></g>
<g><path style="opacity:1" fill="#ebedde" d="M 53.5,51.5 C 53.8333,51.5 54.1667,51.5 54.5,51.5C 54.3923,58.082 54.3923,64.4154 54.5,70.5C 54.5642,74.2198 55.0642,77.8865 56,81.5C 56.9947,82.0659 57.828,82.7326 58.5,83.5C 57.5,83.5 56.5,83.5 55.5,83.5C 52.5,83.5 49.5,83.5 46.5,83.5C 48.0188,82.5902 49.6854,81.7568 51.5,81C 49.9179,78.9146 47.9179,77.4146 45.5,76.5C 46.1831,73.5386 47.0164,73.2053 48,75.5C 48.3076,74.6919 48.8076,74.0253 49.5,73.5C 50.6086,74.5896 51.6086,74.5896 52.5,73.5C 51.6518,71.5914 51.3184,69.5914 51.5,67.5C 52.1174,67.3893 52.6174,67.056 53,66.5C 53.4993,61.5111 53.6659,56.5111 53.5,51.5 Z"/></g>
<g><path style="opacity:1" fill="#f2f4e7" d="M 50.5,63.5 C 50.8333,64.8333 51.1667,66.1667 51.5,67.5C 51.3184,69.5914 51.6518,71.5914 52.5,73.5C 51.6086,74.5896 50.6086,74.5896 49.5,73.5C 48.8076,74.0253 48.3076,74.6919 48,75.5C 47.0164,73.2053 46.1831,73.5386 45.5,76.5C 47.9179,77.4146 49.9179,78.9146 51.5,81C 49.6854,81.7568 48.0188,82.5902 46.5,83.5C 46.1667,83.5 45.8333,83.5 45.5,83.5C 44.3998,82.4415 43.0664,81.6082 41.5,81C 42.7115,76.9715 44.3782,73.1381 46.5,69.5C 45.4291,67.6745 46.0958,66.5079 48.5,66C 48.2716,65.6012 47.9382,65.4346 47.5,65.5C 47.8773,63.1759 48.8773,62.5092 50.5,63.5 Z"/></g>
<g><path style="opacity:1" fill="#c9cac7" d="M 45.5,83.5 C 45.8333,83.5 46.1667,83.5 46.5,83.5C 49.5,83.5 52.5,83.5 55.5,83.5C 55.5,83.8333 55.5,84.1667 55.5,84.5C 49.8333,84.5 44.1667,84.5 38.5,84.5C 38.5,87.5 38.5,90.5 38.5,93.5C 37.5489,92.0813 37.2155,90.4147 37.5,88.5C 37.5,86.8333 37.5,85.1667 37.5,83.5C 40.1667,83.5 42.8333,83.5 45.5,83.5 Z"/></g>
<g><path style="opacity:1" fill="#302e39" d="M 55.5,84.5 C 56.5,84.5 57.5,84.5 58.5,84.5C 58.5,88.1667 58.5,91.8333 58.5,95.5C 58.1667,95.5 57.8333,95.5 57.5,95.5C 57.5086,93.6916 57.0086,92.0249 56,90.5C 55.586,90.9574 55.086,91.2907 54.5,91.5C 52.5266,90.3601 50.6933,89.0267 49,87.5C 47.5619,88.9003 46.7286,90.567 46.5,92.5C 44.4727,92.3379 42.4727,92.5045 40.5,93C 41.2524,93.6708 41.5858,94.5041 41.5,95.5C 39.8212,95.7148 38.8212,95.0481 38.5,93.5C 38.5,90.5 38.5,87.5 38.5,84.5C 44.1667,84.5 49.8333,84.5 55.5,84.5 Z"/></g>
<g><path style="opacity:1" fill="#818082" d="M 55.5,84.5 C 55.5,84.1667 55.5,83.8333 55.5,83.5C 56.5,83.5 57.5,83.5 58.5,83.5C 59.4794,86.6248 59.8128,89.9581 59.5,93.5C 59.6716,94.4916 59.3382,95.1583 58.5,95.5C 58.5,91.8333 58.5,88.1667 58.5,84.5C 57.5,84.5 56.5,84.5 55.5,84.5 Z"/></g>
<g><path style="opacity:1" fill="#24222a" d="M 57.5,95.5 C 52.1667,95.5 46.8333,95.5 41.5,95.5C 41.5858,94.5041 41.2524,93.6708 40.5,93C 42.4727,92.5045 44.4727,92.3379 46.5,92.5C 46.7286,90.567 47.5619,88.9003 49,87.5C 50.6933,89.0267 52.5266,90.3601 54.5,91.5C 55.086,91.2907 55.586,90.9574 56,90.5C 57.0086,92.0249 57.5086,93.6916 57.5,95.5 Z"/></g>
</svg>
