<?xml version="1.0" encoding="UTF-8"?>
<!DOCTYPE svg PUBLIC "-//W3C//DTD SVG 1.1//EN" "http://www.w3.org/Graphics/SVG/1.1/DTD/svg11.dtd">
<svg xmlns="http://www.w3.org/2000/svg" version="1.1" width="100px" height="100px" style="shape-rendering:geometricPrecision; text-rendering:geometricPrecision; image-rendering:optimizeQuality; fill-rule:evenodd; clip-rule:evenodd" xmlns:xlink="http://www.w3.org/1999/xlink">
<g><path style="opacity:1" fill="#63666b" d="M 47.5,2.5 C 48.5,2.5 49.5,2.5 50.5,2.5C 50.9583,9.66635 52.1249,9.99968 54,3.5C 54.2511,5.43298 54.7511,7.26631 55.5,9C 54.8742,9.75044 54.3742,10.5838 54,11.5C 53.6012,11.2716 53.4346,10.9382 53.5,10.5C 52.3784,9.84417 51.0451,9.51084 49.5,9.5C 43.5839,12.2591 41.5839,10.2591 43.5,3.5C 44.4519,5.04533 44.7852,6.71199 44.5,8.5C 45.5,8.5 46.5,8.5 47.5,8.5C 47.5,6.5 47.5,4.5 47.5,2.5 Z"/></g>
<g><path style="opacity:1" fill="#f4f5f7" d="M 42.5,27.5 C 44.7957,27.8041 45.129,28.8041 43.5,30.5C 46.4196,36.4147 50.4196,37.0813 55.5,32.5C 57.0863,34.1727 57.7529,36.1727 57.5,38.5C 59.1992,38.3398 60.8659,38.5065 62.5,39C 60.9419,39.21 59.6085,39.71 58.5,40.5C 57.8333,40.5 57.1667,40.5 56.5,40.5C 55.71,41.6085 55.21,42.9419 55,44.5C 54.7811,43.062 54.2811,41.7287 53.5,40.5C 51.9974,41.0522 50.3307,41.0522 48.5,40.5C 48.719,41.675 48.3857,42.675 47.5,43.5C 47.0024,42.3966 46.6691,41.3966 46.5,40.5C 45.0325,41.6953 43.5325,41.6953 42,40.5C 41.0546,40.9054 40.3879,41.572 40,42.5C 39.6924,41.6919 39.1924,41.0253 38.5,40.5C 37.5713,41.6888 37.238,43.0222 37.5,44.5C 36.9569,44.56 36.6236,44.8933 36.5,45.5C 37.6016,46.1757 38.6016,46.8423 39.5,47.5C 39.2148,49.288 39.5481,50.9547 40.5,52.5C 41.9045,49.9292 43.2379,49.9292 44.5,52.5C 46.2922,53.3091 48.2922,53.8091 50.5,54C 47.4465,54.1786 44.4465,54.6786 41.5,55.5C 43.6948,56.7691 45.8615,56.7691 48,55.5C 49.5095,56.0897 51.0095,56.7564 52.5,57.5C 48.9553,58.7914 45.4553,58.7914 42,57.5C 41.3076,58.0253 40.8076,58.6919 40.5,59.5C 41.3652,59.5639 42.3652,59.8973 43.5,60.5C 44.8333,61.1667 44.8333,61.8333 43.5,62.5C 42.1667,61.1667 40.8333,61.1667 39.5,62.5C 38.8182,61.7573 38.1515,61.0906 37.5,60.5C 36.6868,59.3473 35.6868,59.3473 34.5,60.5C 33.0864,51.4424 33.253,42.4424 35,33.5C 37.1141,30.8792 39.6141,28.8792 42.5,27.5 Z"/></g>
<g><path style="opacity:1" fill="#8f9091" d="M 43.5,30.5 C 45.129,28.8041 44.7957,27.8041 42.5,27.5C 41.8333,27.5 41.5,27.1667 41.5,26.5C 41.5,25.8333 41.8333,25.5 42.5,25.5C 43.9848,24.0651 45.3181,24.2317 46.5,26C 46.1667,26.3333 45.8333,26.6667 45.5,27C 48.7021,27.1978 51.7021,28.0311 54.5,29.5C 53.675,30.3857 52.675,30.719 51.5,30.5C 51.5,31.5 51.5,32.5 51.5,33.5C 46.557,33.7124 45.8903,32.7124 49.5,30.5C 49.3333,30.1667 49.1667,29.8333 49,29.5C 47.2863,29.2047 45.453,29.5381 43.5,30.5 Z"/></g>
<g><path style="opacity:1" fill="#e6e6e7" d="M 47.5,2.5 C 47.5,4.5 47.5,6.5 47.5,8.5C 46.5,8.5 45.5,8.5 44.5,8.5C 44.7852,6.71199 44.4519,5.04533 43.5,3.5C 41.5839,10.2591 43.5839,12.2591 49.5,9.5C 51.0451,9.51084 52.3784,9.84417 53.5,10.5C 45.8245,10.4561 45.6578,11.1228 53,12.5C 54.0153,16.4402 54.5153,20.4402 54.5,24.5C 53.0222,24.238 51.6888,24.5713 50.5,25.5C 55.1828,26.8353 59.1828,29.1686 62.5,32.5C 64.08,40.0812 63.7467,47.4145 61.5,54.5C 58.1501,54.665 54.8168,54.4983 51.5,54C 53.7078,53.8091 55.7078,53.3091 57.5,52.5C 58.6491,52.2089 59.3158,51.3756 59.5,50C 59.2272,48.4672 58.8938,46.9672 58.5,45.5C 59.404,44.791 59.7373,43.791 59.5,42.5C 60.421,42.9303 60.921,44.2636 61,46.5C 61.2511,44.567 61.7511,42.7337 62.5,41C 61.2068,40.51 59.8734,40.3433 58.5,40.5C 59.6085,39.71 60.9419,39.21 62.5,39C 60.8659,38.5065 59.1992,38.3398 57.5,38.5C 57.7529,36.1727 57.0863,34.1727 55.5,32.5C 50.4196,37.0813 46.4196,36.4147 43.5,30.5C 45.453,29.5381 47.2863,29.2047 49,29.5C 49.1667,29.8333 49.3333,30.1667 49.5,30.5C 45.8903,32.7124 46.557,33.7124 51.5,33.5C 51.5,32.5 51.5,31.5 51.5,30.5C 52.675,30.719 53.675,30.3857 54.5,29.5C 51.7021,28.0311 48.7021,27.1978 45.5,27C 45.8333,26.6667 46.1667,26.3333 46.5,26C 45.3181,24.2317 43.9848,24.0651 42.5,25.5C 42.203,21.2325 42.5363,17.0659 43.5,13C 43,12.5 42.5,12 42,11.5C 41.502,8.51838 41.3354,5.51838 41.5,2.5C 43.5,2.5 45.5,2.5 47.5,2.5 Z"/></g>
<g><path style="opacity:1" fill="#557ebf" d="M 56.5,40.5 C 57.1667,40.5 57.8333,40.5 58.5,40.5C 58.3284,41.4916 58.6618,42.1583 59.5,42.5C 59.7373,43.791 59.404,44.791 58.5,45.5C 57.032,44.2209 56.3653,42.5542 56.5,40.5 Z"/></g>
<g><path style="opacity:1" fill="#0f2a92" d="M 58.5,40.5 C 59.8734,40.3433 61.2068,40.51 62.5,41C 61.7511,42.7337 61.2511,44.567 61,46.5C 60.921,44.2636 60.421,42.9303 59.5,42.5C 58.6618,42.1583 58.3284,41.4916 58.5,40.5 Z"/></g>
<g><path style="opacity:1" fill="#1f4baf" d="M 39.5,47.5 C 41.7105,47.5137 44.0438,47.8471 46.5,48.5C 45.5585,48.4895 44.8919,48.9895 44.5,50C 44.9296,50.9654 45.5963,51.4654 46.5,51.5C 46.1583,52.3382 45.4916,52.6716 44.5,52.5C 43.2379,49.9292 41.9045,49.9292 40.5,52.5C 39.5481,50.9547 39.2148,49.288 39.5,47.5 Z"/></g>
<g><path style="opacity:1" fill="#7693ce" d="M 47.5,51.5 C 47.1667,51.5 46.8333,51.5 46.5,51.5C 45.5963,51.4654 44.9296,50.9654 44.5,50C 44.8919,48.9895 45.5585,48.4895 46.5,48.5C 44.0438,47.8471 41.7105,47.5137 39.5,47.5C 38.6016,46.8423 37.6016,46.1757 36.5,45.5C 36.6236,44.8933 36.9569,44.56 37.5,44.5C 39.2303,45.9118 40.7303,45.5785 42,43.5C 42.3076,44.3081 42.8076,44.9747 43.5,45.5C 43.9106,44.7376 44.0773,43.7376 44,42.5C 45.3513,44.019 46.8513,45.3523 48.5,46.5C 47.6906,48.0709 47.3573,49.7376 47.5,51.5 Z"/></g>
<g><path style="opacity:1" fill="#3e5eb5" d="M 56.5,40.5 C 56.3653,42.5542 57.032,44.2209 58.5,45.5C 58.8938,46.9672 59.2272,48.4672 59.5,50C 59.3158,51.3756 58.6491,52.2089 57.5,52.5C 56.2651,50.983 56.2651,49.3163 57.5,47.5C 57.1924,46.6919 56.6924,46.0253 56,45.5C 55.6667,47.8333 55.3333,50.1667 55,52.5C 52.6738,51.5264 50.1738,51.1931 47.5,51.5C 47.3573,49.7376 47.6906,48.0709 48.5,46.5C 46.8513,45.3523 45.3513,44.019 44,42.5C 44.0773,43.7376 43.9106,44.7376 43.5,45.5C 42.8076,44.9747 42.3076,44.3081 42,43.5C 40.7303,45.5785 39.2303,45.9118 37.5,44.5C 37.238,43.0222 37.5713,41.6888 38.5,40.5C 39.1924,41.0253 39.6924,41.6919 40,42.5C 40.3879,41.572 41.0546,40.9054 42,40.5C 43.5325,41.6953 45.0325,41.6953 46.5,40.5C 46.6691,41.3966 47.0024,42.3966 47.5,43.5C 48.3857,42.675 48.719,41.675 48.5,40.5C 50.3307,41.0522 51.9974,41.0522 53.5,40.5C 54.2811,41.7287 54.7811,43.062 55,44.5C 55.21,42.9419 55.71,41.6085 56.5,40.5 Z"/></g>
<g><path style="opacity:1" fill="#c1c2c4" d="M 57.5,52.5 C 55.7078,53.3091 53.7078,53.8091 51.5,54C 54.8168,54.4983 58.1501,54.665 61.5,54.5C 62.0431,54.56 62.3764,54.8933 62.5,55.5C 59.3595,56.0905 56.3595,56.9239 53.5,58C 55.2072,58.1953 56.8739,58.1953 58.5,58C 59.6682,59.4056 59.3348,60.5723 57.5,61.5C 59.6114,62.8485 61.4447,62.5152 63,60.5C 63.6667,61.1667 63.6667,61.8333 63,62.5C 58.4139,64.1961 57.5806,66.8628 60.5,70.5C 58.9652,71.7879 57.2985,71.7879 55.5,70.5C 56.0253,69.8076 56.6919,69.3076 57.5,69C 54.0439,69.0926 51.0439,68.0926 48.5,66C 50.5,66 52.5,66 54.5,66C 54.8333,65.6667 55.1667,65.3333 55.5,65C 54.376,64.7508 53.376,64.2508 52.5,63.5C 53.9079,62.7568 55.2412,61.9234 56.5,61C 52.6737,58.6368 51.007,59.8035 51.5,64.5C 47.8649,64.3444 47.5315,63.1777 50.5,61C 48.597,60.2263 46.9304,60.5596 45.5,62C 46.3081,62.3076 46.9747,62.8076 47.5,63.5C 46.6698,65.1349 46.5031,66.8016 47,68.5C 45.2739,67.4238 43.4406,67.2571 41.5,68C 42.2199,70.1223 43.3866,70.6223 45,69.5C 45.5,70 46,70.5 46.5,71C 44.1667,71.6667 41.8333,71.6667 39.5,71C 39.6484,67.6567 41.3151,65.6567 44.5,65C 41.7737,64.8184 39.1071,64.3184 36.5,63.5C 37.1272,62.5832 37.4606,61.5832 37.5,60.5C 38.1515,61.0906 38.8182,61.7573 39.5,62.5C 40.8333,61.1667 42.1667,61.1667 43.5,62.5C 44.8333,61.8333 44.8333,61.1667 43.5,60.5C 42.3652,59.8973 41.3652,59.5639 40.5,59.5C 40.8076,58.6919 41.3076,58.0253 42,57.5C 45.4553,58.7914 48.9553,58.7914 52.5,57.5C 51.0095,56.7564 49.5095,56.0897 48,55.5C 45.8615,56.7691 43.6948,56.7691 41.5,55.5C 44.4465,54.6786 47.4465,54.1786 50.5,54C 48.2922,53.8091 46.2922,53.3091 44.5,52.5C 45.4916,52.6716 46.1583,52.3382 46.5,51.5C 46.8333,51.5 47.1667,51.5 47.5,51.5C 50.1738,51.1931 52.6738,51.5264 55,52.5C 55.3333,50.1667 55.6667,47.8333 56,45.5C 56.6924,46.0253 57.1924,46.6919 57.5,47.5C 56.2651,49.3163 56.2651,50.983 57.5,52.5 Z"/></g>
<g><path style="opacity:1" fill="#f1f1f1" d="M 41.5,26.5 C 41.5,27.1667 41.8333,27.5 42.5,27.5C 39.6141,28.8792 37.1141,30.8792 35,33.5C 33.253,42.4424 33.0864,51.4424 34.5,60.5C 35.6868,59.3473 36.6868,59.3473 37.5,60.5C 37.4606,61.5832 37.1272,62.5832 36.5,63.5C 39.1071,64.3184 41.7737,64.8184 44.5,65C 41.3151,65.6567 39.6484,67.6567 39.5,71C 41.8333,71.6667 44.1667,71.6667 46.5,71C 46,70.5 45.5,70 45,69.5C 43.3866,70.6223 42.2199,70.1223 41.5,68C 43.4406,67.2571 45.2739,67.4238 47,68.5C 46.5031,66.8016 46.6698,65.1349 47.5,63.5C 46.9747,62.8076 46.3081,62.3076 45.5,62C 46.9304,60.5596 48.597,60.2263 50.5,61C 47.5315,63.1777 47.8649,64.3444 51.5,64.5C 51.007,59.8035 52.6737,58.6368 56.5,61C 55.2412,61.9234 53.9079,62.7568 52.5,63.5C 53.376,64.2508 54.376,64.7508 55.5,65C 55.1667,65.3333 54.8333,65.6667 54.5,66C 52.5,66 50.5,66 48.5,66C 51.0439,68.0926 54.0439,69.0926 57.5,69C 56.6919,69.3076 56.0253,69.8076 55.5,70.5C 57.2985,71.7879 58.9652,71.7879 60.5,70.5C 61.4794,73.6248 61.8128,76.9581 61.5,80.5C 58.319,80.7423 55.319,80.7423 52.5,80.5C 51.8333,81.1667 51.1667,81.8333 50.5,82.5C 49.4096,81.273 48.0762,80.4396 46.5,80C 49.5,79.6667 52.5,79.3333 55.5,79C 49.6223,78.265 43.9556,79.0983 38.5,81.5C 41.1667,82.1667 43.8333,82.8333 46.5,83.5C 46.7093,84.086 47.0426,84.586 47.5,85C 45.0995,85.1858 42.7662,85.6858 40.5,86.5C 41.1667,86.8333 41.8333,87.1667 42.5,87.5C 48.1174,88.1552 53.784,88.4885 59.5,88.5C 58.9747,89.1924 58.3081,89.6924 57.5,90C 51.9842,90.1733 46.6509,90.6733 41.5,91.5C 38.3019,90.9644 35.6353,91.631 33.5,93.5C 32.3376,74.0043 32.1709,54.3376 33,34.5C 35.047,30.9517 37.8803,28.285 41.5,26.5 Z"/></g>
<g><path style="opacity:1" fill="#e1e1e1" d="M 62.5,32.5 C 63.2216,32.9175 63.7216,33.5842 64,34.5C 64.4999,53.1637 64.6666,71.8304 64.5,90.5C 56.7426,91.8784 49.076,92.2117 41.5,91.5C 46.6509,90.6733 51.9842,90.1733 57.5,90C 58.3081,89.6924 58.9747,89.1924 59.5,88.5C 53.784,88.4885 48.1174,88.1552 42.5,87.5C 41.8333,87.1667 41.1667,86.8333 40.5,86.5C 42.7662,85.6858 45.0995,85.1858 47.5,85C 47.0426,84.586 46.7093,84.086 46.5,83.5C 43.8333,82.8333 41.1667,82.1667 38.5,81.5C 43.9556,79.0983 49.6223,78.265 55.5,79C 52.5,79.3333 49.5,79.6667 46.5,80C 48.0762,80.4396 49.4096,81.273 50.5,82.5C 51.1667,81.8333 51.8333,81.1667 52.5,80.5C 55.319,80.7423 58.319,80.7423 61.5,80.5C 61.8128,76.9581 61.4794,73.6248 60.5,70.5C 57.5806,66.8628 58.4139,64.1961 63,62.5C 63.6667,61.8333 63.6667,61.1667 63,60.5C 61.4447,62.5152 59.6114,62.8485 57.5,61.5C 59.3348,60.5723 59.6682,59.4056 58.5,58C 56.8739,58.1953 55.2072,58.1953 53.5,58C 56.3595,56.9239 59.3595,56.0905 62.5,55.5C 62.3764,54.8933 62.0431,54.56 61.5,54.5C 63.7467,47.4145 64.08,40.0812 62.5,32.5 Z"/></g>
<g><path style="opacity:1" fill="#dbdcdd" d="M 33.5,93.5 C 42.5062,93.3336 51.5062,93.5002 60.5,94C 51.8085,95.2164 43.1419,95.7164 34.5,95.5C 33.6618,95.1583 33.3284,94.4916 33.5,93.5 Z"/></g>
<g><path style="opacity:0.196" fill="#8e9094" d="M 50.5,2.5 C 52.5,2.5 54.5,2.5 56.5,2.5C 55.9108,9.80949 55.5774,16.9762 55.5,24C 59.6667,26.8333 63.1667,30.3333 66,34.5C 66.6667,54.1667 66.6667,73.8333 66,93.5C 65.0975,94.7014 63.9308,95.5348 62.5,96C 53.1193,96.7796 43.786,96.6129 34.5,95.5C 43.1419,95.7164 51.8085,95.2164 60.5,94C 51.5062,93.5002 42.5062,93.3336 33.5,93.5C 35.6353,91.631 38.3019,90.9644 41.5,91.5C 49.076,92.2117 56.7426,91.8784 64.5,90.5C 64.6666,71.8304 64.4999,53.1637 64,34.5C 63.7216,33.5842 63.2216,32.9175 62.5,32.5C 59.1828,29.1686 55.1828,26.8353 50.5,25.5C 51.6888,24.5713 53.0222,24.238 54.5,24.5C 54.5153,20.4402 54.0153,16.4402 53,12.5C 45.6578,11.1228 45.8245,10.4561 53.5,10.5C 53.4346,10.9382 53.6012,11.2716 54,11.5C 54.3742,10.5838 54.8742,9.75044 55.5,9C 54.7511,7.26631 54.2511,5.43298 54,3.5C 52.1249,9.99968 50.9583,9.66635 50.5,2.5 Z"/></g>
</svg>
