<?xml version="1.0" encoding="UTF-8"?>
<!DOCTYPE svg PUBLIC "-//W3C//DTD SVG 1.1//EN" "http://www.w3.org/Graphics/SVG/1.1/DTD/svg11.dtd">
<svg xmlns="http://www.w3.org/2000/svg" version="1.1" width="512px" height="512px" style="shape-rendering:geometricPrecision; text-rendering:geometricPrecision; image-rendering:optimizeQuality; fill-rule:evenodd; clip-rule:evenodd" xmlns:xlink="http://www.w3.org/1999/xlink">
<g><path style="opacity:0.981" fill="#000000" d="M 163.5,-0.5 C 212.833,-0.5 262.167,-0.5 311.5,-0.5C 319.348,32.8917 327.515,66.2251 336,99.5C 352.892,112.055 368.226,126.389 382,142.5C 403.395,170.167 415.895,201.501 419.5,236.5C 432.167,236.5 444.833,236.5 457.5,236.5C 457.5,249.167 457.5,261.833 457.5,274.5C 444.833,274.5 432.167,274.5 419.5,274.5C 414.856,316.648 398.023,352.982 369,383.5C 358.244,393.267 347.244,402.601 336,411.5C 327.515,444.775 319.348,478.108 311.5,511.5C 262.167,511.5 212.833,511.5 163.5,511.5C 155.005,477.518 146.505,443.518 138,409.5C 84.0593,372.641 55.8927,321.308 53.5,255.5C 55.8927,189.692 84.0593,138.359 138,101.5C 146.505,67.4817 155.005,33.4817 163.5,-0.5 Z M 231.5,109.5 C 296.065,110.625 342.565,139.958 371,197.5C 394.42,260.971 382.253,316.471 334.5,364C 288.585,401.931 237.585,410.597 181.5,390C 124.342,363.621 94.3417,318.788 91.5,255.5C 94.2971,195.694 121.964,151.861 174.5,124C 192.799,115.842 211.799,111.009 231.5,109.5 Z"/></g>
<g><path style="opacity:0.972" fill="#000000" d="M 218.5,163.5 C 230.833,163.5 243.167,163.5 255.5,163.5C 255.333,194.502 255.5,225.502 256,256.5C 269.167,275.667 282.333,294.833 295.5,314C 285.596,321.536 275.43,328.702 265,335.5C 249.667,313.5 234.333,291.5 219,269.5C 218.5,234.168 218.333,198.835 218.5,163.5 Z"/></g>
</svg>
