<?xml version="1.0" encoding="UTF-8"?>
<!DOCTYPE svg PUBLIC "-//W3C//DTD SVG 1.1//EN" "http://www.w3.org/Graphics/SVG/1.1/DTD/svg11.dtd">
<svg xmlns="http://www.w3.org/2000/svg" version="1.1" width="100px" height="100px" style="shape-rendering:geometricPrecision; text-rendering:geometricPrecision; image-rendering:optimizeQuality; fill-rule:evenodd; clip-rule:evenodd" xmlns:xlink="http://www.w3.org/1999/xlink">
<g><path style="opacity:0.835" fill="#a0a4aa" d="M 43.5,3.5 C 44.5862,3.61998 45.2528,4.28665 45.5,5.5C 45.2528,6.71335 44.5862,7.38002 43.5,7.5C 43.5,6.16667 43.5,4.83333 43.5,3.5 Z"/></g>
<g><path style="opacity:1" fill="#50555b" d="M 43.5,3.5 C 44.5676,2.56552 45.901,2.23219 47.5,2.5C 47.5,4.16667 47.5,5.83333 47.5,7.5C 48.8333,7.5 50.1667,7.5 51.5,7.5C 49.7078,8.30912 47.7078,8.80912 45.5,9C 48.146,9.49742 50.8127,9.66409 53.5,9.5C 53.5,7.16667 53.5,4.83333 53.5,2.5C 55.4228,6.0293 56.0894,10.0293 55.5,14.5C 54.5655,13.4324 54.2322,12.099 54.5,10.5C 51.2869,10.19 48.2869,10.5233 45.5,11.5C 45.5,12.1667 45.1667,12.5 44.5,12.5C 44.3713,10.7839 44.038,9.11723 43.5,7.5C 44.5862,7.38002 45.2528,6.71335 45.5,5.5C 45.2528,4.28665 44.5862,3.61998 43.5,3.5 Z"/></g>
<g><path style="opacity:1" fill="#acb6c1" d="M 47.5,2.5 C 48.8333,2.5 50.1667,2.5 51.5,2.5C 51.5,4.16667 51.5,5.83333 51.5,7.5C 50.1667,7.5 48.8333,7.5 47.5,7.5C 47.5,5.83333 47.5,4.16667 47.5,2.5 Z"/></g>
<g><path style="opacity:1" fill="#151a1d" d="M 51.5,2.5 C 52.1667,2.5 52.8333,2.5 53.5,2.5C 53.5,4.83333 53.5,7.16667 53.5,9.5C 50.8127,9.66409 48.146,9.49742 45.5,9C 47.7078,8.80912 49.7078,8.30912 51.5,7.5C 51.5,5.83333 51.5,4.16667 51.5,2.5 Z"/></g>
<g><path style="opacity:0.992" fill="#878c93" d="M 45.5,11.5 C 48.2869,10.5233 51.2869,10.19 54.5,10.5C 54.2322,12.099 54.5655,13.4324 55.5,14.5C 56.1667,14.5 56.5,14.8333 56.5,15.5C 53.2139,14.7929 49.8806,14.4595 46.5,14.5C 46.7373,13.209 46.404,12.209 45.5,11.5 Z"/></g>
<g><path style="opacity:0.698" fill="#3e4145" d="M 58.5,16.5 C 59.9063,16.9731 60.573,17.9731 60.5,19.5C 59.0937,19.0269 58.427,18.0269 58.5,16.5 Z"/></g>
<g><path style="opacity:0.424" fill="#363c42" d="M 60.5,19.5 C 61.9063,19.9731 62.573,20.9731 62.5,22.5C 61.0937,22.0269 60.427,21.0269 60.5,19.5 Z"/></g>
<g><path style="opacity:1" fill="#e5e6eb" d="M 58.5,20.5 C 57.5868,22.0861 57.5868,23.5861 58.5,25C 55.062,28.9697 53.8953,33.4697 55,38.5C 54.0266,36.6079 53.3599,34.6079 53,32.5C 52.2496,31.8742 51.4162,31.3742 50.5,31C 52.8501,28.6272 53.0167,26.1272 51,23.5C 49.197,24.3134 47.697,25.4801 46.5,27C 47.1667,29 47.8333,31 48.5,33C 48.3613,34.301 47.6946,35.1344 46.5,35.5C 46.6463,33.0576 45.813,32.3909 44,33.5C 42.1553,28.1858 41.6553,22.8525 42.5,17.5C 42.6107,16.8826 42.944,16.3826 43.5,16C 47.9054,15.3041 52.2388,15.6374 56.5,17C 57.305,18.1127 57.9717,19.2794 58.5,20.5 Z"/></g>
<g><path style="opacity:1" fill="#dbdce3" d="M 58.5,20.5 C 59.7159,28.3413 59.7159,36.3413 58.5,44.5C 58.6667,45.8333 58.8333,47.1667 59,48.5C 59.3333,46.8333 59.6667,45.1667 60,43.5C 60.1733,49.0158 60.6733,54.3491 61.5,59.5C 61.5,60.5 61.5,61.5 61.5,62.5C 61.1667,62.5 60.8333,62.5 60.5,62.5C 59.0813,61.5489 57.4147,61.2155 55.5,61.5C 57.1484,59.5441 57.8151,57.2108 57.5,54.5C 60.1667,53.8333 60.1667,53.1667 57.5,52.5C 58.4427,50.9988 58.1094,49.6654 56.5,48.5C 56.5,47.1667 56.5,45.8333 56.5,44.5C 53.2155,44.7307 50.7155,43.3974 49,40.5C 48.4666,42.9386 47.3,43.6052 45.5,42.5C 45.9926,40.1944 46.3259,37.861 46.5,35.5C 47.6946,35.1344 48.3613,34.301 48.5,33C 47.8333,31 47.1667,29 46.5,27C 47.697,25.4801 49.197,24.3134 51,23.5C 53.0167,26.1272 52.8501,28.6272 50.5,31C 51.4162,31.3742 52.2496,31.8742 53,32.5C 53.3599,34.6079 54.0266,36.6079 55,38.5C 53.8953,33.4697 55.062,28.9697 58.5,25C 57.5868,23.5861 57.5868,22.0861 58.5,20.5 Z"/></g>
<g><path style="opacity:1" fill="#a5abb4" d="M 45.5,11.5 C 46.404,12.209 46.7373,13.209 46.5,14.5C 49.8806,14.4595 53.2139,14.7929 56.5,15.5C 57.1667,15.8333 57.8333,16.1667 58.5,16.5C 58.427,18.0269 59.0937,19.0269 60.5,19.5C 60.427,21.0269 61.0937,22.0269 62.5,22.5C 63.1066,24.7455 63.44,27.0788 63.5,29.5C 61.9479,39.4375 61.2812,49.4375 61.5,59.5C 60.6733,54.3491 60.1733,49.0158 60,43.5C 59.6667,45.1667 59.3333,46.8333 59,48.5C 58.8333,47.1667 58.6667,45.8333 58.5,44.5C 59.7159,36.3413 59.7159,28.3413 58.5,20.5C 57.9717,19.2794 57.305,18.1127 56.5,17C 52.2388,15.6374 47.9054,15.3041 43.5,16C 42.944,16.3826 42.6107,16.8826 42.5,17.5C 41.8333,17.5 41.1667,17.5 40.5,17.5C 41.8333,15.8333 43.1667,14.1667 44.5,12.5C 45.1667,12.5 45.5,12.1667 45.5,11.5 Z"/></g>
<g><path style="opacity:1" fill="#dadce6" d="M 40.5,17.5 C 41.1667,17.5 41.8333,17.5 42.5,17.5C 41.6553,22.8525 42.1553,28.1858 44,33.5C 45.813,32.3909 46.6463,33.0576 46.5,35.5C 46.3259,37.861 45.9926,40.1944 45.5,42.5C 45.631,43.2389 45.4643,43.9056 45,44.5C 43.9887,43.6634 42.8221,43.33 41.5,43.5C 39.42,34.8905 39.0867,26.2238 40.5,17.5 Z"/></g>
<g><path style="opacity:1" fill="#9a9fa9" d="M 40.5,17.5 C 39.0867,26.2238 39.42,34.8905 41.5,43.5C 41.0738,46.9202 42.0738,49.7535 44.5,52C 44.472,53.0698 44.1386,53.9032 43.5,54.5C 41.6921,55.9179 41.0254,57.9179 41.5,60.5C 40.5,60.5 39.5,60.5 38.5,60.5C 38.8016,63.0593 38.4682,65.3926 37.5,67.5C 37.8683,54.442 37.2016,41.442 35.5,28.5C 35.4527,23.9448 37.1194,20.2782 40.5,17.5 Z"/></g>
<g><path style="opacity:1" fill="#e6ebee" d="M 56.5,48.5 C 53.6146,48.1936 50.9479,48.5269 48.5,49.5C 47.5,49.5 46.5,49.5 45.5,49.5C 44.1817,57.5776 47.5151,61.5776 55.5,61.5C 57.4147,61.2155 59.0813,61.5489 60.5,62.5C 56.5014,63.3249 52.3347,63.9916 48,64.5C 45.6005,64.1983 43.4338,63.5316 41.5,62.5C 43.2018,60.1998 43.8685,57.5331 43.5,54.5C 44.1386,53.9032 44.472,53.0698 44.5,52C 42.0738,49.7535 41.0738,46.9202 41.5,43.5C 42.8221,43.33 43.9887,43.6634 45,44.5C 45.4643,43.9056 45.631,43.2389 45.5,42.5C 47.3,43.6052 48.4666,42.9386 49,40.5C 50.7155,43.3974 53.2155,44.7307 56.5,44.5C 56.5,45.8333 56.5,47.1667 56.5,48.5 Z"/></g>
<g><path style="opacity:1" fill="#73797b" d="M 56.5,48.5 C 58.1094,49.6654 58.4427,50.9988 57.5,52.5C 53.5,53.1667 53.5,53.8333 57.5,54.5C 57.8151,57.2108 57.1484,59.5441 55.5,61.5C 47.5151,61.5776 44.1817,57.5776 45.5,49.5C 46.5,49.5 47.5,49.5 48.5,49.5C 50.9479,48.5269 53.6146,48.1936 56.5,48.5 Z"/></g>
<g><path style="opacity:1" fill="#171719" d="M 48.5,49.5 C 50.1667,49.5 51.8333,49.5 53.5,49.5C 53.5,51.8333 53.5,54.1667 53.5,56.5C 51.7975,55.9249 50.1309,55.0915 48.5,54C 51.7625,53.1464 51.7625,51.6464 48.5,49.5 Z"/></g>
<g><path style="opacity:1" fill="#bf7c9b" d="M 57.5,52.5 C 60.1667,53.1667 60.1667,53.8333 57.5,54.5C 53.5,53.8333 53.5,53.1667 57.5,52.5 Z"/></g>
<g><path style="opacity:1" fill="#6cac98" d="M 41.5,62.5 C 43.4338,63.5316 45.6005,64.1983 48,64.5C 52.3347,63.9916 56.5014,63.3249 60.5,62.5C 60.8333,62.5 61.1667,62.5 61.5,62.5C 61.5,65.1667 61.5,67.8333 61.5,70.5C 60.596,69.791 60.2627,68.791 60.5,67.5C 57.5,67.5 54.5,67.5 51.5,67.5C 48.5,67.5 45.5,67.5 42.5,67.5C 41.5,67.5 40.5,67.5 39.5,67.5C 39.0773,65.2188 39.744,63.5521 41.5,62.5 Z"/></g>
<g><path style="opacity:1" fill="#e7e8ed" d="M 57.5,68.5 C 58.6546,75.3209 58.8213,82.3209 58,89.5C 57.6174,90.056 57.1174,90.3893 56.5,90.5C 55.547,87.5772 55.2137,84.7439 55.5,82C 53.4731,81.5022 51.4731,81.6689 49.5,82.5C 45.9461,81.95 45.6127,80.6167 48.5,78.5C 48.1543,77.3044 47.6543,77.3044 47,78.5C 47.1407,76.5377 46.974,74.7043 46.5,73C 48.2597,68.5476 50.4264,68.381 53,72.5C 53.3333,73.5 53.6667,74.5 54,75.5C 56.2012,73.7261 57.3678,71.3928 57.5,68.5 Z"/></g>
<g><path style="opacity:1" fill="#b9bdc4" d="M 51.5,67.5 C 54.5,67.5 57.5,67.5 60.5,67.5C 60.2627,68.791 60.596,69.791 61.5,70.5C 63.161,77.7755 63.4943,85.1088 62.5,92.5C 60.8333,92.5 59.1667,92.5 57.5,92.5C 57.7148,94.1788 57.0481,95.1788 55.5,95.5C 55.6287,93.7839 55.962,92.1172 56.5,90.5C 57.1174,90.3893 57.6174,90.056 58,89.5C 58.8213,82.3209 58.6546,75.3209 57.5,68.5C 55.2646,68.7947 53.2646,68.4614 51.5,67.5 Z"/></g>
<g><path style="opacity:1" fill="#ebedf1" d="M 42.5,67.5 C 45.5,67.5 48.5,67.5 51.5,67.5C 53.2646,68.4614 55.2646,68.7947 57.5,68.5C 57.3678,71.3928 56.2012,73.7261 54,75.5C 53.6667,74.5 53.3333,73.5 53,72.5C 50.4264,68.381 48.2597,68.5476 46.5,73C 46.974,74.7043 47.1407,76.5377 47,78.5C 47.6543,77.3044 48.1543,77.3044 48.5,78.5C 45.6127,80.6167 45.9461,81.95 49.5,82.5C 51.4731,81.6689 53.4731,81.5022 55.5,82C 55.2137,84.7439 55.547,87.5772 56.5,90.5C 55.962,92.1172 55.6287,93.7839 55.5,95.5C 53.1667,95.5 50.8333,95.5 48.5,95.5C 44.7833,94.8653 41.95,92.8653 40,89.5C 39.3333,83.1667 39.3333,76.8333 40,70.5C 40.6979,69.3094 41.5313,68.3094 42.5,67.5 Z"/></g>
<g><path style="opacity:1" fill="#b5bcc1" d="M 43.5,54.5 C 43.8685,57.5331 43.2018,60.1998 41.5,62.5C 39.744,63.5521 39.0773,65.2188 39.5,67.5C 40.5,67.5 41.5,67.5 42.5,67.5C 41.5313,68.3094 40.6979,69.3094 40,70.5C 39.3333,76.8333 39.3333,83.1667 40,89.5C 41.95,92.8653 44.7833,94.8653 48.5,95.5C 44.277,95.6606 40.277,94.994 36.5,93.5C 35.2404,84.9263 35.5738,76.2596 37.5,67.5C 38.4682,65.3926 38.8016,63.0593 38.5,60.5C 39.5,60.5 40.5,60.5 41.5,60.5C 41.0254,57.9179 41.6921,55.9179 43.5,54.5 Z"/></g>
<g><path style="opacity:0.929" fill="#77828b" d="M 62.5,92.5 C 62.4894,94.0174 61.8228,95.1841 60.5,96C 53.1667,96.6667 45.8333,96.6667 38.5,96C 37.244,95.5831 36.5774,94.7498 36.5,93.5C 40.277,94.994 44.277,95.6606 48.5,95.5C 50.8333,95.5 53.1667,95.5 55.5,95.5C 57.0481,95.1788 57.7148,94.1788 57.5,92.5C 59.1667,92.5 60.8333,92.5 62.5,92.5 Z"/></g>
</svg>
