<?xml version="1.0" encoding="UTF-8"?>
<!DOCTYPE svg PUBLIC "-//W3C//DTD SVG 1.1//EN" "http://www.w3.org/Graphics/SVG/1.1/DTD/svg11.dtd">
<svg xmlns="http://www.w3.org/2000/svg" version="1.1" width="100px" height="100px" style="shape-rendering:geometricPrecision; text-rendering:geometricPrecision; image-rendering:optimizeQuality; fill-rule:evenodd; clip-rule:evenodd" xmlns:xlink="http://www.w3.org/1999/xlink">
<g><path style="opacity:1" fill="#32312f" d="M 54.5,5.5 C 54.5,6.5 54.5,7.5 54.5,8.5C 51.5,8.5 48.5,8.5 45.5,8.5C 45.5,7.5 45.5,6.5 45.5,5.5C 48.5,4.16667 51.5,4.16667 54.5,5.5 Z"/></g>
<g><path style="opacity:1" fill="#66645b" d="M 45.5,5.5 C 45.5,6.5 45.5,7.5 45.5,8.5C 48.5,8.5 51.5,8.5 54.5,8.5C 51.4759,10.7757 48.1426,11.1091 44.5,9.5C 44.2322,7.90097 44.5655,6.56764 45.5,5.5 Z"/></g>
<g><path style="opacity:0.996" fill="#f3f3f1" d="M 54.5,5.5 C 55.8112,7.55981 55.8112,9.72648 54.5,12C 59.0509,13.0487 61.0509,15.882 60.5,20.5C 59.5416,20.9528 58.7083,21.6195 58,22.5C 57.6322,21.09 56.7989,20.09 55.5,19.5C 53.6639,20.0276 51.9972,20.6942 50.5,21.5C 48.0912,20.2021 46.4245,20.8687 45.5,23.5C 44.2617,23.81 44.2617,24.31 45.5,25C 46.5,25.3333 47.5,25.6667 48.5,26C 47.7865,27.3431 48.1198,28.6764 49.5,30C 47.563,30.1216 46.2297,30.955 45.5,32.5C 44.5,32.5 43.5,32.5 42.5,32.5C 42.6646,29.4816 42.498,26.4816 42,23.5C 41.3333,24.1667 40.6667,24.8333 40,25.5C 39.8019,23.6183 39.3019,21.9516 38.5,20.5C 38.7743,16.052 41.1077,13.2187 45.5,12C 43.6412,11.3992 43.3079,10.5659 44.5,9.5C 48.1426,11.1091 51.4759,10.7757 54.5,8.5C 54.5,7.5 54.5,6.5 54.5,5.5 Z"/></g>
<g><path style="opacity:1" fill="#a49e97" d="M 50.5,21.5 C 51.5281,22.0736 52.5281,22.407 53.5,22.5C 53.1667,23.5 52.5,24.1667 51.5,24.5C 49.5851,24.6837 47.5851,24.3503 45.5,23.5C 46.4245,20.8687 48.0912,20.2021 50.5,21.5 Z"/></g>
<g><path style="opacity:0.996" fill="#edeae6" d="M 60.5,20.5 C 60.5,24.8333 60.5,29.1667 60.5,33.5C 59.6909,35.2922 59.1909,37.2922 59,39.5C 58.2917,40.3805 57.4584,41.0472 56.5,41.5C 55.5195,43.396 54.5195,45.396 53.5,47.5C 53.5693,49.2781 53.9026,51.1114 54.5,53C 53.9535,53.9246 53.2868,54.7579 52.5,55.5C 51.5041,49.5368 51.1707,43.5368 51.5,37.5C 52.675,37.719 53.675,37.3857 54.5,36.5C 51.5,35.8333 48.5,35.1667 45.5,34.5C 47.9248,33.3507 47.9248,32.684 45.5,32.5C 46.2297,30.955 47.563,30.1216 49.5,30C 48.1198,28.6764 47.7865,27.3431 48.5,26C 47.5,25.6667 46.5,25.3333 45.5,25C 44.2617,24.31 44.2617,23.81 45.5,23.5C 47.5851,24.3503 49.5851,24.6837 51.5,24.5C 52.5,24.1667 53.1667,23.5 53.5,22.5C 52.5281,22.407 51.5281,22.0736 50.5,21.5C 51.9972,20.6942 53.6639,20.0276 55.5,19.5C 56.7989,20.09 57.6322,21.09 58,22.5C 58.7083,21.6195 59.5416,20.9528 60.5,20.5 Z"/></g>
<g><path style="opacity:1" fill="#ecece6" d="M 38.5,20.5 C 39.3019,21.9516 39.8019,23.6183 40,25.5C 40.6667,24.8333 41.3333,24.1667 42,23.5C 42.498,26.4816 42.6646,29.4816 42.5,32.5C 43.5,32.5 44.5,32.5 45.5,32.5C 47.9248,32.684 47.9248,33.3507 45.5,34.5C 48.5,35.1667 51.5,35.8333 54.5,36.5C 53.675,37.3857 52.675,37.719 51.5,37.5C 51.1667,37.5 50.8333,37.5 50.5,37.5C 49.8333,37.5 49.1667,37.5 48.5,37.5C 47.8334,43.3465 47.1668,49.3465 46.5,55.5C 45.8333,49.8333 45.1667,44.1667 44.5,38.5C 42.8425,43.7678 42.3425,49.4344 43,55.5C 43.2784,56.4158 43.7784,57.0825 44.5,57.5C 44.5,60.8333 44.5,64.1667 44.5,67.5C 47.6248,68.4794 50.9581,68.8128 54.5,68.5C 55.8333,68.8333 55.8333,69.1667 54.5,69.5C 51.5,69.5 48.5,69.5 45.5,69.5C 45.3398,71.1992 45.5065,72.8659 46,74.5C 46.9246,73.9535 47.7579,73.2868 48.5,72.5C 47.4937,71.6043 47.4937,70.9377 48.5,70.5C 49.2436,71.9905 49.9103,73.4905 50.5,75C 48.8659,75.4935 47.1992,75.6602 45.5,75.5C 45.5,77.5 45.5,79.5 45.5,81.5C 44.7321,82.2625 44.2321,83.2625 44,84.5C 43.6667,83.8333 43.3333,83.1667 43,82.5C 42.6667,84.1667 42.3333,85.8333 42,87.5C 41.6667,87.1667 41.3333,86.8333 41,86.5C 40.2419,88.7695 40.4086,90.9361 41.5,93C 46.8333,93.6667 52.1667,93.6667 57.5,93C 59.25,91.2458 59.9167,89.0792 59.5,86.5C 59.1714,73.9887 59.5048,61.6554 60.5,49.5C 60.6666,64.1705 60.4999,78.8371 60,93.5C 53.5816,94.6433 47.0816,94.81 40.5,94C 40,93.5 39.5,93 39,92.5C 38.5,68.5023 38.3334,44.5023 38.5,20.5 Z"/></g>
<g><path style="opacity:1" fill="#eae9e5" d="M 60.5,33.5 C 60.5,38.8333 60.5,44.1667 60.5,49.5C 59.5048,61.6554 59.1714,73.9887 59.5,86.5C 58.7321,87.2625 58.2321,88.2625 58,89.5C 57.07,84.2007 56.4034,78.8673 56,73.5C 55.8171,76.3647 55.3171,79.0314 54.5,81.5C 54.7521,78.7562 54.0855,76.2562 52.5,74C 53.7073,72.6998 54.3739,71.1998 54.5,69.5C 55.8333,69.1667 55.8333,68.8333 54.5,68.5C 54.5,68.1667 54.5,67.8333 54.5,67.5C 54.5,64.1667 54.5,60.8333 54.5,57.5C 55.3213,60.6414 55.8213,63.9748 56,67.5C 56.7927,63.577 56.626,59.7436 55.5,56C 56.1667,53.3333 56.8333,50.6667 57.5,48C 56.4841,46.0576 56.1507,43.8909 56.5,41.5C 57.4584,41.0472 58.2917,40.3805 59,39.5C 59.1909,37.2922 59.6909,35.2922 60.5,33.5 Z"/></g>
<g><path style="opacity:1" fill="#f5f4f2" d="M 48.5,37.5 C 49.1667,62.8333 49.8333,62.8333 50.5,37.5C 50.8333,37.5 51.1667,37.5 51.5,37.5C 51.1707,43.5368 51.5041,49.5368 52.5,55.5C 53.2868,54.7579 53.9535,53.9246 54.5,53C 53.9026,51.1114 53.5693,49.2781 53.5,47.5C 54.5195,45.396 55.5195,43.396 56.5,41.5C 56.1507,43.8909 56.4841,46.0576 57.5,48C 56.8333,50.6667 56.1667,53.3333 55.5,56C 56.626,59.7436 56.7927,63.577 56,67.5C 55.8213,63.9748 55.3213,60.6414 54.5,57.5C 51.1667,57.5 47.8333,57.5 44.5,57.5C 43.7784,57.0825 43.2784,56.4158 43,55.5C 42.3425,49.4344 42.8425,43.7678 44.5,38.5C 45.1667,44.1667 45.8333,49.8333 46.5,55.5C 47.1668,49.3465 47.8334,43.3465 48.5,37.5 Z"/></g>
<g><path style="opacity:1" fill="#a6a49e" d="M 48.5,37.5 C 49.1667,37.5 49.8333,37.5 50.5,37.5C 49.8333,62.8333 49.1667,62.8333 48.5,37.5 Z"/></g>
<g><path style="opacity:1" fill="#0e0d09" d="M 44.5,57.5 C 47.8333,57.5 51.1667,57.5 54.5,57.5C 54.5,60.8333 54.5,64.1667 54.5,67.5C 53.1266,67.6567 51.7932,67.49 50.5,67C 50.8333,66.6667 51.1667,66.3333 51.5,66C 48.5073,65.5727 48.0073,64.4061 50,62.5C 50.8928,63.7112 51.7261,63.7112 52.5,62.5C 49.7626,58.3585 48.0959,58.8585 47.5,64C 47.7549,65.3261 48.4216,66.3261 49.5,67C 47.8659,67.4935 46.1992,67.6602 44.5,67.5C 44.5,64.1667 44.5,60.8333 44.5,57.5 Z"/></g>
<g><path style="opacity:1" fill="#918f89" d="M 54.5,67.5 C 54.5,67.8333 54.5,68.1667 54.5,68.5C 50.9581,68.8128 47.6248,68.4794 44.5,67.5C 46.1992,67.6602 47.8659,67.4935 49.5,67C 48.4216,66.3261 47.7549,65.3261 47.5,64C 48.0959,58.8585 49.7626,58.3585 52.5,62.5C 51.7261,63.7112 50.8928,63.7112 50,62.5C 48.0073,64.4061 48.5073,65.5727 51.5,66C 51.1667,66.3333 50.8333,66.6667 50.5,67C 51.7932,67.49 53.1266,67.6567 54.5,67.5 Z"/></g>
<g><path style="opacity:1" fill="#d4cfc2" d="M 54.5,69.5 C 54.3739,71.1998 53.7073,72.6998 52.5,74C 54.0855,76.2562 54.7521,78.7562 54.5,81.5C 54.4226,82.7498 53.756,83.5831 52.5,84C 50.1902,84.4966 47.8568,84.6633 45.5,84.5C 45.5,83.5 45.5,82.5 45.5,81.5C 45.5,79.5 45.5,77.5 45.5,75.5C 47.1992,75.6602 48.8659,75.4935 50.5,75C 49.9103,73.4905 49.2436,71.9905 48.5,70.5C 47.4937,70.9377 47.4937,71.6043 48.5,72.5C 47.7579,73.2868 46.9246,73.9535 46,74.5C 45.5065,72.8659 45.3398,71.1992 45.5,69.5C 48.5,69.5 51.5,69.5 54.5,69.5 Z"/></g>
<g><path style="opacity:1" fill="#f1f1ee" d="M 59.5,86.5 C 59.9167,89.0792 59.25,91.2458 57.5,93C 52.1667,93.6667 46.8333,93.6667 41.5,93C 40.4086,90.9361 40.2419,88.7695 41,86.5C 41.3333,86.8333 41.6667,87.1667 42,87.5C 42.3333,85.8333 42.6667,84.1667 43,82.5C 43.3333,83.1667 43.6667,83.8333 44,84.5C 44.2321,83.2625 44.7321,82.2625 45.5,81.5C 45.5,82.5 45.5,83.5 45.5,84.5C 47.8568,84.6633 50.1902,84.4966 52.5,84C 53.756,83.5831 54.4226,82.7498 54.5,81.5C 55.3171,79.0314 55.8171,76.3647 56,73.5C 56.4034,78.8673 57.07,84.2007 58,89.5C 58.2321,88.2625 58.7321,87.2625 59.5,86.5 Z"/></g>
</svg>
