<?xml version="1.0" encoding="UTF-8"?>
<!DOCTYPE svg PUBLIC "-//W3C//DTD SVG 1.1//EN" "http://www.w3.org/Graphics/SVG/1.1/DTD/svg11.dtd">
<svg xmlns="http://www.w3.org/2000/svg" version="1.1" width="158px" height="78px" style="shape-rendering:geometricPrecision; text-rendering:geometricPrecision; image-rendering:optimizeQuality; fill-rule:evenodd; clip-rule:evenodd" xmlns:xlink="http://www.w3.org/1999/xlink">
<g><path style="opacity:0.632" fill="#080808" d="M 27.5,-0.5 C 28.8333,-0.5 30.1667,-0.5 31.5,-0.5C 68.6644,0.332561 105.998,0.832561 143.5,1C 146.477,2.14545 148.144,4.31212 148.5,7.5C 151.532,8.83321 154.532,10.1665 157.5,11.5C 157.5,14.8333 157.5,18.1667 157.5,21.5C 156.733,22.172 156.066,23.0053 155.5,24C 150.709,24.2094 147.709,26.5427 146.5,31C 147.205,32.5565 146.539,33.7232 144.5,34.5C 125.88,33.513 107.213,33.1796 88.5,33.5C 87.9087,40.4406 84.2421,45.1072 77.5,47.5C 68.8624,46.3903 60.1957,46.2237 51.5,47C 44.787,54.7621 40.787,63.7621 39.5,74C 38.4558,75.1739 37.4558,76.3406 36.5,77.5C 25.8333,77.5 15.1667,77.5 4.5,77.5C 0.635444,75.5517 -0.364556,72.5517 1.5,68.5C 1.04311,67.7025 0.376442,67.3691 -0.5,67.5C -0.5,66.1667 -0.5,64.8333 -0.5,63.5C 3.73033,64.4372 6.23033,62.7705 7,58.5C 7.49665,56.1902 7.66331,53.8568 7.5,51.5C 8.83333,51.5 10.1667,51.5 11.5,51.5C 11.5,48.8333 11.5,46.1667 11.5,43.5C 13.288,43.7852 14.9547,43.4519 16.5,42.5C 18.6976,39.4668 20.6976,36.3001 22.5,33C 19.8333,32.6667 17.1667,32.3333 14.5,32C 13.2567,30.8455 12.2567,29.5122 11.5,28C 10.2068,27.51 8.87344,27.3433 7.5,27.5C 7.6653,23.8183 7.49863,20.1516 7,16.5C 4.15357,13.0811 3.82024,9.41446 6,5.5C 7.4907,3.99627 9.32403,3.16294 11.5,3C 16.5,2.66667 21.5,2.33333 26.5,2C 27.2524,1.32924 27.5858,0.495904 27.5,-0.5 Z M 71.5,31.5 C 73.8333,31.5 76.1667,31.5 78.5,31.5C 79.8445,37.6624 77.6778,39.6624 72,37.5C 71.5045,35.5273 71.3379,33.5273 71.5,31.5 Z"/></g>
<g><path style="opacity:1" fill="#eeeeee" d="M 143.5,7.5 C 105.167,7.5 66.8333,7.5 28.5,7.5C 47.3215,6.16703 66.4882,5.50037 86,5.5C 105.512,5.50037 124.678,6.16703 143.5,7.5 Z"/></g>
<g><path style="opacity:1" fill="#545554" d="M 28.5,7.5 C 66.8333,7.5 105.167,7.5 143.5,7.5C 143.389,8.11742 143.056,8.61742 142.5,9C 99.1628,9.83327 55.8295,9.66661 12.5,8.5C 17.7921,7.50515 23.1254,7.17182 28.5,7.5 Z"/></g>
<g><path style="opacity:1" fill="#f5f2f5" d="M 28.5,11.5 C 29.209,12.404 30.209,12.7373 31.5,12.5C 31.5,12.8333 31.5,13.1667 31.5,13.5C 25.1667,13.5 18.8333,13.5 12.5,13.5C 17.3958,11.5539 22.7291,10.8872 28.5,11.5 Z"/></g>
<g><path style="opacity:1" fill="#ececec" d="M 73.5,13.5 C 67.8333,13.5 62.1667,13.5 56.5,13.5C 58.9151,12.1858 61.7485,11.5191 65,11.5C 68.2515,11.5191 71.0849,12.1858 73.5,13.5 Z"/></g>
<g><path style="opacity:1" fill="#eeeeee" d="M 79.5,13.5 C 78.1667,13.5 76.8333,13.5 75.5,13.5C 75.62,12.4138 76.2867,11.7472 77.5,11.5C 78.7133,11.7472 79.38,12.4138 79.5,13.5 Z"/></g>
<g><path style="opacity:1" fill="#e4e3e4" d="M 143.5,14.5 C 141.833,15.1667 140.167,15.8333 138.5,16.5C 138.858,14.2988 140.192,12.9655 142.5,12.5C 143.298,12.9569 143.631,13.6236 143.5,14.5 Z"/></g>
<g><path style="opacity:1" fill="#ebe9eb" d="M 95.5,16.5 C 92.5,16.5 89.5,16.5 86.5,16.5C 87.5145,15.2353 89.0145,14.5687 91,14.5C 92.9855,14.5687 94.4855,15.2353 95.5,16.5 Z"/></g>
<g><path style="opacity:1" fill="#eae7ea" d="M 103.5,16.5 C 101.5,16.5 99.5,16.5 97.5,16.5C 97.9704,15.3065 98.9704,14.6399 100.5,14.5C 102.03,14.6399 103.03,15.3065 103.5,16.5 Z"/></g>
<g><path style="opacity:1" fill="#eae7ea" d="M 111.5,16.5 C 109.5,16.5 107.5,16.5 105.5,16.5C 105.97,15.3065 106.97,14.6399 108.5,14.5C 110.03,14.6399 111.03,15.3065 111.5,16.5 Z"/></g>
<g><path style="opacity:1" fill="#eae7ea" d="M 119.5,16.5 C 117.5,16.5 115.5,16.5 113.5,16.5C 113.97,15.3065 114.97,14.6399 116.5,14.5C 118.03,14.6399 119.03,15.3065 119.5,16.5 Z"/></g>
<g><path style="opacity:1" fill="#eae7ea" d="M 127.5,16.5 C 125.5,16.5 123.5,16.5 121.5,16.5C 121.97,15.3065 122.97,14.6399 124.5,14.5C 126.03,14.6399 127.03,15.3065 127.5,16.5 Z"/></g>
<g><path style="opacity:1" fill="#e8e7e8" d="M 136.5,16.5 C 134.167,16.5 131.833,16.5 129.5,16.5C 130.152,15.2749 131.319,14.6083 133,14.5C 134.681,14.6083 135.848,15.2749 136.5,16.5 Z"/></g>
<g><path style="opacity:1" fill="#0f0e0f" d="M 31.5,12.5 C 38.5,12.5 45.5,12.5 52.5,12.5C 52.5,15.1667 52.5,17.8333 52.5,20.5C 45.5,20.5 38.5,20.5 31.5,20.5C 31.5,18.1667 31.5,15.8333 31.5,13.5C 31.5,13.1667 31.5,12.8333 31.5,12.5 Z"/></g>
<g><path style="opacity:1" fill="#797979" d="M 28.5,11.5 C 37.1667,11.5 45.8333,11.5 54.5,11.5C 54.2606,13.4672 54.5939,15.3005 55.5,17C 61.8595,17.8306 68.1928,17.6639 74.5,16.5C 75.1272,15.5832 75.4606,14.5832 75.5,13.5C 76.8333,13.5 78.1667,13.5 79.5,13.5C 79.5,16.8333 79.5,20.1667 79.5,23.5C 57.1667,23.5 34.8333,23.5 12.5,23.5C 12.5,20.1667 12.5,16.8333 12.5,13.5C 18.8333,13.5 25.1667,13.5 31.5,13.5C 31.5,15.8333 31.5,18.1667 31.5,20.5C 38.5,20.5 45.5,20.5 52.5,20.5C 52.5,17.8333 52.5,15.1667 52.5,12.5C 45.5,12.5 38.5,12.5 31.5,12.5C 30.209,12.7373 29.209,12.404 28.5,11.5 Z"/></g>
<g><path style="opacity:1" fill="#f7f6f7" d="M 50.5,16.5 C 44.8333,16.5 39.1667,16.5 33.5,16.5C 35.9151,15.1858 38.7485,14.5191 42,14.5C 45.2515,14.5191 48.0849,15.1858 50.5,16.5 Z"/></g>
<g><path style="opacity:1" fill="#797a79" d="M 56.5,13.5 C 62.1667,13.5 67.8333,13.5 73.5,13.5C 73.3893,14.1174 73.056,14.6174 72.5,15C 67.5,15.6667 62.5,15.6667 57.5,15C 56.944,14.6174 56.6107,14.1174 56.5,13.5 Z"/></g>
<g><path style="opacity:1" fill="#787978" d="M 81.5,12.5 C 85.3006,15.5151 85.4673,18.8484 82,22.5C 81.5017,19.1832 81.335,15.8499 81.5,12.5 Z"/></g>
<g><path style="opacity:1" fill="#777677" d="M 145.5,11.5 C 146.5,11.5 147.5,11.5 148.5,11.5C 148.665,14.8499 148.498,18.1832 148,21.5C 147.586,21.9574 147.086,22.2907 146.5,22.5C 145.511,18.8927 145.177,15.226 145.5,11.5 Z"/></g>
<g><path style="opacity:1" fill="#8d8b8d" d="M 150.5,13.5 C 151.725,14.1522 152.392,15.3189 152.5,17C 152.167,18.1667 151.833,19.3333 151.5,20.5C 150.526,18.2573 150.192,15.924 150.5,13.5 Z"/></g>
<g><path style="opacity:1" fill="#6a686a" d="M 33.5,16.5 C 39.1667,16.5 44.8333,16.5 50.5,16.5C 48.0849,17.8142 45.2515,18.4809 42,18.5C 38.7485,18.4809 35.9151,17.8142 33.5,16.5 Z"/></g>
<g><path style="opacity:1" fill="#767876" d="M 86.5,16.5 C 89.5,16.5 92.5,16.5 95.5,16.5C 95.5,17.5 95.5,18.5 95.5,19.5C 92.5,19.5 89.5,19.5 86.5,19.5C 86.5,18.5 86.5,17.5 86.5,16.5 Z"/></g>
<g><path style="opacity:1" fill="#7f807f" d="M 97.5,16.5 C 99.5,16.5 101.5,16.5 103.5,16.5C 103.5,17.5 103.5,18.5 103.5,19.5C 101.5,19.5 99.5,19.5 97.5,19.5C 97.5,18.5 97.5,17.5 97.5,16.5 Z"/></g>
<g><path style="opacity:1" fill="#7f807f" d="M 105.5,16.5 C 107.5,16.5 109.5,16.5 111.5,16.5C 111.5,17.5 111.5,18.5 111.5,19.5C 109.5,19.5 107.5,19.5 105.5,19.5C 105.5,18.5 105.5,17.5 105.5,16.5 Z"/></g>
<g><path style="opacity:1" fill="#7f807f" d="M 113.5,16.5 C 115.5,16.5 117.5,16.5 119.5,16.5C 119.5,17.5 119.5,18.5 119.5,19.5C 117.5,19.5 115.5,19.5 113.5,19.5C 113.5,18.5 113.5,17.5 113.5,16.5 Z"/></g>
<g><path style="opacity:1" fill="#7f807f" d="M 121.5,16.5 C 123.5,16.5 125.5,16.5 127.5,16.5C 127.5,17.5 127.5,18.5 127.5,19.5C 125.5,19.5 123.5,19.5 121.5,19.5C 121.5,18.5 121.5,17.5 121.5,16.5 Z"/></g>
<g><path style="opacity:1" fill="#818281" d="M 129.5,16.5 C 131.833,16.5 134.167,16.5 136.5,16.5C 136.5,17.5 136.5,18.5 136.5,19.5C 134.167,19.5 131.833,19.5 129.5,19.5C 129.5,18.5 129.5,17.5 129.5,16.5 Z"/></g>
<g><path style="opacity:1" fill="#686b68" d="M 143.5,14.5 C 143.664,17.1873 143.497,19.854 143,22.5C 139.793,21.7454 138.293,19.7454 138.5,16.5C 140.167,15.8333 141.833,15.1667 143.5,14.5 Z"/></g>
<g><path style="opacity:1" fill="#6a6c6a" d="M 86.5,21.5 C 104.261,21.0274 121.927,21.5274 139.5,23C 121.167,23.6667 102.833,23.6667 84.5,23C 85.4158,22.7216 86.0825,22.2216 86.5,21.5 Z"/></g>
<g><path style="opacity:1" fill="#707370" d="M 59.5,26.5 C 68.1731,26.3336 76.8397,26.5002 85.5,27C 84.8838,30.8631 84.0505,34.6964 83,38.5C 82.6667,35.5 82.3333,32.5 82,29.5C 81.5,29 81,28.5 80.5,28C 73.7526,27.2075 67.0859,27.3742 60.5,28.5C 60.1667,27.8333 59.8333,27.1667 59.5,26.5 Z"/></g>
<g><path style="opacity:1" fill="#f1f2f1" d="M 59.5,26.5 C 59.8333,27.1667 60.1667,27.8333 60.5,28.5C 48.5,28.5 36.5,28.5 24.5,28.5C 21.2784,28.8919 18.2784,28.3919 15.5,27C 30.1629,26.5001 44.8295,26.3334 59.5,26.5 Z"/></g>
<g><path style="opacity:1" fill="#cdd0cd" d="M 88.5,26.5 C 106.845,26.1671 125.179,26.5004 143.5,27.5C 143.291,28.086 142.957,28.586 142.5,29C 124.833,29.6667 107.167,29.6667 89.5,29C 88.7476,28.3292 88.4142,27.4959 88.5,26.5 Z"/></g>
<g><path style="opacity:1" fill="#797979" d="M 24.5,28.5 C 36.5,28.5 48.5,28.5 60.5,28.5C 57.9161,32.9085 57.9161,37.4085 60.5,42C 56.8333,42.3333 53.1667,42.6667 49.5,43C 48.4214,43.956 47.2547,44.7894 46,45.5C 40.9043,54.0102 37.2376,63.0102 35,72.5C 25.5777,73.6509 16.0777,73.8176 6.5,73C 5.69194,72.6924 5.02527,72.1924 4.5,71.5C 11.4016,59.367 18.5683,47.367 26,35.5C 26.815,32.8018 26.315,30.4685 24.5,28.5 Z"/></g>
<g><path style="opacity:1" fill="#d8d9d8" d="M 65.5,31.5 C 63.8333,32.1667 62.1667,32.8333 60.5,33.5C 61.4124,29.531 63.0791,28.8643 65.5,31.5 Z"/></g>
<g><path style="opacity:1" fill="#080808" d="M 37.5,33.5 C 38.8333,33.5 40.1667,33.5 41.5,33.5C 41.5,34.8333 41.5,36.1667 41.5,37.5C 40.1667,37.5 38.8333,37.5 37.5,37.5C 37.5,36.1667 37.5,34.8333 37.5,33.5 Z"/></g>
<g><path style="opacity:1" fill="#767676" d="M 65.5,31.5 C 64.1887,34.2901 64.5221,36.9567 66.5,39.5C 61.5022,40.9394 59.5022,38.9394 60.5,33.5C 62.1667,32.8333 63.8333,32.1667 65.5,31.5 Z"/></g>
<g><path style="opacity:1" fill="#090909" d="M 33.5,29.5 C 38.8333,30.1667 38.8333,30.8333 33.5,31.5C 33.7525,34.3198 33.2525,36.9865 32,39.5C 25.4581,48.0882 19.2915,56.9216 13.5,66C 13.8198,67.6532 14.8198,68.6532 16.5,69C 20.8333,69.6667 25.1667,69.6667 29.5,69C 30.8081,66.6451 31.8081,64.1451 32.5,61.5C 33.8094,64.6522 33.4761,67.6522 31.5,70.5C 26.1977,71.6628 20.8643,71.8295 15.5,71C 11.2617,68.8284 10.4284,65.6618 13,61.5C 21.3582,51.6758 28.1915,41.0091 33.5,29.5 Z"/></g>
<g><path style="opacity:1" fill="#080808" d="M 21.5,63.5 C 22.8333,63.5 24.1667,63.5 25.5,63.5C 25.5,64.8333 25.5,66.1667 25.5,67.5C 24.1667,67.5 22.8333,67.5 21.5,67.5C 21.5,66.1667 21.5,64.8333 21.5,63.5 Z"/></g>
</svg>
