<?xml version="1.0" encoding="UTF-8"?>
<!DOCTYPE svg PUBLIC "-//W3C//DTD SVG 1.1//EN" "http://www.w3.org/Graphics/SVG/1.1/DTD/svg11.dtd">
<svg xmlns="http://www.w3.org/2000/svg" version="1.1" width="100px" height="100px" style="shape-rendering:geometricPrecision; text-rendering:geometricPrecision; image-rendering:optimizeQuality; fill-rule:evenodd; clip-rule:evenodd" xmlns:xlink="http://www.w3.org/1999/xlink">
<g><path style="opacity:0.105" fill="#040405" d="M 99.5,58.5 C 99.5,61.8333 99.5,65.1667 99.5,68.5C 96.5299,72.9954 93.6966,77.6621 91,82.5C 78.8348,86.0106 73.8348,81.344 76,68.5C 74.9887,67.6634 73.8221,67.33 72.5,67.5C 75.8727,81.6211 70.5393,87.4544 56.5,85C 54.1141,83.1561 52.9474,80.6561 53,77.5C 47.5651,89.4261 39.8985,90.7594 30,81.5C 29.3333,78.5 29.3333,75.5 30,72.5C 34.2863,65.9331 37.453,58.9331 39.5,51.5C 27.6155,45.2233 15.2822,40.0567 2.5,36C 1.71779,33.2595 1.21779,30.4262 1,27.5C 0.617425,26.944 0.117425,26.6107 -0.5,26.5C -0.5,23.1667 -0.5,19.8333 -0.5,16.5C 6.2496,12.7419 13.5829,11.5752 21.5,13C 23.0526,14.0968 24.386,15.4301 25.5,17C 39.5,24 53.5,31 67.5,38C 69.5,38.3333 71.5,38.6667 73.5,39C 76.5455,42.5074 79.5455,46.0074 82.5,49.5C 88.672,51.7502 94.3387,54.7502 99.5,58.5 Z"/></g>
<g><path style="opacity:1" fill="#716e6e" d="M 13.5,19.5 C 15.3879,20.9397 17.0546,22.6064 18.5,24.5C 18.8333,23.8333 19.1667,23.1667 19.5,22.5C 24.9539,24.7267 30.2872,27.2267 35.5,30C 34.1667,31 34.1667,32 35.5,33C 32.4786,32.5817 29.6453,31.415 27,29.5C 25.3866,30.6223 24.2199,30.1223 23.5,28C 20.4167,26.8608 17.4167,25.5275 14.5,24C 13.6198,22.6439 13.2865,21.1439 13.5,19.5 Z"/></g>
<g><path style="opacity:1" fill="#222227" d="M 73.5,51.5 C 73.6941,55.0048 74.6941,55.3382 76.5,52.5C 82.103,55.8852 87.9363,58.8852 94,61.5C 94.6667,63.1667 94.6667,64.8333 94,66.5C 90.9333,70.2868 88.1,74.2868 85.5,78.5C 84.6919,78.1924 84.0253,77.6924 83.5,77C 84.0959,72.9037 85.0959,68.9037 86.5,65C 84.1088,64.3086 84.1088,63.3086 86.5,62C 84.4839,59.7108 82.1506,59.2108 79.5,60.5C 78.2888,59.7261 78.2888,58.8928 79.5,58C 78.5509,57.3828 77.7175,57.5494 77,58.5C 76.6667,57.8333 76.3333,57.1667 76,56.5C 75.7266,58.1012 75.2266,59.6012 74.5,61C 71.9925,61.0929 69.8259,61.9262 68,63.5C 66.9028,68.6643 66.4028,73.831 66.5,79C 64.7818,79.346 63.1151,79.846 61.5,80.5C 61.1667,79.8333 60.8333,79.1667 60.5,78.5C 61.0471,74.9359 61.7137,71.4359 62.5,68C 60.913,67.1376 59.2464,66.4709 57.5,66C 59.6701,65.1888 61.3368,63.8554 62.5,62C 60.2057,58.6861 57.8723,58.6861 55.5,62C 56.9928,63.1562 56.8261,63.9896 55,64.5C 53.6068,63.3849 52.1068,62.8849 50.5,63C 51.3567,63.6891 52.0233,64.5224 52.5,65.5C 49.5856,71.6633 46.419,77.6633 43,83.5C 42.6905,82.2341 42.1905,81.0674 41.5,80C 39.0038,78.9196 36.6705,77.5862 34.5,76C 37.8762,71.1446 40.5429,65.978 42.5,60.5C 44.5914,60.3184 46.5914,60.6518 48.5,61.5C 49.3998,60.643 49.0664,59.9763 47.5,59.5C 48.1098,58.609 48.4431,57.609 48.5,56.5C 49.2237,53.6589 50.3904,50.9922 52,48.5C 53.0084,48.0183 54.175,47.8516 55.5,48C 54.4019,47.2303 54.4019,46.397 55.5,45.5C 52.9104,45.0818 50.5771,44.0818 48.5,42.5C 49.2427,41.8182 49.9094,41.1515 50.5,40.5C 51.3635,41.463 52.0302,41.463 52.5,40.5C 50.0178,36.6601 49.0178,36.6601 49.5,40.5C 48.2652,40.7214 47.2652,41.3881 46.5,42.5C 42.819,41.1119 39.319,39.4453 36,37.5C 35.7351,35.8374 36.2351,34.3374 37.5,33C 37.1667,32.6667 36.8333,32.3333 36.5,32C 38.4324,31.8621 40.2657,32.3621 42,33.5C 42.3333,32.8333 42.6667,32.1667 43,31.5C 43.7446,34.7868 45.578,35.7868 48.5,34.5C 54.0234,37.0935 59.3567,39.9268 64.5,43C 70.4187,42.6331 73.4187,45.4665 73.5,51.5 Z"/></g>
<g><path style="opacity:1" fill="#d9d5d2" d="M 55.5,45.5 C 53.7871,41.5389 54.4538,40.8723 57.5,43.5C 57.1445,44.5223 56.4778,45.189 55.5,45.5 Z"/></g>
<g><path style="opacity:0.996" fill="#d7d6d5" d="M 50.5,40.5 C 50.1667,40.5 49.8333,40.5 49.5,40.5C 49.0178,36.6601 50.0178,36.6601 52.5,40.5C 52.0302,41.463 51.3635,41.463 50.5,40.5 Z"/></g>
<g><path style="opacity:0.996" fill="#b1b0b2" d="M 73.5,51.5 C 74.609,51.5569 75.609,51.8902 76.5,52.5C 74.6941,55.3382 73.6941,55.0048 73.5,51.5 Z"/></g>
<g><path style="opacity:1" fill="#e2dfdb" d="M 48.5,56.5 C 48.4431,57.609 48.1098,58.609 47.5,59.5C 46.2848,58.221 46.6182,57.221 48.5,56.5 Z"/></g>
</svg>
