<?xml version="1.0" encoding="UTF-8"?>
<!DOCTYPE svg PUBLIC "-//W3C//DTD SVG 1.1//EN" "http://www.w3.org/Graphics/SVG/1.1/DTD/svg11.dtd">
<svg xmlns="http://www.w3.org/2000/svg" version="1.1" width="100px" height="100px" style="shape-rendering:geometricPrecision; text-rendering:geometricPrecision; image-rendering:optimizeQuality; fill-rule:evenodd; clip-rule:evenodd" xmlns:xlink="http://www.w3.org/1999/xlink">
<g><path style="opacity:0.095" fill="#010101" d="M 11.5,5.5 C 16.449,4.95886 21.1156,5.79219 25.5,8C 35.3697,18.2012 44.8697,28.7012 54,39.5C 66.6956,52.5295 79.6956,65.1962 93,77.5C 96.0571,91.8787 90.5571,97.0454 76.5,93C 61.8094,75.9067 45.8094,60.2401 28.5,46C 21.3333,38.8333 14.1667,31.6667 7,24.5C 5.46607,20.2891 5.13273,15.9558 6,11.5C 7.35968,8.97739 9.19301,6.97739 11.5,5.5 Z"/></g>
<g><path style="opacity:1" fill="#8a8a7c" d="M 13.5,14.5 C 15.6807,14.2837 17.3474,15.117 18.5,17C 18.1667,17.3333 17.8333,17.6667 17.5,18C 18.448,18.4828 19.448,18.6495 20.5,18.5C 20.7778,20.3464 20.1112,21.6798 18.5,22.5C 17.7568,21.0921 16.9234,19.7588 16,18.5C 15.0138,19.1712 13.8471,19.1712 12.5,18.5C 12.4326,17.0413 12.7659,15.7079 13.5,14.5 Z"/></g>
<g><path style="opacity:0.98" fill="#b2c0c4" d="M 17.5,12.5 C 23.8922,17.89 29.5588,23.89 34.5,30.5C 27.8127,24.8322 22.146,18.8322 17.5,12.5 Z"/></g>
<g><path style="opacity:0.992" fill="#424646" d="M 17.5,12.5 C 22.146,18.8322 27.8127,24.8322 34.5,30.5C 36.7657,34.4356 39.7657,37.7689 43.5,40.5C 49.6203,46.076 55.287,52.076 60.5,58.5C 59.8826,58.6107 59.3826,58.944 59,59.5C 54.1667,54.6667 49.3333,49.8333 44.5,45C 43.8333,44.3333 43.1667,44.3333 42.5,45C 43.7383,45.69 43.7383,46.19 42.5,46.5C 32.0773,37.6216 22.0773,28.2882 12.5,18.5C 13.8471,19.1712 15.0138,19.1712 16,18.5C 16.9234,19.7588 17.7568,21.0921 18.5,22.5C 20.1112,21.6798 20.7778,20.3464 20.5,18.5C 19.448,18.6495 18.448,18.4828 17.5,18C 17.8333,17.6667 18.1667,17.3333 18.5,17C 17.3474,15.117 15.6807,14.2837 13.5,14.5C 14.375,12.1939 15.7084,11.5272 17.5,12.5 Z"/></g>
<g><path style="opacity:1" fill="#b0bec5" d="M 34.5,30.5 C 38.2343,33.2311 41.2343,36.5644 43.5,40.5C 39.7657,37.7689 36.7657,34.4356 34.5,30.5 Z"/></g>
<g><path style="opacity:1" fill="#313534" d="M 60.5,58.5 C 66.4729,63.1395 71.8062,68.4728 76.5,74.5C 75.71,75.6085 75.21,76.9419 75,78.5C 64.2716,67.604 53.4383,56.9373 42.5,46.5C 43.7383,46.19 43.7383,45.69 42.5,45C 43.1667,44.3333 43.8333,44.3333 44.5,45C 49.3333,49.8333 54.1667,54.6667 59,59.5C 59.3826,58.944 59.8826,58.6107 60.5,58.5 Z"/></g>
<g><path style="opacity:1" fill="#2d3130" d="M 76.5,74.5 C 78.8333,76.1667 80.8333,78.1667 82.5,80.5C 85.2844,82.9516 84.951,84.9516 81.5,86.5C 80.6019,84.0948 79.1019,82.0948 77,80.5C 77.3466,78.3901 77.1799,76.3901 76.5,74.5 Z"/></g>
<g><path style="opacity:1" fill="#6f7776" d="M 82.5,80.5 C 84.1172,81.038 85.7839,81.3713 87.5,81.5C 86.3362,84.1865 84.5029,86.5199 82,88.5C 81.5357,87.9056 81.369,87.2389 81.5,86.5C 84.951,84.9516 85.2844,82.9516 82.5,80.5 Z"/></g>
</svg>
