<?xml version="1.0" encoding="UTF-8"?>
<!DOCTYPE svg PUBLIC "-//W3C//DTD SVG 1.1//EN" "http://www.w3.org/Graphics/SVG/1.1/DTD/svg11.dtd">
<svg xmlns="http://www.w3.org/2000/svg" version="1.1" width="100px" height="100px" style="shape-rendering:geometricPrecision; text-rendering:geometricPrecision; image-rendering:optimizeQuality; fill-rule:evenodd; clip-rule:evenodd" xmlns:xlink="http://www.w3.org/1999/xlink">
<g><path style="opacity:0.134" fill="#020201" d="M 99.5,44.5 C 99.5,47.8333 99.5,51.1667 99.5,54.5C 98.7731,61.7883 97.6064,69.1216 96,76.5C 92.6791,77.9707 89.1791,78.6374 85.5,78.5C 85.1018,83.8916 82.1018,86.2249 76.5,85.5C 71.6011,85.4788 67.2678,83.9788 63.5,81C 60.1608,80.6096 56.8275,80.7762 53.5,81.5C 50.7737,81.3184 48.1071,80.8184 45.5,80C 43.2569,76.3301 41.9236,72.3301 41.5,68C 39.3921,67.6401 37.3921,66.9734 35.5,66C 34.4154,63.3041 32.7487,61.1374 30.5,59.5C 24.7507,58.996 19.0841,58.1627 13.5,57C 10.9727,54.4264 9.806,51.2597 10,47.5C 7.12288,46.5438 4.45621,45.2105 2,43.5C -2.31437,30.145 2.51896,24.3117 16.5,26C 21.6039,16.1233 29.6039,12.79 40.5,16C 48.1667,18.3333 55.8333,20.6667 63.5,23C 66.963,25.1496 68.2964,28.3162 67.5,32.5C 76.9629,34.0321 86.2962,36.1988 95.5,39C 97.4687,40.4998 98.802,42.3331 99.5,44.5 Z"/></g>
<g><path style="opacity:1" fill="#1c1b1a" d="M 65.5,41.5 C 66.8734,41.3433 68.2068,41.51 69.5,42C 68.944,42.3826 68.6107,42.8826 68.5,43.5C 67.6906,44.4687 66.6906,45.3021 65.5,46C 66.8586,47.2045 67.8586,48.7045 68.5,50.5C 70.3325,51.2485 71.9991,52.2485 73.5,53.5C 73.2907,54.086 72.9574,54.586 72.5,55C 77.1947,55.8723 81.8614,56.8723 86.5,58C 86.9574,58.414 87.2907,58.914 87.5,59.5C 86.2713,60.2811 84.938,60.7811 83.5,61C 84.624,61.2492 85.624,61.7492 86.5,62.5C 82.6313,65.5141 78.798,64.8474 75,60.5C 73.3994,62.7186 71.2328,64.0519 68.5,64.5C 69.3007,62.9582 69.634,61.2915 69.5,59.5C 68.448,59.3505 67.448,59.5172 66.5,60C 65.157,62.2322 63.4903,64.0655 61.5,65.5C 60.2101,64.9423 59.3768,63.9423 59,62.5C 58.2483,59.1064 58.4149,55.773 59.5,52.5C 57.4902,50.8287 55.1569,50.162 52.5,50.5C 52.838,57.2035 53.5047,63.8701 54.5,70.5C 53.3509,70.2089 52.6842,69.3756 52.5,68C 51.9233,65.863 51.59,63.6963 51.5,61.5C 48.5176,61.0371 45.5176,60.7038 42.5,60.5C 41.9475,58.0607 41.9475,55.7273 42.5,53.5C 41.8333,52.8333 41.1667,52.1667 40.5,51.5C 35.9549,50.5439 31.4549,49.5439 27,48.5C 25.6667,49.8333 24.3333,51.1667 23,52.5C 21.1839,51.6705 19.3506,50.8372 17.5,50C 20.9036,46.5364 23.5703,42.5364 25.5,38C 25.3333,37.5 25.1667,37 25,36.5C 24.4806,37.5156 23.6473,38.1822 22.5,38.5C 19.8383,37.5031 17.1716,36.5031 14.5,35.5C 14.1667,35.8333 13.8333,36.1667 13.5,36.5C 15.2199,37.934 17.2199,38.7674 19.5,39C 19.1667,39.3333 18.8333,39.6667 18.5,40C 15.4853,40.2009 12.4853,39.8676 9.5,39C 11.0037,37.5093 11.8371,35.676 12,33.5C 14.6067,34.2705 17.2734,34.9371 20,35.5C 20.9454,35.0946 21.6121,34.428 22,33.5C 23.4936,34.7472 24.9936,34.7472 26.5,33.5C 25.2713,32.7189 23.938,32.2189 22.5,32C 24.4812,31.3946 24.8146,30.3946 23.5,29C 24.6667,28.5 25.5,27.6667 26,26.5C 28.3909,27.6025 28.8909,26.9358 27.5,24.5C 29.4044,23.5909 31.2377,22.5909 33,21.5C 42.1667,24.3333 51.3333,27.1667 60.5,30C 60.9574,30.414 61.2907,30.914 61.5,31.5C 53.2947,37.5599 54.628,40.8933 65.5,41.5 Z"/></g>
<g><path style="opacity:1" fill="#e9e5de" d="M 35.5,34.5 C 36.1894,33.2264 37.0228,33.2264 38,34.5C 38.7494,35.635 38.5827,36.635 37.5,37.5C 36.8243,36.3984 36.1577,35.3984 35.5,34.5 Z"/></g>
<g><path style="opacity:1" fill="#5e5544" d="M 89.5,47.5 C 88.1667,47.5 87.5,48.1667 87.5,49.5C 82.0722,47.5686 76.5722,45.9019 71,44.5C 70.6667,44.8333 70.3333,45.1667 70,45.5C 69.7216,44.5842 69.2216,43.9175 68.5,43.5C 68.6107,42.8826 68.944,42.3826 69.5,42C 68.2068,41.51 66.8734,41.3433 65.5,41.5C 66.3739,40.4749 67.5405,39.8082 69,39.5C 75.4777,41.4111 81.9777,43.2444 88.5,45C 89.2524,45.6708 89.5858,46.5041 89.5,47.5 Z"/></g>
<g><path style="opacity:1" fill="#413b2e" d="M 68.5,43.5 C 69.2216,43.9175 69.7216,44.5842 70,45.5C 70.3333,45.1667 70.6667,44.8333 71,44.5C 76.5722,45.9019 82.0722,47.5686 87.5,49.5C 88.4682,51.6074 88.8016,53.9407 88.5,56.5C 84.1491,55.8297 79.8157,54.9964 75.5,54C 74.7734,52.6012 74.2734,51.1012 74,49.5C 69.8906,49.5291 68.0573,47.5291 68.5,43.5 Z"/></g>
<g><path style="opacity:1" fill="#3d372c" d="M 61.5,65.5 C 63.6842,67.9569 66.0175,67.9569 68.5,65.5C 69.0431,65.56 69.3764,65.8933 69.5,66.5C 68.6872,67.8139 67.6872,68.9805 66.5,70C 65.2559,70.4561 64.4226,69.9561 64,68.5C 62.0784,71.6616 59.2451,73.6616 55.5,74.5C 54.5713,73.3112 54.238,71.9778 54.5,70.5C 53.5047,63.8701 52.838,57.2035 52.5,50.5C 55.1569,50.162 57.4902,50.8287 59.5,52.5C 58.4149,55.773 58.2483,59.1064 59,62.5C 59.3768,63.9423 60.2101,64.9423 61.5,65.5 Z"/></g>
<g><path style="opacity:1" fill="#242425" d="M 88.5,56.5 C 88.8016,53.9407 88.4682,51.6074 87.5,49.5C 87.5,48.1667 88.1667,47.5 89.5,47.5C 89.369,48.2389 89.5357,48.9056 90,49.5C 90.4421,44.441 91.2754,44.2743 92.5,49C 91.6676,56.487 91.001,63.987 90.5,71.5C 89.5,71.5 88.5,71.5 87.5,71.5C 88.0534,66.518 88.3867,61.518 88.5,56.5 Z"/></g>
<g><path style="opacity:1" fill="#938569" d="M 68.5,64.5 C 68.5,64.8333 68.5,65.1667 68.5,65.5C 66.0175,67.9569 63.6842,67.9569 61.5,65.5C 63.4903,64.0655 65.157,62.2322 66.5,60C 67.448,59.5172 68.448,59.3505 69.5,59.5C 69.634,61.2915 69.3007,62.9582 68.5,64.5 Z"/></g>
<g><path style="opacity:1" fill="#2b2821" d="M 73.5,63.5 C 74.29,64.6085 74.79,65.9419 75,67.5C 76.5185,67.9426 77.6852,67.2759 78.5,65.5C 79.4922,69.7828 79.8256,74.1161 79.5,78.5C 76.1469,77.3786 72.8136,76.0453 69.5,74.5C 70.5881,70.6137 71.4215,70.6137 72,74.5C 72.4196,70.8086 72.9196,67.1419 73.5,63.5 Z"/></g>
</svg>
