<?xml version="1.0" encoding="UTF-8"?>
<!DOCTYPE svg PUBLIC "-//W3C//DTD SVG 1.1//EN" "http://www.w3.org/Graphics/SVG/1.1/DTD/svg11.dtd">
<svg xmlns="http://www.w3.org/2000/svg" version="1.1" width="100px" height="100px" style="shape-rendering:geometricPrecision; text-rendering:geometricPrecision; image-rendering:optimizeQuality; fill-rule:evenodd; clip-rule:evenodd" xmlns:xlink="http://www.w3.org/1999/xlink">
<g><path style="opacity:0.127" fill="#030303" d="M 24.5,16.5 C 29.461,15.6866 33.7944,16.8533 37.5,20C 46.9776,21.3539 56.4776,22.5206 66,23.5C 71.4899,22.667 76.9899,22.5003 82.5,23C 83,23.5 83.5,24 84,24.5C 85.3109,27.1354 86.9776,29.4687 89,31.5C 89.4784,36.8679 89.1451,42.2012 88,47.5C 85.7547,49.0124 84.2547,51.0124 83.5,53.5C 90.3229,77.843 81.6562,86.6763 57.5,80C 56.1667,72.6667 54.8333,65.3333 53.5,58C 44.5464,58.8683 38.5464,55.2017 35.5,47C 30.7804,46.2137 26.1137,45.2137 21.5,44C 19.4376,42.4675 18.1043,40.4675 17.5,38C 12.9416,37.0712 10.6083,34.2378 10.5,29.5C 11.1454,26.7717 11.9787,24.1051 13,21.5C 17.0187,20.1974 20.852,18.5307 24.5,16.5 Z"/></g>
<g><path style="opacity:1" fill="#3d3d3d" d="M 23.5,26.5 C 23.8212,28.0481 24.8212,28.7148 26.5,28.5C 26.7373,29.791 26.404,30.791 25.5,31.5C 25.5299,30.5028 25.0299,29.8361 24,29.5C 22.2341,30.2335 20.4008,30.5668 18.5,30.5C 18.5,28.8333 18.5,27.1667 18.5,25.5C 20.4147,25.2155 22.0813,25.5489 23.5,26.5 Z"/></g>
<g><path style="opacity:1" fill="#808080" d="M 49.5,28.5 C 49.5,28.8333 49.5,29.1667 49.5,29.5C 42.1827,28.6687 34.8494,28.002 27.5,27.5C 27.4208,28.9305 27.7542,30.2638 28.5,31.5C 27.675,32.3857 26.675,32.719 25.5,32.5C 25.5,32.1667 25.5,31.8333 25.5,31.5C 26.404,30.791 26.7373,29.791 26.5,28.5C 24.8212,28.7148 23.8212,28.0481 23.5,26.5C 25.5996,26.5228 27.4329,25.8561 29,24.5C 35.6387,26.4392 42.472,27.7725 49.5,28.5 Z"/></g>
<g><path style="opacity:1" fill="#a4a5a5" d="M 62.5,30.5 C 66.5,30.8333 70.5,31.1667 74.5,31.5C 75.1667,31.5 75.5,31.8333 75.5,32.5C 70.3306,32.6708 65.9973,32.0042 62.5,30.5 Z"/></g>
<g><path style="opacity:1" fill="#424141" d="M 79.5,32.5 C 78.1667,32.5 76.8333,32.5 75.5,32.5C 75.5,31.8333 75.1667,31.5 74.5,31.5C 75.0483,28.9162 76.715,27.9162 79.5,28.5C 79.5,29.8333 79.5,31.1667 79.5,32.5 Z"/></g>
<g><path style="opacity:1" fill="#4d4d4d" d="M 49.5,29.5 C 49.33,30.8221 49.6634,31.9887 50.5,33C 53.2321,33.413 55.8987,34.0797 58.5,35C 49.9803,35.1655 41.4803,34.6655 33,33.5C 30.3967,33.9653 27.8967,34.632 25.5,35.5C 25.5,34.5 25.5,33.5 25.5,32.5C 26.675,32.719 27.675,32.3857 28.5,31.5C 27.7542,30.2638 27.4208,28.9305 27.5,27.5C 34.8494,28.002 42.1827,28.6687 49.5,29.5 Z"/></g>
<g><path style="opacity:1" fill="#5c5c5c" d="M 49.5,29.5 C 49.5,29.1667 49.5,28.8333 49.5,28.5C 54.0758,28.4379 58.4091,29.1045 62.5,30.5C 65.9973,32.0042 70.3306,32.6708 75.5,32.5C 76.8333,32.5 78.1667,32.5 79.5,32.5C 79.5,33.5 79.5,34.5 79.5,35.5C 75.9009,34.6561 72.2343,34.3227 68.5,34.5C 68.7148,36.1788 68.0481,37.1788 66.5,37.5C 64.8927,34.2846 62.2261,32.9513 58.5,33.5C 58.5,32.5 58.5,31.5 58.5,30.5C 55.3915,30.7359 52.3915,30.4025 49.5,29.5 Z"/></g>
<g><path style="opacity:1" fill="#302f2f" d="M 49.5,29.5 C 52.3915,30.4025 55.3915,30.7359 58.5,30.5C 58.5,31.5 58.5,32.5 58.5,33.5C 62.2261,32.9513 64.8927,34.2846 66.5,37.5C 66.3691,38.3764 66.7025,39.0431 67.5,39.5C 70.3979,38.4953 73.2313,39.4953 76,42.5C 76.3333,42.1667 76.6667,41.8333 77,41.5C 75.4885,44.2087 74.1552,47.2087 73,50.5C 72.9326,47.953 72.0993,45.7863 70.5,44C 72.3008,43.6827 72.6341,43.016 71.5,42C 68.7376,43.0346 65.7376,43.5346 62.5,43.5C 62.4226,42.2502 61.756,41.4169 60.5,41C 48.6093,39.5884 36.9427,37.755 25.5,35.5C 27.8967,34.632 30.3967,33.9653 33,33.5C 41.4803,34.6655 49.9803,35.1655 58.5,35C 55.8987,34.0797 53.2321,33.413 50.5,33C 49.6634,31.9887 49.33,30.8221 49.5,29.5 Z"/></g>
<g><path style="opacity:1" fill="#444444" d="M 79.5,35.5 C 80.1308,37.9028 81.1308,40.2361 82.5,42.5C 80.0918,43.4535 77.9251,44.7868 76,46.5C 76.3195,50.1359 76.8195,53.8026 77.5,57.5C 77.6641,60.1873 77.4974,62.854 77,65.5C 75.3641,60.9883 74.3641,56.3216 74,51.5C 73.6667,51.8333 73.3333,52.1667 73,52.5C 71.4298,49.6215 69.2632,48.9548 66.5,50.5C 63.6507,50.0356 60.984,49.3689 58.5,48.5C 59.4851,46.4939 60.8184,44.8273 62.5,43.5C 65.7376,43.5346 68.7376,43.0346 71.5,42C 72.6341,43.016 72.3008,43.6827 70.5,44C 72.0993,45.7863 72.9326,47.953 73,50.5C 74.1552,47.2087 75.4885,44.2087 77,41.5C 76.6667,41.8333 76.3333,42.1667 76,42.5C 73.2313,39.4953 70.3979,38.4953 67.5,39.5C 66.7025,39.0431 66.3691,38.3764 66.5,37.5C 68.0481,37.1788 68.7148,36.1788 68.5,34.5C 72.2343,34.3227 75.9009,34.6561 79.5,35.5 Z"/></g>
<g><path style="opacity:1" fill="#282828" d="M 58.5,48.5 C 60.984,49.3689 63.6507,50.0356 66.5,50.5C 69.2632,48.9548 71.4298,49.6215 73,52.5C 73.3333,52.1667 73.6667,51.8333 74,51.5C 74.3641,56.3216 75.3641,60.9883 77,65.5C 77.4974,62.854 77.6641,60.1873 77.5,57.5C 80.1375,63.0199 79.8042,68.3532 76.5,73.5C 75.5318,72.5109 74.3651,71.8443 73,71.5C 70.4638,72.0386 68.1305,73.0386 66,74.5C 64.9302,74.472 64.0968,74.1386 63.5,73.5C 64.5,73.5 65.5,73.5 66.5,73.5C 66.3537,71.0576 67.187,70.3909 69,71.5C 71.6865,70.287 74.5198,69.6203 77.5,69.5C 77.6495,68.448 77.4828,67.448 77,66.5C 73.116,68.8883 68.9493,69.555 64.5,68.5C 63.5489,62.7945 62.3822,57.1278 61,51.5C 56.1924,50.7662 51.359,49.9329 46.5,49C 43.8748,46.8038 42.8748,43.9705 43.5,40.5C 47.0993,40.2619 47.4327,41.2619 44.5,43.5C 48.6535,50.2637 51.9869,49.9303 54.5,42.5C 55.2082,44.8925 54.5415,47.0591 52.5,49C 54.5976,49.6776 56.5976,49.5109 58.5,48.5 Z"/></g>
<g><path style="opacity:1" fill="#585858" d="M 63.5,73.5 C 63.6287,71.7839 63.962,70.1172 64.5,68.5C 68.9493,69.555 73.116,68.8883 77,66.5C 77.4828,67.448 77.6495,68.448 77.5,69.5C 74.5198,69.6203 71.6865,70.287 69,71.5C 67.187,70.3909 66.3537,71.0576 66.5,73.5C 65.5,73.5 64.5,73.5 63.5,73.5 Z"/></g>
</svg>
