<?xml version="1.0" encoding="UTF-8"?>
<!DOCTYPE svg PUBLIC "-//W3C//DTD SVG 1.1//EN" "http://www.w3.org/Graphics/SVG/1.1/DTD/svg11.dtd">
<svg xmlns="http://www.w3.org/2000/svg" version="1.1" width="100px" height="100px" style="shape-rendering:geometricPrecision; text-rendering:geometricPrecision; image-rendering:optimizeQuality; fill-rule:evenodd; clip-rule:evenodd" xmlns:xlink="http://www.w3.org/1999/xlink">
<g><path style="opacity:0.148" fill="#050403" d="M 10.5,16.5 C 14.8461,16.3343 19.1794,16.501 23.5,17C 41.9763,21.5354 60.3096,26.5354 78.5,32C 88.869,39.9051 94.0357,50.4051 94,63.5C 98.5524,78.9833 93.0524,85.4833 77.5,83C 75.6667,82.5 74.5,81.3333 74,79.5C 73.5804,75.8086 73.0804,72.1419 72.5,68.5C 69.3117,68.3822 66.3117,67.5489 63.5,66C 61.8326,62.9518 60.166,59.9518 58.5,57C 45.0937,52.8645 31.7603,48.5312 18.5,44C 17.1387,42.4157 16.472,40.5824 16.5,38.5C 5.10231,36.9199 1.60231,30.5866 6,19.5C 7.40875,18.2189 8.90875,17.2189 10.5,16.5 Z"/></g>
<g><path style="opacity:1" fill="#504d47" d="M 33.5,27.5 C 35.8304,29.2902 38.497,30.7902 41.5,32C 47.019,33.1139 52.519,34.2806 58,35.5C 59.3847,35.4857 60.5514,35.1524 61.5,34.5C 64.8107,34.9091 67.8107,36.0758 70.5,38C 67.7006,38.2669 64.7006,38.2669 61.5,38C 47.6168,35.2793 33.9501,31.7793 20.5,27.5C 20.5,26.5 20.5,25.5 20.5,24.5C 24.9087,25.2063 29.2421,26.2063 33.5,27.5 Z"/></g>
<g><path style="opacity:1" fill="#7b7a76" d="M 33.5,27.5 C 42.8815,29.6196 52.2148,31.9529 61.5,34.5C 60.5514,35.1524 59.3847,35.4857 58,35.5C 52.519,34.2806 47.019,33.1139 41.5,32C 38.497,30.7902 35.8304,29.2902 33.5,27.5 Z"/></g>
<g><path style="opacity:1" fill="#582918" d="M 51.5,38.5 C 52.6016,40.0919 51.935,40.9252 49.5,41C 50.7375,41.2321 51.7375,41.7321 52.5,42.5C 44.5889,40.4188 36.5889,38.7521 28.5,37.5C 28.2148,35.712 28.5481,34.0453 29.5,32.5C 36.8669,34.8391 44.2002,36.8391 51.5,38.5 Z"/></g>
<g><path style="opacity:1" fill="#7e381f" d="M 51.5,38.5 C 54.5979,38.7556 57.5979,39.4222 60.5,40.5C 60.5,42.5 60.5,44.5 60.5,46.5C 57.1189,46.4603 54.4523,45.127 52.5,42.5C 51.7375,41.7321 50.7375,41.2321 49.5,41C 51.935,40.9252 52.6016,40.0919 51.5,38.5 Z"/></g>
<g><path style="opacity:0.996" fill="#76331d" d="M 75.5,40.5 C 81.5296,44.551 85.0296,50.2177 86,57.5C 87.3683,63.1619 87.535,68.8286 86.5,74.5C 84.9291,75.3094 83.2624,75.6427 81.5,75.5C 82.0803,66.6689 81.2469,58.0022 79,49.5C 77.6703,50.5822 76.1703,51.2488 74.5,51.5C 75.1143,47.8648 75.4476,44.1981 75.5,40.5 Z"/></g>
<g><path style="opacity:1" fill="#514d44" d="M 75.5,40.5 C 75.4476,44.1981 75.1143,47.8648 74.5,51.5C 69.5614,50.3532 64.8947,48.6866 60.5,46.5C 60.5,44.5 60.5,42.5 60.5,40.5C 64.4492,40.9818 68.2825,41.9818 72,43.5C 75.0129,41.8979 75.0129,40.5646 72,39.5C 71.3123,38.6683 71.479,38.0016 72.5,37.5C 73.548,38.548 74.548,39.548 75.5,40.5 Z"/></g>
</svg>
