<?xml version="1.0" encoding="UTF-8"?>
<!DOCTYPE svg PUBLIC "-//W3C//DTD SVG 1.1//EN" "http://www.w3.org/Graphics/SVG/1.1/DTD/svg11.dtd">
<svg xmlns="http://www.w3.org/2000/svg" version="1.1" width="100px" height="100px" style="shape-rendering:geometricPrecision; text-rendering:geometricPrecision; image-rendering:optimizeQuality; fill-rule:evenodd; clip-rule:evenodd" xmlns:xlink="http://www.w3.org/1999/xlink">
<g><path style="opacity:0.128" fill="#020101" d="M 99.5,41.5 C 99.5,48.1667 99.5,54.8333 99.5,61.5C 96.8377,63.8906 93.671,64.8906 90,64.5C 84.7848,64.0779 79.9514,62.9112 75.5,61C 75.1667,61.3333 74.8333,61.6667 74.5,62C 81.0349,78.9586 75.3682,86.2919 57.5,84C 55.6969,83.3632 54.3636,82.1965 53.5,80.5C 52.6184,81.7598 51.6184,82.9264 50.5,84C 46.1667,84.6667 41.8333,84.6667 37.5,84C 34.9664,83.4837 32.7998,82.317 31,80.5C 30.3333,76.1667 30.3333,71.8333 31,67.5C 32.6307,63.3121 33.4641,58.9788 33.5,54.5C 23.9853,52.2168 14.3187,51.0502 4.5,51C 2.31305,49.975 0.646381,48.475 -0.5,46.5C -0.5,38.1667 -0.5,29.8333 -0.5,21.5C 4.89098,15.4482 11.5576,13.6149 19.5,16C 21.3766,18.1058 23.71,19.4391 26.5,20C 42.4951,24.3322 58.4951,28.6655 74.5,33C 77.87,34.4551 80.87,36.4551 83.5,39C 88.9281,39.3615 94.2615,40.1948 99.5,41.5 Z"/></g>
<g><path style="opacity:1" fill="#8b826d" d="M 11.5,25.5 C 11.1667,25.5 10.8333,25.5 10.5,25.5C 9.5,25.5 8.5,25.5 7.5,25.5C 7.61998,24.4138 8.28665,23.7472 9.5,23.5C 10.7133,23.7472 11.38,24.4138 11.5,25.5 Z"/></g>
<g><path style="opacity:1" fill="#3a372e" d="M 28.5,30.5 C 23.7635,28.8117 19.0969,27.145 14.5,25.5C 14.369,24.7611 14.5357,24.0944 15,23.5C 19.2428,25.6878 23.7428,27.1878 28.5,28C 29.5981,28.7697 29.5981,29.603 28.5,30.5 Z"/></g>
<g><path style="opacity:1" fill="#ddd6c2" d="M 10.5,25.5 C 10.8333,25.5 11.1667,25.5 11.5,25.5C 12.5,25.5 13.5,25.5 14.5,25.5C 19.0969,27.145 23.7635,28.8117 28.5,30.5C 28.5,30.8333 28.5,31.1667 28.5,31.5C 28.719,32.675 28.3857,33.675 27.5,34.5C 26.7189,33.2713 26.2189,31.938 26,30.5C 24.6228,34.2649 23.6228,33.9316 23,29.5C 22,33.5 21,33.5 20,29.5C 19.6924,30.3081 19.1924,30.9747 18.5,31.5C 17.6667,30.5 16.8333,29.5 16,28.5C 14.3498,28.9319 12.8498,30.2652 11.5,32.5C 10.5258,30.2573 10.1924,27.924 10.5,25.5 Z"/></g>
<g><path style="opacity:1" fill="#d7cfb7" d="M 29.5,31.5 C 30.8333,31.5 32.1667,31.5 33.5,31.5C 33.4326,32.9587 33.7659,34.2921 34.5,35.5C 33.0689,35.1193 32.2355,34.1193 32,32.5C 30.4842,35.0515 29.6509,34.7181 29.5,31.5 Z"/></g>
<g><path style="opacity:1" fill="#474237" d="M 7.5,25.5 C 7.46056,26.5832 7.12723,27.5832 6.5,28.5C 7.16667,29.5 7.83333,30.5 8.5,31.5C 8.15431,32.6956 7.65431,32.6956 7,31.5C 6.65402,33.2182 6.15402,34.8849 5.5,36.5C 6.32025,38.1112 7.65358,38.7778 9.5,38.5C 8.39907,39.5983 7.06574,39.765 5.5,39C 4.94149,38.2753 4.60816,37.4419 4.5,36.5C 5.1633,33.1942 5.6633,29.8608 6,26.5C 6.38258,25.944 6.88258,25.6107 7.5,25.5 Z"/></g>
<g><path style="opacity:1" fill="#605c4f" d="M 37.5,32.5 C 35.7748,32.8425 35.2748,33.8425 36,35.5C 37.1597,33.203 38.1597,33.5363 39,36.5C 39.5791,35.0715 39.4124,33.7382 38.5,32.5C 39.7382,31.5876 41.0715,31.4209 42.5,32C 40.4049,32.5556 40.2382,33.0556 42,33.5C 43,33.1667 44,32.8333 45,32.5C 53.1642,34.6663 61.3308,36.833 69.5,39C 70.056,39.3826 70.3893,39.8826 70.5,40.5C 60.6838,37.5456 50.6838,35.5456 40.5,34.5C 40.5,35.5 40.5,36.5 40.5,37.5C 38.2143,37.405 36.2143,36.7384 34.5,35.5C 33.7659,34.2921 33.4326,32.9587 33.5,31.5C 32.1667,31.5 30.8333,31.5 29.5,31.5C 29.1667,31.5 28.8333,31.5 28.5,31.5C 28.5,31.1667 28.5,30.8333 28.5,30.5C 31.878,29.1379 35.2113,29.3046 38.5,31C 37.944,31.3826 37.6107,31.8826 37.5,32.5 Z"/></g>
<g><path style="opacity:1" fill="#e1ddc6" d="M 37.5,32.5 C 37.8333,32.5 38.1667,32.5 38.5,32.5C 39.4124,33.7382 39.5791,35.0715 39,36.5C 38.1597,33.5363 37.1597,33.203 36,35.5C 35.2748,33.8425 35.7748,32.8425 37.5,32.5 Z"/></g>
<g><path style="opacity:1" fill="#1c1b18" d="M 7.5,25.5 C 8.5,25.5 9.5,25.5 10.5,25.5C 10.1924,27.924 10.5258,30.2573 11.5,32.5C 12.8498,30.2652 14.3498,28.9319 16,28.5C 16.8333,29.5 17.6667,30.5 18.5,31.5C 19.1924,30.9747 19.6924,30.3081 20,29.5C 21,33.5 22,33.5 23,29.5C 23.6228,33.9316 24.6228,34.2649 26,30.5C 26.2189,31.938 26.7189,33.2713 27.5,34.5C 28.3857,33.675 28.719,32.675 28.5,31.5C 28.8333,31.5 29.1667,31.5 29.5,31.5C 29.6509,34.7181 30.4842,35.0515 32,32.5C 32.2355,34.1193 33.0689,35.1193 34.5,35.5C 36.2143,36.7384 38.2143,37.405 40.5,37.5C 41.5,37.5 42.5,37.5 43.5,37.5C 42.8622,40.8559 44.1956,42.8559 47.5,43.5C 47.4349,46.4282 46.7682,49.0948 45.5,51.5C 45.5594,49.2355 44.7261,48.9022 43,50.5C 39.7988,48.4901 36.2988,47.3234 32.5,47C 33.5,46.6667 34.5,46.3333 35.5,46C 32.5248,45.9565 29.5248,46.1231 26.5,46.5C 26.5,45.5 26.5,44.5 26.5,43.5C 22.4444,43.2225 18.4444,42.5558 14.5,41.5C 13.3527,41.8178 12.5194,42.4844 12,43.5C 11.3946,41.5188 10.3946,41.1854 9,42.5C 9.15185,40.9239 9.98519,39.5905 11.5,38.5C 11.0302,37.537 10.3635,37.537 9.5,38.5C 7.65358,38.7778 6.32025,38.1112 5.5,36.5C 6.15402,34.8849 6.65402,33.2182 7,31.5C 7.65431,32.6956 8.15431,32.6956 8.5,31.5C 7.83333,30.5 7.16667,29.5 6.5,28.5C 7.12723,27.5832 7.46056,26.5832 7.5,25.5 Z"/></g>
<g><path style="opacity:1" fill="#c2b9a2" d="M 70.5,40.5 C 72.0618,40.7329 73.3951,41.3995 74.5,42.5C 74.0296,43.6935 73.0296,44.3601 71.5,44.5C 66.3702,43.6343 61.3702,42.301 56.5,40.5C 55.2258,41.3594 55.3925,42.0261 57,42.5C 61.7952,43.7409 66.6285,44.7409 71.5,45.5C 71.8333,46.1667 72.1667,46.8333 72.5,47.5C 72.762,48.9778 72.4287,50.3112 71.5,51.5C 66.5633,50.1773 61.5633,49.1773 56.5,48.5C 55.5,48.5 54.5,48.5 53.5,48.5C 54.2625,47.7321 55.2625,47.2321 56.5,47C 55.552,46.5172 54.552,46.3505 53.5,46.5C 52.7436,42.8208 50.7436,41.8208 47.5,43.5C 44.1956,42.8559 42.8622,40.8559 43.5,37.5C 42.5,37.5 41.5,37.5 40.5,37.5C 40.5,36.5 40.5,35.5 40.5,34.5C 50.6838,35.5456 60.6838,37.5456 70.5,40.5 Z"/></g>
<g><path style="opacity:1" fill="#d9d2bd" d="M 53.5,48.5 C 52.9196,52.1419 52.4196,55.8086 52,59.5C 50.0281,57.7682 47.8614,56.4348 45.5,55.5C 45.0825,54.7784 44.4158,54.2784 43.5,54C 44.056,53.6174 44.3893,53.1174 44.5,52.5C 45.1667,52.5 45.5,52.1667 45.5,51.5C 46.7682,49.0948 47.4349,46.4282 47.5,43.5C 50.7436,41.8208 52.7436,42.8208 53.5,46.5C 54.552,46.3505 55.552,46.5172 56.5,47C 55.2625,47.2321 54.2625,47.7321 53.5,48.5 Z"/></g>
<g><path style="opacity:1" fill="#1c1c1d" d="M 72.5,47.5 C 73.3019,48.9516 73.8019,50.6183 74,52.5C 74.3333,51.1667 74.6667,49.8333 75,48.5C 75.8201,50.728 75.4868,52.728 74,54.5C 73.3333,53.8333 72.6667,53.1667 72,52.5C 70.5993,54.1922 68.7659,54.8588 66.5,54.5C 66.6427,56.2624 66.3094,57.9291 65.5,59.5C 68.7356,64.4373 69.7356,69.7707 68.5,75.5C 66.6687,76.9294 64.6687,77.4294 62.5,77C 65.9462,75.1036 66.2795,72.7703 63.5,70C 65.0911,66.7249 64.7577,63.7249 62.5,61C 63.6379,59.2657 64.1379,57.4324 64,55.5C 63.0656,56.8584 62.2323,58.1917 61.5,59.5C 61.1667,59.5 60.8333,59.5 60.5,59.5C 63.2317,53.9454 61.3983,51.9454 55,53.5C 54.3333,52.1667 54.3333,50.8333 55,49.5C 56.1068,50.7119 56.6068,50.3786 56.5,48.5C 61.5633,49.1773 66.5633,50.1773 71.5,51.5C 72.4287,50.3112 72.762,48.9778 72.5,47.5 Z"/></g>
<g><path style="opacity:1" fill="#22201c" d="M 74.5,42.5 C 76.9118,42.6941 77.9118,44.0274 77.5,46.5C 81.9304,47.024 86.2638,48.024 90.5,49.5C 91.1667,49.3333 91.8333,49.1667 92.5,49C 90.5,48.3333 88.5,47.6667 86.5,47C 88.8991,46.289 91.2324,46.4557 93.5,47.5C 94.4763,50.497 94.3097,53.497 93,56.5C 92.3333,55.1667 91.6667,55.1667 91,56.5C 91.0187,54.8925 91.1854,53.2259 91.5,51.5C 86.7887,50.9897 82.122,50.1564 77.5,49C 77.8333,48.6667 78.1667,48.3333 78.5,48C 75.9398,47.6162 73.6064,46.7829 71.5,45.5C 66.6285,44.7409 61.7952,43.7409 57,42.5C 55.3925,42.0261 55.2258,41.3594 56.5,40.5C 61.3702,42.301 66.3702,43.6343 71.5,44.5C 73.0296,44.3601 74.0296,43.6935 74.5,42.5 Z"/></g>
<g><path style="opacity:1" fill="#bfbaae" d="M 60.5,59.5 C 60.8333,59.5 61.1667,59.5 61.5,59.5C 60.9976,61.0847 59.9976,61.5847 58.5,61C 59.0442,60.2828 59.7109,59.7828 60.5,59.5 Z"/></g>
<g><path style="opacity:1" fill="#2e2822" d="M 44.5,52.5 C 44.3893,53.1174 44.056,53.6174 43.5,54C 44.4158,54.2784 45.0825,54.7784 45.5,55.5C 46.0447,57.5932 46.878,59.5932 48,61.5C 48.9297,59.0341 49.763,59.2007 50.5,62C 49.5887,65.1451 48.7554,68.3117 48,71.5C 47.4444,69.4049 46.9444,69.2382 46.5,71C 48.0831,73.5063 47.4164,75.173 44.5,76C 46.9659,76.9297 46.7993,77.763 44,78.5C 42.2785,78.3893 42.1118,77.8893 43.5,77C 41.1053,76.3187 38.772,75.4853 36.5,74.5C 38.7734,69.7415 40.2734,64.7415 41,59.5C 41.5,57.6667 42.6667,56.5 44.5,56C 39.8364,55.6272 39.3364,54.1272 43,51.5C 43.7648,51.5699 44.2648,51.9033 44.5,52.5 Z"/></g>
</svg>
