<?xml version="1.0" encoding="UTF-8"?>
<!DOCTYPE svg PUBLIC "-//W3C//DTD SVG 1.1//EN" "http://www.w3.org/Graphics/SVG/1.1/DTD/svg11.dtd">
<svg xmlns="http://www.w3.org/2000/svg" version="1.1" width="100px" height="100px" style="shape-rendering:geometricPrecision; text-rendering:geometricPrecision; image-rendering:optimizeQuality; fill-rule:evenodd; clip-rule:evenodd" xmlns:xlink="http://www.w3.org/1999/xlink">
<g><path style="opacity:0.132" fill="#010101" d="M 99.5,3.5 C 99.5,17.1667 99.5,30.8333 99.5,44.5C 87.6439,46.5474 75.9772,49.3807 64.5,53C 60.9401,57.563 57.7734,62.3963 55,67.5C 52.2223,70.1376 49.0556,72.1376 45.5,73.5C 44.0055,79.7447 42.8388,86.0781 42,92.5C 40.786,94.0488 39.286,95.2155 37.5,96C 34.02,97.1026 30.6867,98.2692 27.5,99.5C 19.1667,99.5 10.8333,99.5 2.5,99.5C 1.70951,98.5987 0.709515,97.9321 -0.5,97.5C -0.5,74.1667 -0.5,50.8333 -0.5,27.5C 4.27542,25.2297 8.94208,22.7297 13.5,20C 36.0162,16.2045 58.0162,10.5379 79.5,3C 86.2166,2.24432 92.8833,2.41099 99.5,3.5 Z"/></g>
<g><path style="opacity:1" fill="#b0b4ae" d="M 86.5,18.5 C 87.5676,17.5655 88.901,17.2322 90.5,17.5C 90.6495,18.552 90.4828,19.552 90,20.5C 89.1841,19.1772 88.0174,18.5106 86.5,18.5 Z"/></g>
<g><path style="opacity:1" fill="#656763" d="M 76.5,20.5 C 74.0949,23.5167 71.0949,24.1833 67.5,22.5C 70.5552,23.0005 73.5552,22.3338 76.5,20.5 Z"/></g>
<g><path style="opacity:1" fill="#656b68" d="M 90.5,17.5 C 88.901,17.2322 87.5676,17.5655 86.5,18.5C 84.5854,20.7054 82.5854,22.8721 80.5,25C 67.4288,28.018 54.4288,31.1847 41.5,34.5C 41.5,33.8333 41.1667,33.5 40.5,33.5C 39.5514,32.8476 38.3847,32.5143 37,32.5C 33.1636,34.3281 29.3303,34.9947 25.5,34.5C 25.5,35.8333 25.5,37.1667 25.5,38.5C 23.4352,38.4828 21.4352,38.1495 19.5,37.5C 20.8083,36.7677 22.1416,35.9344 23.5,35C 21.9419,34.79 20.6085,34.29 19.5,33.5C 28.1575,31.8362 36.8242,30.1695 45.5,28.5C 50.4143,29.6288 55.0809,29.2954 59.5,27.5C 60.4419,27.6082 61.2753,27.9415 62,28.5C 63.0793,26.6063 64.4126,26.273 66,27.5C 66.7172,26.9558 67.2172,26.2891 67.5,25.5C 72.4637,24.3426 77.4637,23.3426 82.5,22.5C 82.7148,20.8212 82.0481,19.8212 80.5,19.5C 83.2284,15.1585 86.5618,14.4918 90.5,17.5 Z"/></g>
<g><path style="opacity:0.863" fill="#444643" d="M 66.5,22.5 C 66.4431,23.609 66.1098,24.609 65.5,25.5C 64.1667,25.5 63.5,24.8333 63.5,23.5C 64.209,22.596 65.209,22.2627 66.5,22.5 Z"/></g>
<g><path style="opacity:1" fill="#b5bab3" d="M 80.5,19.5 C 82.0481,19.8212 82.7148,20.8212 82.5,22.5C 77.4637,23.3426 72.4637,24.3426 67.5,25.5C 66.8333,25.5 66.1667,25.5 65.5,25.5C 66.1098,24.609 66.4431,23.609 66.5,22.5C 66.8333,22.5 67.1667,22.5 67.5,22.5C 71.0949,24.1833 74.0949,23.5167 76.5,20.5C 77.8333,20.1667 79.1667,19.8333 80.5,19.5 Z"/></g>
<g><path style="opacity:1" fill="#8f948d" d="M 63.5,23.5 C 63.5,24.8333 64.1667,25.5 65.5,25.5C 66.1667,25.5 66.8333,25.5 67.5,25.5C 67.2172,26.2891 66.7172,26.9558 66,27.5C 64.4126,26.273 63.0793,26.6063 62,28.5C 61.2753,27.9415 60.4419,27.6082 59.5,27.5C 55.0809,29.2954 50.4143,29.6288 45.5,28.5C 49.0858,26.7558 52.5858,25.4225 56,24.5C 57.9068,24.4205 59.9068,24.7539 62,25.5C 62.2784,24.5842 62.7784,23.9175 63.5,23.5 Z"/></g>
<g><path style="opacity:0.992" fill="#404443" d="M 90.5,17.5 C 92.8936,21.1713 92.8936,25.0046 90.5,29C 76.1862,32.3842 61.8529,35.5508 47.5,38.5C 47.5,40.5 47.5,42.5 47.5,44.5C 46.7611,44.631 46.0944,44.4643 45.5,44C 46.731,42.8173 46.731,41.6507 45.5,40.5C 44.8182,41.2427 44.1515,41.9094 43.5,42.5C 43.5,42.1667 43.5,41.8333 43.5,41.5C 43.0831,40.8761 42.4164,40.5427 41.5,40.5C 35.8555,41.9947 30.1888,43.328 24.5,44.5C 24.5792,43.0695 24.2458,41.7362 23.5,40.5C 22.7261,39.2888 21.8928,39.2888 21,40.5C 20.4867,39.4734 19.9867,38.4734 19.5,37.5C 21.4352,38.1495 23.4352,38.4828 25.5,38.5C 25.5,37.1667 25.5,35.8333 25.5,34.5C 29.3303,34.9947 33.1636,34.3281 37,32.5C 38.3847,32.5143 39.5514,32.8476 40.5,33.5C 35.7129,34.4564 31.0462,35.7897 26.5,37.5C 26.6236,38.1067 26.9569,38.44 27.5,38.5C 26.9094,39.1515 26.2427,39.8182 25.5,40.5C 32.9426,41.48 39.9426,39.98 46.5,36C 43.5254,35.2873 41.0254,36.1207 39,38.5C 37.1568,38.5606 35.3234,38.2273 33.5,37.5C 36.3542,36.7949 39.0209,35.7949 41.5,34.5C 54.4288,31.1847 67.4288,28.018 80.5,25C 82.5854,22.8721 84.5854,20.7054 86.5,18.5C 88.0174,18.5106 89.1841,19.1772 90,20.5C 90.4828,19.552 90.6495,18.552 90.5,17.5 Z"/></g>
<g><path style="opacity:1" fill="#b1b4af" d="M 40.5,33.5 C 41.1667,33.5 41.5,33.8333 41.5,34.5C 39.0209,35.7949 36.3542,36.7949 33.5,37.5C 31.5,37.8333 29.5,38.1667 27.5,38.5C 26.9569,38.44 26.6236,38.1067 26.5,37.5C 31.0462,35.7897 35.7129,34.4564 40.5,33.5 Z"/></g>
<g><path style="opacity:1" fill="#656a67" d="M 27.5,38.5 C 29.5,38.1667 31.5,37.8333 33.5,37.5C 35.3234,38.2273 37.1568,38.5606 39,38.5C 41.0254,36.1207 43.5254,35.2873 46.5,36C 39.9426,39.98 32.9426,41.48 25.5,40.5C 26.2427,39.8182 26.9094,39.1515 27.5,38.5 Z"/></g>
<g><path style="opacity:1" fill="#565d5d" d="M 19.5,33.5 C 20.6085,34.29 21.9419,34.79 23.5,35C 22.1416,35.9344 20.8083,36.7677 19.5,37.5C 19.9867,38.4734 20.4867,39.4734 21,40.5C 21.8928,39.2888 22.7261,39.2888 23.5,40.5C 24.2458,41.7362 24.5792,43.0695 24.5,44.5C 30.1888,43.328 35.8555,41.9947 41.5,40.5C 42.4164,40.5427 43.0831,40.8761 43.5,41.5C 38.3909,42.5287 33.3909,44.0287 28.5,46C 31.833,46.1141 35.1663,45.7808 38.5,45C 40.6526,44.9005 42.3192,44.0672 43.5,42.5C 44.1515,41.9094 44.8182,41.2427 45.5,40.5C 46.731,41.6507 46.731,42.8173 45.5,44C 46.0944,44.4643 46.7611,44.631 47.5,44.5C 47.2089,45.6491 46.3756,46.3158 45,46.5C 40.2567,47.0009 35.7567,48.0009 31.5,49.5C 26.9161,50.0544 22.2494,49.8877 17.5,49C 16.3989,46.5279 15.3989,44.0279 14.5,41.5C 15.0431,41.44 15.3764,41.1067 15.5,40.5C 13.608,38.8538 11.608,38.5205 9.5,39.5C 8.31312,38.1756 8.64645,37.1756 10.5,36.5C 12.1667,37.1667 13.8333,37.8333 15.5,38.5C 16.7952,36.6721 17.7952,34.6721 18.5,32.5C 19.1067,32.6236 19.44,32.9569 19.5,33.5 Z"/></g>
<g><path style="opacity:1" fill="#121413" d="M 43.5,41.5 C 43.5,41.8333 43.5,42.1667 43.5,42.5C 42.3192,44.0672 40.6526,44.9005 38.5,45C 35.1663,45.7808 31.833,46.1141 28.5,46C 33.3909,44.0287 38.3909,42.5287 43.5,41.5 Z"/></g>
<g><path style="opacity:1" fill="#434644" d="M 14.5,41.5 C 15.3989,44.0279 16.3989,46.5279 17.5,49C 22.2494,49.8877 26.9161,50.0544 31.5,49.5C 32.023,51.7079 33.3563,53.2079 35.5,54C 32.939,53.2444 30.2723,52.4111 27.5,51.5C 27.5,52.8333 27.5,54.1667 27.5,55.5C 25.5,55.5 23.5,55.5 21.5,55.5C 21.5,54.5 21.5,53.5 21.5,52.5C 22.675,52.719 23.675,52.3857 24.5,51.5C 23.8333,51.1667 23.1667,50.8333 22.5,50.5C 20.8653,51.0463 19.1986,51.3796 17.5,51.5C 17.1051,55.3025 16.1051,55.4691 14.5,52C 14.9054,51.0546 15.572,50.3879 16.5,50C 13.9607,48.195 12.9607,45.695 13.5,42.5C 13.5,41.8333 13.8333,41.5 14.5,41.5 Z"/></g>
<g><path style="opacity:1" fill="#252726" d="M 13.5,42.5 C 12.9607,45.695 13.9607,48.195 16.5,50C 15.572,50.3879 14.9054,51.0546 14.5,52C 16.1051,55.4691 17.1051,55.3025 17.5,51.5C 19.1986,51.3796 20.8653,51.0463 22.5,50.5C 23.1667,50.8333 23.8333,51.1667 24.5,51.5C 23.675,52.3857 22.675,52.719 21.5,52.5C 21.5,53.5 21.5,54.5 21.5,55.5C 23.5,55.5 25.5,55.5 27.5,55.5C 28.0674,56.4202 27.4008,56.7535 25.5,56.5C 25.162,59.1569 25.8287,61.4902 27.5,63.5C 27.2345,69.3905 26.9012,75.3905 26.5,81.5C 21.2631,82.8684 15.9297,83.8684 10.5,84.5C 10.8254,76.6484 10.492,68.9818 9.5,61.5C 10.0049,58.4788 10.6716,55.4788 11.5,52.5C 10.5601,49.8684 10.3934,47.2017 11,44.5C 11.7083,43.6195 12.5416,42.9528 13.5,42.5 Z"/></g>
<g><path style="opacity:0.997" fill="#4d595d" d="M 9.5,61.5 C 10.492,68.9818 10.8254,76.6484 10.5,84.5C 9.18363,81.9134 8.51697,78.9134 8.5,75.5C 8.68611,70.8141 9.01945,66.1475 9.5,61.5 Z"/></g>
</svg>
