<?xml version="1.0" encoding="UTF-8"?>
<!DOCTYPE svg PUBLIC "-//W3C//DTD SVG 1.1//EN" "http://www.w3.org/Graphics/SVG/1.1/DTD/svg11.dtd">
<svg xmlns="http://www.w3.org/2000/svg" version="1.1" width="380px" height="112px" style="shape-rendering:geometricPrecision; text-rendering:geometricPrecision; image-rendering:optimizeQuality; fill-rule:evenodd; clip-rule:evenodd" xmlns:xlink="http://www.w3.org/1999/xlink">
<g><path style="opacity:0.63" fill="#0b0b0b" d="M 319.5,-0.5 C 322.5,-0.5 325.5,-0.5 328.5,-0.5C 328.783,0.28913 329.283,0.955796 330,1.5C 330.333,7.5 330.667,13.5 331,19.5C 346.436,18.1767 361.936,18.1767 377.5,19.5C 377.994,21.0255 378.661,22.3588 379.5,23.5C 379.5,26.5 379.5,29.5 379.5,32.5C 378.317,33.5045 376.984,34.3378 375.5,35C 364.172,35.4999 352.838,35.6665 341.5,35.5C 341.666,40.1785 341.499,44.8452 341,49.5C 340.25,50.1258 339.416,50.6258 338.5,51C 325.833,51.3333 313.167,51.6667 300.5,52C 299.944,52.3826 299.611,52.8826 299.5,53.5C 297.833,52.1667 296.167,52.1667 294.5,53.5C 268.997,52.1709 243.33,52.1709 217.5,53.5C 242.825,54.4998 268.158,54.8331 293.5,54.5C 267.672,55.4978 241.672,55.8311 215.5,55.5C 215.5,54.5 215.5,53.5 215.5,52.5C 214.167,52.5 212.833,52.5 211.5,52.5C 211.216,50.5853 211.549,48.9187 212.5,47.5C 226.013,48.7981 239.68,49.4647 253.5,49.5C 266.5,49.1667 279.5,48.8333 292.5,48.5C 293.75,45.193 294.416,41.693 294.5,38C 294.485,34.4242 293.818,31.2575 292.5,28.5C 279.851,27.1675 266.851,26.5008 253.5,26.5C 240.329,26.5001 227.329,26.8334 214.5,27.5C 213.167,27.5 211.833,27.5 210.5,27.5C 210.833,26.8333 211.167,26.1667 211.5,25.5C 212.609,24.71 213.942,24.21 215.5,24C 197,23.8333 178.5,23.6667 160,23.5C 141.154,23.5004 122.654,24.1671 104.5,25.5C 138.484,27.4932 172.817,28.1599 207.5,27.5C 207.5,28.1667 207.5,28.8333 207.5,29.5C 172.817,28.8401 138.484,29.5068 104.5,31.5C 104.67,32.8221 104.337,33.9887 103.5,35C 101.19,35.4966 98.8568,35.6633 96.5,35.5C 96.5,40.1667 96.5,44.8333 96.5,49.5C 95.6745,45.0181 95.1745,40.3514 95,35.5C 94.79,37.0581 94.29,38.3915 93.5,39.5C 93.5,38.8333 93.5,38.1667 93.5,37.5C 92.4086,34.5722 90.4086,32.4055 87.5,31C 79.5069,30.5003 71.5069,30.3336 63.5,30.5C 63.5,29.8333 63.5,29.1667 63.5,28.5C 71.5069,28.3336 79.5069,28.5003 87.5,29C 89.4552,29.9533 91.1218,31.2866 92.5,33C 95.8168,33.4983 99.1501,33.665 102.5,33.5C 102.5,28.1667 102.5,22.8333 102.5,17.5C 102.53,16.5028 102.03,15.8361 101,15.5C 97.7728,16.8635 94.6061,18.3635 91.5,20C 72.8363,20.4999 54.1696,20.6666 35.5,20.5C 35.5,18.8333 35.5,17.1667 35.5,15.5C 54.1696,15.6666 72.8363,15.4999 91.5,15C 93.1161,14.3848 94.4495,13.3848 95.5,12C 106.167,11.6667 116.833,11.3333 127.5,11C 128.257,9.48779 129.257,8.15445 130.5,7C 153.53,6.19762 176.53,6.36428 199.5,7.5C 199.5,8.83333 199.5,10.1667 199.5,11.5C 203.85,11.2541 207.85,12.2541 211.5,14.5C 213.29,13.2137 214.957,11.7137 216.5,10C 242.833,9.33333 269.167,9.33333 295.5,10C 297.562,11.5325 298.896,13.5325 299.5,16C 306.72,20.4115 312.553,19.2449 317,12.5C 316.969,7.87658 317.802,3.54324 319.5,-0.5 Z"/></g>
<g><path style="opacity:1" fill="#e4e5e4" d="M 322.5,4.5 C 324.483,4.15684 325.817,4.82351 326.5,6.5C 324.517,6.84316 323.183,6.17649 322.5,4.5 Z"/></g>
<g><path style="opacity:0.685" fill="#080808" d="M 35.5,15.5 C 35.5,17.1667 35.5,18.8333 35.5,20.5C 35.3284,21.4916 35.6618,22.1583 36.5,22.5C 36.5,24.5 36.5,26.5 36.5,28.5C 45.5,28.5 54.5,28.5 63.5,28.5C 63.5,29.1667 63.5,29.8333 63.5,30.5C 62.1667,30.5 61.5,31.1667 61.5,32.5C 61.5,35.1667 61.5,37.8333 61.5,40.5C 72.3464,40.8278 83.0131,40.4944 93.5,39.5C 94.29,38.3915 94.79,37.0581 95,35.5C 95.1745,40.3514 95.6745,45.0181 96.5,49.5C 98.1852,51.8176 100.519,52.8176 103.5,52.5C 103.5,50.5 103.5,48.5 103.5,46.5C 121.833,46.5 140.167,46.5 158.5,46.5C 158.5,44.8333 158.5,43.1667 158.5,41.5C 161.5,41.5 164.5,41.5 167.5,41.5C 167.5,38.5 167.5,35.5 167.5,32.5C 178.167,32.5 188.833,32.5 199.5,32.5C 199.789,36.1064 199.456,39.6064 198.5,43C 190.507,43.4997 182.507,43.6664 174.5,43.5C 174.5,44.5 174.5,45.5 174.5,46.5C 186.5,46.5 198.5,46.5 210.5,46.5C 210.5,41.5 210.5,36.5 210.5,31.5C 210.179,29.9519 209.179,29.2852 207.5,29.5C 207.5,28.8333 207.5,28.1667 207.5,27.5C 208.5,27.5 209.5,27.5 210.5,27.5C 211.833,27.5 213.167,27.5 214.5,27.5C 214.5,27.8333 214.5,28.1667 214.5,28.5C 212.544,34.412 211.877,40.7453 212.5,47.5C 211.549,48.9187 211.216,50.5853 211.5,52.5C 212.833,52.5 214.167,52.5 215.5,52.5C 215.5,53.5 215.5,54.5 215.5,55.5C 241.672,55.8311 267.672,55.4978 293.5,54.5C 294.167,54.5 294.5,54.1667 294.5,53.5C 296.167,52.1667 297.833,52.1667 299.5,53.5C 299.5,55.5 299.5,57.5 299.5,59.5C 271.492,59.8331 243.492,59.4998 215.5,58.5C 213.344,56.5096 211.344,54.3429 209.5,52C 206.854,51.5026 204.187,51.3359 201.5,51.5C 201.667,70.1696 201.5,88.8363 201,107.5C 200.338,108.984 199.504,110.317 198.5,111.5C 186.833,111.5 175.167,111.5 163.5,111.5C 162.564,99.8711 162.23,88.2044 162.5,76.5C 155.415,76.5897 148.415,76.4231 141.5,76C 138.459,83.6207 135.126,91.1207 131.5,98.5C 130.312,99.84 128.812,100.507 127,100.5C 120.056,98.7217 113.223,96.555 106.5,94C 105.282,92.5618 104.615,90.8951 104.5,89C 108.071,81.7607 112.071,74.7607 116.5,68C 115.62,66.6439 115.286,65.1439 115.5,63.5C 116.5,63.5 117.5,63.5 118.5,63.5C 118.5,62.5 118.5,61.5 118.5,60.5C 114.923,59.2139 111.256,58.2139 107.5,57.5C 104.802,58.1914 102.135,58.8581 99.5,59.5C 99.3385,57.1756 98.1718,55.5089 96,54.5C 85,55.8333 74,55.8333 63,54.5C 62.6258,55.4162 62.1258,56.2496 61.5,57C 57.8333,57.3333 54.1667,57.6667 50.5,58C 39.6268,64.536 30.2935,72.8694 22.5,83C 23.3802,84.3561 23.7135,85.8561 23.5,87.5C 17.7876,86.2914 12.121,84.9581 6.5,83.5C 3.9836,73.0096 2.65027,62.343 2.5,51.5C 1.5,51.5 0.5,51.5 -0.5,51.5C -0.5,50.1667 -0.5,48.8333 -0.5,47.5C 0.725071,46.8478 1.39174,45.6811 1.5,44C 1.05575,39.322 0.389086,34.822 -0.5,30.5C -0.5,28.1667 -0.5,25.8333 -0.5,23.5C 1.36222,21.1089 2.69555,18.4422 3.5,15.5C 7.47834,16.0344 10.4783,14.5344 12.5,11C 18.5,10.3333 24.5,10.3333 30.5,11C 32.0375,12.7073 33.7041,14.2073 35.5,15.5 Z M 156.5,59.5 C 157.5,59.5 158.5,59.5 159.5,59.5C 159.386,65.764 158.386,65.764 156.5,59.5 Z"/></g>
<g><path style="opacity:1" fill="#f8f8f8" d="M 195.5,12.5 C 174.327,12.8306 153.327,12.4973 132.5,11.5C 153.094,10.346 173.76,10.1793 194.5,11C 195.056,11.3826 195.389,11.8826 195.5,12.5 Z"/></g>
<g><path style="opacity:1" fill="#656565" d="M 132.5,11.5 C 153.327,12.4973 174.327,12.8306 195.5,12.5C 174.33,13.8283 152.996,13.8283 131.5,12.5C 131.624,11.8933 131.957,11.56 132.5,11.5 Z"/></g>
<g><path style="opacity:1" fill="#f5f2f5" d="M 294.5,15.5 C 291.5,15.5 288.5,15.5 285.5,15.5C 284.833,15.5 284.167,15.5 283.5,15.5C 280.833,15.5 278.167,15.5 275.5,15.5C 274.833,15.5 274.167,15.5 273.5,15.5C 261.5,15.5 249.5,15.5 237.5,15.5C 236.833,15.5 236.167,15.5 235.5,15.5C 232.833,15.5 230.167,15.5 227.5,15.5C 226.833,15.5 226.167,15.5 225.5,15.5C 222.833,15.5 220.167,15.5 217.5,15.5C 217.611,14.8826 217.944,14.3826 218.5,14C 243.5,13.3333 268.5,13.3333 293.5,14C 294.056,14.3826 294.389,14.8826 294.5,15.5 Z"/></g>
<g><path style="opacity:1" fill="#f2f3f2" d="M 33.5,21.5 C 31.1137,20.6267 29.1137,19.1267 27.5,17C 22.9805,16.8247 18.6472,16.3247 14.5,15.5C 18.9811,14.3516 23.6478,14.1849 28.5,15C 30.7899,16.7772 32.4566,18.9438 33.5,21.5 Z"/></g>
<g><path style="opacity:1" fill="#787a78" d="M 104.5,15.5 C 137.168,15.3334 169.835,15.5 202.5,16C 206.544,16.8558 210.211,18.5224 213.5,21C 177.168,21.5 140.835,21.6667 104.5,21.5C 104.5,19.5 104.5,17.5 104.5,15.5 Z"/></g>
<g><path style="opacity:1" fill="#797979" d="M 217.5,15.5 C 220.167,15.5 222.833,15.5 225.5,15.5C 225.279,16.7348 224.612,17.7348 223.5,18.5C 224.5,19.5 225.5,20.5 226.5,21.5C 227.5,20.5 228.5,19.5 229.5,18.5C 228.388,17.7348 227.721,16.7348 227.5,15.5C 230.167,15.5 232.833,15.5 235.5,15.5C 235.279,16.7348 234.612,17.7348 233.5,18.5C 234.5,19.5 235.5,20.5 236.5,21.5C 237.5,20.5 238.5,19.5 239.5,18.5C 238.388,17.7348 237.721,16.7348 237.5,15.5C 249.5,15.5 261.5,15.5 273.5,15.5C 273.279,16.7348 272.612,17.7348 271.5,18.5C 272.5,19.5 273.5,20.5 274.5,21.5C 275.5,20.5 276.5,19.5 277.5,18.5C 276.388,17.7348 275.721,16.7348 275.5,15.5C 278.167,15.5 280.833,15.5 283.5,15.5C 283.279,16.7348 282.612,17.7348 281.5,18.5C 282.5,19.5 283.5,20.5 284.5,21.5C 285.5,20.5 286.5,19.5 287.5,18.5C 286.388,17.7348 285.721,16.7348 285.5,15.5C 288.5,15.5 291.5,15.5 294.5,15.5C 294.5,18.5 294.5,21.5 294.5,24.5C 268.833,24.5 243.167,24.5 217.5,24.5C 217.5,21.5 217.5,18.5 217.5,15.5 Z"/></g>
<g><path style="opacity:1" fill="#131413" d="M 283.5,15.5 C 284.167,15.5 284.833,15.5 285.5,15.5C 285.721,16.7348 286.388,17.7348 287.5,18.5C 286.5,19.5 285.5,20.5 284.5,21.5C 283.5,20.5 282.5,19.5 281.5,18.5C 282.612,17.7348 283.279,16.7348 283.5,15.5 Z"/></g>
<g><path style="opacity:1" fill="#131413" d="M 273.5,15.5 C 274.167,15.5 274.833,15.5 275.5,15.5C 275.721,16.7348 276.388,17.7348 277.5,18.5C 276.5,19.5 275.5,20.5 274.5,21.5C 273.5,20.5 272.5,19.5 271.5,18.5C 272.612,17.7348 273.279,16.7348 273.5,15.5 Z"/></g>
<g><path style="opacity:1" fill="#131413" d="M 235.5,15.5 C 236.167,15.5 236.833,15.5 237.5,15.5C 237.721,16.7348 238.388,17.7348 239.5,18.5C 238.5,19.5 237.5,20.5 236.5,21.5C 235.5,20.5 234.5,19.5 233.5,18.5C 234.612,17.7348 235.279,16.7348 235.5,15.5 Z"/></g>
<g><path style="opacity:1" fill="#131413" d="M 225.5,15.5 C 226.167,15.5 226.833,15.5 227.5,15.5C 227.721,16.7348 228.388,17.7348 229.5,18.5C 228.5,19.5 227.5,20.5 226.5,21.5C 225.5,20.5 224.5,19.5 223.5,18.5C 224.612,17.7348 225.279,16.7348 225.5,15.5 Z"/></g>
<g><path style="opacity:1" fill="#7c7b7c" d="M 14.5,15.5 C 18.6472,16.3247 22.9805,16.8247 27.5,17C 29.1137,19.1267 31.1137,20.6267 33.5,21.5C 33.3367,23.8568 33.5034,26.1902 34,28.5C 34.7083,29.3805 35.5416,30.0472 36.5,30.5C 43.8793,32.0999 51.5459,33.4332 59.5,34.5C 59.8288,40.2055 59.4954,45.8722 58.5,51.5C 52.2875,52.3005 46.6209,54.4671 41.5,58C 33.1667,65 25.5,72.6667 18.5,81C 16.5273,81.4955 14.5273,81.6621 12.5,81.5C 10.6981,61.4562 8.86472,41.4562 7,21.5C 9.66327,19.6664 12.1633,17.6664 14.5,15.5 Z"/></g>
<g><path style="opacity:1" fill="#f5f6f5" d="M 102.5,17.5 C 99.0698,18.7138 95.7365,20.2138 92.5,22C 73.8363,22.4999 55.1696,22.6666 36.5,22.5C 35.6618,22.1583 35.3284,21.4916 35.5,20.5C 54.1696,20.6666 72.8363,20.4999 91.5,20C 94.6061,18.3635 97.7728,16.8635 101,15.5C 102.03,15.8361 102.53,16.5028 102.5,17.5 Z"/></g>
<g><path style="opacity:1" fill="#797979" d="M 322.5,4.5 C 323.183,6.17649 324.517,6.84316 326.5,6.5C 326.5,15.5 326.5,24.5 326.5,33.5C 322.833,33.5 319.167,33.5 315.5,33.5C 315.5,31.5 315.5,29.5 315.5,27.5C 311.988,28.0545 308.988,27.3878 306.5,25.5C 310.971,26.0894 314.971,25.4228 318.5,23.5C 320.552,17.3489 321.885,11.0155 322.5,4.5 Z"/></g>
<g><path style="opacity:1" fill="#edeeed" d="M 297.5,20.5 C 300.834,20.9805 303.167,22.6472 304.5,25.5C 301.166,25.0195 298.833,23.3528 297.5,20.5 Z"/></g>
<g><path style="opacity:1" fill="#7a7b7a" d="M 102.5,17.5 C 102.5,22.8333 102.5,28.1667 102.5,33.5C 99.1501,33.665 95.8168,33.4983 92.5,33C 91.1218,31.2866 89.4552,29.9533 87.5,29C 79.5069,28.5003 71.5069,28.3336 63.5,28.5C 54.5,28.5 45.5,28.5 36.5,28.5C 36.5,26.5 36.5,24.5 36.5,22.5C 55.1696,22.6666 73.8363,22.4999 92.5,22C 95.7365,20.2138 99.0698,18.7138 102.5,17.5 Z"/></g>
<g><path style="opacity:1" fill="#f6f2f6" d="M 211.5,25.5 C 175.833,25.5 140.167,25.5 104.5,25.5C 122.654,24.1671 141.154,23.5004 160,23.5C 178.5,23.6667 197,23.8333 215.5,24C 213.942,24.21 212.609,24.71 211.5,25.5 Z"/></g>
<g><path style="opacity:1" fill="#f3f1f3" d="M 318.5,23.5 C 314.971,25.4228 310.971,26.0894 306.5,25.5C 310.029,23.5772 314.029,22.9106 318.5,23.5 Z"/></g>
<g><path style="opacity:1" fill="#f6f3f6" d="M 353.5,25.5 C 345.167,25.5 336.833,25.5 328.5,25.5C 332.276,24.1752 336.443,23.5085 341,23.5C 345.557,23.5085 349.724,24.1752 353.5,25.5 Z"/></g>
<g><path style="opacity:1" fill="#f5f3f5" d="M 374.5,25.5 C 368.167,25.5 361.833,25.5 355.5,25.5C 358.258,24.1818 361.424,23.5152 365,23.5C 368.576,23.5152 371.742,24.1818 374.5,25.5 Z"/></g>
<g><path style="opacity:1" fill="#7a7c7a" d="M 104.5,25.5 C 140.167,25.5 175.833,25.5 211.5,25.5C 211.167,26.1667 210.833,26.8333 210.5,27.5C 209.5,27.5 208.5,27.5 207.5,27.5C 172.817,28.1599 138.484,27.4932 104.5,25.5 Z"/></g>
<g><path style="opacity:1" fill="#f7f4f7" d="M 292.5,28.5 C 290.833,28.5 289.167,28.5 287.5,28.5C 264.833,28.5 242.167,28.5 219.5,28.5C 217.833,28.5 216.167,28.5 214.5,28.5C 214.5,28.1667 214.5,27.8333 214.5,27.5C 227.329,26.8334 240.329,26.5001 253.5,26.5C 266.851,26.5008 279.851,27.1675 292.5,28.5 Z"/></g>
<g><path style="opacity:1" fill="#797a79" d="M 297.5,20.5 C 298.833,23.3528 301.166,25.0195 304.5,25.5C 304.5,32.5 304.5,39.5 304.5,46.5C 301.833,46.5 299.167,46.5 296.5,46.5C 296.174,37.6506 296.507,28.9839 297.5,20.5 Z"/></g>
<g><path style="opacity:1" fill="#7c7c7c" d="M 328.5,25.5 C 336.833,25.5 345.167,25.5 353.5,25.5C 352.699,27.0418 352.366,28.7085 352.5,30.5C 344.5,30.5 336.5,30.5 328.5,30.5C 328.5,28.8333 328.5,27.1667 328.5,25.5 Z"/></g>
<g><path style="opacity:1" fill="#7d7d7d" d="M 355.5,25.5 C 361.833,25.5 368.167,25.5 374.5,25.5C 374.5,27.1667 374.5,28.8333 374.5,30.5C 368.167,30.5 361.833,30.5 355.5,30.5C 355.5,28.8333 355.5,27.1667 355.5,25.5 Z"/></g>
<g><path style="opacity:1" fill="#f6f2f6" d="M 207.5,29.5 C 209.179,29.2852 210.179,29.9519 210.5,31.5C 175.167,31.5 139.833,31.5 104.5,31.5C 138.484,29.5068 172.817,28.8401 207.5,29.5 Z"/></g>
<g><path style="opacity:1" fill="#f6f7f6" d="M 36.5,30.5 C 43.5316,30.1697 50.5316,30.503 57.5,31.5C 58.6119,32.2652 59.2786,33.2652 59.5,34.5C 51.5459,33.4332 43.8793,32.0999 36.5,30.5 Z"/></g>
<g><path style="opacity:1" fill="#f1f2f1" d="M 63.5,30.5 C 71.5069,30.3336 79.5069,30.5003 87.5,31C 90.4086,32.4055 92.4086,34.5722 93.5,37.5C 91.0676,36.2498 88.7343,34.7498 86.5,33C 78.1733,32.5003 69.84,32.3336 61.5,32.5C 61.5,31.1667 62.1667,30.5 63.5,30.5 Z"/></g>
<g><path style="opacity:1" fill="#7b7c7b" d="M 104.5,31.5 C 139.833,31.5 175.167,31.5 210.5,31.5C 210.5,36.5 210.5,41.5 210.5,46.5C 198.5,46.5 186.5,46.5 174.5,46.5C 174.5,45.5 174.5,44.5 174.5,43.5C 182.507,43.6664 190.507,43.4997 198.5,43C 199.456,39.6064 199.789,36.1064 199.5,32.5C 188.833,32.5 178.167,32.5 167.5,32.5C 167.5,35.5 167.5,38.5 167.5,41.5C 164.5,41.5 161.5,41.5 158.5,41.5C 158.5,43.1667 158.5,44.8333 158.5,46.5C 140.167,46.5 121.833,46.5 103.5,46.5C 103.5,48.5 103.5,50.5 103.5,52.5C 100.519,52.8176 98.1852,51.8176 96.5,49.5C 96.5,44.8333 96.5,40.1667 96.5,35.5C 98.8568,35.6633 101.19,35.4966 103.5,35C 104.337,33.9887 104.67,32.8221 104.5,31.5 Z"/></g>
<g><path style="opacity:1" fill="#807f80" d="M 61.5,32.5 C 69.84,32.3336 78.1733,32.5003 86.5,33C 88.7343,34.7498 91.0676,36.2498 93.5,37.5C 93.5,38.1667 93.5,38.8333 93.5,39.5C 83.0131,40.4944 72.3464,40.8278 61.5,40.5C 61.5,37.8333 61.5,35.1667 61.5,32.5 Z"/></g>
<g><path style="opacity:1" fill="#3b3a3b" d="M 169.5,34.5 C 178.833,34.5 188.167,34.5 197.5,34.5C 197.5,36.8333 197.5,39.1667 197.5,41.5C 188.167,41.5 178.833,41.5 169.5,41.5C 169.5,39.1667 169.5,36.8333 169.5,34.5 Z"/></g>
<g><path style="opacity:1" fill="#f6f2f6" d="M 336.5,35.5 C 326.889,37.4743 316.889,38.141 306.5,37.5C 316.111,35.5257 326.111,34.859 336.5,35.5 Z"/></g>
<g><path style="opacity:1" fill="#131413" d="M 105.5,37.5 C 110.02,38.9753 110.354,40.9753 106.5,43.5C 105.5,42.5 104.5,41.5 103.5,40.5C 104.612,39.7348 105.279,38.7348 105.5,37.5 Z"/></g>
<g><path style="opacity:1" fill="#131413" d="M 117.5,37.5 C 122.02,38.9753 122.354,40.9753 118.5,43.5C 117.5,42.5 116.5,41.5 115.5,40.5C 116.612,39.7348 117.279,38.7348 117.5,37.5 Z"/></g>
<g><path style="opacity:1" fill="#333233" d="M 61.5,42.5 C 72.1667,42.5 82.8333,42.5 93.5,42.5C 93.5,43.5 93.5,44.5 93.5,45.5C 82.8333,45.5 72.1667,45.5 61.5,45.5C 61.5,44.5 61.5,43.5 61.5,42.5 Z"/></g>
<g><path style="opacity:1" fill="#f0eef0" d="M 172.5,45.5 C 168.5,45.5 164.5,45.5 160.5,45.5C 162.048,44.2057 164.048,43.5391 166.5,43.5C 168.952,43.5391 170.952,44.2057 172.5,45.5 Z"/></g>
<g><path style="opacity:1" fill="#797a79" d="M 336.5,35.5 C 337.482,38.9619 337.815,42.6286 337.5,46.5C 327.167,46.5 316.833,46.5 306.5,46.5C 306.5,43.5 306.5,40.5 306.5,37.5C 316.889,38.141 326.889,37.4743 336.5,35.5 Z"/></g>
<g><path style="opacity:1" fill="#737873" d="M 61.5,47.5 C 72.1874,47.168 82.8541,47.5013 93.5,48.5C 88.1667,48.8333 82.8333,49.1667 77.5,49.5C 71.7891,49.4949 66.4558,48.8282 61.5,47.5 Z"/></g>
<g><path style="opacity:1" fill="#7b7b7b" d="M 160.5,45.5 C 164.5,45.5 168.5,45.5 172.5,45.5C 172.5,46.8333 172.5,48.1667 172.5,49.5C 170.833,49.5 169.167,49.5 167.5,49.5C 168.158,53.6772 166.492,55.1772 162.5,54C 160.821,51.4355 160.154,48.6021 160.5,45.5 Z"/></g>
<g><path style="opacity:1" fill="#7c7b7c" d="M 214.5,28.5 C 216.167,28.5 217.833,28.5 219.5,28.5C 219.5,34.8333 219.5,41.1667 219.5,47.5C 226.167,47.5 232.833,47.5 239.5,47.5C 239.5,46.5 239.5,45.5 239.5,44.5C 239.5,44.1667 239.5,43.8333 239.5,43.5C 239.833,43.5 240.167,43.5 240.5,43.5C 240.5,44.5 240.5,45.5 240.5,46.5C 241.5,46.5 242.5,46.5 243.5,46.5C 248.64,47.4881 253.974,47.8214 259.5,47.5C 259.5,46.5 259.5,45.5 259.5,44.5C 259.5,44.1667 259.5,43.8333 259.5,43.5C 259.833,43.5 260.167,43.5 260.5,43.5C 260.5,44.5 260.5,45.5 260.5,46.5C 261.5,46.5 262.5,46.5 263.5,46.5C 268.64,47.4881 273.974,47.8214 279.5,47.5C 279.5,46.5 279.5,45.5 279.5,44.5C 279.5,44.1667 279.5,43.8333 279.5,43.5C 279.833,43.5 280.167,43.5 280.5,43.5C 280.5,44.5 280.5,45.5 280.5,46.5C 281.5,46.5 282.5,46.5 283.5,46.5C 284.833,47.8333 286.167,47.8333 287.5,46.5C 288.338,46.1583 288.672,45.4916 288.5,44.5C 289.163,42.3587 289.497,40.0254 289.5,37.5C 289.471,34.7305 288.805,32.3972 287.5,30.5C 287.5,29.8333 287.5,29.1667 287.5,28.5C 289.167,28.5 290.833,28.5 292.5,28.5C 293.818,31.2575 294.485,34.4242 294.5,38C 294.416,41.693 293.75,45.193 292.5,48.5C 279.5,48.8333 266.5,49.1667 253.5,49.5C 239.68,49.4647 226.013,48.7981 212.5,47.5C 211.877,40.7453 212.544,34.412 214.5,28.5 Z"/></g>
<g><path style="opacity:1" fill="#221f22" d="M 287.5,30.5 C 287.181,35.3633 287.514,40.03 288.5,44.5C 288.672,45.4916 288.338,46.1583 287.5,46.5C 286.188,44.2568 285.522,41.5902 285.5,38.5C 285.522,35.4098 286.188,32.7432 287.5,30.5 Z"/></g>
<g><path style="opacity:1" fill="#f7f3f7" d="M 287.5,30.5 C 288.805,32.3972 289.471,34.7305 289.5,37.5C 289.497,40.0254 289.163,42.3587 288.5,44.5C 287.514,40.03 287.181,35.3633 287.5,30.5 Z"/></g>
<g><path style="opacity:1" fill="#707170" d="M 219.5,28.5 C 242.167,28.5 264.833,28.5 287.5,28.5C 287.5,29.1667 287.5,29.8333 287.5,30.5C 286.188,32.7432 285.522,35.4098 285.5,38.5C 285.522,41.5902 286.188,44.2568 287.5,46.5C 286.167,47.8333 284.833,47.8333 283.5,46.5C 283.5,45.8333 283.5,45.1667 283.5,44.5C 284.163,42.3587 284.497,40.0254 284.5,37.5C 284.471,34.7305 283.805,32.3972 282.5,30.5C 280.57,34.3727 279.903,38.706 280.5,43.5C 280.167,43.5 279.833,43.5 279.5,43.5C 280.097,38.706 279.43,34.3727 277.5,30.5C 275.554,35.3958 274.887,40.7291 275.5,46.5C 277.179,46.7148 278.179,46.0481 278.5,44.5C 278.833,44.5 279.167,44.5 279.5,44.5C 279.5,45.5 279.5,46.5 279.5,47.5C 273.974,47.8214 268.64,47.4881 263.5,46.5C 263.5,45.8333 263.5,45.1667 263.5,44.5C 264.163,42.3587 264.497,40.0254 264.5,37.5C 264.471,34.7305 263.805,32.3972 262.5,30.5C 260.57,34.3727 259.903,38.706 260.5,43.5C 260.167,43.5 259.833,43.5 259.5,43.5C 260.097,38.706 259.43,34.3727 257.5,30.5C 255.554,35.3958 254.887,40.7291 255.5,46.5C 257.179,46.7148 258.179,46.0481 258.5,44.5C 258.833,44.5 259.167,44.5 259.5,44.5C 259.5,45.5 259.5,46.5 259.5,47.5C 253.974,47.8214 248.64,47.4881 243.5,46.5C 243.5,45.8333 243.5,45.1667 243.5,44.5C 244.163,42.3587 244.497,40.0254 244.5,37.5C 244.471,34.7305 243.805,32.3972 242.5,30.5C 240.57,34.3727 239.903,38.706 240.5,43.5C 240.167,43.5 239.833,43.5 239.5,43.5C 240.097,38.706 239.43,34.3727 237.5,30.5C 235.554,35.3958 234.887,40.7291 235.5,46.5C 237.179,46.7148 238.179,46.0481 238.5,44.5C 238.833,44.5 239.167,44.5 239.5,44.5C 239.5,45.5 239.5,46.5 239.5,47.5C 232.833,47.5 226.167,47.5 219.5,47.5C 219.5,41.1667 219.5,34.8333 219.5,28.5 Z"/></g>
<g><path style="opacity:1" fill="#272527" d="M 272.5,30.5 C 272.181,35.3633 272.514,40.03 273.5,44.5C 273.179,46.0481 272.179,46.7148 270.5,46.5C 269.887,40.7291 270.554,35.3958 272.5,30.5 Z"/></g>
<g><path style="opacity:1" fill="#272527" d="M 252.5,30.5 C 252.181,35.3633 252.514,40.03 253.5,44.5C 253.179,46.0481 252.179,46.7148 250.5,46.5C 249.887,40.7291 250.554,35.3958 252.5,30.5 Z"/></g>
<g><path style="opacity:1" fill="#272527" d="M 232.5,30.5 C 232.181,35.3633 232.514,40.03 233.5,44.5C 233.179,46.0481 232.179,46.7148 230.5,46.5C 229.887,40.7291 230.554,35.3958 232.5,30.5 Z"/></g>
<g><path style="opacity:1" fill="#1b1e1b" d="M 222.5,30.5 C 222.181,35.3633 222.514,40.03 223.5,44.5C 223.179,46.0481 222.179,46.7148 220.5,46.5C 219.887,40.7291 220.554,35.3958 222.5,30.5 Z"/></g>
<g><path style="opacity:1" fill="#1b1a1b" d="M 277.5,30.5 C 277.181,35.3633 277.514,40.03 278.5,44.5C 278.179,46.0481 277.179,46.7148 275.5,46.5C 274.887,40.7291 275.554,35.3958 277.5,30.5 Z"/></g>
<g><path style="opacity:1" fill="#1b1a1b" d="M 257.5,30.5 C 257.181,35.3633 257.514,40.03 258.5,44.5C 258.179,46.0481 257.179,46.7148 255.5,46.5C 254.887,40.7291 255.554,35.3958 257.5,30.5 Z"/></g>
<g><path style="opacity:1" fill="#1b1a1b" d="M 237.5,30.5 C 237.181,35.3633 237.514,40.03 238.5,44.5C 238.179,46.0481 237.179,46.7148 235.5,46.5C 234.887,40.7291 235.554,35.3958 237.5,30.5 Z"/></g>
<g><path style="opacity:1" fill="#f7f6f7" d="M 282.5,30.5 C 283.805,32.3972 284.471,34.7305 284.5,37.5C 284.497,40.0254 284.163,42.3587 283.5,44.5C 282.514,40.03 282.181,35.3633 282.5,30.5 Z"/></g>
<g><path style="opacity:1" fill="#1e1f1e" d="M 282.5,30.5 C 282.181,35.3633 282.514,40.03 283.5,44.5C 283.5,45.1667 283.5,45.8333 283.5,46.5C 282.5,46.5 281.5,46.5 280.5,46.5C 280.5,45.5 280.5,44.5 280.5,43.5C 279.903,38.706 280.57,34.3727 282.5,30.5 Z"/></g>
<g><path style="opacity:1" fill="#f6f7f6" d="M 267.5,30.5 C 268.805,32.3972 269.471,34.7305 269.5,37.5C 269.497,40.0254 269.163,42.3587 268.5,44.5C 267.514,40.03 267.181,35.3633 267.5,30.5 Z"/></g>
<g><path style="opacity:1" fill="#221f22" d="M 267.5,30.5 C 267.181,35.3633 267.514,40.03 268.5,44.5C 268.179,46.0481 267.179,46.7148 265.5,46.5C 264.887,40.7291 265.554,35.3958 267.5,30.5 Z"/></g>
<g><path style="opacity:1" fill="#f7f6f7" d="M 262.5,30.5 C 263.805,32.3972 264.471,34.7305 264.5,37.5C 264.497,40.0254 264.163,42.3587 263.5,44.5C 262.514,40.03 262.181,35.3633 262.5,30.5 Z"/></g>
<g><path style="opacity:1" fill="#1e1f1e" d="M 262.5,30.5 C 262.181,35.3633 262.514,40.03 263.5,44.5C 263.5,45.1667 263.5,45.8333 263.5,46.5C 262.5,46.5 261.5,46.5 260.5,46.5C 260.5,45.5 260.5,44.5 260.5,43.5C 259.903,38.706 260.57,34.3727 262.5,30.5 Z"/></g>
<g><path style="opacity:1" fill="#f6f7f6" d="M 247.5,30.5 C 248.805,32.3972 249.471,34.7305 249.5,37.5C 249.497,40.0254 249.163,42.3587 248.5,44.5C 247.514,40.03 247.181,35.3633 247.5,30.5 Z"/></g>
<g><path style="opacity:1" fill="#221f22" d="M 247.5,30.5 C 247.181,35.3633 247.514,40.03 248.5,44.5C 248.179,46.0481 247.179,46.7148 245.5,46.5C 244.887,40.7291 245.554,35.3958 247.5,30.5 Z"/></g>
<g><path style="opacity:1" fill="#f7f6f7" d="M 242.5,30.5 C 243.805,32.3972 244.471,34.7305 244.5,37.5C 244.497,40.0254 244.163,42.3587 243.5,44.5C 242.514,40.03 242.181,35.3633 242.5,30.5 Z"/></g>
<g><path style="opacity:1" fill="#1e1f1e" d="M 242.5,30.5 C 242.181,35.3633 242.514,40.03 243.5,44.5C 243.5,45.1667 243.5,45.8333 243.5,46.5C 242.5,46.5 241.5,46.5 240.5,46.5C 240.5,45.5 240.5,44.5 240.5,43.5C 239.903,38.706 240.57,34.3727 242.5,30.5 Z"/></g>
<g><path style="opacity:1" fill="#f6f7f6" d="M 227.5,30.5 C 228.805,32.3972 229.471,34.7305 229.5,37.5C 229.497,40.0254 229.163,42.3587 228.5,44.5C 227.514,40.03 227.181,35.3633 227.5,30.5 Z"/></g>
<g><path style="opacity:1" fill="#221f22" d="M 227.5,30.5 C 227.181,35.3633 227.514,40.03 228.5,44.5C 228.179,46.0481 227.179,46.7148 225.5,46.5C 224.887,40.7291 225.554,35.3958 227.5,30.5 Z"/></g>
<g><path style="opacity:1" fill="#faf9fa" d="M 222.5,30.5 C 223.805,32.3972 224.471,34.7305 224.5,37.5C 224.497,40.0254 224.163,42.3587 223.5,44.5C 222.514,40.03 222.181,35.3633 222.5,30.5 Z"/></g>
<g><path style="opacity:1" fill="#f7f7f7" d="M 277.5,30.5 C 279.43,34.3727 280.097,38.706 279.5,43.5C 279.5,43.8333 279.5,44.1667 279.5,44.5C 279.167,44.5 278.833,44.5 278.5,44.5C 277.514,40.03 277.181,35.3633 277.5,30.5 Z"/></g>
<g><path style="opacity:1" fill="#f6f7f6" d="M 272.5,30.5 C 273.805,32.3972 274.471,34.7305 274.5,37.5C 274.497,40.0254 274.163,42.3587 273.5,44.5C 272.514,40.03 272.181,35.3633 272.5,30.5 Z"/></g>
<g><path style="opacity:1" fill="#f7f7f7" d="M 257.5,30.5 C 259.43,34.3727 260.097,38.706 259.5,43.5C 259.5,43.8333 259.5,44.1667 259.5,44.5C 259.167,44.5 258.833,44.5 258.5,44.5C 257.514,40.03 257.181,35.3633 257.5,30.5 Z"/></g>
<g><path style="opacity:1" fill="#f6f7f6" d="M 252.5,30.5 C 253.805,32.3972 254.471,34.7305 254.5,37.5C 254.497,40.0254 254.163,42.3587 253.5,44.5C 252.514,40.03 252.181,35.3633 252.5,30.5 Z"/></g>
<g><path style="opacity:1" fill="#f7f7f7" d="M 237.5,30.5 C 239.43,34.3727 240.097,38.706 239.5,43.5C 239.5,43.8333 239.5,44.1667 239.5,44.5C 239.167,44.5 238.833,44.5 238.5,44.5C 237.514,40.03 237.181,35.3633 237.5,30.5 Z"/></g>
<g><path style="opacity:1" fill="#f6f7f6" d="M 232.5,30.5 C 233.805,32.3972 234.471,34.7305 234.5,37.5C 234.497,40.0254 234.163,42.3587 233.5,44.5C 232.514,40.03 232.181,35.3633 232.5,30.5 Z"/></g>
<g><path style="opacity:1" fill="#edeaed" d="M 158.5,50.5 C 140.833,50.5 123.167,50.5 105.5,50.5C 113.974,49.1685 122.807,48.5018 132,48.5C 141.193,48.5018 150.026,49.1685 158.5,50.5 Z"/></g>
<g><path style="opacity:1" fill="#818081" d="M 105.5,50.5 C 123.167,50.5 140.833,50.5 158.5,50.5C 150.026,51.8315 141.193,52.4982 132,52.5C 122.807,52.4982 113.974,51.8315 105.5,50.5 Z"/></g>
<g><path style="opacity:1" fill="#787978" d="M 175.5,49.5 C 178.428,50.8197 181.761,51.4864 185.5,51.5C 189.239,51.4864 192.572,50.8197 195.5,49.5C 196.497,68.6595 196.83,87.9928 196.5,107.5C 186.584,107.819 176.75,107.486 167,106.5C 166.167,89.4902 166.334,72.4902 167.5,55.5C 169.111,54.6798 169.778,53.3464 169.5,51.5C 171.886,51.7413 173.886,51.0746 175.5,49.5 Z"/></g>
<g><path style="opacity:1" fill="#f6f5f6" d="M 175.5,49.5 C 182.167,49.5 188.833,49.5 195.5,49.5C 192.572,50.8197 189.239,51.4864 185.5,51.5C 181.761,51.4864 178.428,50.8197 175.5,49.5 Z"/></g>
<g><path style="opacity:1" fill="#727472" d="M 294.5,53.5 C 294.5,54.1667 294.167,54.5 293.5,54.5C 268.158,54.8331 242.825,54.4998 217.5,53.5C 243.33,52.1709 268.997,52.1709 294.5,53.5 Z"/></g>
<g><path style="opacity:1" fill="#777577" d="M 115.5,55.5 C 123.316,54.5076 131.316,54.1743 139.5,54.5C 139.5,55.5 139.5,56.5 139.5,57.5C 131.353,57.9378 123.353,57.2711 115.5,55.5 Z"/></g>
<g><path style="opacity:1" fill="#787678" d="M 148.5,54.5 C 149.5,54.5 150.5,54.5 151.5,54.5C 151.665,57.5184 151.498,60.5184 151,63.5C 148.749,60.9828 147.916,57.9828 148.5,54.5 Z"/></g>
<g><path style="opacity:1" fill="#f6f6f6" d="M 181.5,54.5 C 182.831,62.3049 183.498,70.4716 183.5,79C 183.498,87.5284 182.831,95.6951 181.5,103.5C 181.5,87.1667 181.5,70.8333 181.5,54.5 Z"/></g>
<g><path style="opacity:1" fill="#f6f6f6" d="M 190.5,54.5 C 191.831,62.3049 192.498,70.4716 192.5,79C 192.498,87.5284 191.831,95.6951 190.5,103.5C 190.5,87.1667 190.5,70.8333 190.5,54.5 Z"/></g>
<g><path style="opacity:1" fill="#f3f2f3" d="M 139.5,61.5 C 134.167,61.5 128.833,61.5 123.5,61.5C 125.743,60.1883 128.41,59.5217 131.5,59.5C 134.59,59.5217 137.257,60.1883 139.5,61.5 Z"/></g>
<g><path style="opacity:1" fill="#f6f7f6" d="M 172.5,56.5 C 173.831,63.9703 174.498,71.8037 174.5,80C 174.498,88.1963 173.831,96.0297 172.5,103.5C 172.5,87.8333 172.5,72.1667 172.5,56.5 Z"/></g>
<g><path style="opacity:1" fill="#7b7b7b" d="M 123.5,61.5 C 128.833,61.5 134.167,61.5 139.5,61.5C 139.663,63.8568 139.497,66.1902 139,68.5C 135.7,77.3958 132.2,86.2292 128.5,95C 121.226,95.0198 114.559,93.0198 108.5,89C 114.561,80.4321 119.561,71.2654 123.5,61.5 Z"/></g>
<g><path style="opacity:1" fill="#181818" d="M 181.5,54.5 C 181.5,70.8333 181.5,87.1667 181.5,103.5C 180.169,95.6951 179.502,87.5284 179.5,79C 179.502,70.4716 180.169,62.3049 181.5,54.5 Z"/></g>
<g><path style="opacity:1" fill="#717571" d="M 142.5,66.5 C 143.309,67.4687 144.309,68.3021 145.5,69C 151.749,69.8087 157.916,69.642 164,68.5C 164.483,69.448 164.649,70.448 164.5,71.5C 157.468,71.8303 150.468,71.497 143.5,70.5C 142.754,69.2638 142.421,67.9305 142.5,66.5 Z"/></g>
<g><path style="opacity:1" fill="#191b19" d="M 172.5,56.5 C 172.5,72.1667 172.5,87.8333 172.5,103.5C 171.169,96.0297 170.502,88.1963 170.5,80C 170.502,71.8037 171.169,63.9703 172.5,56.5 Z"/></g>
<g><path style="opacity:1" fill="#191c19" d="M 190.5,54.5 C 190.5,70.8333 190.5,87.1667 190.5,103.5C 189.169,95.6951 188.502,87.5284 188.5,79C 188.502,70.4716 189.169,62.3049 190.5,54.5 Z"/></g>
</svg>
