<?xml version="1.0" encoding="UTF-8"?>
<!DOCTYPE svg PUBLIC "-//W3C//DTD SVG 1.1//EN" "http://www.w3.org/Graphics/SVG/1.1/DTD/svg11.dtd">
<svg xmlns="http://www.w3.org/2000/svg" version="1.1" width="100px" height="100px" style="shape-rendering:geometricPrecision; text-rendering:geometricPrecision; image-rendering:optimizeQuality; fill-rule:evenodd; clip-rule:evenodd" xmlns:xlink="http://www.w3.org/1999/xlink">
<g><path style="opacity:0.096" fill="#020201" d="M 13.5,16.5 C 18.742,16.0227 23.742,16.8561 28.5,19C 39.0609,26.555 48.7275,35.2217 57.5,45C 60.2017,45.6066 62.8684,45.4399 65.5,44.5C 67.8193,45.0639 70.1526,45.5639 72.5,46C 78.4924,50.9815 83.3258,56.8149 87,63.5C 88.5094,70.7935 87.176,77.4602 83,83.5C 76.5293,88.2087 69.696,88.7087 62.5,85C 49.3583,71.8583 35.8583,58.3583 22,44.5C 19.6667,41.5 17.3333,38.5 15,35.5C 11.1755,29.2849 10.6755,22.9516 13.5,16.5 Z"/></g>
<g><path style="opacity:1" fill="#dfe2e3" d="M 54.5,54.5 C 53.9976,56.0847 52.9976,56.5847 51.5,56C 41.2142,45.2089 30.5475,35.0422 19.5,25.5C 19.0472,24.5416 18.3805,23.7083 17.5,23C 21.4656,24.1547 25.1323,26.1547 28.5,29C 37.3935,37.3947 46.0602,45.8947 54.5,54.5 Z"/></g>
<g><path style="opacity:1" fill="#70736c" d="M 19.5,25.5 C 30.5475,35.0422 41.2142,45.2089 51.5,56C 52.9976,56.5847 53.9976,56.0847 54.5,54.5C 56.1733,55.343 57.34,56.6763 58,58.5C 65.6768,50.5283 66.1768,50.8617 59.5,59.5C 58.2089,60.5417 58.2089,61.7083 59.5,63C 56.7846,61.8518 54.7846,62.6851 53.5,65.5C 52.788,66.7387 51.788,67.2387 50.5,67C 51.7649,65.6626 52.2649,64.1626 52,62.5C 43.3333,53.8333 34.6667,45.1667 26,36.5C 22.8023,33.4373 20.6357,29.7706 19.5,25.5 Z"/></g>
<g><path style="opacity:0.976" fill="#d3d0bc" d="M 65.5,51.5 C 70.6922,55.51 74.8589,60.1767 78,65.5C 73.2323,61.2401 69.0656,56.5734 65.5,51.5 Z"/></g>
<g><path style="opacity:1" fill="#281109" d="M 59.5,59.5 C 61.5084,60.3007 62.0084,61.634 61,63.5C 61.3333,63.1667 61.6667,62.8333 62,62.5C 66.6667,65.8333 70.6667,69.8333 74,74.5C 75.1068,73.2881 75.6068,73.6214 75.5,75.5C 75.0269,76.9063 74.0269,77.573 72.5,77.5C 72.5654,77.0618 72.3988,76.7284 72,76.5C 70.6626,77.7649 69.1626,78.2649 67.5,78C 65.5,76 63.5,74 61.5,72C 61.8333,71.6667 62.1667,71.3333 62.5,71C 59.3537,69.3428 56.3537,67.5094 53.5,65.5C 54.7846,62.6851 56.7846,61.8518 59.5,63C 58.2089,61.7083 58.2089,60.5417 59.5,59.5 Z"/></g>
<g><path style="opacity:1" fill="#7a7657" d="M 72.5,77.5 C 74.0269,77.573 75.0269,76.9063 75.5,75.5C 78.0123,73.5216 79.5123,70.8549 80,67.5C 80.5225,73.3434 78.0225,77.5101 72.5,80C 73.0164,82.0328 72.3497,82.0328 70.5,80C 71.3805,79.2917 72.0472,78.4584 72.5,77.5 Z"/></g>
</svg>
