<?xml version="1.0" encoding="UTF-8"?>
<!DOCTYPE svg PUBLIC "-//W3C//DTD SVG 1.1//EN" "http://www.w3.org/Graphics/SVG/1.1/DTD/svg11.dtd">
<svg xmlns="http://www.w3.org/2000/svg" version="1.1" width="100px" height="100px" style="shape-rendering:geometricPrecision; text-rendering:geometricPrecision; image-rendering:optimizeQuality; fill-rule:evenodd; clip-rule:evenodd" xmlns:xlink="http://www.w3.org/1999/xlink">
<g><path style="opacity:0.124" fill="#050303" d="M 31.5,13.5 C 34.2706,13.4207 36.9373,13.9207 39.5,15C 40.9774,17.1485 42.9774,18.4818 45.5,19C 57.2196,20.9253 68.8863,23.2587 80.5,26C 89.1473,31.9283 92.3139,40.095 90,50.5C 89.3605,53.1123 88.1938,55.4457 86.5,57.5C 89.6643,71.1677 84.331,76.3344 70.5,73C 68.3333,72.1667 66.8333,70.6667 66,68.5C 63.2467,73.0076 60.2467,77.3409 57,81.5C 45.0647,89.1958 37.7313,86.1958 35,72.5C 33.6256,65.6223 35.6256,59.9556 41,55.5C 42.0086,53.9751 42.5086,52.3084 42.5,50.5C 37.1512,48.4376 31.8179,46.2709 26.5,44C 20.8321,43.4079 15.6654,41.5746 11,38.5C 6.15697,24.5189 10.9903,18.5189 25.5,20.5C 25.445,16.2308 27.445,13.8975 31.5,13.5 Z"/></g>
<g><path style="opacity:1" fill="#bf6d2c" d="M 38.5,25.5 C 42.0477,26.1301 45.3811,27.1301 48.5,28.5C 48.38,29.5862 47.7133,30.2528 46.5,30.5C 43.862,30.0699 41.5287,29.0699 39.5,27.5C 39.1667,26.8333 38.8333,26.1667 38.5,25.5 Z"/></g>
<g><path style="opacity:1" fill="#51545f" d="M 20.5,27.5 C 25.1902,28.0385 29.3568,29.7051 33,32.5C 33.9836,30.2053 34.8169,30.5386 35.5,33.5C 31.0896,33.0394 26.4229,32.206 21.5,31C 21.8333,30.6667 22.1667,30.3333 22.5,30C 21.244,29.5831 20.5774,28.7498 20.5,27.5 Z"/></g>
<g><path style="opacity:1" fill="#413935" d="M 38.5,25.5 C 38.8333,26.1667 39.1667,26.8333 39.5,27.5C 39.5614,29.5922 40.5614,31.0922 42.5,32C 41.2068,32.49 39.8734,32.6567 38.5,32.5C 38.5,34.1667 38.5,35.8333 38.5,37.5C 37.8067,33.4345 37.1401,29.2679 36.5,25C 37.4368,24.3083 38.1034,24.475 38.5,25.5 Z"/></g>
<g><path style="opacity:1" fill="#91441d" d="M 39.5,27.5 C 41.5287,29.0699 43.862,30.0699 46.5,30.5C 47.7133,30.2528 48.38,29.5862 48.5,28.5C 49.4614,30.2646 49.7947,32.2646 49.5,34.5C 50.5,34.5 51.5,34.5 52.5,34.5C 52.5,37.1667 52.5,39.8333 52.5,42.5C 48.124,40.3257 43.4573,38.659 38.5,37.5C 38.5,35.8333 38.5,34.1667 38.5,32.5C 39.8734,32.6567 41.2068,32.49 42.5,32C 40.5614,31.0922 39.5614,29.5922 39.5,27.5 Z"/></g>
<g><path style="opacity:1" fill="#0d0403" d="M 43.5,31.5 C 45.9828,31.73 46.4828,32.3966 45,33.5C 43.9701,33.1639 43.4701,32.4972 43.5,31.5 Z"/></g>
<g><path style="opacity:1" fill="#2a2a2d" d="M 78.5,41.5 C 77.7321,40.7375 77.2321,39.7375 77,38.5C 75.951,40.1066 74.451,40.7733 72.5,40.5C 72.4809,38.9397 72.1476,37.4397 71.5,36C 71.9054,35.0546 72.572,34.3879 73.5,34C 72.0563,33.2195 70.723,33.3861 69.5,34.5C 70.0736,36.0589 70.7402,37.5589 71.5,39C 67.4886,39.1663 66.9886,39.9996 70,41.5C 70.4828,42.448 70.6495,43.448 70.5,44.5C 68.847,44.3404 67.5137,43.6737 66.5,42.5C 66.3241,39.4273 66.6574,36.0939 67.5,32.5C 69.4008,32.5668 71.2341,32.2335 73,31.5C 74.8114,32.0779 76.6447,32.5779 78.5,33C 74.7351,34.3772 75.0684,35.3772 79.5,36C 82.6735,38.386 83.5068,41.2193 82,44.5C 81,43.1667 80,41.8333 79,40.5C 78.6012,40.7284 78.4346,41.0618 78.5,41.5 Z"/></g>
<g><path style="opacity:1" fill="#272728" d="M 67.5,32.5 C 66.3065,32.9704 65.6399,33.9704 65.5,35.5C 65.0029,37.8183 64.6695,40.1516 64.5,42.5C 63.71,41.3915 63.21,40.0581 63,38.5C 62.8045,40.9045 61.6378,42.5711 59.5,43.5C 59.5,42.5 59.5,41.5 59.5,40.5C 58.2679,41.1445 56.9346,41.3112 55.5,41C 56.1667,41.6667 56.8333,42.3333 57.5,43C 55.6131,43.7796 53.9464,43.6129 52.5,42.5C 52.5,39.8333 52.5,37.1667 52.5,34.5C 51.8466,33.1932 51.1799,31.8599 50.5,30.5C 51.8333,29.5 51.8333,28.5 50.5,27.5C 52.8709,26.6632 55.2042,26.9966 57.5,28.5C 56.8333,28.8333 56.1667,29.1667 55.5,29.5C 56.9905,30.2436 58.4905,30.9103 60,31.5C 63.2428,29.176 66.7428,29.0093 70.5,31C 69.2625,31.2321 68.2625,31.7321 67.5,32.5 Z"/></g>
<g><path style="opacity:1" fill="#7f7664" d="M 67.5,32.5 C 66.6574,36.0939 66.3241,39.4273 66.5,42.5C 65.8333,42.5 65.1667,42.5 64.5,42.5C 64.6695,40.1516 65.0029,37.8183 65.5,35.5C 65.6399,33.9704 66.3065,32.9704 67.5,32.5 Z"/></g>
<g><path style="opacity:1" fill="#5b564e" d="M 78.5,41.5 C 76.9397,43.1294 77.273,44.296 79.5,45C 78.5,45.3333 77.5,45.6667 76.5,46C 81.8937,48.204 81.7271,48.704 76,47.5C 74.5054,45.8368 72.672,44.8368 70.5,44.5C 70.6495,43.448 70.4828,42.448 70,41.5C 66.9886,39.9996 67.4886,39.1663 71.5,39C 70.7402,37.5589 70.0736,36.0589 69.5,34.5C 70.723,33.3861 72.0563,33.2195 73.5,34C 72.572,34.3879 71.9054,35.0546 71.5,36C 72.1476,37.4397 72.4809,38.9397 72.5,40.5C 74.451,40.7733 75.951,40.1066 77,38.5C 77.2321,39.7375 77.7321,40.7375 78.5,41.5 Z"/></g>
<g><path style="opacity:1" fill="#6a2f20" d="M 62.5,46.5 C 63.6491,46.7911 64.3158,47.6244 64.5,49C 62.8145,57.6074 59.1478,65.1074 53.5,71.5C 52.7611,71.631 52.0944,71.4643 51.5,71C 58.1467,64.2474 61.8133,56.0807 62.5,46.5 Z"/></g>
<g><path style="opacity:1" fill="#9f491f" d="M 73.5,49.5 C 75.1667,49.5 76.8333,49.5 78.5,49.5C 79.2919,55.1302 79.6252,60.7969 79.5,66.5C 76.6773,66.9746 74.6773,65.9746 73.5,63.5C 74.603,58.5717 74.603,53.905 73.5,49.5 Z"/></g>
<g><path style="opacity:1" fill="#9a3f24" d="M 62.5,46.5 C 61.8133,56.0807 58.1467,64.2474 51.5,71C 52.0944,71.4643 52.7611,71.631 53.5,71.5C 51.8333,73.5 50.1667,75.5 48.5,77.5C 47.0227,74.4086 45.3561,71.4086 43.5,68.5C 43.0825,67.7784 42.4158,67.2784 41.5,67C 46.4421,62.286 50.2754,56.786 53,50.5C 54.3086,48.1088 55.3086,48.1088 56,50.5C 57.0086,48.9751 57.5086,47.3084 57.5,45.5C 59.4147,45.2155 61.0813,45.5489 62.5,46.5 Z"/></g>
<g><path style="opacity:1" fill="#2b130d" d="M 43.5,68.5 C 45.3561,71.4086 47.0227,74.4086 48.5,77.5C 47.2918,78.782 45.9584,78.782 44.5,77.5C 43.8049,74.7198 42.8049,72.0531 41.5,69.5C 41.9569,68.7025 42.6236,68.3691 43.5,68.5 Z"/></g>
</svg>
