<?xml version="1.0" encoding="UTF-8"?>
<!DOCTYPE svg PUBLIC "-//W3C//DTD SVG 1.1//EN" "http://www.w3.org/Graphics/SVG/1.1/DTD/svg11.dtd">
<svg xmlns="http://www.w3.org/2000/svg" version="1.1" width="100px" height="100px" style="shape-rendering:geometricPrecision; text-rendering:geometricPrecision; image-rendering:optimizeQuality; fill-rule:evenodd; clip-rule:evenodd" xmlns:xlink="http://www.w3.org/1999/xlink">
<g><path style="opacity:0.096" fill="#010101" d="M 34.5,18.5 C 38.6372,18.1463 42.6372,18.6463 46.5,20C 51.3333,24.8333 56.1667,29.6667 61,34.5C 63.8606,38.8878 66.1939,43.5545 68,48.5C 73.0443,53.8756 77.711,59.5422 82,65.5C 83.62,79.1223 77.7867,83.9556 64.5,80C 60.3566,75.7673 56.0233,71.7673 51.5,68C 45.6183,65.3753 39.9516,62.3753 34.5,59C 29.3,54.1347 24.4666,48.9681 20,43.5C 16.3408,37.4429 16.6741,31.7763 21,26.5C 21.3333,25.1667 21.6667,23.8333 22,22.5C 26.2764,21.2115 30.4431,19.8782 34.5,18.5 Z"/></g>
<g><path style="opacity:1" fill="#67c775" d="M 38.5,24.5 C 40.337,24.6395 40.6704,25.3061 39.5,26.5C 38.7025,26.0431 38.3691,25.3764 38.5,24.5 Z"/></g>
<g><path style="opacity:0.894" fill="#305d35" d="M 43.5,35.5 C 40.1226,35.9595 36.7893,36.6261 33.5,37.5C 32.1667,36.5 30.8333,35.5 29.5,34.5C 29.2024,31.7354 28.2024,29.2354 26.5,27C 26.8333,26.8333 27.1667,26.6667 27.5,26.5C 33.3445,28.7647 38.6778,31.7647 43.5,35.5 Z"/></g>
<g><path style="opacity:0.976" fill="#405a45" d="M 57.5,48.5 C 54.6506,42.9737 50.6506,38.307 45.5,34.5C 43.7456,32.3253 42.579,29.992 42,27.5C 48.0528,33.0503 53.5528,39.0503 58.5,45.5C 57.8728,46.4168 57.5394,47.4168 57.5,48.5 Z"/></g>
<g><path style="opacity:0.992" fill="#1f3220" d="M 28.5,35.5 C 32.4118,39.5815 36.5785,43.5815 41,47.5C 41.6667,46.8333 41.6667,46.1667 41,45.5C 38.295,42.9638 35.795,40.2971 33.5,37.5C 36.7893,36.6261 40.1226,35.9595 43.5,35.5C 44.1667,35.1667 44.8333,34.8333 45.5,34.5C 50.6506,38.307 54.6506,42.9737 57.5,48.5C 62.9958,55.0672 68.9958,62.0672 75.5,69.5C 74.7131,72.8039 72.7131,74.3039 69.5,74C 61.8868,64.952 52.8868,58.6187 42.5,55C 35.9481,48.9506 29.9481,42.4506 24.5,35.5C 25.8084,34.3744 27.1417,34.3744 28.5,35.5 Z"/></g>
<g><path style="opacity:0.957" fill="#98ae99" d="M 29.5,34.5 C 30.8333,35.5 32.1667,36.5 33.5,37.5C 35.795,40.2971 38.295,42.9638 41,45.5C 41.6667,46.1667 41.6667,46.8333 41,47.5C 36.5785,43.5815 32.4118,39.5815 28.5,35.5C 29.1667,35.5 29.5,35.1667 29.5,34.5 Z"/></g>
</svg>
