<?xml version="1.0" encoding="UTF-8"?>
<!DOCTYPE svg PUBLIC "-//W3C//DTD SVG 1.1//EN" "http://www.w3.org/Graphics/SVG/1.1/DTD/svg11.dtd">
<svg xmlns="http://www.w3.org/2000/svg" version="1.1" width="100px" height="100px" style="shape-rendering:geometricPrecision; text-rendering:geometricPrecision; image-rendering:optimizeQuality; fill-rule:evenodd; clip-rule:evenodd" xmlns:xlink="http://www.w3.org/1999/xlink">
<g><path style="opacity:0.109" fill="#010000" d="M 31.5,18.5 C 38.011,18.7265 44.3443,19.8932 50.5,22C 75.7758,19.0899 82.7758,28.9233 71.5,51.5C 73.0983,59.4421 73.5983,67.4421 73,75.5C 72.7265,77.3289 71.8932,78.8289 70.5,80C 66.6156,81.0972 62.6156,81.5972 58.5,81.5C 54.3844,81.5972 50.3844,81.0972 46.5,80C 45.2986,79.0975 44.4652,77.9308 44,76.5C 43.6095,71.1456 43.1095,65.8123 42.5,60.5C 37.9538,60.7319 33.6205,59.8985 29.5,58C 27.9129,53.3839 26.0796,48.8839 24,44.5C 22.5941,38.5578 22.2608,32.5578 23,26.5C 24.4192,22.2452 27.2525,19.5785 31.5,18.5 Z"/></g>
<g><path style="opacity:1" fill="#635e51" d="M 40.5,28.5 C 38.5533,29.1504 36.8866,30.317 35.5,32C 37.6175,32.2602 39.2842,33.2602 40.5,35C 39.2068,35.49 37.8734,35.6567 36.5,35.5C 34.2554,34.1722 33.9221,32.3388 35.5,30C 32.2577,29.7167 31.9244,28.8834 34.5,27.5C 36.4086,28.3482 38.4086,28.6816 40.5,28.5 Z"/></g>
<g><path style="opacity:1" fill="#2d2c2a" d="M 40.5,28.5 C 40.8333,28.5 41.1667,28.5 41.5,28.5C 50.1058,29.7797 58.4392,30.2797 66.5,30C 70.8263,35.5486 70.1597,40.3819 64.5,44.5C 64.5,42.8333 64.5,41.1667 64.5,39.5C 62.8333,39.5 61.1667,39.5 59.5,39.5C 58.791,38.596 57.791,38.2627 56.5,38.5C 54.8333,37.8333 53.1667,37.1667 51.5,36.5C 52.3764,36.6309 53.0431,36.2975 53.5,35.5C 52,35.1667 50.5,34.8333 49,34.5C 47.0145,34.5687 45.5145,35.2353 44.5,36.5C 46.2308,38.0568 48.8974,38.8901 52.5,39C 49.8333,40 49.8333,41 52.5,42C 48.2376,42.2481 44.0709,41.7481 40,40.5C 38.6439,41.3802 37.1439,41.7135 35.5,41.5C 35.5172,39.4352 35.8505,37.4352 36.5,35.5C 37.8734,35.6567 39.2068,35.49 40.5,35C 39.2842,33.2602 37.6175,32.2602 35.5,32C 36.8866,30.317 38.5533,29.1504 40.5,28.5 Z"/></g>
<g><path style="opacity:1" fill="#b2afa8" d="M 51.5,36.5 C 49.1667,36.5 46.8333,36.5 44.5,36.5C 45.5145,35.2353 47.0145,34.5687 49,34.5C 50.5,34.8333 52,35.1667 53.5,35.5C 53.0431,36.2975 52.3764,36.6309 51.5,36.5 Z"/></g>
<g><path style="opacity:1" fill="#141210" d="M 41.5,28.5 C 41.1667,28.5 40.8333,28.5 40.5,28.5C 38.4086,28.6816 36.4086,28.3482 34.5,27.5C 31.9244,28.8834 32.2577,29.7167 35.5,30C 33.9221,32.3388 34.2554,34.1722 36.5,35.5C 35.8505,37.4352 35.5172,39.4352 35.5,41.5C 37.1439,41.7135 38.6439,41.3802 40,40.5C 44.0709,41.7481 48.2376,42.2481 52.5,42C 49.8333,41 49.8333,40 52.5,39C 48.8974,38.8901 46.2308,38.0568 44.5,36.5C 46.8333,36.5 49.1667,36.5 51.5,36.5C 53.1667,37.1667 54.8333,37.8333 56.5,38.5C 56.1667,38.5 55.8333,38.5 55.5,38.5C 54.3065,38.9704 53.6399,39.9704 53.5,41.5C 54.2112,48.8373 54.8779,56.1706 55.5,63.5C 55.5,65.8333 55.5,68.1667 55.5,70.5C 55.5,71.8333 55.5,73.1667 55.5,74.5C 54.5,74.5 53.5,74.5 52.5,74.5C 52.4502,70.1924 52.1169,66.1924 51.5,62.5C 54.3052,58.061 52.9719,55.2277 47.5,54C 43.4452,53.7685 39.4452,53.2685 35.5,52.5C 33.3187,49.737 32.9854,46.737 34.5,43.5C 33.066,41.7801 32.2326,39.7801 32,37.5C 31.1072,38.7112 30.2739,38.7112 29.5,37.5C 29.5815,34.6669 29.7482,31.6669 30,28.5C 33.9127,24.6161 37.746,24.6161 41.5,28.5 Z"/></g>
<g><path style="opacity:1" fill="#7d331e" d="M 59.5,39.5 C 61.1667,39.5 62.8333,39.5 64.5,39.5C 64.5,41.1667 64.5,42.8333 64.5,44.5C 64.7228,51.8395 65.0561,59.1729 65.5,66.5C 65.6567,67.8734 65.49,69.2068 65,70.5C 64.6667,67.1667 64.3333,63.8333 64,60.5C 63.7978,62.2556 63.2978,63.9223 62.5,65.5C 61.8076,64.9747 61.3076,64.3081 61,63.5C 60,64.8333 59,64.8333 58,63.5C 57.168,55.5173 56.668,47.5173 56.5,39.5C 57.5,39.5 58.5,39.5 59.5,39.5 Z"/></g>
<g><path style="opacity:1" fill="#9a4427" d="M 55.5,38.5 C 56.0493,47.0115 56.0493,55.3448 55.5,63.5C 54.8779,56.1706 54.2112,48.8373 53.5,41.5C 53.6399,39.9704 54.3065,38.9704 55.5,38.5 Z"/></g>
<g><path style="opacity:1" fill="#592516" d="M 55.5,38.5 C 55.8333,38.5 56.1667,38.5 56.5,38.5C 57.791,38.2627 58.791,38.596 59.5,39.5C 58.5,39.5 57.5,39.5 56.5,39.5C 56.668,47.5173 57.168,55.5173 58,63.5C 59,64.8333 60,64.8333 61,63.5C 61.3076,64.3081 61.8076,64.9747 62.5,65.5C 63.2978,63.9223 63.7978,62.2556 64,60.5C 64.3333,63.8333 64.6667,67.1667 65,70.5C 65.49,69.2068 65.6567,67.8734 65.5,66.5C 66.7537,68.3569 66.7537,70.3569 65.5,72.5C 62.5719,73.4841 59.5719,73.8174 56.5,73.5C 56.7373,72.209 56.404,71.209 55.5,70.5C 55.5,68.1667 55.5,65.8333 55.5,63.5C 56.0493,55.3448 56.0493,47.0115 55.5,38.5 Z"/></g>
</svg>
