<?xml version="1.0" encoding="UTF-8"?>
<!DOCTYPE svg PUBLIC "-//W3C//DTD SVG 1.1//EN" "http://www.w3.org/Graphics/SVG/1.1/DTD/svg11.dtd">
<svg xmlns="http://www.w3.org/2000/svg" version="1.1" width="100px" height="100px" style="shape-rendering:geometricPrecision; text-rendering:geometricPrecision; image-rendering:optimizeQuality; fill-rule:evenodd; clip-rule:evenodd" xmlns:xlink="http://www.w3.org/1999/xlink">
<g><path style="opacity:0.102" fill="#030303" d="M 99.5,65.5 C 99.5,70.5 99.5,75.5 99.5,80.5C 96.7209,88.3787 91.3876,90.5454 83.5,87C 81.2878,84.9575 79.2878,82.7908 77.5,80.5C 72.2945,83.2969 67.2945,82.9636 62.5,79.5C 61.846,77.8849 61.346,76.2182 61,74.5C 55.0186,80.5733 47.852,82.74 39.5,81C 38.8742,80.2496 38.3742,79.4162 38,78.5C 37.3333,73.1667 37.3333,67.8333 38,62.5C 40.8522,60.6648 43.6855,58.8315 46.5,57C 34.5151,46.0072 21.1818,37.0072 6.5,30C 0.591741,25.8632 -1.07493,20.3632 1.5,13.5C 4.59496,11.9095 7.26162,9.7428 9.5,7C 19.2713,3.95373 23.7713,7.45373 23,17.5C 23.5,18 24,18.5 24.5,19C 28.4159,20.1024 32.4159,20.769 36.5,21C 45.8018,25.9853 55.1351,30.9853 64.5,36C 65.4533,37.9552 66.7866,39.6218 68.5,41C 73.0006,43.4159 77.3339,46.0825 81.5,49C 83.7515,52.1676 85.7515,55.5009 87.5,59C 91.6867,60.9249 95.6867,63.0916 99.5,65.5 Z"/></g>
<g><path style="opacity:1" fill="#4d5352" d="M 16.5,22.5 C 19.2028,24.1807 21.8695,25.8474 24.5,27.5C 24.1583,28.3382 23.4916,28.6716 22.5,28.5C 21.8333,28.1667 21.1667,27.8333 20.5,27.5C 17.5907,25.7814 14.7573,23.7814 12,21.5C 11.3333,20.5 11.3333,19.5 12,18.5C 13.1653,20.7275 14.6653,22.0609 16.5,22.5 Z"/></g>
<g><path style="opacity:0.827" fill="#1f2020" d="M 16.5,22.5 C 14.6653,22.0609 13.1653,20.7275 12,18.5C 11.3333,19.5 11.3333,20.5 12,21.5C 14.7573,23.7814 17.5907,25.7814 20.5,27.5C 20.1205,28.1331 19.7871,28.7997 19.5,29.5C 15.8333,27.3333 12.1667,25.1667 8.5,23C 9.72703,21.4126 9.3937,20.0793 7.5,19C 10.6667,18.5 12.5,16.6667 13,13.5C 15.9071,15.7334 17.0738,18.7334 16.5,22.5 Z"/></g>
<g><path style="opacity:0.971" fill="#212526" d="M 24.5,27.5 C 29.1181,29.8148 33.4514,32.6482 37.5,36C 35.7445,36.1405 34.0778,35.6405 32.5,34.5C 32.1667,35.1667 31.8333,35.8333 31.5,36.5C 28.2808,34.1058 24.9475,31.9392 21.5,30C 22.056,29.6174 22.3893,29.1174 22.5,28.5C 23.4916,28.6716 24.1583,28.3382 24.5,27.5 Z"/></g>
<g><path style="opacity:1" fill="#2d3031" d="M 43.5,32.5 C 42.2223,32.7822 41.2223,33.4489 40.5,34.5C 36.6651,32.1974 32.6651,30.0308 28.5,28C 29.1667,27.3333 29.8333,26.6667 30.5,26C 34.4141,26.8883 37.5808,29.055 40,32.5C 41.2917,31.2089 42.4583,31.2089 43.5,32.5 Z"/></g>
<g><path style="opacity:1" fill="#3a2218" d="M 43.5,32.5 C 46.328,34.7481 49.328,36.7481 52.5,38.5C 52.0825,39.2216 51.4158,39.7216 50.5,40C 52.5218,42.0218 54.5218,44.0218 56.5,46C 55.9561,47.585 55.2894,49.085 54.5,50.5C 51.4594,50.5944 49.7928,49.0944 49.5,46C 45.9961,44.0823 42.6628,41.9157 39.5,39.5C 40.3094,37.9291 40.6427,36.2624 40.5,34.5C 41.2223,33.4489 42.2223,32.7822 43.5,32.5 Z"/></g>
<g><path style="opacity:1" fill="#373f42" d="M 52.5,38.5 C 57.0006,38.7372 60.0006,40.9039 61.5,45C 65.0292,47.0603 68.3626,49.227 71.5,51.5C 70.2617,51.81 70.2617,52.31 71.5,53C 72.4368,53.6917 73.1034,53.525 73.5,52.5C 77.7356,53.9625 79.7356,56.9625 79.5,61.5C 78.6554,62.6715 77.9887,64.0048 77.5,65.5C 75.2459,64.5849 73.2459,63.2516 71.5,61.5C 72.0253,60.8076 72.6919,60.3076 73.5,60C 71.481,59.5503 69.6477,58.717 68,57.5C 67.6667,58.1667 67.3333,58.8333 67,59.5C 66.6012,59.2716 66.4346,58.9382 66.5,58.5C 66.33,57.1779 66.6634,56.0113 67.5,55C 65.8654,54.4604 64.5321,54.9604 63.5,56.5C 62.1401,55.8201 60.8068,55.1534 59.5,54.5C 57.8333,53.1667 56.1667,51.8333 54.5,50.5C 55.2894,49.085 55.9561,47.585 56.5,46C 54.5218,44.0218 52.5218,42.0218 50.5,40C 51.4158,39.7216 52.0825,39.2216 52.5,38.5 Z"/></g>
<g><path style="opacity:0.984" fill="#959a9c" d="M 71.5,51.5 C 72.1667,51.8333 72.8333,52.1667 73.5,52.5C 73.1034,53.525 72.4368,53.6917 71.5,53C 70.2617,52.31 70.2617,51.81 71.5,51.5 Z"/></g>
<g><path style="opacity:1" fill="#2a3030" d="M 59.5,54.5 C 60.8068,55.1534 62.1401,55.8201 63.5,56.5C 64.5321,54.9604 65.8654,54.4604 67.5,55C 66.6634,56.0113 66.33,57.1779 66.5,58.5C 64.1582,58.7748 64.1582,59.6081 66.5,61C 61.916,63.5797 57.916,66.9131 54.5,71C 51.5875,72.3726 48.7542,73.8726 46,75.5C 45.4978,72.4869 44.9978,69.4869 44.5,66.5C 45.552,66.6495 46.552,66.4828 47.5,66C 52.0552,62.6087 56.0552,58.7754 59.5,54.5 Z"/></g>
<g><path style="opacity:1" fill="#452719" d="M 79.5,61.5 C 83.3362,64.9208 87.6695,67.5875 92.5,69.5C 92.9867,70.4461 93.3201,71.4461 93.5,72.5C 92.3364,75.495 91.1697,78.495 90,81.5C 86.9976,75.1126 82.831,69.7792 77.5,65.5C 77.9887,64.0048 78.6554,62.6715 79.5,61.5 Z"/></g>
</svg>
