<?xml version="1.0" encoding="UTF-8"?>
<!DOCTYPE svg PUBLIC "-//W3C//DTD SVG 1.1//EN" "http://www.w3.org/Graphics/SVG/1.1/DTD/svg11.dtd">
<svg xmlns="http://www.w3.org/2000/svg" version="1.1" width="100px" height="100px" style="shape-rendering:geometricPrecision; text-rendering:geometricPrecision; image-rendering:optimizeQuality; fill-rule:evenodd; clip-rule:evenodd" xmlns:xlink="http://www.w3.org/1999/xlink">
<g><path style="opacity:0.157" fill="#030305" d="M 70.5,25.5 C 84.4111,22.9116 90.2445,28.5782 88,42.5C 87.4169,44.0016 86.5836,45.3349 85.5,46.5C 74.289,52.2723 62.9557,57.7723 51.5,63C 43.0973,72.0316 32.764,75.6983 20.5,74C 12.9725,70.4422 9.63915,64.4422 10.5,56C 9.32506,47.3237 12.9917,42.3237 21.5,41C 38.7725,38.5189 55.1059,33.3523 70.5,25.5 Z"/></g>
<g><path style="opacity:0.993" fill="#262d37" d="M 48.5,52.5 C 49.6602,50.7973 48.9935,50.1307 46.5,50.5C 46.8417,49.6618 47.5084,49.3284 48.5,49.5C 51.5549,48.4764 54.5549,47.1431 57.5,45.5C 61.3127,39.9723 66.4794,37.9723 73,39.5C 75.1114,39.2994 76.9448,38.6327 78.5,37.5C 79.7666,36.913 80.7666,36.913 81.5,37.5C 80.6798,39.1112 79.3464,39.7778 77.5,39.5C 77.719,40.675 77.3857,41.675 76.5,42.5C 68.1035,47.0308 59.4369,51.0308 50.5,54.5C 49.3044,54.1543 49.3044,53.6543 50.5,53C 49.9056,52.5357 49.2389,52.369 48.5,52.5 Z"/></g>
<g><path style="opacity:1" fill="#141a21" d="M 78.5,37.5 C 76.9448,38.6327 75.1114,39.2994 73,39.5C 66.4794,37.9723 61.3127,39.9723 57.5,45.5C 54.5549,47.1431 51.5549,48.4764 48.5,49.5C 49.5092,48.0609 49.1759,46.7276 47.5,45.5C 51.4601,43.8482 55.4601,42.5149 59.5,41.5C 59.33,40.1779 59.6634,39.0113 60.5,38C 62.8884,37.6966 65.0551,36.8633 67,35.5C 69.1008,36.6145 71.2675,36.6145 73.5,35.5C 75.1772,36.1869 76.8439,36.8535 78.5,37.5 Z"/></g>
<g><path style="opacity:1" fill="#394d63" d="M 28.5,53.5 C 25.7212,53.7214 23.0545,53.388 20.5,52.5C 20.8656,51.3054 21.699,50.6387 23,50.5C 25.2961,50.8588 27.1295,51.8588 28.5,53.5 Z"/></g>
<g><path style="opacity:1" fill="#5a6276" d="M 44.5,49.5 C 44.8417,50.3382 45.5084,50.6716 46.5,50.5C 48.9935,50.1307 49.6602,50.7973 48.5,52.5C 44.723,55.2046 40.723,57.538 36.5,59.5C 35.5489,58.0813 35.2155,56.4147 35.5,54.5C 36.391,53.8902 37.391,53.5569 38.5,53.5C 40.9158,56.3083 42.9158,55.975 44.5,52.5C 43.3473,51.3132 43.3473,50.3132 44.5,49.5 Z"/></g>
<g><path style="opacity:1" fill="#2e3440" d="M 44.5,49.5 C 43.3473,50.3132 43.3473,51.3132 44.5,52.5C 42.9158,55.975 40.9158,56.3083 38.5,53.5C 39.287,51.8958 40.6203,51.2291 42.5,51.5C 42.6495,50.448 42.4828,49.448 42,48.5C 41.1072,49.7112 40.2739,49.7112 39.5,48.5C 41.8631,45.5395 43.5298,45.8728 44.5,49.5 Z"/></g>
<g><path style="opacity:1" fill="#b7bec6" d="M 20.5,52.5 C 23.0545,53.388 25.7212,53.7214 28.5,53.5C 26.2573,54.0838 24.2573,55.2505 22.5,57C 26.2497,58.7604 25.9163,60.2604 21.5,61.5C 19.4833,58.7327 19.1499,55.7327 20.5,52.5 Z"/></g>
<g><path style="opacity:1" fill="#465264" d="M 28.5,53.5 C 29.4822,54.1408 30.4822,54.8075 31.5,55.5C 32.7362,54.7542 34.0695,54.4208 35.5,54.5C 35.2155,56.4147 35.5489,58.0813 36.5,59.5C 37.648,60.1641 38.9813,60.3308 40.5,60C 37.4605,61.0314 34.9605,62.8647 33,65.5C 32.6667,63.5 32.3333,61.5 32,59.5C 31.5075,64.7106 29.0075,66.544 24.5,65C 23.2899,63.9609 22.2899,62.7942 21.5,61.5C 25.9163,60.2604 26.2497,58.7604 22.5,57C 24.2573,55.2505 26.2573,54.0838 28.5,53.5 Z"/></g>
<g><path style="opacity:1" fill="#c8cbd5" d="M 28.5,55.5 C 31.3231,58.2501 31.1564,60.9168 28,63.5C 26.4167,61.7978 26.9167,60.4644 29.5,59.5C 27.4197,58.4718 27.0864,57.1385 28.5,55.5 Z"/></g>
</svg>
