<?xml version="1.0" encoding="UTF-8"?>
<!DOCTYPE svg PUBLIC "-//W3C//DTD SVG 1.1//EN" "http://www.w3.org/Graphics/SVG/1.1/DTD/svg11.dtd">
<svg xmlns="http://www.w3.org/2000/svg" version="1.1" width="100px" height="100px" style="shape-rendering:geometricPrecision; text-rendering:geometricPrecision; image-rendering:optimizeQuality; fill-rule:evenodd; clip-rule:evenodd" xmlns:xlink="http://www.w3.org/1999/xlink">
<g><path style="opacity:0.137" fill="#030302" d="M 99.5,40.5 C 99.5,48.5 99.5,56.5 99.5,64.5C 98.6087,66.2905 97.6087,68.1239 96.5,70C 92.9015,71.0139 89.2348,71.8473 85.5,72.5C 83.9205,75.9939 82.0872,79.3272 80,82.5C 75.1768,85.8305 70.0101,86.3305 64.5,84C 62.5965,81.1226 61.5965,77.9559 61.5,74.5C 53.2862,74.1993 49.9529,69.8659 51.5,61.5C 49.4357,61.313 47.4357,60.813 45.5,60C 44.2718,57.8601 42.6051,56.1934 40.5,55C 35.4279,54.3216 30.4279,53.3216 25.5,52C 22.847,50.345 20.5136,48.345 18.5,46C 13.7899,45.6249 9.12321,44.9582 4.5,44C 1.88698,42.8935 0.220313,41.0601 -0.5,38.5C -0.5,35.8333 -0.5,33.1667 -0.5,30.5C 0.218865,28.9087 1.21886,27.4087 2.5,26C 6.39514,24.7338 10.3951,24.2338 14.5,24.5C 13.5277,17.4792 16.5277,13.8125 23.5,13.5C 25.7759,14.2132 28.1093,14.7132 30.5,15C 32.8688,17.5702 34.8688,20.4036 36.5,23.5C 39.1546,20.5072 42.4879,19.1739 46.5,19.5C 56.5656,21.3496 66.5656,23.5163 76.5,26C 78.1048,28.5428 79.4381,31.2095 80.5,34C 85.4688,35.4603 90.4688,36.7936 95.5,38C 96.9839,38.6622 98.3172,39.4955 99.5,40.5 Z"/></g>
<g><path style="opacity:1" fill="#3f3a31" d="M 27.5,25.5 C 29.0753,27.6451 30.4086,29.9785 31.5,32.5C 30.8444,34.4534 30.5111,36.4534 30.5,38.5C 28.2655,38.3801 26.0989,38.7135 24,39.5C 22.7104,37.646 21.2104,37.3127 19.5,38.5C 18.3044,38.1543 18.3044,37.6543 19.5,37C 17.1526,36.5639 14.8193,36.0639 12.5,35.5C 7.34587,38.313 6.6792,37.813 10.5,34C 9.54943,33.2825 9.38277,32.4491 10,31.5C 11.9427,33.5657 14.1094,33.8991 16.5,32.5C 18.3365,33.9333 20.3365,34.4333 22.5,34C 21.4844,33.4806 20.8178,32.6473 20.5,31.5C 20.9302,27.6662 21.7636,23.9995 23,20.5C 25.6724,21.1615 27.1724,22.8281 27.5,25.5 Z"/></g>
<g><path style="opacity:0.495" fill="#090705" d="M 27.5,25.5 C 27.3305,27.912 27.9972,30.0786 29.5,32C 29.1667,32.5 28.8333,33 28.5,33.5C 27.1502,32.0499 25.4835,31.3832 23.5,31.5C 24.4196,29.1191 24.4196,26.7857 23.5,24.5C 23.8333,24.1667 24.1667,23.8333 24.5,23.5C 25.5178,24.1925 26.5178,24.8592 27.5,25.5 Z"/></g>
<g><path style="opacity:1" fill="#5e564a" d="M 71.5,41.5 C 70.1266,41.3433 68.7932,41.51 67.5,42C 68.056,42.3826 68.3893,42.8826 68.5,43.5C 57.1841,41.8153 45.8507,40.1486 34.5,38.5C 33.5448,36.2543 32.8782,33.921 32.5,31.5C 35.2048,31.3802 35.8715,32.3802 34.5,34.5C 35.09,35.7989 36.09,36.6322 37.5,37C 42.1486,38.463 46.8153,38.6297 51.5,37.5C 46.8412,36.6304 42.1745,35.7971 37.5,35C 37.0426,34.586 36.7093,34.086 36.5,33.5C 38.1082,32.7579 39.7749,32.5913 41.5,33C 43.2929,31.2201 44.9596,29.3868 46.5,27.5C 55.1606,29.6314 63.8272,31.6314 72.5,33.5C 71.9084,36.1272 71.5751,38.7938 71.5,41.5 Z"/></g>
<g><path style="opacity:0.449" fill="#070605" d="M 46.5,29.5 C 53.7384,31.4757 61.0717,33.1424 68.5,34.5C 68.6602,36.1992 68.4935,37.8659 68,39.5C 62.5905,37.9395 57.0905,36.6062 51.5,35.5C 50.3527,35.1822 49.5194,34.5156 49,33.5C 47.6439,34.3802 46.1439,34.7135 44.5,34.5C 44.3915,32.4862 45.0582,30.8195 46.5,29.5 Z"/></g>
<g><path style="opacity:1" fill="#25221f" d="M 34.5,38.5 C 45.8507,40.1486 57.1841,41.8153 68.5,43.5C 70.1788,43.7148 71.1788,43.0481 71.5,41.5C 78.6026,41.2814 85.2693,42.6147 91.5,45.5C 90.8478,46.7251 89.6811,47.3917 88,47.5C 82.1949,46.3358 76.3616,45.8358 70.5,46C 71.1667,46.3333 71.8333,46.6667 72.5,47C 71.252,48.3997 70.252,49.8997 69.5,51.5C 64.058,49.7627 58.558,48.096 53,46.5C 50.8704,43.6826 48.2037,42.6826 45,43.5C 44.6924,42.6919 44.1924,42.0253 43.5,41.5C 41.6318,41.9461 39.7985,42.2795 38,42.5C 36.3732,41.4677 35.2066,40.1344 34.5,38.5 Z"/></g>
<g><path style="opacity:1" fill="#bfb6a5" d="M 71.5,41.5 C 71.1788,43.0481 70.1788,43.7148 68.5,43.5C 68.3893,42.8826 68.056,42.3826 67.5,42C 68.7932,41.51 70.1266,41.3433 71.5,41.5 Z"/></g>
<g><path style="opacity:0.608" fill="#161513" d="M 86.5,61.5 C 88.9327,61.2144 88.9327,60.5477 86.5,59.5C 81.6463,53.9471 77.8129,54.6137 75,61.5C 74.7216,60.5842 74.2216,59.9175 73.5,59.5C 74.0283,58.2794 74.695,57.1127 75.5,56C 74.6634,54.9887 74.33,53.8221 74.5,52.5C 75.1174,52.3893 75.6174,52.056 76,51.5C 77.3957,53.5268 79.0624,53.8602 81,52.5C 82.7889,54.229 84.9556,54.8957 87.5,54.5C 87.67,53.1779 87.3366,52.0113 86.5,51C 87.448,50.5172 88.448,50.3505 89.5,50.5C 89.238,51.9778 89.5713,53.3112 90.5,54.5C 91.7472,52.9936 91.7472,51.4936 90.5,50C 85.2104,48.6957 79.8771,47.5291 74.5,46.5C 74.1667,46.8333 73.8333,47.1667 73.5,47.5C 74.376,48.2508 75.376,48.7508 76.5,49C 74.9443,49.7202 73.9443,50.8868 73.5,52.5C 72.0379,53.4709 70.7046,53.1376 69.5,51.5C 70.252,49.8997 71.252,48.3997 72.5,47C 71.8333,46.6667 71.1667,46.3333 70.5,46C 76.3616,45.8358 82.1949,46.3358 88,47.5C 89.6811,47.3917 90.8478,46.7251 91.5,45.5C 91.81,44.2617 92.31,44.2617 93,45.5C 93.9516,51.2888 93.1183,56.7888 90.5,62C 91.4925,64.4213 90.4925,65.0879 87.5,64C 86.7476,63.3292 86.4142,62.4959 86.5,61.5 Z"/></g>
<g><path style="opacity:1" fill="#4a4237" d="M 74.5,52.5 C 74.1667,52.5 73.8333,52.5 73.5,52.5C 73.9443,50.8868 74.9443,49.7202 76.5,49C 75.376,48.7508 74.376,48.2508 73.5,47.5C 73.8333,47.1667 74.1667,46.8333 74.5,46.5C 79.8771,47.5291 85.2104,48.6957 90.5,50C 91.7472,51.4936 91.7472,52.9936 90.5,54.5C 89.5713,53.3112 89.238,51.9778 89.5,50.5C 88.448,50.3505 87.448,50.5172 86.5,51C 87.3366,52.0113 87.67,53.1779 87.5,54.5C 84.9556,54.8957 82.7889,54.229 81,52.5C 79.0624,53.8602 77.3957,53.5268 76,51.5C 75.6174,52.056 75.1174,52.3893 74.5,52.5 Z"/></g>
<g><path style="opacity:0.996" fill="#f0eade" d="M 85.5,60.5 C 85.5,59.8333 85.8333,59.5 86.5,59.5C 88.9327,60.5477 88.9327,61.2144 86.5,61.5C 86.5,60.8333 86.1667,60.5 85.5,60.5 Z"/></g>
<g><path style="opacity:0.925" fill="#3f3b38" d="M 86.5,59.5 C 85.8333,59.5 85.5,59.8333 85.5,60.5C 84.2101,59.9423 83.3768,58.9423 83,57.5C 81.4833,61.0457 80.15,64.7124 79,68.5C 77,71.8333 75,75.1667 73,78.5C 71.2188,75.6666 69.7188,72.6666 68.5,69.5C 70.705,66.4234 72.3716,63.0901 73.5,59.5C 74.2216,59.9175 74.7216,60.5842 75,61.5C 77.8129,54.6137 81.6463,53.9471 86.5,59.5 Z"/></g>
</svg>
