<?xml version="1.0" encoding="UTF-8"?>
<!DOCTYPE svg PUBLIC "-//W3C//DTD SVG 1.1//EN" "http://www.w3.org/Graphics/SVG/1.1/DTD/svg11.dtd">
<svg xmlns="http://www.w3.org/2000/svg" version="1.1" width="100px" height="100px" style="shape-rendering:geometricPrecision; text-rendering:geometricPrecision; image-rendering:optimizeQuality; fill-rule:evenodd; clip-rule:evenodd" xmlns:xlink="http://www.w3.org/1999/xlink">
<g><path style="opacity:0.081" fill="#030202" d="M 23.5,14.5 C 28.5111,14.3341 33.5111,14.5007 38.5,15C 47.0948,15.6472 49.9282,20.1472 47,28.5C 45.5648,30.2113 43.7314,31.378 41.5,32C 54,44.5 66.5,57 79,69.5C 83.1059,75.8722 83.9392,82.5389 81.5,89.5C 77.4298,90.9179 73.4298,90.7512 69.5,89C 52.6956,71.1951 35.5289,53.6951 18,36.5C 15.4728,30.9374 15.1394,25.2707 17,19.5C 18.8049,17.1743 20.9716,15.5077 23.5,14.5 Z"/></g>
<g><path style="opacity:1" fill="#aeb9a6" d="M 25.5,24.5 C 24.8333,24.5 24.1667,24.5 23.5,24.5C 23.9528,23.5416 24.6195,22.7083 25.5,22C 27.433,21.7489 29.2663,21.2489 31,20.5C 35.1607,21.6616 38.994,22.6616 42.5,23.5C 38.3411,24.1786 34.1745,23.8453 30,22.5C 28.167,22.5186 26.667,23.1852 25.5,24.5 Z"/></g>
<g><path style="opacity:1" fill="#4c5b56" d="M 23.5,24.5 C 24.1667,24.5 24.8333,24.5 25.5,24.5C 25.3893,25.1174 25.056,25.6174 24.5,26C 25.9993,28.3279 27.666,30.4946 29.5,32.5C 29.1667,33.1667 28.8333,33.8333 28.5,34.5C 24.1445,32.4559 22.4779,29.1226 23.5,24.5 Z"/></g>
<g><path style="opacity:1" fill="#571c1a" d="M 29.5,32.5 C 30.2389,32.369 30.9056,32.5357 31.5,33C 44.7207,47.3775 58.5541,61.2108 73,74.5C 73.7648,77.1959 74.9315,79.6959 76.5,82C 76,82.5 75.5,83 75,83.5C 73.9563,82.3774 73.2896,81.0441 73,79.5C 67.6667,74.5 62.3333,69.5 57,64.5C 50.0271,56.1938 42.3604,48.5271 34,41.5C 32.1581,39.1364 30.3247,36.8031 28.5,34.5C 28.8333,33.8333 29.1667,33.1667 29.5,32.5 Z"/></g>
</svg>
