<?xml version="1.0" encoding="UTF-8"?>
<!DOCTYPE svg PUBLIC "-//W3C//DTD SVG 1.1//EN" "http://www.w3.org/Graphics/SVG/1.1/DTD/svg11.dtd">
<svg xmlns="http://www.w3.org/2000/svg" version="1.1" width="100px" height="100px" style="shape-rendering:geometricPrecision; text-rendering:geometricPrecision; image-rendering:optimizeQuality; fill-rule:evenodd; clip-rule:evenodd" xmlns:xlink="http://www.w3.org/1999/xlink">
<g><path style="opacity:0.021" fill="#000000" d="M 27.5,18.5 C 27.162,20.854 26.662,23.1873 26,25.5C 24.9887,26.3366 23.8221,26.67 22.5,26.5C 23.0746,23.0514 24.7413,20.3848 27.5,18.5 Z"/></g>
<g><path style="opacity:0.095" fill="#040404" d="M 32.5,18.5 C 34.1132,18.9443 35.2798,19.9443 36,21.5C 36.5428,24.8678 36.3761,28.2011 35.5,31.5C 34.5,31.5 33.5,31.5 32.5,31.5C 31.5,30.5 30.5,29.5 29.5,28.5C 29.0825,27.7784 28.4158,27.2784 27.5,27C 28.8081,24.6451 29.8081,22.1451 30.5,19.5C 30.9106,20.2624 31.0773,21.2624 31,22.5C 32.1882,21.4366 32.6882,20.1033 32.5,18.5 Z"/></g>
<g><path style="opacity:0.708" fill="#484848" d="M 32.5,18.5 C 32.6882,20.1033 32.1882,21.4366 31,22.5C 31.0773,21.2624 30.9106,20.2624 30.5,19.5C 29.8081,22.1451 28.8081,24.6451 27.5,27C 28.4158,27.2784 29.0825,27.7784 29.5,28.5C 28.7377,30.2624 27.4044,31.2624 25.5,31.5C 23.6208,30.6586 21.6208,30.3253 19.5,30.5C 20.1667,29.5 20.8333,28.5 21.5,27.5C 21.5,26.8333 21.8333,26.5 22.5,26.5C 23.8221,26.67 24.9887,26.3366 26,25.5C 26.662,23.1873 27.162,20.854 27.5,18.5C 28.4822,17.8592 29.4822,17.1925 30.5,16.5C 31.1818,17.2427 31.8485,17.9094 32.5,18.5 Z"/></g>
<g><path style="opacity:0.012" fill="#020202" d="M 21.5,27.5 C 20.8333,28.5 20.1667,29.5 19.5,30.5C 18.7659,31.7079 18.4326,33.0413 18.5,34.5C 17.609,33.8902 16.609,33.5569 15.5,33.5C 17.0772,30.9501 19.0772,28.9501 21.5,27.5 Z"/></g>
<g><path style="opacity:0.044" fill="#050606" d="M 71.5,31.5 C 73.0174,31.5106 74.1841,32.1772 75,33.5C 75.4966,35.8098 75.6633,38.1432 75.5,40.5C 70.3466,43.2932 69.3466,41.9598 72.5,36.5C 69.972,35.4826 69.972,34.3159 72.5,33C 71.944,32.6174 71.6107,32.1174 71.5,31.5 Z"/></g>
<g><path style="opacity:1" fill="#989898" d="M 19.5,30.5 C 21.6208,30.3253 23.6208,30.6586 25.5,31.5C 25.5,32.1667 25.5,32.8333 25.5,33.5C 24.5,34.8333 23.5,34.8333 22.5,33.5C 21.0413,33.4326 19.7079,33.7659 18.5,34.5C 18.4326,33.0413 18.7659,31.7079 19.5,30.5 Z"/></g>
<g><path style="opacity:0.231" fill="#000000" d="M 5.5,33.5 C 5.16667,36.5 6.5,37.8333 9.5,37.5C 9.83333,37.5 10.1667,37.5 10.5,37.5C 12.3432,38.2829 14.3432,38.9495 16.5,39.5C 17.1676,42.3056 17.8343,44.9723 18.5,47.5C 18.427,49.0269 19.0937,50.0269 20.5,50.5C 22.6055,51.8189 24.6055,51.4856 26.5,49.5C 31.4813,51.3261 36.4813,52.9928 41.5,54.5C 42.7496,61.0013 44.083,67.5013 45.5,74C 46.3367,75.587 47.6701,76.4204 49.5,76.5C 59.7364,73.2092 63.4031,66.2092 60.5,55.5C 62.0708,52.9066 64.4041,51.9066 67.5,52.5C 67.1179,55.6463 67.1179,58.6463 67.5,61.5C 65.8848,66.0129 63.8848,70.3462 61.5,74.5C 61.6236,75.1067 61.9569,75.44 62.5,75.5C 64.5273,77.0881 66.8606,77.5881 69.5,77C 72.3563,71.785 74.523,66.285 76,60.5C 76.3826,61.056 76.8826,61.3893 77.5,61.5C 77.5,62.1667 77.5,62.8333 77.5,63.5C 78.5203,64.9538 79.687,65.2871 81,64.5C 81.3095,65.7659 81.8095,66.9326 82.5,68C 84.5213,68.1402 86.3547,68.3068 88,68.5C 90.2889,63.6854 92.1222,58.6854 93.5,53.5C 94.1495,51.5648 94.4828,49.5648 94.5,47.5C 97.7356,48.7944 99.0689,51.2944 98.5,55C 97.0809,61.927 95.2476,68.7604 93,75.5C 91.1766,77.167 89.01,78.167 86.5,78.5C 83.4701,77.6578 80.4701,77.1578 77.5,77C 74.0443,88.4501 67.3776,90.6168 57.5,83.5C 52.5524,87.0645 47.5524,87.2312 42.5,84C 40.2641,76.9912 38.5975,69.8245 37.5,62.5C 30.9342,61.0324 24.2675,60.199 17.5,60C 14.5843,56.7669 12.9176,52.9336 12.5,48.5C 9.28695,47.5731 6.12028,46.5731 3,45.5C 1.68152,42.594 1.34819,39.594 2,36.5C 2.42244,34.5743 3.5891,33.5743 5.5,33.5 Z"/></g>
<g><path style="opacity:0.522" fill="#373737" d="M 6.5,32.5 C 8.74085,33.2998 9.74085,34.9664 9.5,37.5C 6.5,37.8333 5.16667,36.5 5.5,33.5C 5.5,32.8333 5.83333,32.5 6.5,32.5 Z"/></g>
<g><path style="opacity:1" fill="#777778" d="M 6.5,32.5 C 9.41222,31.8652 12.4122,32.1985 15.5,33.5C 16.609,33.5569 17.609,33.8902 18.5,34.5C 17.0473,34.9293 15.3806,35.096 13.5,35C 12.1667,35.6667 12.1667,36.3333 13.5,37C 12.552,37.4828 11.552,37.6495 10.5,37.5C 10.1667,37.5 9.83333,37.5 9.5,37.5C 9.74085,34.9664 8.74085,33.2998 6.5,32.5 Z"/></g>
<g><path style="opacity:0.91" fill="#767779" d="M 32.5,31.5 C 33.5,31.5 34.5,31.5 35.5,31.5C 39.1974,32.0078 42.8641,32.6745 46.5,33.5C 46.6107,34.1174 46.944,34.6174 47.5,35C 41.2949,35.4747 35.2949,34.6413 29.5,32.5C 30.325,31.6143 31.325,31.281 32.5,31.5 Z"/></g>
<g><path style="opacity:0.763" fill="#7d7d7e" d="M 55.5,33.5 C 54.3406,35.2503 52.674,36.2503 50.5,36.5C 49.7611,36.631 49.0944,36.4643 48.5,36C 49.2524,35.3292 49.5858,34.4959 49.5,33.5C 51.2044,32.7336 53.2044,32.7336 55.5,33.5 Z"/></g>
<g><path style="opacity:0.758" fill="#262627" d="M 22.5,33.5 C 24.4964,36.8409 23.6631,39.1743 20,40.5C 19.6667,40.1667 19.3333,39.8333 19,39.5C 18.5026,42.146 18.3359,44.8127 18.5,47.5C 17.8343,44.9723 17.1676,42.3056 16.5,39.5C 14.3432,38.9495 12.3432,38.2829 10.5,37.5C 11.552,37.6495 12.552,37.4828 13.5,37C 12.1667,36.3333 12.1667,35.6667 13.5,35C 15.3806,35.096 17.0473,34.9293 18.5,34.5C 19.7079,33.7659 21.0413,33.4326 22.5,33.5 Z"/></g>
<g><path style="opacity:0.999" fill="#494949" d="M 22.5,33.5 C 23.5,34.8333 24.5,34.8333 25.5,33.5C 25.9234,34.2646 26.2568,35.0979 26.5,36C 24.6262,39.9387 23.6262,44.1053 23.5,48.5C 23.0269,49.9063 22.0269,50.573 20.5,50.5C 19.0937,50.0269 18.427,49.0269 18.5,47.5C 18.3359,44.8127 18.5026,42.146 19,39.5C 19.3333,39.8333 19.6667,40.1667 20,40.5C 23.6631,39.1743 24.4964,36.8409 22.5,33.5 Z"/></g>
<g><path style="opacity:1" fill="#545455" d="M 51.5,42.5 C 53.2646,43.4614 55.2646,43.7947 57.5,43.5C 57.5,44.5 57.5,45.5 57.5,46.5C 55.901,46.2322 54.5676,46.5655 53.5,47.5C 47.8479,44.7536 41.8479,43.2536 35.5,43C 33.4839,42.1005 31.8172,40.7672 30.5,39C 37.6005,39.4185 44.6005,40.5852 51.5,42.5 Z"/></g>
<g><path style="opacity:0.869" fill="#242424" d="M 56.5,39.5 C 55.2166,42.3776 56.0499,43.0443 59,41.5C 62.4564,41.741 64.7897,43.4076 66,46.5C 66.3076,45.6919 66.8076,45.0253 67.5,44.5C 68.0522,46.0026 68.0522,47.6693 67.5,49.5C 69.8984,49.2594 71.8984,49.9261 73.5,51.5C 71.5,51.5 69.5,51.5 67.5,51.5C 62.9326,49.7872 58.2659,48.4539 53.5,47.5C 54.5676,46.5655 55.901,46.2322 57.5,46.5C 57.5,45.5 57.5,44.5 57.5,43.5C 55.2646,43.7947 53.2646,43.4614 51.5,42.5C 49.8998,41.3556 48.2331,40.1889 46.5,39C 49.9174,39.4498 53.2507,39.6164 56.5,39.5 Z"/></g>
<g><path style="opacity:0.998" fill="#373737" d="M 29.5,28.5 C 30.5,29.5 31.5,30.5 32.5,31.5C 31.325,31.281 30.325,31.6143 29.5,32.5C 35.2949,34.6413 41.2949,35.4747 47.5,35C 46.944,34.6174 46.6107,34.1174 46.5,33.5C 47.5,33.5 48.5,33.5 49.5,33.5C 49.5858,34.4959 49.2524,35.3292 48.5,36C 49.0944,36.4643 49.7611,36.631 50.5,36.5C 52.8439,36.9397 54.8439,37.9397 56.5,39.5C 53.2507,39.6164 49.9174,39.4498 46.5,39C 48.2331,40.1889 49.8998,41.3556 51.5,42.5C 44.6005,40.5852 37.6005,39.4185 30.5,39C 31.8172,40.7672 33.4839,42.1005 35.5,43C 41.8479,43.2536 47.8479,44.7536 53.5,47.5C 58.2659,48.4539 62.9326,49.7872 67.5,51.5C 61.6304,51.3032 55.9638,51.6366 50.5,52.5C 49.7281,53.6935 48.7281,54.6935 47.5,55.5C 47.1753,53.8684 46.1753,52.8684 44.5,52.5C 39.8025,51.1008 35.1358,49.6008 30.5,48C 33.6754,46.4229 34.0088,44.5896 31.5,42.5C 30.2888,43.2739 30.2888,44.1072 31.5,45C 28.928,46.4543 26.2614,47.6209 23.5,48.5C 23.6262,44.1053 24.6262,39.9387 26.5,36C 26.2568,35.0979 25.9234,34.2646 25.5,33.5C 25.5,32.8333 25.5,32.1667 25.5,31.5C 27.4044,31.2624 28.7377,30.2624 29.5,28.5 Z"/></g>
<g><path style="opacity:1" fill="#4e4f51" d="M 71.5,31.5 C 71.6107,32.1174 71.944,32.6174 72.5,33C 69.972,34.3159 69.972,35.4826 72.5,36.5C 69.3466,41.9598 70.3466,43.2932 75.5,40.5C 79.463,41.0722 83.1296,42.4055 86.5,44.5C 87.086,44.2907 87.586,43.9574 88,43.5C 89.9317,45.3001 92.0984,46.6335 94.5,47.5C 94.4828,49.5648 94.1495,51.5648 93.5,53.5C 92.1266,53.6567 90.7932,53.49 89.5,53C 88.9389,51.324 87.9389,49.9906 86.5,49C 83.57,48.3937 80.7367,47.5604 78,46.5C 77.5,47 77,47.5 76.5,48C 78.4357,48.813 80.4357,49.313 82.5,49.5C 80.0877,51.162 77.2544,52.162 74,52.5C 73.6012,52.2716 73.4346,51.9382 73.5,51.5C 71.8984,49.9261 69.8984,49.2594 67.5,49.5C 68.0522,47.6693 68.0522,46.0026 67.5,44.5C 66.8076,45.0253 66.3076,45.6919 66,46.5C 64.7897,43.4076 62.4564,41.741 59,41.5C 56.0499,43.0443 55.2166,42.3776 56.5,39.5C 54.8439,37.9397 52.8439,36.9397 50.5,36.5C 52.674,36.2503 54.3406,35.2503 55.5,33.5C 57.8157,34.1599 60.149,34.8266 62.5,35.5C 64.6195,33.6002 66.9528,31.9336 69.5,30.5C 70.4164,30.5427 71.0831,30.8761 71.5,31.5 Z"/></g>
<g><path style="opacity:0.992" fill="#1f1f1f" d="M 47.5,55.5 C 46.8826,55.6107 46.3826,55.944 46,56.5C 45.0094,55.0611 43.676,54.0611 42,53.5C 41.6012,53.7284 41.4346,54.0618 41.5,54.5C 36.4813,52.9928 31.4813,51.3261 26.5,49.5C 24.6055,51.4856 22.6055,51.8189 20.5,50.5C 22.0269,50.573 23.0269,49.9063 23.5,48.5C 26.2614,47.6209 28.928,46.4543 31.5,45C 30.2888,44.1072 30.2888,43.2739 31.5,42.5C 34.0088,44.5896 33.6754,46.4229 30.5,48C 35.1358,49.6008 39.8025,51.1008 44.5,52.5C 46.1753,52.8684 47.1753,53.8684 47.5,55.5 Z"/></g>
<g><path style="opacity:0.352" fill="#0a0a0a" d="M 50.5,52.5 C 52.5492,52.7058 52.8825,53.5391 51.5,55C 52,55.5 52.5,56 53,56.5C 53.7684,60.9196 53.6018,65.2529 52.5,69.5C 51.3995,70.6049 50.7329,71.9382 50.5,73.5C 48.539,69.9536 47.2056,65.9536 46.5,61.5C 47.1556,59.5466 47.4889,57.5466 47.5,55.5C 48.7281,54.6935 49.7281,53.6935 50.5,52.5 Z"/></g>
<g><path style="opacity:1" fill="#39393b" d="M 82.5,49.5 C 85.703,49.6815 87.5363,51.3482 88,54.5C 88.7504,55.1258 89.5838,55.6258 90.5,56C 87.5526,57.127 84.7193,57.627 82,57.5C 80.8315,58.0085 79.9981,58.8419 79.5,60C 81.1346,60.5396 82.4679,60.0396 83.5,58.5C 84.5827,59.365 84.7494,60.365 84,61.5C 82.103,63.0163 79.9363,63.683 77.5,63.5C 77.5,62.8333 77.5,62.1667 77.5,61.5C 77.8039,60.8501 78.1373,60.1835 78.5,59.5C 76.314,58.7792 74.1474,58.1125 72,57.5C 71.5065,55.8659 71.3398,54.1992 71.5,52.5C 70.1667,52.5 68.8333,52.5 67.5,52.5C 67.5,52.1667 67.5,51.8333 67.5,51.5C 69.5,51.5 71.5,51.5 73.5,51.5C 73.4346,51.9382 73.6012,52.2716 74,52.5C 77.2544,52.162 80.0877,51.162 82.5,49.5 Z"/></g>
<g><path style="opacity:0.999" fill="#2a2a2a" d="M 50.5,52.5 C 55.9638,51.6366 61.6304,51.3032 67.5,51.5C 67.5,51.8333 67.5,52.1667 67.5,52.5C 64.4041,51.9066 62.0708,52.9066 60.5,55.5C 63.4031,66.2092 59.7364,73.2092 49.5,76.5C 47.6701,76.4204 46.3367,75.587 45.5,74C 44.083,67.5013 42.7496,61.0013 41.5,54.5C 41.4346,54.0618 41.6012,53.7284 42,53.5C 43.676,54.0611 45.0094,55.0611 46,56.5C 46.3826,55.944 46.8826,55.6107 47.5,55.5C 47.4889,57.5466 47.1556,59.5466 46.5,61.5C 47.2056,65.9536 48.539,69.9536 50.5,73.5C 52.143,73.5198 53.4763,72.8532 54.5,71.5C 56.5294,72.6293 56.8627,72.1293 55.5,70C 54.552,69.5172 53.552,69.3505 52.5,69.5C 53.6018,65.2529 53.7684,60.9196 53,56.5C 52.5,56 52,55.5 51.5,55C 52.8825,53.5391 52.5492,52.7058 50.5,52.5 Z"/></g>
<g><path style="opacity:0.988" fill="#282828" d="M 93.5,53.5 C 92.1222,58.6854 90.2889,63.6854 88,68.5C 86.3547,68.3068 84.5213,68.1402 82.5,68C 81.8095,66.9326 81.3095,65.7659 81,64.5C 79.687,65.2871 78.5203,64.9538 77.5,63.5C 79.9363,63.683 82.103,63.0163 84,61.5C 84.7494,60.365 84.5827,59.365 83.5,58.5C 82.4679,60.0396 81.1346,60.5396 79.5,60C 79.9981,58.8419 80.8315,58.0085 82,57.5C 84.7193,57.627 87.5526,57.127 90.5,56C 89.5838,55.6258 88.7504,55.1258 88,54.5C 87.5363,51.3482 85.703,49.6815 82.5,49.5C 80.4357,49.313 78.4357,48.813 76.5,48C 77,47.5 77.5,47 78,46.5C 80.7367,47.5604 83.57,48.3937 86.5,49C 87.9389,49.9906 88.9389,51.324 89.5,53C 90.7932,53.49 92.1266,53.6567 93.5,53.5 Z"/></g>
<g><path style="opacity:0.99" fill="#252525" d="M 67.5,52.5 C 68.8333,52.5 70.1667,52.5 71.5,52.5C 71.3398,54.1992 71.5065,55.8659 72,57.5C 74.1474,58.1125 76.314,58.7792 78.5,59.5C 78.1373,60.1835 77.8039,60.8501 77.5,61.5C 76.8826,61.3893 76.3826,61.056 76,60.5C 74.523,66.285 72.3563,71.785 69.5,77C 66.8606,77.5881 64.5273,77.0881 62.5,75.5C 63.4959,75.5858 64.3292,75.2524 65,74.5C 66.6667,71.1667 68.3333,67.8333 70,64.5C 70.8625,61.457 70.0291,60.457 67.5,61.5C 67.1179,58.6463 67.1179,55.6463 67.5,52.5 Z"/></g>
<g><path style="opacity:0.927" fill="#434445" d="M 62.5,75.5 C 61.9569,75.44 61.6236,75.1067 61.5,74.5C 63.8848,70.3462 65.8848,66.0129 67.5,61.5C 70.0291,60.457 70.8625,61.457 70,64.5C 68.3333,67.8333 66.6667,71.1667 65,74.5C 64.3292,75.2524 63.4959,75.5858 62.5,75.5 Z"/></g>
<g><path style="opacity:1" fill="#4f5154" d="M 52.5,69.5 C 53.552,69.3505 54.552,69.5172 55.5,70C 56.8627,72.1293 56.5294,72.6293 54.5,71.5C 53.4763,72.8532 52.143,73.5198 50.5,73.5C 50.7329,71.9382 51.3995,70.6049 52.5,69.5 Z"/></g>
</svg>
