<?xml version="1.0" encoding="UTF-8"?>
<!DOCTYPE svg PUBLIC "-//W3C//DTD SVG 1.1//EN" "http://www.w3.org/Graphics/SVG/1.1/DTD/svg11.dtd">
<svg xmlns="http://www.w3.org/2000/svg" version="1.1" width="100px" height="100px" style="shape-rendering:geometricPrecision; text-rendering:geometricPrecision; image-rendering:optimizeQuality; fill-rule:evenodd; clip-rule:evenodd" xmlns:xlink="http://www.w3.org/1999/xlink">
<g><path style="opacity:0.109" fill="#030100" d="M 31.5,7.5 C 34.8499,7.33499 38.1832,7.50166 41.5,8C 42.9308,8.46524 44.0975,9.29857 45,10.5C 48.1408,21.1145 53.1408,30.7811 60,39.5C 68.7185,51.5772 78.3851,62.9105 89,73.5C 90.0104,78.5577 89.5104,83.3911 87.5,88C 81.8876,91.7837 75.8876,92.4504 69.5,90C 67.7929,86.7515 65.9596,83.5849 64,80.5C 54.5,69 45,57.5 35.5,46C 25.4669,51.7179 17.3002,49.5513 11,39.5C 5.79502,29.4972 8.29502,22.3305 18.5,18C 21.55,12.7709 25.8833,9.27091 31.5,7.5 Z"/></g>
<g><path style="opacity:1" fill="#a8b4b2" d="M 39.5,23.5 C 38.8333,23.5 38.5,23.8333 38.5,24.5C 37.6618,24.8417 37.3284,25.5084 37.5,26.5C 35.194,23.946 32.8606,21.2793 30.5,18.5C 32.4559,16.8861 34.4559,15.2194 36.5,13.5C 38.3722,15.5351 40.0389,17.7017 41.5,20C 40.5705,21.0769 39.9038,22.2436 39.5,23.5 Z"/></g>
<g><path style="opacity:1" fill="#353839" d="M 30.5,18.5 C 32.8606,21.2793 35.194,23.946 37.5,26.5C 35.6568,27.2829 33.6568,27.9495 31.5,28.5C 30.5344,30.396 30.2011,32.396 30.5,34.5C 28.5905,33.0254 27.4238,31.0254 27,28.5C 25.5913,27.2189 24.0913,26.2189 22.5,25.5C 25.2072,23.1568 27.8739,20.8235 30.5,18.5 Z"/></g>
<g><path style="opacity:1" fill="#515859" d="M 22.5,25.5 C 24.0913,26.2189 25.5913,27.2189 27,28.5C 27.4238,31.0254 28.5905,33.0254 30.5,34.5C 30.3465,36.9699 29.3465,38.9699 27.5,40.5C 23.7926,36.7943 20.4593,32.7943 17.5,28.5C 18.8993,27.1103 20.5659,26.1103 22.5,25.5 Z"/></g>
<g><path style="opacity:1" fill="#3c1811" d="M 39.5,23.5 C 42.8574,27.9743 46.1908,32.9743 49.5,38.5C 48.6236,38.3691 47.9569,38.7025 47.5,39.5C 48.1272,40.4168 48.4606,41.4168 48.5,42.5C 47.4341,43.6921 46.6008,43.3588 46,41.5C 45.5357,42.0944 45.369,42.7611 45.5,43.5C 42.9296,42.516 42.9296,41.3493 45.5,40C 42.5693,41.2026 40.5693,40.2026 39.5,37C 41.0016,36.4169 42.3349,35.5836 43.5,34.5C 42.0186,33.5197 40.6853,32.353 39.5,31C 40.1818,28.812 39.8484,26.6454 38.5,24.5C 38.5,23.8333 38.8333,23.5 39.5,23.5 Z"/></g>
<g><path style="opacity:1" fill="#828e90" d="M 17.5,28.5 C 20.4593,32.7943 23.7926,36.7943 27.5,40.5C 26.828,41.2674 25.9947,41.9341 25,42.5C 21.1311,38.9662 17.6311,35.1328 14.5,31C 15.3734,29.955 16.3734,29.1217 17.5,28.5 Z"/></g>
<g><path style="opacity:1" fill="#ce1e18" d="M 49.5,38.5 C 49.5,39.1667 49.8333,39.5 50.5,39.5C 50.4431,40.609 50.1098,41.609 49.5,42.5C 49.1667,42.5 48.8333,42.5 48.5,42.5C 48.4606,41.4168 48.1272,40.4168 47.5,39.5C 47.9569,38.7025 48.6236,38.3691 49.5,38.5 Z"/></g>
<g><path style="opacity:1" fill="#201309" d="M 48.5,42.5 C 48.8333,42.5 49.1667,42.5 49.5,42.5C 49.3101,44.5195 50.1435,46.5195 52,48.5C 55.1829,52.3961 58.8496,55.7294 63,58.5C 68.4473,65.8424 74.2806,73.0091 80.5,80C 81.448,80.4828 82.448,80.6495 83.5,80.5C 82.0852,82.3444 80.4185,83.0111 78.5,82.5C 73.8504,75.8549 68.8504,69.5216 63.5,63.5C 63.1667,64.1667 62.8333,64.8333 62.5,65.5C 59.3112,62.815 57.1445,59.4816 56,55.5C 55.3333,56.8333 54.6667,56.8333 54,55.5C 50.5335,51.88 47.7001,47.88 45.5,43.5C 45.369,42.7611 45.5357,42.0944 46,41.5C 46.6008,43.3588 47.4341,43.6921 48.5,42.5 Z"/></g>
<g><path style="opacity:0.808" fill="#652c12" d="M 50.5,39.5 C 60.3878,54.0553 71.3878,67.7219 83.5,80.5C 82.448,80.6495 81.448,80.4828 80.5,80C 74.2806,73.0091 68.4473,65.8424 63,58.5C 58.8496,55.7294 55.1829,52.3961 52,48.5C 50.1435,46.5195 49.3101,44.5195 49.5,42.5C 50.1098,41.609 50.4431,40.609 50.5,39.5 Z"/></g>
</svg>
